<?xml version="1.0" encoding="UTF-8" standalone="no"?>
<svg
   viewBox="0 0 32.292095 31.455592"
   version="1.1"
   id="svg8"
   sodipodi:docname="dataimportdxf.svg"
   inkscape:version="1.3.2 (091e20e, 2023-11-25, custom)"
   width="32.292095"
   height="31.455593"
   xml:space="preserve"
   inkscape:export-filename="dataimportcsv.png"
   inkscape:export-xdpi="142.69746"
   inkscape:export-ydpi="142.69746"
   xmlns:inkscape="http://www.inkscape.org/namespaces/inkscape"
   xmlns:sodipodi="http://sodipodi.sourceforge.net/DTD/sodipodi-0.dtd"
   xmlns="http://www.w3.org/2000/svg"
   xmlns:svg="http://www.w3.org/2000/svg"><defs
     id="defs8" /><sodipodi:namedview
     id="namedview8"
     pagecolor="#353535"
     bordercolor="#000000"
     borderopacity="0.25"
     inkscape:showpageshadow="2"
     inkscape:pageopacity="0.0"
     inkscape:pagecheckerboard="0"
     inkscape:deskcolor="#d1d1d1"
     inkscape:zoom="8.6988864"
     inkscape:cx="3.9660249"
     inkscape:cy="27.647217"
     inkscape:window-width="2170"
     inkscape:window-height="1361"
     inkscape:window-x="773"
     inkscape:window-y="19"
     inkscape:window-maximized="1"
     inkscape:current-layer="Layer_23"
     showgrid="false" /><title
     id="title1" /><g
     data-name="Layer 23"
     id="Layer_23"
     transform="translate(-13.666217,-1.501647)"><path
       d="m 20.240437,7.5620994 a 1.2103173,0.84282933 0 0 0 0.508334,0.6826921 l 8.472221,4.2141465 a 1.2103173,0.84282933 0 0 0 1.912301,-0.682692 v -0.842829 h 6.051586 a 1.2103173,0.84282933 0 0 0 1.210318,-0.842829 V 5.0336113 A 1.2103173,0.84282933 0 0 0 37.184879,4.190782 H 31.133293 V 3.3479527 A 1.2103173,0.84282933 0 0 0 29.220992,2.6652608 L 20.748771,6.8794076 A 1.2103173,0.84282933 0 0 0 20.240437,7.5620994 Z M 28.712659,10.141158 23.5325,7.5620994 28.712659,4.9830416 v 0.050569 a 1.2103173,0.84282933 0 0 0 1.210317,0.8428299 h 6.051586 v 3.3713177 h -6.051586 a 1.2103173,0.84282933 0 0 0 -1.210317,0.8428298 z"
       id="path8"
       style="fill:#be0000;fill-opacity:1;stroke:none;stroke-width:2;stroke-linecap:square;stroke-linejoin:bevel;stroke-dasharray:none;stroke-opacity:1;paint-order:markers stroke fill" /><text
       xml:space="preserve"
       style="font-style:normal;font-variant:normal;font-weight:normal;font-stretch:normal;font-size:14.9021px;line-height:0;font-family:Dubai;-inkscape-font-specification:Dubai;text-align:center;letter-spacing:0px;text-anchor:middle;white-space:pre;inline-size:30.3349;display:inline;opacity:1;fill:#be0000;fill-opacity:1;stroke:none;stroke-width:0.620921;stroke-dasharray:none;stroke-opacity:1"
       x="33.727047"
       y="25.077053"
       id="text8"
       transform="matrix(1.771561,0,0,1.4641,-29.550036,-4.9478158)"><tspan
         x="33.727047"
         y="25.077053"
         id="tspan4"><tspan
           style="font-family:Stengazeta;-inkscape-font-specification:Stengazeta"
           id="tspan2">DXF</tspan></tspan></text><path
       style="fill:#be0000;fill-opacity:1;stroke:none;stroke-width:0.0840468;stroke-opacity:1"
       d="m 26.016213,9.3444012 c -1.458727,-0.9319111 -2.633092,-1.7227531 -2.6097,-1.7574262 0.071,-0.1052324 5.21308,-3.3716069 5.307744,-3.3716069 0.04847,0 0.08813,0.087719 0.08813,0.1949317 0,0.2534195 0.397419,0.6821916 0.761452,0.8215241 0.225069,0.086145 1.00438,0.1097243 3.626424,0.1097243 h 3.339749 V 7.6341291 9.92671 h -3.389518 c -2.930826,0 -3.429748,0.01749 -3.6868,0.129227 -0.301804,0.131191 -0.651307,0.550015 -0.651307,0.780486 0,0.06959 -0.03014,0.143594 -0.06696,0.164448 -0.03684,0.02085 -1.260477,-0.724559 -2.719207,-1.6564698 z"
       id="path2" /></g></svg>
