<?xml version="1.0" encoding="UTF-8" standalone="no"?>
<svg
   viewBox="0 0 31.190413 29.164297"
   version="1.1"
   id="svg8"
   sodipodi:docname="csvimport.svg"
   inkscape:version="1.3.2 (091e20e, 2023-11-25, custom)"
   width="31.190413"
   height="29.164297"
   xml:space="preserve"
   xmlns:inkscape="http://www.inkscape.org/namespaces/inkscape"
   xmlns:sodipodi="http://sodipodi.sourceforge.net/DTD/sodipodi-0.dtd"
   xmlns="http://www.w3.org/2000/svg"
   xmlns:svg="http://www.w3.org/2000/svg"><defs
     id="defs8" /><sodipodi:namedview
     id="namedview8"
     pagecolor="#ffffff"
     bordercolor="#000000"
     borderopacity="0.25"
     inkscape:showpageshadow="2"
     inkscape:pageopacity="0.0"
     inkscape:pagecheckerboard="0"
     inkscape:deskcolor="#d1d1d1"
     inkscape:zoom="4.3494433"
     inkscape:cx="6.8974345"
     inkscape:cy="34.60213"
     inkscape:window-width="2170"
     inkscape:window-height="1361"
     inkscape:window-x="570"
     inkscape:window-y="0"
     inkscape:window-maximized="0"
     inkscape:current-layer="Layer_23" /><title
     id="title1" /><g
     data-name="Layer 23"
     id="Layer_23"
     transform="translate(-13.999971,-3.9999706)"><path
       d="M 25,16 H 15 a 1,1 0 0 1 -0.92,-0.62 1,1 0 0 1 0.21,-1.09 l 10,-10 A 1,1 0 0 1 25.38,4.08 1,1 0 0 1 26,5 v 10 a 1,1 0 0 1 -1,1 z M 17.41,14 H 24 V 7.41 Z"
       id="path2"
       style="fill:#be0000;fill-opacity:1" /><path
       id="path6"
       d="M 25,4 C 24.734007,3.99796 24.478164,4.1019885 24.289062,4.2890625 l -10,9.9999995 C 14.101989,14.478164 13.997964,14.734007 14,15 V 18.253906 20 30.164268 c 0,1.65685 1.34315,3 3,3 H 33.429688 36.951172 40 c 1.656852,0 3,-1.343148 3,-3 V 7 C 43,5.3431475 41.656852,4 40,4 Z m 0.410156,2 H 40 c 0.552284,0 1,0.4477159 1,1 v 23.164268 c 0,0.552284 -0.447716,1 -1,1 H 36.951172 33.429688 17 c -0.552283,0 -1,-0.447717 -1,-1 v -11.910362 -2.84375 z"
       sodipodi:nodetypes="ccccccssccssssccssssccssccc"
       style="fill:#be0000;fill-opacity:1" /><path
       d="m 30.190383,12.439322 a 1,1 0 0 0 0.42,0.81 l 7,5 a 1,1 0 0 0 1.58,-0.81 v -1 h 5 a 1,1 0 0 0 1,-1 V 9.4393217 a 1,1 0 0 0 -1,-1 h -5 v -1 a 1,1 0 0 0 -1.58,-0.81 l -7,5.0000003 a 1,1 0 0 0 -0.42,0.81 z m 7,3.06 -4.28,-3.06 4.28,-3.0600003 v 0.06 a 1,1 0 0 0 1,1.0000003 h 5 v 4 h -5 a 1,1 0 0 0 -1,1 z"
       id="path8"
       style="fill:#be0000;fill-opacity:1" /><text
       xml:space="preserve"
       style="font-style:normal;font-variant:normal;font-weight:normal;font-stretch:normal;font-size:14.6667px;font-family:Dubai;-inkscape-font-specification:Dubai;text-align:center;text-anchor:middle;white-space:pre;inline-size:30.3349;display:inline;fill:#be0000;fill-opacity:1"
       x="33.727047"
       y="25.077053"
       id="text8"
       transform="translate(-5.1398161,3.9354483)"><tspan
         x="33.727047"
         y="25.077053"
         id="tspan4"><tspan
           style="font-weight:500;font-family:Teko;-inkscape-font-specification:'Teko Medium'"
           id="tspan3">CSV</tspan></tspan></text></g></svg>
