<?xml version="1.0" encoding="UTF-8" standalone="no"?>
<svg
   viewBox="0 0 33.442436 33.213481"
   version="1.1"
   id="svg8"
   sodipodi:docname="dataexportstf.svg"
   inkscape:version="1.3.2 (091e20e, 2023-11-25, custom)"
   width="33.442436"
   height="33.213482"
   xml:space="preserve"
   inkscape:export-filename="dataexportcsv.png"
   inkscape:export-xdpi="137.789"
   inkscape:export-ydpi="137.789"
   xmlns:inkscape="http://www.inkscape.org/namespaces/inkscape"
   xmlns:sodipodi="http://sodipodi.sourceforge.net/DTD/sodipodi-0.dtd"
   xmlns="http://www.w3.org/2000/svg"
   xmlns:svg="http://www.w3.org/2000/svg"><defs
     id="defs8" /><sodipodi:namedview
     id="namedview8"
     pagecolor="#353535"
     bordercolor="#000000"
     borderopacity="0.25"
     inkscape:showpageshadow="2"
     inkscape:pageopacity="0.0"
     inkscape:pagecheckerboard="0"
     inkscape:deskcolor="#d1d1d1"
     inkscape:zoom="12.302083"
     inkscape:cx="14.591025"
     inkscape:cy="30.68586"
     inkscape:window-width="2170"
     inkscape:window-height="1361"
     inkscape:window-x="773"
     inkscape:window-y="0"
     inkscape:window-maximized="0"
     inkscape:current-layer="Layer_23" /><title
     id="title1" /><g
     data-name="Layer 23"
     id="Layer_23"
     transform="translate(-13.030005,0.47988036)"><path
       d="M 38.395197,4.5732111 A 1.2103173,0.84282933 0 0 1 37.886863,5.2559032 L 29.414642,9.4700493 A 1.2103173,0.84282933 0 0 1 27.502341,8.7873576 V 7.9445286 H 21.450755 A 1.2103173,0.84282933 0 0 1 20.240437,7.1016997 V 2.044723 a 1.2103173,0.84282933 0 0 1 1.210318,-0.8428293 h 6.051586 V 0.3590644 a 1.2103173,0.84282933 0 0 1 1.912301,-0.68269188 l 8.472221,4.21414678 a 1.2103173,0.84282933 0 0 1 0.508334,0.6826918 z M 29.922975,7.1522697 35.103134,4.5732111 29.922975,1.9941533 v 0.050569 a 1.2103173,0.84282933 0 0 1 -1.210317,0.8428299 h -6.051586 v 3.3713177 h 6.051586 a 1.2103173,0.84282933 0 0 1 1.210317,0.8428298 z"
       id="path8"
       style="fill:#058305;fill-opacity:1;stroke:none;stroke-width:2;stroke-linecap:square;stroke-linejoin:bevel;stroke-dasharray:none;stroke-opacity:1;paint-order:markers stroke fill" /><text
       xml:space="preserve"
       style="font-style:normal;font-variant:normal;font-weight:normal;font-stretch:normal;font-size:9.93474px;line-height:0;font-family:Dubai;-inkscape-font-specification:Dubai;text-align:center;letter-spacing:0px;text-anchor:middle;white-space:pre;inline-size:30.3349;display:inline;opacity:1;fill:#058305;fill-opacity:1;stroke:none;stroke-width:0.620921;stroke-dasharray:none;stroke-opacity:1"
       x="33.727047"
       y="25.077053"
       id="text8"
       transform="matrix(1.5434256,0,0,2.4989261,-22.033151,-31.460529)"><tspan
         x="33.727047"
         y="25.077053"
         id="tspan4"><tspan
           style="font-family:UA-brand;-inkscape-font-specification:UA-brand"
           id="tspan3">STF</tspan></tspan></text><path
       style="fill:#058305;fill-opacity:1;stroke:none;stroke-width:0.0840468;stroke-opacity:1"
       d="m 32.619421,6.3555129 c 1.458727,-0.9319111 2.633092,-1.7227531 2.6097,-1.7574262 -0.071,-0.1052324 -5.21308,-3.3716069 -5.307744,-3.3716069 -0.04847,0 -0.08813,0.087719 -0.08813,0.1949317 0,0.2534195 -0.397419,0.6821916 -0.761452,0.8215241 -0.225069,0.086145 -1.00438,0.1097243 -3.626424,0.1097243 h -3.339749 v 2.2925809 2.2925809 h 3.389518 c 2.930826,0 3.429748,0.01749 3.6868,0.129227 0.301804,0.131191 0.651307,0.550015 0.651307,0.780486 0,0.06959 0.03014,0.1435939 0.06696,0.1644479 0.03684,0.02085 1.260477,-0.7245589 2.719207,-1.6564697 z"
       id="path2" /></g></svg>
