<?xml version="1.0" encoding="UTF-8" standalone="no"?>
<svg
   data-name="Capa 1"
   id="Capa_1"
   viewBox="0 0 12.340062 12.277437"
   version="1.1"
   sodipodi:docname="reportcable.svg"
   width="12.340062"
   height="12.277437"
   xml:space="preserve"
   inkscape:version="1.3.2 (091e20e, 2023-11-25, custom)"
   inkscape:export-filename="reportcable.png"
   inkscape:export-xdpi="373.41791"
   inkscape:export-ydpi="373.41791"
   xmlns:inkscape="http://www.inkscape.org/namespaces/inkscape"
   xmlns:sodipodi="http://sodipodi.sourceforge.net/DTD/sodipodi-0.dtd"
   xmlns="http://www.w3.org/2000/svg"
   xmlns:svg="http://www.w3.org/2000/svg"><defs
     id="defs2" /><sodipodi:namedview
     id="namedview2"
     pagecolor="#ffffff"
     bordercolor="#000000"
     borderopacity="0.25"
     inkscape:showpageshadow="2"
     inkscape:pageopacity="0.0"
     inkscape:pagecheckerboard="0"
     inkscape:deskcolor="#d1d1d1"
     inkscape:zoom="22.627417"
     inkscape:cx="6.363961"
     inkscape:cy="6.607029"
     inkscape:window-width="1488"
     inkscape:window-height="1237"
     inkscape:window-x="357"
     inkscape:window-y="58"
     inkscape:window-maximized="0"
     inkscape:current-layer="Capa_1" /><path
     d="M 10.700031,0.8792628 H 9.3700309 a 0.89,0.71793013 0 0 0 -0.78,-0.3871983 h -0.7 v 0 A 0.61,0.49206447 0 0 0 7.2800309,0 h -2.22 a 0.61,0.49206447 0 0 0 -0.61,0.4920645 v 0 h -0.7 a 0.89,0.71793013 0 0 0 -0.78,0.3871983 h -1.33 A 1.64,1.3229275 0 0 0 3.0869129e-5,2.2021901 V 10.954484 A 1.63,1.3148608 0 0 0 1.6400309,12.277412 h 9.0600001 a 1.63,1.3148608 0 0 0 1.64,-1.322928 V 2.2021901 a 1.64,1.3229275 0 0 0 -1.64,-1.3229273 z m 0.89,10.0752212 a 0.89,0.71793013 0 0 1 -0.89,0.71793 H 1.6400309 A 0.89,0.71793013 0 0 1 0.75003087,10.954484 V 2.2021901 a 0.89,0.71793013 0 0 1 0.89000003,-0.71793 h 1.29 a 0.89,0.71793013 0 0 0 0.82,0.435598 h 4.84 a 0.89,0.71793013 0 0 0 0.82,-0.435598 h 1.2900001 a 0.89,0.71793013 0 0 1 0.89,0.71793 z"
     id="path1"
     style="stroke-width:0.898145;fill:#008c00;fill-opacity:1"
     inkscape:label="path1" /><g
     inkscape:groupmode="layer"
     id="layer1"
     inkscape:label="Layer 1"
     transform="translate(-3.8299691,-2.32)" /><g
     style="clip-rule:evenodd;fill-rule:evenodd;stroke-linecap:round;stroke-linejoin:round;stroke-miterlimit:1.5"
     id="g8"
     transform="matrix(0.0366627,0,0,0.0366627,1.5959377,1.5660978)"><g
       id="Copper"
       transform="matrix(0.237037,0,0,0.237037,0.41,0.292)"><path
         style="fill:#0044aa;fill-opacity:1;stroke-width:0.03125"
         d="M 5.078125,10.357927 C 4.5401301,10.319445 3.5874076,10.211842 3.2584634,10.152408 3.0318913,10.111471 2.9701794,10.08727 2.8942023,10.009559 2.6944002,9.8051964 2.7637613,9.4868354 3.0329257,9.3728317 c 0.078875,-0.033407 0.1547552,-0.03244 0.4375,0.00558 C 5.2264901,9.614531 7.0250019,9.63996 8.609375,9.4510707 9.4751187,9.3478566 9.5523081,9.3444216 9.6674872,9.4039827 c 0.1226006,0.063399 0.222904,0.2191026 0.222904,0.346019 0,0.126444 -0.1001703,0.2825513 -0.2216,0.3453453 -0.1007256,0.05209 -0.8987953,0.164495 -1.6531662,0.232847 -0.5085913,0.04608 -2.4361561,0.06559 -2.9375,0.02974 z"
         id="path12"
         transform="matrix(115.06928,0,0,115.06928,-185.3731,-181.44163)" /><path
         style="fill:#0044aa;fill-opacity:1;stroke-width:0.03125"
         d="M 4.296875,8.7959397 C 3.9273437,8.7626116 3.4845944,8.7151295 3.3129875,8.6904239 3.0172435,8.6478466 2.9954645,8.6394914 2.8952865,8.5301784 2.7984396,8.4245001 2.7908375,8.4019522 2.8044146,8.2606526 2.8212846,8.0850831 2.9351076,7.9376619 3.0780306,7.9062707 3.12471,7.8960182 3.4496867,7.9161908 3.8002011,7.9510986 5.3574756,8.1061882 7.1014147,8.113583 8.6875,7.9718221 9.4817203,7.9008364 9.5375522,7.89945 9.6386084,7.9482048 9.8592337,8.054646 9.9380894,8.3039407 9.8120022,8.4963741 9.70531,8.659207 9.6167181,8.6798712 8.578125,8.7841773 8.2349387,8.8186436 7.6383028,8.8362792 6.53125,8.8446798 5.1719442,8.8549944 4.8813765,8.848656 4.296875,8.7959397 Z"
         id="path13"
         transform="matrix(115.06928,0,0,115.06928,-185.3731,-181.44163)" /><path
         style="fill:#0044aa;fill-opacity:1;stroke-width:0.03125"
         d="M 4.806041,7.3738194 C 4.0741144,7.2796734 3.7756266,7.1888966 3.4619241,6.9650431 2.7105302,6.4288597 2.5149299,5.4915541 3.0210707,4.8524992 3.1593978,4.6778471 3.2931517,4.5983006 4.453125,4.0008241 5.0117187,3.7131049 5.5352238,3.4357544 5.6164696,3.3844897 5.853995,3.2346151 6.0086775,2.9696882 6.0931394,2.5680925 c 0.024393,-0.1159819 0.0916,-0.091384 0.104325,0.038182 0.014125,0.1438264 -0.060728,0.3404847 -0.2280428,0.599127 -0.1399579,0.2163528 -0.1428138,0.2255006 -0.088979,0.284988 0.075136,0.083025 0.1458413,0.065309 0.6276106,-0.1572514 C 7.0090072,3.1017148 7.0560469,3.0861814 7.041935,3.15684 7.0353116,3.190004 6.8530716,3.3010278 6.5625,3.4489201 6.1141019,3.6771415 6.0933247,3.6919096 6.0839575,3.7890625 c -0.00865,0.089693 -8.156e-4,0.1015625 0.067021,0.1015625 0.2485285,0 0.8646466,0.3228356 0.8646466,0.4530604 0,0.070406 -0.051494,0.057514 -0.2123644,-0.053167 C 6.5927994,4.145717 6.3356475,4.0484717 6.1609412,4.0476167 6.0349991,4.0470004 5.9584116,4.0753359 5.7078162,4.2152623 5.5419548,4.3078754 5.0828125,4.5522929 4.6875,4.7584124 3.5211078,5.3665798 3.5303693,5.3591737 3.5325599,5.6819791 c 0.00154,0.227095 0.055925,0.3456156 0.2410084,0.5252325 0.1477473,0.1433837 0.2493785,0.2016459 0.4617713,0.26472 0.6928884,0.2057656 2.4688038,0.2225775 4.4188885,0.041831 0.9179219,-0.085078 0.9378056,-0.084229 1.0676469,0.045612 0.092969,0.092969 0.10625,0.1261094 0.10625,0.2651319 0,0.1294572 -0.015916,0.17648 -0.085937,0.2539034 C 9.640494,7.1908528 9.4437019,7.2339403 8.671875,7.3127537 7.6170391,7.4204659 5.436477,7.4549106 4.806041,7.3738194 Z"
         id="path14"
         transform="matrix(115.06928,0,0,115.06928,-185.3731,-181.44163)" /><path
         style="fill:#b3b3b3;fill-opacity:1;stroke-width:0.0441942"
         d="m 1.2598495,11.574764 c -0.0849,-0.03682 -0.2011422,-0.110616 -0.2583156,-0.163998 -0.23939911,-0.223522 -0.22813586,0.01484 -0.22813586,-4.8280089 0,-5.0342393 -0.0227542,-4.688728 0.32390646,-4.9183708 0.17368,-0.1150531 0.1950425,-0.1178882 0.990098,-0.1313998 l 0.812588,-0.01381 0.1710126,0.1544996 C 3.1650601,1.7586514 3.318001,1.8492762 3.4108719,1.8750649 3.66209,1.9448242 8.7270045,1.9396384 8.9615001,1.8693818 9.0589129,1.8401962 9.2081858,1.750703 9.2932171,1.670508 L 9.4478199,1.524699 h 0.7602651 c 0.710316,0 0.773062,0.00675 0.955042,0.1027286 0.107126,0.056501 0.239522,0.1688223 0.294213,0.2496035 l 0.09944,0.1468749 v 4.5660238 4.5660232 l -0.143251,0.163155 c -0.305589,0.348047 0.08134,0.324208 -5.2484378,0.323357 -4.1449453,-6.63e-4 -4.7705613,-0.0093 -4.9052377,-0.0677 z M 7.9549513,10.359035 C 8.7069306,10.304356 9.5034625,10.20082 9.665321,10.136712 9.917131,10.036979 9.9980386,9.7213389 9.8274001,9.504407 9.6731593,9.3083218 9.5917346,9.3004482 8.7876389,9.4038621 c -0.6487873,0.08344 -0.9626402,0.09583 -2.445775,0.096557 -1.5225546,7.465e-4 -1.7772811,-0.0096 -2.4223588,-0.098356 -0.3964857,-0.054554 -0.7609601,-0.09919 -0.8099432,-0.09919 -0.048983,0 -0.1471924,0.058132 -0.2182431,0.1291831 -0.232599,0.2325988 -0.1540086,0.6092528 0.1471677,0.7053178 0.2973947,0.09486 1.7458065,0.249197 2.684659,0.286068 0.468163,0.01839 1.5044492,-0.01152 2.2318058,-0.06441 z M 7.7126435,8.8614533 C 8.2356576,8.8380737 8.891048,8.7890584 9.1690664,8.7525306 9.6011803,8.6957561 9.6907349,8.6699357 9.7860206,8.5746499 9.9478809,8.4127892 9.9424393,8.138917 9.7744921,7.9944551 9.6258839,7.8666274 9.5420087,7.8641234 8.4410872,7.9546459 7.3703697,8.0426851 5.2244288,8.0412674 4.2205436,7.9518581 3.128886,7.8546314 3.0055571,7.8546438 2.8979906,7.9519898 2.7187254,8.1142227 2.7247829,8.4961032 2.9085312,8.6164996 3.2380826,8.8324301 5.6316684,8.954475 7.7126435,8.8614533 Z M 8.7946406,7.3374146 C 9.5518176,7.2495822 9.7221777,7.206717 9.8094886,7.0820638 9.9338895,6.9044566 9.8531967,6.5254929 9.6765442,6.4577048 9.5651793,6.4149699 9.2096022,6.4264679 8.4410872,6.4976541 7.372754,6.596612 5.6704082,6.6304453 5.0407913,6.5652337 4.3036584,6.488886 4.0123769,6.3914874 3.78568,6.1455503 3.6862072,6.0376348 3.592014,5.898316 3.5763618,5.8359526 3.5288572,5.6466793 3.5943342,5.4250723 3.7250189,5.332823 3.7909497,5.286283 4.3382994,4.9871499 4.9413515,4.6680829 5.7248943,4.2535206 6.0805973,4.0879611 6.1877372,4.0879611 c 0.08951,0 0.2851894,0.071237 0.485583,0.1767767 0.1846106,0.097227 0.3446545,0.1767767 0.3556531,0.1767767 0.010999,0 0.019997,-0.038763 0.019997,-0.086139 0,-0.1234313 -0.2736742,-0.3149665 -0.6133908,-0.4292916 C 6.2746556,3.8719277 6.1429902,3.801674 6.1429902,3.7699644 c 0,-0.03171 0.1933313,-0.1575143 0.4296248,-0.2795661 C 7.063903,3.2366356 7.1335836,3.1826243 7.0620124,3.1110534 7.0263685,3.0754094 6.874371,3.1251001 6.499143,3.2950656 6.1509451,3.4527876 5.970613,3.5134171 5.9401884,3.4829922 5.9097634,3.4525672 5.953802,3.3269435 6.0766896,3.0936098 6.2688225,2.7287968 6.3001172,2.4886044 6.1589951,2.4619011 6.1048413,2.4516541 6.0731311,2.5043977 6.0330854,2.6713261 5.9745631,2.9152757 5.7967368,3.2105016 5.6437931,3.3176277 5.5902505,3.3551304 5.0840447,3.6253161 4.5188913,3.9180406 3.2623852,4.568855 3.1011637,4.6693738 2.9434273,4.9003143 2.5447371,5.4840331 2.6520229,6.2384893 3.213297,6.7980941 c 0.3454005,0.3443734 0.7245284,0.4992731 1.4712854,0.6011212 0.4867091,0.066381 3.3801012,0.022874 4.1100582,-0.061801 z"
         id="path16"
         transform="matrix(115.06928,0,0,115.06928,-185.3731,-181.44163)" /></g></g></svg>
