<?xml version="1.0" encoding="UTF-8" standalone="no"?>
<!-- Created with Inkscape (http://www.inkscape.org/) -->

<svg
   xmlns:dc="http://purl.org/dc/elements/1.1/"
   xmlns:cc="http://creativecommons.org/ns#"
   xmlns:rdf="http://www.w3.org/1999/02/22-rdf-syntax-ns#"
   xmlns:svg="http://www.w3.org/2000/svg"
   xmlns="http://www.w3.org/2000/svg"
   xmlns:sodipodi="http://sodipodi.sourceforge.net/DTD/sodipodi-0.dtd"
   xmlns:inkscape="http://www.inkscape.org/namespaces/inkscape"
   width="16"
   height="16"
   viewBox="0 0 16 16"
   id="svg4225"
   version="1.1"
   inkscape:version="0.92.1 r15371"
   sodipodi:docname="grid.svg"
   inkscape:export-filename="snaptogrid.png"
   inkscape:export-xdpi="96"
   inkscape:export-ydpi="96">
  <defs
     id="defs4227" />
  <sodipodi:namedview
     id="base"
     pagecolor="#ffffff"
     bordercolor="#666666"
     borderopacity="1.0"
     inkscape:pageopacity="0.0"
     inkscape:pageshadow="2"
     inkscape:zoom="32"
     inkscape:cx="-9.6860888"
     inkscape:cy="7.6806382"
     inkscape:document-units="px"
     inkscape:current-layer="layer1"
     showgrid="true"
     inkscape:snap-bbox="true"
     inkscape:bbox-paths="true"
     inkscape:bbox-nodes="true"
     inkscape:snap-bbox-edge-midpoints="true"
     inkscape:snap-bbox-midpoints="true"
     inkscape:object-paths="true"
     inkscape:snap-intersection-paths="true"
     inkscape:object-nodes="true"
     inkscape:snap-smooth-nodes="true"
     inkscape:snap-midpoints="true"
     inkscape:snap-object-midpoints="true"
     inkscape:snap-center="true"
     units="px"
     inkscape:window-width="2560"
     inkscape:window-height="1414"
     inkscape:window-x="-9"
     inkscape:window-y="-9"
     inkscape:window-maximized="1"
     showguides="true"
     inkscape:guide-bbox="true">
    <inkscape:grid
       type="xygrid"
       id="grid4241"
       spacingx="0.5"
       spacingy="0.5"
       empspacing="2"
       dotted="true" />
  </sodipodi:namedview>
  <metadata
     id="metadata4230">
    <rdf:RDF>
      <cc:Work
         rdf:about="">
        <dc:format>image/svg+xml</dc:format>
        <dc:type
           rdf:resource="http://purl.org/dc/dcmitype/StillImage" />
        <dc:title></dc:title>
      </cc:Work>
    </rdf:RDF>
  </metadata>
  <g
     inkscape:label="Ebene 1"
     inkscape:groupmode="layer"
     id="layer1"
     transform="translate(0,-1036.3622)">
    <ellipse
       ry="0.50000107"
       rx="0.4999997"
       cy="1039.8622"
       cx="8.5"
       id="ellipse6330"
       style="fill:#c8c8c8;fill-opacity:1;stroke:#008c00;stroke-width:0;stroke-linecap:round;stroke-linejoin:round;stroke-miterlimit:4;stroke-dasharray:none;stroke-opacity:1" />
    <ellipse
       ry="0.50000978"
       rx="0.4999997"
       cy="1039.8622"
       cx="13.5"
       id="ellipse6359"
       style="fill:#c8c8c8;fill-opacity:1;stroke:#008c00;stroke-width:0;stroke-linecap:round;stroke-linejoin:round;stroke-miterlimit:4;stroke-dasharray:none;stroke-opacity:1" />
    <ellipse
       ry="0.50000107"
       rx="0.4999997"
       cy="1039.8622"
       cx="3.5"
       id="ellipse6396"
       style="fill:#c8c8c8;fill-opacity:1;stroke:#008c00;stroke-width:0;stroke-linecap:round;stroke-linejoin:round;stroke-miterlimit:4;stroke-dasharray:none;stroke-opacity:1" />
    <ellipse
       style="fill:#c8c8c8;fill-opacity:1;stroke:#008c00;stroke-width:0;stroke-linecap:round;stroke-linejoin:round;stroke-miterlimit:4;stroke-dasharray:none;stroke-opacity:1"
       id="ellipse6458"
       cx="8.5"
       cy="1044.8622"
       rx="0.4999997"
       ry="0.50000107" />
    <ellipse
       style="fill:#c8c8c8;fill-opacity:1;stroke:#008c00;stroke-width:0;stroke-linecap:round;stroke-linejoin:round;stroke-miterlimit:4;stroke-dasharray:none;stroke-opacity:1"
       id="ellipse6460"
       cx="13.5"
       cy="1044.8622"
       rx="0.4999997"
       ry="0.50000978" />
    <ellipse
       style="fill:#c8c8c8;fill-opacity:1;stroke:#008c00;stroke-width:0;stroke-linecap:round;stroke-linejoin:round;stroke-miterlimit:4;stroke-dasharray:none;stroke-opacity:1"
       id="ellipse6462"
       cx="3.5"
       cy="1044.8622"
       rx="0.4999997"
       ry="0.50000107" />
    <ellipse
       ry="0.50000107"
       rx="0.4999997"
       cy="1049.8622"
       cx="8.5"
       id="ellipse6464"
       style="fill:#c8c8c8;fill-opacity:1;stroke:#008c00;stroke-width:0;stroke-linecap:round;stroke-linejoin:round;stroke-miterlimit:4;stroke-dasharray:none;stroke-opacity:1" />
    <ellipse
       ry="0.50000978"
       rx="0.4999997"
       cy="1049.8622"
       cx="13.5"
       id="ellipse6466"
       style="fill:#c8c8c8;fill-opacity:1;stroke:#008c00;stroke-width:0;stroke-linecap:round;stroke-linejoin:round;stroke-miterlimit:4;stroke-dasharray:none;stroke-opacity:1" />
    <ellipse
       ry="0.50000107"
       rx="0.4999997"
       cy="1049.8622"
       cx="3.5"
       id="ellipse6468"
       style="fill:#c8c8c8;fill-opacity:1;stroke:#008c00;stroke-width:0;stroke-linecap:round;stroke-linejoin:round;stroke-miterlimit:4;stroke-dasharray:none;stroke-opacity:1" />
    <path
       id="path6478-7"
       d="m 1,1038.3622 a 0.9999994,1.0000223 0 0 0 1,-1 H 1 Z"
       style="fill:#c8c8c8;fill-opacity:1;stroke:#008c00;stroke-width:0;stroke-linecap:round;stroke-linejoin:round;stroke-miterlimit:4;stroke-dasharray:none;stroke-opacity:1"
       inkscape:connector-curvature="0" />
    <path
       inkscape:connector-curvature="0"
       style="fill:#000000;fill-opacity:1;stroke:#008c00;stroke-width:0;stroke-linecap:round;stroke-linejoin:round;stroke-miterlimit:4;stroke-dasharray:none;stroke-opacity:1"
       d="m 5,1037.3622 a 1.0000223,0.9999994 0 0 0 1,1 v -1 z"
       id="path6480-4" />
    <path
       inkscape:connector-curvature="0"
       style="fill:#000000;fill-opacity:1;stroke:#008c00;stroke-width:0;stroke-linecap:round;stroke-linejoin:round;stroke-miterlimit:4;stroke-dasharray:none;stroke-opacity:1"
       d="m 10,1037.3622 a 1.0000223,0.9999994 0 0 0 1,1 v -1 z"
       id="path6480-7" />
    <path
       inkscape:connector-curvature="0"
       style="fill:#000000;fill-opacity:1;stroke:#008c00;stroke-width:0;stroke-linecap:round;stroke-linejoin:round;stroke-miterlimit:4;stroke-dasharray:none;stroke-opacity:1"
       d="m 15,1037.3622 a 1.0000223,0.9999994 0 0 0 1,1 v -1 z"
       id="path6480-2" />
    <path
       id="path6476-34"
       d="m 2,1042.3622 a 1.0000223,0.9999994 0 0 0 -1,-1 v 1 z"
       style="fill:#646464;fill-opacity:1;stroke:#008c00;stroke-width:0;stroke-linecap:round;stroke-linejoin:round;stroke-miterlimit:4;stroke-dasharray:none;stroke-opacity:1"
       inkscape:connector-curvature="0" />
    <path
       id="path6476-2"
       d="m 7,1042.3622 a 1.0000223,0.9999994 0 0 0 -1,-1 v 1 z"
       style="fill:#646464;fill-opacity:1;stroke:#008c00;stroke-width:0;stroke-linecap:round;stroke-linejoin:round;stroke-miterlimit:4;stroke-dasharray:none;stroke-opacity:1"
       inkscape:connector-curvature="0" />
    <path
       inkscape:connector-curvature="0"
       style="fill:#000000;fill-opacity:1;stroke:#008c00;stroke-width:0;stroke-linecap:round;stroke-linejoin:round;stroke-miterlimit:4;stroke-dasharray:none;stroke-opacity:1"
       d="m 5,1042.3622 a 1.0000223,0.9999994 0 0 0 1,1 v -1 z"
       id="path6480-8" />
    <path
       id="path6476-58"
       d="m 12,1042.3622 a 1.0000223,0.9999994 0 0 0 -1,-1 v 1 z"
       style="fill:#646464;fill-opacity:1;stroke:#008c00;stroke-width:0;stroke-linecap:round;stroke-linejoin:round;stroke-miterlimit:4;stroke-dasharray:none;stroke-opacity:1"
       inkscape:connector-curvature="0" />
    <path
       inkscape:connector-curvature="0"
       style="fill:#000000;fill-opacity:1;stroke:#008c00;stroke-width:0;stroke-linecap:round;stroke-linejoin:round;stroke-miterlimit:4;stroke-dasharray:none;stroke-opacity:1"
       d="m 10,1042.3622 a 1.0000223,0.9999994 0 0 0 1,1 v -1 z"
       id="path6480-74" />
    <path
       inkscape:connector-curvature="0"
       style="fill:#000000;fill-opacity:1;stroke:#008c00;stroke-width:0;stroke-linecap:round;stroke-linejoin:round;stroke-miterlimit:4;stroke-dasharray:none;stroke-opacity:1"
       d="m 15,1042.3622 a 1.0000223,0.9999994 0 0 0 1,1 v -1 z"
       id="path6480-79" />
    <path
       id="path6476-4"
       d="m 2,1047.3622 a 1.0000223,0.9999994 0 0 0 -1,-1 v 1 z"
       style="fill:#646464;fill-opacity:1;stroke:#008c00;stroke-width:0;stroke-linecap:round;stroke-linejoin:round;stroke-miterlimit:4;stroke-dasharray:none;stroke-opacity:1"
       inkscape:connector-curvature="0" />
    <path
       id="path6476-7"
       d="m 7,1047.3622 a 1.0000223,0.9999994 0 0 0 -1,-1 v 1 z"
       style="fill:#646464;fill-opacity:1;stroke:#008c00;stroke-width:0;stroke-linecap:round;stroke-linejoin:round;stroke-miterlimit:4;stroke-dasharray:none;stroke-opacity:1"
       inkscape:connector-curvature="0" />
    <path
       inkscape:connector-curvature="0"
       style="fill:#000000;fill-opacity:1;stroke:#008c00;stroke-width:0;stroke-linecap:round;stroke-linejoin:round;stroke-miterlimit:4;stroke-dasharray:none;stroke-opacity:1"
       d="m 5,1047.3622 a 1.0000223,0.9999994 0 0 0 1,1 v -1 z"
       id="path6480-0" />
    <path
       id="path6476-0"
       d="m 12,1047.3622 a 1.0000223,0.9999994 0 0 0 -1,-1 v 1 z"
       style="fill:#646464;fill-opacity:1;stroke:#008c00;stroke-width:0;stroke-linecap:round;stroke-linejoin:round;stroke-miterlimit:4;stroke-dasharray:none;stroke-opacity:1"
       inkscape:connector-curvature="0" />
    <path
       inkscape:connector-curvature="0"
       style="fill:#000000;fill-opacity:1;stroke:#008c00;stroke-width:0;stroke-linecap:round;stroke-linejoin:round;stroke-miterlimit:4;stroke-dasharray:none;stroke-opacity:1"
       d="m 10,1047.3622 a 1.0000223,0.9999994 0 0 0 1,1 v -1 z"
       id="path6480-25" />
    <path
       inkscape:connector-curvature="0"
       style="fill:#000000;fill-opacity:1;stroke:#008c00;stroke-width:0;stroke-linecap:round;stroke-linejoin:round;stroke-miterlimit:4;stroke-dasharray:none;stroke-opacity:1"
       d="m 15,1047.3622 a 1.0000223,0.9999994 0 0 0 1,1 v -1 z"
       id="path6480-1" />
    <path
       id="path6476-46"
       d="m 2,1052.3622 a 1.0000223,0.9999994 0 0 0 -1,-1 v 1 z"
       style="fill:#646464;fill-opacity:1;stroke:#008c00;stroke-width:0;stroke-linecap:round;stroke-linejoin:round;stroke-miterlimit:4;stroke-dasharray:none;stroke-opacity:1"
       inkscape:connector-curvature="0" />
    <path
       id="path6476-754"
       d="m 7,1052.3622 a 1.0000223,0.9999994 0 0 0 -1,-1 v 1 z"
       style="fill:#646464;fill-opacity:1;stroke:#008c00;stroke-width:0;stroke-linecap:round;stroke-linejoin:round;stroke-miterlimit:4;stroke-dasharray:none;stroke-opacity:1"
       inkscape:connector-curvature="0" />
    <path
       id="path6476-10"
       d="m 12,1052.3622 a 1.0000223,0.9999994 0 0 0 -1,-1 v 1 z"
       style="fill:#646464;fill-opacity:1;stroke:#008c00;stroke-width:0;stroke-linecap:round;stroke-linejoin:round;stroke-miterlimit:4;stroke-dasharray:none;stroke-opacity:1"
       inkscape:connector-curvature="0" />
    <path
       inkscape:connector-curvature="0"
       style="fill:#000000;fill-opacity:1;stroke:#008c00;stroke-width:0;stroke-linecap:round;stroke-linejoin:round;stroke-miterlimit:4;stroke-dasharray:none;stroke-opacity:1"
       d="m 0,1037.3622 a 1.0000223,0.9999994 0 0 0 1,1 v -1 z"
       id="path6480-4-4" />
    <path
       inkscape:connector-curvature="0"
       style="fill:#c8c8c8;fill-opacity:1;stroke:#008c00;stroke-width:0;stroke-linecap:round;stroke-linejoin:round;stroke-miterlimit:4;stroke-dasharray:none;stroke-opacity:1"
       d="m 1,1041.3622 a 0.9999994,1.0000223 0 0 0 -1,1 h 1 z"
       id="path6326-49-6" />
    <path
       inkscape:connector-curvature="0"
       style="fill:#000000;fill-opacity:1;stroke:#008c00;stroke-width:0;stroke-linecap:round;stroke-linejoin:round;stroke-miterlimit:4;stroke-dasharray:none;stroke-opacity:1"
       d="m 0,1042.3622 a 1.0000223,0.9999994 0 0 0 1,1 v -1 z"
       id="path6480-8-1" />
    <path
       inkscape:connector-curvature="0"
       style="fill:#000000;fill-opacity:1;stroke:#008c00;stroke-width:0;stroke-linecap:round;stroke-linejoin:round;stroke-miterlimit:4;stroke-dasharray:none;stroke-opacity:1"
       d="m 0,1047.3622 a 1.0000223,0.9999994 0 0 0 1,1 v -1 z"
       id="path6480-0-9" />
    <path
       id="path6478-7-8"
       d="m 6,1038.3622 a 0.9999994,1.0000223 0 0 0 1,-1 H 6 Z"
       style="fill:#c8c8c8;fill-opacity:1;stroke:#008c00;stroke-width:0;stroke-linecap:round;stroke-linejoin:round;stroke-miterlimit:4;stroke-dasharray:none;stroke-opacity:1"
       inkscape:connector-curvature="0" />
    <path
       id="path6478-7-86"
       d="m 11,1038.3622 a 0.9999994,1.0000223 0 0 0 1,-1 h -1 z"
       style="fill:#c8c8c8;fill-opacity:1;stroke:#008c00;stroke-width:0;stroke-linecap:round;stroke-linejoin:round;stroke-miterlimit:4;stroke-dasharray:none;stroke-opacity:1"
       inkscape:connector-curvature="0" />
    <path
       id="path6478-7-5"
       d="m 1,1043.3622 a 0.9999994,1.0000223 0 0 0 1,-1 H 1 Z"
       style="fill:#c8c8c8;fill-opacity:1;stroke:#008c00;stroke-width:0;stroke-linecap:round;stroke-linejoin:round;stroke-miterlimit:4;stroke-dasharray:none;stroke-opacity:1"
       inkscape:connector-curvature="0" />
    <path
       inkscape:connector-curvature="0"
       style="fill:#c8c8c8;fill-opacity:1;stroke:#008c00;stroke-width:0;stroke-linecap:round;stroke-linejoin:round;stroke-miterlimit:4;stroke-dasharray:none;stroke-opacity:1"
       d="m 6,1041.3622 a 0.9999994,1.0000223 0 0 0 -1,1 h 1 z"
       id="path6326-49-6-4" />
    <path
       id="path6478-7-5-8"
       d="m 6,1043.3622 a 0.9999994,1.0000223 0 0 0 1,-1 H 6 Z"
       style="fill:#c8c8c8;fill-opacity:1;stroke:#008c00;stroke-width:0;stroke-linecap:round;stroke-linejoin:round;stroke-miterlimit:4;stroke-dasharray:none;stroke-opacity:1"
       inkscape:connector-curvature="0" />
    <path
       inkscape:connector-curvature="0"
       style="fill:#c8c8c8;fill-opacity:1;stroke:#008c00;stroke-width:0;stroke-linecap:round;stroke-linejoin:round;stroke-miterlimit:4;stroke-dasharray:none;stroke-opacity:1"
       d="m 11,1041.3622 a 0.9999994,1.0000223 0 0 0 -1,1 h 1 z"
       id="path6326-49-6-43" />
    <path
       id="path6478-7-5-4"
       d="m 11,1043.3622 a 0.9999994,1.0000223 0 0 0 1,-1 h -1 z"
       style="fill:#c8c8c8;fill-opacity:1;stroke:#008c00;stroke-width:0;stroke-linecap:round;stroke-linejoin:round;stroke-miterlimit:4;stroke-dasharray:none;stroke-opacity:1"
       inkscape:connector-curvature="0" />
    <path
       inkscape:connector-curvature="0"
       style="fill:#c8c8c8;fill-opacity:1;stroke:#008c00;stroke-width:0;stroke-linecap:round;stroke-linejoin:round;stroke-miterlimit:4;stroke-dasharray:none;stroke-opacity:1"
       d="m 16,1041.3622 a 0.9999994,1.0000223 0 0 0 -1,1 h 1 z"
       id="path6326-49-6-8" />
    <path
       inkscape:connector-curvature="0"
       style="fill:#c8c8c8;fill-opacity:1;stroke:#008c00;stroke-width:0;stroke-linecap:round;stroke-linejoin:round;stroke-miterlimit:4;stroke-dasharray:none;stroke-opacity:1"
       d="m 1,1046.3622 a 0.9999994,1.0000223 0 0 0 -1,1 h 1 z"
       id="path6326-49-6-3" />
    <path
       id="path6478-7-5-3"
       d="m 1,1048.3622 a 0.9999994,1.0000223 0 0 0 1,-1 H 1 Z"
       style="fill:#c8c8c8;fill-opacity:1;stroke:#008c00;stroke-width:0;stroke-linecap:round;stroke-linejoin:round;stroke-miterlimit:4;stroke-dasharray:none;stroke-opacity:1"
       inkscape:connector-curvature="0" />
    <path
       inkscape:connector-curvature="0"
       style="fill:#c8c8c8;fill-opacity:1;stroke:#008c00;stroke-width:0;stroke-linecap:round;stroke-linejoin:round;stroke-miterlimit:4;stroke-dasharray:none;stroke-opacity:1"
       d="m 6,1046.3622 a 0.9999994,1.0000223 0 0 0 -1,1 h 1 z"
       id="path6326-49-6-2" />
    <path
       id="path6478-7-5-74"
       d="m 6,1048.3622 a 0.9999994,1.0000223 0 0 0 1,-1 H 6 Z"
       style="fill:#c8c8c8;fill-opacity:1;stroke:#008c00;stroke-width:0;stroke-linecap:round;stroke-linejoin:round;stroke-miterlimit:4;stroke-dasharray:none;stroke-opacity:1"
       inkscape:connector-curvature="0" />
    <path
       inkscape:connector-curvature="0"
       style="fill:#c8c8c8;fill-opacity:1;stroke:#008c00;stroke-width:0;stroke-linecap:round;stroke-linejoin:round;stroke-miterlimit:4;stroke-dasharray:none;stroke-opacity:1"
       d="m 11,1046.3622 a 0.9999994,1.0000223 0 0 0 -1,1 h 1 z"
       id="path6326-49-6-24" />
    <path
       id="path6478-7-5-85"
       d="m 11,1048.3622 a 0.9999994,1.0000223 0 0 0 1,-1 h -1 z"
       style="fill:#c8c8c8;fill-opacity:1;stroke:#008c00;stroke-width:0;stroke-linecap:round;stroke-linejoin:round;stroke-miterlimit:4;stroke-dasharray:none;stroke-opacity:1"
       inkscape:connector-curvature="0" />
    <path
       inkscape:connector-curvature="0"
       style="fill:#c8c8c8;fill-opacity:1;stroke:#008c00;stroke-width:0;stroke-linecap:round;stroke-linejoin:round;stroke-miterlimit:4;stroke-dasharray:none;stroke-opacity:1"
       d="m 16,1046.3622 a 0.9999994,1.0000223 0 0 0 -1,1 h 1 z"
       id="path6326-49-6-37" />
    <path
       inkscape:connector-curvature="0"
       style="fill:#c8c8c8;fill-opacity:1;stroke:#008c00;stroke-width:0;stroke-linecap:round;stroke-linejoin:round;stroke-miterlimit:4;stroke-dasharray:none;stroke-opacity:1"
       d="m 1,1051.3622 a 0.9999994,1.0000223 0 0 0 -1,1 h 1 z"
       id="path6326-49-6-45" />
    <path
       inkscape:connector-curvature="0"
       style="fill:#c8c8c8;fill-opacity:1;stroke:#008c00;stroke-width:0;stroke-linecap:round;stroke-linejoin:round;stroke-miterlimit:4;stroke-dasharray:none;stroke-opacity:1"
       d="m 6,1051.3622 a 0.9999994,1.0000223 0 0 0 -1,1 h 1 z"
       id="path6326-49-6-6" />
    <path
       inkscape:connector-curvature="0"
       style="fill:#c8c8c8;fill-opacity:1;stroke:#008c00;stroke-width:0;stroke-linecap:round;stroke-linejoin:round;stroke-miterlimit:4;stroke-dasharray:none;stroke-opacity:1"
       d="m 11,1051.3622 a 0.9999994,1.0000223 0 0 0 -1,1 h 1 z"
       id="path6326-49-6-1" />
    <path
       inkscape:connector-curvature="0"
       style="fill:#c8c8c8;fill-opacity:1;stroke:#008c00;stroke-width:0;stroke-linecap:round;stroke-linejoin:round;stroke-miterlimit:4;stroke-dasharray:none;stroke-opacity:1"
       d="m 16,1051.3622 a 0.9999994,1.0000223 0 0 0 -1,1 h 1 z"
       id="path6326-49-6-30" />
    <path
       id="path6476-34-6"
       d="m 2,1037.3622 a 1.0000223,0.9999994 0 0 0 -1,-1 v 1 z"
       style="fill:#646464;fill-opacity:1;stroke:#008c00;stroke-width:0;stroke-linecap:round;stroke-linejoin:round;stroke-miterlimit:4;stroke-dasharray:none;stroke-opacity:1"
       inkscape:connector-curvature="0" />
    <path
       id="path6476-2-1"
       d="m 7,1037.3622 a 1.0000223,0.9999994 0 0 0 -1,-1 v 1 z"
       style="fill:#646464;fill-opacity:1;stroke:#008c00;stroke-width:0;stroke-linecap:round;stroke-linejoin:round;stroke-miterlimit:4;stroke-dasharray:none;stroke-opacity:1"
       inkscape:connector-curvature="0" />
    <path
       id="path6476-58-0"
       d="m 12,1037.3622 a 1.0000223,0.9999994 0 0 0 -1,-1 v 1 z"
       style="fill:#646464;fill-opacity:1;stroke:#008c00;stroke-width:0;stroke-linecap:round;stroke-linejoin:round;stroke-miterlimit:4;stroke-dasharray:none;stroke-opacity:1"
       inkscape:connector-curvature="0" />
    <path
       inkscape:connector-curvature="0"
       style="fill:#c8c8c8;fill-opacity:1;stroke:#008c00;stroke-width:0;stroke-linecap:round;stroke-linejoin:round;stroke-miterlimit:4;stroke-dasharray:none;stroke-opacity:1"
       d="m 1,1036.3622 a 0.9999994,1.0000223 0 0 0 -1,1 h 1 z"
       id="path6326-49-6-0" />
    <path
       inkscape:connector-curvature="0"
       style="fill:#c8c8c8;fill-opacity:1;stroke:#008c00;stroke-width:0;stroke-linecap:round;stroke-linejoin:round;stroke-miterlimit:4;stroke-dasharray:none;stroke-opacity:1"
       d="m 6,1036.3622 a 0.9999994,1.0000223 0 0 0 -1,1 h 1 z"
       id="path6326-49-6-4-2" />
    <path
       inkscape:connector-curvature="0"
       style="fill:#c8c8c8;fill-opacity:1;stroke:#008c00;stroke-width:0;stroke-linecap:round;stroke-linejoin:round;stroke-miterlimit:4;stroke-dasharray:none;stroke-opacity:1"
       d="m 11,1036.3622 a 0.9999994,1.0000223 0 0 0 -1.0000005,1 H 11 Z"
       id="path6326-49-6-43-0" />
    <path
       inkscape:connector-curvature="0"
       style="fill:#c8c8c8;fill-opacity:1;stroke:#008c00;stroke-width:0;stroke-linecap:round;stroke-linejoin:round;stroke-miterlimit:4;stroke-dasharray:none;stroke-opacity:1"
       d="m 16,1036.3622 a 0.9999994,1.0000223 0 0 0 -1,1 h 1 z"
       id="path6326-49-6-8-7" />
    <path
       style="fill:none;stroke:#c8c8c8;stroke-width:1px;stroke-linecap:butt;stroke-linejoin:miter;stroke-opacity:1"
       d="M 0,1047.8622 H 16"
       id="path6901"
       inkscape:connector-curvature="0"
       sodipodi:nodetypes="cc" />
    <path
       inkscape:connector-curvature="0"
       id="path6903"
       d="m 5.5,1036.3622 c 0,16 0,16 0,16"
       style="fill:#c8c8c8;stroke:#000000;stroke-width:1px;stroke-linecap:butt;stroke-linejoin:miter;stroke-opacity:1;fill-opacity:1" />
    <path
       style="fill:#c8c8c8;stroke:#c8c8c8;stroke-width:1;stroke-linecap:butt;stroke-linejoin:miter;stroke-opacity:1;fill-opacity:1;stroke-miterlimit:4;stroke-dasharray:none"
       d="m 6.5,1036.3622 v 16"
       id="path6907"
       inkscape:connector-curvature="0"
       sodipodi:nodetypes="cc" />
    <path
       sodipodi:nodetypes="cc"
       inkscape:connector-curvature="0"
       id="path6905"
       d="M 0,1046.8622 H 16"
       style="fill:none;stroke:#000000;stroke-width:1px;stroke-linecap:butt;stroke-linejoin:miter;stroke-opacity:1" />
  </g>
</svg>
