<?xml version="1.0" encoding="UTF-8" standalone="no"?>
<!-- Created with Inkscape (http://www.inkscape.org/) -->

<svg
   xmlns:dc="http://purl.org/dc/elements/1.1/"
   xmlns:cc="http://creativecommons.org/ns#"
   xmlns:rdf="http://www.w3.org/1999/02/22-rdf-syntax-ns#"
   xmlns:svg="http://www.w3.org/2000/svg"
   xmlns="http://www.w3.org/2000/svg"
   xmlns:sodipodi="http://sodipodi.sourceforge.net/DTD/sodipodi-0.dtd"
   xmlns:inkscape="http://www.inkscape.org/namespaces/inkscape"
   width="16"
   height="16"
   viewBox="0 0 16 16"
   id="svg4225"
   version="1.1"
   inkscape:version="0.92.1 r15371"
   sodipodi:docname="matchprop.svg"
   inkscape:export-filename="matchprop.png"
   inkscape:export-xdpi="96"
   inkscape:export-ydpi="96">
  <defs
     id="defs4227" />
  <sodipodi:namedview
     id="base"
     pagecolor="#ffffff"
     bordercolor="#666666"
     borderopacity="1.0"
     inkscape:pageopacity="0.0"
     inkscape:pageshadow="2"
     inkscape:zoom="78.197793"
     inkscape:cx="4.8468929"
     inkscape:cy="8.4667036"
     inkscape:document-units="px"
     inkscape:current-layer="layer1"
     showgrid="true"
     inkscape:snap-bbox="true"
     inkscape:bbox-paths="true"
     inkscape:bbox-nodes="true"
     inkscape:snap-bbox-edge-midpoints="true"
     inkscape:snap-bbox-midpoints="true"
     inkscape:object-paths="true"
     inkscape:snap-intersection-paths="true"
     inkscape:object-nodes="true"
     inkscape:snap-smooth-nodes="true"
     inkscape:snap-midpoints="true"
     inkscape:snap-object-midpoints="true"
     inkscape:snap-center="true"
     units="px"
     inkscape:window-width="2560"
     inkscape:window-height="1414"
     inkscape:window-x="-9"
     inkscape:window-y="-9"
     inkscape:window-maximized="1"
     showguides="true"
     inkscape:guide-bbox="true">
    <inkscape:grid
       type="xygrid"
       id="grid4241"
       spacingx="0.5"
       spacingy="0.5"
       empspacing="2"
       dotted="true" />
  </sodipodi:namedview>
  <metadata
     id="metadata4230">
    <rdf:RDF>
      <cc:Work
         rdf:about="">
        <dc:format>image/svg+xml</dc:format>
        <dc:type
           rdf:resource="http://purl.org/dc/dcmitype/StillImage" />
        <dc:title></dc:title>
      </cc:Work>
    </rdf:RDF>
  </metadata>
  <g
     inkscape:label="Ebene 1"
     inkscape:groupmode="layer"
     id="layer1"
     transform="translate(0,-1036.3622)">
    <g
       transform="matrix(0.02734474,0,0,0.02734376,0.99974023,1037.3622)"
       id="g11768">
      <path
         inkscape:connector-curvature="0"
         id="path11134"
         d="m 182.527,141.468 -39.165,39.165 c -12.98,12.98 -12.98,34.022 -0.002,47.001 l 47,46.997 L 18.03,446.96 c -12.977,12.977 -12.977,34.018 0,46.998 12.977,12.979 34.021,12.981 46.998,0 l 172.328,-172.328 46.998,46.999 c 12.98,12.977 34.021,12.977 47,0 l 39.165,-39.166 z M 31.741,480.254 c -0.002,-0.002 -0.004,-0.003 -0.007,-0.004 -5.396,-5.399 -5.394,-14.185 0.004,-19.581 5.398,-5.399 14.183,-5.4 19.581,-0.002 5.4,5.4 5.4,14.184 0.004,19.583 -5.402,5.397 -14.186,5.397 -19.582,0.004 z"
         style="fill:#bfa993" />
      <path
         inkscape:connector-curvature="0"
         id="path11136"
         d="M 276.525,235.466 51.322,460.668 c 5.396,5.4 5.398,14.182 0.002,19.581 -5.403,5.398 -14.187,5.398 -19.583,0.004 -0.002,-10e-4 -0.002,-10e-4 -0.002,-10e-4 L 18.03,493.959 c 12.98,12.977 34.021,12.979 46.998,-10e-4 l 172.328,-172.328 46.998,46.999 c 12.98,12.977 34.021,12.977 47,0 l 39.165,-39.166 z"
         style="fill:#b29a7e" />
      <polygon
         id="polygon11138"
         points="339.187,31.807 315.688,8.308 198.191,125.802 386.187,313.798 503.681,196.301 480.182,172.802 "
         style="fill:#ebe4dd" />
      <polygon
         id="polygon11140"
         points="421.434,114.055 409.684,102.305 292.189,219.799 386.187,313.798 503.681,196.301 491.931,184.552 "
         style="fill:#d8ccbc" />
      <rect
         id="rect11142"
         height="265.86099"
         width="61.169998"
         style="fill:#ededed"
         transform="matrix(-0.7071,0.7071,-0.7071,-0.7071,644.4199,192.231)"
         y="96.649002"
         x="251.813" />
      <rect
         id="rect11144"
         height="132.92999"
         width="61.169998"
         style="fill:#dbdbdb"
         transform="matrix(-0.7071,0.7071,-0.7071,-0.7071,757.8794,239.2173)"
         y="210.105"
         x="298.811" />
      <rect
         id="rect11146"
         height="66.464996"
         width="265.86099"
         style="fill:#7ab9e8"
         transform="matrix(-0.7071,-0.7071,0.7071,-0.7071,570.2984,487.8309)"
         y="92.57"
         x="253.252" />
      <rect
         id="rect11148"
         height="66.464996"
         width="132.92999"
         style="fill:#61aae4"
         transform="matrix(-0.7071,-0.7071,0.7071,-0.7071,617.3084,601.2866)"
         y="139.562"
         x="366.71899" />
      <g
         id="g11154">
        <path
           inkscape:connector-curvature="0"
           id="path11150"
           d="m 511.991,196.301 c 0,-2.203 -0.875,-4.317 -2.434,-5.876 L 321.563,2.433 C 320.005,0.875 317.892,0 315.688,0 c -2.203,0 -4.317,0.875 -5.876,2.433 L 137.487,174.76 c -7.847,7.846 -12.168,18.278 -12.168,29.376 0,11.096 4.32,21.528 12.167,29.376 L 178.61,274.634 12.155,441.086 c -16.194,16.197 -16.194,42.549 0,58.746 C 20.001,507.68 30.433,512 41.53,512 h 10e-4 c 11.096,0 21.527,-4.32 29.372,-12.167 l 166.455,-166.453 41.125,41.124 c 7.846,7.846 18.278,12.168 29.375,12.168 11.096,0 21.528,-4.321 29.375,-12.167 L 509.562,202.178 c 1.554,-1.56 2.429,-3.673 2.429,-5.877 z M 210.615,125.132 386.859,301.377 351.611,336.625 175.366,160.382 Z m 114.864,237.623 c -4.707,4.707 -10.966,7.3 -17.623,7.3 -6.657,0 -12.917,-2.593 -17.623,-7.301 l -47.001,-46.999 c -3.244,-3.244 -8.504,-3.244 -11.749,0 L 59.153,488.084 c -4.707,4.708 -10.965,7.301 -17.622,7.301 -6.659,-10e-4 -12.918,-2.593 -17.625,-7.301 -9.718,-9.718 -9.718,-25.531 0,-35.248 L 196.234,280.508 c 1.558,-1.559 2.433,-3.671 2.433,-5.876 0,-2.203 -0.875,-4.316 -2.433,-5.876 l -46.998,-46.998 c -4.709,-4.708 -7.301,-10.967 -7.301,-17.625 0,-6.659 2.592,-12.917 7.301,-17.625 L 163.615,172.13 339.86,348.375 Z m 73.129,-73.129 -176.244,-176.245 93.324,-93.324 11.75,11.748 -72.454,72.458 c -3.245,3.245 -3.245,8.504 0,11.749 1.623,1.622 3.75,2.433 5.876,2.433 2.126,0 4.253,-0.811 5.876,-2.433 l 72.453,-72.457 11.75,11.749 -64.624,64.623 c -3.245,3.246 -3.245,8.505 0,11.75 1.623,1.622 3.749,2.433 5.876,2.433 2.126,0 4.253,-0.811 5.876,-2.433 l 64.624,-64.623 11.748,11.749 -72.456,72.456 c -3.245,3.246 -3.245,8.505 0,11.75 1.623,1.622 3.75,2.433 5.876,2.433 2.126,0 4.253,-0.811 5.876,-2.433 l 72.456,-72.456 11.748,11.749 -64.624,64.623 c -3.245,3.246 -3.245,8.505 0,11.75 1.623,1.622 3.749,2.433 5.876,2.433 2.126,0 4.253,-0.811 5.876,-2.433 l 64.624,-64.623 11.748,11.748 -72.456,72.456 c -3.245,3.246 -3.245,8.505 0,11.75 1.623,1.622 3.75,2.433 5.876,2.433 2.126,0 4.253,-0.811 5.876,-2.433 l 72.457,-72.457 11.748,11.749 -64.623,64.623 c -3.245,3.246 -3.245,8.505 0,11.75 1.623,1.622 3.75,2.433 5.876,2.433 2.126,0 4.253,-0.811 5.876,-2.433 l 64.623,-64.623 11.749,11.748 -72.458,72.457 c -3.245,3.246 -3.245,8.505 0,11.75 1.623,1.622 3.75,2.433 5.876,2.433 2.126,0 4.253,-0.811 5.876,-2.433 l 72.458,-72.457 11.749,11.749 z"
           style="fill:#2e2d31" />
        <path
           inkscape:connector-curvature="0"
           id="path11152"
           d="m 41.53,456.612 c -3.699,0 -7.177,1.441 -9.794,4.058 -5.394,5.397 -5.395,14.179 0.003,19.583 2.614,2.613 6.093,4.053 9.79,4.053 3.697,0 7.176,-1.44 9.793,-4.054 2.614,-2.615 4.056,-6.094 4.056,-9.793 0,-3.7 -1.441,-7.177 -4.056,-9.792 -2.616,-2.614 -6.093,-4.055 -9.792,-4.055 z"
           style="fill:#2e2d31" />
      </g>
    </g>
  </g>
</svg>
