<?xml version="1.0" encoding="UTF-8" standalone="no"?>
<!-- Created with Inkscape (http://www.inkscape.org/) -->

<svg
   xmlns:dc="http://purl.org/dc/elements/1.1/"
   xmlns:cc="http://creativecommons.org/ns#"
   xmlns:rdf="http://www.w3.org/1999/02/22-rdf-syntax-ns#"
   xmlns:svg="http://www.w3.org/2000/svg"
   xmlns="http://www.w3.org/2000/svg"
   xmlns:sodipodi="http://sodipodi.sourceforge.net/DTD/sodipodi-0.dtd"
   xmlns:inkscape="http://www.inkscape.org/namespaces/inkscape"
   width="24"
   height="24"
   viewBox="0 0 24 24"
   id="svg4225"
   version="1.1"
   inkscape:version="0.92.2 (5c3e80d, 2017-08-06)"
   sodipodi:docname="unregisteredcomponent.svg"
   inkscape:export-filename="unregisteredcomponent.png"
   inkscape:export-xdpi="96"
   inkscape:export-ydpi="96">
  <defs
     id="defs4227" />
  <sodipodi:namedview
     id="base"
     pagecolor="#ffffff"
     bordercolor="#666666"
     borderopacity="1.0"
     inkscape:pageopacity="0.0"
     inkscape:pageshadow="2"
     inkscape:zoom="19.549448"
     inkscape:cx="4.7085296"
     inkscape:cy="2.5440359"
     inkscape:document-units="px"
     inkscape:current-layer="layer1"
     showgrid="true"
     inkscape:snap-bbox="true"
     inkscape:bbox-paths="true"
     inkscape:bbox-nodes="true"
     inkscape:snap-bbox-edge-midpoints="true"
     inkscape:snap-bbox-midpoints="true"
     inkscape:object-paths="true"
     inkscape:snap-intersection-paths="true"
     inkscape:object-nodes="true"
     inkscape:snap-smooth-nodes="true"
     inkscape:snap-midpoints="true"
     inkscape:snap-object-midpoints="true"
     inkscape:snap-center="true"
     units="px"
     inkscape:window-width="1920"
     inkscape:window-height="1137"
     inkscape:window-x="-8"
     inkscape:window-y="-8"
     inkscape:window-maximized="1"
     showguides="true"
     inkscape:guide-bbox="true">
    <inkscape:grid
       type="xygrid"
       id="grid4241"
       spacingx="0.5"
       spacingy="0.5"
       empspacing="2" />
  </sodipodi:namedview>
  <metadata
     id="metadata4230">
    <rdf:RDF>
      <cc:Work
         rdf:about="">
        <dc:format>image/svg+xml</dc:format>
        <dc:type
           rdf:resource="http://purl.org/dc/dcmitype/StillImage" />
        <dc:title />
      </cc:Work>
    </rdf:RDF>
  </metadata>
  <g
     inkscape:label="Ebene 1"
     inkscape:groupmode="layer"
     id="layer1"
     transform="translate(0,-1028.3622)">
    <g
       aria-label="?"
       style="font-style:normal;font-variant:normal;font-weight:bold;font-stretch:normal;font-size:24px;line-height:25px;font-family:Arial;-inkscape-font-specification:'Arial Bold';letter-spacing:0px;word-spacing:0px;fill:#0055d4;fill-opacity:1;stroke:none;stroke-width:1px;stroke-linecap:butt;stroke-linejoin:miter;stroke-opacity:1"
       id="text830">
      <path
         d="m 13,1044.8622 h -3 c -0.00781,-0.4297 -0.011719,-1.1914 -0.011719,-1.2852 0,-0.9687 0.160156,-1.7656 0.480469,-2.3906 0.320312,-0.625 0.960937,-1.3281 1.921875,-2.1094 0.960937,-0.7812 1.535156,-1.2929 1.722656,-1.5351 0.289062,-0.3828 0.433594,-0.8047 0.433594,-1.2656 0,-0.6407 -0.257813,-1.1876 -0.773437,-1.6407 -0.507813,-0.4609 -1.195313,-0.6914 -2.0625,-0.6914 -0.835938,0 -1.535157,0.2383 -2.097657,0.7149 -0.5625,0.4765 -0.9492188,1.2031 -1.1601563,2.1797 l -3.0234375,-0.375 c 0.085937,-1.3985 0.6796875,-2.586 1.78125,-3.5625 1.109375,-0.9766 2.5625002,-1.4649 4.3593758,-1.4649 1.890624,0 3.39453,0.4961 4.511718,1.4883 1.117187,0.9844 1.675781,2.1328 1.675781,3.4453 0,0.7266 -0.207031,1.4141 -0.621093,2.0625 -0.40625,0.6485 -1.28125,1.5313 -2.625,2.6484 -0.695313,0.5781 -1.128907,1.043 -1.300781,1.3946 -0.164063,0.3515 -0.226563,1.4804 -0.210938,2.3867 z m -3,4.5 v -3 h 3 v 3 z"
         id="path832"
         inkscape:connector-curvature="0"
         sodipodi:nodetypes="ccssccscsccccscsccccccccc" />
    </g>
  </g>
</svg>
