0
SECTION
2
HEADER
9
$ACADVER
1
AC1015
9
$ACADMAINTVER
70
20
9
$DWGCODEPAGE
3
ANSI_1251
9
$INSBASE
10
0.0
20
0.0
30
0.0
9
$EXTMIN
10
140.9759676061104
20
20.78384260612357
30
-4.556249999999999
9
$EXTMAX
10
2239.781280550934
20
2630.436136918981
30
2.025000000000061
9
$LIMMIN
10
0.0
20
0.0
9
$LIMMAX
10
420.0
20
297.0
9
$ORTHOMODE
70
0
9
$REGENMODE
70
1
9
$FILLMODE
70
1
9
$QTEXTMODE
70
0
9
$MIRRTEXT
70
0
9
$LTSCALE
40
1
9
$ATTMODE
70
1
9
$TEXTSIZE
40
2.5
9
$TRACEWID
40
1.0
9
$TEXTSTYLE
7
Standard
9
$CLAYER
8
0
9
$CELTYPE
6
ByLayer
9
$CECOLOR
62
256
9
$CELTSCALE
40
1
9
$DISPSILH
70
0
9
$DIMSCALE
40
1.0
9
$DIMASZ
40
2.5
9
$DIMEXO
40
0.625
9
$DIMDLI
40
3.75
9
$DIMRND
40
0.0
9
$DIMDLE
40
0.0
9
$DIMEXE
40
1.25
9
$DIMTP
40
0.0
9
$DIMTM
40
0.0
9
$DIMTXT
40
2.5
9
$DIMCEN
40
2.5
9
$DIMTSZ
40
0.0
9
$DIMTOL
70
0
9
$DIMLIM
70
0
9
$DIMTIH
70
0
9
$DIMTOH
70
0
9
$DIMSE1
70
0
9
$DIMSE2
70
0
9
$DIMTAD
70
1
9
$DIMZIN
70
8
9
$DIMBLK
1

9
$DIMASO
70
1
9
$DIMSHO
70
1
9
$DIMPOST
1

9
$DIMAPOST
1

9
$DIMALT
70
0
9
$DIMALTD
70
3
9
$DIMALTF
40
0.03937007874016
9
$DIMLFAC
40
1.0
9
$DIMTOFL
70
1
9
$DIMTVP
40
0.0
9
$DIMTIX
70
0
9
$DIMSOXD
70
0
9
$DIMSAH
70
0
9
$DIMBLK1
1

9
$DIMBLK2
1

9
$DIMSTYLE
2
ISO-25
9
$DIMCLRD
70
0
9
$DIMCLRE
70
0
9
$DIMCLRT
70
0
9
$DIMTFAC
40
1.0
9
$DIMGAP
40
0.625
9
$DIMJUST
70
0
9
$DIMSD1
70
0
9
$DIMSD2
70
0
9
$DIMTOLJ
70
0
9
$DIMTZIN
70
8
9
$DIMALTZ
70
0
9
$DIMALTTZ
70
0
9
$DIMUPT
70
0
9
$DIMDEC
70
2
9
$DIMTDEC
70
2
9
$DIMALTU
70
2
9
$DIMALTTD
70
3
9
$DIMTXSTY
7
Standard
9
$DIMAUNIT
70
0
9
$DIMADEC
70
0
9
$DIMALTRND
40
0.0
9
$DIMAZIN
70
0
9
$DIMDSEP
70
44
9
$DIMATFIT
70
3
9
$DIMFRAC
70
0
9
$DIMLDRBLK
1

9
$DIMLUNIT
70
2
9
$DIMLWD
70
-2
9
$DIMLWE
70
-2
9
$DIMTMOVE
70
0
9
$LUNITS
70
2
9
$LUPREC
70
4
9
$SKETCHINC
40
1.0
9
$FILLETRAD
40
0.0
9
$AUNITS
70
0
9
$AUPREC
70
0
9
$MENU
1
.
9
$ELEVATION
40
0.0
9
$PELEVATION
40
0.0
9
$THICKNESS
40
0.0
9
$LIMCHECK
70
0
9
$CHAMFERA
40
0.0
9
$CHAMFERB
40
0.0
9
$CHAMFERC
40
0.0
9
$CHAMFERD
40
0.0
9
$SKPOLY
70
0
9
$TDCREATE
40
2459754.940474538
9
$TDUCREATE
40
2459754.732141204
9
$TDUPDATE
40
2459754.959120370
9
$TDUUPDATE
40
2459754.750787037
9
$TDINDWG
40
0.0095717593
9
$TDUSRTIMER
40
0.0095717593
9
$USRTIMER
70
1
9
$ANGBASE
50
0
9
$ANGDIR
70
0
9
$PDMODE
70
0
9
$PDSIZE
40
0.0
9
$PLINEWID
40
0.0
9
$SPLFRAME
70
0
9
$SPLINETYPE
70
6
9
$SPLINESEGS
70
8
9
$HANDSEED
5
100000148
9
$SURFTAB1
70
6
9
$SURFTAB2
70
6
9
$SURFTYPE
70
6
9
$SURFU
70
6
9
$SURFV
70
6
9
$UCSBASE
2

9
$UCSNAME
2

9
$UCSORG
10
0.0
20
0.0
30
0.0
9
$UCSXDIR
10
1.0
20
0.0
30
0.0
9
$UCSYDIR
10
0.0
20
1.0
30
0.0
9
$UCSORTHOREF
2

9
$UCSORTHOVIEW
70
0
9
$UCSORGTOP
10
0.0
20
0.0
30
0.0
9
$UCSORGBOTTOM
10
0.0
20
0.0
30
0.0
9
$UCSORGLEFT
10
0.0
20
0.0
30
0.0
9
$UCSORGRIGHT
10
0.0
20
0.0
30
0.0
9
$UCSORGFRONT
10
0.0
20
0.0
30
0.0
9
$UCSORGBACK
10
0.0
20
0.0
30
0.0
9
$PUCSBASE
2

9
$PUCSNAME
2

9
$PUCSORG
10
0.0
20
0.0
30
0.0
9
$PUCSXDIR
10
1.0
20
0.0
30
0.0
9
$PUCSYDIR
10
0.0
20
1.0
30
0.0
9
$PUCSORTHOREF
2

9
$PUCSORTHOVIEW
70
0
9
$PUCSORGTOP
10
0.0
20
0.0
30
0.0
9
$PUCSORGBOTTOM
10
0.0
20
0.0
30
0.0
9
$PUCSORGLEFT
10
0.0
20
0.0
30
0.0
9
$PUCSORGRIGHT
10
0.0
20
0.0
30
0.0
9
$PUCSORGFRONT
10
0.0
20
0.0
30
0.0
9
$PUCSORGBACK
10
0.0
20
0.0
30
0.0
9
$USERI1
70
0
9
$USERI2
70
0
9
$USERI3
70
0
9
$USERI4
70
0
9
$USERI5
70
0
9
$USERR1
40
0.0
9
$USERR2
40
0.0
9
$USERR3
40
0.0
9
$USERR4
40
0.0
9
$USERR5
40
0.0
9
$WORLDVIEW
70
1
9
$SHADEDGE
70
3
9
$SHADEDIF
70
70
9
$TILEMODE
70
1
9
$MAXACTVP
70
64
9
$PINSBASE
10
0.0
20
0.0
30
0.0
9
$PLIMCHECK
70
0
9
$PEXTMIN
10
0.0
20
0.0
30
0.0
9
$PEXTMAX
10
0.0
20
0.0
30
0.0
9
$PLIMMIN
10
0.0
20
0.0
9
$PLIMMAX
10
12.0
20
9.0
9
$UNITMODE
70
0
9
$VISRETAIN
70
1
9
$PLINEGEN
70
0
9
$PSLTSCALE
70
1
9
$TREEDEPTH
70
3020
9
$CMLSTYLE
2
Standard
9
$CMLJUST
70
0
9
$CMLSCALE
40
20.0
9
$PROXYGRAPHICS
70
1
9
$MEASUREMENT
70
1
9
$CELWEIGHT
370
0
9
$ENDCAPS
280
0
9
$JOINSTYLE
280
0
9
$LWDISPLAY
290
0
9
$INSUNITS
70
0
9
$HYPERLINKBASE
1

9
$STYLESHEET
1

9
$XEDIT
290
1
9
$CEPSNTYPE
380
0
9
$PSTYLEMODE
290
1
9
$FINGERPRINTGUID
2
{125D6104-8854-F44D-B0E3-14664475AFC4}
9
$VERSIONGUID
2
{900CD5F9-5E65-C842-8ED3-6860838CE9DD}
9
$EXTNAMES
290
1
9
$PSVPSCALE
40
0.0
9
$OLESTARTUP
290
0
0
ENDSEC
0
SECTION
2
TABLES
0
TABLE
2
VPORT
5
5
330
0
100
AcDbSymbolTable
70
1
0
VPORT
5
6
330
5
100
AcDbSymbolTableRecord
100
AcDbViewportTableRecord
2
*Active
70
0
10
0.0
20
0.0
11
1.0
21
1.0
12
122.20270883284
22
-65.5620378436168
13
0
23
0
14
10
24
10
15
10
25
10
16
0
26
0
36
1
17
0
27
0
37
0
40
338.67741730293
41
1.06687402799378
42
50.0
43
0.0
44
0.0
50
0.0
51
0.0
71
0
72
1000
73
1
74
3
75
0
76
0
77
0
78
0
281
0
65
1
110
0.0
120
0.0
130
0.0
111
1.0
121
0.0
131
0.0
112
0.0
122
1.0
132
0.0
79
0
146
0.0
0
ENDTAB
0
TABLE
2
LTYPE
5
7
330
3
100
AcDbSymbolTable
70
1
0
LTYPE
5
B
330
B
100
AcDbSymbolTableRecord
100
AcDbLinetypeTableRecord
2
Continuous
70
0
3
Solid line
72
65
73
0
40
0
0
LTYPE
5
C
330
C
100
AcDbSymbolTableRecord
100
AcDbLinetypeTableRecord
2
ByLayer
70
0
3

72
65
73
0
40
0
0
LTYPE
5
D
330
D
100
AcDbSymbolTableRecord
100
AcDbLinetypeTableRecord
2
ByBlock
70
0
3

72
65
73
0
40
0
0
ENDTAB
0
TABLE
2
LAYER
5
E
330
3
100
AcDbSymbolTable
70
1
0
LAYER
5
11
100
AcDbSymbolTableRecord
100
AcDbLayerTableRecord
2
0
70
0
62
7
6
Continuous
290
1
370
-3
390
10
0
LAYER
5
12
100
AcDbSymbolTableRecord
100
AcDbLayerTableRecord
2
SYS_METRIC
70
0
62
7
6
Continuous
290
0
370
-3
390
10
0
LAYER
5
13
100
AcDbSymbolTableRecord
100
AcDbLayerTableRecord
2
EL_DEVICE
70
0
62
1
6
Continuous
290
1
370
40
390
10
0
LAYER
5
14
100
AcDbSymbolTableRecord
100
AcDbLayerTableRecord
2
SYS_INSERT_POINTS
70
0
62
8
6
Continuous
290
1
370
-3
390
10
0
LAYER
5
15
100
AcDbSymbolTableRecord
100
AcDbLayerTableRecord
2
EL_DEVICE_NAME
70
0
62
7
6
Continuous
290
1
370
-3
390
10
0
LAYER
5
16
100
AcDbSymbolTableRecord
100
AcDbLayerTableRecord
2
SYS_PIN
70
0
62
7
6
Continuous
290
1
370
-3
390
10
0
LAYER
5
17
100
AcDbSymbolTableRecord
100
AcDbLayerTableRecord
2
EL_DEVICE_PIN_NAME
70
0
62
125
6
Continuous
290
1
370
-3
390
10
0
LAYER
5
18
100
AcDbSymbolTableRecord
100
AcDbLayerTableRecord
2
TEXT
70
0
62
4
6
Continuous
290
1
370
-3
390
10
0
LAYER
5
19
100
AcDbSymbolTableRecord
100
AcDbLayerTableRecord
2
EL_WIRES
70
0
62
3
6
Continuous
290
1
370
40
390
10
0
ENDTAB
0
TABLE
2
STYLE
5
1A
330
3
100
AcDbSymbolTable
70
1
0
STYLE
5
1C
330
1A
100
AcDbSymbolTableRecord
100
AcDbTextStyleTableRecord
2
Standard
70
0
40
0
41
1
50
0
71
0
42
2.5
3
txt
4

0
STYLE
5
1D
330
1A
100
AcDbSymbolTableRecord
100
AcDbTextStyleTableRecord
2
R2_5
70
0
40
2.5
41
0.65
50
12
71
0
42
2.5
3
gewind.shx
4

0
STYLE
5
1E
330
1A
100
AcDbSymbolTableRecord
100
AcDbTextStyleTableRecord
2
D
70
0
40
350
41
0.7
50
0
71
0
42
2.5
3
romans.shx
4

0
ENDTAB
0
TABLE
2
VIEW
5
1F
330
3
100
AcDbSymbolTable
70
0
0
ENDTAB
0
TABLE
2
UCS
5
20
330
3
100
AcDbSymbolTable
70
0
0
ENDTAB
0
TABLE
2
APPID
5
21
330
3
100
AcDbSymbolTable
70
1
0
APPID
5
24
100
AcDbSymbolTableRecord
100
AcDbRegAppTableRecord
2
ACAD
70
0
0
APPID
5
25
100
AcDbSymbolTableRecord
100
AcDbRegAppTableRecord
2
ACAD_PSEXT
70
0
0
APPID
5
26
100
AcDbSymbolTableRecord
100
AcDbRegAppTableRecord
2
AcAecLayerStandard
70
0
0
APPID
5
27
100
AcDbSymbolTableRecord
100
AcDbRegAppTableRecord
2
DSTP_XDATA
70
0
0
APPID
5
28
100
AcDbSymbolTableRecord
100
AcDbRegAppTableRecord
2
ACAD_DSTYLE_DIM_LINETYPE
70
0
0
APPID
5
29
100
AcDbSymbolTableRecord
100
AcDbRegAppTableRecord
2
ACAD_DSTYLE_DIM_EXT1_LINETYPE
70
0
0
APPID
5
2A
100
AcDbSymbolTableRecord
100
AcDbRegAppTableRecord
2
ACAD_DSTYLE_DIM_EXT2_LINETYPE
70
0
0
ENDTAB
0
TABLE
2
DIMSTYLE
5
2B
330
3
100
AcDbSymbolTable
70
1
100
AcDbDimStyleTable
71
0
0
DIMSTYLE
105
2D
330
2B
100
AcDbSymbolTableRecord
100
AcDbDimStyleTableRecord
2
ISO-25
3

70
0
40
0
44
1.25
42
0.625
46
0
41
2.5
173
0
140
2.5
141
2.5
73
0
74
0
147
0.625
77
1
144
1
271
2
45
0
277
2
278
44
279
0
371
-2
372
-2
176
0
177
0
178
0
340
1C
0
DIMSTYLE
105
2E
330
2B
100
AcDbSymbolTableRecord
100
AcDbDimStyleTableRecord
2
STANDARD
3

70
0
40
0
44
0.18
42
0.0625
46
0
41
0.18
173
0
140
0.18
141
0.09
73
1
74
1
147
0.625
77
0
144
1
271
4
45
0
277
2
278
46
279
0
371
-2
372
-2
176
0
177
0
178
0
340
1E
0
DIMSTYLE
105
2F
330
2B
100
AcDbSymbolTableRecord
100
AcDbDimStyleTableRecord
2
Annotative
3

70
0
40
0
44
1.25
42
0.625
46
0
41
2.5
173
0
140
2.5
141
2.5
73
0
74
0
147
0.625
77
1
144
1
271
2
45
0
277
2
278
44
279
0
371
-2
372
-2
176
0
177
0
178
0
340
1C
0
ENDTAB
0
TABLE
2
BLOCK_RECORD
5
30
330
3
100
AcDbSymbolTable
70
1
0
BLOCK_RECORD
5
31
330
30
100
AcDbSymbolTableRecord
100
AcDbBlockTableRecord
2
*Model_Space
340
32
0
BLOCK_RECORD
5
33
330
30
100
AcDbSymbolTableRecord
100
AcDbBlockTableRecord
2
*Paper_Space
340
34
0
BLOCK_RECORD
5
35
100
AcDbSymbolTableRecord
100
AcDbBlockTableRecord
2
SCH_CONTACT_NOC_CC
0
BLOCK_RECORD
5
36
100
AcDbSymbolTableRecord
100
AcDbBlockTableRecord
2
DEVICE_SCH_CONTACT_NOC_CC
0
BLOCK_RECORD
5
37
100
AcDbSymbolTableRecord
100
AcDbBlockTableRecord
2
SCH_CONNECTOR_TERMINAL_CC
0
BLOCK_RECORD
5
38
100
AcDbSymbolTableRecord
100
AcDbBlockTableRecord
2
DEVICE_SCH_CONNECTOR_TERMINAL_CC
0
BLOCK_RECORD
5
39
100
AcDbSymbolTableRecord
100
AcDbBlockTableRecord
2
SCH_CONNECTOR_TERMINAL
0
BLOCK_RECORD
5
3A
100
AcDbSymbolTableRecord
100
AcDbBlockTableRecord
2
DEVICE_SCH_CONNECTOR_TERMINAL
0
BLOCK_RECORD
5
3B
100
AcDbSymbolTableRecord
100
AcDbBlockTableRecord
2
_ArchTick
0
BLOCK_RECORD
5
3C
100
AcDbSymbolTableRecord
100
AcDbBlockTableRecord
2
SCH_MOTOR_3PH_1
0
BLOCK_RECORD
5
3D
100
AcDbSymbolTableRecord
100
AcDbBlockTableRecord
2
DEVICE_SCH_MOTOR_3PH_1
0
BLOCK_RECORD
5
3E
100
AcDbSymbolTableRecord
100
AcDbBlockTableRecord
2
SCH_COIL
0
BLOCK_RECORD
5
3F
100
AcDbSymbolTableRecord
100
AcDbBlockTableRecord
2
DEVICE_SCH_COIL
0
BLOCK_RECORD
5
40
100
AcDbSymbolTableRecord
100
AcDbBlockTableRecord
2
SCH_BUTTON_NOC_CC
0
BLOCK_RECORD
5
41
100
AcDbSymbolTableRecord
100
AcDbBlockTableRecord
2
DEVICE_SCH_BUTTON_NOC_CC
0
BLOCK_RECORD
5
42
100
AcDbSymbolTableRecord
100
AcDbBlockTableRecord
2
SCH_BUTTON_NC_CC
0
BLOCK_RECORD
5
43
100
AcDbSymbolTableRecord
100
AcDbBlockTableRecord
2
DEVICE_SCH_BUTTON_NC_CC
0
BLOCK_RECORD
5
44
100
AcDbSymbolTableRecord
100
AcDbBlockTableRecord
2
SCH_THERMO_NC_CC
0
BLOCK_RECORD
5
45
100
AcDbSymbolTableRecord
100
AcDbBlockTableRecord
2
DEVICE_SCH_THERMO_NC_CC
0
BLOCK_RECORD
5
46
100
AcDbSymbolTableRecord
100
AcDbBlockTableRecord
2
SCH_THERMO
0
BLOCK_RECORD
5
47
100
AcDbSymbolTableRecord
100
AcDbBlockTableRecord
2
DEVICE_SCH_THERMO
0
BLOCK_RECORD
5
48
100
AcDbSymbolTableRecord
100
AcDbBlockTableRecord
2
SCH_LAMP
0
BLOCK_RECORD
5
49
100
AcDbSymbolTableRecord
100
AcDbBlockTableRecord
2
DEVICE_SCH_LAMP
0
BLOCK_RECORD
5
4A
100
AcDbSymbolTableRecord
100
AcDbBlockTableRecord
2
SCH_CONNECTION_NAME
0
BLOCK_RECORD
5
4B
100
AcDbSymbolTableRecord
100
AcDbBlockTableRecord
2
DEVICE_SCH_CONNECTION_NAME
0
BLOCK_RECORD
5
4C
100
AcDbSymbolTableRecord
100
AcDbBlockTableRecord
2
SCH_CONNECTOR_TERMINAL2
0
BLOCK_RECORD
5
4D
100
AcDbSymbolTableRecord
100
AcDbBlockTableRecord
2
DEVICE_SCH_CONNECTOR_TERMINAL2
0
ENDTAB
0
ENDSEC
0
SECTION
2
BLOCKS
0
BLOCK
5
4E
330
31
100
AcDbEntity
8
0
100
AcDbBlockBegin
2
*Model_Space
70
0
10
0.0
20
0.0
30
0.0
3
*Model_Space
1

0
ENDBLK
5
4F
330
31
100
AcDbEntity
8
0
100
AcDbBlockEnd
0
BLOCK
5
50
330
33
100
AcDbEntity
67
1
8
0
100
AcDbBlockBegin
2
*Paper_Space
70
0
10
0.0
20
0.0
30
0.0
3
*Paper_Space
1

0
ENDBLK
5
51
330
33
100
AcDbEntity
67
1
8
0
100
AcDbBlockEnd
0
BLOCK
5
52
100
AcDbEntity
8
0
100
AcDbBlockBegin
2
SCH_CONTACT_NOC_CC
70
2
10
0
20
0
30
0
3
SCH_CONTACT_NOC_CC
1

0
LINE
5
53
100
AcDbEntity
8
EL_DEVICE
100
AcDbLine
6
ByLayer
10
-3.0000000000
20
0.0000000000
30
0.0000000000
11
3.0000000000
21
3.5000000000
31
0.0000000000
1001
DSTP_XDATA
1002
{
1000
_OWNERHANDLE=0000000064
1002
}
0
LINE
5
54
100
AcDbEntity
8
EL_DEVICE
100
AcDbLine
6
ByLayer
10
-4.5000000000
20
0.0000000000
30
0.0000000000
11
-3.0000000000
21
0.0000000000
31
0.0000000000
1001
DSTP_XDATA
1002
{
1000
_OWNERHANDLE=0000000064
1002
}
0
LINE
5
55
100
AcDbEntity
8
EL_DEVICE
100
AcDbLine
6
ByLayer
10
4.5000000000
20
0.0000000000
30
0.0000000000
11
3.0000000000
21
0.0000000000
31
0.0000000000
1001
DSTP_XDATA
1002
{
1000
_OWNERHANDLE=0000000064
1002
}
0
ENDBLK
5
56
100
AcDbEntity
8
0
100
AcDbBlockEnd
1001
DSTP_XDATA
1002
{
1002
}
0
BLOCK
5
57
100
AcDbEntity
8
0
100
AcDbBlockBegin
2
DEVICE_SCH_CONTACT_NOC_CC
70
2
10
0
20
0
30
0
3
DEVICE_SCH_CONTACT_NOC_CC
1

0
TEXT
5
58
100
AcDbEntity
8
EL_DEVICE_NAME
100
AcDbText
6
ByLayer
10
0.0000000000
20
4.0000000000
30
0.0000000000
11
0.0000000000
21
4.0000000000
31
0.0000000000
40
2.5000000000
50
0.0000000000
41
0.7000000000
51
12.0000000000
72
0
7
R2_5
1
??KA0
100
AcDbText
73
0
1001
DSTP_XDATA
1002
{
1000
_TMPL1=@@[NMO_Name]
1000
_OWNERHANDLE=0000000064
1000
STEDefault=TRUE
1002
}
0
INSERT
5
59
100
AcDbEntity
8
0
100
AcDbBlockReference
6
ByLayer
2
SCH_CONNECTOR_TERMINAL_CC
10
-5.0000000000
20
0.0000000000
30
0.0000000000
41
1.0000000000
42
1.0000000000
43
1.0000000000
50
0.0000000000
1001
DSTP_XDATA
1002
{
1000
_OWNERHANDLE=0000000064
1000
USES=System
1000
#0=VariablesContentReplaceFrom|String|SCHTerminal1|
1000
SCHConnectorRadius=1
1000
_HANDLE=000B926BD0
1000
_UPGRADE=1
1002
}
0
LINE
5
5A
100
AcDbEntity
8
SYS_METRIC
100
AcDbLine
6
ByLayer
10
-6.0000000000
20
0.0000000000
30
0.0000000000
11
-4.0000000000
21
0.0000000000
31
0.0000000000
1001
DSTP_XDATA
1002
{
1000
_OWNERHANDLE=000B926BD0
1002
}
0
LINE
5
5B
100
AcDbEntity
8
SYS_METRIC
100
AcDbLine
6
ByLayer
10
-5.0000000000
20
1.0000000000
30
0.0000000000
11
-5.0000000000
21
-1.0000000000
31
0.0000000000
1001
DSTP_XDATA
1002
{
1000
_OWNERHANDLE=000B926BD0
1002
}
0
TEXT
5
5C
100
AcDbEntity
8
EL_DEVICE_PIN_NAME
100
AcDbText
6
ByLayer
11
-5.0000000000
21
1.0000000000
31
0.0000000000
10
-22.7916666667
20
1.0000000000
30
0.0000000000
40
2.5000000000
50
0.0000000000
41
0.7000000000
51
12.0000000000
72
1
7
R2_5
1
!!ERR(NMO_TerminalName)!!
100
AcDbText
73
0
1001
DSTP_XDATA
1002
{
1000
_TMPL1=@@[NMO_TerminalName]
1000
_OWNERHANDLE=000B926BD0
1000
STEDefault=TRUE
1002
}
0
TEXT
5
5D
100
AcDbEntity
8
SYS_METRIC
100
AcDbText
6
ByLayer
11
-5.0000000000
21
-1.0000000000
31
0.0000000000
10
-19.5833333333
20
-3.5000000000
30
0.0000000000
40
2.5000000000
50
0.0000000000
41
0.7000000000
51
12.0000000000
72
1
7
R2_5
1
!!ERR(NMO_NetName)!!
100
AcDbText
73
3
1001
DSTP_XDATA
1002
{
1000
_TMPL1=@@[NMO_NetName]
1000
_OWNERHANDLE=000B926BD0
1000
STEDefault=TRUE
1002
}
0
INSERT
5
5E
100
AcDbEntity
8
0
100
AcDbBlockReference
6
ByLayer
2
SCH_CONNECTOR_TERMINAL_CC
10
5.0000000000
20
0.0000000000
30
0.0000000000
41
1.0000000000
42
1.0000000000
43
1.0000000000
50
0.0000000000
1001
DSTP_XDATA
1002
{
1000
_OWNERHANDLE=0000000064
1000
USES=System
1000
#0=VariablesContentReplaceFrom|String|SCHTerminal2|
1000
SCHConnectorRadius=1
1000
_HANDLE=000B92C050
1000
_UPGRADE=1
1002
}
0
LINE
5
5F
100
AcDbEntity
8
SYS_METRIC
100
AcDbLine
6
ByLayer
10
4.0000000000
20
0.0000000000
30
0.0000000000
11
6.0000000000
21
0.0000000000
31
0.0000000000
1001
DSTP_XDATA
1002
{
1000
_OWNERHANDLE=000B92C050
1002
}
0
LINE
5
60
100
AcDbEntity
8
SYS_METRIC
100
AcDbLine
6
ByLayer
10
5.0000000000
20
1.0000000000
30
0.0000000000
11
5.0000000000
21
-1.0000000000
31
0.0000000000
1001
DSTP_XDATA
1002
{
1000
_OWNERHANDLE=000B92C050
1002
}
0
TEXT
5
61
100
AcDbEntity
8
EL_DEVICE_PIN_NAME
100
AcDbText
6
ByLayer
11
5.0000000000
21
1.0000000000
31
0.0000000000
10
-12.7916666667
20
1.0000000000
30
0.0000000000
40
2.5000000000
50
0.0000000000
41
0.7000000000
51
12.0000000000
72
1
7
R2_5
1
!!ERR(NMO_TerminalName)!!
100
AcDbText
73
0
1001
DSTP_XDATA
1002
{
1000
_TMPL1=@@[NMO_TerminalName]
1000
_OWNERHANDLE=000B92C050
1000
STEDefault=TRUE
1002
}
0
TEXT
5
62
100
AcDbEntity
8
SYS_METRIC
100
AcDbText
6
ByLayer
11
5.0000000000
21
-1.0000000000
31
0.0000000000
10
-9.5833333333
20
-3.5000000000
30
0.0000000000
40
2.5000000000
50
0.0000000000
41
0.7000000000
51
12.0000000000
72
1
7
R2_5
1
!!ERR(NMO_NetName)!!
100
AcDbText
73
3
1001
DSTP_XDATA
1002
{
1000
_TMPL1=@@[NMO_NetName]
1000
_OWNERHANDLE=000B92C050
1000
STEDefault=TRUE
1002
}
0
ENDBLK
5
63
100
AcDbEntity
8
0
100
AcDbBlockEnd
1001
DSTP_XDATA
1002
{
1002
}
0
BLOCK
5
64
100
AcDbEntity
8
0
100
AcDbBlockBegin
2
SCH_CONNECTOR_TERMINAL_CC
70
2
10
0
20
0
30
0
3
SCH_CONNECTOR_TERMINAL_CC
1

0
LINE
5
65
100
AcDbEntity
8
SYS_PIN
100
AcDbLine
6
ByLayer
48
100.0000000000
10
-0.3535533906
20
0.3535533906
30
0.0000000000
11
0.3535533906
21
-0.3535533906
31
0.0000000000
1001
DSTP_XDATA
1002
{
1000
_OWNERHANDLE=0000000064
1002
}
0
LINE
5
66
100
AcDbEntity
8
SYS_PIN
100
AcDbLine
6
ByLayer
48
100.0000000000
10
0.3535533906
20
0.3535533906
30
0.0000000000
11
-0.3535533906
21
-0.3535533906
31
0.0000000000
1001
DSTP_XDATA
1002
{
1000
_OWNERHANDLE=0000000064
1002
}
0
CIRCLE
5
67
100
AcDbEntity
8
EL_DEVICE
100
AcDbCircle
6
ByLayer
10
0.0000000000
20
0.0000000000
30
0.0000000000
40
0.5000000000
1001
DSTP_XDATA
1002
{
1000
_OWNERHANDLE=0000000064
1002
}
0
LINE
5
68
100
AcDbEntity
8
SYS_PIN
100
AcDbLine
6
ByLayer
48
100.0000000000
10
-0.3535533906
20
0.3535533906
30
0.0000000000
11
0.3535533906
21
-0.3535533906
31
0.0000000000
1001
DSTP_XDATA
1002
{
1000
_OWNERHANDLE=0000000064
1002
}
0
LINE
5
69
100
AcDbEntity
8
SYS_PIN
100
AcDbLine
6
ByLayer
48
100.0000000000
10
0.3535533906
20
0.3535533906
30
0.0000000000
11
-0.3535533906
21
-0.3535533906
31
0.0000000000
1001
DSTP_XDATA
1002
{
1000
_OWNERHANDLE=0000000064
1002
}
0
CIRCLE
5
6A
100
AcDbEntity
8
EL_DEVICE
100
AcDbCircle
6
ByLayer
10
0.0000000000
20
0.0000000000
30
0.0000000000
40
0.5000000000
1001
DSTP_XDATA
1002
{
1000
_OWNERHANDLE=0000000064
1002
}
0
ENDBLK
5
6B
100
AcDbEntity
8
0
100
AcDbBlockEnd
1001
DSTP_XDATA
1002
{
1002
}
0
BLOCK
5
6C
100
AcDbEntity
8
0
100
AcDbBlockBegin
2
DEVICE_SCH_CONNECTOR_TERMINAL_CC
70
2
10
0
20
0
30
0
3
DEVICE_SCH_CONNECTOR_TERMINAL_CC
1

0
LINE
5
6D
100
AcDbEntity
8
SYS_METRIC
100
AcDbLine
6
ByLayer
10
-1.0000000000
20
0.0000000000
30
0.0000000000
11
1.0000000000
21
0.0000000000
31
0.0000000000
1001
DSTP_XDATA
1002
{
1000
_OWNERHANDLE=0000000064
1002
}
0
LINE
5
6E
100
AcDbEntity
8
SYS_METRIC
100
AcDbLine
6
ByLayer
10
0.0000000000
20
1.0000000000
30
0.0000000000
11
0.0000000000
21
-1.0000000000
31
0.0000000000
1001
DSTP_XDATA
1002
{
1000
_OWNERHANDLE=0000000064
1002
}
0
TEXT
5
6F
100
AcDbEntity
8
EL_DEVICE_PIN_NAME
100
AcDbText
6
ByLayer
11
0.0000000000
21
1.0000000000
31
0.0000000000
10
0.0000000000
20
2.0000000000
30
0.0000000000
40
2.5000000000
50
0.0000000000
41
0.7000000000
51
12.0000000000
72
1
7
R2_5
1
!!ERR(NMO_TerminalName)!!
100
AcDbText
73
0
1001
DSTP_XDATA
1002
{
1000
_TMPL1=@@[NMO_TerminalName]
1000
_OWNERHANDLE=0000000064
1002
}
0
TEXT
5
70
100
AcDbEntity
8
SYS_METRIC
100
AcDbText
6
ByLayer
11
0.0000000000
21
-1.0000000000
31
0.0000000000
10
0.0000000000
20
-2.0000000000
30
0.0000000000
40
2.5000000000
50
0.0000000000
41
0.7000000000
51
12.0000000000
72
1
7
R2_5
1
!!ERR(NMO_NetName)!!
100
AcDbText
73
3
1001
DSTP_XDATA
1002
{
1000
_TMPL1=@@[NMO_NetName]
1000
_OWNERHANDLE=0000000064
1002
}
0
ENDBLK
5
71
100
AcDbEntity
8
0
100
AcDbBlockEnd
1001
DSTP_XDATA
1002
{
1002
}
0
BLOCK
5
72
100
AcDbEntity
8
0
100
AcDbBlockBegin
2
SCH_CONNECTOR_TERMINAL
70
2
10
0
20
0
30
0
3
SCH_CONNECTOR_TERMINAL
1

0
LINE
5
73
100
AcDbEntity
8
SYS_PIN
100
AcDbLine
6
ByLayer
48
100.0000000000
10
-0.3535533906
20
0.3535533906
30
0.0000000000
11
0.3535533906
21
-0.3535533906
31
0.0000000000
1001
DSTP_XDATA
1002
{
1000
_OWNERHANDLE=0000000064
1002
}
0
LINE
5
74
100
AcDbEntity
8
SYS_PIN
100
AcDbLine
6
ByLayer
48
100.0000000000
10
0.3535533906
20
0.3535533906
30
0.0000000000
11
-0.3535533906
21
-0.3535533906
31
0.0000000000
1001
DSTP_XDATA
1002
{
1000
_OWNERHANDLE=0000000064
1002
}
0
LINE
5
75
100
AcDbEntity
8
SYS_PIN
100
AcDbLine
6
ByLayer
48
100.0000000000
10
-0.3535533906
20
0.3535533906
30
0.0000000000
11
0.3535533906
21
-0.3535533906
31
0.0000000000
1001
DSTP_XDATA
1002
{
1000
_OWNERHANDLE=0000000064
1002
}
0
LINE
5
76
100
AcDbEntity
8
SYS_PIN
100
AcDbLine
6
ByLayer
48
100.0000000000
10
0.3535533906
20
0.3535533906
30
0.0000000000
11
-0.3535533906
21
-0.3535533906
31
0.0000000000
1001
DSTP_XDATA
1002
{
1000
_OWNERHANDLE=0000000064
1002
}
0
ENDBLK
5
77
100
AcDbEntity
8
0
100
AcDbBlockEnd
1001
DSTP_XDATA
1002
{
1002
}
0
BLOCK
5
78
100
AcDbEntity
8
0
100
AcDbBlockBegin
2
DEVICE_SCH_CONNECTOR_TERMINAL
70
2
10
0
20
0
30
0
3
DEVICE_SCH_CONNECTOR_TERMINAL
1

0
LINE
5
79
100
AcDbEntity
8
SYS_METRIC
100
AcDbLine
6
ByLayer
10
-1.0000000000
20
0.0000000000
30
0.0000000000
11
1.0000000000
21
0.0000000000
31
0.0000000000
1001
DSTP_XDATA
1002
{
1000
_OWNERHANDLE=0000000064
1002
}
0
LINE
5
7A
100
AcDbEntity
8
SYS_METRIC
100
AcDbLine
6
ByLayer
10
0.0000000000
20
1.0000000000
30
0.0000000000
11
0.0000000000
21
-1.0000000000
31
0.0000000000
1001
DSTP_XDATA
1002
{
1000
_OWNERHANDLE=0000000064
1002
}
0
TEXT
5
7B
100
AcDbEntity
8
EL_DEVICE_PIN_NAME
100
AcDbText
6
ByLayer
11
0.0000000000
21
1.0000000000
31
0.0000000000
10
0.0000000000
20
2.0000000000
30
0.0000000000
40
2.5000000000
50
0.0000000000
41
0.7000000000
51
12.0000000000
72
1
7
R2_5
1
!!ERR(NMO_TerminalName)!!
100
AcDbText
73
0
1001
DSTP_XDATA
1002
{
1000
_TMPL1=@@[NMO_TerminalName]
1000
_OWNERHANDLE=0000000064
1002
}
0
TEXT
5
7C
100
AcDbEntity
8
SYS_METRIC
100
AcDbText
6
ByLayer
11
0.0000000000
21
-1.0000000000
31
0.0000000000
10
0.0000000000
20
-2.0000000000
30
0.0000000000
40
2.5000000000
50
0.0000000000
41
0.7000000000
51
12.0000000000
72
1
7
R2_5
1
!!ERR(NMO_NetName)!!
100
AcDbText
73
3
1001
DSTP_XDATA
1002
{
1000
_TMPL1=@@[NMO_NetName]
1000
_OWNERHANDLE=0000000064
1002
}
0
ENDBLK
5
7D
100
AcDbEntity
8
0
100
AcDbBlockEnd
1001
DSTP_XDATA
1002
{
1002
}
0
BLOCK
5
7E
100
AcDbEntity
8
0
100
AcDbBlockBegin
2
_ArchTick
70
2
10
0
20
0
30
0
3
_ArchTick
1

0
LWPOLYLINE
5
7F
100
AcDbEntity
8
0
62
0
100
AcDbPolyline
6
ByLayer
90
2
70
0
38
0.0000000000
10
-0.5000000000
20
-0.5000000000
40
0.1500000000
41
0.1500000000
10
0.5000000000
20
0.5000000000
40
0.1500000000
41
0.1500000000
1001
DSTP_XDATA
1002
{
1000
_OWNERHANDLE=0000000064
1002
}
0
ENDBLK
5
80
100
AcDbEntity
8
0
100
AcDbBlockEnd
1001
DSTP_XDATA
1002
{
1002
}
0
BLOCK
5
81
100
AcDbEntity
8
0
100
AcDbBlockBegin
2
SCH_MOTOR_3PH_1
70
2
10
0
20
0
30
0
3
SCH_MOTOR_3PH_1
1

0
CIRCLE
5
82
100
AcDbEntity
8
EL_DEVICE
100
AcDbCircle
6
ByLayer
10
0.0000000000
20
-6.0000000000
30
0.0000000000
40
6.0000000000
1001
DSTP_XDATA
1002
{
1000
_OWNERHANDLE=0000000064
1002
}
0
LINE
5
83
100
AcDbEntity
8
EL_WIRES
100
AcDbLine
6
Continuous
10
-6.0000000000
20
0.0000000000
30
0.0000000000
11
-4.2426406871
21
-1.7573593129
31
0.0000000000
1001
DSTP_XDATA
1002
{
1000
_OWNERHANDLE=0000000064
1002
}
0
LINE
5
84
100
AcDbEntity
8
EL_WIRES
100
AcDbLine
6
Continuous
10
-12.0000000000
20
0.0000000000
30
0.0000000000
11
-5.3665631460
21
-3.3167184270
31
0.0000000000
1001
DSTP_XDATA
1002
{
1000
_OWNERHANDLE=0000000064
1002
}
0
LINE
5
85
100
AcDbEntity
8
EL_WIRES
100
AcDbLine
6
Continuous
10
6.0000000000
20
0.0000000000
30
0.0000000000
11
4.2426406871
21
-1.7573593129
31
0.0000000000
1001
DSTP_XDATA
1002
{
1000
_OWNERHANDLE=0000000064
1002
}
0
LINE
5
86
100
AcDbEntity
8
EL_WIRES
100
AcDbLine
6
Continuous
10
12.0000000000
20
0.0000000000
30
0.0000000000
11
5.3665631460
21
-3.3167184270
31
0.0000000000
1001
DSTP_XDATA
1002
{
1000
_OWNERHANDLE=0000000064
1002
}
0
ENDBLK
5
87
100
AcDbEntity
8
0
100
AcDbBlockEnd
1001
DSTP_XDATA
1002
{
1002
}
0
BLOCK
5
88
100
AcDbEntity
8
0
100
AcDbBlockBegin
2
DEVICE_SCH_MOTOR_3PH_1
70
2
10
0
20
0
30
0
3
DEVICE_SCH_MOTOR_3PH_1
1

0
INSERT
5
89
100
AcDbEntity
8
0
370
0
100
AcDbBlockReference
6
ByBlock
2
SCH_CONNECTOR_TERMINAL
10
-12.0000000000
20
0.0000000000
30
0.0000000000
41
1.0000000000
42
1.0000000000
43
1.0000000000
50
0.0000000000
1001
DSTP_XDATA
1002
{
1000
_OWNERHANDLE=0000000064
1000
USES=System
1000
#0=VariablesContentReplaceFrom|String|SCHTerminal1|
1000
SCHConnectorRadius=0
1000
_HANDLE=000B930E50
1000
_UPGRADE=1
1002
}
0
LINE
5
8A
100
AcDbEntity
8
SYS_METRIC
100
AcDbLine
6
ByLayer
10
-13.0000000000
20
0.0000000000
30
0.0000000000
11
-11.0000000000
21
0.0000000000
31
0.0000000000
1001
DSTP_XDATA
1002
{
1000
_OWNERHANDLE=000B930E50
1002
}
0
LINE
5
8B
100
AcDbEntity
8
SYS_METRIC
100
AcDbLine
6
ByLayer
10
-12.0000000000
20
1.0000000000
30
0.0000000000
11
-12.0000000000
21
-1.0000000000
31
0.0000000000
1001
DSTP_XDATA
1002
{
1000
_OWNERHANDLE=000B930E50
1002
}
0
TEXT
5
8C
100
AcDbEntity
8
EL_DEVICE_PIN_NAME
100
AcDbText
6
ByLayer
10
-11.5000000000
20
1.0000000000
30
0.0000000000
11
-11.5000000000
21
1.0000000000
31
0.0000000000
40
2.5000000000
50
0.0000000000
41
0.7000000000
51
12.0000000000
72
0
7
R2_5
1
!!ERR(NMO_TerminalName)!!
100
AcDbText
73
0
1001
DSTP_XDATA
1002
{
1000
_TMPL1=@@[NMO_TerminalName]
1000
_OWNERHANDLE=000B930E50
1000
STEDefault=TRUE
1002
}
0
TEXT
5
8D
100
AcDbEntity
8
SYS_METRIC
100
AcDbText
6
ByLayer
11
-11.5000000000
21
-1.0000000000
31
0.0000000000
10
-11.5000000000
20
-3.5000000000
30
0.0000000000
40
2.5000000000
50
0.0000000000
41
0.7000000000
51
12.0000000000
72
0
7
R2_5
1
!!ERR(NMO_NetName)!!
100
AcDbText
73
3
1001
DSTP_XDATA
1002
{
1000
_TMPL1=@@[NMO_NetName]
1000
_OWNERHANDLE=000B930E50
1000
STEDefault=TRUE
1002
}
0
INSERT
5
8E
100
AcDbEntity
8
0
370
0
100
AcDbBlockReference
6
ByBlock
2
SCH_CONNECTOR_TERMINAL
10
-6.0000000000
20
0.0000000000
30
0.0000000000
41
1.0000000000
42
1.0000000000
43
1.0000000000
50
0.0000000000
1001
DSTP_XDATA
1002
{
1000
_OWNERHANDLE=0000000064
1000
USES=System
1000
#0=VariablesContentReplaceFrom|String|SCHTerminal2|
1000
SCHConnectorRadius=0
1000
_HANDLE=00067509D0
1000
_UPGRADE=1
1002
}
0
LINE
5
8F
100
AcDbEntity
8
SYS_METRIC
100
AcDbLine
6
ByLayer
10
-7.0000000000
20
0.0000000000
30
0.0000000000
11
-5.0000000000
21
0.0000000000
31
0.0000000000
1001
DSTP_XDATA
1002
{
1000
_OWNERHANDLE=00067509D0
1002
}
0
LINE
5
90
100
AcDbEntity
8
SYS_METRIC
100
AcDbLine
6
ByLayer
10
-6.0000000000
20
1.0000000000
30
0.0000000000
11
-6.0000000000
21
-1.0000000000
31
0.0000000000
1001
DSTP_XDATA
1002
{
1000
_OWNERHANDLE=00067509D0
1002
}
0
TEXT
5
91
100
AcDbEntity
8
EL_DEVICE_PIN_NAME
100
AcDbText
6
ByLayer
10
-5.5000000000
20
1.0000000000
30
0.0000000000
11
-5.5000000000
21
1.0000000000
31
0.0000000000
40
2.5000000000
50
0.0000000000
41
0.7000000000
51
12.0000000000
72
0
7
R2_5
1
!!ERR(NMO_TerminalName)!!
100
AcDbText
73
0
1001
DSTP_XDATA
1002
{
1000
_TMPL1=@@[NMO_TerminalName]
1000
_OWNERHANDLE=00067509D0
1000
STEDefault=TRUE
1002
}
0
TEXT
5
92
100
AcDbEntity
8
SYS_METRIC
100
AcDbText
6
ByLayer
11
-5.5000000000
21
-1.0000000000
31
0.0000000000
10
-5.5000000000
20
-3.5000000000
30
0.0000000000
40
2.5000000000
50
0.0000000000
41
0.7000000000
51
12.0000000000
72
0
7
R2_5
1
!!ERR(NMO_NetName)!!
100
AcDbText
73
3
1001
DSTP_XDATA
1002
{
1000
_TMPL1=@@[NMO_NetName]
1000
_OWNERHANDLE=00067509D0
1000
STEDefault=TRUE
1002
}
0
INSERT
5
93
100
AcDbEntity
8
0
370
0
100
AcDbBlockReference
6
ByBlock
2
SCH_CONNECTOR_TERMINAL
10
0.0000000000
20
0.0000000000
30
0.0000000000
41
1.0000000000
42
1.0000000000
43
1.0000000000
50
0.0000000000
1001
DSTP_XDATA
1002
{
1000
_OWNERHANDLE=0000000064
1000
USES=System
1000
#0=VariablesContentReplaceFrom|String|SCHTerminal3|
1000
SCHConnectorRadius=0
1000
_HANDLE=0006752A50
1000
_UPGRADE=1
1002
}
0
LINE
5
94
100
AcDbEntity
8
SYS_METRIC
100
AcDbLine
6
ByLayer
10
-1.0000000000
20
0.0000000000
30
0.0000000000
11
1.0000000000
21
0.0000000000
31
0.0000000000
1001
DSTP_XDATA
1002
{
1000
_OWNERHANDLE=0006752A50
1002
}
0
LINE
5
95
100
AcDbEntity
8
SYS_METRIC
100
AcDbLine
6
ByLayer
10
0.0000000000
20
1.0000000000
30
0.0000000000
11
0.0000000000
21
-1.0000000000
31
0.0000000000
1001
DSTP_XDATA
1002
{
1000
_OWNERHANDLE=0006752A50
1002
}
0
TEXT
5
96
100
AcDbEntity
8
EL_DEVICE_PIN_NAME
100
AcDbText
6
ByLayer
10
0.5000000000
20
1.0000000000
30
0.0000000000
11
0.5000000000
21
1.0000000000
31
0.0000000000
40
2.5000000000
50
0.0000000000
41
0.7000000000
51
12.0000000000
72
0
7
R2_5
1
!!ERR(NMO_TerminalName)!!
100
AcDbText
73
0
1001
DSTP_XDATA
1002
{
1000
_TMPL1=@@[NMO_TerminalName]
1000
_OWNERHANDLE=0006752A50
1000
STEDefault=TRUE
1002
}
0
TEXT
5
97
100
AcDbEntity
8
SYS_METRIC
100
AcDbText
6
ByLayer
11
0.5000000000
21
-1.0000000000
31
0.0000000000
10
0.5000000000
20
-3.5000000000
30
0.0000000000
40
2.5000000000
50
0.0000000000
41
0.7000000000
51
12.0000000000
72
0
7
R2_5
1
!!ERR(NMO_NetName)!!
100
AcDbText
73
3
1001
DSTP_XDATA
1002
{
1000
_TMPL1=@@[NMO_NetName]
1000
_OWNERHANDLE=0006752A50
1000
STEDefault=TRUE
1002
}
0
INSERT
5
98
100
AcDbEntity
8
0
370
0
100
AcDbBlockReference
6
ByBlock
2
SCH_CONNECTOR_TERMINAL
10
6.0000000000
20
0.0000000000
30
0.0000000000
41
1.0000000000
42
1.0000000000
43
1.0000000000
50
0.0000000000
1001
DSTP_XDATA
1002
{
1000
_OWNERHANDLE=0000000064
1000
USES=System
1000
#0=VariablesContentReplaceFrom|String|SCHTerminal4|
1000
SCHConnectorRadius=0
1000
_HANDLE=0006754EF0
1000
_UPGRADE=1
1002
}
0
LINE
5
99
100
AcDbEntity
8
SYS_METRIC
100
AcDbLine
6
ByLayer
10
5.0000000000
20
0.0000000000
30
0.0000000000
11
7.0000000000
21
0.0000000000
31
0.0000000000
1001
DSTP_XDATA
1002
{
1000
_OWNERHANDLE=0006754EF0
1002
}
0
LINE
5
9A
100
AcDbEntity
8
SYS_METRIC
100
AcDbLine
6
ByLayer
10
6.0000000000
20
1.0000000000
30
0.0000000000
11
6.0000000000
21
-1.0000000000
31
0.0000000000
1001
DSTP_XDATA
1002
{
1000
_OWNERHANDLE=0006754EF0
1002
}
0
TEXT
5
9B
100
AcDbEntity
8
EL_DEVICE_PIN_NAME
100
AcDbText
6
ByLayer
10
6.5000000000
20
1.0000000000
30
0.0000000000
11
6.5000000000
21
1.0000000000
31
0.0000000000
40
2.5000000000
50
0.0000000000
41
0.7000000000
51
12.0000000000
72
0
7
R2_5
1
!!ERR(NMO_TerminalName)!!
100
AcDbText
73
0
1001
DSTP_XDATA
1002
{
1000
_TMPL1=@@[NMO_TerminalName]
1000
_OWNERHANDLE=0006754EF0
1000
STEDefault=TRUE
1002
}
0
TEXT
5
9C
100
AcDbEntity
8
SYS_METRIC
100
AcDbText
6
ByLayer
11
6.5000000000
21
-1.0000000000
31
0.0000000000
10
6.5000000000
20
-3.5000000000
30
0.0000000000
40
2.5000000000
50
0.0000000000
41
0.7000000000
51
12.0000000000
72
0
7
R2_5
1
!!ERR(NMO_NetName)!!
100
AcDbText
73
3
1001
DSTP_XDATA
1002
{
1000
_TMPL1=@@[NMO_NetName]
1000
_OWNERHANDLE=0006754EF0
1000
STEDefault=TRUE
1002
}
0
INSERT
5
9D
100
AcDbEntity
8
0
370
0
100
AcDbBlockReference
6
ByBlock
2
SCH_CONNECTOR_TERMINAL
10
12.0000000000
20
0.0000000000
30
0.0000000000
41
1.0000000000
42
1.0000000000
43
1.0000000000
50
0.0000000000
1001
DSTP_XDATA
1002
{
1000
_OWNERHANDLE=0000000064
1000
USES=System
1000
#0=VariablesContentReplaceFrom|String|SCHTerminal5|
1000
SCHConnectorRadius=0
1000
_HANDLE=0006756F70
1000
_UPGRADE=1
1002
}
0
LINE
5
9E
100
AcDbEntity
8
SYS_METRIC
100
AcDbLine
6
ByLayer
10
11.0000000000
20
0.0000000000
30
0.0000000000
11
13.0000000000
21
0.0000000000
31
0.0000000000
1001
DSTP_XDATA
1002
{
1000
_OWNERHANDLE=0006756F70
1002
}
0
LINE
5
9F
100
AcDbEntity
8
SYS_METRIC
100
AcDbLine
6
ByLayer
10
12.0000000000
20
1.0000000000
30
0.0000000000
11
12.0000000000
21
-1.0000000000
31
0.0000000000
1001
DSTP_XDATA
1002
{
1000
_OWNERHANDLE=0006756F70
1002
}
0
TEXT
5
A0
100
AcDbEntity
8
EL_DEVICE_PIN_NAME
100
AcDbText
6
ByLayer
10
12.5000000000
20
1.0000000000
30
0.0000000000
11
12.5000000000
21
1.0000000000
31
0.0000000000
40
2.5000000000
50
0.0000000000
41
0.7000000000
51
12.0000000000
72
0
7
R2_5
1
!!ERR(NMO_TerminalName)!!
100
AcDbText
73
0
1001
DSTP_XDATA
1002
{
1000
_TMPL1=@@[NMO_TerminalName]
1000
_OWNERHANDLE=0006756F70
1000
STEDefault=TRUE
1002
}
0
TEXT
5
A1
100
AcDbEntity
8
SYS_METRIC
100
AcDbText
6
ByLayer
11
12.5000000000
21
-1.0000000000
31
0.0000000000
10
12.5000000000
20
-3.5000000000
30
0.0000000000
40
2.5000000000
50
0.0000000000
41
0.7000000000
51
12.0000000000
72
0
7
R2_5
1
!!ERR(NMO_NetName)!!
100
AcDbText
73
3
1001
DSTP_XDATA
1002
{
1000
_TMPL1=@@[NMO_NetName]
1000
_OWNERHANDLE=0006756F70
1000
STEDefault=TRUE
1002
}
0
ENDBLK
5
A2
100
AcDbEntity
8
0
100
AcDbBlockEnd
1001
DSTP_XDATA
1002
{
1002
}
0
BLOCK
5
A3
100
AcDbEntity
8
0
100
AcDbBlockBegin
2
SCH_COIL
70
2
10
0
20
0
30
0
3
SCH_COIL
1

0
LINE
5
A4
100
AcDbEntity
8
EL_DEVICE
100
AcDbLine
6
ByLayer
10
-3.5000000000
20
0.0000000000
30
0.0000000000
11
-2.0000000000
21
0.0000000000
31
0.0000000000
1001
DSTP_XDATA
1002
{
1000
_OWNERHANDLE=0000000064
1002
}
0
LINE
5
A5
100
AcDbEntity
8
EL_DEVICE
100
AcDbLine
6
ByLayer
10
3.5000000000
20
0.0000000000
30
0.0000000000
11
2.0000000000
21
0.0000000000
31
0.0000000000
1001
DSTP_XDATA
1002
{
1000
_OWNERHANDLE=0000000064
1002
}
0
POLYLINE
5
A6
100
AcDbEntity
8
EL_DEVICE
370
0
100
AcDb3dPolyline
6
ByBlock
66
1
10
0.0000000000
20
0.0000000000
30
0.0000000000
70
9
1001
DSTP_XDATA
1002
{
1000
_OWNERHANDLE=0000000064
1002
}
0
VERTEX
5
A7
100
AcDbEntity
8
EL_DEVICE
370
0
100
AcDbVertex
6
ByBlock
100
AcDb3dPolylineVertex
10
2.0000000000
20
-4.0000000000
30
0.0000000000
0
VERTEX
5
A8
100
AcDbEntity
8
EL_DEVICE
370
0
100
AcDbVertex
6
ByBlock
100
AcDb3dPolylineVertex
10
-2.0000000000
20
-4.0000000000
30
0.0000000000
0
VERTEX
5
A9
100
AcDbEntity
8
EL_DEVICE
370
0
100
AcDbVertex
6
ByBlock
100
AcDb3dPolylineVertex
10
-2.0000000000
20
4.0000000000
30
0.0000000000
0
VERTEX
5
AA
100
AcDbEntity
8
EL_DEVICE
370
0
100
AcDbVertex
6
ByBlock
100
AcDb3dPolylineVertex
10
2.0000000000
20
4.0000000000
30
0.0000000000
0
SEQEND
5
AB
100
AcDbEntity
8
EL_DEVICE
370
0
6
ByBlock
0
ENDBLK
5
AC
100
AcDbEntity
8
0
100
AcDbBlockEnd
1001
DSTP_XDATA
1002
{
1002
}
0
BLOCK
5
AD
100
AcDbEntity
8
0
100
AcDbBlockBegin
2
DEVICE_SCH_COIL
70
2
10
0
20
0
30
0
3
DEVICE_SCH_COIL
1

0
TEXT
5
AE
100
AcDbEntity
8
EL_DEVICE_NAME
100
AcDbText
6
ByLayer
10
0.0000000000
20
4.5000000000
30
0.0000000000
11
0.0000000000
21
4.5000000000
31
0.0000000000
40
2.5000000000
50
0.0000000000
41
0.7000000000
51
12.0000000000
72
0
7
R2_5
1
??KA0
100
AcDbText
73
0
1001
DSTP_XDATA
1002
{
1000
_TMPL1=@@[NMO_Name]
1000
_OWNERHANDLE=0000000064
1000
STEDefault=TRUE
1002
}
0
INSERT
5
AF
100
AcDbEntity
8
0
100
AcDbBlockReference
6
ByLayer
2
SCH_CONNECTOR_TERMINAL_CC
10
4.0000000000
20
0.0000000000
30
0.0000000000
41
1.0000000000
42
1.0000000000
43
1.0000000000
50
0.0000000000
1001
DSTP_XDATA
1002
{
1000
_OWNERHANDLE=0000000064
1000
USES=System
1000
#0=VariablesContentReplaceFrom|String|SCHTerminal2|
1000
SCHConnectorRadius=1
1000
_HANDLE=0006759410
1000
_UPGRADE=1
1002
}
0
LINE
5
B0
100
AcDbEntity
8
SYS_METRIC
100
AcDbLine
6
ByLayer
10
3.0000000000
20
0.0000000000
30
0.0000000000
11
5.0000000000
21
0.0000000000
31
0.0000000000
1001
DSTP_XDATA
1002
{
1000
_OWNERHANDLE=0006759410
1002
}
0
LINE
5
B1
100
AcDbEntity
8
SYS_METRIC
100
AcDbLine
6
ByLayer
10
4.0000000000
20
1.0000000000
30
0.0000000000
11
4.0000000000
21
-1.0000000000
31
0.0000000000
1001
DSTP_XDATA
1002
{
1000
_OWNERHANDLE=0006759410
1002
}
0
TEXT
5
B2
100
AcDbEntity
8
EL_DEVICE_PIN_NAME
100
AcDbText
6
ByLayer
11
4.0000000000
21
1.0000000000
31
0.0000000000
10
-13.7916666667
20
1.0000000000
30
0.0000000000
40
2.5000000000
50
0.0000000000
41
0.7000000000
51
12.0000000000
72
1
7
R2_5
1
!!ERR(NMO_TerminalName)!!
100
AcDbText
73
0
1001
DSTP_XDATA
1002
{
1000
_TMPL1=@@[NMO_TerminalName]
1000
_OWNERHANDLE=0006759410
1000
STEDefault=TRUE
1002
}
0
TEXT
5
B3
100
AcDbEntity
8
SYS_METRIC
100
AcDbText
6
ByLayer
11
4.0000000000
21
-1.0000000000
31
0.0000000000
10
-10.5833333333
20
-3.5000000000
30
0.0000000000
40
2.5000000000
50
0.0000000000
41
0.7000000000
51
12.0000000000
72
1
7
R2_5
1
!!ERR(NMO_NetName)!!
100
AcDbText
73
3
1001
DSTP_XDATA
1002
{
1000
_TMPL1=@@[NMO_NetName]
1000
_OWNERHANDLE=0006759410
1000
STEDefault=TRUE
1002
}
0
INSERT
5
B4
100
AcDbEntity
8
0
100
AcDbBlockReference
6
ByLayer
2
SCH_CONNECTOR_TERMINAL_CC
10
-4.0000000000
20
0.0000000000
30
0.0000000000
41
1.0000000000
42
1.0000000000
43
1.0000000000
50
0.0000000000
1001
DSTP_XDATA
1002
{
1000
_OWNERHANDLE=0000000064
1000
USES=System
1000
#0=VariablesContentReplaceFrom|String|SCHTerminal1|
1000
SCHConnectorRadius=1
1000
_HANDLE=000675B490
1000
_UPGRADE=1
1002
}
0
LINE
5
B5
100
AcDbEntity
8
SYS_METRIC
100
AcDbLine
6
ByLayer
10
-5.0000000000
20
0.0000000000
30
0.0000000000
11
-3.0000000000
21
0.0000000000
31
0.0000000000
1001
DSTP_XDATA
1002
{
1000
_OWNERHANDLE=000675B490
1002
}
0
LINE
5
B6
100
AcDbEntity
8
SYS_METRIC
100
AcDbLine
6
ByLayer
10
-4.0000000000
20
1.0000000000
30
0.0000000000
11
-4.0000000000
21
-1.0000000000
31
0.0000000000
1001
DSTP_XDATA
1002
{
1000
_OWNERHANDLE=000675B490
1002
}
0
TEXT
5
B7
100
AcDbEntity
8
EL_DEVICE_PIN_NAME
100
AcDbText
6
ByLayer
11
-4.0000000000
21
1.0000000000
31
0.0000000000
10
-21.7916666667
20
1.0000000000
30
0.0000000000
40
2.5000000000
50
0.0000000000
41
0.7000000000
51
12.0000000000
72
1
7
R2_5
1
!!ERR(NMO_TerminalName)!!
100
AcDbText
73
0
1001
DSTP_XDATA
1002
{
1000
_TMPL1=@@[NMO_TerminalName]
1000
_OWNERHANDLE=000675B490
1000
STEDefault=TRUE
1002
}
0
TEXT
5
B8
100
AcDbEntity
8
SYS_METRIC
100
AcDbText
6
ByLayer
11
-4.0000000000
21
-1.0000000000
31
0.0000000000
10
-18.5833333333
20
-3.5000000000
30
0.0000000000
40
2.5000000000
50
0.0000000000
41
0.7000000000
51
12.0000000000
72
1
7
R2_5
1
!!ERR(NMO_NetName)!!
100
AcDbText
73
3
1001
DSTP_XDATA
1002
{
1000
_TMPL1=@@[NMO_NetName]
1000
_OWNERHANDLE=000675B490
1000
STEDefault=TRUE
1002
}
0
ENDBLK
5
B9
100
AcDbEntity
8
0
100
AcDbBlockEnd
1001
DSTP_XDATA
1002
{
1002
}
0
BLOCK
5
BA
100
AcDbEntity
8
0
100
AcDbBlockBegin
2
SCH_BUTTON_NOC_CC
70
2
10
0
20
0
30
0
3
SCH_BUTTON_NOC_CC
1

0
LINE
5
BB
100
AcDbEntity
8
EL_DEVICE
100
AcDbLine
6
ByLayer
10
-3.0000000000
20
0.0000000000
30
0.0000000000
11
3.0000000000
21
3.5000000000
31
0.0000000000
1001
DSTP_XDATA
1002
{
1000
_OWNERHANDLE=0000000064
1002
}
0
LINE
5
BC
100
AcDbEntity
8
EL_DEVICE
100
AcDbLine
6
ByLayer
10
-4.5000000000
20
0.0000000000
30
0.0000000000
11
-3.0000000000
21
0.0000000000
31
0.0000000000
1001
DSTP_XDATA
1002
{
1000
_OWNERHANDLE=0000000064
1002
}
0
LINE
5
BD
100
AcDbEntity
8
EL_DEVICE
100
AcDbLine
6
ByLayer
10
4.5000000000
20
0.0000000000
30
0.0000000000
11
3.0000000000
21
0.0000000000
31
0.0000000000
1001
DSTP_XDATA
1002
{
1000
_OWNERHANDLE=0000000064
1002
}
0
LWPOLYLINE
5
BE
100
AcDbEntity
8
EL_DEVICE
100
AcDbPolyline
6
ByLayer
90
4
70
0
38
0.0000000000
10
-1.5000000000
20
4.0000000000
40
0.0000000000
41
0.0000000000
10
-1.5000000000
20
5.0000000000
40
0.0000000000
41
0.0000000000
10
1.5000000000
20
5.0000000000
40
0.0000000000
41
0.0000000000
10
1.5000000000
20
4.0000000000
40
0.0000000000
41
0.0000000000
1001
DSTP_XDATA
1002
{
1000
_OWNERHANDLE=0000000064
1002
}
0
LINE
5
BF
100
AcDbEntity
8
EL_DEVICE
100
AcDbLine
6
ByLayer
10
0.7500000000
20
2.1875000000
30
0.0000000000
11
0.7500000000
21
5.0000000000
31
0.0000000000
1001
DSTP_XDATA
1002
{
1000
_OWNERHANDLE=0000000064
1002
}
0
LINE
5
C0
100
AcDbEntity
8
EL_DEVICE
100
AcDbLine
6
ByLayer
10
-0.7500000000
20
1.3125000000
30
0.0000000000
11
-0.7500000000
21
5.0000000000
31
0.0000000000
1001
DSTP_XDATA
1002
{
1000
_OWNERHANDLE=0000000064
1002
}
0
ENDBLK
5
C1
100
AcDbEntity
8
0
100
AcDbBlockEnd
1001
DSTP_XDATA
1002
{
1002
}
0
BLOCK
5
C2
100
AcDbEntity
8
0
100
AcDbBlockBegin
2
DEVICE_SCH_BUTTON_NOC_CC
70
2
10
0
20
0
30
0
3
DEVICE_SCH_BUTTON_NOC_CC
1

0
TEXT
5
C3
100
AcDbEntity
8
EL_DEVICE_NAME
100
AcDbText
6
ByLayer
10
0.0000000000
20
5.5000000000
30
0.0000000000
11
0.0000000000
21
5.5000000000
31
0.0000000000
40
2.5000000000
50
0.0000000000
41
0.7000000000
51
12.0000000000
72
0
7
R2_5
1
??SB0
100
AcDbText
73
0
1001
DSTP_XDATA
1002
{
1000
_TMPL1=@@[NMO_Name]
1000
_OWNERHANDLE=0000000064
1000
STEDefault=TRUE
1002
}
0
INSERT
5
C4
100
AcDbEntity
8
0
100
AcDbBlockReference
6
ByLayer
2
SCH_CONNECTOR_TERMINAL_CC
10
5.0000000000
20
0.0000000000
30
0.0000000000
41
1.0000000000
42
1.0000000000
43
1.0000000000
50
0.0000000000
1001
DSTP_XDATA
1002
{
1000
_OWNERHANDLE=0000000064
1000
USES=System
1000
#0=VariablesContentReplaceFrom|String|SCHTerminal2|
1000
SCHConnectorRadius=1
1000
_HANDLE=000675E950
1000
_UPGRADE=1
1002
}
0
LINE
5
C5
100
AcDbEntity
8
SYS_METRIC
100
AcDbLine
6
ByLayer
10
4.0000000000
20
0.0000000000
30
0.0000000000
11
6.0000000000
21
0.0000000000
31
0.0000000000
1001
DSTP_XDATA
1002
{
1000
_OWNERHANDLE=000675E950
1002
}
0
LINE
5
C6
100
AcDbEntity
8
SYS_METRIC
100
AcDbLine
6
ByLayer
10
5.0000000000
20
1.0000000000
30
0.0000000000
11
5.0000000000
21
-1.0000000000
31
0.0000000000
1001
DSTP_XDATA
1002
{
1000
_OWNERHANDLE=000675E950
1002
}
0
TEXT
5
C7
100
AcDbEntity
8
EL_DEVICE_PIN_NAME
100
AcDbText
6
ByLayer
11
5.0000000000
21
1.0000000000
31
0.0000000000
10
-12.7916666667
20
1.0000000000
30
0.0000000000
40
2.5000000000
50
0.0000000000
41
0.7000000000
51
12.0000000000
72
1
7
R2_5
1
!!ERR(NMO_TerminalName)!!
100
AcDbText
73
0
1001
DSTP_XDATA
1002
{
1000
_TMPL1=@@[NMO_TerminalName]
1000
_OWNERHANDLE=000675E950
1000
STEDefault=TRUE
1002
}
0
TEXT
5
C8
100
AcDbEntity
8
SYS_METRIC
100
AcDbText
6
ByLayer
11
5.0000000000
21
-1.0000000000
31
0.0000000000
10
-9.5833333333
20
-3.5000000000
30
0.0000000000
40
2.5000000000
50
0.0000000000
41
0.7000000000
51
12.0000000000
72
1
7
R2_5
1
!!ERR(NMO_NetName)!!
100
AcDbText
73
3
1001
DSTP_XDATA
1002
{
1000
_TMPL1=@@[NMO_NetName]
1000
_OWNERHANDLE=000675E950
1000
STEDefault=TRUE
1002
}
0
INSERT
5
C9
100
AcDbEntity
8
0
100
AcDbBlockReference
6
ByLayer
2
SCH_CONNECTOR_TERMINAL_CC
10
-5.0000000000
20
0.0000000000
30
0.0000000000
41
1.0000000000
42
1.0000000000
43
1.0000000000
50
0.0000000000
1001
DSTP_XDATA
1002
{
1000
_OWNERHANDLE=0000000064
1000
USES=System
1000
#0=VariablesContentReplaceFrom|String|SCHTerminal1|
1000
SCHConnectorRadius=1
1000
_HANDLE=0006761010
1000
_UPGRADE=1
1002
}
0
LINE
5
CA
100
AcDbEntity
8
SYS_METRIC
100
AcDbLine
6
ByLayer
10
-6.0000000000
20
0.0000000000
30
0.0000000000
11
-4.0000000000
21
0.0000000000
31
0.0000000000
1001
DSTP_XDATA
1002
{
1000
_OWNERHANDLE=0006761010
1002
}
0
LINE
5
CB
100
AcDbEntity
8
SYS_METRIC
100
AcDbLine
6
ByLayer
10
-5.0000000000
20
1.0000000000
30
0.0000000000
11
-5.0000000000
21
-1.0000000000
31
0.0000000000
1001
DSTP_XDATA
1002
{
1000
_OWNERHANDLE=0006761010
1002
}
0
TEXT
5
CC
100
AcDbEntity
8
EL_DEVICE_PIN_NAME
100
AcDbText
6
ByLayer
11
-5.0000000000
21
1.0000000000
31
0.0000000000
10
-22.7916666667
20
1.0000000000
30
0.0000000000
40
2.5000000000
50
0.0000000000
41
0.7000000000
51
12.0000000000
72
1
7
R2_5
1
!!ERR(NMO_TerminalName)!!
100
AcDbText
73
0
1001
DSTP_XDATA
1002
{
1000
_TMPL1=@@[NMO_TerminalName]
1000
_OWNERHANDLE=0006761010
1000
STEDefault=TRUE
1002
}
0
TEXT
5
CD
100
AcDbEntity
8
SYS_METRIC
100
AcDbText
6
ByLayer
11
-5.0000000000
21
-1.0000000000
31
0.0000000000
10
-19.5833333333
20
-3.5000000000
30
0.0000000000
40
2.5000000000
50
0.0000000000
41
0.7000000000
51
12.0000000000
72
1
7
R2_5
1
!!ERR(NMO_NetName)!!
100
AcDbText
73
3
1001
DSTP_XDATA
1002
{
1000
_TMPL1=@@[NMO_NetName]
1000
_OWNERHANDLE=0006761010
1000
STEDefault=TRUE
1002
}
0
ENDBLK
5
CE
100
AcDbEntity
8
0
100
AcDbBlockEnd
1001
DSTP_XDATA
1002
{
1002
}
0
BLOCK
5
CF
100
AcDbEntity
8
0
100
AcDbBlockBegin
2
SCH_BUTTON_NC_CC
70
2
10
0
20
0
30
0
3
SCH_BUTTON_NC_CC
1

0
LINE
5
D0
100
AcDbEntity
8
EL_DEVICE
100
AcDbLine
6
ByLayer
10
-4.5000000000
20
0.0000000000
30
0.0000000000
11
-3.0000000000
21
0.0000000000
31
0.0000000000
1001
DSTP_XDATA
1002
{
1000
_OWNERHANDLE=0000000064
1002
}
0
LINE
5
D1
100
AcDbEntity
8
EL_DEVICE
100
AcDbLine
6
ByLayer
10
4.5000000000
20
0.0000000000
30
0.0000000000
11
3.0000000000
21
0.0000000000
31
0.0000000000
1001
DSTP_XDATA
1002
{
1000
_OWNERHANDLE=0000000064
1002
}
0
LWPOLYLINE
5
D2
100
AcDbEntity
8
EL_DEVICE
100
AcDbPolyline
6
ByLayer
90
4
70
0
38
0.0000000000
10
-1.5000000000
20
2.0000000000
40
0.0000000000
41
0.0000000000
10
-1.5000000000
20
3.0000000000
40
0.0000000000
41
0.0000000000
10
1.5000000000
20
3.0000000000
40
0.0000000000
41
0.0000000000
10
1.5000000000
20
2.0000000000
40
0.0000000000
41
0.0000000000
1001
DSTP_XDATA
1002
{
1000
_OWNERHANDLE=0000000064
1002
}
0
LINE
5
D3
100
AcDbEntity
8
EL_DEVICE
100
AcDbLine
6
ByLayer
10
0.7500000000
20
-2.8259618943
30
0.0000000000
11
0.7500000000
21
3.0000000000
31
0.0000000000
1001
DSTP_XDATA
1002
{
1000
_OWNERHANDLE=0000000064
1002
}
0
LINE
5
D4
100
AcDbEntity
8
EL_DEVICE
100
AcDbLine
6
ByLayer
10
-0.7500000000
20
-3.7009618943
30
0.0000000000
11
-0.7500000000
21
3.0000000000
31
0.0000000000
1001
DSTP_XDATA
1002
{
1000
_OWNERHANDLE=0000000064
1002
}
0
LINE
5
D5
100
AcDbEntity
8
EL_DEVICE
100
AcDbLine
6
ByLayer
10
-3.0000000000
20
0.0000000000
30
0.0000000000
11
-3.0000000000
21
-5.0000000000
31
0.0000000000
1001
DSTP_XDATA
1002
{
1000
_OWNERHANDLE=0000000064
1002
}
0
LINE
5
D6
100
AcDbEntity
8
EL_DEVICE
100
AcDbLine
6
ByLayer
10
3.0000000000
20
0.0000000000
30
0.0000000000
11
3.0000000000
21
-3.0000000000
31
0.0000000000
1001
DSTP_XDATA
1002
{
1000
_OWNERHANDLE=0000000064
1002
}
0
LINE
5
D7
100
AcDbEntity
8
EL_DEVICE
100
AcDbLine
6
ByLayer
10
-3.0000000000
20
-5.0000000000
30
0.0000000000
11
4.2679491924
21
-0.8038475773
31
0.0000000000
1001
DSTP_XDATA
1002
{
1000
_OWNERHANDLE=0000000064
1002
}
0
ENDBLK
5
D8
100
AcDbEntity
8
0
100
AcDbBlockEnd
1001
DSTP_XDATA
1002
{
1002
}
0
BLOCK
5
D9
100
AcDbEntity
8
0
100
AcDbBlockBegin
2
DEVICE_SCH_BUTTON_NC_CC
70
2
10
0
20
0
30
0
3
DEVICE_SCH_BUTTON_NC_CC
1

0
TEXT
5
DA
100
AcDbEntity
8
EL_DEVICE_NAME
100
AcDbText
6
ByLayer
10
0.0000000000
20
3.5000000000
30
0.0000000000
11
0.0000000000
21
3.5000000000
31
0.0000000000
40
2.5000000000
50
0.0000000000
41
0.7000000000
51
12.0000000000
72
0
7
R2_5
1
??SB0
100
AcDbText
73
0
1001
DSTP_XDATA
1002
{
1000
_TMPL1=@@[NMO_Name]
1000
_OWNERHANDLE=0000000064
1000
STEDefault=TRUE
1002
}
0
INSERT
5
DB
100
AcDbEntity
8
0
100
AcDbBlockReference
6
ByLayer
2
SCH_CONNECTOR_TERMINAL_CC
10
-5.0000000000
20
0.0000000000
30
0.0000000000
41
1.0000000000
42
1.0000000000
43
1.0000000000
50
0.0000000000
1001
DSTP_XDATA
1002
{
1000
_OWNERHANDLE=0000000064
1000
USES=System
1000
#0=VariablesContentReplaceFrom|String|SCHTerminal1|
1000
SCHConnectorRadius=1
1000
_HANDLE=00067644D0
1000
_UPGRADE=1
1002
}
0
LINE
5
DC
100
AcDbEntity
8
SYS_METRIC
100
AcDbLine
6
ByLayer
10
-6.0000000000
20
0.0000000000
30
0.0000000000
11
-4.0000000000
21
0.0000000000
31
0.0000000000
1001
DSTP_XDATA
1002
{
1000
_OWNERHANDLE=00067644D0
1002
}
0
LINE
5
DD
100
AcDbEntity
8
SYS_METRIC
100
AcDbLine
6
ByLayer
10
-5.0000000000
20
1.0000000000
30
0.0000000000
11
-5.0000000000
21
-1.0000000000
31
0.0000000000
1001
DSTP_XDATA
1002
{
1000
_OWNERHANDLE=00067644D0
1002
}
0
TEXT
5
DE
100
AcDbEntity
8
EL_DEVICE_PIN_NAME
100
AcDbText
6
ByLayer
11
-5.0000000000
21
1.0000000000
31
0.0000000000
10
-22.7916666667
20
1.0000000000
30
0.0000000000
40
2.5000000000
50
0.0000000000
41
0.7000000000
51
12.0000000000
72
1
7
R2_5
1
!!ERR(NMO_TerminalName)!!
100
AcDbText
73
0
1001
DSTP_XDATA
1002
{
1000
_TMPL1=@@[NMO_TerminalName]
1000
_OWNERHANDLE=00067644D0
1000
STEDefault=TRUE
1002
}
0
TEXT
5
DF
100
AcDbEntity
8
SYS_METRIC
100
AcDbText
6
ByLayer
11
-5.0000000000
21
-1.0000000000
31
0.0000000000
10
-19.5833333333
20
-3.5000000000
30
0.0000000000
40
2.5000000000
50
0.0000000000
41
0.7000000000
51
12.0000000000
72
1
7
R2_5
1
!!ERR(NMO_NetName)!!
100
AcDbText
73
3
1001
DSTP_XDATA
1002
{
1000
_TMPL1=@@[NMO_NetName]
1000
_OWNERHANDLE=00067644D0
1000
STEDefault=TRUE
1002
}
0
INSERT
5
E0
100
AcDbEntity
8
0
100
AcDbBlockReference
6
ByLayer
2
SCH_CONNECTOR_TERMINAL_CC
10
5.0000000000
20
0.0000000000
30
0.0000000000
41
1.0000000000
42
1.0000000000
43
1.0000000000
50
0.0000000000
1001
DSTP_XDATA
1002
{
1000
_OWNERHANDLE=0000000064
1000
USES=System
1000
#0=VariablesContentReplaceFrom|String|SCHTerminal2|
1000
SCHConnectorRadius=1
1000
_HANDLE=0006766550
1000
_UPGRADE=1
1002
}
0
LINE
5
E1
100
AcDbEntity
8
SYS_METRIC
100
AcDbLine
6
ByLayer
10
4.0000000000
20
0.0000000000
30
0.0000000000
11
6.0000000000
21
0.0000000000
31
0.0000000000
1001
DSTP_XDATA
1002
{
1000
_OWNERHANDLE=0006766550
1002
}
0
LINE
5
E2
100
AcDbEntity
8
SYS_METRIC
100
AcDbLine
6
ByLayer
10
5.0000000000
20
1.0000000000
30
0.0000000000
11
5.0000000000
21
-1.0000000000
31
0.0000000000
1001
DSTP_XDATA
1002
{
1000
_OWNERHANDLE=0006766550
1002
}
0
TEXT
5
E3
100
AcDbEntity
8
EL_DEVICE_PIN_NAME
100
AcDbText
6
ByLayer
11
5.0000000000
21
1.0000000000
31
0.0000000000
10
-12.7916666667
20
1.0000000000
30
0.0000000000
40
2.5000000000
50
0.0000000000
41
0.7000000000
51
12.0000000000
72
1
7
R2_5
1
!!ERR(NMO_TerminalName)!!
100
AcDbText
73
0
1001
DSTP_XDATA
1002
{
1000
_TMPL1=@@[NMO_TerminalName]
1000
_OWNERHANDLE=0006766550
1000
STEDefault=TRUE
1002
}
0
TEXT
5
E4
100
AcDbEntity
8
SYS_METRIC
100
AcDbText
6
ByLayer
11
5.0000000000
21
-1.0000000000
31
0.0000000000
10
-9.5833333333
20
-3.5000000000
30
0.0000000000
40
2.5000000000
50
0.0000000000
41
0.7000000000
51
12.0000000000
72
1
7
R2_5
1
!!ERR(NMO_NetName)!!
100
AcDbText
73
3
1001
DSTP_XDATA
1002
{
1000
_TMPL1=@@[NMO_NetName]
1000
_OWNERHANDLE=0006766550
1000
STEDefault=TRUE
1002
}
0
ENDBLK
5
E5
100
AcDbEntity
8
0
100
AcDbBlockEnd
1001
DSTP_XDATA
1002
{
1002
}
0
BLOCK
5
E6
100
AcDbEntity
8
0
100
AcDbBlockBegin
2
SCH_THERMO_NC_CC
70
2
10
0
20
0
30
0
3
SCH_THERMO_NC_CC
1

0
LINE
5
E7
100
AcDbEntity
8
EL_DEVICE
100
AcDbLine
6
ByLayer
10
-4.5000000000
20
0.0000000000
30
0.0000000000
11
-3.0000000000
21
0.0000000000
31
0.0000000000
1001
DSTP_XDATA
1002
{
1000
_OWNERHANDLE=0000000064
1002
}
0
LINE
5
E8
100
AcDbEntity
8
EL_DEVICE
100
AcDbLine
6
ByLayer
10
4.5000000000
20
0.0000000000
30
0.0000000000
11
3.0000000000
21
0.0000000000
31
0.0000000000
1001
DSTP_XDATA
1002
{
1000
_OWNERHANDLE=0000000064
1002
}
0
LWPOLYLINE
5
E9
100
AcDbEntity
8
EL_DEVICE
100
AcDbPolyline
6
ByLayer
90
4
70
0
38
0.0000000000
10
-1.5000000000
20
3.0000000000
40
0.0000000000
41
0.0000000000
10
-1.5000000000
20
2.0000000000
40
0.0000000000
41
0.0000000000
10
1.5000000000
20
2.0000000000
40
0.0000000000
41
0.0000000000
10
1.5000000000
20
3.0000000000
40
0.0000000000
41
0.0000000000
1001
DSTP_XDATA
1002
{
1000
_OWNERHANDLE=0000000064
1002
}
0
LINE
5
EA
100
AcDbEntity
8
EL_DEVICE
100
AcDbLine
6
ByLayer
10
0.0000000000
20
0.0000000000
30
0.0000000000
11
0.0000000000
21
2.0000000000
31
0.0000000000
1001
DSTP_XDATA
1002
{
1000
_OWNERHANDLE=0000000064
1002
}
0
LINE
5
EB
100
AcDbEntity
8
EL_DEVICE
100
AcDbLine
6
ByLayer
10
-3.0000000000
20
0.0000000000
30
0.0000000000
11
-3.0000000000
21
-5.0000000000
31
0.0000000000
1001
DSTP_XDATA
1002
{
1000
_OWNERHANDLE=0000000064
1002
}
0
LINE
5
EC
100
AcDbEntity
8
EL_DEVICE
100
AcDbLine
6
ByLayer
10
3.0000000000
20
0.0000000000
30
0.0000000000
11
3.0000000000
21
-3.0000000000
31
0.0000000000
1001
DSTP_XDATA
1002
{
1000
_OWNERHANDLE=0000000064
1002
}
0
LINE
5
ED
100
AcDbEntity
8
EL_DEVICE
100
AcDbLine
6
ByLayer
10
-3.0000000000
20
-5.0000000000
30
0.0000000000
11
4.2679491924
21
-0.8038475773
31
0.0000000000
1001
DSTP_XDATA
1002
{
1000
_OWNERHANDLE=0000000064
1002
}
0
LINE
5
EE
100
AcDbEntity
8
EL_DEVICE
100
AcDbLine
6
ByLayer
10
0.0000000000
20
-3.2679491924
30
0.0000000000
11
0.0000000000
21
-1.2679491924
31
0.0000000000
1001
DSTP_XDATA
1002
{
1000
_OWNERHANDLE=0000000064
1002
}
0
ENDBLK
5
EF
100
AcDbEntity
8
0
100
AcDbBlockEnd
1001
DSTP_XDATA
1002
{
1002
}
0
BLOCK
5
F0
100
AcDbEntity
8
0
100
AcDbBlockBegin
2
DEVICE_SCH_THERMO_NC_CC
70
2
10
0
20
0
30
0
3
DEVICE_SCH_THERMO_NC_CC
1

0
TEXT
5
F1
100
AcDbEntity
8
EL_DEVICE_NAME
100
AcDbText
6
ByLayer
10
0.0000000000
20
3.5000000000
30
0.0000000000
11
0.0000000000
21
3.5000000000
31
0.0000000000
40
2.5000000000
50
0.0000000000
41
0.7000000000
51
12.0000000000
72
0
7
R2_5
1
??KK0
100
AcDbText
73
0
1001
DSTP_XDATA
1002
{
1000
_TMPL1=@@[NMO_Name]
1000
_OWNERHANDLE=0000000064
1000
STEDefault=TRUE
1002
}
0
INSERT
5
F2
100
AcDbEntity
8
0
100
AcDbBlockReference
6
ByLayer
2
SCH_CONNECTOR_TERMINAL_CC
10
5.0000000000
20
0.0000000000
30
0.0000000000
41
1.0000000000
42
1.0000000000
43
1.0000000000
50
0.0000000000
1001
DSTP_XDATA
1002
{
1000
_OWNERHANDLE=0000000064
1000
USES=System
1000
#0=VariablesContentReplaceFrom|String|SCHTerminal2|
1000
SCHConnectorRadius=1
1000
_HANDLE=0006769E50
1000
_UPGRADE=1
1002
}
0
LINE
5
F3
100
AcDbEntity
8
SYS_METRIC
100
AcDbLine
6
ByLayer
10
4.0000000000
20
0.0000000000
30
0.0000000000
11
6.0000000000
21
0.0000000000
31
0.0000000000
1001
DSTP_XDATA
1002
{
1000
_OWNERHANDLE=0006769E50
1002
}
0
LINE
5
F4
100
AcDbEntity
8
SYS_METRIC
100
AcDbLine
6
ByLayer
10
5.0000000000
20
1.0000000000
30
0.0000000000
11
5.0000000000
21
-1.0000000000
31
0.0000000000
1001
DSTP_XDATA
1002
{
1000
_OWNERHANDLE=0006769E50
1002
}
0
TEXT
5
F5
100
AcDbEntity
8
EL_DEVICE_PIN_NAME
100
AcDbText
6
ByLayer
11
5.0000000000
21
1.0000000000
31
0.0000000000
10
-12.7916666667
20
1.0000000000
30
0.0000000000
40
2.5000000000
50
0.0000000000
41
0.7000000000
51
12.0000000000
72
1
7
R2_5
1
!!ERR(NMO_TerminalName)!!
100
AcDbText
73
0
1001
DSTP_XDATA
1002
{
1000
_TMPL1=@@[NMO_TerminalName]
1000
_OWNERHANDLE=0006769E50
1000
STEDefault=TRUE
1002
}
0
TEXT
5
F6
100
AcDbEntity
8
SYS_METRIC
100
AcDbText
6
ByLayer
11
5.0000000000
21
-1.0000000000
31
0.0000000000
10
-9.5833333333
20
-3.5000000000
30
0.0000000000
40
2.5000000000
50
0.0000000000
41
0.7000000000
51
12.0000000000
72
1
7
R2_5
1
!!ERR(NMO_NetName)!!
100
AcDbText
73
3
1001
DSTP_XDATA
1002
{
1000
_TMPL1=@@[NMO_NetName]
1000
_OWNERHANDLE=0006769E50
1000
STEDefault=TRUE
1002
}
0
INSERT
5
F7
100
AcDbEntity
8
0
100
AcDbBlockReference
6
ByLayer
2
SCH_CONNECTOR_TERMINAL_CC
10
-5.0000000000
20
0.0000000000
30
0.0000000000
41
1.0000000000
42
1.0000000000
43
1.0000000000
50
0.0000000000
1001
DSTP_XDATA
1002
{
1000
_OWNERHANDLE=0000000064
1000
USES=System
1000
#0=VariablesContentReplaceFrom|String|SCHTerminal1|
1000
SCHConnectorRadius=1
1000
_HANDLE=000676BED0
1000
_UPGRADE=1
1002
}
0
LINE
5
F8
100
AcDbEntity
8
SYS_METRIC
100
AcDbLine
6
ByLayer
10
-6.0000000000
20
0.0000000000
30
0.0000000000
11
-4.0000000000
21
0.0000000000
31
0.0000000000
1001
DSTP_XDATA
1002
{
1000
_OWNERHANDLE=000676BED0
1002
}
0
LINE
5
F9
100
AcDbEntity
8
SYS_METRIC
100
AcDbLine
6
ByLayer
10
-5.0000000000
20
1.0000000000
30
0.0000000000
11
-5.0000000000
21
-1.0000000000
31
0.0000000000
1001
DSTP_XDATA
1002
{
1000
_OWNERHANDLE=000676BED0
1002
}
0
TEXT
5
FA
100
AcDbEntity
8
EL_DEVICE_PIN_NAME
100
AcDbText
6
ByLayer
11
-5.0000000000
21
1.0000000000
31
0.0000000000
10
-22.7916666667
20
1.0000000000
30
0.0000000000
40
2.5000000000
50
0.0000000000
41
0.7000000000
51
12.0000000000
72
1
7
R2_5
1
!!ERR(NMO_TerminalName)!!
100
AcDbText
73
0
1001
DSTP_XDATA
1002
{
1000
_TMPL1=@@[NMO_TerminalName]
1000
_OWNERHANDLE=000676BED0
1000
STEDefault=TRUE
1002
}
0
TEXT
5
FB
100
AcDbEntity
8
SYS_METRIC
100
AcDbText
6
ByLayer
11
-5.0000000000
21
-1.0000000000
31
0.0000000000
10
-19.5833333333
20
-3.5000000000
30
0.0000000000
40
2.5000000000
50
0.0000000000
41
0.7000000000
51
12.0000000000
72
1
7
R2_5
1
!!ERR(NMO_NetName)!!
100
AcDbText
73
3
1001
DSTP_XDATA
1002
{
1000
_TMPL1=@@[NMO_NetName]
1000
_OWNERHANDLE=000676BED0
1000
STEDefault=TRUE
1002
}
0
ENDBLK
5
FC
100
AcDbEntity
8
0
100
AcDbBlockEnd
1001
DSTP_XDATA
1002
{
1002
}
0
BLOCK
5
FD
100
AcDbEntity
8
0
100
AcDbBlockBegin
2
SCH_THERMO
70
2
10
0
20
0
30
0
3
SCH_THERMO
1

0
LINE
5
FE
100
AcDbEntity
8
EL_DEVICE
100
AcDbLine
6
ByLayer
10
-3.5000000000
20
0.0000000000
30
0.0000000000
11
-2.0000000000
21
0.0000000000
31
0.0000000000
1001
DSTP_XDATA
1002
{
1000
_OWNERHANDLE=0000000064
1002
}
0
LINE
5
FF
100
AcDbEntity
8
EL_DEVICE
100
AcDbLine
6
ByLayer
10
3.5000000000
20
0.0000000000
30
0.0000000000
11
2.0000000000
21
0.0000000000
31
0.0000000000
1001
DSTP_XDATA
1002
{
1000
_OWNERHANDLE=0000000064
1002
}
0
POLYLINE
5
100
100
AcDbEntity
8
EL_DEVICE
370
0
100
AcDb3dPolyline
6
ByBlock
66
1
10
0.0000000000
20
0.0000000000
30
0.0000000000
70
9
1001
DSTP_XDATA
1002
{
1000
_OWNERHANDLE=0000000064
1002
}
0
VERTEX
5
101
100
AcDbEntity
8
EL_DEVICE
370
0
100
AcDbVertex
6
ByBlock
100
AcDb3dPolylineVertex
10
2.0000000000
20
-3.0000000000
30
0.0000000000
0
VERTEX
5
102
100
AcDbEntity
8
EL_DEVICE
370
0
100
AcDbVertex
6
ByBlock
100
AcDb3dPolylineVertex
10
-2.0000000000
20
-3.0000000000
30
0.0000000000
0
VERTEX
5
103
100
AcDbEntity
8
EL_DEVICE
370
0
100
AcDbVertex
6
ByBlock
100
AcDb3dPolylineVertex
10
-2.0000000000
20
3.0000000000
30
0.0000000000
0
VERTEX
5
104
100
AcDbEntity
8
EL_DEVICE
370
0
100
AcDbVertex
6
ByBlock
100
AcDb3dPolylineVertex
10
2.0000000000
20
3.0000000000
30
0.0000000000
0
SEQEND
5
105
100
AcDbEntity
8
EL_DEVICE
370
0
6
ByBlock
0
POLYLINE
5
106
100
AcDbEntity
8
EL_DEVICE
100
AcDb3dPolyline
6
ByLayer
66
1
10
0.0000000000
20
0.0000000000
30
0.0000000000
70
8
1001
DSTP_XDATA
1002
{
1000
_OWNERHANDLE=0000000064
1002
}
0
VERTEX
5
107
100
AcDbEntity
8
EL_DEVICE
100
AcDbVertex
6
ByLayer
100
AcDb3dPolylineVertex
10
-2.0000000000
20
0.0000000000
30
0.0000000000
0
VERTEX
5
108
100
AcDbEntity
8
EL_DEVICE
100
AcDbVertex
6
ByLayer
100
AcDb3dPolylineVertex
10
-1.0000000000
20
0.0000000000
30
0.0000000000
0
VERTEX
5
109
100
AcDbEntity
8
EL_DEVICE
100
AcDbVertex
6
ByLayer
100
AcDb3dPolylineVertex
10
-1.0000000000
20
2.0000000000
30
0.0000000000
0
VERTEX
5
10A
100
AcDbEntity
8
EL_DEVICE
100
AcDbVertex
6
ByLayer
100
AcDb3dPolylineVertex
10
1.0000000000
20
2.0000000000
30
0.0000000000
0
VERTEX
5
10B
100
AcDbEntity
8
EL_DEVICE
100
AcDbVertex
6
ByLayer
100
AcDb3dPolylineVertex
10
1.0000000000
20
0.0000000000
30
0.0000000000
0
VERTEX
5
10C
100
AcDbEntity
8
EL_DEVICE
100
AcDbVertex
6
ByLayer
100
AcDb3dPolylineVertex
10
2.0000000000
20
0.0000000000
30
0.0000000000
0
SEQEND
5
10D
100
AcDbEntity
8
EL_DEVICE
6
ByLayer
0
ENDBLK
5
10E
100
AcDbEntity
8
0
100
AcDbBlockEnd
1001
DSTP_XDATA
1002
{
1002
}
0
BLOCK
5
10F
100
AcDbEntity
8
0
100
AcDbBlockBegin
2
DEVICE_SCH_THERMO
70
2
10
0
20
0
30
0
3
DEVICE_SCH_THERMO
1

0
TEXT
5
110
100
AcDbEntity
8
EL_DEVICE_NAME
100
AcDbText
6
ByLayer
10
0.0000000000
20
3.5000000000
30
0.0000000000
11
0.0000000000
21
3.5000000000
31
0.0000000000
40
2.5000000000
50
0.0000000000
41
0.7000000000
51
12.0000000000
72
0
7
R2_5
1
??KK0
100
AcDbText
73
0
1001
DSTP_XDATA
1002
{
1000
_TMPL1=@@[NMO_Name]
1000
_OWNERHANDLE=0000000064
1000
STEDefault=TRUE
1002
}
0
INSERT
5
111
100
AcDbEntity
8
0
100
AcDbBlockReference
6
ByLayer
2
SCH_CONNECTOR_TERMINAL_CC
10
4.0000000000
20
0.0000000000
30
0.0000000000
41
1.0000000000
42
1.0000000000
43
1.0000000000
50
0.0000000000
1001
DSTP_XDATA
1002
{
1000
_OWNERHANDLE=0000000064
1000
USES=System
1000
#0=VariablesContentReplaceFrom|String|SCHTerminal2|
1000
SCHConnectorRadius=1
1000
_HANDLE=000676F7D0
1000
_UPGRADE=1
1002
}
0
LINE
5
112
100
AcDbEntity
8
SYS_METRIC
100
AcDbLine
6
ByLayer
10
3.0000000000
20
0.0000000000
30
0.0000000000
11
5.0000000000
21
0.0000000000
31
0.0000000000
1001
DSTP_XDATA
1002
{
1000
_OWNERHANDLE=000676F7D0
1002
}
0
LINE
5
113
100
AcDbEntity
8
SYS_METRIC
100
AcDbLine
6
ByLayer
10
4.0000000000
20
1.0000000000
30
0.0000000000
11
4.0000000000
21
-1.0000000000
31
0.0000000000
1001
DSTP_XDATA
1002
{
1000
_OWNERHANDLE=000676F7D0
1002
}
0
TEXT
5
114
100
AcDbEntity
8
EL_DEVICE_PIN_NAME
100
AcDbText
6
ByLayer
11
4.0000000000
21
1.0000000000
31
0.0000000000
10
-13.7916666667
20
1.0000000000
30
0.0000000000
40
2.5000000000
50
0.0000000000
41
0.7000000000
51
12.0000000000
72
1
7
R2_5
1
!!ERR(NMO_TerminalName)!!
100
AcDbText
73
0
1001
DSTP_XDATA
1002
{
1000
_TMPL1=@@[NMO_TerminalName]
1000
_OWNERHANDLE=000676F7D0
1000
STEDefault=TRUE
1002
}
0
TEXT
5
115
100
AcDbEntity
8
SYS_METRIC
100
AcDbText
6
ByLayer
11
4.0000000000
21
-1.0000000000
31
0.0000000000
10
-10.5833333333
20
-3.5000000000
30
0.0000000000
40
2.5000000000
50
0.0000000000
41
0.7000000000
51
12.0000000000
72
1
7
R2_5
1
!!ERR(NMO_NetName)!!
100
AcDbText
73
3
1001
DSTP_XDATA
1002
{
1000
_TMPL1=@@[NMO_NetName]
1000
_OWNERHANDLE=000676F7D0
1000
STEDefault=TRUE
1002
}
0
INSERT
5
116
100
AcDbEntity
8
0
100
AcDbBlockReference
6
ByLayer
2
SCH_CONNECTOR_TERMINAL_CC
10
-4.0000000000
20
0.0000000000
30
0.0000000000
41
1.0000000000
42
1.0000000000
43
1.0000000000
50
0.0000000000
1001
DSTP_XDATA
1002
{
1000
_OWNERHANDLE=0000000064
1000
USES=System
1000
#0=VariablesContentReplaceFrom|String|SCHTerminal1|
1000
SCHConnectorRadius=1
1000
_HANDLE=0006771850
1000
_UPGRADE=1
1002
}
0
LINE
5
117
100
AcDbEntity
8
SYS_METRIC
100
AcDbLine
6
ByLayer
10
-5.0000000000
20
0.0000000000
30
0.0000000000
11
-3.0000000000
21
0.0000000000
31
0.0000000000
1001
DSTP_XDATA
1002
{
1000
_OWNERHANDLE=0006771850
1002
}
0
LINE
5
118
100
AcDbEntity
8
SYS_METRIC
100
AcDbLine
6
ByLayer
10
-4.0000000000
20
1.0000000000
30
0.0000000000
11
-4.0000000000
21
-1.0000000000
31
0.0000000000
1001
DSTP_XDATA
1002
{
1000
_OWNERHANDLE=0006771850
1002
}
0
TEXT
5
119
100
AcDbEntity
8
EL_DEVICE_PIN_NAME
100
AcDbText
6
ByLayer
11
-4.0000000000
21
1.0000000000
31
0.0000000000
10
-21.7916666667
20
1.0000000000
30
0.0000000000
40
2.5000000000
50
0.0000000000
41
0.7000000000
51
12.0000000000
72
1
7
R2_5
1
!!ERR(NMO_TerminalName)!!
100
AcDbText
73
0
1001
DSTP_XDATA
1002
{
1000
_TMPL1=@@[NMO_TerminalName]
1000
_OWNERHANDLE=0006771850
1000
STEDefault=TRUE
1002
}
0
TEXT
5
11A
100
AcDbEntity
8
SYS_METRIC
100
AcDbText
6
ByLayer
11
-4.0000000000
21
-1.0000000000
31
0.0000000000
10
-18.5833333333
20
-3.5000000000
30
0.0000000000
40
2.5000000000
50
0.0000000000
41
0.7000000000
51
12.0000000000
72
1
7
R2_5
1
!!ERR(NMO_NetName)!!
100
AcDbText
73
3
1001
DSTP_XDATA
1002
{
1000
_TMPL1=@@[NMO_NetName]
1000
_OWNERHANDLE=0006771850
1000
STEDefault=TRUE
1002
}
0
ENDBLK
5
11B
100
AcDbEntity
8
0
100
AcDbBlockEnd
1001
DSTP_XDATA
1002
{
1002
}
0
BLOCK
5
11C
100
AcDbEntity
8
0
100
AcDbBlockBegin
2
SCH_LAMP
70
2
10
0
20
0
30
0
3
SCH_LAMP
1

0
CIRCLE
5
11D
100
AcDbEntity
8
EL_DEVICE
100
AcDbCircle
6
ByLayer
10
0.0000000000
20
0.0000000000
30
0.0000000000
40
3.0000000000
1001
DSTP_XDATA
1002
{
1000
_OWNERHANDLE=0000000064
1002
}
0
LINE
5
11E
100
AcDbEntity
8
EL_DEVICE
100
AcDbLine
6
ByLayer
10
-2.1213203436
20
2.1213203436
30
0.0000000000
11
2.1213203436
21
-2.1213203436
31
0.0000000000
1001
DSTP_XDATA
1002
{
1000
_OWNERHANDLE=0000000064
1002
}
0
LINE
5
11F
100
AcDbEntity
8
EL_DEVICE
100
AcDbLine
6
ByLayer
10
2.1213203436
20
2.1213203436
30
0.0000000000
11
-2.1213203436
21
-2.1213203436
31
0.0000000000
1001
DSTP_XDATA
1002
{
1000
_OWNERHANDLE=0000000064
1002
}
0
ENDBLK
5
120
100
AcDbEntity
8
0
100
AcDbBlockEnd
1001
DSTP_XDATA
1002
{
1002
}
0
BLOCK
5
121
100
AcDbEntity
8
0
100
AcDbBlockBegin
2
DEVICE_SCH_LAMP
70
2
10
0
20
0
30
0
3
DEVICE_SCH_LAMP
1

0
TEXT
5
122
100
AcDbEntity
8
EL_DEVICE_NAME
100
AcDbText
6
ByLayer
10
0.0000000000
20
3.5000000000
30
0.0000000000
11
0.0000000000
21
3.5000000000
31
0.0000000000
40
2.5000000000
50
0.0000000000
41
0.7000000000
51
12.0000000000
72
0
7
R2_5
1
??HL0
100
AcDbText
73
0
1001
DSTP_XDATA
1002
{
1000
_TMPL1=@@[NMO_Name]
1000
_OWNERHANDLE=0000000064
1000
STEDefault=TRUE
1002
}
0
INSERT
5
123
100
AcDbEntity
8
0
370
0
100
AcDbBlockReference
6
ByBlock
2
SCH_CONNECTOR_TERMINAL
10
3.0000000000
20
0.0000000000
30
0.0000000000
41
1.0000000000
42
1.0000000000
43
1.0000000000
50
0.0000000000
1001
DSTP_XDATA
1002
{
1000
_OWNERHANDLE=0000000064
1000
USES=System
1000
#0=VariablesContentReplaceFrom|String|SCHTerminal2|
1000
SCHConnectorRadius=0
1000
_HANDLE=0006775150
1000
_UPGRADE=1
1002
}
0
LINE
5
124
100
AcDbEntity
8
SYS_METRIC
100
AcDbLine
6
ByLayer
10
2.0000000000
20
0.0000000000
30
0.0000000000
11
4.0000000000
21
0.0000000000
31
0.0000000000
1001
DSTP_XDATA
1002
{
1000
_OWNERHANDLE=0006775150
1002
}
0
LINE
5
125
100
AcDbEntity
8
SYS_METRIC
100
AcDbLine
6
ByLayer
10
3.0000000000
20
1.0000000000
30
0.0000000000
11
3.0000000000
21
-1.0000000000
31
0.0000000000
1001
DSTP_XDATA
1002
{
1000
_OWNERHANDLE=0006775150
1002
}
0
TEXT
5
126
100
AcDbEntity
8
EL_DEVICE_PIN_NAME
100
AcDbText
6
ByLayer
10
3.5000000000
20
1.0000000000
30
0.0000000000
11
3.5000000000
21
1.0000000000
31
0.0000000000
40
2.5000000000
50
0.0000000000
41
0.7000000000
51
12.0000000000
72
0
7
R2_5
1
!!ERR(NMO_TerminalName)!!
100
AcDbText
73
0
1001
DSTP_XDATA
1002
{
1000
_TMPL1=@@[NMO_TerminalName]
1000
_OWNERHANDLE=0006775150
1000
STEDefault=TRUE
1002
}
0
TEXT
5
127
100
AcDbEntity
8
SYS_METRIC
100
AcDbText
6
ByLayer
11
3.5000000000
21
-1.0000000000
31
0.0000000000
10
3.5000000000
20
-3.5000000000
30
0.0000000000
40
2.5000000000
50
0.0000000000
41
0.7000000000
51
12.0000000000
72
0
7
R2_5
1
!!ERR(NMO_NetName)!!
100
AcDbText
73
3
1001
DSTP_XDATA
1002
{
1000
_TMPL1=@@[NMO_NetName]
1000
_OWNERHANDLE=0006775150
1000
STEDefault=TRUE
1002
}
0
INSERT
5
128
100
AcDbEntity
8
0
370
0
100
AcDbBlockReference
6
ByBlock
2
SCH_CONNECTOR_TERMINAL
10
-3.0000000000
20
0.0000000000
30
0.0000000000
41
1.0000000000
42
1.0000000000
43
1.0000000000
50
0.0000000000
1001
DSTP_XDATA
1002
{
1000
_OWNERHANDLE=0000000064
1000
USES=System
1000
#0=VariablesContentReplaceFrom|String|SCHTerminal1|
1000
SCHConnectorRadius=0
1000
_HANDLE=00067771D0
1000
_UPGRADE=1
1002
}
0
LINE
5
129
100
AcDbEntity
8
SYS_METRIC
100
AcDbLine
6
ByLayer
10
-4.0000000000
20
0.0000000000
30
0.0000000000
11
-2.0000000000
21
0.0000000000
31
0.0000000000
1001
DSTP_XDATA
1002
{
1000
_OWNERHANDLE=00067771D0
1002
}
0
LINE
5
12A
100
AcDbEntity
8
SYS_METRIC
100
AcDbLine
6
ByLayer
10
-3.0000000000
20
1.0000000000
30
0.0000000000
11
-3.0000000000
21
-1.0000000000
31
0.0000000000
1001
DSTP_XDATA
1002
{
1000
_OWNERHANDLE=00067771D0
1002
}
0
TEXT
5
12B
100
AcDbEntity
8
EL_DEVICE_PIN_NAME
100
AcDbText
6
ByLayer
11
-3.5000000000
21
1.0000000000
31
0.0000000000
10
-39.0833333333
20
1.0000000000
30
0.0000000000
40
2.5000000000
50
0.0000000000
41
0.7000000000
51
12.0000000000
72
2
7
R2_5
1
!!ERR(NMO_TerminalName)!!
100
AcDbText
73
0
1001
DSTP_XDATA
1002
{
1000
_TMPL1=@@[NMO_TerminalName]
1000
_OWNERHANDLE=00067771D0
1000
STEDefault=TRUE
1002
}
0
TEXT
5
12C
100
AcDbEntity
8
SYS_METRIC
100
AcDbText
6
ByLayer
11
-3.5000000000
21
-1.0000000000
31
0.0000000000
10
-32.6666666667
20
-3.5000000000
30
0.0000000000
40
2.5000000000
50
0.0000000000
41
0.7000000000
51
12.0000000000
72
2
7
R2_5
1
!!ERR(NMO_NetName)!!
100
AcDbText
73
3
1001
DSTP_XDATA
1002
{
1000
_TMPL1=@@[NMO_NetName]
1000
_OWNERHANDLE=00067771D0
1000
STEDefault=TRUE
1002
}
0
ENDBLK
5
12D
100
AcDbEntity
8
0
100
AcDbBlockEnd
1001
DSTP_XDATA
1002
{
1002
}
0
BLOCK
5
12E
100
AcDbEntity
8
0
100
AcDbBlockBegin
2
SCH_CONNECTION_NAME
70
2
10
0
20
0
30
0
3
SCH_CONNECTION_NAME
1

0
LINE
5
12F
100
AcDbEntity
8
SYS_PIN
100
AcDbLine
6
ByLayer
48
100.0000000000
10
-0.3535533906
20
0.3535533906
30
0.0000000000
11
0.3535533906
21
-0.3535533906
31
0.0000000000
1001
DSTP_XDATA
1002
{
1000
_OWNERHANDLE=0000000064
1002
}
0
LINE
5
130
100
AcDbEntity
8
SYS_PIN
100
AcDbLine
6
ByLayer
48
100.0000000000
10
0.3535533906
20
0.3535533906
30
0.0000000000
11
-0.3535533906
21
-0.3535533906
31
0.0000000000
1001
DSTP_XDATA
1002
{
1000
_OWNERHANDLE=0000000064
1002
}
0
LINE
5
131
100
AcDbEntity
8
SYS_PIN
100
AcDbLine
6
ByLayer
48
100.0000000000
10
-0.3535533906
20
0.3535533906
30
0.0000000000
11
0.3535533906
21
-0.3535533906
31
0.0000000000
1001
DSTP_XDATA
1002
{
1000
_OWNERHANDLE=0000000064
1002
}
0
LINE
5
132
100
AcDbEntity
8
SYS_PIN
100
AcDbLine
6
ByLayer
48
100.0000000000
10
0.3535533906
20
0.3535533906
30
0.0000000000
11
-0.3535533906
21
-0.3535533906
31
0.0000000000
1001
DSTP_XDATA
1002
{
1000
_OWNERHANDLE=0000000064
1002
}
0
ENDBLK
5
133
100
AcDbEntity
8
0
100
AcDbBlockEnd
1001
DSTP_XDATA
1002
{
1002
}
0
BLOCK
5
134
100
AcDbEntity
8
0
100
AcDbBlockBegin
2
DEVICE_SCH_CONNECTION_NAME
70
2
10
0
20
0
30
0
3
DEVICE_SCH_CONNECTION_NAME
1

0
LINE
5
135
100
AcDbEntity
8
SYS_METRIC
100
AcDbLine
6
ByLayer
10
-1.0000000000
20
0.0000000000
30
0.0000000000
11
1.0000000000
21
0.0000000000
31
0.0000000000
1001
DSTP_XDATA
1002
{
1000
_OWNERHANDLE=0000000064
1002
}
0
LINE
5
136
100
AcDbEntity
8
SYS_METRIC
100
AcDbLine
6
ByLayer
10
0.0000000000
20
1.0000000000
30
0.0000000000
11
0.0000000000
21
-1.0000000000
31
0.0000000000
1001
DSTP_XDATA
1002
{
1000
_OWNERHANDLE=0000000064
1002
}
0
TEXT
5
137
100
AcDbEntity
8
EL_DEVICE_PIN_NAME
100
AcDbText
6
ByLayer
11
0.0000000000
21
1.0000000000
31
0.0000000000
10
0.0000000000
20
2.0000000000
30
0.0000000000
40
2.5000000000
50
0.0000000000
41
0.7000000000
51
12.0000000000
72
1
7
R2_5
1
??
100
AcDbText
73
0
1001
DSTP_XDATA
1002
{
1000
_TMPL1=@@[NMO_NetName]
1000
_OWNERHANDLE=0000000064
1000
STEExtensionLineStartShift=0
1002
}
0
ENDBLK
5
138
100
AcDbEntity
8
0
100
AcDbBlockEnd
1001
DSTP_XDATA
1002
{
1000
SCHConnectorRadius=0
1000
SCHConnectorType=CTSetter
1002
}
0
BLOCK
5
139
100
AcDbEntity
8
0
100
AcDbBlockBegin
2
SCH_CONNECTOR_TERMINAL2
70
2
10
0
20
0
30
0
3
SCH_CONNECTOR_TERMINAL2
1

0
LINE
5
13A
100
AcDbEntity
8
SYS_PIN
100
AcDbLine
6
ByLayer
48
100.0000000000
10
-0.3535533906
20
0.3535533906
30
0.0000000000
11
0.3535533906
21
-0.3535533906
31
0.0000000000
1001
DSTP_XDATA
1002
{
1000
_OWNERHANDLE=0000000064
1002
}
0
LINE
5
13B
100
AcDbEntity
8
SYS_PIN
100
AcDbLine
6
ByLayer
48
100.0000000000
10
0.3535533906
20
0.3535533906
30
0.0000000000
11
-0.3535533906
21
-0.3535533906
31
0.0000000000
1001
DSTP_XDATA
1002
{
1000
_OWNERHANDLE=0000000064
1002
}
0
LINE
5
13C
100
AcDbEntity
8
SYS_PIN
100
AcDbLine
6
ByLayer
48
100.0000000000
10
-0.3535533906
20
0.3535533906
30
0.0000000000
11
0.3535533906
21
-0.3535533906
31
0.0000000000
1001
DSTP_XDATA
1002
{
1000
_OWNERHANDLE=0000000064
1002
}
0
LINE
5
13D
100
AcDbEntity
8
SYS_PIN
100
AcDbLine
6
ByLayer
48
100.0000000000
10
0.3535533906
20
0.3535533906
30
0.0000000000
11
-0.3535533906
21
-0.3535533906
31
0.0000000000
1001
DSTP_XDATA
1002
{
1000
_OWNERHANDLE=0000000064
1002
}
0
CIRCLE
5
13E
100
AcDbEntity
8
EL_DEVICE
370
0
100
AcDbCircle
6
ByLayer
10
0.0000000000
20
0.0000000000
30
0.0000000000
40
0.5000000000
1001
DSTP_XDATA
1002
{
1000
_OWNERHANDLE=0000000064
1002
}
0
ENDBLK
5
13F
100
AcDbEntity
8
0
100
AcDbBlockEnd
1001
DSTP_XDATA
1002
{
1002
}
0
BLOCK
5
140
100
AcDbEntity
8
0
100
AcDbBlockBegin
2
DEVICE_SCH_CONNECTOR_TERMINAL2
70
2
10
0
20
0
30
0
3
DEVICE_SCH_CONNECTOR_TERMINAL2
1

0
LINE
5
141
100
AcDbEntity
8
SYS_METRIC
100
AcDbLine
6
ByLayer
10
-1.0000000000
20
0.0000000000
30
0.0000000000
11
1.0000000000
21
0.0000000000
31
0.0000000000
1001
DSTP_XDATA
1002
{
1000
_OWNERHANDLE=0000000064
1002
}
0
LINE
5
142
100
AcDbEntity
8
SYS_METRIC
100
AcDbLine
6
ByLayer
10
0.0000000000
20
1.0000000000
30
0.0000000000
11
0.0000000000
21
-1.0000000000
31
0.0000000000
1001
DSTP_XDATA
1002
{
1000
_OWNERHANDLE=0000000064
1002
}
0
TEXT
5
143
100
AcDbEntity
8
EL_DEVICE_PIN_NAME
100
AcDbText
6
ByLayer
11
0.0000000000
21
1.0000000000
31
0.0000000000
10
0.0000000000
20
2.0000000000
30
0.0000000000
40
2.5000000000
50
0.0000000000
41
0.7000000000
51
12.0000000000
72
1
7
R2_5
1
X??:??
100
AcDbText
73
0
1001
DSTP_XDATA
1002
{
1000
_TMPL1=@@[NMO_Name]:@@[NMO_TerminalName]
1000
_OWNERHANDLE=0000000064
1000
STEExtensionLineStartShift=0
1002
}
0
TEXT
5
144
100
AcDbEntity
8
SYS_METRIC
100
AcDbText
6
ByLayer
11
0.0000000000
21
-1.0000000000
31
0.0000000000
10
0.0000000000
20
-2.0000000000
30
0.0000000000
40
2.5000000000
50
0.0000000000
41
0.7000000000
51
12.0000000000
72
1
7
R2_5
1
??
100
AcDbText
73
3
1001
DSTP_XDATA
1002
{
1000
_TMPL1=@@[NMO_NetName]
1000
_OWNERHANDLE=0000000064
1000
STEExtensionLineStartShift=0
1002
}
0
ENDBLK
5
145
100
AcDbEntity
8
0
100
AcDbBlockEnd
1001
DSTP_XDATA
1002
{
1000
SCHConnectorRadius=1
1002
}
0
ENDSEC
0
SECTION
2
ENTITIES
0
ENDSEC
0
SECTION
2
OBJECTS
0
DICTIONARY
5
146
330
3
100
AcDbDictionary
281
1
3
ACAD_GROUP
350
147
0
DICTIONARY
5
147
330
146
100
AcDbDictionary
281
1
0
ENDSEC
0
EOF
