0
SECTION
2
HEADER
9
$ACADVER
1
AC1015
9
$ACADMAINTVER
70
20
9
$DWGCODEPAGE
3
ANSI_1251
9
$INSBASE
10
0.0
20
0.0
30
0.0
9
$EXTMIN
10
140.9759676061104
20
20.78384260612357
30
-4.556249999999999
9
$EXTMAX
10
2239.781280550934
20
2630.436136918981
30
2.025000000000061
9
$LIMMIN
10
0.0
20
0.0
9
$LIMMAX
10
420.0
20
297.0
9
$ORTHOMODE
70
0
9
$REGENMODE
70
1
9
$FILLMODE
70
1
9
$QTEXTMODE
70
0
9
$MIRRTEXT
70
0
9
$LTSCALE
40
0
9
$ATTMODE
70
1
9
$TEXTSIZE
40
2.5
9
$TRACEWID
40
1.0
9
$TEXTSTYLE
7
Standard
9
$CLAYER
8
0
9
$CELTYPE
6
ByBlock
9
$CECOLOR
62
256
9
$CELTSCALE
40
1
9
$DISPSILH
70
0
9
$DIMSCALE
40
1.0
9
$DIMASZ
40
2.5
9
$DIMEXO
40
0.625
9
$DIMDLI
40
3.75
9
$DIMRND
40
0.0
9
$DIMDLE
40
0.0
9
$DIMEXE
40
1.25
9
$DIMTP
40
0.0
9
$DIMTM
40
0.0
9
$DIMTXT
40
2.5
9
$DIMCEN
40
2.5
9
$DIMTSZ
40
0.0
9
$DIMTOL
70
0
9
$DIMLIM
70
0
9
$DIMTIH
70
0
9
$DIMTOH
70
0
9
$DIMSE1
70
0
9
$DIMSE2
70
0
9
$DIMTAD
70
1
9
$DIMZIN
70
8
9
$DIMBLK
1

9
$DIMASO
70
1
9
$DIMSHO
70
1
9
$DIMPOST
1

9
$DIMAPOST
1

9
$DIMALT
70
0
9
$DIMALTD
70
3
9
$DIMALTF
40
0.03937007874016
9
$DIMLFAC
40
1.0
9
$DIMTOFL
70
1
9
$DIMTVP
40
0.0
9
$DIMTIX
70
0
9
$DIMSOXD
70
0
9
$DIMSAH
70
0
9
$DIMBLK1
1

9
$DIMBLK2
1

9
$DIMSTYLE
2
ISO-25
9
$DIMCLRD
70
0
9
$DIMCLRE
70
0
9
$DIMCLRT
70
0
9
$DIMTFAC
40
1.0
9
$DIMGAP
40
0.625
9
$DIMJUST
70
0
9
$DIMSD1
70
0
9
$DIMSD2
70
0
9
$DIMTOLJ
70
0
9
$DIMTZIN
70
8
9
$DIMALTZ
70
0
9
$DIMALTTZ
70
0
9
$DIMUPT
70
0
9
$DIMDEC
70
2
9
$DIMTDEC
70
2
9
$DIMALTU
70
2
9
$DIMALTTD
70
3
9
$DIMTXSTY
7
Standard
9
$DIMAUNIT
70
0
9
$DIMADEC
70
0
9
$DIMALTRND
40
0.0
9
$DIMAZIN
70
0
9
$DIMDSEP
70
44
9
$DIMATFIT
70
3
9
$DIMFRAC
70
0
9
$DIMLDRBLK
1

9
$DIMLUNIT
70
2
9
$DIMLWD
70
-2
9
$DIMLWE
70
-2
9
$DIMTMOVE
70
0
9
$LUNITS
70
2
9
$LUPREC
70
4
9
$SKETCHINC
40
1.0
9
$FILLETRAD
40
0.0
9
$AUNITS
70
0
9
$AUPREC
70
0
9
$MENU
1
.
9
$ELEVATION
40
0.0
9
$PELEVATION
40
0.0
9
$THICKNESS
40
0.0
9
$LIMCHECK
70
0
9
$CHAMFERA
40
0.0
9
$CHAMFERB
40
0.0
9
$CHAMFERC
40
0.0
9
$CHAMFERD
40
0.0
9
$SKPOLY
70
0
9
$TDCREATE
40
2459754.940474538
9
$TDUCREATE
40
2459754.732141204
9
$TDUPDATE
40
2459754.959120370
9
$TDUUPDATE
40
2459754.750787037
9
$TDINDWG
40
0.0095717593
9
$TDUSRTIMER
40
0.0095717593
9
$USRTIMER
70
1
9
$ANGBASE
50
0
9
$ANGDIR
70
0
9
$PDMODE
70
0
9
$PDSIZE
40
0.0
9
$PLINEWID
40
0.0
9
$SPLFRAME
70
0
9
$SPLINETYPE
70
6
9
$SPLINESEGS
70
8
9
$HANDSEED
5
10000005C
9
$SURFTAB1
70
6
9
$SURFTAB2
70
6
9
$SURFTYPE
70
6
9
$SURFU
70
6
9
$SURFV
70
6
9
$UCSBASE
2

9
$UCSNAME
2

9
$UCSORG
10
0.0
20
0.0
30
0.0
9
$UCSXDIR
10
1.0
20
0.0
30
0.0
9
$UCSYDIR
10
0.0
20
1.0
30
0.0
9
$UCSORTHOREF
2

9
$UCSORTHOVIEW
70
0
9
$UCSORGTOP
10
0.0
20
0.0
30
0.0
9
$UCSORGBOTTOM
10
0.0
20
0.0
30
0.0
9
$UCSORGLEFT
10
0.0
20
0.0
30
0.0
9
$UCSORGRIGHT
10
0.0
20
0.0
30
0.0
9
$UCSORGFRONT
10
0.0
20
0.0
30
0.0
9
$UCSORGBACK
10
0.0
20
0.0
30
0.0
9
$PUCSBASE
2

9
$PUCSNAME
2

9
$PUCSORG
10
0.0
20
0.0
30
0.0
9
$PUCSXDIR
10
1.0
20
0.0
30
0.0
9
$PUCSYDIR
10
0.0
20
1.0
30
0.0
9
$PUCSORTHOREF
2

9
$PUCSORTHOVIEW
70
0
9
$PUCSORGTOP
10
0.0
20
0.0
30
0.0
9
$PUCSORGBOTTOM
10
0.0
20
0.0
30
0.0
9
$PUCSORGLEFT
10
0.0
20
0.0
30
0.0
9
$PUCSORGRIGHT
10
0.0
20
0.0
30
0.0
9
$PUCSORGFRONT
10
0.0
20
0.0
30
0.0
9
$PUCSORGBACK
10
0.0
20
0.0
30
0.0
9
$USERI1
70
0
9
$USERI2
70
0
9
$USERI3
70
0
9
$USERI4
70
0
9
$USERI5
70
0
9
$USERR1
40
0.0
9
$USERR2
40
0.0
9
$USERR3
40
0.0
9
$USERR4
40
0.0
9
$USERR5
40
0.0
9
$WORLDVIEW
70
1
9
$SHADEDGE
70
3
9
$SHADEDIF
70
70
9
$TILEMODE
70
1
9
$MAXACTVP
70
64
9
$PINSBASE
10
0.0
20
0.0
30
0.0
9
$PLIMCHECK
70
0
9
$PEXTMIN
10
0.0
20
0.0
30
0.0
9
$PEXTMAX
10
0.0
20
0.0
30
0.0
9
$PLIMMIN
10
0.0
20
0.0
9
$PLIMMAX
10
12.0
20
9.0
9
$UNITMODE
70
0
9
$VISRETAIN
70
1
9
$PLINEGEN
70
0
9
$PSLTSCALE
70
1
9
$TREEDEPTH
70
3020
9
$CMLSTYLE
2
Standard
9
$CMLJUST
70
0
9
$CMLSCALE
40
20.0
9
$PROXYGRAPHICS
70
1
9
$MEASUREMENT
70
1
9
$CELWEIGHT
370
0
9
$ENDCAPS
280
0
9
$JOINSTYLE
280
0
9
$LWDISPLAY
290
0
9
$INSUNITS
70
0
9
$HYPERLINKBASE
1

9
$STYLESHEET
1

9
$XEDIT
290
1
9
$CEPSNTYPE
380
0
9
$PSTYLEMODE
290
1
9
$FINGERPRINTGUID
2
{125D6104-8854-F44D-B0E3-14664475AFC4}
9
$VERSIONGUID
2
{900CD5F9-5E65-C842-8ED3-6860838CE9DD}
9
$EXTNAMES
290
1
9
$PSVPSCALE
40
0.0
9
$OLESTARTUP
290
0
0
ENDSEC
0
SECTION
2
TABLES
0
TABLE
2
VPORT
5
5
330
0
100
AcDbSymbolTable
70
1
0
VPORT
5
6
330
5
100
AcDbSymbolTableRecord
100
AcDbViewportTableRecord
2
*Active
70
0
10
0.0
20
0.0
11
1.0
21
1.0
12
-17.6622372247495
22
-22.0510484903679
13
0
23
0
14
10
24
10
15
10
25
10
16
0
26
0
36
1
17
0
27
0
37
0
40
633.481218381399
41
1.13392857142857
42
50.0
43
0.0
44
0.0
50
0.0
51
0.0
71
0
72
1000
73
1
74
3
75
0
76
0
77
0
78
0
281
0
65
1
110
0.0
120
0.0
130
0.0
111
1.0
121
0.0
131
0.0
112
0.0
122
1.0
132
0.0
79
0
146
0.0
0
ENDTAB
0
TABLE
2
LTYPE
5
7
330
3
100
AcDbSymbolTable
70
1
0
LTYPE
5
B
330
B
100
AcDbSymbolTableRecord
100
AcDbLinetypeTableRecord
2
Continuous
70
0
3
Solid line
72
65
73
0
40
0
0
LTYPE
5
C
330
C
100
AcDbSymbolTableRecord
100
AcDbLinetypeTableRecord
2
ByLayer
70
0
3

72
65
73
0
40
0
0
LTYPE
5
D
330
D
100
AcDbSymbolTableRecord
100
AcDbLinetypeTableRecord
2
ByBlock
70
0
3

72
65
73
0
40
0
0
ENDTAB
0
TABLE
2
LAYER
5
E
330
3
100
AcDbSymbolTable
70
1
0
LAYER
5
11
100
AcDbSymbolTableRecord
100
AcDbLayerTableRecord
2
0
70
0
62
7
6
Continuous
290
1
370
-3
390
10
0
LAYER
5
12
100
AcDbSymbolTableRecord
100
AcDbLayerTableRecord
2
SYS_METRIC
70
0
62
-7
6
Continuous
290
0
370
-3
390
10
0
LAYER
5
13
100
AcDbSymbolTableRecord
100
AcDbLayerTableRecord
2
EL_DEVICE
70
0
62
1
6
Continuous
290
1
370
40
390
10
0
LAYER
5
14
100
AcDbSymbolTableRecord
100
AcDbLayerTableRecord
2
SYS_INSERT_POINTS
70
0
62
8
6
Continuous
290
1
370
-3
390
10
0
LAYER
5
15
100
AcDbSymbolTableRecord
100
AcDbLayerTableRecord
2
EL_DEVICE_NAME
70
0
62
7
6
Continuous
290
1
370
-3
390
10
0
LAYER
5
16
100
AcDbSymbolTableRecord
100
AcDbLayerTableRecord
2
SYS_PIN
70
0
62
7
6
Continuous
290
1
370
-3
390
10
0
LAYER
5
17
100
AcDbSymbolTableRecord
100
AcDbLayerTableRecord
2
EL_DEVICE_PIN_NAME
70
0
62
125
6
Continuous
290
1
370
-3
390
10
0
ENDTAB
0
TABLE
2
STYLE
5
18
330
3
100
AcDbSymbolTable
70
1
0
STYLE
5
1A
330
18
100
AcDbSymbolTableRecord
100
AcDbTextStyleTableRecord
2
Standard
70
0
40
0
41
1
50
0
71
0
42
2.5
3
txt
4

0
STYLE
5
1B
330
18
100
AcDbSymbolTableRecord
100
AcDbTextStyleTableRecord
2
R2_5
70
0
40
2.5
41
0.65
50
12
71
0
42
2.5
3
gewind.shx
4

0
ENDTAB
0
TABLE
2
VIEW
5
1C
330
3
100
AcDbSymbolTable
70
0
0
ENDTAB
0
TABLE
2
UCS
5
1D
330
3
100
AcDbSymbolTable
70
0
0
ENDTAB
0
TABLE
2
APPID
5
1E
330
3
100
AcDbSymbolTable
70
1
0
APPID
5
21
100
AcDbSymbolTableRecord
100
AcDbRegAppTableRecord
2
ACAD
70
0
0
APPID
5
22
100
AcDbSymbolTableRecord
100
AcDbRegAppTableRecord
2
ACAD_PSEXT
70
0
0
APPID
5
23
100
AcDbSymbolTableRecord
100
AcDbRegAppTableRecord
2
AcAecLayerStandard
70
0
0
APPID
5
24
100
AcDbSymbolTableRecord
100
AcDbRegAppTableRecord
2
DSTP_XDATA
70
0
0
APPID
5
25
100
AcDbSymbolTableRecord
100
AcDbRegAppTableRecord
2
ACAD_DSTYLE_DIM_LINETYPE
70
0
0
APPID
5
26
100
AcDbSymbolTableRecord
100
AcDbRegAppTableRecord
2
ACAD_DSTYLE_DIM_EXT1_LINETYPE
70
0
0
APPID
5
27
100
AcDbSymbolTableRecord
100
AcDbRegAppTableRecord
2
ACAD_DSTYLE_DIM_EXT2_LINETYPE
70
0
0
ENDTAB
0
TABLE
2
DIMSTYLE
5
28
330
3
100
AcDbSymbolTable
70
1
100
AcDbDimStyleTable
71
0
0
DIMSTYLE
105
2A
330
28
100
AcDbSymbolTableRecord
100
AcDbDimStyleTableRecord
2
ISO-25
3

70
0
40
0
44
1.25
42
0.625
46
0
41
2.5
173
0
140
2.5
141
2.5
73
0
74
0
147
0.625
77
1
144
1
271
2
45
0
277
2
278
44
279
0
371
-2
372
-2
176
0
177
0
178
0
340
1A
0
ENDTAB
0
TABLE
2
BLOCK_RECORD
5
2B
330
3
100
AcDbSymbolTable
70
1
0
BLOCK_RECORD
5
2C
330
2B
100
AcDbSymbolTableRecord
100
AcDbBlockTableRecord
2
*Model_Space
340
2D
0
BLOCK_RECORD
5
2E
330
2B
100
AcDbSymbolTableRecord
100
AcDbBlockTableRecord
2
*Paper_Space
340
2F
0
BLOCK_RECORD
5
30
100
AcDbSymbolTableRecord
100
AcDbBlockTableRecord
2
SCH_CONTACT_NOC_CC
0
BLOCK_RECORD
5
31
100
AcDbSymbolTableRecord
100
AcDbBlockTableRecord
2
DEVICE_SCH_CONTACT_NOC_CC
0
BLOCK_RECORD
5
32
100
AcDbSymbolTableRecord
100
AcDbBlockTableRecord
2
SCH_CONNECTOR_TERMINAL_CC
0
BLOCK_RECORD
5
33
100
AcDbSymbolTableRecord
100
AcDbBlockTableRecord
2
SCH_CONNECTOR_TERMINAL_CC
0
BLOCK_RECORD
5
34
100
AcDbSymbolTableRecord
100
AcDbBlockTableRecord
2
DEVICE_SCH_CONNECTOR_TERMINAL_CC
0
ENDTAB
0
ENDSEC
0
SECTION
2
BLOCKS
0
BLOCK
5
35
330
2C
100
AcDbEntity
8
0
100
AcDbBlockBegin
2
*Model_Space
70
0
10
0.0
20
0.0
30
0.0
3
*Model_Space
1

0
ENDBLK
5
36
330
2C
100
AcDbEntity
8
0
100
AcDbBlockEnd
0
BLOCK
5
37
330
2E
100
AcDbEntity
67
1
8
0
100
AcDbBlockBegin
2
*Paper_Space
70
0
10
0.0
20
0.0
30
0.0
3
*Paper_Space
1

0
ENDBLK
5
38
330
2E
100
AcDbEntity
67
1
8
0
100
AcDbBlockEnd
0
BLOCK
5
39
100
AcDbEntity
8
0
100
AcDbBlockBegin
2
SCH_CONTACT_NOC_CC
70
2
10
0
20
0
30
0
3
SCH_CONTACT_NOC_CC
1

0
LINE
5
3A
100
AcDbEntity
8
EL_DEVICE
100
AcDbLine
6
ByLayer
10
-3.0000000000
20
0.0000000000
30
0.0000000000
11
3.0000000000
21
3.5000000000
31
0.0000000000
1001
DSTP_XDATA
1002
{
1000
_OWNERHANDLE=0000000064
1002
}
0
LINE
5
3B
100
AcDbEntity
8
EL_DEVICE
100
AcDbLine
6
ByLayer
10
-4.5000000000
20
0.0000000000
30
0.0000000000
11
-3.0000000000
21
0.0000000000
31
0.0000000000
1001
DSTP_XDATA
1002
{
1000
_OWNERHANDLE=0000000064
1002
}
0
LINE
5
3C
100
AcDbEntity
8
EL_DEVICE
100
AcDbLine
6
ByLayer
10
4.5000000000
20
0.0000000000
30
0.0000000000
11
3.0000000000
21
0.0000000000
31
0.0000000000
1001
DSTP_XDATA
1002
{
1000
_OWNERHANDLE=0000000064
1002
}
0
ENDBLK
5
3D
100
AcDbEntity
8
0
100
AcDbBlockEnd
0
BLOCK
5
3E
100
AcDbEntity
8
0
100
AcDbBlockBegin
2
DEVICE_SCH_CONTACT_NOC_CC
70
2
10
0
20
0
30
0
3
DEVICE_SCH_CONTACT_NOC_CC
1

0
LINE
5
3F
100
AcDbEntity
8
SYS_INSERT_POINTS
100
AcDbLine
6
ByLayer
10
-1.0000000000
20
0.0000000000
30
0.0000000000
11
1.0000000000
21
0.0000000000
31
0.0000000000
1001
DSTP_XDATA
1002
{
1000
_OWNERHANDLE=0000000064
1002
}
0
LINE
5
40
100
AcDbEntity
8
SYS_INSERT_POINTS
100
AcDbLine
6
ByLayer
10
0.0000000000
20
1.0000000000
30
0.0000000000
11
0.0000000000
21
-1.0000000000
31
0.0000000000
1001
DSTP_XDATA
1002
{
1000
_OWNERHANDLE=0000000064
1002
}
0
TEXT
5
41
100
AcDbEntity
8
EL_DEVICE_NAME
100
AcDbText
6
ByLayer
11
0.0000000000
21
3.5000000000
31
0.0000000000
10
0.0000000000
20
3.5000000000
30
0.0000000000
40
2.5000000000
50
0.0000000000
41
0.7000000000
51
12.0000000000
72
1
7
R2_5
1
!!ERR(NMO_Name)!!
100
AcDbText
73
0
1001
DSTP_XDATA
1002
{
1000
_TMPL1=@@[NMO_Name]
1000
_OWNERHANDLE=0000000064
1000
STEDefault=TRUE
1002
}
0
INSERT
5
42
100
AcDbEntity
8
0
100
AcDbBlockReference
6
ByLayer
2
SCH_CONNECTOR_TERMINAL_CC
10
-5.0000000000
20
0.0000000000
30
0.0000000000
41
1.0000000000
42
1.0000000000
43
1.0000000000
50
0.0000000000
1001
DSTP_XDATA
1002
{
1000
_OWNERHANDLE=0000000064
1000
USES=System
1000
#0=num|Integer|1|
1000
NCEConnectorRadius=1
1000
_HANDLE=000AB3AA70
1000
_UPGRADE=1
1002
}
0
LINE
5
43
100
AcDbEntity
8
SYS_METRIC
100
AcDbLine
6
ByLayer
10
-6.0000000000
20
0.0000000000
30
0.0000000000
11
-4.0000000000
21
0.0000000000
31
0.0000000000
1001
DSTP_XDATA
1002
{
1000
_OWNERHANDLE=000AB3AA70
1002
}
0
LINE
5
44
100
AcDbEntity
8
SYS_METRIC
100
AcDbLine
6
ByLayer
10
-5.0000000000
20
1.0000000000
30
0.0000000000
11
-5.0000000000
21
-1.0000000000
31
0.0000000000
1001
DSTP_XDATA
1002
{
1000
_OWNERHANDLE=000AB3AA70
1002
}
0
TEXT
5
45
100
AcDbEntity
8
EL_DEVICE_PIN_NAME
100
AcDbText
6
ByLayer
11
-5.0000000000
21
1.0000000000
31
0.0000000000
10
-6.4583333333
20
1.0000000000
30
0.0000000000
40
2.5000000000
50
0.0000000000
41
0.7000000000
51
12.0000000000
72
1
7
R2_5
1
??
100
AcDbText
73
0
1001
DSTP_XDATA
1002
{
1000
_OWNERHANDLE=000AB3AA70
1000
STEDefault=TRUE
1002
}
0
INSERT
5
46
100
AcDbEntity
8
0
100
AcDbBlockReference
6
ByLayer
2
SCH_CONNECTOR_TERMINAL_CC
10
5.0000000000
20
0.0000000000
30
0.0000000000
41
1.0000000000
42
1.0000000000
43
1.0000000000
50
0.0000000000
1001
DSTP_XDATA
1002
{
1000
_OWNERHANDLE=0000000064
1000
NCEConnectorRadius=1
1000
_HANDLE=000FA839D0
1000
_UPGRADE=1
1002
}
0
LINE
5
47
100
AcDbEntity
8
SYS_METRIC
100
AcDbLine
6
ByLayer
10
4.0000000000
20
0.0000000000
30
0.0000000000
11
6.0000000000
21
0.0000000000
31
0.0000000000
1001
DSTP_XDATA
1002
{
1000
_OWNERHANDLE=000FA839D0
1002
}
0
LINE
5
48
100
AcDbEntity
8
SYS_METRIC
100
AcDbLine
6
ByLayer
10
5.0000000000
20
1.0000000000
30
0.0000000000
11
5.0000000000
21
-1.0000000000
31
0.0000000000
1001
DSTP_XDATA
1002
{
1000
_OWNERHANDLE=000FA839D0
1002
}
0
TEXT
5
49
100
AcDbEntity
8
EL_DEVICE_PIN_NAME
100
AcDbText
6
ByLayer
11
5.0000000000
21
1.0000000000
31
0.0000000000
10
3.5416666667
20
1.0000000000
30
0.0000000000
40
2.5000000000
50
0.0000000000
41
0.7000000000
51
12.0000000000
72
1
7
R2_5
1
??
100
AcDbText
73
0
1001
DSTP_XDATA
1002
{
1000
_OWNERHANDLE=000FA839D0
1000
STEDefault=TRUE
1002
}
0
ENDBLK
5
4A
100
AcDbEntity
8
0
100
AcDbBlockEnd
0
BLOCK
5
4B
100
AcDbEntity
8
0
100
AcDbBlockBegin
2
SCH_CONNECTOR_TERMINAL_CC
70
2
10
0
20
0
30
0
3
SCH_CONNECTOR_TERMINAL_CC
1

0
LINE
5
4C
100
AcDbEntity
8
SYS_PIN
100
AcDbLine
6
ByLayer
48
100.0000000000
10
-0.3535533906
20
0.3535533906
30
0.0000000000
11
0.3535533906
21
-0.3535533906
31
0.0000000000
1001
DSTP_XDATA
1002
{
1000
_OWNERHANDLE=0000000064
1002
}
0
LINE
5
4D
100
AcDbEntity
8
SYS_PIN
100
AcDbLine
6
ByLayer
48
100.0000000000
10
0.3535533906
20
0.3535533906
30
0.0000000000
11
-0.3535533906
21
-0.3535533906
31
0.0000000000
1001
DSTP_XDATA
1002
{
1000
_OWNERHANDLE=0000000064
1002
}
0
CIRCLE
5
4E
100
AcDbEntity
8
EL_DEVICE
100
AcDbCircle
6
ByLayer
10
0.0000000000
20
0.0000000000
30
0.0000000000
40
0.5000000000
1001
DSTP_XDATA
1002
{
1000
_OWNERHANDLE=0000000064
1002
}
0
ENDBLK
5
4F
100
AcDbEntity
8
0
100
AcDbBlockEnd
0
BLOCK
5
50
100
AcDbEntity
8
0
100
AcDbBlockBegin
2
SCH_CONNECTOR_TERMINAL_CC
70
2
10
0
20
0
30
0
3
SCH_CONNECTOR_TERMINAL_CC
1

0
LINE
5
51
100
AcDbEntity
8
SYS_PIN
100
AcDbLine
6
ByLayer
48
100.0000000000
10
-0.3535533906
20
0.3535533906
30
0.0000000000
11
0.3535533906
21
-0.3535533906
31
0.0000000000
1001
DSTP_XDATA
1002
{
1000
_OWNERHANDLE=0000000064
1002
}
0
LINE
5
52
100
AcDbEntity
8
SYS_PIN
100
AcDbLine
6
ByLayer
48
100.0000000000
10
0.3535533906
20
0.3535533906
30
0.0000000000
11
-0.3535533906
21
-0.3535533906
31
0.0000000000
1001
DSTP_XDATA
1002
{
1000
_OWNERHANDLE=0000000064
1002
}
0
CIRCLE
5
53
100
AcDbEntity
8
EL_DEVICE
100
AcDbCircle
6
ByLayer
10
0.0000000000
20
0.0000000000
30
0.0000000000
40
0.5000000000
1001
DSTP_XDATA
1002
{
1000
_OWNERHANDLE=0000000064
1002
}
0
ENDBLK
5
54
100
AcDbEntity
8
0
100
AcDbBlockEnd
0
BLOCK
5
55
100
AcDbEntity
8
0
100
AcDbBlockBegin
2
DEVICE_SCH_CONNECTOR_TERMINAL_CC
70
2
10
0
20
0
30
0
3
DEVICE_SCH_CONNECTOR_TERMINAL_CC
1

0
LINE
5
56
100
AcDbEntity
8
SYS_METRIC
100
AcDbLine
6
ByLayer
10
-1.0000000000
20
0.0000000000
30
0.0000000000
11
1.0000000000
21
0.0000000000
31
0.0000000000
1001
DSTP_XDATA
1002
{
1000
_OWNERHANDLE=0000000064
1002
}
0
LINE
5
57
100
AcDbEntity
8
SYS_METRIC
100
AcDbLine
6
ByLayer
10
0.0000000000
20
1.0000000000
30
0.0000000000
11
0.0000000000
21
-1.0000000000
31
0.0000000000
1001
DSTP_XDATA
1002
{
1000
_OWNERHANDLE=0000000064
1002
}
0
TEXT
5
58
100
AcDbEntity
8
EL_DEVICE_PIN_NAME
100
AcDbText
6
ByLayer
11
0.0000000000
21
1.0000000000
31
0.0000000000
10
-1.4583333333
20
1.0000000000
30
0.0000000000
40
2.5000000000
50
0.0000000000
41
0.7000000000
51
12.0000000000
72
1
7
R2_5
1
??
100
AcDbText
73
0
1001
DSTP_XDATA
1002
{
1000
_OWNERHANDLE=0000000064
1002
}
0
ENDBLK
5
59
100
AcDbEntity
8
0
100
AcDbBlockEnd
0
ENDSEC
0
SECTION
2
ENTITIES
0
ENDSEC
0
SECTION
2
OBJECTS
0
DICTIONARY
5
5A
330
3
100
AcDbDictionary
281
1
3
ACAD_GROUP
350
5B
0
DICTIONARY
5
5B
330
5A
100
AcDbDictionary
281
1
0
ENDSEC
0
EOF
