0
SECTION
2
HEADER
9
$ACADVER
1
AC1015
9
$ACADMAINTVER
70
20
9
$DWGCODEPAGE
3
ANSI_1251
9
$INSBASE
10
0.0
20
0.0
30
0.0
9
$EXTMIN
10
1.000000000000000E+20
20
1.000000000000000E+20
30
1.000000000000000E+20
9
$EXTMAX
10
-1.000000000000000E+20
20
-1.000000000000000E+20
30
-1.000000000000000E+20
9
$LIMMIN
10
0.0
20
0.0
9
$LIMMAX
10
420.0
20
297.0
9
$ORTHOMODE
70
0
9
$REGENMODE
70
1
9
$FILLMODE
70
1
9
$QTEXTMODE
70
0
9
$MIRRTEXT
70
0
9
$LTSCALE
40
1
9
$ATTMODE
70
1
9
$TEXTSIZE
40
2.5
9
$TRACEWID
40
1.0
9
$TEXTSTYLE
7
Standard
9
$CLAYER
8
0
9
$CELTYPE
6
ByBlock
9
$CECOLOR
62
256
9
$CELTSCALE
40
1
9
$DISPSILH
70
0
9
$DIMSCALE
40
1.0
9
$DIMASZ
40
0.18
9
$DIMEXO
40
0.0625
9
$DIMDLI
40
0.38
9
$DIMRND
40
0.0
9
$DIMDLE
40
0.0
9
$DIMEXE
40
0.18
9
$DIMTP
40
0.0
9
$DIMTM
40
0.0
9
$DIMTXT
40
0.18
9
$DIMCEN
40
0.09
9
$DIMTSZ
40
0.0
9
$DIMTOL
70
0
9
$DIMLIM
70
0
9
$DIMTIH
70
1
9
$DIMTOH
70
1
9
$DIMSE1
70
0
9
$DIMSE2
70
0
9
$DIMTAD
70
0
9
$DIMZIN
70
0
9
$DIMBLK
1

9
$DIMASO
70
1
9
$DIMSHO
70
1
9
$DIMPOST
1

9
$DIMAPOST
1

9
$DIMALT
70
0
9
$DIMALTD
70
2
9
$DIMALTF
40
25.4
9
$DIMLFAC
40
1.0
9
$DIMTOFL
70
0
9
$DIMTVP
40
0.0
9
$DIMTIX
70
0
9
$DIMSOXD
70
0
9
$DIMSAH
70
0
9
$DIMBLK1
1

9
$DIMBLK2
1

9
$DIMSTYLE
2
ISO-25
9
$DIMCLRD
70
0
9
$DIMCLRE
70
0
9
$DIMCLRT
70
0
9
$DIMTFAC
40
1.0
9
$DIMGAP
40
0.09
9
$DIMJUST
70
0
9
$DIMSD1
70
0
9
$DIMSD2
70
0
9
$DIMTOLJ
70
1
9
$DIMTZIN
70
0
9
$DIMALTZ
70
0
9
$DIMALTTZ
70
0
9
$DIMUPT
70
0
9
$DIMDEC
70
4
9
$DIMTDEC
70
4
9
$DIMALTU
70
2
9
$DIMALTTD
70
2
9
$DIMTXSTY
7
Standard
9
$DIMAUNIT
70
0
9
$DIMADEC
70
0
9
$DIMALTRND
40
0.0
9
$DIMAZIN
70
0
9
$DIMDSEP
70
46
9
$DIMATFIT
70
3
9
$DIMFRAC
70
0
9
$DIMLDRBLK
1

9
$DIMLUNIT
70
2
9
$DIMLWD
70
-2
9
$DIMLWE
70
-2
9
$DIMTMOVE
70
0
9
$LUNITS
70
2
9
$LUPREC
70
4
9
$SKETCHINC
40
1.0
9
$FILLETRAD
40
0.0
9
$AUNITS
70
0
9
$AUPREC
70
0
9
$MENU
1
.
9
$ELEVATION
40
0.0
9
$PELEVATION
40
0.0
9
$THICKNESS
40
0.0
9
$LIMCHECK
70
0
9
$CHAMFERA
40
0.0
9
$CHAMFERB
40
0.0
9
$CHAMFERC
40
0.0
9
$CHAMFERD
40
0.0
9
$SKPOLY
70
0
9
$TDCREATE
40
2455008.558453229
9
$TDUCREATE
40
2455008.308453229
9
$TDUPDATE
40
2455694.624051458
9
$TDUUPDATE
40
2455694.374051458
9
$TDINDWG
40
0.0121107986
9
$TDUSRTIMER
40
0.0121104398
9
$USRTIMER
70
1
9
$ANGBASE
50
0
9
$ANGDIR
70
0
9
$PDMODE
70
0
9
$PDSIZE
40
0.0
9
$PLINEWID
40
0.0
9
$SPLFRAME
70
0
9
$SPLINETYPE
70
6
9
$SPLINESEGS
70
8
9
$HANDSEED
5
100000367
9
$SURFTAB1
70
6
9
$SURFTAB2
70
6
9
$SURFTYPE
70
6
9
$SURFU
70
6
9
$SURFV
70
6
9
$UCSBASE
2

9
$UCSNAME
2

9
$UCSORG
10
0.0
20
0.0
30
0.0
9
$UCSXDIR
10
1.0
20
0.0
30
0.0
9
$UCSYDIR
10
0.0
20
1.0
30
0.0
9
$UCSORTHOREF
2

9
$UCSORTHOVIEW
70
0
9
$UCSORGTOP
10
0.0
20
0.0
30
0.0
9
$UCSORGBOTTOM
10
0.0
20
0.0
30
0.0
9
$UCSORGLEFT
10
0.0
20
0.0
30
0.0
9
$UCSORGRIGHT
10
0.0
20
0.0
30
0.0
9
$UCSORGFRONT
10
0.0
20
0.0
30
0.0
9
$UCSORGBACK
10
0.0
20
0.0
30
0.0
9
$PUCSBASE
2

9
$PUCSNAME
2

9
$PUCSORG
10
0.0
20
0.0
30
0.0
9
$PUCSXDIR
10
1.0
20
0.0
30
0.0
9
$PUCSYDIR
10
0.0
20
1.0
30
0.0
9
$PUCSORTHOREF
2

9
$PUCSORTHOVIEW
70
0
9
$PUCSORGTOP
10
0.0
20
0.0
30
0.0
9
$PUCSORGBOTTOM
10
0.0
20
0.0
30
0.0
9
$PUCSORGLEFT
10
0.0
20
0.0
30
0.0
9
$PUCSORGRIGHT
10
0.0
20
0.0
30
0.0
9
$PUCSORGFRONT
10
0.0
20
0.0
30
0.0
9
$PUCSORGBACK
10
0.0
20
0.0
30
0.0
9
$USERI1
70
0
9
$USERI2
70
0
9
$USERI3
70
0
9
$USERI4
70
0
9
$USERI5
70
0
9
$USERR1
40
0.0
9
$USERR2
40
0.0
9
$USERR3
40
0.0
9
$USERR4
40
0.0
9
$USERR5
40
0.0
9
$WORLDVIEW
70
1
9
$SHADEDGE
70
3
9
$SHADEDIF
70
70
9
$TILEMODE
70
1
9
$MAXACTVP
70
64
9
$PINSBASE
10
0.0
20
0.0
30
0.0
9
$PLIMCHECK
70
0
9
$PEXTMIN
10
0.0
20
0.0
30
0.0
9
$PEXTMAX
10
0.0
20
0.0
30
0.0
9
$PLIMMIN
10
0.0
20
0.0
9
$PLIMMAX
10
12.0
20
9.0
9
$UNITMODE
70
0
9
$VISRETAIN
70
1
9
$PLINEGEN
70
0
9
$PSLTSCALE
70
1
9
$TREEDEPTH
70
3020
9
$CMLSTYLE
2
Standard
9
$CMLJUST
70
0
9
$CMLSCALE
40
20.0
9
$PROXYGRAPHICS
70
1
9
$MEASUREMENT
70
1
9
$CELWEIGHT
370
0
9
$ENDCAPS
280
0
9
$JOINSTYLE
280
0
9
$LWDISPLAY
290
0
9
$INSUNITS
70
0
9
$HYPERLINKBASE
1

9
$STYLESHEET
1

9
$XEDIT
290
1
9
$CEPSNTYPE
380
0
9
$PSTYLEMODE
290
1
9
$FINGERPRINTGUID
2
{83B934B2-5622-42D0-9691-648EBDBEDF3A}
9
$VERSIONGUID
2
{687BA470-A50B-4F07-854F-729D023A6E33}
9
$EXTNAMES
290
1
9
$PSVPSCALE
40
0.0
9
$OLESTARTUP
290
0
0
ENDSEC
0
SECTION
2
CLASSES
0
CLASS
1
ACDBDICTIONARYWDFLT
2
AcDbDictionaryWithDefault
3
ObjectDBX Classes
90
0
280
0
281
0
0
CLASS
1
ACDBPLACEHOLDER
2
AcDbPlaceHolder
3
ObjectDBX Classes
90
0
280
0
281
0
0
CLASS
1
LAYOUT
2
AcDbLayout
3
ObjectDBX Classes
90
0
280
0
281
0
0
CLASS
1
DICTIONARYVAR
2
AcDbDictionaryVar
3
ObjectDBX Classes
90
0
280
0
281
0
0
CLASS
1
TABLESTYLE
2
AcDbTableStyle
3
ObjectDBX Classes
90
2047
280
0
281
0
0
ENDSEC
0
SECTION
2
TABLES
0
TABLE
2
VPORT
5
5
330
0
100
AcDbSymbolTable
70
1
0
VPORT
5
6
330
5
100
AcDbSymbolTableRecord
100
AcDbViewportTableRecord
2
*Active
70
0
10
0.0
20
0.0
11
1.0
21
1.0
12
156.967190179036
22
-186.47946486471
13
0
23
0
14
0.5
24
0.5
15
1
25
1
16
0
26
0
36
1
17
0
27
0
37
0
40
85.5755209432838
41
1.05753739930955
42
50.0
43
0.0
44
0.0
50
0.0
51
0.0
71
0
72
1000
73
1
74
3
75
1
76
1
77
0
78
0
281
0
65
1
110
0.0
120
0.0
130
0.0
111
1.0
121
0.0
131
0.0
112
0.0
122
1.0
132
0.0
79
0
146
0.0
0
ENDTAB
0
TABLE
2
LTYPE
5
7
330
3
100
AcDbSymbolTable
70
1
0
LTYPE
5
B
330
B
100
AcDbSymbolTableRecord
100
AcDbLinetypeTableRecord
2
Continuous
70
0
3
Solid line
72
65
73
0
40
0
0
LTYPE
5
C
330
C
100
AcDbSymbolTableRecord
100
AcDbLinetypeTableRecord
2
ByLayer
70
0
3

72
65
73
0
40
0
0
LTYPE
5
D
330
D
100
AcDbSymbolTableRecord
100
AcDbLinetypeTableRecord
2
ByBlock
70
0
3

72
65
73
0
40
0
0
LTYPE
5
E
330
E
100
AcDbSymbolTableRecord
100
AcDbLinetypeTableRecord
2
штриховая
70
0
3
Штриховая __ __ __ __ __ __ __ __ __ __ __ __ __ _
72
65
73
2
40
0.75
49
0.5
74
0
49
-0.25
74
0
0
LTYPE
5
F
330
F
100
AcDbSymbolTableRecord
100
AcDbLinetypeTableRecord
2
осевая
70
0
3
Осевая ____ _ ____ _ ____ _ ____ _ ____ _ ____
72
65
73
4
40
2
49
1.25
74
0
49
-0.25
74
0
49
0.25
74
0
49
-0.25
74
0
0
LTYPE
5
10
330
10
100
AcDbSymbolTableRecord
100
AcDbLinetypeTableRecord
2
штриховаяX2
70
0
3
Штриховая (2x) ____ ____ ____ ____ ____ ___
72
65
73
2
40
1.5
49
1
74
0
49
-0.5
74
0
0
LTYPE
5
11
330
11
100
AcDbSymbolTableRecord
100
AcDbLinetypeTableRecord
2
осеваяX2
70
0
3
Осевая (2x) ________ __ ________ __ _____
72
65
73
4
40
4
49
2.5
74
0
49
-0.5
74
0
49
0.5
74
0
49
-0.5
74
0
0
ENDTAB
0
TABLE
2
LAYER
5
12
102
{ACAD_XDICTIONARY
360
13
102
}
330
3
100
AcDbSymbolTable
70
1
0
LAYER
5
16
100
AcDbSymbolTableRecord
100
AcDbLayerTableRecord
2
0
70
0
62
7
6
Continuous
290
1
370
9
390
15
0
LAYER
5
17
100
AcDbSymbolTableRecord
100
AcDbLayerTableRecord
2
SYS_METRIC
70
0
62
-7
6
Continuous
290
0
370
9
390
15
0
LAYER
5
18
100
AcDbSymbolTableRecord
100
AcDbLayerTableRecord
2
FORMAT
70
0
62
134
6
Continuous
290
1
370
9
390
15
0
LAYER
5
19
100
AcDbSymbolTableRecord
100
AcDbLayerTableRecord
2
TABLE
70
0
62
7
6
Continuous
290
1
370
25
390
15
0
LAYER
5
1A
100
AcDbSymbolTableRecord
100
AcDbLayerTableRecord
2
EL_DEVICE
70
0
62
1
6
Continuous
290
1
370
30
390
15
0
LAYER
5
1B
100
AcDbSymbolTableRecord
100
AcDbLayerTableRecord
2
SYS_PIN
70
0
62
7
6
Continuous
290
0
370
9
390
15
0
LAYER
5
1C
100
AcDbSymbolTableRecord
100
AcDbLayerTableRecord
2
SYS_DEVICE_BORDER
70
0
62
-7
6
Continuous
290
0
370
9
390
15
0
LAYER
5
1D
100
AcDbSymbolTableRecord
100
AcDbLayerTableRecord
2
TEXT
70
0
62
4
6
Continuous
290
1
370
9
390
15
0
LAYER
5
1E
100
AcDbSymbolTableRecord
100
AcDbLayerTableRecord
2
EL_DEVICE_NAME
70
0
62
7
6
Continuous
290
1
370
9
390
15
0
LAYER
5
1F
100
AcDbSymbolTableRecord
100
AcDbLayerTableRecord
2
EL_KABLE
70
0
62
9
6
Continuous
290
0
370
9
390
15
0
LAYER
5
20
100
AcDbSymbolTableRecord
100
AcDbLayerTableRecord
2
SYS_SL_1
70
0
62
2
6
Continuous
290
1
370
30
390
15
0
LAYER
5
21
100
AcDbSymbolTableRecord
100
AcDbLayerTableRecord
2
SYS_SL_2
70
0
62
1
6
штриховаяX2
290
1
370
30
390
15
0
LAYER
5
22
100
AcDbSymbolTableRecord
100
AcDbLayerTableRecord
2
SYS_SL_3
70
0
62
3
6
Continuous
290
1
370
30
390
15
0
LAYER
5
23
100
AcDbSymbolTableRecord
100
AcDbLayerTableRecord
2
SYS_DEVICE_TYPE
70
0
62
3
6
Continuous
290
0
370
9
390
15
0
LAYER
5
24
100
AcDbSymbolTableRecord
100
AcDbLayerTableRecord
2
EL_HOLES
70
0
62
3
6
Continuous
290
1
370
9
390
15
0
LAYER
5
25
100
AcDbSymbolTableRecord
100
AcDbLayerTableRecord
2
EL_TRAY
70
0
62
1
6
Continuous
290
1
370
30
390
15
0
LAYER
5
26
100
AcDbSymbolTableRecord
100
AcDbLayerTableRecord
2
EL_GROUND
70
0
62
3
6
осеваяX2
290
1
370
30
390
15
0
ENDTAB
0
TABLE
2
STYLE
5
27
330
3
100
AcDbSymbolTable
70
2
0
STYLE
5
29
330
27
100
AcDbSymbolTableRecord
100
AcDbTextStyleTableRecord
2
Standard
70
0
40
0
41
1
50
0
71
0
42
2.5
3
isocpeur.ttf
4

1001
ACAD
1000
ISOCPEUR
0
STYLE
5
2A
330
27
100
AcDbSymbolTableRecord
100
AcDbTextStyleTableRecord
2
R2_5
70
0
40
2.5
41
0.65
50
12
71
0
42
2.5
3
isocpeur.ttf
4

0
STYLE
5
2B
330
27
100
AcDbSymbolTableRecord
100
AcDbTextStyleTableRecord
2
MtXpl_ISOCPEUR
70
0
40
0
41
1
50
0
71
0
42
2.5
3
isocpeur.ttf
4

1001
ACAD
1000
ISOCPEUR
0
ENDTAB
0
TABLE
2
VIEW
5
2C
330
3
100
AcDbSymbolTable
70
0
0
ENDTAB
0
TABLE
2
UCS
5
2D
330
3
100
AcDbSymbolTable
70
0
0
ENDTAB
0
TABLE
2
APPID
5
2E
330
3
100
AcDbSymbolTable
70
11
0
APPID
5
3A
100
AcDbSymbolTableRecord
100
AcDbRegAppTableRecord
2
ACAD
70
0
0
APPID
5
3B
100
AcDbSymbolTableRecord
100
AcDbRegAppTableRecord
2
ACAD_PSEXT
70
0
0
APPID
5
3C
100
AcDbSymbolTableRecord
100
AcDbRegAppTableRecord
2
AcAecLayerStandard
70
0
0
APPID
5
3D
100
AcDbSymbolTableRecord
100
AcDbRegAppTableRecord
2
DSTP_XDATA
70
0
0
APPID
5
3E
100
AcDbSymbolTableRecord
100
AcDbRegAppTableRecord
2
ACAD_DSTYLE_DIM_LINETYPE
70
0
0
APPID
5
3F
100
AcDbSymbolTableRecord
100
AcDbRegAppTableRecord
2
ACAD_DSTYLE_DIM_EXT1_LINETYPE
70
0
0
APPID
5
40
100
AcDbSymbolTableRecord
100
AcDbRegAppTableRecord
2
ACAD_DSTYLE_DIM_EXT2_LINETYPE
70
0
0
ENDTAB
0
TABLE
2
DIMSTYLE
5
41
330
3
100
AcDbSymbolTable
70
2
100
AcDbDimStyleTable
71
1
0
DIMSTYLE
105
43
330
41
100
AcDbSymbolTableRecord
100
AcDbDimStyleTableRecord
2
ISO-25
3

70
0
40
0
44
1.25
42
0.625
46
0
41
2.5
173
0
140
2.5
141
2.5
73
0
74
0
147
0.625
77
1
144
1
271
2
45
0
277
2
278
44
279
0
371
-2
372
-2
176
0
177
0
178
0
340
29
0
ENDTAB
0
TABLE
2
BLOCK_RECORD
5
44
330
3
100
AcDbSymbolTable
70
1
0
BLOCK_RECORD
5
45
330
44
100
AcDbSymbolTableRecord
100
AcDbBlockTableRecord
2
*Model_Space
340
46
0
BLOCK_RECORD
5
47
330
44
100
AcDbSymbolTableRecord
100
AcDbBlockTableRecord
2
*Paper_Space
340
48
0
BLOCK_RECORD
5
49
330
44
100
AcDbSymbolTableRecord
100
AcDbBlockTableRecord
2
*Paper_Space0
340
4A
0
BLOCK_RECORD
5
4B
100
AcDbSymbolTableRecord
100
AcDbBlockTableRecord
2
EL_VL_DEVICE_EXPLICATION
0
BLOCK_RECORD
5
4C
100
AcDbSymbolTableRecord
100
AcDbBlockTableRecord
2
DEVICE_EL_VL_DEVICE_EXPLICATION
0
BLOCK_RECORD
5
4D
100
AcDbSymbolTableRecord
100
AcDbBlockTableRecord
2
CONNECTOR_SQUARE
0
BLOCK_RECORD
5
4E
100
AcDbSymbolTableRecord
100
AcDbBlockTableRecord
2
DEVICE_CONNECTOR_SQUARE
0
BLOCK_RECORD
5
4F
100
AcDbSymbolTableRecord
100
AcDbBlockTableRecord
2
EL_VL_DIAGRAM_TX1
0
BLOCK_RECORD
5
50
100
AcDbSymbolTableRecord
100
AcDbBlockTableRecord
2
DEVICE_EL_VL_DIAGRAM_TX1
0
BLOCK_RECORD
5
51
100
AcDbSymbolTableRecord
100
AcDbBlockTableRecord
2
EL_VL_DIAGRAM_CN1
0
BLOCK_RECORD
5
52
100
AcDbSymbolTableRecord
100
AcDbBlockTableRecord
2
DEVICE_EL_VL_DIAGRAM_CN1
0
BLOCK_RECORD
5
53
100
AcDbSymbolTableRecord
100
AcDbBlockTableRecord
2
EL_VL_DIAGRAM_CN2
0
BLOCK_RECORD
5
54
100
AcDbSymbolTableRecord
100
AcDbBlockTableRecord
2
DEVICE_EL_VL_DIAGRAM_CN2
0
BLOCK_RECORD
5
55
100
AcDbSymbolTableRecord
100
AcDbBlockTableRecord
2
EL_VL_DIAGRAM_CN3
0
BLOCK_RECORD
5
56
100
AcDbSymbolTableRecord
100
AcDbBlockTableRecord
2
DEVICE_EL_VL_DIAGRAM_CN3
0
BLOCK_RECORD
5
57
100
AcDbSymbolTableRecord
100
AcDbBlockTableRecord
2
EL_VL_DIAGRAM_CN4
0
BLOCK_RECORD
5
58
100
AcDbSymbolTableRecord
100
AcDbBlockTableRecord
2
DEVICE_EL_VL_DIAGRAM_CN4
0
BLOCK_RECORD
5
59
100
AcDbSymbolTableRecord
100
AcDbBlockTableRecord
2
EL_VL_DIAGRAM_CN5
0
BLOCK_RECORD
5
5A
100
AcDbSymbolTableRecord
100
AcDbBlockTableRecord
2
DEVICE_EL_VL_DIAGRAM_CN5
0
BLOCK_RECORD
5
5B
100
AcDbSymbolTableRecord
100
AcDbBlockTableRecord
2
EL_VL_DIAGRAM_TM1
0
BLOCK_RECORD
5
5C
100
AcDbSymbolTableRecord
100
AcDbBlockTableRecord
2
DEVICE_EL_VL_DIAGRAM_TM1
0
BLOCK_RECORD
5
5D
100
AcDbSymbolTableRecord
100
AcDbBlockTableRecord
2
EL_VL_DIAGRAM_QF1
0
BLOCK_RECORD
5
5E
100
AcDbSymbolTableRecord
100
AcDbBlockTableRecord
2
DEVICE_EL_VL_DIAGRAM_QF1
0
BLOCK_RECORD
5
5F
100
AcDbSymbolTableRecord
100
AcDbBlockTableRecord
2
EL_VL_DIAGRAM_QF3
0
BLOCK_RECORD
5
60
100
AcDbSymbolTableRecord
100
AcDbBlockTableRecord
2
DEVICE_EL_VL_DIAGRAM_QF3
0
BLOCK_RECORD
5
61
100
AcDbSymbolTableRecord
100
AcDbBlockTableRecord
2
EL_VL_DIAGRAM_QF2
0
BLOCK_RECORD
5
62
100
AcDbSymbolTableRecord
100
AcDbBlockTableRecord
2
DEVICE_EL_VL_DIAGRAM_QF2
0
BLOCK_RECORD
5
63
100
AcDbSymbolTableRecord
100
AcDbBlockTableRecord
2
EL_VL_DIAGRAM_QS1
0
BLOCK_RECORD
5
64
100
AcDbSymbolTableRecord
100
AcDbBlockTableRecord
2
DEVICE_EL_VL_DIAGRAM_QS1
0
BLOCK_RECORD
5
65
100
AcDbSymbolTableRecord
100
AcDbBlockTableRecord
2
EL_VL_DIAGRAM_QS2
0
BLOCK_RECORD
5
66
100
AcDbSymbolTableRecord
100
AcDbBlockTableRecord
2
DEVICE_EL_VL_DIAGRAM_QS2
0
BLOCK_RECORD
5
67
100
AcDbSymbolTableRecord
100
AcDbBlockTableRecord
2
EL_VL_DIAGRAM_QS3
0
BLOCK_RECORD
5
68
100
AcDbSymbolTableRecord
100
AcDbBlockTableRecord
2
DEVICE_EL_VL_DIAGRAM_QS3
0
BLOCK_RECORD
5
69
100
AcDbSymbolTableRecord
100
AcDbBlockTableRecord
2
EL_VL_DIAGRAM_QS4
0
BLOCK_RECORD
5
6A
100
AcDbSymbolTableRecord
100
AcDbBlockTableRecord
2
DEVICE_EL_VL_DIAGRAM_QS4
0
BLOCK_RECORD
5
6B
100
AcDbSymbolTableRecord
100
AcDbBlockTableRecord
2
EL_VL_DIAGRAM_QS5
0
BLOCK_RECORD
5
6C
100
AcDbSymbolTableRecord
100
AcDbBlockTableRecord
2
DEVICE_EL_VL_DIAGRAM_QS5
0
BLOCK_RECORD
5
6D
100
AcDbSymbolTableRecord
100
AcDbBlockTableRecord
2
EL_VL_DIAGRAM_QS6
0
BLOCK_RECORD
5
6E
100
AcDbSymbolTableRecord
100
AcDbBlockTableRecord
2
DEVICE_EL_VL_DIAGRAM_QS6
0
BLOCK_RECORD
5
6F
100
AcDbSymbolTableRecord
100
AcDbBlockTableRecord
2
EL_VL_DIAGRAM_QS7
0
BLOCK_RECORD
5
70
100
AcDbSymbolTableRecord
100
AcDbBlockTableRecord
2
DEVICE_EL_VL_DIAGRAM_QS7
0
BLOCK_RECORD
5
71
100
AcDbSymbolTableRecord
100
AcDbBlockTableRecord
2
EL_VL_DIAGRAM_FU1
0
BLOCK_RECORD
5
72
100
AcDbSymbolTableRecord
100
AcDbBlockTableRecord
2
DEVICE_EL_VL_DIAGRAM_FU1
0
BLOCK_RECORD
5
73
100
AcDbSymbolTableRecord
100
AcDbBlockTableRecord
2
EL_VL_DIAGRAM_TT1
0
BLOCK_RECORD
5
74
100
AcDbSymbolTableRecord
100
AcDbBlockTableRecord
2
DEVICE_EL_VL_DIAGRAM_TT1
0
BLOCK_RECORD
5
75
100
AcDbSymbolTableRecord
100
AcDbBlockTableRecord
2
EL_VL_DIAGRAM_WH1
0
BLOCK_RECORD
5
76
100
AcDbSymbolTableRecord
100
AcDbBlockTableRecord
2
DEVICE_EL_VL_DIAGRAM_WH1
0
BLOCK_RECORD
5
77
100
AcDbSymbolTableRecord
100
AcDbBlockTableRecord
2
EL_VL_DIAGRAM_WH2
0
BLOCK_RECORD
5
78
100
AcDbSymbolTableRecord
100
AcDbBlockTableRecord
2
DEVICE_EL_VL_DIAGRAM_WH2
0
BLOCK_RECORD
5
79
100
AcDbSymbolTableRecord
100
AcDbBlockTableRecord
2
EL_VL_DIAGRAM_SH1
0
BLOCK_RECORD
5
7A
100
AcDbSymbolTableRecord
100
AcDbBlockTableRecord
2
DEVICE_EL_VL_DIAGRAM_SH1
0
BLOCK_RECORD
5
7B
100
AcDbSymbolTableRecord
100
AcDbBlockTableRecord
2
EL_VL_DIAGRAM_BU1
0
BLOCK_RECORD
5
7C
100
AcDbSymbolTableRecord
100
AcDbBlockTableRecord
2
DEVICE_EL_VL_DIAGRAM_BU1
0
BLOCK_RECORD
5
7D
100
AcDbSymbolTableRecord
100
AcDbBlockTableRecord
2
EL_VL_DIAGRAM_H1
0
BLOCK_RECORD
5
7E
100
AcDbSymbolTableRecord
100
AcDbBlockTableRecord
2
DEVICE_EL_VL_DIAGRAM_H1
0
BLOCK_RECORD
5
7F
100
AcDbSymbolTableRecord
100
AcDbBlockTableRecord
2
EL_VL_DIAGRAM_H2
0
BLOCK_RECORD
5
80
100
AcDbSymbolTableRecord
100
AcDbBlockTableRecord
2
DEVICE_EL_VL_DIAGRAM_H2
0
BLOCK_RECORD
5
81
100
AcDbSymbolTableRecord
100
AcDbBlockTableRecord
2
EL_VL_DIAGRAM_H3
0
BLOCK_RECORD
5
82
100
AcDbSymbolTableRecord
100
AcDbBlockTableRecord
2
DEVICE_EL_VL_DIAGRAM_H3
0
BLOCK_RECORD
5
83
100
AcDbSymbolTableRecord
100
AcDbBlockTableRecord
2
EL_VL_DIAGRAM_H4
0
BLOCK_RECORD
5
84
100
AcDbSymbolTableRecord
100
AcDbBlockTableRecord
2
DEVICE_EL_VL_DIAGRAM_H4
0
BLOCK_RECORD
5
85
100
AcDbSymbolTableRecord
100
AcDbBlockTableRecord
2
EL_VL_DIAGRAM_H5
0
BLOCK_RECORD
5
86
100
AcDbSymbolTableRecord
100
AcDbBlockTableRecord
2
DEVICE_EL_VL_DIAGRAM_H5
0
BLOCK_RECORD
5
87
100
AcDbSymbolTableRecord
100
AcDbBlockTableRecord
2
EL_VL_DIAGRAM_H6
0
BLOCK_RECORD
5
88
100
AcDbSymbolTableRecord
100
AcDbBlockTableRecord
2
DEVICE_EL_VL_DIAGRAM_H6
0
BLOCK_RECORD
5
89
100
AcDbSymbolTableRecord
100
AcDbBlockTableRecord
2
EL_VL_DIAGRAM_H7
0
BLOCK_RECORD
5
8A
100
AcDbSymbolTableRecord
100
AcDbBlockTableRecord
2
DEVICE_EL_VL_DIAGRAM_H7
0
BLOCK_RECORD
5
8B
100
AcDbSymbolTableRecord
100
AcDbBlockTableRecord
2
EL_VL_DIAGRAM_FD1
0
BLOCK_RECORD
5
8C
100
AcDbSymbolTableRecord
100
AcDbBlockTableRecord
2
DEVICE_EL_VL_DIAGRAM_FD1
0
BLOCK_RECORD
5
8D
100
AcDbSymbolTableRecord
100
AcDbBlockTableRecord
2
EL_VL_DIAGRAM_FD2
0
BLOCK_RECORD
5
8E
100
AcDbSymbolTableRecord
100
AcDbBlockTableRecord
2
DEVICE_EL_VL_DIAGRAM_FD2
0
BLOCK_RECORD
5
8F
100
AcDbSymbolTableRecord
100
AcDbBlockTableRecord
2
EL_VL_DIAGRAM_FD3_1
0
BLOCK_RECORD
5
90
100
AcDbSymbolTableRecord
100
AcDbBlockTableRecord
2
DEVICE_EL_VL_DIAGRAM_FD3_1
0
BLOCK_RECORD
5
91
100
AcDbSymbolTableRecord
100
AcDbBlockTableRecord
2
EL_VL_DIAGRAM_FD3_2
0
BLOCK_RECORD
5
92
100
AcDbSymbolTableRecord
100
AcDbBlockTableRecord
2
DEVICE_EL_VL_DIAGRAM_FD3_2
0
BLOCK_RECORD
5
93
100
AcDbSymbolTableRecord
100
AcDbBlockTableRecord
2
EL_VL_DIAGRAM_FD4_1
0
BLOCK_RECORD
5
94
100
AcDbSymbolTableRecord
100
AcDbBlockTableRecord
2
DEVICE_EL_VL_DIAGRAM_FD4_1
0
BLOCK_RECORD
5
95
100
AcDbSymbolTableRecord
100
AcDbBlockTableRecord
2
EL_VL_DIAGRAM_FD4_2
0
BLOCK_RECORD
5
96
100
AcDbSymbolTableRecord
100
AcDbBlockTableRecord
2
DEVICE_EL_VL_DIAGRAM_FD4_2
0
BLOCK_RECORD
5
97
100
AcDbSymbolTableRecord
100
AcDbBlockTableRecord
2
EL_VL_DIAGRAM_FD5
0
BLOCK_RECORD
5
98
100
AcDbSymbolTableRecord
100
AcDbBlockTableRecord
2
DEVICE_EL_VL_DIAGRAM_FD5
0
BLOCK_RECORD
5
99
100
AcDbSymbolTableRecord
100
AcDbBlockTableRecord
2
DIAGRAM_CN0
0
BLOCK_RECORD
5
9A
100
AcDbSymbolTableRecord
100
AcDbBlockTableRecord
2
DIAGRAM_CN1
0
BLOCK_RECORD
5
9B
100
AcDbSymbolTableRecord
100
AcDbBlockTableRecord
2
DIAGRAM_PE1
0
BLOCK_RECORD
5
9C
100
AcDbSymbolTableRecord
100
AcDbBlockTableRecord
2
DIAGRAM_PE2
0
BLOCK_RECORD
5
9D
100
AcDbSymbolTableRecord
100
AcDbBlockTableRecord
2
DIAGRAM_QF1
0
BLOCK_RECORD
5
9E
100
AcDbSymbolTableRecord
100
AcDbBlockTableRecord
2
DIAGRAM_H0
0
BLOCK_RECORD
5
9F
100
AcDbSymbolTableRecord
100
AcDbBlockTableRecord
2
DIAGRAM_FD0
0
BLOCK_RECORD
5
A0
100
AcDbSymbolTableRecord
100
AcDbBlockTableRecord
2
DIAGRAM_FD1
0
ENDTAB
0
ENDSEC
0
SECTION
2
BLOCKS
0
BLOCK
5
A1
330
45
100
AcDbEntity
8
0
100
AcDbBlockBegin
2
*Model_Space
70
0
10
0.0
20
0.0
30
0.0
3
*Model_Space
1

0
ENDBLK
5
A2
330
45
100
AcDbEntity
8
0
100
AcDbBlockEnd
0
BLOCK
5
A3
330
47
100
AcDbEntity
67
1
8
0
100
AcDbBlockBegin
2
*Paper_Space
70
0
10
0.0
20
0.0
30
0.0
3
*Paper_Space
1

0
ENDBLK
5
A4
330
47
100
AcDbEntity
67
1
8
0
100
AcDbBlockEnd
0
BLOCK
5
A5
330
49
100
AcDbEntity
67
1
8
0
100
AcDbBlockBegin
2
*Paper_Space0
70
0
10
0.0
20
0.0
30
0.0
3
*Paper_Space0
1

0
ENDBLK
5
A6
330
49
100
AcDbEntity
67
1
8
0
100
AcDbBlockEnd
0
BLOCK
5
A7
100
AcDbEntity
8
0
100
AcDbBlockBegin
2
EL_VL_DEVICE_EXPLICATION
70
2
10
0
20
0
30
0
3
EL_VL_DEVICE_EXPLICATION
1

0
CIRCLE
5
A8
100
AcDbEntity
8
FORMAT
100
AcDbCircle
6
ByLayer
10
0.0000000000
20
0.0000000000
30
0.0000000000
40
2.5000000000
1001
DSTP_XDATA
1002
{
1000
_OWNERHANDLE=0000000064
1002
}
0
ENDBLK
5
A9
100
AcDbEntity
8
0
100
AcDbBlockEnd
1001
DSTP_XDATA
1002
{
1002
}
0
BLOCK
5
AA
100
AcDbEntity
8
0
100
AcDbBlockBegin
2
DEVICE_EL_VL_DEVICE_EXPLICATION
70
2
10
0
20
0
30
0
3
DEVICE_EL_VL_DEVICE_EXPLICATION
1

0
INSERT
5
AB
100
AcDbEntity
8
0
100
AcDbBlockReference
6
ByLayer
48
100.0000000000
2
CONNECTOR_SQUARE
10
0.0000000000
20
0.0000000000
30
0.0000000000
41
1.0000000000
42
1.0000000000
43
1.0000000000
50
90.0000000000
1001
DSTP_XDATA
1002
{
1000
_OWNERHANDLE=0000000064
1000
EMPTYVARIABLESEXTENDER=
1000
_HANDLE=0030B0A730
1000
_UPGRADE=1
1002
}
0
TEXT
5
AC
100
AcDbEntity
8
SYS_DEVICE_TYPE
100
AcDbText
6
ByLayer
11
0.0000000000
21
-3.5000000000
31
0.0000000000
10
0.0000000000
20
-7.0000000000
30
0.0000000000
40
1.5000000000
50
0.0000000000
41
0.6500000000
51
12.0000000000
72
1
7
R2_5
1
0
100
AcDbText
73
2
1001
DSTP_XDATA
1002
{
1000
_TMPL1=@@[VL_Floor]
1000
_OWNERHANDLE=0000000064
1002
}
0
TEXT
5
AD
100
AcDbEntity
8
EL_DEVICE_NAME
100
AcDbText
6
ByLayer
11
0.0000000000
21
0.0000000000
31
0.0000000000
10
0.0000000000
20
0.0000000000
30
0.0000000000
40
2.5000000000
50
0.0000000000
41
0.7000000000
51
0.0000000000
72
1
7
R2_5
1
1
100
AcDbText
73
2
1001
DSTP_XDATA
1002
{
1000
_TMPL1=@@[VL_Room]
1000
_OWNERHANDLE=0000000064
1002
}
0
ENDBLK
5
AE
100
AcDbEntity
8
0
100
AcDbBlockEnd
1001
DSTP_XDATA
1002
{
1002
}
0
BLOCK
5
AF
100
AcDbEntity
8
0
100
AcDbBlockBegin
2
CONNECTOR_SQUARE
70
2
10
0
20
0
30
0
3
CONNECTOR_SQUARE
1

0
LINE
5
B0
100
AcDbEntity
8
SYS_PIN
100
AcDbLine
6
ByLayer
48
100.0000000000
10
-0.3535533906
20
0.3535533906
30
0.0000000000
11
0.3535533906
21
-0.3535533906
31
0.0000000000
1001
DSTP_XDATA
1002
{
1000
_OWNERHANDLE=0000000064
1002
}
0
LINE
5
B1
100
AcDbEntity
8
SYS_PIN
100
AcDbLine
6
ByLayer
48
100.0000000000
10
0.3535533906
20
0.3535533906
30
0.0000000000
11
-0.3535533906
21
-0.3535533906
31
0.0000000000
1001
DSTP_XDATA
1002
{
1000
_OWNERHANDLE=0000000064
1002
}
0
ENDBLK
5
B2
100
AcDbEntity
8
0
100
AcDbBlockEnd
1001
DSTP_XDATA
1002
{
1002
}
0
BLOCK
5
B3
100
AcDbEntity
8
0
100
AcDbBlockBegin
2
DEVICE_CONNECTOR_SQUARE
70
2
10
0
20
0
30
0
3
DEVICE_CONNECTOR_SQUARE
1

0
LINE
5
B4
100
AcDbEntity
8
SYS_METRIC
100
AcDbLine
6
ByLayer
10
-1.0000000000
20
0.0000000000
30
0.0000000000
11
1.0000000000
21
0.0000000000
31
0.0000000000
1001
DSTP_XDATA
1002
{
1000
_OWNERHANDLE=0000000064
1002
}
0
LINE
5
B5
100
AcDbEntity
8
SYS_METRIC
100
AcDbLine
6
ByLayer
10
0.0000000000
20
1.0000000000
30
0.0000000000
11
0.0000000000
21
-1.0000000000
31
0.0000000000
1001
DSTP_XDATA
1002
{
1000
_OWNERHANDLE=0000000064
1002
}
0
ENDBLK
5
B6
100
AcDbEntity
8
0
100
AcDbBlockEnd
1001
DSTP_XDATA
1002
{
1002
}
0
BLOCK
5
B7
100
AcDbEntity
8
0
100
AcDbBlockBegin
2
EL_VL_DIAGRAM_TX1
70
2
10
0
20
0
30
0
3
EL_VL_DIAGRAM_TX1
1

0
LINE
5
B8
100
AcDbEntity
8
TABLE
100
AcDbLine
6
Continuous
10
0.0000000000
20
0.0000000000
30
0.0000000000
11
50.0000000000
21
0.0000000000
31
0.0000000000
1001
DSTP_XDATA
1002
{
1000
_OWNERHANDLE=0000000064
1002
}
0
LINE
5
B9
100
AcDbEntity
8
TABLE
100
AcDbLine
6
Continuous
10
50.0000000000
20
0.0000000000
30
0.0000000000
11
50.0000000000
21
15.0000000000
31
0.0000000000
1001
DSTP_XDATA
1002
{
1000
_OWNERHANDLE=0000000064
1002
}
0
LINE
5
BA
100
AcDbEntity
8
TABLE
100
AcDbLine
6
Continuous
10
50.0000000000
20
15.0000000000
30
0.0000000000
11
0.0000000000
21
15.0000000000
31
0.0000000000
1001
DSTP_XDATA
1002
{
1000
_OWNERHANDLE=0000000064
1002
}
0
LINE
5
BB
100
AcDbEntity
8
TABLE
100
AcDbLine
6
Continuous
10
0.0000000000
20
15.0000000000
30
0.0000000000
11
0.0000000000
21
0.0000000000
31
0.0000000000
1001
DSTP_XDATA
1002
{
1000
_OWNERHANDLE=0000000064
1002
}
0
ENDBLK
5
BC
100
AcDbEntity
8
0
100
AcDbBlockEnd
1001
DSTP_XDATA
1002
{
1002
}
0
BLOCK
5
BD
100
AcDbEntity
8
0
100
AcDbBlockBegin
2
DEVICE_EL_VL_DIAGRAM_TX1
70
2
10
0
20
0
30
0
3
DEVICE_EL_VL_DIAGRAM_TX1
1

0
MTEXT
5
BE
100
AcDbEntity
8
FORMAT
100
AcDbMText
6
ByLayer
10
25.0000000695
20
7.4999999700
30
0.0000000000
40
3.0000000000
41
49.9999998610
71
5
1
Источник питания
7
MtXpl_ISOCPEUR
11
1.0000000000
21
0.0000000000
31
0.0000000000
73
2
44
0.9000000000
1001
DSTP_XDATA
1002
{
1000
_TMPL1=@@[VL_Mark]
1000
_OWNERHANDLE=0000000064
1002
}
0
ENDBLK
5
BF
100
AcDbEntity
8
0
100
AcDbBlockEnd
1001
DSTP_XDATA
1002
{
1002
}
0
BLOCK
5
C0
100
AcDbEntity
8
0
100
AcDbBlockBegin
2
EL_VL_DIAGRAM_CN1
70
2
10
0
20
0
30
0
3
EL_VL_DIAGRAM_CN1
1

0
LINE
5
C1
100
AcDbEntity
8
TABLE
100
AcDbLine
6
ByLayer
10
15.0000000000
20
4.9996650000
30
0.0000000000
11
15.0025130000
21
0.0000000000
31
0.0000000000
1001
DSTP_XDATA
1002
{
1000
_OWNERHANDLE=0000000064
1002
}
0
LINE
5
C2
100
AcDbEntity
8
TABLE
100
AcDbLine
6
ByLayer
10
0.0000000000
20
0.0000000000
30
0.0000000000
11
25.0000000000
21
0.0000000000
31
0.0000000000
1001
DSTP_XDATA
1002
{
1000
_OWNERHANDLE=0000000064
1002
}
0
CIRCLE
5
C3
100
AcDbEntity
8
TABLE
100
AcDbCircle
6
ByLayer
10
15.0000000000
20
0.0000000000
30
0.0000000000
40
0.5000000000
1001
DSTP_XDATA
1002
{
1000
_OWNERHANDLE=0000000064
1002
}
0
ENDBLK
5
C4
100
AcDbEntity
8
0
100
AcDbBlockEnd
1001
DSTP_XDATA
1002
{
1002
}
0
BLOCK
5
C5
100
AcDbEntity
8
0
100
AcDbBlockBegin
2
DEVICE_EL_VL_DIAGRAM_CN1
70
2
10
0
20
0
30
0
3
DEVICE_EL_VL_DIAGRAM_CN1
1

0
LINE
5
C6
100
AcDbEntity
8
TABLE
100
AcDbLine
6
ByLayer
10
17.5000000000
20
-5.0000000000
30
0.0000000000
11
17.5000000000
21
5.0000000000
31
0.0000000000
1001
DSTP_XDATA
1002
{
1000
_OWNERHANDLE=0000000064
1000
LCGoodLayer=TABLE
1000
LCBadLayer=SYS_METRIC
1000
LCExpression=VL_Busbar>1
1002
}
0
LINE
5
C7
100
AcDbEntity
8
TABLE
100
AcDbLine
6
ByLayer
10
20.0000000000
20
-10.0000000000
30
0.0000000000
11
20.0000000000
21
4.9996650000
31
0.0000000000
1001
DSTP_XDATA
1002
{
1000
_OWNERHANDLE=0000000064
1000
LCGoodLayer=TABLE
1000
LCBadLayer=SYS_METRIC
1000
LCExpression=VL_Busbar>2
1002
}
0
LINE
5
C8
100
AcDbEntity
8
TABLE
100
AcDbLine
6
ByLayer
10
0.0000000000
20
-5.0000000000
30
0.0000000000
11
25.0000000000
21
-5.0000000000
31
0.0000000000
1001
DSTP_XDATA
1002
{
1000
_OWNERHANDLE=0000000064
1000
LCGoodLayer=TABLE
1000
LCBadLayer=SYS_METRIC
1000
LCExpression=VL_Busbar>1
1002
}
0
LINE
5
C9
100
AcDbEntity
8
TABLE
100
AcDbLine
6
ByLayer
10
0.0000000000
20
-10.0000000000
30
0.0000000000
11
25.0000000000
21
-10.0000000000
31
0.0000000000
1001
DSTP_XDATA
1002
{
1000
_OWNERHANDLE=0000000064
1000
LCGoodLayer=TABLE
1000
LCBadLayer=SYS_METRIC
1000
LCExpression=VL_Busbar>2
1002
}
0
CIRCLE
5
CA
100
AcDbEntity
8
TABLE
100
AcDbCircle
6
ByLayer
10
17.5000000000
20
-5.0000000000
30
0.0000000000
40
0.5000000000
1001
DSTP_XDATA
1002
{
1000
_OWNERHANDLE=0000000064
1000
LCGoodLayer=TABLE
1000
LCBadLayer=SYS_METRIC
1000
LCExpression=VL_Busbar>1
1002
}
0
CIRCLE
5
CB
100
AcDbEntity
8
TABLE
100
AcDbCircle
6
ByLayer
10
20.0000000000
20
-10.0000000000
30
0.0000000000
40
0.5000000000
1001
DSTP_XDATA
1002
{
1000
_OWNERHANDLE=0000000064
1000
LCGoodLayer=TABLE
1000
LCBadLayer=SYS_METRIC
1000
LCExpression=VL_Busbar>2
1002
}
0
ENDBLK
5
CC
100
AcDbEntity
8
0
100
AcDbBlockEnd
1001
DSTP_XDATA
1002
{
1002
}
0
BLOCK
5
CD
100
AcDbEntity
8
0
100
AcDbBlockBegin
2
EL_VL_DIAGRAM_CN2
70
2
10
0
20
0
30
0
3
EL_VL_DIAGRAM_CN2
1

0
LINE
5
CE
100
AcDbEntity
8
TABLE
100
AcDbLine
6
ByLayer
10
15.0000000000
20
0.0000000000
30
0.0000000000
11
15.0000000000
21
-14.9996650000
31
0.0000000000
1001
DSTP_XDATA
1002
{
1000
_OWNERHANDLE=0000000064
1002
}
0
LINE
5
CF
100
AcDbEntity
8
TABLE
100
AcDbLine
6
ByLayer
10
0.0000000000
20
0.0000000000
30
0.0000000000
11
25.0000000000
21
0.0000000000
31
0.0000000000
1001
DSTP_XDATA
1002
{
1000
_OWNERHANDLE=0000000064
1002
}
0
CIRCLE
5
D0
100
AcDbEntity
8
TABLE
100
AcDbCircle
6
ByLayer
10
15.0000000000
20
0.0000000000
30
0.0000000000
40
0.5000000000
1001
DSTP_XDATA
1002
{
1000
_OWNERHANDLE=0000000064
1002
}
0
ENDBLK
5
D1
100
AcDbEntity
8
0
100
AcDbBlockEnd
1001
DSTP_XDATA
1002
{
1002
}
0
BLOCK
5
D2
100
AcDbEntity
8
0
100
AcDbBlockBegin
2
DEVICE_EL_VL_DIAGRAM_CN2
70
2
10
0
20
0
30
0
3
DEVICE_EL_VL_DIAGRAM_CN2
1

0
LINE
5
D3
100
AcDbEntity
8
TABLE
100
AcDbLine
6
ByLayer
10
20.0000000000
20
-14.9996650000
30
0.0000000000
11
20.0000000000
21
-10.0000000000
31
0.0000000000
1001
DSTP_XDATA
1002
{
1000
_OWNERHANDLE=0000000064
1000
LCGoodLayer=TABLE
1000
LCBadLayer=SYS_METRIC
1000
LCExpression=VL_Busbar>2
1002
}
0
LINE
5
D4
100
AcDbEntity
8
TABLE
100
AcDbLine
6
ByLayer
10
17.5000000000
20
-5.0000000000
30
0.0000000000
11
17.5000000000
21
-15.0000000000
31
0.0000000000
1001
DSTP_XDATA
1002
{
1000
_OWNERHANDLE=0000000064
1000
LCGoodLayer=TABLE
1000
LCBadLayer=SYS_METRIC
1000
LCExpression=VL_Busbar>1
1002
}
0
LINE
5
D5
100
AcDbEntity
8
TABLE
100
AcDbLine
6
ByLayer
10
0.0000000000
20
-5.0000000000
30
0.0000000000
11
25.0000000000
21
-5.0000000000
31
0.0000000000
1001
DSTP_XDATA
1002
{
1000
_OWNERHANDLE=0000000064
1000
LCGoodLayer=TABLE
1000
LCBadLayer=SYS_METRIC
1000
LCExpression=VL_Busbar>1
1002
}
0
LINE
5
D6
100
AcDbEntity
8
TABLE
100
AcDbLine
6
ByLayer
10
0.0000000000
20
-10.0000000000
30
0.0000000000
11
25.0000000000
21
-10.0000000000
31
0.0000000000
1001
DSTP_XDATA
1002
{
1000
_OWNERHANDLE=0000000064
1000
LCGoodLayer=TABLE
1000
LCBadLayer=SYS_METRIC
1000
LCExpression=VL_Busbar>2
1002
}
0
CIRCLE
5
D7
100
AcDbEntity
8
TABLE
100
AcDbCircle
6
ByLayer
10
17.5000000000
20
-5.0000000000
30
0.0000000000
40
0.5000000000
1001
DSTP_XDATA
1002
{
1000
_OWNERHANDLE=0000000064
1000
LCGoodLayer=TABLE
1000
LCBadLayer=SYS_METRIC
1000
LCExpression=VL_Busbar>1
1002
}
0
CIRCLE
5
D8
100
AcDbEntity
8
TABLE
100
AcDbCircle
6
ByLayer
10
20.0000000000
20
-10.0000000000
30
0.0000000000
40
0.5000000000
1001
DSTP_XDATA
1002
{
1000
_OWNERHANDLE=0000000064
1000
LCGoodLayer=TABLE
1000
LCBadLayer=SYS_METRIC
1000
LCExpression=VL_Busbar>2
1002
}
0
ENDBLK
5
D9
100
AcDbEntity
8
0
100
AcDbBlockEnd
1001
DSTP_XDATA
1002
{
1002
}
0
BLOCK
5
DA
100
AcDbEntity
8
0
100
AcDbBlockBegin
2
EL_VL_DIAGRAM_CN3
70
2
10
0
20
0
30
0
3
EL_VL_DIAGRAM_CN3
1

0
LINE
5
DB
100
AcDbEntity
8
TABLE
100
AcDbLine
6
ByLayer
10
0.0000000000
20
0.0000000000
30
0.0000000000
11
25.0000000000
21
0.0000000000
31
0.0000000000
1001
DSTP_XDATA
1002
{
1000
_OWNERHANDLE=0000000064
1002
}
0
ENDBLK
5
DC
100
AcDbEntity
8
0
100
AcDbBlockEnd
1001
DSTP_XDATA
1002
{
1002
}
0
BLOCK
5
DD
100
AcDbEntity
8
0
100
AcDbBlockBegin
2
DEVICE_EL_VL_DIAGRAM_CN3
70
2
10
0
20
0
30
0
3
DEVICE_EL_VL_DIAGRAM_CN3
1

0
LINE
5
DE
100
AcDbEntity
8
TABLE
100
AcDbLine
6
ByLayer
10
0.0000000000
20
-5.0000000000
30
0.0000000000
11
25.0000000000
21
-5.0000000000
31
0.0000000000
1001
DSTP_XDATA
1002
{
1000
_OWNERHANDLE=0000000064
1000
LCGoodLayer=TABLE
1000
LCBadLayer=SYS_METRIC
1000
LCExpression=VL_Busbar>1
1002
}
0
LINE
5
DF
100
AcDbEntity
8
TABLE
100
AcDbLine
6
ByLayer
10
0.0000000000
20
-10.0000000000
30
0.0000000000
11
25.0000000000
21
-10.0000000000
31
0.0000000000
1001
DSTP_XDATA
1002
{
1000
_OWNERHANDLE=0000000064
1000
LCGoodLayer=TABLE
1000
LCBadLayer=SYS_METRIC
1000
LCExpression=VL_Busbar>2
1002
}
0
ENDBLK
5
E0
100
AcDbEntity
8
0
100
AcDbBlockEnd
1001
DSTP_XDATA
1002
{
1002
}
0
BLOCK
5
E1
100
AcDbEntity
8
0
100
AcDbBlockBegin
2
EL_VL_DIAGRAM_CN4
70
2
10
0
20
0
30
0
3
EL_VL_DIAGRAM_CN4
1

0
LINE
5
E2
100
AcDbEntity
8
TABLE
100
AcDbLine
6
ByLayer
10
0.0000000000
20
0.0000000000
30
0.0000000000
11
0.0000000000
21
-4.9996650000
31
0.0000000000
1001
DSTP_XDATA
1002
{
1000
_OWNERHANDLE=0000000064
1002
}
0
ENDBLK
5
E3
100
AcDbEntity
8
0
100
AcDbBlockEnd
1001
DSTP_XDATA
1002
{
1002
}
0
BLOCK
5
E4
100
AcDbEntity
8
0
100
AcDbBlockBegin
2
DEVICE_EL_VL_DIAGRAM_CN4
70
2
10
0
20
0
30
0
3
DEVICE_EL_VL_DIAGRAM_CN4
1

0
LINE
5
E5
100
AcDbEntity
8
TABLE
100
AcDbLine
6
ByLayer
10
5.0000000000
20
0.0000000000
30
0.0000000000
11
5.0000000000
21
-4.9996650000
31
0.0000000000
1001
DSTP_XDATA
1002
{
1000
_OWNERHANDLE=0000000064
1000
LCGoodLayer=TABLE
1000
LCBadLayer=SYS_METRIC
1000
LCExpression=VL_Busbar>2
1002
}
0
LINE
5
E6
100
AcDbEntity
8
TABLE
100
AcDbLine
6
ByLayer
10
2.5000000000
20
0.0000000000
30
0.0000000000
11
2.5000000000
21
-4.9996650000
31
0.0000000000
1001
DSTP_XDATA
1002
{
1000
_OWNERHANDLE=0000000064
1000
LCGoodLayer=TABLE
1000
LCBadLayer=SYS_METRIC
1000
LCExpression=VL_Busbar>1
1002
}
0
ENDBLK
5
E7
100
AcDbEntity
8
0
100
AcDbBlockEnd
1001
DSTP_XDATA
1002
{
1002
}
0
BLOCK
5
E8
100
AcDbEntity
8
0
100
AcDbBlockBegin
2
EL_VL_DIAGRAM_CN5
70
2
10
0
20
0
30
0
3
EL_VL_DIAGRAM_CN5
1

0
LINE
5
E9
100
AcDbEntity
8
0
100
AcDbLine
6
ByLayer
10
0.0000000000
20
0.0000000000
30
0.0000000000
11
20.0000000000
21
0.0000000000
31
0.0000000000
1001
DSTP_XDATA
1002
{
1000
_OWNERHANDLE=0000000064
1002
}
0
LINE
5
EA
100
AcDbEntity
8
0
100
AcDbLine
6
ByLayer
10
25.0000000000
20
0.0000000000
30
0.0000000000
11
50.0000000000
21
0.0000000000
31
0.0000000000
1001
DSTP_XDATA
1002
{
1000
_OWNERHANDLE=0000000064
1002
}
0
LINE
5
EB
100
AcDbEntity
8
0
100
AcDbLine
6
ByLayer
10
15.0000000000
20
-15.0000000000
30
0.0000000000
11
15.0000000000
21
0.0000000000
31
0.0000000000
1001
DSTP_XDATA
1002
{
1000
_OWNERHANDLE=0000000064
1002
}
0
LINE
5
EC
100
AcDbEntity
8
0
100
AcDbLine
6
ByLayer
10
40.0000000000
20
-15.0000000000
30
0.0000000000
11
40.0000000000
21
0.0000000000
31
0.0000000000
1001
DSTP_XDATA
1002
{
1000
_OWNERHANDLE=0000000064
1002
}
0
CIRCLE
5
ED
100
AcDbEntity
8
0
100
AcDbCircle
6
ByLayer
10
40.0000000000
20
0.0000000000
30
0.0000000000
40
0.7071067812
1001
DSTP_XDATA
1002
{
1000
_OWNERHANDLE=0000000064
1002
}
0
CIRCLE
5
EE
100
AcDbEntity
8
0
100
AcDbCircle
6
ByLayer
10
15.0000000000
20
0.0000000000
30
0.0000000000
40
0.7071067812
1001
DSTP_XDATA
1002
{
1000
_OWNERHANDLE=0000000064
1002
}
0
ENDBLK
5
EF
100
AcDbEntity
8
0
100
AcDbBlockEnd
1001
DSTP_XDATA
1002
{
1002
}
0
BLOCK
5
F0
100
AcDbEntity
8
0
100
AcDbBlockBegin
2
DEVICE_EL_VL_DIAGRAM_CN5
70
2
10
0
20
0
30
0
3
DEVICE_EL_VL_DIAGRAM_CN5
1

0
LINE
5
F1
100
AcDbEntity
8
TABLE
100
AcDbLine
6
ByLayer
10
0.0000000000
20
-5.0000000000
30
0.0000000000
11
50.0000000000
21
-5.0000000000
31
0.0000000000
1001
DSTP_XDATA
1002
{
1000
_OWNERHANDLE=0000000064
1000
LCGoodLayer=TABLE
1000
LCBadLayer=SYS_METRIC
1000
LCExpression=VL_Busbar>1
1002
}
0
LINE
5
F2
100
AcDbEntity
8
TABLE
100
AcDbLine
6
ByLayer
10
0.0000000000
20
-10.0000000000
30
0.0000000000
11
50.0000000000
21
-10.0000000000
31
0.0000000000
1001
DSTP_XDATA
1002
{
1000
_OWNERHANDLE=0000000064
1000
LCGoodLayer=TABLE
1000
LCBadLayer=SYS_METRIC
1000
LCExpression=VL_Busbar>2
1002
}
0
ENDBLK
5
F3
100
AcDbEntity
8
0
100
AcDbBlockEnd
1001
DSTP_XDATA
1002
{
1002
}
0
BLOCK
5
F4
100
AcDbEntity
8
0
100
AcDbBlockBegin
2
EL_VL_DIAGRAM_TM1
70
2
10
0
20
0
30
0
3
EL_VL_DIAGRAM_TM1
1

0
LINE
5
F5
100
AcDbEntity
8
TABLE
100
AcDbLine
6
Continuous
10
0.0000000000
20
26.0000000000
30
0.0000000000
11
0.0000000000
21
23.0967741935
31
0.0000000000
1001
DSTP_XDATA
1002
{
1000
_OWNERHANDLE=0000000064
1002
}
0
LINE
5
F6
100
AcDbEntity
8
TABLE
100
AcDbLine
6
Continuous
10
-2.5000000000
20
27.4516129032
30
0.0000000000
11
0.0000000000
21
26.0000000000
31
0.0000000000
1001
DSTP_XDATA
1002
{
1000
_OWNERHANDLE=0000000064
1002
}
0
LINE
5
F7
100
AcDbEntity
8
TABLE
100
AcDbLine
6
Continuous
10
0.0000000000
20
26.0000000000
30
0.0000000000
11
2.5000000000
21
27.4516129032
31
0.0000000000
1001
DSTP_XDATA
1002
{
1000
_OWNERHANDLE=0000000064
1002
}
0
LINE
5
F8
100
AcDbEntity
8
TABLE
100
AcDbLine
6
Continuous
10
0.0000000000
20
15.0000000000
30
0.0000000000
11
0.0000000000
21
12.0967741935
31
0.0000000000
1001
DSTP_XDATA
1002
{
1000
_OWNERHANDLE=0000000064
1002
}
0
LINE
5
F9
100
AcDbEntity
8
TABLE
100
AcDbLine
6
Continuous
10
-2.5000000000
20
16.4516129032
30
0.0000000000
11
0.0000000000
21
15.0000000000
31
0.0000000000
1001
DSTP_XDATA
1002
{
1000
_OWNERHANDLE=0000000064
1002
}
0
LINE
5
FA
100
AcDbEntity
8
TABLE
100
AcDbLine
6
Continuous
10
0.0000000000
20
15.0000000000
30
0.0000000000
11
2.5000000000
21
16.4516129032
31
0.0000000000
1001
DSTP_XDATA
1002
{
1000
_OWNERHANDLE=0000000064
1002
}
0
LINE
5
FB
100
AcDbEntity
8
TABLE
100
AcDbLine
6
Continuous
10
2.5000000000
20
15.0000000000
30
0.0000000000
11
0.0000000000
21
15.0000000000
31
0.0000000000
1001
DSTP_XDATA
1002
{
1000
_OWNERHANDLE=0000000064
1002
}
0
LINE
5
FC
100
AcDbEntity
8
TABLE
100
AcDbLine
6
Continuous
10
0.0000000000
20
10.0000000000
30
0.0000000000
11
0.0000000000
21
0.0000000000
31
0.0000000000
1001
DSTP_XDATA
1002
{
1000
_OWNERHANDLE=0000000064
1002
}
0
LINE
5
FD
100
AcDbEntity
8
TABLE
100
AcDbLine
6
Continuous
10
2.5000000000
20
15.0000000000
30
0.0000000000
11
8.0000000000
21
15.0000000000
31
0.0000000000
1001
DSTP_XDATA
1002
{
1000
_OWNERHANDLE=0000000064
1002
}
0
LINE
5
FE
100
AcDbEntity
8
TABLE
100
AcDbLine
6
Continuous
10
8.0000000000
20
15.0000000000
30
0.0000000000
11
8.0000000000
21
0.0000000000
31
0.0000000000
1001
DSTP_XDATA
1002
{
1000
_OWNERHANDLE=0000000064
1002
}
0
LINE
5
FF
100
AcDbEntity
8
TABLE
100
AcDbLine
6
Continuous
10
8.0000000000
20
15.0000000000
30
0.0000000000
11
10.0000000000
21
15.0000000000
31
0.0000000000
1001
DSTP_XDATA
1002
{
1000
_OWNERHANDLE=0000000064
1002
}
0
LINE
5
100
100
AcDbEntity
8
TABLE
100
AcDbLine
6
Continuous
10
10.0000000000
20
17.0000000000
30
0.0000000000
11
10.0000000000
21
13.0000000000
31
0.0000000000
1001
DSTP_XDATA
1002
{
1000
_OWNERHANDLE=0000000064
1002
}
0
LINE
5
101
100
AcDbEntity
8
TABLE
100
AcDbLine
6
Continuous
10
11.0000000000
20
16.0000000000
30
0.0000000000
11
11.0000000000
21
14.0000000000
31
0.0000000000
1001
DSTP_XDATA
1002
{
1000
_OWNERHANDLE=0000000064
1002
}
0
LINE
5
102
100
AcDbEntity
8
TABLE
100
AcDbLine
6
Continuous
10
12.0000000000
20
15.0000000000
30
0.0000000000
11
13.0000000000
21
15.0000000000
31
0.0000000000
1001
DSTP_XDATA
1002
{
1000
_OWNERHANDLE=0000000064
1002
}
0
LINE
5
103
100
AcDbEntity
8
TABLE
100
AcDbLine
6
Continuous
10
-15.0000000000
20
5.0000000000
30
0.0000000000
11
15.0000000000
21
5.0000000000
31
0.0000000000
1001
DSTP_XDATA
1002
{
1000
_OWNERHANDLE=0000000064
1002
}
0
LINE
5
104
100
AcDbEntity
8
TABLE
100
AcDbLine
6
Continuous
10
-15.0000000000
20
0.0000000000
30
0.0000000000
11
15.0000000000
21
0.0000000000
31
0.0000000000
1001
DSTP_XDATA
1002
{
1000
_OWNERHANDLE=0000000064
1002
}
0
TEXT
5
105
100
AcDbEntity
8
FORMAT
100
AcDbText
6
ByLayer
11
-15.0000000000
21
7.5000000000
31
0.0000000000
10
-23.8494336000
20
6.0000000000
30
0.0000000000
40
3.0000000000
50
0.0000000000
41
1.0000000000
51
0.0000000000
72
1
7
MtXpl_ISOCPEUR
1
L1, L2, L3
100
AcDbText
73
2
1001
DSTP_XDATA
1002
{
1000
_OWNERHANDLE=0000000064
1002
}
0
TEXT
5
106
100
AcDbEntity
8
FORMAT
100
AcDbText
6
ByLayer
11
-15.0000000000
21
2.5000000000
31
0.0000000000
10
-18.4497792000
20
1.0000000000
30
0.0000000000
40
3.0000000000
50
0.0000000000
41
1.0000000000
51
0.0000000000
72
1
7
MtXpl_ISOCPEUR
1
PEN
100
AcDbText
73
2
1001
DSTP_XDATA
1002
{
1000
_OWNERHANDLE=0000000064
1002
}
0
CIRCLE
5
107
100
AcDbEntity
8
TABLE
100
AcDbCircle
6
ByLayer
10
0.0000000000
20
16.0000000000
30
0.0000000000
40
6.0000000000
1001
DSTP_XDATA
1002
{
1000
_OWNERHANDLE=0000000064
1002
}
0
CIRCLE
5
108
100
AcDbEntity
8
TABLE
100
AcDbCircle
6
ByLayer
10
0.0000000000
20
24.0000000000
30
0.0000000000
40
6.0000000000
1001
DSTP_XDATA
1002
{
1000
_OWNERHANDLE=0000000064
1002
}
0
CIRCLE
5
109
100
AcDbEntity
8
TABLE
100
AcDbCircle
6
ByLayer
10
8.0000000000
20
15.0000000000
30
0.0000000000
40
0.5000000000
1001
DSTP_XDATA
1002
{
1000
_OWNERHANDLE=0000000064
1002
}
0
CIRCLE
5
10A
100
AcDbEntity
8
TABLE
100
AcDbCircle
6
ByLayer
10
0.0000000000
20
5.0000000000
30
0.0000000000
40
0.5000000000
1001
DSTP_XDATA
1002
{
1000
_OWNERHANDLE=0000000064
1002
}
0
CIRCLE
5
10B
100
AcDbEntity
8
TABLE
100
AcDbCircle
6
ByLayer
10
8.0000000000
20
0.0000000000
30
0.0000000000
40
0.5000000000
1001
DSTP_XDATA
1002
{
1000
_OWNERHANDLE=0000000064
1002
}
0
CIRCLE
5
10C
100
AcDbEntity
8
TABLE
100
AcDbCircle
6
ByLayer
10
2.5000000000
20
0.0000000000
30
0.0000000000
40
0.5000000000
1001
DSTP_XDATA
1002
{
1000
_OWNERHANDLE=0000000064
1002
}
0
ENDBLK
5
10D
100
AcDbEntity
8
0
100
AcDbBlockEnd
1001
DSTP_XDATA
1002
{
1002
}
0
BLOCK
5
10E
100
AcDbEntity
8
0
100
AcDbBlockBegin
2
DEVICE_EL_VL_DIAGRAM_TM1
70
2
10
0
20
0
30
0
3
DEVICE_EL_VL_DIAGRAM_TM1
1

0
MTEXT
5
10F
100
AcDbEntity
8
FORMAT
100
AcDbMText
6
ByLayer
10
-15.0000000000
20
20.0000000000
30
0.0000000000
40
3.0000000000
41
15.0025125000
71
5
1
??
7
MtXpl_ISOCPEUR
11
1.0000000000
21
0.0000000000
31
0.0000000000
73
2
44
0.9000000000
1001
DSTP_XDATA
1002
{
1000
_TMPL1=@@[VL_Mark]
1000
_OWNERHANDLE=0000000064
1002
}
0
ENDBLK
5
110
100
AcDbEntity
8
0
100
AcDbBlockEnd
1001
DSTP_XDATA
1002
{
1002
}
0
BLOCK
5
111
100
AcDbEntity
8
0
100
AcDbBlockBegin
2
EL_VL_DIAGRAM_QF1
70
2
10
0
20
0
30
0
3
EL_VL_DIAGRAM_QF1
1

0
LINE
5
112
100
AcDbEntity
8
TABLE
100
AcDbLine
6
ByLayer
10
-2.4974875000
20
-0.5000000000
30
0.0000000000
11
0.0025125000
21
-5.0000000000
31
0.0000000000
1001
DSTP_XDATA
1002
{
1000
_OWNERHANDLE=0000000064
1002
}
0
LINE
5
113
100
AcDbEntity
8
TABLE
100
AcDbLine
6
ByLayer
10
-0.4949745000
20
0.4949750000
30
0.0000000000
11
0.4949745000
21
-0.4949750000
31
0.0000000000
1001
DSTP_XDATA
1002
{
1000
_OWNERHANDLE=0000000064
1002
}
0
LINE
5
114
100
AcDbEntity
8
TABLE
100
AcDbLine
6
ByLayer
10
-0.4949745000
20
-0.4949750000
30
0.0000000000
11
0.4949745000
21
0.4949750000
31
0.0000000000
1001
DSTP_XDATA
1002
{
1000
_OWNERHANDLE=0000000064
1002
}
0
LINE
5
115
100
AcDbEntity
8
TABLE
100
AcDbLine
6
ByLayer
10
-1.7756785000
20
-1.8698180000
30
0.0000000000
11
-2.4712745000
21
-2.2649720000
31
0.0000000000
1001
DSTP_XDATA
1002
{
1000
_OWNERHANDLE=0000000064
1002
}
0
LINE
5
116
100
AcDbEntity
8
TABLE
100
AcDbLine
6
ByLayer
10
-2.4712745000
20
-2.2649720000
30
0.0000000000
11
-1.6809675000
21
-3.6561640000
31
0.0000000000
1001
DSTP_XDATA
1002
{
1000
_OWNERHANDLE=0000000064
1002
}
0
LINE
5
117
100
AcDbEntity
8
TABLE
100
AcDbLine
6
ByLayer
10
-1.6809675000
20
-3.6561640000
30
0.0000000000
11
-0.9853715000
21
-3.2610100000
31
0.0000000000
1001
DSTP_XDATA
1002
{
1000
_OWNERHANDLE=0000000064
1002
}
0
LINE
5
118
100
AcDbEntity
8
TABLE
100
AcDbLine
6
ByLayer
10
0.0025125000
20
-5.0000000000
30
0.0000000000
11
0.0025125000
21
-10.0000000000
31
0.0000000000
1001
DSTP_XDATA
1002
{
1000
_OWNERHANDLE=0000000064
1002
}
0
ENDBLK
5
119
100
AcDbEntity
8
0
100
AcDbBlockEnd
1001
DSTP_XDATA
1002
{
1002
}
0
BLOCK
5
11A
100
AcDbEntity
8
0
100
AcDbBlockBegin
2
DEVICE_EL_VL_DIAGRAM_QF1
70
2
10
0
20
0
30
0
3
DEVICE_EL_VL_DIAGRAM_QF1
1

0
MTEXT
5
11B
100
AcDbEntity
8
FORMAT
100
AcDbMText
6
ByLayer
10
-16.5000000000
20
5.0000000000
30
0.0000000000
40
3.0000000000
41
20.0000000000
71
6
1
??
7
MtXpl_ISOCPEUR
11
0.0000000000
21
1.0000000000
31
0.0000000000
73
2
44
0.9000000000
1001
DSTP_XDATA
1002
{
1000
_TMPL1=@@[VL_Mark]
1000
_OWNERHANDLE=0000000064
1002
}
0
MTEXT
5
11C
100
AcDbEntity
8
FORMAT
100
AcDbMText
6
ByLayer
10
-11.5000000000
20
5.0000000000
30
0.0000000000
40
3.0000000000
41
20.0000000000
71
6
1
??
7
MtXpl_ISOCPEUR
11
0.0000000000
21
1.0000000000
31
0.0000000000
73
2
44
0.9000000000
1001
DSTP_XDATA
1002
{
1000
_TMPL1=@@[VL_Type]
1000
_OWNERHANDLE=0000000064
1002
}
0
MTEXT
5
11D
100
AcDbEntity
8
FORMAT
100
AcDbMText
6
ByLayer
10
-6.5000000000
20
5.0000000000
30
0.0000000000
40
3.0000000000
41
20.0000000000
71
6
1
??
7
MtXpl_ISOCPEUR
11
0.0000000000
21
1.0000000000
31
0.0000000000
73
2
44
0.9000000000
1001
DSTP_XDATA
1002
{
1000
_TMPL1=@@[VL_Data]
1000
_OWNERHANDLE=0000000064
1002
}
0
MTEXT
5
11E
100
AcDbEntity
8
FORMAT
100
AcDbMText
6
ByLayer
10
8.5000000000
20
5.0000000000
30
0.0000000000
40
2.5000000000
41
20.0000000000
71
6
1
??
7
MtXpl_ISOCPEUR
11
0.0000000000
21
1.0000000000
31
0.0000000000
73
2
44
0.9000000000
1001
DSTP_XDATA
1002
{
1000
_TMPL1=@@[VL_Term]
1000
_OWNERHANDLE=0000000064
1002
}
0
MTEXT
5
11F
100
AcDbEntity
8
FORMAT
100
AcDbMText
6
ByLayer
10
12.5000000000
20
5.0000000000
30
0.0000000000
40
2.5000000000
41
20.0000000000
71
6
1
??
7
MtXpl_ISOCPEUR
11
0.0000000000
21
1.0000000000
31
0.0000000000
73
2
44
0.9000000000
1001
DSTP_XDATA
1002
{
1000
_TMPL1=@@[VL_ElMag]
1000
_OWNERHANDLE=0000000064
1002
}
0
LINE
5
120
100
AcDbEntity
8
TABLE
100
AcDbLine
6
ByLayer
10
5.0025125000
20
0.0000000000
30
0.0000000000
11
5.0025125000
21
-10.0000000000
31
0.0000000000
1001
DSTP_XDATA
1002
{
1000
_OWNERHANDLE=0000000064
1000
LCGoodLayer=TABLE
1000
LCBadLayer=SYS_METRIC
1000
LCExpression=VL_Busbar>2
1002
}
0
LINE
5
121
100
AcDbEntity
8
TABLE
100
AcDbLine
6
ByLayer
10
2.5025125000
20
0.0000000000
30
0.0000000000
11
2.5025125000
21
-10.0000000000
31
0.0000000000
1001
DSTP_XDATA
1002
{
1000
_OWNERHANDLE=0000000064
1000
LCGoodLayer=TABLE
1000
LCBadLayer=SYS_METRIC
1000
LCExpression=VL_Busbar>1
1002
}
0
ENDBLK
5
122
100
AcDbEntity
8
0
100
AcDbBlockEnd
1001
DSTP_XDATA
1002
{
1002
}
0
BLOCK
5
123
100
AcDbEntity
8
0
100
AcDbBlockBegin
2
EL_VL_DIAGRAM_QF3
70
2
10
0
20
0
30
0
3
EL_VL_DIAGRAM_QF3
1

0
LINE
5
124
100
AcDbEntity
8
TABLE
100
AcDbLine
6
ByLayer
10
15.0037675000
20
-25.0000000000
30
0.0000000000
11
15.0037675000
21
-40.0000000000
31
0.0000000000
1001
DSTP_XDATA
1002
{
1000
_OWNERHANDLE=0000000064
1002
}
0
LINE
5
125
100
AcDbEntity
8
TABLE
100
AcDbLine
6
ByLayer
10
15.0000000000
20
0.0000000000
30
0.0000000000
11
15.0000000000
21
-20.0000000000
31
0.0000000000
1001
DSTP_XDATA
1002
{
1000
_OWNERHANDLE=0000000064
1002
}
0
LINE
5
126
100
AcDbEntity
8
TABLE
100
AcDbLine
6
ByLayer
10
0.0000000000
20
0.0000000000
30
0.0000000000
11
20.0000000000
21
0.0000000000
31
0.0000000000
1001
DSTP_XDATA
1002
{
1000
_OWNERHANDLE=0000000064
1002
}
0
LINE
5
127
100
AcDbEntity
8
TABLE
100
AcDbLine
6
ByLayer
10
15.0037675000
20
-40.0000000000
30
0.0000000000
11
40.0000000000
21
-40.0000000000
31
0.0000000000
1001
DSTP_XDATA
1002
{
1000
_OWNERHANDLE=0000000064
1002
}
0
CIRCLE
5
128
100
AcDbEntity
8
TABLE
100
AcDbCircle
6
ByLayer
10
15.0000000000
20
0.0000000000
30
0.0000000000
40
0.5000000000
1001
DSTP_XDATA
1002
{
1000
_OWNERHANDLE=0000000064
1002
}
0
LINE
5
129
100
AcDbEntity
8
TABLE
100
AcDbLine
6
ByLayer
10
40.0000000000
20
0.0000000000
30
0.0000000000
11
40.0037675000
21
-40.0000000000
31
0.0000000000
1001
DSTP_XDATA
1002
{
1000
_OWNERHANDLE=0000000064
1002
}
0
LINE
5
12A
100
AcDbEntity
8
TABLE
100
AcDbLine
6
ByLayer
10
25.0000000000
20
0.0000000000
30
0.0000000000
11
50.0000000000
21
0.0000000000
31
0.0000000000
1001
DSTP_XDATA
1002
{
1000
_OWNERHANDLE=0000000064
1002
}
0
CIRCLE
5
12B
100
AcDbEntity
8
TABLE
100
AcDbCircle
6
ByLayer
10
40.0000000000
20
0.0000000000
30
0.0000000000
40
0.5000000000
1001
DSTP_XDATA
1002
{
1000
_OWNERHANDLE=0000000064
1002
}
0
LINE
5
12C
100
AcDbEntity
8
TABLE
100
AcDbLine
6
ByLayer
10
12.5000000275
20
-20.4999999983
30
0.0000000000
11
15.0000000275
21
-24.9999999983
31
0.0000000000
1001
DSTP_XDATA
1002
{
1000
_OWNERHANDLE=0000000064
1002
}
0
LINE
5
12D
100
AcDbEntity
8
TABLE
100
AcDbLine
6
ByLayer
10
13.2218090275
20
-21.8698179983
30
0.0000000000
11
12.5262130275
21
-22.2649719983
31
0.0000000000
1001
DSTP_XDATA
1002
{
1000
_OWNERHANDLE=0000000064
1002
}
0
LINE
5
12E
100
AcDbEntity
8
TABLE
100
AcDbLine
6
ByLayer
10
12.5262130275
20
-22.2649719983
30
0.0000000000
11
13.3165200275
21
-23.6561639983
31
0.0000000000
1001
DSTP_XDATA
1002
{
1000
_OWNERHANDLE=0000000064
1002
}
0
LINE
5
12F
100
AcDbEntity
8
TABLE
100
AcDbLine
6
ByLayer
10
13.3165200275
20
-23.6561639983
30
0.0000000000
11
14.0121160275
21
-23.2610099983
31
0.0000000000
1001
DSTP_XDATA
1002
{
1000
_OWNERHANDLE=0000000064
1002
}
0
LINE
5
130
100
AcDbEntity
8
TABLE
100
AcDbLine
6
ByLayer
10
14.5025130275
20
-19.5050249983
30
0.0000000000
11
15.4924620275
21
-20.4949749983
31
0.0000000000
1001
DSTP_XDATA
1002
{
1000
_OWNERHANDLE=0000000064
1002
}
0
LINE
5
131
100
AcDbEntity
8
TABLE
100
AcDbLine
6
ByLayer
10
14.5025130275
20
-20.4949749983
30
0.0000000000
11
15.4924620275
21
-19.5050249983
31
0.0000000000
1001
DSTP_XDATA
1002
{
1000
_OWNERHANDLE=0000000064
1002
}
0
ENDBLK
5
132
100
AcDbEntity
8
0
100
AcDbBlockEnd
1001
DSTP_XDATA
1002
{
1002
}
0
BLOCK
5
133
100
AcDbEntity
8
0
100
AcDbBlockBegin
2
DEVICE_EL_VL_DIAGRAM_QF3
70
2
10
0
20
0
30
0
3
DEVICE_EL_VL_DIAGRAM_QF3
1

0
MTEXT
5
134
100
AcDbEntity
8
FORMAT
100
AcDbMText
6
ByLayer
10
-1.5000000000
20
-15.0000000000
30
0.0000000000
40
3.0000000000
41
20.0000000000
71
6
1
??
7
MtXpl_ISOCPEUR
11
0.0000000000
21
1.0000000000
31
0.0000000000
73
2
44
0.9000000000
1001
DSTP_XDATA
1002
{
1000
_TMPL1=@@[VL_Mark]
1000
_OWNERHANDLE=0000000064
1002
}
0
MTEXT
5
135
100
AcDbEntity
8
FORMAT
100
AcDbMText
6
ByLayer
10
3.5000000000
20
-15.0000000000
30
0.0000000000
40
3.0000000000
41
20.0000000000
71
6
1
??
7
MtXpl_ISOCPEUR
11
0.0000000000
21
1.0000000000
31
0.0000000000
73
2
44
0.9000000000
1001
DSTP_XDATA
1002
{
1000
_TMPL1=@@[VL_Type]
1000
_OWNERHANDLE=0000000064
1002
}
0
MTEXT
5
136
100
AcDbEntity
8
FORMAT
100
AcDbMText
6
ByLayer
10
8.5000000000
20
-15.0000000000
30
0.0000000000
40
3.0000000000
41
20.0000000000
71
6
1
??
7
MtXpl_ISOCPEUR
11
0.0000000000
21
1.0000000000
31
0.0000000000
73
2
44
0.9000000000
1001
DSTP_XDATA
1002
{
1000
_TMPL1=@@[VL_Data]
1000
_OWNERHANDLE=0000000064
1002
}
0
MTEXT
5
137
100
AcDbEntity
8
FORMAT
100
AcDbMText
6
ByLayer
10
17.5000000000
20
-15.0000000000
30
0.0000000000
40
2.5000000000
41
20.0000000000
71
6
1
??
7
MtXpl_ISOCPEUR
11
0.0000000000
21
1.0000000000
31
0.0000000000
73
2
44
0.9000000000
1001
DSTP_XDATA
1002
{
1000
_TMPL1=@@[VL_Term]
1000
_OWNERHANDLE=0000000064
1002
}
0
MTEXT
5
138
100
AcDbEntity
8
FORMAT
100
AcDbMText
6
ByLayer
10
22.5000000000
20
-15.0000000000
30
0.0000000000
40
2.5000000000
41
20.0000000000
71
6
1
??
7
MtXpl_ISOCPEUR
11
0.0000000000
21
1.0000000000
31
0.0000000000
73
2
44
0.9000000000
1001
DSTP_XDATA
1002
{
1000
_TMPL1=@@[VL_ElMag]
1000
_OWNERHANDLE=0000000064
1002
}
0
LINE
5
139
100
AcDbEntity
8
TABLE
100
AcDbLine
6
ByLayer
10
0.0000000000
20
-10.0000000000
30
0.0000000000
11
50.0000000000
21
-10.0000000000
31
0.0000000000
1001
DSTP_XDATA
1002
{
1000
_OWNERHANDLE=0000000064
1000
LCGoodLayer=TABLE
1000
LCBadLayer=SYS_METRIC
1000
LCExpression=VL_Busbar>2
1002
}
0
LINE
5
13A
100
AcDbEntity
8
TABLE
100
AcDbLine
6
ByLayer
10
0.0000000000
20
-5.0000000000
30
0.0000000000
11
50.0000000000
21
-5.0000000000
31
0.0000000000
1001
DSTP_XDATA
1002
{
1000
_OWNERHANDLE=0000000064
1000
LCGoodLayer=TABLE
1000
LCBadLayer=SYS_METRIC
1000
LCExpression=VL_Busbar>1
1002
}
0
ENDBLK
5
13B
100
AcDbEntity
8
0
100
AcDbBlockEnd
1001
DSTP_XDATA
1002
{
1002
}
0
BLOCK
5
13C
100
AcDbEntity
8
0
100
AcDbBlockBegin
2
EL_VL_DIAGRAM_QF2
70
2
10
0
20
0
30
0
3
EL_VL_DIAGRAM_QF2
1

0
LINE
5
13D
100
AcDbEntity
8
TABLE
100
AcDbLine
6
ByLayer
10
0.0000000000
20
-5.0003350000
30
0.0000000000
11
0.0000000000
21
-15.0000000000
31
0.0000000000
1001
DSTP_XDATA
1002
{
1000
_OWNERHANDLE=0000000064
1002
}
0
LINE
5
13E
100
AcDbEntity
8
TABLE
100
AcDbLine
6
ByLayer
10
-2.5000000000
20
-0.5003350000
30
0.0000000000
11
0.0000000000
21
-5.0003350000
31
0.0000000000
1001
DSTP_XDATA
1002
{
1000
_OWNERHANDLE=0000000064
1002
}
0
LINE
5
13F
100
AcDbEntity
8
TABLE
100
AcDbLine
6
ByLayer
10
-2.0000000000
20
-10.0003350000
30
0.0000000000
11
-4.0000000000
21
-10.0003350000
31
0.0000000000
1001
DSTP_XDATA
1002
{
1000
_OWNERHANDLE=0000000064
1002
}
0
LINE
5
140
100
AcDbEntity
8
TABLE
100
AcDbLine
6
ByLayer
10
-4.0000000000
20
-10.0003350000
30
0.0000000000
11
-4.0000000000
21
-3.0003350000
31
0.0000000000
1001
DSTP_XDATA
1002
{
1000
_OWNERHANDLE=0000000064
1002
}
0
LINE
5
141
100
AcDbEntity
8
TABLE
100
AcDbLine
6
ByLayer
10
-4.0000000000
20
-3.0003350000
30
0.0000000000
11
-2.0562330000
21
-3.0003350000
31
0.0000000000
1001
DSTP_XDATA
1002
{
1000
_OWNERHANDLE=0000000064
1002
}
0
LINE
5
142
100
AcDbEntity
8
TABLE
100
AcDbLine
6
ByLayer
10
-1.7781910000
20
-1.8701530000
30
0.0000000000
11
-2.4737870000
21
-2.2653070000
31
0.0000000000
1001
DSTP_XDATA
1002
{
1000
_OWNERHANDLE=0000000064
1002
}
0
LINE
5
143
100
AcDbEntity
8
TABLE
100
AcDbLine
6
ByLayer
10
-2.4737870000
20
-2.2653070000
30
0.0000000000
11
-1.6834800000
21
-3.6564990000
31
0.0000000000
1001
DSTP_XDATA
1002
{
1000
_OWNERHANDLE=0000000064
1002
}
0
LINE
5
144
100
AcDbEntity
8
TABLE
100
AcDbLine
6
ByLayer
10
-1.6834800000
20
-3.6564990000
30
0.0000000000
11
-0.9878840000
21
-3.2613450000
31
0.0000000000
1001
DSTP_XDATA
1002
{
1000
_OWNERHANDLE=0000000064
1002
}
0
ELLIPSE
5
145
100
AcDbEntity
8
TABLE
100
AcDbEllipse
6
ByLayer
10
1.0000000000
20
-10.0003350000
30
0.0000000000
11
-3.0000000000
21
0.0000000000
31
0.0000000000
40
0.3334450000
41
0.0000000000
42
6.2831853072
1001
DSTP_XDATA
1002
{
1000
_OWNERHANDLE=0000000064
1002
}
0
ENDBLK
5
146
100
AcDbEntity
8
0
100
AcDbBlockEnd
1001
DSTP_XDATA
1002
{
1002
}
0
BLOCK
5
147
100
AcDbEntity
8
0
100
AcDbBlockBegin
2
DEVICE_EL_VL_DIAGRAM_QF2
70
2
10
0
20
0
30
0
3
DEVICE_EL_VL_DIAGRAM_QF2
1

0
MTEXT
5
148
100
AcDbEntity
8
FORMAT
100
AcDbMText
6
ByLayer
10
-16.5000000000
20
-15.0000000000
30
0.0000000000
40
3.0000000000
41
15.0025125000
71
6
1
??
7
MtXpl_ISOCPEUR
11
0.0000000000
21
1.0000000000
31
0.0000000000
73
2
44
0.9000000000
1001
DSTP_XDATA
1002
{
1000
_TMPL1=@@[VL_Mark]
1000
_OWNERHANDLE=0000000064
1002
}
0
MTEXT
5
149
100
AcDbEntity
8
FORMAT
100
AcDbMText
6
ByLayer
10
-11.5000000000
20
-15.0000000000
30
0.0000000000
40
3.0000000000
41
15.0025125000
71
6
1
??
7
MtXpl_ISOCPEUR
11
0.0000000000
21
1.0000000000
31
0.0000000000
73
2
44
0.9000000000
1001
DSTP_XDATA
1002
{
1000
_TMPL1=@@[VL_Type]
1000
_OWNERHANDLE=0000000064
1002
}
0
MTEXT
5
14A
100
AcDbEntity
8
FORMAT
100
AcDbMText
6
ByLayer
10
-6.5000000000
20
-15.0000000000
30
0.0000000000
40
3.0000000000
41
15.0025125000
71
6
1
??
7
MtXpl_ISOCPEUR
11
0.0000000000
21
1.0000000000
31
0.0000000000
73
2
44
0.9000000000
1001
DSTP_XDATA
1002
{
1000
_TMPL1=@@[VL_Data]
1000
_OWNERHANDLE=0000000064
1002
}
0
LINE
5
14B
100
AcDbEntity
8
TABLE
100
AcDbLine
6
ByLayer
10
5.0000000000
20
0.0000000000
30
0.0000000000
11
5.0000000000
21
-15.0000000000
31
0.0000000000
1001
DSTP_XDATA
1002
{
1000
_OWNERHANDLE=0000000064
1000
LCGoodLayer=TABLE
1000
LCBadLayer=SYS_METRIC
1000
LCExpression=VL_Busbar>2
1002
}
0
LINE
5
14C
100
AcDbEntity
8
TABLE
100
AcDbLine
6
ByLayer
10
0.0000000000
20
-0.5003350000
30
0.0000000000
11
2.5000000000
21
-5.0003350000
31
0.0000000000
1001
DSTP_XDATA
1002
{
1000
_OWNERHANDLE=0000000064
1000
LCGoodLayer=TABLE
1000
LCBadLayer=SYS_METRIC
1000
LCExpression=VL_Busbar>1
1002
}
0
LINE
5
14D
100
AcDbEntity
8
TABLE
100
AcDbLine
6
ByLayer
10
2.5000000000
20
-5.0003350000
30
0.0000000000
11
2.5000000000
21
-15.0000000000
31
0.0000000000
1001
DSTP_XDATA
1002
{
1000
_OWNERHANDLE=0000000064
1000
LCGoodLayer=TABLE
1000
LCBadLayer=SYS_METRIC
1000
LCExpression=VL_Busbar>1
1002
}
0
ENDBLK
5
14E
100
AcDbEntity
8
0
100
AcDbBlockEnd
1001
DSTP_XDATA
1002
{
1002
}
0
BLOCK
5
14F
100
AcDbEntity
8
0
100
AcDbBlockBegin
2
EL_VL_DIAGRAM_QS1
70
2
10
0
20
0
30
0
3
EL_VL_DIAGRAM_QS1
1

0
LINE
5
150
100
AcDbEntity
8
TABLE
100
AcDbLine
6
ByLayer
10
-2.4974875000
20
-0.5000000000
30
0.0000000000
11
0.0025125000
21
-5.0000000000
31
0.0000000000
1001
DSTP_XDATA
1002
{
1000
_OWNERHANDLE=0000000064
1002
}
0
LINE
5
151
100
AcDbEntity
8
TABLE
100
AcDbLine
6
ByLayer
10
-0.4949745000
20
0.4949750000
30
0.0000000000
11
0.4949745000
21
-0.4949750000
31
0.0000000000
1001
DSTP_XDATA
1002
{
1000
_OWNERHANDLE=0000000064
1002
}
0
LINE
5
152
100
AcDbEntity
8
TABLE
100
AcDbLine
6
ByLayer
10
-0.4949745000
20
-0.4949750000
30
0.0000000000
11
0.4949745000
21
0.4949750000
31
0.0000000000
1001
DSTP_XDATA
1002
{
1000
_OWNERHANDLE=0000000064
1002
}
0
LINE
5
153
100
AcDbEntity
8
TABLE
100
AcDbLine
6
ByLayer
10
0.0025125000
20
-5.0000000000
30
0.0000000000
11
0.0025125000
21
-10.0000000000
31
0.0000000000
1001
DSTP_XDATA
1002
{
1000
_OWNERHANDLE=0000000064
1002
}
0
ENDBLK
5
154
100
AcDbEntity
8
0
100
AcDbBlockEnd
1001
DSTP_XDATA
1002
{
1002
}
0
BLOCK
5
155
100
AcDbEntity
8
0
100
AcDbBlockBegin
2
DEVICE_EL_VL_DIAGRAM_QS1
70
2
10
0
20
0
30
0
3
DEVICE_EL_VL_DIAGRAM_QS1
1

0
MTEXT
5
156
100
AcDbEntity
8
FORMAT
100
AcDbMText
6
ByLayer
10
-16.5000000000
20
5.0000000000
30
0.0000000000
40
3.0000000000
41
20.0000000000
71
6
1
??
7
MtXpl_ISOCPEUR
11
0.0000000000
21
1.0000000000
31
0.0000000000
73
2
44
0.9000000000
1001
DSTP_XDATA
1002
{
1000
_TMPL1=@@[VL_Mark]
1000
_OWNERHANDLE=0000000064
1002
}
0
MTEXT
5
157
100
AcDbEntity
8
FORMAT
100
AcDbMText
6
ByLayer
10
-11.5000000000
20
5.0000000000
30
0.0000000000
40
3.0000000000
41
20.0000000000
71
6
1
??
7
MtXpl_ISOCPEUR
11
0.0000000000
21
1.0000000000
31
0.0000000000
73
2
44
0.9000000000
1001
DSTP_XDATA
1002
{
1000
_TMPL1=@@[VL_Type]
1000
_OWNERHANDLE=0000000064
1002
}
0
MTEXT
5
158
100
AcDbEntity
8
FORMAT
100
AcDbMText
6
ByLayer
10
-6.5000000000
20
5.0000000000
30
0.0000000000
40
3.0000000000
41
20.0000000000
71
6
1
??
7
MtXpl_ISOCPEUR
11
0.0000000000
21
1.0000000000
31
0.0000000000
73
2
44
0.9000000000
1001
DSTP_XDATA
1002
{
1000
_TMPL1=@@[VL_Data]
1000
_OWNERHANDLE=0000000064
1002
}
0
LINE
5
159
100
AcDbEntity
8
TABLE
100
AcDbLine
6
ByLayer
10
2.5025125000
20
0.0000000000
30
0.0000000000
11
2.5025125000
21
-10.0000000000
31
0.0000000000
1001
DSTP_XDATA
1002
{
1000
_OWNERHANDLE=0000000064
1000
LCGoodLayer=TABLE
1000
LCBadLayer=SYS_METRIC
1000
LCExpression=VL_Busbar>1
1002
}
0
LINE
5
15A
100
AcDbEntity
8
TABLE
100
AcDbLine
6
ByLayer
10
5.0025125000
20
0.0000000000
30
0.0000000000
11
5.0025125000
21
-10.0000000000
31
0.0000000000
1001
DSTP_XDATA
1002
{
1000
_OWNERHANDLE=0000000064
1000
LCGoodLayer=TABLE
1000
LCBadLayer=SYS_METRIC
1000
LCExpression=VL_Busbar>2
1002
}
0
ENDBLK
5
15B
100
AcDbEntity
8
0
100
AcDbBlockEnd
1001
DSTP_XDATA
1002
{
1002
}
0
BLOCK
5
15C
100
AcDbEntity
8
0
100
AcDbBlockBegin
2
EL_VL_DIAGRAM_QS2
70
2
10
0
20
0
30
0
3
EL_VL_DIAGRAM_QS2
1

0
LINE
5
15D
100
AcDbEntity
8
TABLE
100
AcDbLine
6
ByLayer
10
0.0000000000
20
-5.0000000000
30
0.0000000000
11
0.0000000000
21
-15.0000000000
31
0.0000000000
1001
DSTP_XDATA
1002
{
1000
_OWNERHANDLE=0000000064
1002
}
0
LINE
5
15E
100
AcDbEntity
8
TABLE
100
AcDbLine
6
ByLayer
10
-2.5000000000
20
-0.5000000000
30
0.0000000000
11
0.0000000000
21
-5.0000000000
31
0.0000000000
1001
DSTP_XDATA
1002
{
1000
_OWNERHANDLE=0000000064
1002
}
0
LINE
5
15F
100
AcDbEntity
8
TABLE
100
AcDbLine
6
ByLayer
10
-2.0000000000
20
-10.0000000000
30
0.0000000000
11
-4.0000000000
21
-10.0000000000
31
0.0000000000
1001
DSTP_XDATA
1002
{
1000
_OWNERHANDLE=0000000064
1002
}
0
LINE
5
160
100
AcDbEntity
8
TABLE
100
AcDbLine
6
ByLayer
10
-4.0000000000
20
-10.0000000000
30
0.0000000000
11
-4.0000000000
21
-3.0000000000
31
0.0000000000
1001
DSTP_XDATA
1002
{
1000
_OWNERHANDLE=0000000064
1002
}
0
LINE
5
161
100
AcDbEntity
8
TABLE
100
AcDbLine
6
ByLayer
10
-4.0000000000
20
-3.0000000000
30
0.0000000000
11
-2.0562330000
21
-3.0000000000
31
0.0000000000
1001
DSTP_XDATA
1002
{
1000
_OWNERHANDLE=0000000064
1002
}
0
LINE
5
162
100
AcDbEntity
8
TABLE
100
AcDbLine
6
ByLayer
10
-2.0562330000
20
-3.0000000000
30
0.0000000000
11
-1.1085980000
21
-3.0000000000
31
0.0000000000
1001
DSTP_XDATA
1002
{
1000
_OWNERHANDLE=0000000064
1002
}
0
ELLIPSE
5
163
100
AcDbEntity
8
TABLE
100
AcDbEllipse
6
ByLayer
10
0.9999999463
20
-10.0000001020
30
0.0000000000
11
3.0000000000
21
0.0000000000
31
0.0000000000
40
0.3333333333
41
0.0000000000
42
6.2831853072
1001
DSTP_XDATA
1002
{
1000
_OWNERHANDLE=0000000064
1002
}
0
ENDBLK
5
164
100
AcDbEntity
8
0
100
AcDbBlockEnd
1001
DSTP_XDATA
1002
{
1002
}
0
BLOCK
5
165
100
AcDbEntity
8
0
100
AcDbBlockBegin
2
DEVICE_EL_VL_DIAGRAM_QS2
70
2
10
0
20
0
30
0
3
DEVICE_EL_VL_DIAGRAM_QS2
1

0
MTEXT
5
166
100
AcDbEntity
8
FORMAT
100
AcDbMText
6
ByLayer
10
-16.5000000000
20
-15.0000000000
30
0.0000000000
40
3.0000000000
41
20.0000000000
71
6
1
??
7
MtXpl_ISOCPEUR
11
0.0000000000
21
1.0000000000
31
0.0000000000
73
2
44
0.9000000000
1001
DSTP_XDATA
1002
{
1000
_TMPL1=@@[VL_Mark]
1000
_OWNERHANDLE=0000000064
1002
}
0
MTEXT
5
167
100
AcDbEntity
8
FORMAT
100
AcDbMText
6
ByLayer
10
-11.5000000000
20
-15.0000000000
30
0.0000000000
40
3.0000000000
41
20.0000000000
71
6
1
??
7
MtXpl_ISOCPEUR
11
0.0000000000
21
1.0000000000
31
0.0000000000
73
2
44
0.9000000000
1001
DSTP_XDATA
1002
{
1000
_TMPL1=@@[VL_Type]
1000
_OWNERHANDLE=0000000064
1002
}
0
MTEXT
5
168
100
AcDbEntity
8
FORMAT
100
AcDbMText
6
ByLayer
10
-6.5000000000
20
-15.0000000000
30
0.0000000000
40
3.0000000000
41
20.0000000000
71
6
1
??
7
MtXpl_ISOCPEUR
11
0.0000000000
21
1.0000000000
31
0.0000000000
73
2
44
0.9000000000
1001
DSTP_XDATA
1002
{
1000
_TMPL1=@@[VL_Data]
1000
_OWNERHANDLE=0000000064
1002
}
0
LINE
5
169
100
AcDbEntity
8
TABLE
100
AcDbLine
6
ByLayer
10
5.0000000000
20
0.0000000000
30
0.0000000000
11
5.0000000000
21
-15.0000000000
31
0.0000000000
1001
DSTP_XDATA
1002
{
1000
_OWNERHANDLE=0000000064
1000
LCGoodLayer=TABLE
1000
LCBadLayer=SYS_METRIC
1000
LCExpression=VL_Busbar>2
1002
}
0
LINE
5
16A
100
AcDbEntity
8
TABLE
100
AcDbLine
6
ByLayer
10
0.0000000000
20
-0.5000000000
30
0.0000000000
11
2.5000000000
21
-5.0000000000
31
0.0000000000
1001
DSTP_XDATA
1002
{
1000
_OWNERHANDLE=0000000064
1000
LCGoodLayer=TABLE
1000
LCBadLayer=SYS_METRIC
1000
LCExpression=VL_Busbar>1
1002
}
0
LINE
5
16B
100
AcDbEntity
8
TABLE
100
AcDbLine
6
ByLayer
10
2.5000000000
20
-5.0000000000
30
0.0000000000
11
2.5000000000
21
-15.0000000000
31
0.0000000000
1001
DSTP_XDATA
1002
{
1000
_OWNERHANDLE=0000000064
1000
LCGoodLayer=TABLE
1000
LCBadLayer=SYS_METRIC
1000
LCExpression=VL_Busbar>1
1002
}
0
ENDBLK
5
16C
100
AcDbEntity
8
0
100
AcDbBlockEnd
1001
DSTP_XDATA
1002
{
1002
}
0
BLOCK
5
16D
100
AcDbEntity
8
0
100
AcDbBlockBegin
2
EL_VL_DIAGRAM_QS3
70
2
10
0
20
0
30
0
3
EL_VL_DIAGRAM_QS3
1

0
LINE
5
16E
100
AcDbEntity
8
TABLE
100
AcDbLine
6
ByLayer
10
12.5047095000
20
-20.5000000000
30
0.0000000000
11
15.0037675000
21
-25.0000000000
31
0.0000000000
1001
DSTP_XDATA
1002
{
1000
_OWNERHANDLE=0000000064
1002
}
0
LINE
5
16F
100
AcDbEntity
8
TABLE
100
AcDbLine
6
ByLayer
10
14.5052115000
20
-19.5050250000
30
0.0000000000
11
15.4947885000
21
-20.4949750000
31
0.0000000000
1001
DSTP_XDATA
1002
{
1000
_OWNERHANDLE=0000000064
1002
}
0
LINE
5
170
100
AcDbEntity
8
TABLE
100
AcDbLine
6
ByLayer
10
14.5052115000
20
-20.4949750000
30
0.0000000000
11
15.4947885000
21
-19.5050250000
31
0.0000000000
1001
DSTP_XDATA
1002
{
1000
_OWNERHANDLE=0000000064
1002
}
0
LINE
5
171
100
AcDbEntity
8
TABLE
100
AcDbLine
6
ByLayer
10
15.0037675000
20
-25.0000000000
30
0.0000000000
11
15.0037675000
21
-40.0000000000
31
0.0000000000
1001
DSTP_XDATA
1002
{
1000
_OWNERHANDLE=0000000064
1002
}
0
LINE
5
172
100
AcDbEntity
8
TABLE
100
AcDbLine
6
ByLayer
10
15.0000000000
20
0.0000000000
30
0.0000000000
11
15.0000000000
21
-20.0000000000
31
0.0000000000
1001
DSTP_XDATA
1002
{
1000
_OWNERHANDLE=0000000064
1002
}
0
LINE
5
173
100
AcDbEntity
8
TABLE
100
AcDbLine
6
ByLayer
10
0.0000000000
20
0.0000000000
30
0.0000000000
11
20.0000000000
21
0.0000000000
31
0.0000000000
1001
DSTP_XDATA
1002
{
1000
_OWNERHANDLE=0000000064
1002
}
0
LINE
5
174
100
AcDbEntity
8
TABLE
100
AcDbLine
6
ByLayer
10
15.0037675000
20
-40.0000000000
30
0.0000000000
11
40.0000000000
21
-40.0000000000
31
0.0000000000
1001
DSTP_XDATA
1002
{
1000
_OWNERHANDLE=0000000064
1002
}
0
CIRCLE
5
175
100
AcDbEntity
8
TABLE
100
AcDbCircle
6
ByLayer
10
15.0000000000
20
0.0000000000
30
0.0000000000
40
0.5000000000
1001
DSTP_XDATA
1002
{
1000
_OWNERHANDLE=0000000064
1002
}
0
LINE
5
176
100
AcDbEntity
8
TABLE
100
AcDbLine
6
ByLayer
10
40.0000000000
20
0.0000000000
30
0.0000000000
11
40.0037675000
21
-40.0000000000
31
0.0000000000
1001
DSTP_XDATA
1002
{
1000
_OWNERHANDLE=0000000064
1002
}
0
LINE
5
177
100
AcDbEntity
8
TABLE
100
AcDbLine
6
ByLayer
10
30.0000000000
20
0.0000000000
30
0.0000000000
11
50.0000000000
21
0.0000000000
31
0.0000000000
1001
DSTP_XDATA
1002
{
1000
_OWNERHANDLE=0000000064
1002
}
0
CIRCLE
5
178
100
AcDbEntity
8
TABLE
100
AcDbCircle
6
ByLayer
10
40.0000000000
20
0.0000000000
30
0.0000000000
40
0.5000000000
1001
DSTP_XDATA
1002
{
1000
_OWNERHANDLE=0000000064
1002
}
0
ENDBLK
5
179
100
AcDbEntity
8
0
100
AcDbBlockEnd
1001
DSTP_XDATA
1002
{
1002
}
0
BLOCK
5
17A
100
AcDbEntity
8
0
100
AcDbBlockBegin
2
DEVICE_EL_VL_DIAGRAM_QS3
70
2
10
0
20
0
30
0
3
DEVICE_EL_VL_DIAGRAM_QS3
1

0
MTEXT
5
17B
100
AcDbEntity
8
FORMAT
100
AcDbMText
6
ByLayer
10
-1.5000000000
20
-15.0000000000
30
0.0000000000
40
3.0000000000
41
20.0000000000
71
6
1
??
7
MtXpl_ISOCPEUR
11
0.0000000000
21
1.0000000000
31
0.0000000000
73
2
44
0.9000000000
1001
DSTP_XDATA
1002
{
1000
_TMPL1=@@[VL_Mark]
1000
_OWNERHANDLE=0000000064
1002
}
0
MTEXT
5
17C
100
AcDbEntity
8
FORMAT
100
AcDbMText
6
ByLayer
10
3.5000000000
20
-15.0000000000
30
0.0000000000
40
3.0000000000
41
20.0000000000
71
6
1
??
7
MtXpl_ISOCPEUR
11
0.0000000000
21
1.0000000000
31
0.0000000000
73
2
44
0.9000000000
1001
DSTP_XDATA
1002
{
1000
_TMPL1=@@[VL_Type]
1000
_OWNERHANDLE=0000000064
1002
}
0
MTEXT
5
17D
100
AcDbEntity
8
FORMAT
100
AcDbMText
6
ByLayer
10
8.5000000000
20
-15.0000000000
30
0.0000000000
40
3.0000000000
41
20.0000000000
71
6
1
??
7
MtXpl_ISOCPEUR
11
0.0000000000
21
1.0000000000
31
0.0000000000
73
2
44
0.9000000000
1001
DSTP_XDATA
1002
{
1000
_TMPL1=@@[VL_Data]
1000
_OWNERHANDLE=0000000064
1002
}
0
LINE
5
17E
100
AcDbEntity
8
TABLE
100
AcDbLine
6
ByLayer
10
0.0000000000
20
-10.0000000000
30
0.0000000000
11
50.0000000000
21
-10.0000000000
31
0.0000000000
1001
DSTP_XDATA
1002
{
1000
_OWNERHANDLE=0000000064
1000
LCGoodLayer=TABLE
1000
LCBadLayer=SYS_METRIC
1000
LCExpression=VL_Busbar>2
1002
}
0
LINE
5
17F
100
AcDbEntity
8
TABLE
100
AcDbLine
6
ByLayer
10
0.0000000000
20
-5.0000000000
30
0.0000000000
11
50.0000000000
21
-5.0000000000
31
0.0000000000
1001
DSTP_XDATA
1002
{
1000
_OWNERHANDLE=0000000064
1000
LCGoodLayer=TABLE
1000
LCBadLayer=SYS_METRIC
1000
LCExpression=VL_Busbar>1
1002
}
0
ENDBLK
5
180
100
AcDbEntity
8
0
100
AcDbBlockEnd
1001
DSTP_XDATA
1002
{
1002
}
0
BLOCK
5
181
100
AcDbEntity
8
0
100
AcDbBlockBegin
2
EL_VL_DIAGRAM_QS4
70
2
10
0
20
0
30
0
3
EL_VL_DIAGRAM_QS4
1

0
LINE
5
182
100
AcDbEntity
8
TABLE
100
AcDbLine
6
ByLayer
10
10.0000000000
20
0.0000000000
30
0.0000000000
11
0.0000000000
21
0.0000000000
31
0.0000000000
1001
DSTP_XDATA
1002
{
1000
_OWNERHANDLE=0000000064
1002
}
0
LINE
5
183
100
AcDbEntity
8
TABLE
100
AcDbLine
6
ByLayer
10
14.5000000000
20
-2.5000000000
30
0.0000000000
11
10.0000000000
21
0.0000000000
31
0.0000000000
1001
DSTP_XDATA
1002
{
1000
_OWNERHANDLE=0000000064
1002
}
0
LINE
5
184
100
AcDbEntity
8
TABLE
100
AcDbLine
6
ByLayer
10
13.9974875000
20
-2.0000000000
30
0.0000000000
11
13.9974875000
21
-4.0000000000
31
0.0000000000
1001
DSTP_XDATA
1002
{
1000
_OWNERHANDLE=0000000064
1002
}
0
LINE
5
185
100
AcDbEntity
8
TABLE
100
AcDbLine
6
ByLayer
10
13.9974875000
20
-4.0000000000
30
0.0000000000
11
19.9974875000
21
-4.0000000000
31
0.0000000000
1001
DSTP_XDATA
1002
{
1000
_OWNERHANDLE=0000000064
1002
}
0
LINE
5
186
100
AcDbEntity
8
TABLE
100
AcDbLine
6
ByLayer
10
13.9974875000
20
2.0000000000
30
0.0000000000
11
13.9974875000
21
4.0000000000
31
0.0000000000
1001
DSTP_XDATA
1002
{
1000
_OWNERHANDLE=0000000064
1002
}
0
LINE
5
187
100
AcDbEntity
8
TABLE
100
AcDbLine
6
ByLayer
10
13.9974875000
20
4.0000000000
30
0.0000000000
11
19.9974875000
21
4.0000000000
31
0.0000000000
1001
DSTP_XDATA
1002
{
1000
_OWNERHANDLE=0000000064
1002
}
0
LINE
5
188
100
AcDbEntity
8
TABLE
100
AcDbLine
6
ByLayer
10
17.0000000000
20
-4.0000000000
30
0.0000000000
11
17.0000000000
21
-10.0000000000
31
0.0000000000
1001
DSTP_XDATA
1002
{
1000
_OWNERHANDLE=0000000064
1002
}
0
LINE
5
189
100
AcDbEntity
8
TABLE
100
AcDbLine
6
ByLayer
10
17.0000000000
20
-10.0000000000
30
0.0000000000
11
0.0000000000
21
-10.0000000000
31
0.0000000000
1001
DSTP_XDATA
1002
{
1000
_OWNERHANDLE=0000000064
1002
}
0
CIRCLE
5
18A
100
AcDbEntity
8
TABLE
100
AcDbCircle
6
ByLayer
10
16.9974875000
20
-4.0000000000
30
0.0000000000
40
0.5000000000
1001
DSTP_XDATA
1002
{
1000
_OWNERHANDLE=0000000064
1002
}
0
ENDBLK
5
18B
100
AcDbEntity
8
0
100
AcDbBlockEnd
1001
DSTP_XDATA
1002
{
1002
}
0
BLOCK
5
18C
100
AcDbEntity
8
0
100
AcDbBlockBegin
2
DEVICE_EL_VL_DIAGRAM_QS4
70
2
10
0
20
0
30
0
3
DEVICE_EL_VL_DIAGRAM_QS4
1

0
MTEXT
5
18D
100
AcDbEntity
8
FORMAT
100
AcDbMText
6
ByLayer
10
8.5000000000
20
-12.0000000000
30
0.0000000000
40
3.0000000000
41
20.0000000000
71
6
1
??
7
MtXpl_ISOCPEUR
11
0.0000000000
21
1.0000000000
31
0.0000000000
73
2
44
0.9000000000
1001
DSTP_XDATA
1002
{
1000
_TMPL1=@@[VL_Mark]
1000
_OWNERHANDLE=0000000064
1002
}
0
MTEXT
5
18E
100
AcDbEntity
8
FORMAT
100
AcDbMText
6
ByLayer
10
13.5000000000
20
-12.0000000000
30
0.0000000000
40
3.0000000000
41
20.0000000000
71
6
1
??
7
MtXpl_ISOCPEUR
11
0.0000000000
21
1.0000000000
31
0.0000000000
73
2
44
0.9000000000
1001
DSTP_XDATA
1002
{
1000
_TMPL1=@@[VL_Type]
1000
_OWNERHANDLE=0000000064
1002
}
0
MTEXT
5
18F
100
AcDbEntity
8
FORMAT
100
AcDbMText
6
ByLayer
10
18.5000000000
20
-12.0000000000
30
0.0000000000
40
3.0000000000
41
20.0000000000
71
6
1
??
7
MtXpl_ISOCPEUR
11
0.0000000000
21
1.0000000000
31
0.0000000000
73
2
44
0.9000000000
1001
DSTP_XDATA
1002
{
1000
_TMPL1=@@[VL_Data]
1000
_OWNERHANDLE=0000000064
1002
}
0
LINE
5
190
100
AcDbEntity
8
TABLE
100
AcDbLine
6
ByLayer
10
5.0025125000
20
0.0000000000
30
0.0000000000
11
5.0025125000
21
-10.0000000000
31
0.0000000000
1001
DSTP_XDATA
1002
{
1000
_OWNERHANDLE=0000000064
1000
LCGoodLayer=TABLE
1000
LCBadLayer=SYS_METRIC
1000
LCExpression=VL_Busbar>2
1002
}
0
LINE
5
191
100
AcDbEntity
8
TABLE
100
AcDbLine
6
ByLayer
10
2.5025125000
20
0.0000000000
30
0.0000000000
11
2.5025125000
21
-10.0000000000
31
0.0000000000
1001
DSTP_XDATA
1002
{
1000
_OWNERHANDLE=0000000064
1000
LCGoodLayer=TABLE
1000
LCBadLayer=SYS_METRIC
1000
LCExpression=VL_Busbar>1
1002
}
0
ENDBLK
5
192
100
AcDbEntity
8
0
100
AcDbBlockEnd
1001
DSTP_XDATA
1002
{
1002
}
0
BLOCK
5
193
100
AcDbEntity
8
0
100
AcDbBlockBegin
2
EL_VL_DIAGRAM_QS5
70
2
10
0
20
0
30
0
3
EL_VL_DIAGRAM_QS5
1

0
LINE
5
194
100
AcDbEntity
8
TABLE
100
AcDbLine
6
ByLayer
10
-15.0000000000
20
0.0000000000
30
0.0000000000
11
0.0000000000
21
0.0000000000
31
0.0000000000
1001
DSTP_XDATA
1002
{
1000
_OWNERHANDLE=0000000064
1002
}
0
LINE
5
195
100
AcDbEntity
8
TABLE
100
AcDbLine
6
ByLayer
10
-19.0000000000
20
-2.0000000000
30
0.0000000000
11
-19.0000000000
21
-4.0000000000
31
0.0000000000
1001
DSTP_XDATA
1002
{
1000
_OWNERHANDLE=0000000064
1002
}
0
LINE
5
196
100
AcDbEntity
8
TABLE
100
AcDbLine
6
ByLayer
10
-19.0000000000
20
-4.0000000000
30
0.0000000000
11
-30.0000000000
21
-4.0000000000
31
0.0000000000
1001
DSTP_XDATA
1002
{
1000
_OWNERHANDLE=0000000064
1002
}
0
LINE
5
197
100
AcDbEntity
8
TABLE
100
AcDbLine
6
ByLayer
10
-19.0000000000
20
2.0000000000
30
0.0000000000
11
-19.0000000000
21
4.0000000000
31
0.0000000000
1001
DSTP_XDATA
1002
{
1000
_OWNERHANDLE=0000000064
1002
}
0
LINE
5
198
100
AcDbEntity
8
TABLE
100
AcDbLine
6
ByLayer
10
-19.0000000000
20
4.0000000000
30
0.0000000000
11
-30.0000000000
21
4.0000000000
31
0.0000000000
1001
DSTP_XDATA
1002
{
1000
_OWNERHANDLE=0000000064
1002
}
0
LINE
5
199
100
AcDbEntity
8
TABLE
100
AcDbLine
6
ByLayer
10
-22.0000000000
20
4.0000000000
30
0.0000000000
11
-22.0000000000
21
-10.0000000000
31
0.0000000000
1001
DSTP_XDATA
1002
{
1000
_OWNERHANDLE=0000000064
1002
}
0
LINE
5
19A
100
AcDbEntity
8
TABLE
100
AcDbLine
6
ByLayer
10
-22.0000000000
20
-10.0000000000
30
0.0000000000
11
0.0000000000
21
-10.0000000000
31
0.0000000000
1001
DSTP_XDATA
1002
{
1000
_OWNERHANDLE=0000000064
1002
}
0
CIRCLE
5
19B
100
AcDbEntity
8
TABLE
100
AcDbCircle
6
ByLayer
10
-22.0000000000
20
4.0000000000
30
0.0000000000
40
0.5000000000
1001
DSTP_XDATA
1002
{
1000
_OWNERHANDLE=0000000064
1002
}
0
LINE
5
19C
100
AcDbEntity
8
TABLE
100
AcDbLine
6
ByLayer
10
-19.5025125000
20
2.5000000000
30
0.0000000000
11
-15.0025125000
21
0.0000000000
31
0.0000000000
1001
DSTP_XDATA
1002
{
1000
_OWNERHANDLE=0000000064
1002
}
0
ENDBLK
5
19D
100
AcDbEntity
8
0
100
AcDbBlockEnd
1001
DSTP_XDATA
1002
{
1002
}
0
BLOCK
5
19E
100
AcDbEntity
8
0
100
AcDbBlockBegin
2
DEVICE_EL_VL_DIAGRAM_QS5
70
2
10
0
20
0
30
0
3
DEVICE_EL_VL_DIAGRAM_QS5
1

0
MTEXT
5
19F
100
AcDbEntity
8
FORMAT
100
AcDbMText
6
ByLayer
10
-16.5000000000
20
-12.0000000000
30
0.0000000000
40
3.0000000000
41
20.0000000000
71
6
1
??
7
MtXpl_ISOCPEUR
11
0.0000000000
21
1.0000000000
31
0.0000000000
73
2
44
0.9000000000
1001
DSTP_XDATA
1002
{
1000
_TMPL1=@@[VL_Mark]
1000
_OWNERHANDLE=0000000064
1002
}
0
MTEXT
5
1A0
100
AcDbEntity
8
FORMAT
100
AcDbMText
6
ByLayer
10
-11.5000000000
20
-12.0000000000
30
0.0000000000
40
3.0000000000
41
20.0000000000
71
6
1
??
7
MtXpl_ISOCPEUR
11
0.0000000000
21
1.0000000000
31
0.0000000000
73
2
44
0.9000000000
1001
DSTP_XDATA
1002
{
1000
_TMPL1=@@[VL_Type]
1000
_OWNERHANDLE=0000000064
1002
}
0
MTEXT
5
1A1
100
AcDbEntity
8
FORMAT
100
AcDbMText
6
ByLayer
10
-6.5000000000
20
-12.0000000000
30
0.0000000000
40
3.0000000000
41
20.0000000000
71
6
1
??
7
MtXpl_ISOCPEUR
11
0.0000000000
21
1.0000000000
31
0.0000000000
73
2
44
0.9000000000
1001
DSTP_XDATA
1002
{
1000
_TMPL1=@@[VL_Data]
1000
_OWNERHANDLE=0000000064
1002
}
0
LINE
5
1A2
100
AcDbEntity
8
TABLE
100
AcDbLine
6
ByLayer
10
2.5000000000
20
0.0000000000
30
0.0000000000
11
2.5000000000
21
-10.0000000000
31
0.0000000000
1001
DSTP_XDATA
1002
{
1000
_OWNERHANDLE=0000000064
1000
LCGoodLayer=TABLE
1000
LCBadLayer=SYS_METRIC
1000
LCExpression=VL_Busbar>1
1002
}
0
LINE
5
1A3
100
AcDbEntity
8
TABLE
100
AcDbLine
6
ByLayer
10
5.0000000000
20
0.0000000000
30
0.0000000000
11
5.0000000000
21
-10.0000000000
31
0.0000000000
1001
DSTP_XDATA
1002
{
1000
_OWNERHANDLE=0000000064
1000
LCGoodLayer=TABLE
1000
LCBadLayer=SYS_METRIC
1000
LCExpression=VL_Busbar>2
1002
}
0
ENDBLK
5
1A4
100
AcDbEntity
8
0
100
AcDbBlockEnd
1001
DSTP_XDATA
1002
{
1002
}
0
BLOCK
5
1A5
100
AcDbEntity
8
0
100
AcDbBlockBegin
2
EL_VL_DIAGRAM_QS6
70
2
10
0
20
0
30
0
3
EL_VL_DIAGRAM_QS6
1

0
LINE
5
1A6
100
AcDbEntity
8
TABLE
100
AcDbLine
6
ByLayer
10
0.0000000000
20
-7.5000000000
30
0.0000000000
11
0.0000000000
21
0.0000000000
31
0.0000000000
1001
DSTP_XDATA
1002
{
1000
_OWNERHANDLE=0000000064
1002
}
0
LINE
5
1A7
100
AcDbEntity
8
TABLE
100
AcDbLine
6
ByLayer
10
-15.0000000000
20
-15.5025125000
30
0.0000000000
11
-12.5000000000
21
-11.0025125000
31
0.0000000000
1001
DSTP_XDATA
1002
{
1000
_OWNERHANDLE=0000000064
1002
}
0
LINE
5
1A8
100
AcDbEntity
8
TABLE
100
AcDbLine
6
ByLayer
10
-14.5000000000
20
-15.0000000000
30
0.0000000000
11
-25.0000000000
21
-15.0000000000
31
0.0000000000
1001
DSTP_XDATA
1002
{
1000
_OWNERHANDLE=0000000064
1002
}
0
LINE
5
1A9
100
AcDbEntity
8
TABLE
100
AcDbLine
6
ByLayer
10
-25.0000000000
20
-15.0000000000
30
0.0000000000
11
-25.0000000000
21
-30.0000000000
31
0.0000000000
1001
DSTP_XDATA
1002
{
1000
_OWNERHANDLE=0000000064
1002
}
0
LINE
5
1AA
100
AcDbEntity
8
TABLE
100
AcDbLine
6
ByLayer
10
-10.5000000000
20
-15.0000000000
30
0.0000000000
11
0.0000000000
21
-15.0000000000
31
0.0000000000
1001
DSTP_XDATA
1002
{
1000
_OWNERHANDLE=0000000064
1002
}
0
LINE
5
1AB
100
AcDbEntity
8
TABLE
100
AcDbLine
6
ByLayer
10
0.0000000000
20
-15.0000000000
30
0.0000000000
11
0.0000000000
21
-30.0000000000
31
0.0000000000
1001
DSTP_XDATA
1002
{
1000
_OWNERHANDLE=0000000064
1002
}
0
LINE
5
1AC
100
AcDbEntity
8
TABLE
100
AcDbLine
6
ByLayer
10
-12.5000000000
20
-7.5000000000
30
0.0000000000
11
0.0000000000
21
-7.5000000000
31
0.0000000000
1001
DSTP_XDATA
1002
{
1000
_OWNERHANDLE=0000000064
1002
}
0
LINE
5
1AD
100
AcDbEntity
8
TABLE
100
AcDbLine
6
ByLayer
10
-12.5000000000
20
-11.0025125000
30
0.0000000000
11
-12.5000000000
21
-7.5000000000
31
0.0000000000
1001
DSTP_XDATA
1002
{
1000
_OWNERHANDLE=0000000064
1002
}
0
ENDBLK
5
1AE
100
AcDbEntity
8
0
100
AcDbBlockEnd
1001
DSTP_XDATA
1002
{
1002
}
0
BLOCK
5
1AF
100
AcDbEntity
8
0
100
AcDbBlockBegin
2
DEVICE_EL_VL_DIAGRAM_QS6
70
2
10
0
20
0
30
0
3
DEVICE_EL_VL_DIAGRAM_QS6
1

0
MTEXT
5
1B0
100
AcDbEntity
8
FORMAT
100
AcDbMText
6
ByLayer
10
-31.5000000000
20
5.0000000000
30
0.0000000000
40
3.0000000000
41
20.0000000000
71
6
1
??
7
MtXpl_ISOCPEUR
11
0.0000000000
21
1.0000000000
31
0.0000000000
73
2
44
0.9000000000
1001
DSTP_XDATA
1002
{
1000
_TMPL1=@@[VL_Mark]
1000
_OWNERHANDLE=0000000064
1002
}
0
MTEXT
5
1B1
100
AcDbEntity
8
FORMAT
100
AcDbMText
6
ByLayer
10
-26.5000000000
20
5.0000000000
30
0.0000000000
40
3.0000000000
41
20.0000000000
71
6
1
??
7
MtXpl_ISOCPEUR
11
0.0000000000
21
1.0000000000
31
0.0000000000
73
2
44
0.9000000000
1001
DSTP_XDATA
1002
{
1000
_TMPL1=@@[VL_Type]
1000
_OWNERHANDLE=0000000064
1002
}
0
MTEXT
5
1B2
100
AcDbEntity
8
FORMAT
100
AcDbMText
6
ByLayer
10
-21.5000000000
20
5.0000000000
30
0.0000000000
40
3.0000000000
41
20.0000000000
71
6
1
??
7
MtXpl_ISOCPEUR
11
0.0000000000
21
1.0000000000
31
0.0000000000
73
2
44
0.9000000000
1001
DSTP_XDATA
1002
{
1000
_TMPL1=@@[VL_Data]
1000
_OWNERHANDLE=0000000064
1002
}
0
LINE
5
1B3
100
AcDbEntity
8
TABLE
100
AcDbLine
6
ByLayer
10
5.0025125000
20
0.0000000000
30
0.0000000000
11
5.0000000000
21
-30.0000000000
31
0.0000000000
1001
DSTP_XDATA
1002
{
1000
_OWNERHANDLE=0000000064
1000
LCGoodLayer=TABLE
1000
LCBadLayer=SYS_METRIC
1000
LCExpression=VL_Busbar>2
1002
}
0
LINE
5
1B4
100
AcDbEntity
8
TABLE
100
AcDbLine
6
ByLayer
10
2.5025125000
20
0.0000000000
30
0.0000000000
11
2.5000000000
21
-30.0000000000
31
0.0000000000
1001
DSTP_XDATA
1002
{
1000
_OWNERHANDLE=0000000064
1000
LCGoodLayer=TABLE
1000
LCBadLayer=SYS_METRIC
1000
LCExpression=VL_Busbar>1
1002
}
0
LINE
5
1B5
100
AcDbEntity
8
TABLE
100
AcDbLine
6
ByLayer
10
-22.5012562500
20
-17.5000000000
30
0.0000000000
11
-22.5000000000
21
-30.0000000000
31
0.0000000000
1001
DSTP_XDATA
1002
{
1000
_OWNERHANDLE=0000000064
1000
LCGoodLayer=TABLE
1000
LCBadLayer=SYS_METRIC
1000
LCExpression=VL_Busbar>1
1002
}
0
LINE
5
1B6
100
AcDbEntity
8
TABLE
100
AcDbLine
6
ByLayer
10
2.5000000000
20
-17.5000000000
30
0.0000000000
11
-22.5012562500
21
-17.5000000000
31
0.0000000000
1001
DSTP_XDATA
1002
{
1000
_OWNERHANDLE=0000000064
1000
LCGoodLayer=TABLE
1000
LCBadLayer=SYS_METRIC
1000
LCExpression=VL_Busbar>1
1002
}
0
LINE
5
1B7
100
AcDbEntity
8
TABLE
100
AcDbLine
6
ByLayer
10
-19.9992462500
20
-20.0000000000
30
0.0000000000
11
-20.0012562500
21
-30.0000000000
31
0.0000000000
1001
DSTP_XDATA
1002
{
1000
_OWNERHANDLE=0000000064
1000
LCGoodLayer=TABLE
1000
LCBadLayer=SYS_METRIC
1000
LCExpression=VL_Busbar>2
1002
}
0
LINE
5
1B8
100
AcDbEntity
8
TABLE
100
AcDbLine
6
ByLayer
10
-20.0012562500
20
-20.0000000000
30
0.0000000000
11
5.0000000000
21
-20.0000000000
31
0.0000000000
1001
DSTP_XDATA
1002
{
1000
_OWNERHANDLE=0000000064
1000
LCGoodLayer=TABLE
1000
LCBadLayer=SYS_METRIC
1000
LCExpression=VL_Busbar>2
1002
}
0
CIRCLE
5
1B9
100
AcDbEntity
8
TABLE
100
AcDbCircle
6
ByLayer
10
2.5000000000
20
-17.5000000000
30
0.0000000000
40
0.5000000000
1001
DSTP_XDATA
1002
{
1000
_OWNERHANDLE=0000000064
1000
LCGoodLayer=TABLE
1000
LCBadLayer=SYS_METRIC
1000
LCExpression=VL_Busbar>1
1002
}
0
CIRCLE
5
1BA
100
AcDbEntity
8
TABLE
100
AcDbCircle
6
ByLayer
10
5.0000000000
20
-20.0000000000
30
0.0000000000
40
0.5000000000
1001
DSTP_XDATA
1002
{
1000
_OWNERHANDLE=0000000064
1000
LCGoodLayer=TABLE
1000
LCBadLayer=SYS_METRIC
1000
LCExpression=VL_Busbar>2
1002
}
0
ENDBLK
5
1BB
100
AcDbEntity
8
0
100
AcDbBlockEnd
1001
DSTP_XDATA
1002
{
1002
}
0
BLOCK
5
1BC
100
AcDbEntity
8
0
100
AcDbBlockBegin
2
EL_VL_DIAGRAM_QS7
70
2
10
0
20
0
30
0
3
EL_VL_DIAGRAM_QS7
1

0
LINE
5
1BD
100
AcDbEntity
8
TABLE
100
AcDbLine
6
ByLayer
10
0.0000000000
20
7.5000000000
30
0.0000000000
11
0.0000000000
21
0.0000000000
31
0.0000000000
1001
DSTP_XDATA
1002
{
1000
_OWNERHANDLE=0000000064
1002
}
0
LINE
5
1BE
100
AcDbEntity
8
TABLE
100
AcDbLine
6
ByLayer
10
-15.0000000000
20
15.5025125000
30
0.0000000000
11
-12.5000000000
21
11.0025125000
31
0.0000000000
1001
DSTP_XDATA
1002
{
1000
_OWNERHANDLE=0000000064
1002
}
0
LINE
5
1BF
100
AcDbEntity
8
TABLE
100
AcDbLine
6
ByLayer
10
-14.5000000000
20
15.0000000000
30
0.0000000000
11
-25.0000000000
21
15.0000000000
31
0.0000000000
1001
DSTP_XDATA
1002
{
1000
_OWNERHANDLE=0000000064
1002
}
0
LINE
5
1C0
100
AcDbEntity
8
TABLE
100
AcDbLine
6
ByLayer
10
-25.0000000000
20
15.0000000000
30
0.0000000000
11
-25.0000000000
21
30.0000000000
31
0.0000000000
1001
DSTP_XDATA
1002
{
1000
_OWNERHANDLE=0000000064
1002
}
0
LINE
5
1C1
100
AcDbEntity
8
TABLE
100
AcDbLine
6
ByLayer
10
-10.5000000000
20
15.0000000000
30
0.0000000000
11
0.0000000000
21
15.0000000000
31
0.0000000000
1001
DSTP_XDATA
1002
{
1000
_OWNERHANDLE=0000000064
1002
}
0
LINE
5
1C2
100
AcDbEntity
8
TABLE
100
AcDbLine
6
ByLayer
10
0.0000000000
20
15.0000000000
30
0.0000000000
11
0.0000000000
21
30.0000000000
31
0.0000000000
1001
DSTP_XDATA
1002
{
1000
_OWNERHANDLE=0000000064
1002
}
0
LINE
5
1C3
100
AcDbEntity
8
TABLE
100
AcDbLine
6
ByLayer
10
-12.5000000000
20
7.5000000000
30
0.0000000000
11
0.0000000000
21
7.5000000000
31
0.0000000000
1001
DSTP_XDATA
1002
{
1000
_OWNERHANDLE=0000000064
1002
}
0
LINE
5
1C4
100
AcDbEntity
8
TABLE
100
AcDbLine
6
ByLayer
10
-12.5000000000
20
11.0025125000
30
0.0000000000
11
-12.5000000000
21
7.5000000000
31
0.0000000000
1001
DSTP_XDATA
1002
{
1000
_OWNERHANDLE=0000000064
1002
}
0
ENDBLK
5
1C5
100
AcDbEntity
8
0
100
AcDbBlockEnd
1001
DSTP_XDATA
1002
{
1002
}
0
BLOCK
5
1C6
100
AcDbEntity
8
0
100
AcDbBlockBegin
2
DEVICE_EL_VL_DIAGRAM_QS7
70
2
10
0
20
0
30
0
3
DEVICE_EL_VL_DIAGRAM_QS7
1

0
MTEXT
5
1C7
100
AcDbEntity
8
FORMAT
100
AcDbMText
6
ByLayer
10
-31.5000000000
20
10.0000000000
30
0.0000000000
40
3.0000000000
41
20.0000000000
71
6
1
??
7
MtXpl_ISOCPEUR
11
0.0000000000
21
1.0000000000
31
0.0000000000
73
2
44
0.9000000000
1001
DSTP_XDATA
1002
{
1000
_TMPL1=@@[VL_Mark]
1000
_OWNERHANDLE=0000000064
1002
}
0
MTEXT
5
1C8
100
AcDbEntity
8
FORMAT
100
AcDbMText
6
ByLayer
10
-26.5000000000
20
10.0000000000
30
0.0000000000
40
3.0000000000
41
20.0000000000
71
6
1
??
7
MtXpl_ISOCPEUR
11
0.0000000000
21
1.0000000000
31
0.0000000000
73
2
44
0.9000000000
1001
DSTP_XDATA
1002
{
1000
_TMPL1=@@[VL_Type]
1000
_OWNERHANDLE=0000000064
1002
}
0
MTEXT
5
1C9
100
AcDbEntity
8
FORMAT
100
AcDbMText
6
ByLayer
10
-21.5000000000
20
10.0000000000
30
0.0000000000
40
3.0000000000
41
20.0000000000
71
6
1
??
7
MtXpl_ISOCPEUR
11
0.0000000000
21
1.0000000000
31
0.0000000000
73
2
44
0.9000000000
1001
DSTP_XDATA
1002
{
1000
_TMPL1=@@[VL_Data]
1000
_OWNERHANDLE=0000000064
1002
}
0
LINE
5
1CA
100
AcDbEntity
8
TABLE
100
AcDbLine
6
ByLayer
10
5.0025125000
20
0.0000000000
30
0.0000000000
11
5.0000000000
21
30.0000000000
31
0.0000000000
1001
DSTP_XDATA
1002
{
1000
_OWNERHANDLE=0000000064
1000
LCGoodLayer=TABLE
1000
LCBadLayer=SYS_METRIC
1000
LCExpression=VL_Busbar>2
1002
}
0
LINE
5
1CB
100
AcDbEntity
8
TABLE
100
AcDbLine
6
ByLayer
10
2.5025125000
20
0.0000000000
30
0.0000000000
11
2.5000000000
21
30.0000000000
31
0.0000000000
1001
DSTP_XDATA
1002
{
1000
_OWNERHANDLE=0000000064
1000
LCGoodLayer=TABLE
1000
LCBadLayer=SYS_METRIC
1000
LCExpression=VL_Busbar>1
1002
}
0
LINE
5
1CC
100
AcDbEntity
8
TABLE
100
AcDbLine
6
ByLayer
10
-22.5012562500
20
17.5000000000
30
0.0000000000
11
-22.5000000000
21
30.0000000000
31
0.0000000000
1001
DSTP_XDATA
1002
{
1000
_OWNERHANDLE=0000000064
1000
LCGoodLayer=TABLE
1000
LCBadLayer=SYS_METRIC
1000
LCExpression=VL_Busbar>1
1002
}
0
LINE
5
1CD
100
AcDbEntity
8
TABLE
100
AcDbLine
6
ByLayer
10
2.5000000000
20
17.5000000000
30
0.0000000000
11
-22.5012562500
21
17.5000000000
31
0.0000000000
1001
DSTP_XDATA
1002
{
1000
_OWNERHANDLE=0000000064
1000
LCGoodLayer=TABLE
1000
LCBadLayer=SYS_METRIC
1000
LCExpression=VL_Busbar>1
1002
}
0
LINE
5
1CE
100
AcDbEntity
8
TABLE
100
AcDbLine
6
ByLayer
10
-19.9992462500
20
20.0000000000
30
0.0000000000
11
-20.0012562500
21
30.0000000000
31
0.0000000000
1001
DSTP_XDATA
1002
{
1000
_OWNERHANDLE=0000000064
1000
LCGoodLayer=TABLE
1000
LCBadLayer=SYS_METRIC
1000
LCExpression=VL_Busbar>2
1002
}
0
LINE
5
1CF
100
AcDbEntity
8
TABLE
100
AcDbLine
6
ByLayer
10
-20.0012562500
20
20.0000000000
30
0.0000000000
11
5.0000000000
21
20.0000000000
31
0.0000000000
1001
DSTP_XDATA
1002
{
1000
_OWNERHANDLE=0000000064
1000
LCGoodLayer=TABLE
1000
LCBadLayer=SYS_METRIC
1000
LCExpression=VL_Busbar>2
1002
}
0
CIRCLE
5
1D0
100
AcDbEntity
8
TABLE
100
AcDbCircle
6
ByLayer
10
2.5000000000
20
17.5000000000
30
0.0000000000
40
0.5000000000
1001
DSTP_XDATA
1002
{
1000
_OWNERHANDLE=0000000064
1000
LCGoodLayer=TABLE
1000
LCBadLayer=SYS_METRIC
1000
LCExpression=VL_Busbar>1
1002
}
0
CIRCLE
5
1D1
100
AcDbEntity
8
TABLE
100
AcDbCircle
6
ByLayer
10
5.0000000000
20
20.0000000000
30
0.0000000000
40
0.5000000000
1001
DSTP_XDATA
1002
{
1000
_OWNERHANDLE=0000000064
1000
LCGoodLayer=TABLE
1000
LCBadLayer=SYS_METRIC
1000
LCExpression=VL_Busbar>2
1002
}
0
ENDBLK
5
1D2
100
AcDbEntity
8
0
100
AcDbBlockEnd
1001
DSTP_XDATA
1002
{
1002
}
0
BLOCK
5
1D3
100
AcDbEntity
8
0
100
AcDbBlockBegin
2
EL_VL_DIAGRAM_FU1
70
2
10
0
20
0
30
0
3
EL_VL_DIAGRAM_FU1
1

0
LINE
5
1D4
100
AcDbEntity
8
TABLE
100
AcDbLine
6
ByLayer
10
0.0000000000
20
0.0000000000
30
0.0000000000
11
0.0000000000
21
-10.0000000000
31
0.0000000000
1001
DSTP_XDATA
1002
{
1000
_OWNERHANDLE=0000000064
1002
}
0
LINE
5
1D5
100
AcDbEntity
8
TABLE
100
AcDbLine
6
ByLayer
10
-1.0000000000
20
-5.0000000000
30
0.0000000000
11
1.0000000000
21
-5.0000000000
31
0.0000000000
1001
DSTP_XDATA
1002
{
1000
_OWNERHANDLE=0000000064
1002
}
0
LINE
5
1D6
100
AcDbEntity
8
TABLE
100
AcDbLine
6
ByLayer
10
1.0000000000
20
-5.0000000000
30
0.0000000000
11
1.0000000000
21
0.0000000000
31
0.0000000000
1001
DSTP_XDATA
1002
{
1000
_OWNERHANDLE=0000000064
1002
}
0
LINE
5
1D7
100
AcDbEntity
8
TABLE
100
AcDbLine
6
ByLayer
10
1.0000000000
20
0.0000000000
30
0.0000000000
11
-1.0000000000
21
0.0000000000
31
0.0000000000
1001
DSTP_XDATA
1002
{
1000
_OWNERHANDLE=0000000064
1002
}
0
LINE
5
1D8
100
AcDbEntity
8
TABLE
100
AcDbLine
6
ByLayer
10
-1.0000000000
20
0.0000000000
30
0.0000000000
11
-1.0000000000
21
-5.0000000000
31
0.0000000000
1001
DSTP_XDATA
1002
{
1000
_OWNERHANDLE=0000000064
1002
}
0
ENDBLK
5
1D9
100
AcDbEntity
8
0
100
AcDbBlockEnd
1001
DSTP_XDATA
1002
{
1002
}
0
BLOCK
5
1DA
100
AcDbEntity
8
0
100
AcDbBlockBegin
2
DEVICE_EL_VL_DIAGRAM_FU1
70
2
10
0
20
0
30
0
3
DEVICE_EL_VL_DIAGRAM_FU1
1

0
MTEXT
5
1DB
100
AcDbEntity
8
FORMAT
100
AcDbMText
6
ByLayer
10
-16.5000000000
20
5.0000000000
30
0.0000000000
40
3.0000000000
41
20.0000000000
71
6
1
??
7
MtXpl_ISOCPEUR
11
0.0000000000
21
1.0000000000
31
0.0000000000
73
2
44
0.9000000000
1001
DSTP_XDATA
1002
{
1000
_TMPL1=@@[VL_Mark]
1000
_OWNERHANDLE=0000000064
1002
}
0
MTEXT
5
1DC
100
AcDbEntity
8
FORMAT
100
AcDbMText
6
ByLayer
10
-11.5000000000
20
5.0000000000
30
0.0000000000
40
3.0000000000
41
20.0000000000
71
6
1
??
7
MtXpl_ISOCPEUR
11
0.0000000000
21
1.0000000000
31
0.0000000000
73
2
44
0.9000000000
1001
DSTP_XDATA
1002
{
1000
_TMPL1=@@[VL_Type]
1000
_OWNERHANDLE=0000000064
1002
}
0
MTEXT
5
1DD
100
AcDbEntity
8
FORMAT
100
AcDbMText
6
ByLayer
10
-6.5000000000
20
5.0000000000
30
0.0000000000
40
3.0000000000
41
20.0000000000
71
6
1
??
7
MtXpl_ISOCPEUR
11
0.0000000000
21
1.0000000000
31
0.0000000000
73
2
44
0.9000000000
1001
DSTP_XDATA
1002
{
1000
_TMPL1=@@[VL_Data]
1000
_OWNERHANDLE=0000000064
1002
}
0
LINE
5
1DE
100
AcDbEntity
8
TABLE
100
AcDbLine
6
ByLayer
10
5.0000000000
20
0.0000000000
30
0.0000000000
11
5.0000000000
21
-10.0000000000
31
0.0000000000
1001
DSTP_XDATA
1002
{
1000
_OWNERHANDLE=0000000064
1000
LCGoodLayer=TABLE
1000
LCBadLayer=SYS_METRIC
1000
LCExpression=VL_Busbar>2
1002
}
0
LINE
5
1DF
100
AcDbEntity
8
TABLE
100
AcDbLine
6
ByLayer
10
2.5000000000
20
0.0000000000
30
0.0000000000
11
2.5000000000
21
-10.0000000000
31
0.0000000000
1001
DSTP_XDATA
1002
{
1000
_OWNERHANDLE=0000000064
1000
LCGoodLayer=TABLE
1000
LCBadLayer=SYS_METRIC
1000
LCExpression=VL_Busbar>1
1002
}
0
ENDBLK
5
1E0
100
AcDbEntity
8
0
100
AcDbBlockEnd
1001
DSTP_XDATA
1002
{
1002
}
0
BLOCK
5
1E1
100
AcDbEntity
8
0
100
AcDbBlockBegin
2
EL_VL_DIAGRAM_TT1
70
2
10
0
20
0
30
0
3
EL_VL_DIAGRAM_TT1
1

0
ARC
5
1E2
100
AcDbEntity
8
TABLE
100
AcDbCircle
6
ByLayer
10
0.0000000000
20
-1.2500000000
30
0.0000000000
40
1.2500000000
100
AcDbArc
50
270.0000000000
51
90.0000000000
1001
DSTP_XDATA
1002
{
1000
_OWNERHANDLE=0000000064
1002
}
0
ARC
5
1E3
100
AcDbEntity
8
TABLE
100
AcDbCircle
6
ByLayer
10
0.0000000000
20
-3.7500000000
30
0.0000000000
40
1.2500000000
100
AcDbArc
50
270.0000000000
51
90.0000000000
1001
DSTP_XDATA
1002
{
1000
_OWNERHANDLE=0000000064
1002
}
0
LINE
5
1E4
100
AcDbEntity
8
TABLE
100
AcDbLine
6
ByLayer
10
0.0000000000
20
0.0000000000
30
0.0000000000
11
-3.0000000000
21
0.0000000000
31
0.0000000000
1001
DSTP_XDATA
1002
{
1000
_OWNERHANDLE=0000000064
1002
}
0
LINE
5
1E5
100
AcDbEntity
8
TABLE
100
AcDbLine
6
ByLayer
10
0.0000000000
20
-5.0000000000
30
0.0000000000
11
-3.0000000000
21
-5.0000000000
31
0.0000000000
1001
DSTP_XDATA
1002
{
1000
_OWNERHANDLE=0000000064
1002
}
0
LINE
5
1E6
100
AcDbEntity
8
TABLE
100
AcDbLine
6
ByLayer
10
0.0000000000
20
0.0000000000
30
0.0000000000
11
0.0000000000
21
-10.0000000000
31
0.0000000000
1001
DSTP_XDATA
1002
{
1000
_OWNERHANDLE=0000000064
1002
}
0
ENDBLK
5
1E7
100
AcDbEntity
8
0
100
AcDbBlockEnd
1001
DSTP_XDATA
1002
{
1002
}
0
BLOCK
5
1E8
100
AcDbEntity
8
0
100
AcDbBlockBegin
2
DEVICE_EL_VL_DIAGRAM_TT1
70
2
10
0
20
0
30
0
3
DEVICE_EL_VL_DIAGRAM_TT1
1

0
MTEXT
5
1E9
100
AcDbEntity
8
FORMAT
100
AcDbMText
6
ByLayer
10
-16.5000000000
20
5.0000000000
30
0.0000000000
40
3.0000000000
41
20.0000000000
71
6
1
??
7
MtXpl_ISOCPEUR
11
0.0000000000
21
1.0000000000
31
0.0000000000
73
2
44
0.9000000000
1001
DSTP_XDATA
1002
{
1000
_TMPL1=@@[VL_Mark]
1000
_OWNERHANDLE=0000000064
1002
}
0
MTEXT
5
1EA
100
AcDbEntity
8
FORMAT
100
AcDbMText
6
ByLayer
10
-11.5000000000
20
5.0000000000
30
0.0000000000
40
3.0000000000
41
20.0000000000
71
6
1
??
7
MtXpl_ISOCPEUR
11
0.0000000000
21
1.0000000000
31
0.0000000000
73
2
44
0.9000000000
1001
DSTP_XDATA
1002
{
1000
_TMPL1=@@[VL_Type]
1000
_OWNERHANDLE=0000000064
1002
}
0
MTEXT
5
1EB
100
AcDbEntity
8
FORMAT
100
AcDbMText
6
ByLayer
10
-6.5000000000
20
5.0000000000
30
0.0000000000
40
3.0000000000
41
20.0000000000
71
6
1
??
7
MtXpl_ISOCPEUR
11
0.0000000000
21
1.0000000000
31
0.0000000000
73
2
44
0.9000000000
1001
DSTP_XDATA
1002
{
1000
_TMPL1=@@[VL_Data]
1000
_OWNERHANDLE=0000000064
1002
}
0
LINE
5
1EC
100
AcDbEntity
8
TABLE
100
AcDbLine
6
ByLayer
10
5.0000000000
20
0.0000000000
30
0.0000000000
11
5.0000000000
21
-10.0000000000
31
0.0000000000
1001
DSTP_XDATA
1002
{
1000
_OWNERHANDLE=0000000064
1000
LCGoodLayer=TABLE
1000
LCBadLayer=SYS_METRIC
1000
LCExpression=VL_Busbar>2
1002
}
0
LINE
5
1ED
100
AcDbEntity
8
TABLE
100
AcDbLine
6
ByLayer
10
2.5000000000
20
0.0000000000
30
0.0000000000
11
2.5000000000
21
-10.0000000000
31
0.0000000000
1001
DSTP_XDATA
1002
{
1000
_OWNERHANDLE=0000000064
1000
LCGoodLayer=TABLE
1000
LCBadLayer=SYS_METRIC
1000
LCExpression=VL_Busbar>1
1002
}
0
ENDBLK
5
1EE
100
AcDbEntity
8
0
100
AcDbBlockEnd
1001
DSTP_XDATA
1002
{
1002
}
0
BLOCK
5
1EF
100
AcDbEntity
8
0
100
AcDbBlockBegin
2
EL_VL_DIAGRAM_WH1
70
2
10
0
20
0
30
0
3
EL_VL_DIAGRAM_WH1
1

0
LINE
5
1F0
100
AcDbEntity
8
TABLE
100
AcDbLine
6
ByLayer
10
0.0000000000
20
0.0000000000
30
0.0000000000
11
0.0000000000
21
-0.9996650000
31
0.0000000000
1001
DSTP_XDATA
1002
{
1000
_OWNERHANDLE=0000000064
1002
}
0
LINE
5
1F1
100
AcDbEntity
8
TABLE
100
AcDbLine
6
ByLayer
10
0.0000000000
20
-8.9996650000
30
0.0000000000
11
0.0000000000
21
-15.0000000000
31
0.0000000000
1001
DSTP_XDATA
1002
{
1000
_OWNERHANDLE=0000000064
1002
}
0
TEXT
5
1F2
100
AcDbEntity
8
FORMAT
100
AcDbText
6
ByLayer
11
1.0000000000
21
-6.0000000000
31
0.0000000000
10
-1.2498560000
20
-7.2500000000
30
0.0000000000
40
2.5000000000
50
0.0000000000
41
1.0000000000
51
0.0000000000
72
1
7
MtXpl_ISOCPEUR
1
Wh
100
AcDbText
73
2
1001
DSTP_XDATA
1002
{
1000
_OWNERHANDLE=0000000064
1002
}
0
LINE
5
1F3
100
AcDbEntity
8
TABLE
100
AcDbLine
6
ByLayer
10
-2.0000000000
20
-8.9993970000
30
0.0000000000
11
4.0000000000
21
-8.9993970000
31
0.0000000000
1001
DSTP_XDATA
1002
{
1000
_OWNERHANDLE=0000000064
1002
}
0
LINE
5
1F4
100
AcDbEntity
8
TABLE
100
AcDbLine
6
ByLayer
10
4.0000000000
20
-8.9993970000
30
0.0000000000
11
4.0000000000
21
-3.2853030000
31
0.0000000000
1001
DSTP_XDATA
1002
{
1000
_OWNERHANDLE=0000000064
1002
}
0
LINE
5
1F5
100
AcDbEntity
8
TABLE
100
AcDbLine
6
ByLayer
10
4.0000000000
20
-3.2853030000
30
0.0000000000
11
-2.0000000000
21
-3.2853030000
31
0.0000000000
1001
DSTP_XDATA
1002
{
1000
_OWNERHANDLE=0000000064
1002
}
0
LINE
5
1F6
100
AcDbEntity
8
TABLE
100
AcDbLine
6
ByLayer
10
-2.0000000000
20
-3.2853030000
30
0.0000000000
11
-2.0000000000
21
-8.9993970000
31
0.0000000000
1001
DSTP_XDATA
1002
{
1000
_OWNERHANDLE=0000000064
1002
}
0
LINE
5
1F7
100
AcDbEntity
8
TABLE
100
AcDbLine
6
ByLayer
10
-2.0000000000
20
-3.2853030000
30
0.0000000000
11
4.0000000000
21
-3.2853030000
31
0.0000000000
1001
DSTP_XDATA
1002
{
1000
_OWNERHANDLE=0000000064
1002
}
0
LINE
5
1F8
100
AcDbEntity
8
TABLE
100
AcDbLine
6
ByLayer
10
4.0000000000
20
-3.2853030000
30
0.0000000000
11
4.0000000000
21
-0.9996650000
31
0.0000000000
1001
DSTP_XDATA
1002
{
1000
_OWNERHANDLE=0000000064
1002
}
0
LINE
5
1F9
100
AcDbEntity
8
TABLE
100
AcDbLine
6
ByLayer
10
4.0000000000
20
-0.9996650000
30
0.0000000000
11
-2.0000000000
21
-0.9996650000
31
0.0000000000
1001
DSTP_XDATA
1002
{
1000
_OWNERHANDLE=0000000064
1002
}
0
LINE
5
1FA
100
AcDbEntity
8
TABLE
100
AcDbLine
6
ByLayer
10
-2.0000000000
20
-0.9996650000
30
0.0000000000
11
-2.0000000000
21
-3.2853030000
31
0.0000000000
1001
DSTP_XDATA
1002
{
1000
_OWNERHANDLE=0000000064
1002
}
0
ENDBLK
5
1FB
100
AcDbEntity
8
0
100
AcDbBlockEnd
1001
DSTP_XDATA
1002
{
1002
}
0
BLOCK
5
1FC
100
AcDbEntity
8
0
100
AcDbBlockBegin
2
DEVICE_EL_VL_DIAGRAM_WH1
70
2
10
0
20
0
30
0
3
DEVICE_EL_VL_DIAGRAM_WH1
1

0
MTEXT
5
1FD
100
AcDbEntity
8
FORMAT
100
AcDbMText
6
ByLayer
10
-16.5000000000
20
5.0000000000
30
0.0000000000
40
3.0000000000
41
20.0000000000
71
6
1
??
7
MtXpl_ISOCPEUR
11
0.0000000000
21
1.0000000000
31
0.0000000000
73
2
44
0.9000000000
1001
DSTP_XDATA
1002
{
1000
_TMPL1=@@[VL_Mark]
1000
_OWNERHANDLE=0000000064
1002
}
0
MTEXT
5
1FE
100
AcDbEntity
8
FORMAT
100
AcDbMText
6
ByLayer
10
-11.5000000000
20
5.0000000000
30
0.0000000000
40
3.0000000000
41
20.0000000000
71
6
1
??
7
MtXpl_ISOCPEUR
11
0.0000000000
21
1.0000000000
31
0.0000000000
73
2
44
0.9000000000
1001
DSTP_XDATA
1002
{
1000
_TMPL1=@@[VL_Type]
1000
_OWNERHANDLE=0000000064
1002
}
0
MTEXT
5
1FF
100
AcDbEntity
8
FORMAT
100
AcDbMText
6
ByLayer
10
-6.5000000000
20
5.0000000000
30
0.0000000000
40
3.0000000000
41
20.0000000000
71
6
1
??
7
MtXpl_ISOCPEUR
11
0.0000000000
21
1.0000000000
31
0.0000000000
73
2
44
0.9000000000
1001
DSTP_XDATA
1002
{
1000
_TMPL1=@@[VL_Data]
1000
_OWNERHANDLE=0000000064
1002
}
0
LINE
5
200
100
AcDbEntity
8
TABLE
100
AcDbLine
6
ByLayer
10
5.0000000000
20
0.0000000000
30
0.0000000000
11
5.0000000000
21
-15.0000000000
31
0.0000000000
1001
DSTP_XDATA
1002
{
1000
_OWNERHANDLE=0000000064
1000
LCGoodLayer=TABLE
1000
LCBadLayer=SYS_METRIC
1000
LCExpression=VL_Busbar>2
1002
}
0
LINE
5
201
100
AcDbEntity
8
TABLE
100
AcDbLine
6
ByLayer
10
2.5000000000
20
0.0003350000
30
0.0000000000
11
2.5000000000
21
-0.9993300000
31
0.0000000000
1001
DSTP_XDATA
1002
{
1000
_OWNERHANDLE=0000000064
1000
LCGoodLayer=TABLE
1000
LCBadLayer=SYS_METRIC
1000
LCExpression=VL_Busbar>1
1002
}
0
LINE
5
202
100
AcDbEntity
8
TABLE
100
AcDbLine
6
ByLayer
10
2.5000000000
20
-8.9996650000
30
0.0000000000
11
2.5000000000
21
-15.0000000000
31
0.0000000000
1001
DSTP_XDATA
1002
{
1000
_OWNERHANDLE=0000000064
1000
LCGoodLayer=TABLE
1000
LCBadLayer=SYS_METRIC
1000
LCExpression=VL_Busbar>1
1002
}
0
ENDBLK
5
203
100
AcDbEntity
8
0
100
AcDbBlockEnd
1001
DSTP_XDATA
1002
{
1002
}
0
BLOCK
5
204
100
AcDbEntity
8
0
100
AcDbBlockBegin
2
EL_VL_DIAGRAM_WH2
70
2
10
0
20
0
30
0
3
EL_VL_DIAGRAM_WH2
1

0
TEXT
5
205
100
AcDbEntity
8
FORMAT
100
AcDbText
6
ByLayer
11
3.0000000000
21
-5.0000000000
31
0.0000000000
10
0.7501440000
20
-6.2500000000
30
0.0000000000
40
2.5000000000
50
0.0000000000
41
1.0000000000
51
0.0000000000
72
1
7
MtXpl_ISOCPEUR
1
Wh
100
AcDbText
73
2
1001
DSTP_XDATA
1002
{
1000
_OWNERHANDLE=0000000064
1002
}
0
LINE
5
206
100
AcDbEntity
8
TABLE
100
AcDbLine
6
ByLayer
10
0.0000000000
20
-7.9997320000
30
0.0000000000
11
6.0000000000
21
-7.9997320000
31
0.0000000000
1001
DSTP_XDATA
1002
{
1000
_OWNERHANDLE=0000000064
1002
}
0
LINE
5
207
100
AcDbEntity
8
TABLE
100
AcDbLine
6
ByLayer
10
6.0000000000
20
-7.9997320000
30
0.0000000000
11
6.0000000000
21
-2.2856380000
31
0.0000000000
1001
DSTP_XDATA
1002
{
1000
_OWNERHANDLE=0000000064
1002
}
0
LINE
5
208
100
AcDbEntity
8
TABLE
100
AcDbLine
6
ByLayer
10
6.0000000000
20
-2.2856380000
30
0.0000000000
11
0.0000000000
21
-2.2856380000
31
0.0000000000
1001
DSTP_XDATA
1002
{
1000
_OWNERHANDLE=0000000064
1002
}
0
LINE
5
209
100
AcDbEntity
8
TABLE
100
AcDbLine
6
ByLayer
10
0.0000000000
20
-2.2856380000
30
0.0000000000
11
0.0000000000
21
-7.9997320000
31
0.0000000000
1001
DSTP_XDATA
1002
{
1000
_OWNERHANDLE=0000000064
1002
}
0
LINE
5
20A
100
AcDbEntity
8
TABLE
100
AcDbLine
6
ByLayer
10
0.0000000000
20
-2.2856380000
30
0.0000000000
11
6.0000000000
21
-2.2856380000
31
0.0000000000
1001
DSTP_XDATA
1002
{
1000
_OWNERHANDLE=0000000064
1002
}
0
LINE
5
20B
100
AcDbEntity
8
TABLE
100
AcDbLine
6
ByLayer
10
6.0000000000
20
-2.2856380000
30
0.0000000000
11
6.0000000000
21
0.0000000000
31
0.0000000000
1001
DSTP_XDATA
1002
{
1000
_OWNERHANDLE=0000000064
1002
}
0
LINE
5
20C
100
AcDbEntity
8
TABLE
100
AcDbLine
6
ByLayer
10
6.0000000000
20
0.0000000000
30
0.0000000000
11
0.0000000000
21
0.0000000000
31
0.0000000000
1001
DSTP_XDATA
1002
{
1000
_OWNERHANDLE=0000000064
1002
}
0
LINE
5
20D
100
AcDbEntity
8
TABLE
100
AcDbLine
6
ByLayer
10
0.0000000000
20
0.0000000000
30
0.0000000000
11
0.0000000000
21
-2.2856380000
31
0.0000000000
1001
DSTP_XDATA
1002
{
1000
_OWNERHANDLE=0000000064
1002
}
0
ENDBLK
5
20E
100
AcDbEntity
8
0
100
AcDbBlockEnd
1001
DSTP_XDATA
1002
{
1002
}
0
BLOCK
5
20F
100
AcDbEntity
8
0
100
AcDbBlockBegin
2
DEVICE_EL_VL_DIAGRAM_WH2
70
2
10
0
20
0
30
0
3
DEVICE_EL_VL_DIAGRAM_WH2
1

0
MTEXT
5
210
100
AcDbEntity
8
FORMAT
100
AcDbMText
6
ByLayer
10
-16.5000000000
20
0.0000000000
30
0.0000000000
40
3.0000000000
41
20.0025125000
71
6
1
??
7
MtXpl_ISOCPEUR
11
0.0000000000
21
1.0000000000
31
0.0000000000
73
2
44
0.9000000000
1001
DSTP_XDATA
1002
{
1000
_TMPL1=@@[VL_Mark]
1000
_OWNERHANDLE=0000000064
1002
}
0
MTEXT
5
211
100
AcDbEntity
8
FORMAT
100
AcDbMText
6
ByLayer
10
-11.5000000000
20
0.0000000000
30
0.0000000000
40
3.0000000000
41
20.0025125000
71
6
1
??
7
MtXpl_ISOCPEUR
11
0.0000000000
21
1.0000000000
31
0.0000000000
73
2
44
0.9000000000
1001
DSTP_XDATA
1002
{
1000
_TMPL1=@@[VL_Type]
1000
_OWNERHANDLE=0000000064
1002
}
0
MTEXT
5
212
100
AcDbEntity
8
FORMAT
100
AcDbMText
6
ByLayer
10
-6.5000000000
20
0.0000000000
30
0.0000000000
40
3.0000000000
41
20.0025125000
71
6
1
??
7
MtXpl_ISOCPEUR
11
0.0000000000
21
1.0000000000
31
0.0000000000
73
2
44
0.9000000000
1001
DSTP_XDATA
1002
{
1000
_TMPL1=@@[VL_Data]
1000
_OWNERHANDLE=0000000064
1002
}
0
ENDBLK
5
213
100
AcDbEntity
8
0
100
AcDbBlockEnd
1001
DSTP_XDATA
1002
{
1002
}
0
BLOCK
5
214
100
AcDbEntity
8
0
100
AcDbBlockBegin
2
EL_VL_DIAGRAM_SH1
70
2
10
0
20
0
30
0
3
EL_VL_DIAGRAM_SH1
1

0
ENDBLK
5
215
100
AcDbEntity
8
0
100
AcDbBlockEnd
1001
DSTP_XDATA
1002
{
1002
}
0
BLOCK
5
216
100
AcDbEntity
8
0
100
AcDbBlockBegin
2
DEVICE_EL_VL_DIAGRAM_SH1
70
2
10
0
20
0
30
0
3
DEVICE_EL_VL_DIAGRAM_SH1
1

0
MTEXT
5
217
100
AcDbEntity
8
FORMAT
100
AcDbMText
6
ByLayer
10
0.0000000000
20
13.0000000000
30
0.0000000000
40
3.0000000000
41
40.0000000000
71
5
1
??
7
MtXpl_ISOCPEUR
11
1.0000000000
21
0.0000000000
31
0.0000000000
73
2
44
0.9000000000
1001
DSTP_XDATA
1002
{
1000
_TMPL1=@@[VL_Mark]
1000
_OWNERHANDLE=0000000064
1002
}
0
MTEXT
5
218
100
AcDbEntity
8
FORMAT
100
AcDbMText
6
ByLayer
10
0.0000000000
20
8.0000000000
30
0.0000000000
40
3.0000000000
41
40.0000000000
71
5
1
??
7
MtXpl_ISOCPEUR
11
1.0000000000
21
0.0000000000
31
0.0000000000
73
2
44
0.9000000000
1001
DSTP_XDATA
1002
{
1000
_TMPL1=@@[VL_Type]
1000
_OWNERHANDLE=0000000064
1002
}
0
MTEXT
5
219
100
AcDbEntity
8
FORMAT
100
AcDbMText
6
ByLayer
10
0.0000000000
20
3.0000000000
30
0.0000000000
40
3.0000000000
41
40.0000000000
71
5
1
??
7
MtXpl_ISOCPEUR
11
1.0000000000
21
0.0000000000
31
0.0000000000
73
2
44
0.9000000000
1001
DSTP_XDATA
1002
{
1000
_TMPL1=@@[VL_Data]
1000
_OWNERHANDLE=0000000064
1002
}
0
ENDBLK
5
21A
100
AcDbEntity
8
0
100
AcDbBlockEnd
1001
DSTP_XDATA
1002
{
1002
}
0
BLOCK
5
21B
100
AcDbEntity
8
0
100
AcDbBlockBegin
2
EL_VL_DIAGRAM_BU1
70
2
10
0
20
0
30
0
3
EL_VL_DIAGRAM_BU1
1

0
LINE
5
21C
100
AcDbEntity
8
TABLE
100
AcDbLine
6
ByLayer
10
0.0000000000
20
0.0000000000
30
0.0000000000
11
0.0000000000
21
-0.9996650000
31
0.0000000000
1001
DSTP_XDATA
1002
{
1000
_OWNERHANDLE=0000000064
1002
}
0
LINE
5
21D
100
AcDbEntity
8
TABLE
100
AcDbLine
6
ByLayer
10
0.0000000000
20
-7.0000000000
30
0.0000000000
11
0.0000000000
21
-10.0000000000
31
0.0000000000
1001
DSTP_XDATA
1002
{
1000
_OWNERHANDLE=0000000064
1002
}
0
LINE
5
21E
100
AcDbEntity
8
TABLE
100
AcDbLine
6
ByLayer
10
-2.0000000000
20
-7.0000000000
30
0.0000000000
11
4.0000000000
21
-7.0000000000
31
0.0000000000
1001
DSTP_XDATA
1002
{
1000
_OWNERHANDLE=0000000064
1002
}
0
LINE
5
21F
100
AcDbEntity
8
TABLE
100
AcDbLine
6
ByLayer
10
4.0000000000
20
-1.0000000000
30
0.0000000000
11
-2.0000000000
21
-7.0000000000
31
0.0000000000
1001
DSTP_XDATA
1002
{
1000
_OWNERHANDLE=0000000064
1002
}
0
LINE
5
220
100
AcDbEntity
8
TABLE
100
AcDbLine
6
ByLayer
10
-2.0000000000
20
-0.9996650000
30
0.0000000000
11
4.0000000000
21
-7.0000000000
31
0.0000000000
1001
DSTP_XDATA
1002
{
1000
_OWNERHANDLE=0000000064
1002
}
0
LINE
5
221
100
AcDbEntity
8
TABLE
100
AcDbLine
6
ByLayer
10
4.0000000000
20
-7.0000000000
30
0.0000000000
11
4.0000000000
21
-1.0000000000
31
0.0000000000
1001
DSTP_XDATA
1002
{
1000
_OWNERHANDLE=0000000064
1002
}
0
LINE
5
222
100
AcDbEntity
8
TABLE
100
AcDbLine
6
ByLayer
10
4.0000000000
20
-1.0000000000
30
0.0000000000
11
-2.0000000000
21
-0.9996650000
31
0.0000000000
1001
DSTP_XDATA
1002
{
1000
_OWNERHANDLE=0000000064
1002
}
0
LINE
5
223
100
AcDbEntity
8
TABLE
100
AcDbLine
6
ByLayer
10
-2.0000000000
20
-0.9996650000
30
0.0000000000
11
-2.0000000000
21
-7.0000000000
31
0.0000000000
1001
DSTP_XDATA
1002
{
1000
_OWNERHANDLE=0000000064
1002
}
0
ENDBLK
5
224
100
AcDbEntity
8
0
100
AcDbBlockEnd
1001
DSTP_XDATA
1002
{
1002
}
0
BLOCK
5
225
100
AcDbEntity
8
0
100
AcDbBlockBegin
2
DEVICE_EL_VL_DIAGRAM_BU1
70
2
10
0
20
0
30
0
3
DEVICE_EL_VL_DIAGRAM_BU1
1

0
MTEXT
5
226
100
AcDbEntity
8
FORMAT
100
AcDbMText
6
ByLayer
10
-16.5000000000
20
5.0000000000
30
0.0000000000
40
3.0000000000
41
20.0000000000
71
6
1
??
7
MtXpl_ISOCPEUR
11
0.0000000000
21
1.0000000000
31
0.0000000000
73
2
44
0.9000000000
1001
DSTP_XDATA
1002
{
1000
_TMPL1=@@[VL_Mark]
1000
_OWNERHANDLE=0000000064
1002
}
0
MTEXT
5
227
100
AcDbEntity
8
FORMAT
100
AcDbMText
6
ByLayer
10
-11.5000000000
20
5.0000000000
30
0.0000000000
40
3.0000000000
41
20.0000000000
71
6
1
??
7
MtXpl_ISOCPEUR
11
0.0000000000
21
1.0000000000
31
0.0000000000
73
2
44
0.9000000000
1001
DSTP_XDATA
1002
{
1000
_TMPL1=@@[VL_Type]
1000
_OWNERHANDLE=0000000064
1002
}
0
MTEXT
5
228
100
AcDbEntity
8
FORMAT
100
AcDbMText
6
ByLayer
10
-6.5000000000
20
5.0000000000
30
0.0000000000
40
3.0000000000
41
20.0000000000
71
6
1
??
7
MtXpl_ISOCPEUR
11
0.0000000000
21
1.0000000000
31
0.0000000000
73
2
44
0.9000000000
1001
DSTP_XDATA
1002
{
1000
_TMPL1=@@[VL_Data]
1000
_OWNERHANDLE=0000000064
1002
}
0
LINE
5
229
100
AcDbEntity
8
TABLE
100
AcDbLine
6
ByLayer
10
5.0000000000
20
0.0000000000
30
0.0000000000
11
5.0000000000
21
-11.0000000000
31
0.0000000000
1001
DSTP_XDATA
1002
{
1000
_OWNERHANDLE=0000000064
1000
LCGoodLayer=TABLE
1000
LCBadLayer=SYS_METRIC
1000
LCExpression=VL_Busbar>2
1002
}
0
LINE
5
22A
100
AcDbEntity
8
TABLE
100
AcDbLine
6
ByLayer
10
2.5000000000
20
0.0003350000
30
0.0000000000
11
2.5000000000
21
-0.9993300000
31
0.0000000000
1001
DSTP_XDATA
1002
{
1000
_OWNERHANDLE=0000000064
1000
LCGoodLayer=TABLE
1000
LCBadLayer=SYS_METRIC
1000
LCExpression=VL_Busbar>1
1002
}
0
LINE
5
22B
100
AcDbEntity
8
TABLE
100
AcDbLine
6
ByLayer
10
2.5000000000
20
-7.0000000000
30
0.0000000000
11
2.5000000000
21
-11.0000000000
31
0.0000000000
1001
DSTP_XDATA
1002
{
1000
_OWNERHANDLE=0000000064
1000
LCGoodLayer=TABLE
1000
LCBadLayer=SYS_METRIC
1000
LCExpression=VL_Busbar>1
1002
}
0
ENDBLK
5
22C
100
AcDbEntity
8
0
100
AcDbBlockEnd
1001
DSTP_XDATA
1002
{
1002
}
0
BLOCK
5
22D
100
AcDbEntity
8
0
100
AcDbBlockBegin
2
EL_VL_DIAGRAM_H1
70
2
10
0
20
0
30
0
3
EL_VL_DIAGRAM_H1
1

0
LINE
5
22E
100
AcDbEntity
8
TABLE
100
AcDbLine
6
Continuous
10
0.0000000000
20
0.0000000000
30
0.0000000000
11
0.0000000000
21
-50.0000000000
31
0.0000000000
1001
DSTP_XDATA
1002
{
1000
_OWNERHANDLE=0000000064
1002
}
0
ENDBLK
5
22F
100
AcDbEntity
8
0
100
AcDbBlockEnd
1001
DSTP_XDATA
1002
{
1002
}
0
BLOCK
5
230
100
AcDbEntity
8
0
100
AcDbBlockBegin
2
DEVICE_EL_VL_DIAGRAM_H1
70
2
10
0
20
0
30
0
3
DEVICE_EL_VL_DIAGRAM_H1
1

0
MTEXT
5
231
100
AcDbEntity
8
FORMAT
100
AcDbMText
6
ByLayer
10
-1.0000000000
20
-25.0000000000
30
0.0000000000
40
3.0000000000
41
50.0000000000
71
8
1
??
7
MtXpl_ISOCPEUR
11
0.0000000000
21
1.0000000000
31
0.0000000000
73
2
44
0.9000000000
1001
DSTP_XDATA
1002
{
1000
_TMPL1=@@[VL_Mark]
1000
_OWNERHANDLE=0000000064
1002
}
0
MTEXT
5
232
100
AcDbEntity
8
FORMAT
100
AcDbMText
6
ByLayer
10
1.0000000000
20
-25.0000000000
30
0.0000000000
40
3.0000000000
41
50.0000000000
71
2
1
??
7
MtXpl_ISOCPEUR
11
0.0000000000
21
1.0000000000
31
0.0000000000
73
2
44
0.9000000000
1001
DSTP_XDATA
1002
{
1000
_TMPL1=@@[VL_Type]
1000
_OWNERHANDLE=0000000064
1002
}
0
ENDBLK
5
233
100
AcDbEntity
8
0
100
AcDbBlockEnd
1001
DSTP_XDATA
1002
{
1002
}
0
BLOCK
5
234
100
AcDbEntity
8
0
100
AcDbBlockBegin
2
EL_VL_DIAGRAM_H2
70
2
10
0
20
0
30
0
3
EL_VL_DIAGRAM_H2
1

0
LINE
5
235
100
AcDbEntity
8
TABLE
100
AcDbLine
6
Continuous
10
0.0000000000
20
0.0000000000
30
0.0000000000
11
0.0000000000
21
-15.0003350000
31
0.0000000000
1001
DSTP_XDATA
1002
{
1000
_OWNERHANDLE=0000000064
1002
}
0
LINE
5
236
100
AcDbEntity
8
TABLE
100
AcDbLine
6
Continuous
10
0.0000000000
20
-5.0000000000
30
0.0000000000
11
45.0000000000
21
-5.0000000000
31
0.0000000000
1001
DSTP_XDATA
1002
{
1000
_OWNERHANDLE=0000000064
1002
}
0
ENDBLK
5
237
100
AcDbEntity
8
0
100
AcDbBlockEnd
1001
DSTP_XDATA
1002
{
1002
}
0
BLOCK
5
238
100
AcDbEntity
8
0
100
AcDbBlockBegin
2
DEVICE_EL_VL_DIAGRAM_H2
70
2
10
0
20
0
30
0
3
DEVICE_EL_VL_DIAGRAM_H2
1

0
MTEXT
5
239
100
AcDbEntity
8
FORMAT
100
AcDbMText
6
ByLayer
10
22.5000000000
20
-4.0000000000
30
0.0000000000
40
3.0000000000
41
45.0000000000
71
8
1
??
7
MtXpl_ISOCPEUR
11
1.0000000000
21
0.0000000000
31
0.0000000000
73
2
44
0.9000000000
1001
DSTP_XDATA
1002
{
1000
_TMPL1=@@[VL_Mark]
1000
_OWNERHANDLE=0000000064
1002
}
0
MTEXT
5
23A
100
AcDbEntity
8
FORMAT
100
AcDbMText
6
ByLayer
10
22.5000000000
20
-6.0000000000
30
0.0000000000
40
3.0000000000
41
45.0000000000
71
2
1
??
7
MtXpl_ISOCPEUR
11
1.0000000000
21
0.0000000000
31
0.0000000000
73
2
44
0.9000000000
1001
DSTP_XDATA
1002
{
1000
_TMPL1=@@[VL_Type]
1000
_OWNERHANDLE=0000000064
1002
}
0
ENDBLK
5
23B
100
AcDbEntity
8
0
100
AcDbBlockEnd
1001
DSTP_XDATA
1002
{
1002
}
0
BLOCK
5
23C
100
AcDbEntity
8
0
100
AcDbBlockBegin
2
EL_VL_DIAGRAM_H3
70
2
10
0
20
0
30
0
3
EL_VL_DIAGRAM_H3
1

0
LINE
5
23D
100
AcDbEntity
8
TABLE
100
AcDbLine
6
Continuous
10
0.0000000000
20
0.0000000000
30
0.0000000000
11
0.0000000000
21
-15.0003350000
31
0.0000000000
1001
DSTP_XDATA
1002
{
1000
_OWNERHANDLE=0000000064
1002
}
0
LINE
5
23E
100
AcDbEntity
8
TABLE
100
AcDbLine
6
Continuous
10
-45.0000000000
20
-5.0000000000
30
0.0000000000
11
0.0000000000
21
-5.0000000000
31
0.0000000000
1001
DSTP_XDATA
1002
{
1000
_OWNERHANDLE=0000000064
1002
}
0
ENDBLK
5
23F
100
AcDbEntity
8
0
100
AcDbBlockEnd
1001
DSTP_XDATA
1002
{
1002
}
0
BLOCK
5
240
100
AcDbEntity
8
0
100
AcDbBlockBegin
2
DEVICE_EL_VL_DIAGRAM_H3
70
2
10
0
20
0
30
0
3
DEVICE_EL_VL_DIAGRAM_H3
1

0
MTEXT
5
241
100
AcDbEntity
8
FORMAT
100
AcDbMText
6
ByLayer
10
-22.5000000000
20
-4.0000000000
30
0.0000000000
40
3.0000000000
41
45.0000000000
71
8
1
??
7
MtXpl_ISOCPEUR
11
1.0000000000
21
0.0000000000
31
0.0000000000
73
2
44
0.9000000000
1001
DSTP_XDATA
1002
{
1000
_TMPL1=@@[VL_Mark]
1000
_OWNERHANDLE=0000000064
1002
}
0
MTEXT
5
242
100
AcDbEntity
8
FORMAT
100
AcDbMText
6
ByLayer
10
-22.5000000000
20
-6.0000000000
30
0.0000000000
40
3.0000000000
41
45.0000000000
71
2
1
??
7
MtXpl_ISOCPEUR
11
1.0000000000
21
0.0000000000
31
0.0000000000
73
2
44
0.9000000000
1001
DSTP_XDATA
1002
{
1000
_TMPL1=@@[VL_Type]
1000
_OWNERHANDLE=0000000064
1002
}
0
ENDBLK
5
243
100
AcDbEntity
8
0
100
AcDbBlockEnd
1001
DSTP_XDATA
1002
{
1002
}
0
BLOCK
5
244
100
AcDbEntity
8
0
100
AcDbBlockBegin
2
EL_VL_DIAGRAM_H4
70
2
10
0
20
0
30
0
3
EL_VL_DIAGRAM_H4
1

0
LINE
5
245
100
AcDbEntity
8
TABLE
100
AcDbLine
6
ByLayer
10
0.0000000000
20
-5.0000000000
30
0.0000000000
11
0.0000000000
21
0.0000000000
31
0.0000000000
1001
DSTP_XDATA
1002
{
1000
_OWNERHANDLE=0000000064
1002
}
0
LINE
5
246
100
AcDbEntity
8
TABLE
100
AcDbLine
6
ByLayer
10
1.5000000000
20
0.0000000000
30
0.0000000000
11
0.0000000000
21
2.5000000000
31
0.0000000000
1001
DSTP_XDATA
1002
{
1000
_OWNERHANDLE=0000000064
1002
}
0
LINE
5
247
100
AcDbEntity
8
TABLE
100
AcDbLine
6
ByLayer
10
0.0000000000
20
2.5000000000
30
0.0000000000
11
-1.5000000000
21
0.0000000000
31
0.0000000000
1001
DSTP_XDATA
1002
{
1000
_OWNERHANDLE=0000000064
1002
}
0
LINE
5
248
100
AcDbEntity
8
TABLE
100
AcDbLine
6
ByLayer
10
-1.5000000000
20
0.0000000000
30
0.0000000000
11
1.5000000000
21
0.0000000000
31
0.0000000000
1001
DSTP_XDATA
1002
{
1000
_OWNERHANDLE=0000000064
1002
}
0
ENDBLK
5
249
100
AcDbEntity
8
0
100
AcDbBlockEnd
1001
DSTP_XDATA
1002
{
1002
}
0
BLOCK
5
24A
100
AcDbEntity
8
0
100
AcDbBlockBegin
2
DEVICE_EL_VL_DIAGRAM_H4
70
2
10
0
20
0
30
0
3
DEVICE_EL_VL_DIAGRAM_H4
1

0
LINE
5
24B
100
AcDbEntity
8
TABLE
100
AcDbLine
6
ByLayer
10
2.5000000000
20
-5.0003350000
30
0.0000000000
11
2.5000000000
21
-2.5000000000
31
0.0000000000
1001
DSTP_XDATA
1002
{
1000
_OWNERHANDLE=0000000064
1000
LCGoodLayer=TABLE
1000
LCBadLayer=SYS_METRIC
1000
LCExpression=VL_Phase>1
1002
}
0
LINE
5
24C
100
AcDbEntity
8
TABLE
100
AcDbLine
6
ByLayer
10
0.0000000000
20
0.0000000000
30
0.0000000000
11
2.5000000000
21
-2.5000000000
31
0.0000000000
1001
DSTP_XDATA
1002
{
1000
_OWNERHANDLE=0000000064
1000
LCGoodLayer=TABLE
1000
LCBadLayer=SYS_METRIC
1000
LCExpression=VL_Phase>1
1002
}
0
LINE
5
24D
100
AcDbEntity
8
TABLE
100
AcDbLine
6
ByLayer
10
5.0000000000
20
-5.0003350000
30
0.0000000000
11
5.0000000000
21
-2.5000000000
31
0.0000000000
1001
DSTP_XDATA
1002
{
1000
_OWNERHANDLE=0000000064
1000
LCGoodLayer=TABLE
1000
LCBadLayer=SYS_METRIC
1000
LCExpression=VL_Phase>2
1002
}
0
LINE
5
24E
100
AcDbEntity
8
TABLE
100
AcDbLine
6
ByLayer
10
0.0000000000
20
0.0000000000
30
0.0000000000
11
5.0000000000
21
-2.5000000000
31
0.0000000000
1001
DSTP_XDATA
1002
{
1000
_OWNERHANDLE=0000000064
1000
LCGoodLayer=TABLE
1000
LCBadLayer=SYS_METRIC
1000
LCExpression=VL_Phase>2
1002
}
0
ENDBLK
5
24F
100
AcDbEntity
8
0
100
AcDbBlockEnd
1001
DSTP_XDATA
1002
{
1002
}
0
BLOCK
5
250
100
AcDbEntity
8
0
100
AcDbBlockBegin
2
EL_VL_DIAGRAM_H5
70
2
10
0
20
0
30
0
3
EL_VL_DIAGRAM_H5
1

0
LINE
5
251
100
AcDbEntity
8
TABLE
100
AcDbLine
6
ByLayer
10
0.0000000000
20
0.0000000000
30
0.0000000000
11
0.0000000000
21
-5.0000000000
31
0.0000000000
1001
DSTP_XDATA
1002
{
1000
_OWNERHANDLE=0000000064
1002
}
0
LINE
5
252
100
AcDbEntity
8
TABLE
100
AcDbLine
6
ByLayer
10
-1.5000000000
20
-4.9996650000
30
0.0000000000
11
0.0000000000
21
-7.4993300000
31
0.0000000000
1001
DSTP_XDATA
1002
{
1000
_OWNERHANDLE=0000000064
1002
}
0
LINE
5
253
100
AcDbEntity
8
TABLE
100
AcDbLine
6
ByLayer
10
0.0000000000
20
-7.4993300000
30
0.0000000000
11
1.5000000000
21
-4.9996650000
31
0.0000000000
1001
DSTP_XDATA
1002
{
1000
_OWNERHANDLE=0000000064
1002
}
0
LINE
5
254
100
AcDbEntity
8
TABLE
100
AcDbLine
6
ByLayer
10
1.5000000000
20
-4.9996650000
30
0.0000000000
11
-1.5000000000
21
-4.9996650000
31
0.0000000000
1001
DSTP_XDATA
1002
{
1000
_OWNERHANDLE=0000000064
1002
}
0
ENDBLK
5
255
100
AcDbEntity
8
0
100
AcDbBlockEnd
1001
DSTP_XDATA
1002
{
1002
}
0
BLOCK
5
256
100
AcDbEntity
8
0
100
AcDbBlockBegin
2
DEVICE_EL_VL_DIAGRAM_H5
70
2
10
0
20
0
30
0
3
DEVICE_EL_VL_DIAGRAM_H5
1

0
LINE
5
257
100
AcDbEntity
8
TABLE
100
AcDbLine
6
ByLayer
10
2.5000000000
20
0.0003350000
30
0.0000000000
11
2.5000000000
21
-2.5000000000
31
0.0000000000
1001
DSTP_XDATA
1002
{
1000
_OWNERHANDLE=0000000064
1000
LCGoodLayer=TABLE
1000
LCBadLayer=SYS_METRIC
1000
LCExpression=VL_Phase>1
1002
}
0
LINE
5
258
100
AcDbEntity
8
TABLE
100
AcDbLine
6
ByLayer
10
0.0000000000
20
-5.0000000000
30
0.0000000000
11
2.5000000000
21
-2.5000000000
31
0.0000000000
1001
DSTP_XDATA
1002
{
1000
_OWNERHANDLE=0000000064
1000
LCGoodLayer=TABLE
1000
LCBadLayer=SYS_METRIC
1000
LCExpression=VL_Phase>1
1002
}
0
LINE
5
259
100
AcDbEntity
8
TABLE
100
AcDbLine
6
ByLayer
10
5.0000000000
20
0.0003350000
30
0.0000000000
11
5.0000000000
21
-2.5000000000
31
0.0000000000
1001
DSTP_XDATA
1002
{
1000
_OWNERHANDLE=0000000064
1000
LCGoodLayer=TABLE
1000
LCBadLayer=SYS_METRIC
1000
LCExpression=VL_Phase>2
1002
}
0
LINE
5
25A
100
AcDbEntity
8
TABLE
100
AcDbLine
6
ByLayer
10
0.0000000000
20
-5.0000000000
30
0.0000000000
11
5.0000000000
21
-2.5000000000
31
0.0000000000
1001
DSTP_XDATA
1002
{
1000
_OWNERHANDLE=0000000064
1000
LCGoodLayer=TABLE
1000
LCBadLayer=SYS_METRIC
1000
LCExpression=VL_Phase>2
1002
}
0
ENDBLK
5
25B
100
AcDbEntity
8
0
100
AcDbBlockEnd
1001
DSTP_XDATA
1002
{
1002
}
0
BLOCK
5
25C
100
AcDbEntity
8
0
100
AcDbBlockBegin
2
EL_VL_DIAGRAM_H6
70
2
10
0
20
0
30
0
3
EL_VL_DIAGRAM_H6
1

0
LINE
5
25D
100
AcDbEntity
8
TABLE
100
AcDbLine
6
ByLayer
10
0.0000000000
20
-5.0000000000
30
0.0000000000
11
0.0000000000
21
0.0000000000
31
0.0000000000
1001
DSTP_XDATA
1002
{
1000
_OWNERHANDLE=0000000064
1002
}
0
LINE
5
25E
100
AcDbEntity
8
TABLE
100
AcDbLine
6
ByLayer
10
1.5000000000
20
0.0000000000
30
0.0000000000
11
0.0000000000
21
2.5000000000
31
0.0000000000
1001
DSTP_XDATA
1002
{
1000
_OWNERHANDLE=0000000064
1002
}
0
LINE
5
25F
100
AcDbEntity
8
TABLE
100
AcDbLine
6
ByLayer
10
0.0000000000
20
2.5000000000
30
0.0000000000
11
-1.5000000000
21
0.0000000000
31
0.0000000000
1001
DSTP_XDATA
1002
{
1000
_OWNERHANDLE=0000000064
1002
}
0
LINE
5
260
100
AcDbEntity
8
TABLE
100
AcDbLine
6
ByLayer
10
-1.5000000000
20
0.0000000000
30
0.0000000000
11
1.5000000000
21
0.0000000000
31
0.0000000000
1001
DSTP_XDATA
1002
{
1000
_OWNERHANDLE=0000000064
1002
}
0
LINE
5
261
100
AcDbEntity
8
TABLE
100
AcDbLine
6
ByLayer
10
-15.0000000000
20
-5.0000000000
30
0.0000000000
11
0.0000000000
21
-5.0000000000
31
0.0000000000
1001
DSTP_XDATA
1002
{
1000
_OWNERHANDLE=0000000064
1002
}
0
CIRCLE
5
262
100
AcDbEntity
8
TABLE
100
AcDbCircle
6
ByLayer
10
-15.0000000000
20
-5.0000000000
30
0.0000000000
40
0.5000000000
1001
DSTP_XDATA
1002
{
1000
_OWNERHANDLE=0000000064
1002
}
0
ENDBLK
5
263
100
AcDbEntity
8
0
100
AcDbBlockEnd
1001
DSTP_XDATA
1002
{
1002
}
0
BLOCK
5
264
100
AcDbEntity
8
0
100
AcDbBlockBegin
2
DEVICE_EL_VL_DIAGRAM_H6
70
2
10
0
20
0
30
0
3
DEVICE_EL_VL_DIAGRAM_H6
1

0
LINE
5
265
100
AcDbEntity
8
TABLE
100
AcDbLine
6
ByLayer
10
2.5000000000
20
-7.5000000000
30
0.0000000000
11
2.5000000000
21
-2.5000000000
31
0.0000000000
1001
DSTP_XDATA
1002
{
1000
_OWNERHANDLE=0000000064
1000
LCGoodLayer=TABLE
1000
LCBadLayer=SYS_METRIC
1000
LCExpression=VL_Phase>1
1002
}
0
LINE
5
266
100
AcDbEntity
8
TABLE
100
AcDbLine
6
ByLayer
10
0.0000000000
20
0.0000000000
30
0.0000000000
11
2.5000000000
21
-2.5000000000
31
0.0000000000
1001
DSTP_XDATA
1002
{
1000
_OWNERHANDLE=0000000064
1000
LCGoodLayer=TABLE
1000
LCBadLayer=SYS_METRIC
1000
LCExpression=VL_Phase>1
1002
}
0
LINE
5
267
100
AcDbEntity
8
TABLE
100
AcDbLine
6
ByLayer
10
5.0000000000
20
-10.0000000000
30
0.0000000000
11
5.0000000000
21
-2.5000000000
31
0.0000000000
1001
DSTP_XDATA
1002
{
1000
_OWNERHANDLE=0000000064
1000
LCGoodLayer=TABLE
1000
LCBadLayer=SYS_METRIC
1000
LCExpression=VL_Phase>2
1002
}
0
LINE
5
268
100
AcDbEntity
8
TABLE
100
AcDbLine
6
ByLayer
10
0.0000000000
20
0.0000000000
30
0.0000000000
11
5.0000000000
21
-2.5000000000
31
0.0000000000
1001
DSTP_XDATA
1002
{
1000
_OWNERHANDLE=0000000064
1000
LCGoodLayer=TABLE
1000
LCBadLayer=SYS_METRIC
1000
LCExpression=VL_Phase>2
1002
}
0
LINE
5
269
100
AcDbEntity
8
TABLE
100
AcDbLine
6
ByLayer
10
-10.0000000000
20
-10.0000000000
30
0.0000000000
11
5.0000000000
21
-10.0000000000
31
0.0000000000
1001
DSTP_XDATA
1002
{
1000
_OWNERHANDLE=0000000064
1000
LCGoodLayer=TABLE
1000
LCBadLayer=SYS_METRIC
1000
LCExpression=VL_Phase>2
1002
}
0
LINE
5
26A
100
AcDbEntity
8
TABLE
100
AcDbLine
6
ByLayer
10
-12.5000000000
20
-7.5000000000
30
0.0000000000
11
2.5000000000
21
-7.5000000000
31
0.0000000000
1001
DSTP_XDATA
1002
{
1000
_OWNERHANDLE=0000000064
1000
LCGoodLayer=TABLE
1000
LCBadLayer=SYS_METRIC
1000
LCExpression=VL_Phase>1
1002
}
0
CIRCLE
5
26B
100
AcDbEntity
8
TABLE
100
AcDbCircle
6
ByLayer
10
-12.5000000000
20
-7.5000000000
30
0.0000000000
40
0.5000000000
1001
DSTP_XDATA
1002
{
1000
_OWNERHANDLE=0000000064
1000
LCGoodLayer=TABLE
1000
LCBadLayer=SYS_METRIC
1000
LCExpression=VL_Phase>1
1002
}
0
CIRCLE
5
26C
100
AcDbEntity
8
TABLE
100
AcDbCircle
6
ByLayer
10
-10.0000000000
20
-10.0000000000
30
0.0000000000
40
0.5000000000
1001
DSTP_XDATA
1002
{
1000
_OWNERHANDLE=0000000064
1000
LCGoodLayer=TABLE
1000
LCBadLayer=SYS_METRIC
1000
LCExpression=VL_Phase>2
1002
}
0
ENDBLK
5
26D
100
AcDbEntity
8
0
100
AcDbBlockEnd
1001
DSTP_XDATA
1002
{
1002
}
0
BLOCK
5
26E
100
AcDbEntity
8
0
100
AcDbBlockBegin
2
EL_VL_DIAGRAM_H7
70
2
10
0
20
0
30
0
3
EL_VL_DIAGRAM_H7
1

0
LINE
5
26F
100
AcDbEntity
8
TABLE
100
AcDbLine
6
ByLayer
10
0.0000000000
20
5.0000000000
30
0.0000000000
11
0.0000000000
21
0.0000000000
31
0.0000000000
1001
DSTP_XDATA
1002
{
1000
_OWNERHANDLE=0000000064
1002
}
0
LINE
5
270
100
AcDbEntity
8
TABLE
100
AcDbLine
6
ByLayer
10
1.5000000000
20
0.0000000000
30
0.0000000000
11
0.0000000000
21
-2.5000000000
31
0.0000000000
1001
DSTP_XDATA
1002
{
1000
_OWNERHANDLE=0000000064
1002
}
0
LINE
5
271
100
AcDbEntity
8
TABLE
100
AcDbLine
6
ByLayer
10
0.0000000000
20
-2.5000000000
30
0.0000000000
11
-1.5000000000
21
0.0000000000
31
0.0000000000
1001
DSTP_XDATA
1002
{
1000
_OWNERHANDLE=0000000064
1002
}
0
LINE
5
272
100
AcDbEntity
8
TABLE
100
AcDbLine
6
ByLayer
10
-1.5000000000
20
0.0000000000
30
0.0000000000
11
1.5000000000
21
0.0000000000
31
0.0000000000
1001
DSTP_XDATA
1002
{
1000
_OWNERHANDLE=0000000064
1002
}
0
LINE
5
273
100
AcDbEntity
8
TABLE
100
AcDbLine
6
ByLayer
10
-15.0000000000
20
5.0000000000
30
0.0000000000
11
0.0000000000
21
5.0000000000
31
0.0000000000
1001
DSTP_XDATA
1002
{
1000
_OWNERHANDLE=0000000064
1002
}
0
CIRCLE
5
274
100
AcDbEntity
8
TABLE
100
AcDbCircle
6
ByLayer
10
-15.0000000000
20
5.0000000000
30
0.0000000000
40
0.5000000000
1001
DSTP_XDATA
1002
{
1000
_OWNERHANDLE=0000000064
1002
}
0
ENDBLK
5
275
100
AcDbEntity
8
0
100
AcDbBlockEnd
1001
DSTP_XDATA
1002
{
1002
}
0
BLOCK
5
276
100
AcDbEntity
8
0
100
AcDbBlockBegin
2
DEVICE_EL_VL_DIAGRAM_H7
70
2
10
0
20
0
30
0
3
DEVICE_EL_VL_DIAGRAM_H7
1

0
LINE
5
277
100
AcDbEntity
8
TABLE
100
AcDbLine
6
ByLayer
10
2.5000000000
20
7.5000000000
30
0.0000000000
11
2.5000000000
21
2.5000000000
31
0.0000000000
1001
DSTP_XDATA
1002
{
1000
_OWNERHANDLE=0000000064
1000
LCGoodLayer=TABLE
1000
LCBadLayer=SYS_METRIC
1000
LCExpression=VL_Phase>1
1002
}
0
LINE
5
278
100
AcDbEntity
8
TABLE
100
AcDbLine
6
ByLayer
10
0.0000000000
20
0.0000000000
30
0.0000000000
11
2.5000000000
21
2.5000000000
31
0.0000000000
1001
DSTP_XDATA
1002
{
1000
_OWNERHANDLE=0000000064
1000
LCGoodLayer=TABLE
1000
LCBadLayer=SYS_METRIC
1000
LCExpression=VL_Phase>1
1002
}
0
LINE
5
279
100
AcDbEntity
8
TABLE
100
AcDbLine
6
ByLayer
10
5.0000000000
20
10.0000000000
30
0.0000000000
11
5.0000000000
21
2.5000000000
31
0.0000000000
1001
DSTP_XDATA
1002
{
1000
_OWNERHANDLE=0000000064
1000
LCGoodLayer=TABLE
1000
LCBadLayer=SYS_METRIC
1000
LCExpression=VL_Phase>2
1002
}
0
LINE
5
27A
100
AcDbEntity
8
TABLE
100
AcDbLine
6
ByLayer
10
0.0000000000
20
0.0000000000
30
0.0000000000
11
5.0000000000
21
2.5000000000
31
0.0000000000
1001
DSTP_XDATA
1002
{
1000
_OWNERHANDLE=0000000064
1000
LCGoodLayer=TABLE
1000
LCBadLayer=SYS_METRIC
1000
LCExpression=VL_Phase>2
1002
}
0
LINE
5
27B
100
AcDbEntity
8
TABLE
100
AcDbLine
6
ByLayer
10
-10.0000000000
20
10.0000000000
30
0.0000000000
11
5.0000000000
21
10.0000000000
31
0.0000000000
1001
DSTP_XDATA
1002
{
1000
_OWNERHANDLE=0000000064
1000
LCGoodLayer=TABLE
1000
LCBadLayer=SYS_METRIC
1000
LCExpression=VL_Phase>2
1002
}
0
LINE
5
27C
100
AcDbEntity
8
TABLE
100
AcDbLine
6
ByLayer
10
-12.5000000000
20
7.5000000000
30
0.0000000000
11
2.5000000000
21
7.5000000000
31
0.0000000000
1001
DSTP_XDATA
1002
{
1000
_OWNERHANDLE=0000000064
1000
LCGoodLayer=TABLE
1000
LCBadLayer=SYS_METRIC
1000
LCExpression=VL_Phase>1
1002
}
0
CIRCLE
5
27D
100
AcDbEntity
8
TABLE
100
AcDbCircle
6
ByLayer
10
-12.5000000000
20
7.5000000000
30
0.0000000000
40
0.5000000000
1001
DSTP_XDATA
1002
{
1000
_OWNERHANDLE=0000000064
1000
LCGoodLayer=TABLE
1000
LCBadLayer=SYS_METRIC
1000
LCExpression=VL_Phase>1
1002
}
0
CIRCLE
5
27E
100
AcDbEntity
8
TABLE
100
AcDbCircle
6
ByLayer
10
-10.0000000000
20
10.0000000000
30
0.0000000000
40
0.5000000000
1001
DSTP_XDATA
1002
{
1000
_OWNERHANDLE=0000000064
1000
LCGoodLayer=TABLE
1000
LCBadLayer=SYS_METRIC
1000
LCExpression=VL_Phase>2
1002
}
0
ENDBLK
5
27F
100
AcDbEntity
8
0
100
AcDbBlockEnd
1001
DSTP_XDATA
1002
{
1002
}
0
BLOCK
5
280
100
AcDbEntity
8
0
100
AcDbBlockBegin
2
EL_VL_DIAGRAM_FD1
70
2
10
0
20
0
30
0
3
EL_VL_DIAGRAM_FD1
1

0
LINE
5
281
100
AcDbEntity
8
TABLE
100
AcDbLine
6
Continuous
10
25.0000000000
20
0.0000000000
30
0.0000000000
11
0.0000000000
21
0.0000000000
31
0.0000000000
1001
DSTP_XDATA
1002
{
1000
_OWNERHANDLE=0000000064
1002
}
0
LINE
5
282
100
AcDbEntity
8
TABLE
100
AcDbLine
6
Continuous
10
25.0000000000
20
-40.0000000000
30
0.0000000000
11
25.0000000000
21
0.0000000000
31
0.0000000000
1001
DSTP_XDATA
1002
{
1000
_OWNERHANDLE=0000000064
1002
}
0
LINE
5
283
100
AcDbEntity
8
TABLE
100
AcDbLine
6
Continuous
10
0.0000000000
20
0.0000000000
30
0.0000000000
11
0.0000000000
21
-40.0000000000
31
0.0000000000
1001
DSTP_XDATA
1002
{
1000
_OWNERHANDLE=0000000064
1002
}
0
LINE
5
284
100
AcDbEntity
8
TABLE
100
AcDbLine
6
Continuous
10
25.0000000000
20
-8.0000000000
30
0.0000000000
11
0.0000000000
21
-8.0000000000
31
0.0000000000
1001
DSTP_XDATA
1002
{
1000
_OWNERHANDLE=0000000064
1002
}
0
LINE
5
285
100
AcDbEntity
8
TABLE
100
AcDbLine
6
Continuous
10
25.0000000000
20
-16.0000000000
30
0.0000000000
11
0.0000000000
21
-16.0000000000
31
0.0000000000
1001
DSTP_XDATA
1002
{
1000
_OWNERHANDLE=0000000064
1002
}
0
LINE
5
286
100
AcDbEntity
8
TABLE
100
AcDbLine
6
Continuous
10
25.0000000000
20
-24.0000000000
30
0.0000000000
11
0.0000000000
21
-24.0000000000
31
0.0000000000
1001
DSTP_XDATA
1002
{
1000
_OWNERHANDLE=0000000064
1002
}
0
LINE
5
287
100
AcDbEntity
8
TABLE
100
AcDbLine
6
Continuous
10
25.0000000000
20
-40.0000000000
30
0.0000000000
11
0.0000000000
21
-40.0000000000
31
0.0000000000
1001
DSTP_XDATA
1002
{
1000
_OWNERHANDLE=0000000064
1002
}
0
ENDBLK
5
288
100
AcDbEntity
8
0
100
AcDbBlockEnd
1001
DSTP_XDATA
1002
{
1002
}
0
BLOCK
5
289
100
AcDbEntity
8
0
100
AcDbBlockBegin
2
DEVICE_EL_VL_DIAGRAM_FD1
70
2
10
0
20
0
30
0
3
DEVICE_EL_VL_DIAGRAM_FD1
1

0
MTEXT
5
28A
100
AcDbEntity
8
FORMAT
100
AcDbMText
6
ByLayer
10
12.5000000000
20
-4.0000000000
30
0.0000000000
40
3.0000000000
41
23.0000000000
71
5
1
??
7
MtXpl_ISOCPEUR
11
1.0000000000
21
0.0000000000
31
0.0000000000
73
2
44
0.9000000000
1001
DSTP_XDATA
1002
{
1000
_TMPL1=@@[VL_Mark]
1000
_OWNERHANDLE=0000000064
1002
}
0
MTEXT
5
28B
100
AcDbEntity
8
FORMAT
100
AcDbMText
6
ByLayer
10
12.5000000000
20
-12.0000000000
30
0.0000000000
40
3.0000000000
41
23.0000000000
71
5
1
??
7
MtXpl_ISOCPEUR
11
1.0000000000
21
0.0000000000
31
0.0000000000
73
2
44
0.9000000000
1001
DSTP_XDATA
1002
{
1000
_TMPL1=@@[VL_PyPp]
1000
_OWNERHANDLE=0000000064
1002
}
0
MTEXT
5
28C
100
AcDbEntity
8
FORMAT
100
AcDbMText
6
ByLayer
10
12.5000000000
20
-20.0000000000
30
0.0000000000
40
3.0000000000
41
23.0000000000
71
5
1
??
7
MtXpl_ISOCPEUR
11
1.0000000000
21
0.0000000000
31
0.0000000000
73
2
44
0.9000000000
1001
DSTP_XDATA
1002
{
1000
_TMPL1=@@[VL_Ip]
1000
_OWNERHANDLE=0000000064
1002
}
0
MTEXT
5
28D
100
AcDbEntity
8
FORMAT
100
AcDbMText
6
ByLayer
10
12.5000000000
20
-32.0000000000
30
0.0000000000
40
3.0000000000
41
23.0000000000
71
5
1
??
7
MtXpl_ISOCPEUR
11
1.0000000000
21
0.0000000000
31
0.0000000000
73
2
44
0.9000000000
1001
DSTP_XDATA
1002
{
1000
_TMPL1=@@[VL_Load]
1000
_OWNERHANDLE=0000000064
1002
}
0
ENDBLK
5
28E
100
AcDbEntity
8
0
100
AcDbBlockEnd
1001
DSTP_XDATA
1002
{
1002
}
0
BLOCK
5
28F
100
AcDbEntity
8
0
100
AcDbBlockBegin
2
EL_VL_DIAGRAM_FD2
70
2
10
0
20
0
30
0
3
EL_VL_DIAGRAM_FD2
1

0
LINE
5
290
100
AcDbEntity
8
TABLE
100
AcDbLine
6
Continuous
10
50.0000000000
20
0.0000000000
30
0.0000000000
11
0.0000000000
21
0.0000000000
31
0.0000000000
1001
DSTP_XDATA
1002
{
1000
_OWNERHANDLE=0000000064
1002
}
0
LINE
5
291
100
AcDbEntity
8
TABLE
100
AcDbLine
6
Continuous
10
50.0000000000
20
-40.0000000000
30
0.0000000000
11
50.0000000000
21
0.0000000000
31
0.0000000000
1001
DSTP_XDATA
1002
{
1000
_OWNERHANDLE=0000000064
1002
}
0
LINE
5
292
100
AcDbEntity
8
TABLE
100
AcDbLine
6
Continuous
10
0.0000000000
20
0.0000000000
30
0.0000000000
11
0.0000000000
21
-40.0000000000
31
0.0000000000
1001
DSTP_XDATA
1002
{
1000
_OWNERHANDLE=0000000064
1002
}
0
LINE
5
293
100
AcDbEntity
8
TABLE
100
AcDbLine
6
Continuous
10
50.0000000000
20
-8.0000000000
30
0.0000000000
11
0.0000000000
21
-8.0000000000
31
0.0000000000
1001
DSTP_XDATA
1002
{
1000
_OWNERHANDLE=0000000064
1002
}
0
LINE
5
294
100
AcDbEntity
8
TABLE
100
AcDbLine
6
Continuous
10
50.0000000000
20
-16.0000000000
30
0.0000000000
11
0.0000000000
21
-16.0000000000
31
0.0000000000
1001
DSTP_XDATA
1002
{
1000
_OWNERHANDLE=0000000064
1002
}
0
LINE
5
295
100
AcDbEntity
8
TABLE
100
AcDbLine
6
Continuous
10
50.0000000000
20
-24.0000000000
30
0.0000000000
11
0.0000000000
21
-24.0000000000
31
0.0000000000
1001
DSTP_XDATA
1002
{
1000
_OWNERHANDLE=0000000064
1002
}
0
LINE
5
296
100
AcDbEntity
8
TABLE
100
AcDbLine
6
Continuous
10
50.0000000000
20
-40.0000000000
30
0.0000000000
11
0.0000000000
21
-40.0000000000
31
0.0000000000
1001
DSTP_XDATA
1002
{
1000
_OWNERHANDLE=0000000064
1002
}
0
ENDBLK
5
297
100
AcDbEntity
8
0
100
AcDbBlockEnd
1001
DSTP_XDATA
1002
{
1002
}
0
BLOCK
5
298
100
AcDbEntity
8
0
100
AcDbBlockBegin
2
DEVICE_EL_VL_DIAGRAM_FD2
70
2
10
0
20
0
30
0
3
DEVICE_EL_VL_DIAGRAM_FD2
1

0
MTEXT
5
299
100
AcDbEntity
8
FORMAT
100
AcDbMText
6
ByLayer
10
25.0000000000
20
-4.0000000000
30
0.0000000000
40
3.0000000000
41
48.0000000000
71
5
1
??
7
MtXpl_ISOCPEUR
11
1.0000000000
21
0.0000000000
31
0.0000000000
73
2
44
0.9000000000
1001
DSTP_XDATA
1002
{
1000
_TMPL1=@@[VL_Mark]
1000
_OWNERHANDLE=0000000064
1002
}
0
MTEXT
5
29A
100
AcDbEntity
8
FORMAT
100
AcDbMText
6
ByLayer
10
25.0000000000
20
-12.0000000000
30
0.0000000000
40
3.0000000000
41
48.0000000000
71
5
1
??
7
MtXpl_ISOCPEUR
11
1.0000000000
21
0.0000000000
31
0.0000000000
73
2
44
0.9000000000
1001
DSTP_XDATA
1002
{
1000
_TMPL1=@@[VL_PyPp]
1000
_OWNERHANDLE=0000000064
1002
}
0
MTEXT
5
29B
100
AcDbEntity
8
FORMAT
100
AcDbMText
6
ByLayer
10
25.0000000000
20
-20.0000000000
30
0.0000000000
40
3.0000000000
41
48.0000000000
71
5
1
??
7
MtXpl_ISOCPEUR
11
1.0000000000
21
0.0000000000
31
0.0000000000
73
2
44
0.9000000000
1001
DSTP_XDATA
1002
{
1000
_TMPL1=@@[VL_Ip]
1000
_OWNERHANDLE=0000000064
1002
}
0
MTEXT
5
29C
100
AcDbEntity
8
FORMAT
100
AcDbMText
6
ByLayer
10
25.0000000000
20
-32.0000000000
30
0.0000000000
40
3.0000000000
41
48.0000000000
71
5
1
??
7
MtXpl_ISOCPEUR
11
1.0000000000
21
0.0000000000
31
0.0000000000
73
2
44
0.9000000000
1001
DSTP_XDATA
1002
{
1000
_TMPL1=@@[VL_Load]
1000
_OWNERHANDLE=0000000064
1002
}
0
ENDBLK
5
29D
100
AcDbEntity
8
0
100
AcDbBlockEnd
1001
DSTP_XDATA
1002
{
1002
}
0
BLOCK
5
29E
100
AcDbEntity
8
0
100
AcDbBlockBegin
2
EL_VL_DIAGRAM_FD3_1
70
2
10
0
20
0
30
0
3
EL_VL_DIAGRAM_FD3_1
1

0
LINE
5
29F
100
AcDbEntity
8
TABLE
100
AcDbLine
6
Continuous
10
0.0000000000
20
-8.0000000000
30
0.0000000000
11
60.0000000000
21
-8.0000000000
31
0.0000000000
1001
DSTP_XDATA
1002
{
1000
_OWNERHANDLE=0000000064
1002
}
0
LINE
5
2A0
100
AcDbEntity
8
TABLE
100
AcDbLine
6
Continuous
10
60.0000000000
20
0.0000000000
30
0.0000000000
11
0.0000000000
21
0.0000000000
31
0.0000000000
1001
DSTP_XDATA
1002
{
1000
_OWNERHANDLE=0000000064
1002
}
0
LINE
5
2A1
100
AcDbEntity
8
TABLE
100
AcDbLine
6
ByLayer
10
60.0000000000
20
-16.0000000000
30
0.0000000000
11
0.0000000000
21
-16.0000000000
31
0.0000000000
1001
DSTP_XDATA
1002
{
1000
_OWNERHANDLE=0000000064
1002
}
0
TEXT
5
2A2
100
AcDbEntity
8
FORMAT
100
AcDbText
6
ByLayer
11
15.0000000000
21
-12.0000000000
31
0.0000000000
10
4.5006720000
20
-13.5000000000
30
0.0000000000
40
3.0000000000
50
0.0000000000
41
1.0000000000
51
0.0000000000
72
1
7
Standard
1
Расч.режим
100
AcDbText
73
2
1001
DSTP_XDATA
1002
{
1000
_OWNERHANDLE=0000000064
1002
}
0
TEXT
5
2A3
100
AcDbEntity
8
FORMAT
100
AcDbText
6
ByLayer
11
45.0000000000
21
-12.0000000000
31
0.0000000000
10
35.2506240000
20
-13.5000000000
30
0.0000000000
40
3.0000000000
50
0.0000000000
41
1.0000000000
51
0.0000000000
72
1
7
Standard
1
Пож.режим
100
AcDbText
73
2
1001
DSTP_XDATA
1002
{
1000
_OWNERHANDLE=0000000064
1002
}
0
LINE
5
2A4
100
AcDbEntity
8
TABLE
100
AcDbLine
6
Continuous
10
0.0000000000
20
-64.0000000000
30
0.0000000000
11
60.0000000000
21
-64.0000000000
31
0.0000000000
1001
DSTP_XDATA
1002
{
1000
_OWNERHANDLE=0000000064
1002
}
0
LINE
5
2A5
100
AcDbEntity
8
TABLE
100
AcDbLine
6
Continuous
10
30.0000000000
20
-64.0000000000
30
0.0000000000
11
30.0000000000
21
-8.0000000000
31
0.0000000000
1001
DSTP_XDATA
1002
{
1000
_OWNERHANDLE=0000000064
1002
}
0
LINE
5
2A6
100
AcDbEntity
8
TABLE
100
AcDbLine
6
Continuous
10
0.0000000000
20
0.0000000000
30
0.0000000000
11
0.0000000000
21
-64.0000000000
31
0.0000000000
1001
DSTP_XDATA
1002
{
1000
_OWNERHANDLE=0000000064
1002
}
0
LINE
5
2A7
100
AcDbEntity
8
TABLE
100
AcDbLine
6
Continuous
10
60.0000000000
20
-64.0000000000
30
0.0000000000
11
60.0000000000
21
0.0000000000
31
0.0000000000
1001
DSTP_XDATA
1002
{
1000
_OWNERHANDLE=0000000064
1002
}
0
LINE
5
2A8
100
AcDbEntity
8
TABLE
100
AcDbLine
6
Continuous
10
60.0000000000
20
-8.0000000000
30
0.0000000000
11
0.0000000000
21
-8.0000000000
31
0.0000000000
1001
DSTP_XDATA
1002
{
1000
_OWNERHANDLE=0000000064
1002
}
0
ENDBLK
5
2A9
100
AcDbEntity
8
0
100
AcDbBlockEnd
1001
DSTP_XDATA
1002
{
1002
}
0
BLOCK
5
2AA
100
AcDbEntity
8
0
100
AcDbBlockBegin
2
DEVICE_EL_VL_DIAGRAM_FD3_1
70
2
10
0
20
0
30
0
3
DEVICE_EL_VL_DIAGRAM_FD3_1
1

0
MTEXT
5
2AB
100
AcDbEntity
8
FORMAT
100
AcDbMText
6
ByLayer
10
30.0000000000
20
-4.0000000000
30
0.0000000000
40
3.0000000000
41
60.0000000000
71
5
1
??
7
MtXpl_ISOCPEUR
11
1.0000000000
21
0.0000000000
31
0.0000000000
73
2
44
0.9000000000
1001
DSTP_XDATA
1002
{
1000
_TMPL1=@@[VL_Type]
1000
_OWNERHANDLE=0000000064
1002
}
0
ENDBLK
5
2AC
100
AcDbEntity
8
0
100
AcDbBlockEnd
1001
DSTP_XDATA
1002
{
1002
}
0
BLOCK
5
2AD
100
AcDbEntity
8
0
100
AcDbBlockBegin
2
EL_VL_DIAGRAM_FD3_2
70
2
10
0
20
0
30
0
3
EL_VL_DIAGRAM_FD3_2
1

0
LINE
5
2AE
100
AcDbEntity
8
TABLE
100
AcDbLine
6
Continuous
10
0.0000000000
20
-48.0000000000
30
0.0000000000
11
30.0000000000
21
-48.0000000000
31
0.0000000000
1001
DSTP_XDATA
1002
{
1000
_OWNERHANDLE=0000000064
1002
}
0
LINE
5
2AF
100
AcDbEntity
8
TABLE
100
AcDbLine
6
Continuous
10
30.0000000000
20
-48.0000000000
30
0.0000000000
11
30.0000000000
21
0.0000000000
31
0.0000000000
1001
DSTP_XDATA
1002
{
1000
_OWNERHANDLE=0000000064
1002
}
0
LINE
5
2B0
100
AcDbEntity
8
TABLE
100
AcDbLine
6
Continuous
10
30.0000000000
20
0.0000000000
30
0.0000000000
11
0.0000000000
21
0.0000000000
31
0.0000000000
1001
DSTP_XDATA
1002
{
1000
_OWNERHANDLE=0000000064
1002
}
0
LINE
5
2B1
100
AcDbEntity
8
TABLE
100
AcDbLine
6
Continuous
10
0.0000000000
20
0.0000000000
30
0.0000000000
11
0.0000000000
21
-48.0000000000
31
0.0000000000
1001
DSTP_XDATA
1002
{
1000
_OWNERHANDLE=0000000064
1002
}
0
LINE
5
2B2
100
AcDbEntity
8
TABLE
100
AcDbLine
6
Continuous
10
30.0000000000
20
-8.0000000000
30
0.0000000000
11
0.0000000000
21
-8.0000000000
31
0.0000000000
1001
DSTP_XDATA
1002
{
1000
_OWNERHANDLE=0000000064
1002
}
0
LINE
5
2B3
100
AcDbEntity
8
TABLE
100
AcDbLine
6
Continuous
10
30.0000000000
20
-16.0000000000
30
0.0000000000
11
0.0000000000
21
-16.0000000000
31
0.0000000000
1001
DSTP_XDATA
1002
{
1000
_OWNERHANDLE=0000000064
1002
}
0
LINE
5
2B4
100
AcDbEntity
8
TABLE
100
AcDbLine
6
Continuous
10
30.0000000000
20
-24.0000000000
30
0.0000000000
11
0.0000000000
21
-24.0000000000
31
0.0000000000
1001
DSTP_XDATA
1002
{
1000
_OWNERHANDLE=0000000064
1002
}
0
LINE
5
2B5
100
AcDbEntity
8
TABLE
100
AcDbLine
6
Continuous
10
30.0000000000
20
-32.0000000000
30
0.0000000000
11
0.0000000000
21
-32.0000000000
31
0.0000000000
1001
DSTP_XDATA
1002
{
1000
_OWNERHANDLE=0000000064
1002
}
0
LINE
5
2B6
100
AcDbEntity
8
TABLE
100
AcDbLine
6
Continuous
10
30.0000000000
20
-40.0000000000
30
0.0000000000
11
0.0000000000
21
-40.0000000000
31
0.0000000000
1001
DSTP_XDATA
1002
{
1000
_OWNERHANDLE=0000000064
1002
}
0
LINE
5
2B7
100
AcDbEntity
8
TABLE
100
AcDbLine
6
Continuous
10
30.0000000000
20
-48.0000000000
30
0.0000000000
11
60.0000000000
21
-48.0000000000
31
0.0000000000
1001
DSTP_XDATA
1002
{
1000
_OWNERHANDLE=0000000064
1002
}
0
LINE
5
2B8
100
AcDbEntity
8
TABLE
100
AcDbLine
6
Continuous
10
60.0000000000
20
-48.0000000000
30
0.0000000000
11
60.0000000000
21
0.0000000000
31
0.0000000000
1001
DSTP_XDATA
1002
{
1000
_OWNERHANDLE=0000000064
1002
}
0
LINE
5
2B9
100
AcDbEntity
8
TABLE
100
AcDbLine
6
Continuous
10
60.0000000000
20
0.0000000000
30
0.0000000000
11
30.0000000000
21
0.0000000000
31
0.0000000000
1001
DSTP_XDATA
1002
{
1000
_OWNERHANDLE=0000000064
1002
}
0
LINE
5
2BA
100
AcDbEntity
8
TABLE
100
AcDbLine
6
Continuous
10
60.0000000000
20
-8.0000000000
30
0.0000000000
11
30.0000000000
21
-8.0000000000
31
0.0000000000
1001
DSTP_XDATA
1002
{
1000
_OWNERHANDLE=0000000064
1002
}
0
LINE
5
2BB
100
AcDbEntity
8
TABLE
100
AcDbLine
6
Continuous
10
60.0000000000
20
-16.0000000000
30
0.0000000000
11
30.0000000000
21
-16.0000000000
31
0.0000000000
1001
DSTP_XDATA
1002
{
1000
_OWNERHANDLE=0000000064
1002
}
0
LINE
5
2BC
100
AcDbEntity
8
TABLE
100
AcDbLine
6
Continuous
10
60.0000000000
20
-24.0000000000
30
0.0000000000
11
30.0000000000
21
-24.0000000000
31
0.0000000000
1001
DSTP_XDATA
1002
{
1000
_OWNERHANDLE=0000000064
1002
}
0
LINE
5
2BD
100
AcDbEntity
8
TABLE
100
AcDbLine
6
Continuous
10
60.0000000000
20
-32.0000000000
30
0.0000000000
11
30.0000000000
21
-32.0000000000
31
0.0000000000
1001
DSTP_XDATA
1002
{
1000
_OWNERHANDLE=0000000064
1002
}
0
LINE
5
2BE
100
AcDbEntity
8
TABLE
100
AcDbLine
6
Continuous
10
60.0000000000
20
-40.0000000000
30
0.0000000000
11
30.0000000000
21
-40.0000000000
31
0.0000000000
1001
DSTP_XDATA
1002
{
1000
_OWNERHANDLE=0000000064
1002
}
0
ENDBLK
5
2BF
100
AcDbEntity
8
0
100
AcDbBlockEnd
1001
DSTP_XDATA
1002
{
1002
}
0
BLOCK
5
2C0
100
AcDbEntity
8
0
100
AcDbBlockBegin
2
DEVICE_EL_VL_DIAGRAM_FD3_2
70
2
10
0
20
0
30
0
3
DEVICE_EL_VL_DIAGRAM_FD3_2
1

0
MTEXT
5
2C1
100
AcDbEntity
8
FORMAT
100
AcDbMText
6
ByLayer
10
15.0000000000
20
-4.0000000000
30
0.0000000000
40
3.0000000000
41
30.0000000000
71
5
1
??
7
MtXpl_ISOCPEUR
11
1.0000000000
21
0.0000000000
31
0.0000000000
73
2
44
0.9000000000
1001
DSTP_XDATA
1002
{
1000
_TMPL1=@@[VL_PyP]
1000
_OWNERHANDLE=0000000064
1002
}
0
MTEXT
5
2C2
100
AcDbEntity
8
FORMAT
100
AcDbMText
6
ByLayer
10
15.0000000000
20
-12.0000000000
30
0.0000000000
40
3.0000000000
41
30.0000000000
71
5
1
??
7
MtXpl_ISOCPEUR
11
1.0000000000
21
0.0000000000
31
0.0000000000
73
2
44
0.9000000000
1001
DSTP_XDATA
1002
{
1000
_TMPL1=@@[VL_PpP]
1000
_OWNERHANDLE=0000000064
1002
}
0
MTEXT
5
2C3
100
AcDbEntity
8
FORMAT
100
AcDbMText
6
ByLayer
10
15.0000000000
20
-20.0000000000
30
0.0000000000
40
3.0000000000
41
30.0000000000
71
5
1
??
7
MtXpl_ISOCPEUR
11
1.0000000000
21
0.0000000000
31
0.0000000000
73
2
44
0.9000000000
1001
DSTP_XDATA
1002
{
1000
_TMPL1=@@[VL_IaP]
1000
_OWNERHANDLE=0000000064
1002
}
0
MTEXT
5
2C4
100
AcDbEntity
8
FORMAT
100
AcDbMText
6
ByLayer
10
15.0000000000
20
-28.0000000000
30
0.0000000000
40
3.0000000000
41
30.0000000000
71
5
1
??
7
MtXpl_ISOCPEUR
11
1.0000000000
21
0.0000000000
31
0.0000000000
73
2
44
0.9000000000
1001
DSTP_XDATA
1002
{
1000
_TMPL1=@@[VL_IbP]
1000
_OWNERHANDLE=0000000064
1002
}
0
MTEXT
5
2C5
100
AcDbEntity
8
FORMAT
100
AcDbMText
6
ByLayer
10
15.0000000000
20
-36.0000000000
30
0.0000000000
40
3.0000000000
41
30.0000000000
71
5
1
??
7
MtXpl_ISOCPEUR
11
1.0000000000
21
0.0000000000
31
0.0000000000
73
2
44
0.9000000000
1001
DSTP_XDATA
1002
{
1000
_TMPL1=@@[VL_IcP]
1000
_OWNERHANDLE=0000000064
1002
}
0
MTEXT
5
2C6
100
AcDbEntity
8
FORMAT
100
AcDbMText
6
ByLayer
10
15.0000000000
20
-44.0000000000
30
0.0000000000
40
3.0000000000
41
30.0000000000
71
5
1
??
7
MtXpl_ISOCPEUR
11
1.0000000000
21
0.0000000000
31
0.0000000000
73
2
44
0.9000000000
1001
DSTP_XDATA
1002
{
1000
_TMPL1=@@[VL_CosP]
1000
_OWNERHANDLE=0000000064
1002
}
0
MTEXT
5
2C7
100
AcDbEntity
8
FORMAT
100
AcDbMText
6
ByLayer
10
45.0000000000
20
-4.0000000000
30
0.0000000000
40
3.0000000000
41
30.0000000000
71
5
1
??
7
MtXpl_ISOCPEUR
11
1.0000000000
21
0.0000000000
31
0.0000000000
73
2
44
0.9000000000
1001
DSTP_XDATA
1002
{
1000
_TMPL1=@@[VL_PyA]
1000
_OWNERHANDLE=0000000064
1002
}
0
MTEXT
5
2C8
100
AcDbEntity
8
FORMAT
100
AcDbMText
6
ByLayer
10
45.0000000000
20
-12.0000000000
30
0.0000000000
40
3.0000000000
41
30.0000000000
71
5
1
??
7
MtXpl_ISOCPEUR
11
1.0000000000
21
0.0000000000
31
0.0000000000
73
2
44
0.9000000000
1001
DSTP_XDATA
1002
{
1000
_TMPL1=@@[VL_PpA]
1000
_OWNERHANDLE=0000000064
1002
}
0
MTEXT
5
2C9
100
AcDbEntity
8
FORMAT
100
AcDbMText
6
ByLayer
10
45.0000000000
20
-20.0000000000
30
0.0000000000
40
3.0000000000
41
30.0000000000
71
5
1
??
7
MtXpl_ISOCPEUR
11
1.0000000000
21
0.0000000000
31
0.0000000000
73
2
44
0.9000000000
1001
DSTP_XDATA
1002
{
1000
_TMPL1=@@[VL_IaA]
1000
_OWNERHANDLE=0000000064
1002
}
0
MTEXT
5
2CA
100
AcDbEntity
8
FORMAT
100
AcDbMText
6
ByLayer
10
45.0000000000
20
-28.0000000000
30
0.0000000000
40
3.0000000000
41
30.0000000000
71
5
1
??
7
MtXpl_ISOCPEUR
11
1.0000000000
21
0.0000000000
31
0.0000000000
73
2
44
0.9000000000
1001
DSTP_XDATA
1002
{
1000
_TMPL1=@@[VL_IbA]
1000
_OWNERHANDLE=0000000064
1002
}
0
MTEXT
5
2CB
100
AcDbEntity
8
FORMAT
100
AcDbMText
6
ByLayer
10
45.0000000000
20
-36.0000000000
30
0.0000000000
40
3.0000000000
41
30.0000000000
71
5
1
??
7
MtXpl_ISOCPEUR
11
1.0000000000
21
0.0000000000
31
0.0000000000
73
2
44
0.9000000000
1001
DSTP_XDATA
1002
{
1000
_TMPL1=@@[VL_IcA]
1000
_OWNERHANDLE=0000000064
1002
}
0
MTEXT
5
2CC
100
AcDbEntity
8
FORMAT
100
AcDbMText
6
ByLayer
10
45.0000000000
20
-44.0000000000
30
0.0000000000
40
3.0000000000
41
30.0000000000
71
5
1
??
7
MtXpl_ISOCPEUR
11
1.0000000000
21
0.0000000000
31
0.0000000000
73
2
44
0.9000000000
1001
DSTP_XDATA
1002
{
1000
_TMPL1=@@[VL_CosA]
1000
_OWNERHANDLE=0000000064
1002
}
0
ENDBLK
5
2CD
100
AcDbEntity
8
0
100
AcDbBlockEnd
1001
DSTP_XDATA
1002
{
1002
}
0
BLOCK
5
2CE
100
AcDbEntity
8
0
100
AcDbBlockBegin
2
EL_VL_DIAGRAM_FD4_1
70
2
10
0
20
0
30
0
3
EL_VL_DIAGRAM_FD4_1
1

0
LINE
5
2CF
100
AcDbEntity
8
TABLE
100
AcDbLine
6
Continuous
10
0.0000000000
20
-8.0000000000
30
0.0000000000
11
60.0000000000
21
-8.0000000000
31
0.0000000000
1001
DSTP_XDATA
1002
{
1000
_OWNERHANDLE=0000000064
1002
}
0
LINE
5
2D0
100
AcDbEntity
8
TABLE
100
AcDbLine
6
Continuous
10
90.0000000000
20
0.0000000000
30
0.0000000000
11
0.0000000000
21
0.0000000000
31
0.0000000000
1001
DSTP_XDATA
1002
{
1000
_OWNERHANDLE=0000000064
1002
}
0
LINE
5
2D1
100
AcDbEntity
8
TABLE
100
AcDbLine
6
ByLayer
10
90.0000000000
20
-16.0000000000
30
0.0000000000
11
0.0000000000
21
-16.0000000000
31
0.0000000000
1001
DSTP_XDATA
1002
{
1000
_OWNERHANDLE=0000000064
1002
}
0
LINE
5
2D2
100
AcDbEntity
8
TABLE
100
AcDbLine
6
Continuous
10
0.0000000000
20
-64.0000000000
30
0.0000000000
11
90.0000000000
21
-64.0000000000
31
0.0000000000
1001
DSTP_XDATA
1002
{
1000
_OWNERHANDLE=0000000064
1002
}
0
LINE
5
2D3
100
AcDbEntity
8
TABLE
100
AcDbLine
6
Continuous
10
30.0000000000
20
-64.0000000000
30
0.0000000000
11
30.0000000000
21
-8.0000000000
31
0.0000000000
1001
DSTP_XDATA
1002
{
1000
_OWNERHANDLE=0000000064
1002
}
0
LINE
5
2D4
100
AcDbEntity
8
TABLE
100
AcDbLine
6
Continuous
10
0.0000000000
20
0.0000000000
30
0.0000000000
11
0.0000000000
21
-64.0000000000
31
0.0000000000
1001
DSTP_XDATA
1002
{
1000
_OWNERHANDLE=0000000064
1002
}
0
LINE
5
2D5
100
AcDbEntity
8
TABLE
100
AcDbLine
6
Continuous
10
90.0000000000
20
-8.0000000000
30
0.0000000000
11
0.0000000000
21
-8.0000000000
31
0.0000000000
1001
DSTP_XDATA
1002
{
1000
_OWNERHANDLE=0000000064
1002
}
0
LINE
5
2D6
100
AcDbEntity
8
TABLE
100
AcDbLine
6
Continuous
10
60.0000000000
20
-64.0000000000
30
0.0000000000
11
60.0000000000
21
-8.0000000000
31
0.0000000000
1001
DSTP_XDATA
1002
{
1000
_OWNERHANDLE=0000000064
1002
}
0
LINE
5
2D7
100
AcDbEntity
8
TABLE
100
AcDbLine
6
Continuous
10
90.0000000000
20
-64.0000000000
30
0.0000000000
11
90.0000000000
21
0.0000000000
31
0.0000000000
1001
DSTP_XDATA
1002
{
1000
_OWNERHANDLE=0000000064
1002
}
0
TEXT
5
2D8
100
AcDbEntity
8
FORMAT
100
AcDbText
6
ByLayer
11
75.0000000000
21
-12.0000000000
31
0.0000000000
10
65.2506240000
20
-13.5000000000
30
0.0000000000
40
3.0000000000
50
0.0000000000
41
1.0000000000
51
0.0000000000
72
1
7
Standard
1
Пож.режим
100
AcDbText
73
2
1001
DSTP_XDATA
1002
{
1000
_OWNERHANDLE=0000000064
1002
}
0
ENDBLK
5
2D9
100
AcDbEntity
8
0
100
AcDbBlockEnd
1001
DSTP_XDATA
1002
{
1002
}
0
BLOCK
5
2DA
100
AcDbEntity
8
0
100
AcDbBlockBegin
2
DEVICE_EL_VL_DIAGRAM_FD4_1
70
2
10
0
20
0
30
0
3
DEVICE_EL_VL_DIAGRAM_FD4_1
1

0
MTEXT
5
2DB
100
AcDbEntity
8
FORMAT
100
AcDbMText
6
ByLayer
10
45.0000000000
20
-4.0000000000
30
0.0000000000
40
3.0000000000
41
90.0000000000
71
5
1
??
7
MtXpl_ISOCPEUR
11
1.0000000000
21
0.0000000000
31
0.0000000000
73
2
44
0.9000000000
1001
DSTP_XDATA
1002
{
1000
_TMPL1=@@[VL_Type]
1000
_OWNERHANDLE=0000000064
1002
}
0
ENDBLK
5
2DC
100
AcDbEntity
8
0
100
AcDbBlockEnd
1001
DSTP_XDATA
1002
{
1002
}
0
BLOCK
5
2DD
100
AcDbEntity
8
0
100
AcDbBlockBegin
2
EL_VL_DIAGRAM_FD4_2
70
2
10
0
20
0
30
0
3
EL_VL_DIAGRAM_FD4_2
1

0
LINE
5
2DE
100
AcDbEntity
8
TABLE
100
AcDbLine
6
Continuous
10
0.0000000000
20
-48.0000000000
30
0.0000000000
11
90.0000000000
21
-48.0000000000
31
0.0000000000
1001
DSTP_XDATA
1002
{
1000
_OWNERHANDLE=0000000064
1002
}
0
LINE
5
2DF
100
AcDbEntity
8
TABLE
100
AcDbLine
6
Continuous
10
30.0000000000
20
-48.0000000000
30
0.0000000000
11
30.0000000000
21
0.0000000000
31
0.0000000000
1001
DSTP_XDATA
1002
{
1000
_OWNERHANDLE=0000000064
1002
}
0
LINE
5
2E0
100
AcDbEntity
8
TABLE
100
AcDbLine
6
Continuous
10
0.0000000000
20
0.0000000000
30
0.0000000000
11
90.0000000000
21
0.0000000000
31
0.0000000000
1001
DSTP_XDATA
1002
{
1000
_OWNERHANDLE=0000000064
1002
}
0
LINE
5
2E1
100
AcDbEntity
8
TABLE
100
AcDbLine
6
Continuous
10
0.0000000000
20
0.0000000000
30
0.0000000000
11
0.0000000000
21
-48.0000000000
31
0.0000000000
1001
DSTP_XDATA
1002
{
1000
_OWNERHANDLE=0000000064
1002
}
0
LINE
5
2E2
100
AcDbEntity
8
TABLE
100
AcDbLine
6
Continuous
10
0.0000000000
20
-8.0000000000
30
0.0000000000
11
90.0000000000
21
-8.0000000000
31
0.0000000000
1001
DSTP_XDATA
1002
{
1000
_OWNERHANDLE=0000000064
1002
}
0
LINE
5
2E3
100
AcDbEntity
8
TABLE
100
AcDbLine
6
Continuous
10
0.0000000000
20
-16.0000000000
30
0.0000000000
11
90.0000000000
21
-16.0000000000
31
0.0000000000
1001
DSTP_XDATA
1002
{
1000
_OWNERHANDLE=0000000064
1002
}
0
LINE
5
2E4
100
AcDbEntity
8
TABLE
100
AcDbLine
6
Continuous
10
0.0000000000
20
-24.0000000000
30
0.0000000000
11
90.0000000000
21
-24.0000000000
31
0.0000000000
1001
DSTP_XDATA
1002
{
1000
_OWNERHANDLE=0000000064
1002
}
0
LINE
5
2E5
100
AcDbEntity
8
TABLE
100
AcDbLine
6
Continuous
10
0.0000000000
20
-32.0000000000
30
0.0000000000
11
90.0000000000
21
-32.0000000000
31
0.0000000000
1001
DSTP_XDATA
1002
{
1000
_OWNERHANDLE=0000000064
1002
}
0
LINE
5
2E6
100
AcDbEntity
8
TABLE
100
AcDbLine
6
Continuous
10
0.0000000000
20
-40.0000000000
30
0.0000000000
11
90.0000000000
21
-40.0000000000
31
0.0000000000
1001
DSTP_XDATA
1002
{
1000
_OWNERHANDLE=0000000064
1002
}
0
LINE
5
2E7
100
AcDbEntity
8
TABLE
100
AcDbLine
6
Continuous
10
60.0000000000
20
-48.0000000000
30
0.0000000000
11
60.0000000000
21
0.0000000000
31
0.0000000000
1001
DSTP_XDATA
1002
{
1000
_OWNERHANDLE=0000000064
1002
}
0
LINE
5
2E8
100
AcDbEntity
8
TABLE
100
AcDbLine
6
Continuous
10
90.0000000000
20
-48.0000000000
30
0.0000000000
11
90.0000000000
21
0.0000000000
31
0.0000000000
1001
DSTP_XDATA
1002
{
1000
_OWNERHANDLE=0000000064
1002
}
0
ENDBLK
5
2E9
100
AcDbEntity
8
0
100
AcDbBlockEnd
1001
DSTP_XDATA
1002
{
1002
}
0
BLOCK
5
2EA
100
AcDbEntity
8
0
100
AcDbBlockBegin
2
DEVICE_EL_VL_DIAGRAM_FD4_2
70
2
10
0
20
0
30
0
3
DEVICE_EL_VL_DIAGRAM_FD4_2
1

0
MTEXT
5
2EB
100
AcDbEntity
8
FORMAT
100
AcDbMText
6
ByLayer
10
15.0000000000
20
-4.0000000000
30
0.0000000000
40
3.0000000000
41
30.0000000000
71
5
1
??
7
MtXpl_ISOCPEUR
11
1.0000000000
21
0.0000000000
31
0.0000000000
73
2
44
0.9000000000
1001
DSTP_XDATA
1002
{
1000
_TMPL1=@@[VL_PyP]
1000
_OWNERHANDLE=0000000064
1002
}
0
MTEXT
5
2EC
100
AcDbEntity
8
FORMAT
100
AcDbMText
6
ByLayer
10
15.0000000000
20
-12.0000000000
30
0.0000000000
40
3.0000000000
41
30.0000000000
71
5
1
??
7
MtXpl_ISOCPEUR
11
1.0000000000
21
0.0000000000
31
0.0000000000
73
2
44
0.9000000000
1001
DSTP_XDATA
1002
{
1000
_TMPL1=@@[VL_PpP]
1000
_OWNERHANDLE=0000000064
1002
}
0
MTEXT
5
2ED
100
AcDbEntity
8
FORMAT
100
AcDbMText
6
ByLayer
10
15.0000000000
20
-20.0000000000
30
0.0000000000
40
3.0000000000
41
30.0000000000
71
5
1
??
7
MtXpl_ISOCPEUR
11
1.0000000000
21
0.0000000000
31
0.0000000000
73
2
44
0.9000000000
1001
DSTP_XDATA
1002
{
1000
_TMPL1=@@[VL_IaP]
1000
_OWNERHANDLE=0000000064
1002
}
0
MTEXT
5
2EE
100
AcDbEntity
8
FORMAT
100
AcDbMText
6
ByLayer
10
15.0000000000
20
-28.0000000000
30
0.0000000000
40
3.0000000000
41
30.0000000000
71
5
1
??
7
MtXpl_ISOCPEUR
11
1.0000000000
21
0.0000000000
31
0.0000000000
73
2
44
0.9000000000
1001
DSTP_XDATA
1002
{
1000
_TMPL1=@@[VL_IbP]
1000
_OWNERHANDLE=0000000064
1002
}
0
MTEXT
5
2EF
100
AcDbEntity
8
FORMAT
100
AcDbMText
6
ByLayer
10
15.0000000000
20
-36.0000000000
30
0.0000000000
40
3.0000000000
41
30.0000000000
71
5
1
??
7
MtXpl_ISOCPEUR
11
1.0000000000
21
0.0000000000
31
0.0000000000
73
2
44
0.9000000000
1001
DSTP_XDATA
1002
{
1000
_TMPL1=@@[VL_IcP]
1000
_OWNERHANDLE=0000000064
1002
}
0
MTEXT
5
2F0
100
AcDbEntity
8
FORMAT
100
AcDbMText
6
ByLayer
10
15.0000000000
20
-44.0000000000
30
0.0000000000
40
3.0000000000
41
30.0000000000
71
5
1
??
7
MtXpl_ISOCPEUR
11
1.0000000000
21
0.0000000000
31
0.0000000000
73
2
44
0.9000000000
1001
DSTP_XDATA
1002
{
1000
_TMPL1=@@[VL_CosP]
1000
_OWNERHANDLE=0000000064
1002
}
0
MTEXT
5
2F1
100
AcDbEntity
8
FORMAT
100
AcDbMText
6
ByLayer
10
75.0000000000
20
-4.0000000000
30
0.0000000000
40
3.0000000000
41
30.0000000000
71
5
1
??
7
MtXpl_ISOCPEUR
11
1.0000000000
21
0.0000000000
31
0.0000000000
73
2
44
0.9000000000
1001
DSTP_XDATA
1002
{
1000
_TMPL1=@@[VL_PyA]
1000
_OWNERHANDLE=0000000064
1002
}
0
MTEXT
5
2F2
100
AcDbEntity
8
FORMAT
100
AcDbMText
6
ByLayer
10
75.0000000000
20
-12.0000000000
30
0.0000000000
40
3.0000000000
41
30.0000000000
71
5
1
??
7
MtXpl_ISOCPEUR
11
1.0000000000
21
0.0000000000
31
0.0000000000
73
2
44
0.9000000000
1001
DSTP_XDATA
1002
{
1000
_TMPL1=@@[VL_PpA]
1000
_OWNERHANDLE=0000000064
1002
}
0
MTEXT
5
2F3
100
AcDbEntity
8
FORMAT
100
AcDbMText
6
ByLayer
10
75.0000000000
20
-20.0000000000
30
0.0000000000
40
3.0000000000
41
30.0000000000
71
5
1
??
7
MtXpl_ISOCPEUR
11
1.0000000000
21
0.0000000000
31
0.0000000000
73
2
44
0.9000000000
1001
DSTP_XDATA
1002
{
1000
_TMPL1=@@[VL_IaA]
1000
_OWNERHANDLE=0000000064
1002
}
0
MTEXT
5
2F4
100
AcDbEntity
8
FORMAT
100
AcDbMText
6
ByLayer
10
75.0000000000
20
-28.0000000000
30
0.0000000000
40
3.0000000000
41
30.0000000000
71
5
1
??
7
MtXpl_ISOCPEUR
11
1.0000000000
21
0.0000000000
31
0.0000000000
73
2
44
0.9000000000
1001
DSTP_XDATA
1002
{
1000
_TMPL1=@@[VL_IbA]
1000
_OWNERHANDLE=0000000064
1002
}
0
MTEXT
5
2F5
100
AcDbEntity
8
FORMAT
100
AcDbMText
6
ByLayer
10
75.0000000000
20
-36.0000000000
30
0.0000000000
40
3.0000000000
41
30.0000000000
71
5
1
??
7
MtXpl_ISOCPEUR
11
1.0000000000
21
0.0000000000
31
0.0000000000
73
2
44
0.9000000000
1001
DSTP_XDATA
1002
{
1000
_TMPL1=@@[VL_IcA]
1000
_OWNERHANDLE=0000000064
1002
}
0
MTEXT
5
2F6
100
AcDbEntity
8
FORMAT
100
AcDbMText
6
ByLayer
10
75.0000000000
20
-44.0000000000
30
0.0000000000
40
3.0000000000
41
30.0000000000
71
5
1
??
7
MtXpl_ISOCPEUR
11
1.0000000000
21
0.0000000000
31
0.0000000000
73
2
44
0.9000000000
1001
DSTP_XDATA
1002
{
1000
_TMPL1=@@[VL_CosA]
1000
_OWNERHANDLE=0000000064
1002
}
0
MTEXT
5
2F7
100
AcDbEntity
8
FORMAT
100
AcDbMText
6
ByLayer
10
45.0000000000
20
-4.0000000000
30
0.0000000000
40
3.0000000000
41
30.0000000000
71
5
1
??
7
MtXpl_ISOCPEUR
11
1.0000000000
21
0.0000000000
31
0.0000000000
73
2
44
0.9000000000
1001
DSTP_XDATA
1002
{
1000
_TMPL1=@@[VL_PyLZ]
1000
_OWNERHANDLE=0000000064
1002
}
0
MTEXT
5
2F8
100
AcDbEntity
8
FORMAT
100
AcDbMText
6
ByLayer
10
45.0000000000
20
-12.0000000000
30
0.0000000000
40
3.0000000000
41
30.0000000000
71
5
1
??
7
MtXpl_ISOCPEUR
11
1.0000000000
21
0.0000000000
31
0.0000000000
73
2
44
0.9000000000
1001
DSTP_XDATA
1002
{
1000
_TMPL1=@@[VL_PpLZ]
1000
_OWNERHANDLE=0000000064
1002
}
0
MTEXT
5
2F9
100
AcDbEntity
8
FORMAT
100
AcDbMText
6
ByLayer
10
45.0000000000
20
-20.0000000000
30
0.0000000000
40
3.0000000000
41
30.0000000000
71
5
1
??
7
MtXpl_ISOCPEUR
11
1.0000000000
21
0.0000000000
31
0.0000000000
73
2
44
0.9000000000
1001
DSTP_XDATA
1002
{
1000
_TMPL1=@@[VL_IaLZ]
1000
_OWNERHANDLE=0000000064
1002
}
0
MTEXT
5
2FA
100
AcDbEntity
8
FORMAT
100
AcDbMText
6
ByLayer
10
45.0000000000
20
-28.0000000000
30
0.0000000000
40
3.0000000000
41
30.0000000000
71
5
1
??
7
MtXpl_ISOCPEUR
11
1.0000000000
21
0.0000000000
31
0.0000000000
73
2
44
0.9000000000
1001
DSTP_XDATA
1002
{
1000
_TMPL1=@@[VL_IbLZ]
1000
_OWNERHANDLE=0000000064
1002
}
0
MTEXT
5
2FB
100
AcDbEntity
8
FORMAT
100
AcDbMText
6
ByLayer
10
45.0000000000
20
-36.0000000000
30
0.0000000000
40
3.0000000000
41
30.0000000000
71
5
1
??
7
MtXpl_ISOCPEUR
11
1.0000000000
21
0.0000000000
31
0.0000000000
73
2
44
0.9000000000
1001
DSTP_XDATA
1002
{
1000
_TMPL1=@@[VL_IcLZ]
1000
_OWNERHANDLE=0000000064
1002
}
0
MTEXT
5
2FC
100
AcDbEntity
8
FORMAT
100
AcDbMText
6
ByLayer
10
45.0000000000
20
-44.0000000000
30
0.0000000000
40
3.0000000000
41
30.0000000000
71
5
1
??
7
MtXpl_ISOCPEUR
11
1.0000000000
21
0.0000000000
31
0.0000000000
73
2
44
0.9000000000
1001
DSTP_XDATA
1002
{
1000
_TMPL1=@@[VL_CosLZ]
1000
_OWNERHANDLE=0000000064
1002
}
0
ENDBLK
5
2FD
100
AcDbEntity
8
0
100
AcDbBlockEnd
1001
DSTP_XDATA
1002
{
1002
}
0
BLOCK
5
2FE
100
AcDbEntity
8
0
100
AcDbBlockBegin
2
EL_VL_DIAGRAM_FD5
70
2
10
0
20
0
30
0
3
EL_VL_DIAGRAM_FD5
1

0
LINE
5
2FF
100
AcDbEntity
8
TABLE
100
AcDbLine
6
Continuous
10
-5.0000000000
20
0.0000000000
30
0.0000000000
11
5.0000000000
21
0.0000000000
31
0.0000000000
1001
DSTP_XDATA
1002
{
1000
_OWNERHANDLE=0000000064
1002
}
0
ENDBLK
5
300
100
AcDbEntity
8
0
100
AcDbBlockEnd
1001
DSTP_XDATA
1002
{
1002
}
0
BLOCK
5
301
100
AcDbEntity
8
0
100
AcDbBlockBegin
2
DEVICE_EL_VL_DIAGRAM_FD5
70
2
10
0
20
0
30
0
3
DEVICE_EL_VL_DIAGRAM_FD5
1

0
MTEXT
5
302
100
AcDbEntity
8
FORMAT
100
AcDbMText
6
ByLayer
10
0.0000000000
20
7.0000000000
30
0.0000000000
40
3.0000000000
41
25.0000000000
71
5
1
??
7
MtXpl_ISOCPEUR
11
1.0000000000
21
0.0000000000
31
0.0000000000
73
2
44
0.9000000000
1001
DSTP_XDATA
1002
{
1000
_TMPL1=@@[VL_Mark]
1000
_OWNERHANDLE=0000000064
1002
}
0
MTEXT
5
303
100
AcDbEntity
8
FORMAT
100
AcDbMText
6
ByLayer
10
0.0000000000
20
2.5000000000
30
0.0000000000
40
3.0000000000
41
25.0000000000
71
5
1
??
7
MtXpl_ISOCPEUR
11
1.0000000000
21
0.0000000000
31
0.0000000000
73
2
44
0.9000000000
1001
DSTP_XDATA
1002
{
1000
_TMPL1=@@[VL_Py]
1000
_OWNERHANDLE=0000000064
1002
}
0
MTEXT
5
304
100
AcDbEntity
8
FORMAT
100
AcDbMText
6
ByLayer
10
0.0000000000
20
-2.5000000000
30
0.0000000000
40
3.0000000000
41
25.0000000000
71
5
1
??
7
MtXpl_ISOCPEUR
11
1.0000000000
21
0.0000000000
31
0.0000000000
73
2
44
0.9000000000
1001
DSTP_XDATA
1002
{
1000
_TMPL1=@@[VL_U]
1000
_OWNERHANDLE=0000000064
1002
}
0
ENDBLK
5
305
100
AcDbEntity
8
0
100
AcDbBlockEnd
1001
DSTP_XDATA
1002
{
1002
}
0
BLOCK
5
306
100
AcDbEntity
8
0
100
AcDbBlockBegin
2
DIAGRAM_CN0
70
2
10
0
20
0
30
0
3
DIAGRAM_CN0
1

0
LINE
5
307
100
AcDbEntity
8
TABLE
100
AcDbLine
6
Continuous
10
0.0000000000
20
100.0000000000
30
0.0000000000
11
0.0000000000
21
0.0000000000
31
0.0000000000
1001
DSTP_XDATA
1002
{
1000
_OWNERHANDLE=0000000064
1002
}
0
LINE
5
308
100
AcDbEntity
8
TABLE
100
AcDbLine
6
Continuous
10
50.0000000000
20
-0.0003350000
30
0.0000000000
11
50.0000000000
21
100.0000000000
31
0.0000000000
1001
DSTP_XDATA
1002
{
1000
_OWNERHANDLE=0000000064
1002
}
0
LINE
5
309
100
AcDbEntity
8
TABLE
100
AcDbLine
6
Continuous
10
0.0000000000
20
0.0000000000
30
0.0000000000
11
50.0000000000
21
-0.0089403000
31
0.0000000000
1001
DSTP_XDATA
1002
{
1000
_OWNERHANDLE=0000000064
1002
}
0
LINE
5
30A
100
AcDbEntity
8
TABLE
100
AcDbLine
6
Continuous
10
0.0000000000
20
25.0000000000
30
0.0000000000
11
50.0000000000
21
25.0000000000
31
0.0000000000
1001
DSTP_XDATA
1002
{
1000
_OWNERHANDLE=0000000064
1002
}
0
LINE
5
30B
100
AcDbEntity
8
TABLE
100
AcDbLine
6
Continuous
10
0.0000000000
20
50.0000000000
30
0.0000000000
11
50.0000000000
21
50.0000000000
31
0.0000000000
1001
DSTP_XDATA
1002
{
1000
_OWNERHANDLE=0000000064
1002
}
0
LINE
5
30C
100
AcDbEntity
8
TABLE
100
AcDbLine
6
Continuous
10
0.0000000000
20
100.0000000000
30
0.0000000000
11
50.0000000000
21
100.0000000000
31
0.0000000000
1001
DSTP_XDATA
1002
{
1000
_OWNERHANDLE=0000000064
1002
}
0
MTEXT
5
30D
100
AcDbEntity
8
FORMAT
100
AcDbMText
6
ByLayer
10
25.0000000000
20
75.0000000000
30
0.0000000000
40
3.0000000000
41
50.0000000000
71
5
1
Аппарат на вводе (выключатель автоматический или выключатель нагрузки): номер; тип; ток расцепителя или \Pплавкой вставки, А
7
Standard
11
1.0000000000
21
0.0000000000
31
0.0000000000
73
2
44
1.0000000000
1001
DSTP_XDATA
1002
{
1000
_OWNERHANDLE=0000000064
1002
}
0
MTEXT
5
30E
100
AcDbEntity
8
FORMAT
100
AcDbMText
6
ByLayer
10
25.0000000000
20
37.5000000000
30
0.0000000000
40
3.0000000000
41
50.0000000000
71
5
1
Аппарат на линии (выключатель авт. или предохранитель): номер; тип; ток расцепителя \Pили плавкой вставки, А
7
Standard
11
1.0000000000
21
0.0000000000
31
0.0000000000
73
2
44
1.0000000000
1001
DSTP_XDATA
1002
{
1000
_OWNERHANDLE=0000000064
1002
}
0
MTEXT
5
30F
100
AcDbEntity
8
FORMAT
100
AcDbMText
6
ByLayer
10
25.0000000000
20
12.5000000000
30
0.0000000000
40
3.0000000000
41
50.0000000000
71
5
1
Пускатель магнитный (устройство защитного отключения или другие аппараты): номер; тип; номинальный ток, А
7
Standard
11
1.0000000000
21
0.0000000000
31
0.0000000000
73
2
44
1.0000000000
1001
DSTP_XDATA
1002
{
1000
_OWNERHANDLE=0000000064
1002
}
0
ENDBLK
5
310
100
AcDbEntity
8
0
100
AcDbBlockEnd
1001
DSTP_XDATA
1002
{
1002
}
0
BLOCK
5
311
100
AcDbEntity
8
0
100
AcDbBlockBegin
2
DIAGRAM_CN1
70
2
10
0
20
0
30
0
3
DIAGRAM_CN1
1

0
LINE
5
312
100
AcDbEntity
8
TABLE
100
AcDbLine
6
ByLayer
10
0.0000000000
20
-1.0000000000
30
0.0000000000
11
0.0000000000
21
1.0000000000
31
0.0000000000
1001
DSTP_XDATA
1002
{
1000
_OWNERHANDLE=0000000064
1002
}
0
LINE
5
313
100
AcDbEntity
8
TABLE
100
AcDbLine
6
ByLayer
10
0.0000000000
20
1.0000000000
30
0.0000000000
11
2.0000000000
21
1.0000000000
31
0.0000000000
1001
DSTP_XDATA
1002
{
1000
_OWNERHANDLE=0000000064
1002
}
0
LINE
5
314
100
AcDbEntity
8
TABLE
100
AcDbLine
6
ByLayer
10
2.0000000000
20
3.0000000000
30
0.0000000000
11
5.0000000000
21
0.0000000000
31
0.0000000000
1001
DSTP_XDATA
1002
{
1000
_OWNERHANDLE=0000000064
1002
}
0
LINE
5
315
100
AcDbEntity
8
TABLE
100
AcDbLine
6
ByLayer
10
0.0000000000
20
-1.0000000000
30
0.0000000000
11
2.0000000000
21
-1.0000000000
31
0.0000000000
1001
DSTP_XDATA
1002
{
1000
_OWNERHANDLE=0000000064
1002
}
0
LINE
5
316
100
AcDbEntity
8
TABLE
100
AcDbLine
6
ByLayer
10
2.0000000000
20
1.0000000000
30
0.0000000000
11
2.0000000000
21
3.0000000000
31
0.0000000000
1001
DSTP_XDATA
1002
{
1000
_OWNERHANDLE=0000000064
1002
}
0
LINE
5
317
100
AcDbEntity
8
TABLE
100
AcDbLine
6
ByLayer
10
2.0000000000
20
-3.0000000000
30
0.0000000000
11
2.0000000000
21
-1.0000000000
31
0.0000000000
1001
DSTP_XDATA
1002
{
1000
_OWNERHANDLE=0000000064
1002
}
0
LINE
5
318
100
AcDbEntity
8
TABLE
100
AcDbLine
6
ByLayer
10
2.0000000000
20
-3.0000000000
30
0.0000000000
11
5.0000000000
21
0.0000000000
31
0.0000000000
1001
DSTP_XDATA
1002
{
1000
_OWNERHANDLE=0000000064
1002
}
0
ENDBLK
5
319
100
AcDbEntity
8
0
100
AcDbBlockEnd
1001
DSTP_XDATA
1002
{
1002
}
0
BLOCK
5
31A
100
AcDbEntity
8
0
100
AcDbBlockBegin
2
DIAGRAM_PE1
70
2
10
0
20
0
30
0
3
DIAGRAM_PE1
1

0
TEXT
5
31B
100
AcDbEntity
8
FORMAT
100
AcDbText
6
ByLayer
11
0.0000000000
21
2.5000000000
31
0.0000000000
10
-8.8494336000
20
1.0000000000
30
0.0000000000
40
3.0000000000
50
0.0000000000
41
1.0000000000
51
0.0000000000
72
1
7
MtXpl_ISOCPEUR
1
L1, L2, L3
100
AcDbText
73
2
1001
DSTP_XDATA
1002
{
1000
_OWNERHANDLE=0000000064
1002
}
0
TEXT
5
31C
100
AcDbEntity
8
FORMAT
100
AcDbText
6
ByLayer
11
0.0000000000
21
-2.5000000000
31
0.0000000000
10
-1.1999232000
20
-4.0000000000
30
0.0000000000
40
3.0000000000
50
0.0000000000
41
1.0000000000
51
0.0000000000
72
1
7
MtXpl_ISOCPEUR
1
N
100
AcDbText
73
2
1001
DSTP_XDATA
1002
{
1000
_OWNERHANDLE=0000000064
1002
}
0
TEXT
5
31D
100
AcDbEntity
8
FORMAT
100
AcDbText
6
ByLayer
11
0.0000000000
21
-7.5000000000
31
0.0000000000
10
-2.2498560000
20
-9.0000000000
30
0.0000000000
40
3.0000000000
50
0.0000000000
41
1.0000000000
51
0.0000000000
72
1
7
MtXpl_ISOCPEUR
1
PE
100
AcDbText
73
2
1001
DSTP_XDATA
1002
{
1000
_OWNERHANDLE=0000000064
1002
}
0
ENDBLK
5
31E
100
AcDbEntity
8
0
100
AcDbBlockEnd
1001
DSTP_XDATA
1002
{
1002
}
0
BLOCK
5
31F
100
AcDbEntity
8
0
100
AcDbBlockBegin
2
DIAGRAM_PE2
70
2
10
0
20
0
30
0
3
DIAGRAM_PE2
1

0
TEXT
5
320
100
AcDbEntity
8
FORMAT
100
AcDbText
6
ByLayer
11
0.0000000000
21
2.5000000000
31
0.0000000000
10
-8.8494336000
20
1.0000000000
30
0.0000000000
40
3.0000000000
50
0.0000000000
41
1.0000000000
51
0.0000000000
72
1
7
MtXpl_ISOCPEUR
1
L1, L2, L3
100
AcDbText
73
2
1001
DSTP_XDATA
1002
{
1000
_OWNERHANDLE=0000000064
1002
}
0
TEXT
5
321
100
AcDbEntity
8
FORMAT
100
AcDbText
6
ByLayer
11
0.0000000000
21
-2.5000000000
31
0.0000000000
10
-3.4497792000
20
-4.0000000000
30
0.0000000000
40
3.0000000000
50
0.0000000000
41
1.0000000000
51
0.0000000000
72
1
7
MtXpl_ISOCPEUR
1
PEN
100
AcDbText
73
2
1001
DSTP_XDATA
1002
{
1000
_OWNERHANDLE=0000000064
1002
}
0
ENDBLK
5
322
100
AcDbEntity
8
0
100
AcDbBlockEnd
1001
DSTP_XDATA
1002
{
1002
}
0
BLOCK
5
323
100
AcDbEntity
8
0
100
AcDbBlockBegin
2
DIAGRAM_QF1
70
2
10
0
20
0
30
0
3
DIAGRAM_QF1
1

0
LINE
5
324
100
AcDbEntity
8
TABLE
100
AcDbLine
6
ByLayer
10
0.0050255000
20
1.9949750000
30
0.0000000000
11
0.9949745000
21
1.0050250000
31
0.0000000000
1001
DSTP_XDATA
1002
{
1000
_OWNERHANDLE=0000000064
1002
}
0
LINE
5
325
100
AcDbEntity
8
TABLE
100
AcDbLine
6
ByLayer
10
0.0050255000
20
2.9949750000
30
0.0000000000
11
0.9949745000
21
2.0050250000
31
0.0000000000
1001
DSTP_XDATA
1002
{
1000
_OWNERHANDLE=0000000064
1002
}
0
LINE
5
326
100
AcDbEntity
8
TABLE
100
AcDbLine
6
ByLayer
10
-0.9949745000
20
1.0050250000
30
0.0000000000
11
-0.0050255000
21
1.9949750000
31
0.0000000000
1001
DSTP_XDATA
1002
{
1000
_OWNERHANDLE=0000000064
1002
}
0
LINE
5
327
100
AcDbEntity
8
TABLE
100
AcDbLine
6
ByLayer
10
-0.9949745000
20
2.0050250000
30
0.0000000000
11
-0.0050255000
21
2.9949750000
31
0.0000000000
1001
DSTP_XDATA
1002
{
1000
_OWNERHANDLE=0000000064
1002
}
0
LINE
5
328
100
AcDbEntity
8
TABLE
100
AcDbLine
6
ByLayer
10
-0.0050255000
20
-6.9949750000
30
0.0000000000
11
-0.9949745000
21
-6.0050250000
31
0.0000000000
1001
DSTP_XDATA
1002
{
1000
_OWNERHANDLE=0000000064
1002
}
0
LINE
5
329
100
AcDbEntity
8
TABLE
100
AcDbLine
6
ByLayer
10
-0.0050255000
20
-7.9949750000
30
0.0000000000
11
-0.9949745000
21
-7.0050250000
31
0.0000000000
1001
DSTP_XDATA
1002
{
1000
_OWNERHANDLE=0000000064
1002
}
0
LINE
5
32A
100
AcDbEntity
8
TABLE
100
AcDbLine
6
ByLayer
10
0.9949745000
20
-6.0050250000
30
0.0000000000
11
0.0050255000
21
-6.9949750000
31
0.0000000000
1001
DSTP_XDATA
1002
{
1000
_OWNERHANDLE=0000000064
1002
}
0
LINE
5
32B
100
AcDbEntity
8
TABLE
100
AcDbLine
6
ByLayer
10
0.9949745000
20
-7.0050250000
30
0.0000000000
11
0.0050255000
21
-7.9949750000
31
0.0000000000
1001
DSTP_XDATA
1002
{
1000
_OWNERHANDLE=0000000064
1002
}
0
ENDBLK
5
32C
100
AcDbEntity
8
0
100
AcDbBlockEnd
1001
DSTP_XDATA
1002
{
1002
}
0
BLOCK
5
32D
100
AcDbEntity
8
0
100
AcDbBlockBegin
2
DIAGRAM_H0
70
2
10
0
20
0
30
0
3
DIAGRAM_H0
1

0
LINE
5
32E
100
AcDbEntity
8
TABLE
100
AcDbLine
6
Continuous
10
0.0000000000
20
50.0000000000
30
0.0000000000
11
0.0000000000
21
0.0000000000
31
0.0000000000
1001
DSTP_XDATA
1002
{
1000
_OWNERHANDLE=0000000064
1002
}
0
LINE
5
32F
100
AcDbEntity
8
TABLE
100
AcDbLine
6
Continuous
10
0.0000000000
20
0.0000000000
30
0.0000000000
11
50.0000000000
21
0.0000000000
31
0.0000000000
1001
DSTP_XDATA
1002
{
1000
_OWNERHANDLE=0000000064
1002
}
0
LINE
5
330
100
AcDbEntity
8
TABLE
100
AcDbLine
6
Continuous
10
50.0000000000
20
0.0003350000
30
0.0000000000
11
50.0000000000
21
50.0000000000
31
0.0000000000
1001
DSTP_XDATA
1002
{
1000
_OWNERHANDLE=0000000064
1002
}
0
LINE
5
331
100
AcDbEntity
8
TABLE
100
AcDbLine
6
Continuous
10
50.0000000000
20
50.0000000000
30
0.0000000000
11
0.0000000000
21
50.0000000000
31
0.0000000000
1001
DSTP_XDATA
1002
{
1000
_OWNERHANDLE=0000000064
1002
}
0
LINE
5
332
100
AcDbEntity
8
TABLE
100
AcDbLine
6
Continuous
10
25.0000000000
20
50.0000000000
30
0.0000000000
11
25.0000000000
21
0.0003350000
31
0.0000000000
1001
DSTP_XDATA
1002
{
1000
_OWNERHANDLE=0000000064
1002
}
0
MTEXT
5
333
100
AcDbEntity
8
FORMAT
100
AcDbMText
6
ByLayer
10
12.5000000000
20
25.0000000000
30
0.0000000000
40
3.0000000000
41
50.0000000000
71
5
1
Маркировка - \Pрасч. нагр., кВт -\Pкоэф.мощности -\Pрасч.ток, А -\Pдлина участка, м 
7
Standard
11
0.0000000000
21
1.0000000000
31
0.0000000000
73
2
44
1.0000000000
1001
DSTP_XDATA
1002
{
1000
_OWNERHANDLE=0000000064
1002
}
0
MTEXT
5
334
100
AcDbEntity
8
FORMAT
100
AcDbMText
6
ByLayer
10
37.5000000000
20
25.0000000000
30
0.0000000000
40
3.0000000000
41
50.0000000000
71
5
1
Момент нагр., кВт*м-\Pпотеря напряж, % -\Pмарка, сеч. кабеля - способ прокладки
7
Standard
11
0.0000000000
21
1.0000000000
31
0.0000000000
73
2
44
1.0000000000
1001
DSTP_XDATA
1002
{
1000
_OWNERHANDLE=0000000064
1002
}
0
ENDBLK
5
335
100
AcDbEntity
8
0
100
AcDbBlockEnd
1001
DSTP_XDATA
1002
{
1002
}
0
BLOCK
5
336
100
AcDbEntity
8
0
100
AcDbBlockBegin
2
DIAGRAM_FD0
70
2
10
0
20
0
30
0
3
DIAGRAM_FD0
1

0
LINE
5
337
100
AcDbEntity
8
TABLE
100
AcDbLine
6
Continuous
10
50.0000000000
20
40.0000000000
30
0.0000000000
11
0.0000000000
21
39.9993300000
31
0.0000000000
1001
DSTP_XDATA
1002
{
1000
_OWNERHANDLE=0000000064
1002
}
0
LINE
5
338
100
AcDbEntity
8
TABLE
100
AcDbLine
6
Continuous
10
0.0000000000
20
39.9993300000
30
0.0000000000
11
0.0000000000
21
0.0000000000
31
0.0000000000
1001
DSTP_XDATA
1002
{
1000
_OWNERHANDLE=0000000064
1002
}
0
LINE
5
339
100
AcDbEntity
8
TABLE
100
AcDbLine
6
Continuous
10
50.0000000000
20
32.0000000000
30
0.0000000000
11
0.0000000000
21
32.0000000000
31
0.0000000000
1001
DSTP_XDATA
1002
{
1000
_OWNERHANDLE=0000000064
1002
}
0
TEXT
5
33A
100
AcDbEntity
8
FORMAT
100
AcDbText
6
ByLayer
11
25.0000000000
21
36.0000000000
31
0.0000000000
10
13.2257536000
20
34.5000000000
30
0.0000000000
40
3.0000000000
50
0.0000000000
41
1.0000000000
51
0.0000000000
72
1
7
Standard
1
Обозначение
100
AcDbText
73
2
1001
DSTP_XDATA
1002
{
1000
_OWNERHANDLE=0000000064
1002
}
0
TEXT
5
33B
100
AcDbEntity
8
FORMAT
100
AcDbText
6
ByLayer
11
25.0000000000
21
28.0000000000
31
0.0000000000
10
7.2261376000
20
26.5000000000
30
0.0000000000
40
3.0000000000
50
0.0000000000
41
1.0000000000
51
0.0000000000
72
1
7
Standard
1
Руст / Ррасч, кВт
100
AcDbText
73
2
1001
DSTP_XDATA
1002
{
1000
_OWNERHANDLE=0000000064
1002
}
0
TEXT
5
33C
100
AcDbEntity
8
FORMAT
100
AcDbText
6
ByLayer
11
25.0000000000
21
20.0000000000
31
0.0000000000
10
11.2758784000
20
18.5000000000
30
0.0000000000
40
3.0000000000
50
0.0000000000
41
1.0000000000
51
0.0000000000
72
1
7
Standard
1
I расч (ном), А
100
AcDbText
73
2
1001
DSTP_XDATA
1002
{
1000
_OWNERHANDLE=0000000064
1002
}
0
LINE
5
33D
100
AcDbEntity
8
TABLE
100
AcDbLine
6
Continuous
10
0.0000000000
20
0.0000000000
30
0.0000000000
11
50.0000000000
21
0.0000000000
31
0.0000000000
1001
DSTP_XDATA
1002
{
1000
_OWNERHANDLE=0000000064
1002
}
0
LINE
5
33E
100
AcDbEntity
8
TABLE
100
AcDbLine
6
Continuous
10
50.0000000000
20
0.0000000000
30
0.0000000000
11
50.0000000000
21
40.0000000000
31
0.0000000000
1001
DSTP_XDATA
1002
{
1000
_OWNERHANDLE=0000000064
1002
}
0
TEXT
5
33F
100
AcDbEntity
8
FORMAT
100
AcDbText
6
ByLayer
11
25.0000000000
21
8.0000000000
31
0.0000000000
10
6.9261568000
20
6.5000000000
30
0.0000000000
40
3.0000000000
50
0.0000000000
41
1.0000000000
51
0.0000000000
72
1
7
Standard
1
Наименование, тип
100
AcDbText
73
2
1001
DSTP_XDATA
1002
{
1000
_OWNERHANDLE=0000000064
1002
}
0
LINE
5
340
100
AcDbEntity
8
TABLE
100
AcDbLine
6
Continuous
10
50.0000000000
20
24.0000000000
30
0.0000000000
11
0.0000000000
21
24.0000000000
31
0.0000000000
1001
DSTP_XDATA
1002
{
1000
_OWNERHANDLE=0000000064
1002
}
0
LINE
5
341
100
AcDbEntity
8
TABLE
100
AcDbLine
6
Continuous
10
50.0000000000
20
16.0000000000
30
0.0000000000
11
0.0000000000
21
16.0000000000
31
0.0000000000
1001
DSTP_XDATA
1002
{
1000
_OWNERHANDLE=0000000064
1002
}
0
ENDBLK
5
342
100
AcDbEntity
8
0
100
AcDbBlockEnd
1001
DSTP_XDATA
1002
{
1002
}
0
BLOCK
5
343
100
AcDbEntity
8
0
100
AcDbBlockBegin
2
DIAGRAM_FD1
70
2
10
0
20
0
30
0
3
DIAGRAM_FD1
1

0
LINE
5
344
100
AcDbEntity
8
TABLE
100
AcDbLine
6
Continuous
10
25.0000000000
20
0.0000000000
30
0.0000000000
11
0.0000000000
21
0.0000000000
31
0.0000000000
1001
DSTP_XDATA
1002
{
1000
_OWNERHANDLE=0000000064
1002
}
0
LINE
5
345
100
AcDbEntity
8
TABLE
100
AcDbLine
6
Continuous
10
25.0000000000
20
-40.0000000000
30
0.0000000000
11
25.0000000000
21
0.0000000000
31
0.0000000000
1001
DSTP_XDATA
1002
{
1000
_OWNERHANDLE=0000000064
1002
}
0
LINE
5
346
100
AcDbEntity
8
TABLE
100
AcDbLine
6
Continuous
10
0.0000000000
20
0.0000000000
30
0.0000000000
11
0.0000000000
21
-40.0000000000
31
0.0000000000
1001
DSTP_XDATA
1002
{
1000
_OWNERHANDLE=0000000064
1002
}
0
LINE
5
347
100
AcDbEntity
8
TABLE
100
AcDbLine
6
Continuous
10
25.0000000000
20
-8.0000000000
30
0.0000000000
11
0.0000000000
21
-8.0000000000
31
0.0000000000
1001
DSTP_XDATA
1002
{
1000
_OWNERHANDLE=0000000064
1002
}
0
LINE
5
348
100
AcDbEntity
8
TABLE
100
AcDbLine
6
Continuous
10
25.0000000000
20
-16.0000000000
30
0.0000000000
11
0.0000000000
21
-16.0000000000
31
0.0000000000
1001
DSTP_XDATA
1002
{
1000
_OWNERHANDLE=0000000064
1002
}
0
LINE
5
349
100
AcDbEntity
8
TABLE
100
AcDbLine
6
Continuous
10
25.0000000000
20
-24.0000000000
30
0.0000000000
11
0.0000000000
21
-24.0000000000
31
0.0000000000
1001
DSTP_XDATA
1002
{
1000
_OWNERHANDLE=0000000064
1002
}
0
LINE
5
34A
100
AcDbEntity
8
TABLE
100
AcDbLine
6
Continuous
10
25.0000000000
20
-40.0000000000
30
0.0000000000
11
0.0000000000
21
-40.0000000000
31
0.0000000000
1001
DSTP_XDATA
1002
{
1000
_OWNERHANDLE=0000000064
1002
}
0
ENDBLK
5
34B
100
AcDbEntity
8
0
100
AcDbBlockEnd
1001
DSTP_XDATA
1002
{
1002
}
0
ENDSEC
0
SECTION
2
ENTITIES
0
ENDSEC
0
SECTION
2
OBJECTS
0
DICTIONARY
5
34C
330
3
100
AcDbDictionary
281
1
3
ACAD_COLOR
350
34D
3
ACAD_GROUP
350
34E
3
ACAD_LAYOUT
350
34F
3
ACAD_MATERIAL
350
350
3
ACAD_MLINESTYLE
350
351
3
ACAD_PLOTSETTINGS
350
352
3
ACAD_PLOTSTYLENAME
350
353
3
ACAD_TABLESTYLE
350
354
3
ACDBHEADERROUNDTRIPXREC
350
355
3
AcDbVariableDictionary
350
356
3
DWGPROPS
350
357
0
DICTIONARY
5
13
330
12
100
AcDbDictionary
280
1
281
1
3
ACAD_LAYERFILTERS
360
358
3
ACAD_LAYERSTATES
360
359
3
ACLYDICTIONARY
360
35A
0
DICTIONARY
5
34D
102
{ACAD_REACTORS
330
34C
102
}
330
34C
100
AcDbDictionary
281
1
0
DICTIONARY
5
34E
102
{ACAD_REACTORS
330
34C
102
}
330
34C
100
AcDbDictionary
281
1
0
DICTIONARY
5
34F
102
{ACAD_REACTORS
330
34C
102
}
330
34C
100
AcDbDictionary
281
1
3
Layout1
350
48
3
Layout2
350
4A
3
Model
350
46
0
DICTIONARY
5
350
102
{ACAD_REACTORS
330
34C
102
}
330
34C
100
AcDbDictionary
281
1
0
DICTIONARY
5
351
102
{ACAD_REACTORS
330
34C
102
}
330
34C
100
AcDbDictionary
281
1
3
Standard
350
35B
0
DICTIONARY
5
352
102
{ACAD_REACTORS
330
34C
102
}
330
34C
100
AcDbDictionary
281
1
0
ACDBDICTIONARYWDFLT
5
353
102
{ACAD_REACTORS
330
34C
102
}
330
34C
100
AcDbDictionary
281
1
3
Normal
350
15
100
AcDbDictionaryWithDefault
340
15
0
DICTIONARY
5
354
102
{ACAD_REACTORS
330
34C
102
}
330
34C
100
AcDbDictionary
281
1
3
Standard
350
35C
0
DICTIONARY
5
355
102
{ACAD_REACTORS
330
34C
102
}
330
34C
100
AcDbDictionary
281
1
0
DICTIONARY
5
356
102
{ACAD_REACTORS
330
34C
102
}
330
34C
100
AcDbDictionary
281
1
3
CTABLESTYLE
350
35D
3
DIMASSOC
350
35E
3
HIDETEXT
350
35F
3
PROJECTNAME
350
360
0
XRECORD
5
357
102
{ACAD_REACTORS
330
34C
102
}
330
34C
100
AcDbXrecord
280
1
1
DWGPROPS COOKIE
2

3

4

6

7

8
Autodesk
9

300
=
301
=
302
=
303
=
304
=
305
=
306
=
307
=
308
=
309
=
40
0.0121102546296296
41
2455008.558453229
42
2455694.624051458
1

90
0
0
DICTIONARY
5
358
102
{ACAD_REACTORS
330
13
102
}
330
13
100
AcDbDictionary
281
1
0
DICTIONARY
5
359
102
{ACAD_REACTORS
330
13
102
}
330
13
100
AcDbDictionary
281
1
0
DICTIONARY
5
35A
102
{ACAD_REACTORS
330
13
102
}
330
13
100
AcDbDictionary
281
1
1001
ACAD
1000
<All
0
LAYOUT
5
48
102
{ACAD_XDICTIONARY
360
361
102
}
102
{ACAD_REACTORS
330
34F
102
}
330
34F
100
AcDbPlotSettings
1

2
C:\Documents and Settings\basas\Application Data\Autodesk\AutoCAD 2005\R16.1\enu\plotters\Default Windows System Printer.pc3
4

6

40
0.0
41
0.0
42
0.0
43
0.0
44
0.0
45
0.0
46
0.0
47
0.0
48
0.0
49
0.0
140
0.0
141
0.0
142
1.0
143
1.0
70
688
72
0
73
0
74
5
7

75
16
147
1.0
148
0.0
149
0.0
100
AcDbLayout
1
Layout1
70
1
71
1
10
0.0
20
0.0
11
12.0
21
9.0
12
0.0
22
0.0
32
0.0
14
0.0
24
0.0
34
0.0
15
0.0
25
0.0
35
0.0
146
0.0
13
0.0
23
0.0
33
0.0
16
1.0
26
0.0
36
0.0
17
0.0
27
1.0
37
0.0
76
0
330
47
0
LAYOUT
5
4A
102
{ACAD_XDICTIONARY
360
362
102
}
102
{ACAD_REACTORS
330
34F
102
}
330
34F
100
AcDbPlotSettings
1

2
C:\Documents and Settings\basas\Application Data\Autodesk\AutoCAD 2005\R16.1\enu\plotters\Default Windows System Printer.pc3
4

6

40
0.0
41
0.0
42
0.0
43
0.0
44
0.0
45
0.0
46
0.0
47
0.0
48
0.0
49
0.0
140
0.0
141
0.0
142
1.0
143
1.0
70
688
72
0
73
0
74
5
7

75
16
147
1.0
148
0.0
149
0.0
100
AcDbLayout
1
Layout2
70
1
71
2
10
0.0
20
0.0
11
12.0
21
9.0
12
0.0
22
0.0
32
0.0
14
0.0
24
0.0
34
0.0
15
0.0
25
0.0
35
0.0
146
0.0
13
0.0
23
0.0
33
0.0
16
1.0
26
0.0
36
0.0
17
0.0
27
1.0
37
0.0
76
0
330
49
0
LAYOUT
5
46
102
{ACAD_XDICTIONARY
360
363
102
}
102
{ACAD_REACTORS
330
34F
102
}
330
34F
100
AcDbPlotSettings
1

2
none_device
4
ISO_A4_(210.00_x_297.00_MM)
6

40
7.5
41
20.0
42
7.5
43
20.0
44
210.0
45
297.0
46
11.54999923706054
47
-13.65000009536743
48
0.0
49
0.0
140
0.0
141
0.0
142
1.0
143
8.704084754739808
70
11952
72
1
73
0
74
0
7

75
0
147
0.1148885871608098
148
0.0
149
0.0
100
AcDbLayout
1
Model
70
1
71
0
10
0.0
20
0.0
11
12.0
21
9.0
12
0.0
22
0.0
32
0.0
14
0.0
24
0.0
34
0.0
15
0.0
25
0.0
35
0.0
146
0.0
13
0.0
23
0.0
33
0.0
16
1.0
26
0.0
36
0.0
17
0.0
27
1.0
37
0.0
76
0
330
45
1001
ACAD_PSEXT
1000
None
1000
None
1000
Not applicable
1000
The layout will not be plotted unless a new plotter configuration name is selected.
1070
0
0
MLINESTYLE
5
35B
102
{ACAD_REACTORS
330
351
102
}
330
351
100
AcDbMlineStyle
2
STANDARD
70
0
3

62
256
51
90.0
52
90.0
71
2
49
0.5
62
256
6
BYLAYER
49
-0.5
62
256
6
BYLAYER
0
ACDBPLACEHOLDER
5
15
102
{ACAD_REACTORS
330
353
102
}
330
353
0
TABLESTYLE
5
35C
102
{ACAD_REACTORS
330
354
102
}
330
354
100
AcDbTableStyle
3
Standard
70
0
71
0
40
1.5
41
1.5
280
0
281
0
7
Standard
140
4.5
170
2
62
0
63
7
283
0
274
-2
284
1
64
0
275
-2
285
1
65
0
276
-2
286
1
66
0
277
-2
287
1
67
0
278
-2
288
1
68
0
279
-2
289
1
69
0
7
Standard
140
6.0
170
5
62
0
63
7
283
0
274
-2
284
1
64
0
275
-2
285
1
65
0
276
-2
286
1
66
0
277
-2
287
1
67
0
278
-2
288
1
68
0
279
-2
289
1
69
0
7
Standard
140
4.5
170
5
62
0
63
7
283
0
274
-2
284
1
64
0
275
-2
285
1
65
0
276
-2
286
1
66
0
277
-2
287
1
67
0
278
-2
288
1
68
0
279
-2
289
1
69
0
0
DICTIONARYVAR
5
35D
102
{ACAD_REACTORS
330
356
102
}
330
356
100
DictionaryVariables
280
0
1
STANDARD
0
DICTIONARYVAR
5
35E
102
{ACAD_REACTORS
330
356
102
}
330
356
100
DictionaryVariables
280
0
1
2
0
DICTIONARYVAR
5
35F
102
{ACAD_REACTORS
330
356
102
}
330
356
100
DictionaryVariables
280
0
1
1
0
DICTIONARYVAR
5
360
102
{ACAD_REACTORS
330
356
102
}
330
356
100
DictionaryVariables
280
0
1

0
DICTIONARY
5
361
330
48
100
AcDbDictionary
280
1
281
1
3
ACAD_XREC_ROUNDTRIP
360
364
0
DICTIONARY
5
362
330
4A
100
AcDbDictionary
280
1
281
1
3
ACAD_XREC_ROUNDTRIP
360
365
0
DICTIONARY
5
363
330
46
100
AcDbDictionary
280
1
281
1
3
ACAD_XREC_ROUNDTRIP
360
366
0
XRECORD
5
364
102
{ACAD_REACTORS
330
361
102
}
330
361
100
AcDbXrecord
280
1
102
SHADEPLOT
70
0
102
SHADEPLOTRESLEVEL
70
2
102
SHADEPLOTCUSTOMDPI
70
300
0
XRECORD
5
365
102
{ACAD_REACTORS
330
362
102
}
330
362
100
AcDbXrecord
280
1
102
SHADEPLOT
70
0
102
SHADEPLOTRESLEVEL
70
2
102
SHADEPLOTCUSTOMDPI
70
300
0
XRECORD
5
366
102
{ACAD_REACTORS
330
363
102
}
330
363
100
AcDbXrecord
280
1
102
SHADEPLOT
70
0
102
SHADEPLOTRESLEVEL
70
2
102
SHADEPLOTCUSTOMDPI
70
300
0
ENDSEC
0
EOF
