0
SECTION
2
HEADER
9
$ACADVER
1
AC1015
9
$ACADMAINTVER
70
20
9
$DWGCODEPAGE
3
ANSI_1251
9
$INSBASE
10
0.0
20
0.0
30
0.0
9
$EXTMIN
10
1.000000000000000E+20
20
1.000000000000000E+20
30
1.000000000000000E+20
9
$EXTMAX
10
-1.000000000000000E+20
20
-1.000000000000000E+20
30
-1.000000000000000E+20
9
$LIMMIN
10
0.0
20
0.0
9
$LIMMAX
10
420.0
20
297.0
9
$ORTHOMODE
70
0
9
$REGENMODE
70
1
9
$FILLMODE
70
1
9
$QTEXTMODE
70
0
9
$MIRRTEXT
70
0
9
$LTSCALE
40
1.0
9
$ATTMODE
70
1
9
$TEXTSIZE
40
2.5
9
$TRACEWID
40
1.0
9
$TEXTSTYLE
7
Standard
9
$CLAYER
8
0
9
$CELTYPE
6
ByLayer
9
$CECOLOR
62
256
9
$CELTSCALE
40
1.0
9
$DISPSILH
70
0
9
$DIMSCALE
40
1.0
9
$DIMASZ
40
0.18
9
$DIMEXO
40
0.0625
9
$DIMDLI
40
0.38
9
$DIMRND
40
0.0
9
$DIMDLE
40
0.0
9
$DIMEXE
40
0.18
9
$DIMTP
40
0.0
9
$DIMTM
40
0.0
9
$DIMTXT
40
0.18
9
$DIMCEN
40
0.09
9
$DIMTSZ
40
0.0
9
$DIMTOL
70
0
9
$DIMLIM
70
0
9
$DIMTIH
70
1
9
$DIMTOH
70
1
9
$DIMSE1
70
0
9
$DIMSE2
70
0
9
$DIMTAD
70
0
9
$DIMZIN
70
0
9
$DIMBLK
1

9
$DIMASO
70
1
9
$DIMSHO
70
1
9
$DIMPOST
1

9
$DIMAPOST
1

9
$DIMALT
70
0
9
$DIMALTD
70
2
9
$DIMALTF
40
25.4
9
$DIMLFAC
40
1.0
9
$DIMTOFL
70
0
9
$DIMTVP
40
0.0
9
$DIMTIX
70
0
9
$DIMSOXD
70
0
9
$DIMSAH
70
0
9
$DIMBLK1
1

9
$DIMBLK2
1

9
$DIMSTYLE
2
Standard
9
$DIMCLRD
70
0
9
$DIMCLRE
70
0
9
$DIMCLRT
70
0
9
$DIMTFAC
40
1.0
9
$DIMGAP
40
0.09
9
$DIMJUST
70
0
9
$DIMSD1
70
0
9
$DIMSD2
70
0
9
$DIMTOLJ
70
1
9
$DIMTZIN
70
0
9
$DIMALTZ
70
0
9
$DIMALTTZ
70
0
9
$DIMUPT
70
0
9
$DIMDEC
70
4
9
$DIMTDEC
70
4
9
$DIMALTU
70
2
9
$DIMALTTD
70
2
9
$DIMTXSTY
7
Standard
9
$DIMAUNIT
70
0
9
$DIMADEC
70
0
9
$DIMALTRND
40
0.0
9
$DIMAZIN
70
0
9
$DIMDSEP
70
46
9
$DIMATFIT
70
3
9
$DIMFRAC
70
0
9
$DIMLDRBLK
1

9
$DIMLUNIT
70
2
9
$DIMLWD
70
-2
9
$DIMLWE
70
-2
9
$DIMTMOVE
70
0
9
$LUNITS
70
2
9
$LUPREC
70
4
9
$SKETCHINC
40
1.0
9
$FILLETRAD
40
0.0
9
$AUNITS
70
0
9
$AUPREC
70
0
9
$MENU
1
.
9
$ELEVATION
40
0.0
9
$PELEVATION
40
0.0
9
$THICKNESS
40
0.0
9
$LIMCHECK
70
0
9
$CHAMFERA
40
0.0
9
$CHAMFERB
40
0.0
9
$CHAMFERC
40
0.0
9
$CHAMFERD
40
0.0
9
$SKPOLY
70
0
9
$TDCREATE
40
2455008.558453229
9
$TDUCREATE
40
2455008.308453229
9
$TDUPDATE
40
2455694.624051458
9
$TDUUPDATE
40
2455694.374051458
9
$TDINDWG
40
0.0121107986
9
$TDUSRTIMER
40
0.0121104398
9
$USRTIMER
70
1
9
$ANGBASE
50
0.0
9
$ANGDIR
70
0
9
$PDMODE
70
0
9
$PDSIZE
40
0.0
9
$PLINEWID
40
0.0
9
$SPLFRAME
70
0
9
$SPLINETYPE
70
6
9
$SPLINESEGS
70
8
9
$HANDSEED
5
1000003A6
9
$SURFTAB1
70
6
9
$SURFTAB2
70
6
9
$SURFTYPE
70
6
9
$SURFU
70
6
9
$SURFV
70
6
9
$UCSBASE
2

9
$UCSNAME
2

9
$UCSORG
10
0.0
20
0.0
30
0.0
9
$UCSXDIR
10
1.0
20
0.0
30
0.0
9
$UCSYDIR
10
0.0
20
1.0
30
0.0
9
$UCSORTHOREF
2

9
$UCSORTHOVIEW
70
0
9
$UCSORGTOP
10
0.0
20
0.0
30
0.0
9
$UCSORGBOTTOM
10
0.0
20
0.0
30
0.0
9
$UCSORGLEFT
10
0.0
20
0.0
30
0.0
9
$UCSORGRIGHT
10
0.0
20
0.0
30
0.0
9
$UCSORGFRONT
10
0.0
20
0.0
30
0.0
9
$UCSORGBACK
10
0.0
20
0.0
30
0.0
9
$PUCSBASE
2

9
$PUCSNAME
2

9
$PUCSORG
10
0.0
20
0.0
30
0.0
9
$PUCSXDIR
10
1.0
20
0.0
30
0.0
9
$PUCSYDIR
10
0.0
20
1.0
30
0.0
9
$PUCSORTHOREF
2

9
$PUCSORTHOVIEW
70
0
9
$PUCSORGTOP
10
0.0
20
0.0
30
0.0
9
$PUCSORGBOTTOM
10
0.0
20
0.0
30
0.0
9
$PUCSORGLEFT
10
0.0
20
0.0
30
0.0
9
$PUCSORGRIGHT
10
0.0
20
0.0
30
0.0
9
$PUCSORGFRONT
10
0.0
20
0.0
30
0.0
9
$PUCSORGBACK
10
0.0
20
0.0
30
0.0
9
$USERI1
70
0
9
$USERI2
70
0
9
$USERI3
70
0
9
$USERI4
70
0
9
$USERI5
70
0
9
$USERR1
40
0.0
9
$USERR2
40
0.0
9
$USERR3
40
0.0
9
$USERR4
40
0.0
9
$USERR5
40
0.0
9
$WORLDVIEW
70
1
9
$SHADEDGE
70
3
9
$SHADEDIF
70
70
9
$TILEMODE
70
1
9
$MAXACTVP
70
64
9
$PINSBASE
10
0.0
20
0.0
30
0.0
9
$PLIMCHECK
70
0
9
$PEXTMIN
10
0.0
20
0.0
30
0.0
9
$PEXTMAX
10
0.0
20
0.0
30
0.0
9
$PLIMMIN
10
0.0
20
0.0
9
$PLIMMAX
10
12.0
20
9.0
9
$UNITMODE
70
0
9
$VISRETAIN
70
1
9
$PLINEGEN
70
0
9
$PSLTSCALE
70
1
9
$TREEDEPTH
70
3020
9
$CMLSTYLE
2
Standard
9
$CMLJUST
70
0
9
$CMLSCALE
40
20.0
9
$PROXYGRAPHICS
70
1
9
$MEASUREMENT
70
1
9
$CELWEIGHT
370
-1
9
$ENDCAPS
280
0
9
$JOINSTYLE
280
0
9
$LWDISPLAY
290
0
9
$INSUNITS
70
0
9
$HYPERLINKBASE
1

9
$STYLESHEET
1

9
$XEDIT
290
1
9
$CEPSNTYPE
380
0
9
$PSTYLEMODE
290
1
9
$FINGERPRINTGUID
2
{83B934B2-5622-42D0-9691-648EBDBEDF3A}
9
$VERSIONGUID
2
{687BA470-A50B-4F07-854F-729D023A6E33}
9
$EXTNAMES
290
1
9
$PSVPSCALE
40
0.0
9
$OLESTARTUP
290
0
0
ENDSEC
0
SECTION
2
CLASSES
0
CLASS
1
ACDBDICTIONARYWDFLT
2
AcDbDictionaryWithDefault
3
ObjectDBX Classes
90
0
280
0
281
0
0
CLASS
1
ACDBPLACEHOLDER
2
AcDbPlaceHolder
3
ObjectDBX Classes
90
0
280
0
281
0
0
CLASS
1
LAYOUT
2
AcDbLayout
3
ObjectDBX Classes
90
0
280
0
281
0
0
CLASS
1
DICTIONARYVAR
2
AcDbDictionaryVar
3
ObjectDBX Classes
90
0
280
0
281
0
0
CLASS
1
TABLESTYLE
2
AcDbTableStyle
3
ObjectDBX Classes
90
2047
280
0
281
0
0
ENDSEC
0
SECTION
2
TABLES
0
TABLE
2
VPORT
5
2B4
330
0
100
AcDbSymbolTable
70
2
0
VPORT
5
2B5
330
2B4
100
AcDbSymbolTableRecord
100
AcDbViewportTableRecord
2
*Active
70
0
10
0.0
20
0.0
11
1.0
21
1.0
12
390.4547463557241
22
194.9963087256912
13
0.0
23
0.0
14
10.0
24
10.0
15
10.0
25
10.0
16
0.0
26
0.0
36
1.0
17
0.0
27
0.0
37
0.0
40
420.481902819253
41
1.016627078384798
42
50.0
43
0.0
44
0.0
50
0.0
51
0.0
71
0
72
1000
73
1
74
3
75
0
76
0
77
0
78
0
281
0
65
1
110
0.0
120
0.0
130
0.0
111
1.0
121
0.0
131
0.0
112
0.0
122
1.0
132
0.0
79
0
146
0.0
0
ENDTAB
0
TABLE
2
LTYPE
5
2B6
330
0
100
AcDbSymbolTable
70
1
0
LTYPE
5
2B7
330
2B6
100
AcDbSymbolTableRecord
100
AcDbLinetypeTableRecord
2
ByBlock
70
0
3

72
65
73
0
40
0.0
0
LTYPE
5
2B8
330
2B6
100
AcDbSymbolTableRecord
100
AcDbLinetypeTableRecord
2
ByLayer
70
0
3

72
65
73
0
40
0.0
0
LTYPE
5
2B9
330
2B6
100
AcDbSymbolTableRecord
100
AcDbLinetypeTableRecord
2
Continuous
70
0
3
Solid line
72
65
73
0
40
0.0
0
ENDTAB
0
TABLE
2
LAYER
5
2BA
102
{ACAD_XDICTIONARY
360
2BB
102
}
330
0
100
AcDbSymbolTable
70
1
0
LAYER
5
2BE
100
AcDbSymbolTableRecord
100
AcDbLayerTableRecord
2
0
70
0
62
7
6
Continuous
290
1
370
-3
390
2BD
0
LAYER
5
2BF
100
AcDbSymbolTableRecord
100
AcDbLayerTableRecord
2
SYS_METRIC
70
0
62
-7
6
Continuous
290
0
370
-3
390
2BD
0
LAYER
5
2C0
100
AcDbSymbolTableRecord
100
AcDbLayerTableRecord
2
_shtamp
70
0
62
7
6
Continuous
290
1
370
-3
390
2BD
0
LAYER
5
2C1
100
AcDbSymbolTableRecord
100
AcDbLayerTableRecord
2
Œ—
70
0
62
5
6
Continuous
290
1
370
40
390
2BD
0
LAYER
5
2C2
100
AcDbSymbolTableRecord
100
AcDbLayerTableRecord
2
Œ—_ÚÂÍÒÚ
70
0
62
7
6
Continuous
290
1
370
-3
390
2BD
0
LAYER
5
2C3
100
AcDbSymbolTableRecord
100
AcDbLayerTableRecord
2
Œ—_‚˚ÌÓÒÍË
70
0
62
7
6
Continuous
290
1
370
-3
390
2BD
0
LAYER
5
2C4
100
AcDbSymbolTableRecord
100
AcDbLayerTableRecord
2
œ—
70
0
62
1
6
Continuous
290
1
370
40
390
2BD
0
LAYER
5
2C5
100
AcDbSymbolTableRecord
100
AcDbLayerTableRecord
2
œ—_ÚÂÍÒÚ
70
0
62
7
6
Continuous
290
1
370
-3
390
2BD
0
LAYER
5
2C6
100
AcDbSymbolTableRecord
100
AcDbLayerTableRecord
2
œ—_‚˚ÌÓÒÍË
70
0
62
7
6
Continuous
290
1
370
-3
390
2BD
0
LAYER
5
2C7
100
AcDbSymbolTableRecord
100
AcDbLayerTableRecord
2
Œœ
70
0
62
6
6
Continuous
290
1
370
40
390
2BD
0
LAYER
5
2C8
100
AcDbSymbolTableRecord
100
AcDbLayerTableRecord
2
Œœ_‚˚ÌÓÒÍË
70
0
62
7
6
Continuous
290
1
370
-3
390
2BD
0
LAYER
5
2C9
100
AcDbSymbolTableRecord
100
AcDbLayerTableRecord
2
Œœ_ÚÂÍÒÚ
70
0
62
7
6
Continuous
290
1
370
-3
390
2BD
0
LAYER
5
2CA
100
AcDbSymbolTableRecord
100
AcDbLayerTableRecord
2
œ“_ÚÂÍÒÚ
70
0
62
7
6
Continuous
290
1
370
-3
390
2BD
0
LAYER
5
2CB
100
AcDbSymbolTableRecord
100
AcDbLayerTableRecord
2
œ“_‚˚ÌÓÒÍË
70
0
62
7
6
Continuous
290
1
370
-3
390
2BD
0
LAYER
5
2CC
100
AcDbSymbolTableRecord
100
AcDbLayerTableRecord
2
œ“_Ï‡„ËÒÚ‡Î¸
70
0
62
1
6
Continuous
290
1
370
80
390
2BD
0
LAYER
5
2CD
100
AcDbSymbolTableRecord
100
AcDbLayerTableRecord
2
œ“_ˇ‰ÍË
70
0
62
1
6
Continuous
290
1
370
40
390
2BD
0
LAYER
5
2CE
100
AcDbSymbolTableRecord
100
AcDbLayerTableRecord
2
ÙÓÏ‡Ú
70
0
62
2
6
Continuous
290
0
370
-3
390
2BD
0
LAYER
5
2CF
100
AcDbSymbolTableRecord
100
AcDbLayerTableRecord
2
œ“_‡ÁÏÂ˚
70
0
62
252
6
Continuous
290
1
370
-3
390
2BD
0
LAYER
5
2D0
100
AcDbSymbolTableRecord
100
AcDbLayerTableRecord
2
Defpoints
70
4
62
7
6
Continuous
290
0
370
-3
390
2BD
0
LAYER
5
2D1
100
AcDbSymbolTableRecord
100
AcDbLayerTableRecord
2
œ“_ÓÓ¯ÂÌËÂ
70
0
62
2
6
Continuous
290
0
370
-3
390
2BD
0
LAYER
5
2D2
100
AcDbSymbolTableRecord
100
AcDbLayerTableRecord
2
ËÒÛÌÓÍ
70
0
62
8
6
Continuous
290
0
370
-3
390
2BD
0
LAYER
5
2D3
100
AcDbSymbolTableRecord
100
AcDbLayerTableRecord
2
ÒÚÂÌ˚
70
0
62
4
6
Continuous
290
1
370
-3
390
2BD
0
LAYER
5
2D4
100
AcDbSymbolTableRecord
100
AcDbLayerTableRecord
2
_RS
70
0
62
5
6
Continuous
290
1
370
40
390
2BD
0
LAYER
5
2D5
100
AcDbSymbolTableRecord
100
AcDbLayerTableRecord
2
_÷œ
70
0
62
6
6
Continuous
290
1
370
40
390
2BD
0
LAYER
5
2D6
100
AcDbSymbolTableRecord
100
AcDbLayerTableRecord
2
_ÿ—
70
0
62
92
6
Continuous
290
1
370
40
390
2BD
0
LAYER
5
2D7
100
AcDbSymbolTableRecord
100
AcDbLayerTableRecord
2
_ÿ“
70
0
62
92
6
Continuous
290
1
370
40
390
2BD
0
LAYER
5
2D8
100
AcDbSymbolTableRecord
100
AcDbLayerTableRecord
2
EL_DEVICE
70
0
62
1
6
Continuous
290
1
370
40
390
2BD
0
LAYER
5
2D9
100
AcDbSymbolTableRecord
100
AcDbLayerTableRecord
2
EL_DEVICE_PIN_NAME
70
0
62
125
6
Continuous
290
1
370
-3
390
2BD
0
LAYER
5
2DA
100
AcDbSymbolTableRecord
100
AcDbLayerTableRecord
2
SYS_PIN
70
0
62
7
6
Continuous
290
1
370
-3
390
2BD
0
LAYER
5
2DB
100
AcDbSymbolTableRecord
100
AcDbLayerTableRecord
2
SYS_DEVICE_BORDER
70
0
62
-7
6
Continuous
290
0
370
-3
390
2BD
0
LAYER
5
2DC
100
AcDbSymbolTableRecord
100
AcDbLayerTableRecord
2
EL_DEVICE_NAME
70
0
62
7
6
Continuous
290
1
370
-3
390
2BD
0
ENDTAB
0
TABLE
2
STYLE
5
2DD
330
0
100
AcDbSymbolTable
70
2
0
STYLE
5
2DE
100
AcDbSymbolTableRecord
100
AcDbTextStyleTableRecord
2
Standard
70
0
40
3
41
1
50
15
71
0
42
2.5
3
_mipgost.shx
4

0
STYLE
5
2DF
100
AcDbSymbolTableRecord
100
AcDbTextStyleTableRecord
2
R2_5
70
0
40
2.5
41
0.65
50
12
71
0
42
2.5
3
gewind.shx
4

0
ENDTAB
0
TABLE
2
VIEW
5
2E0
330
0
100
AcDbSymbolTable
70
0
0
ENDTAB
0
TABLE
2
UCS
5
2E1
330
0
100
AcDbSymbolTable
70
0
0
ENDTAB
0
TABLE
2
APPID
5
2E2
330
0
100
AcDbSymbolTable
70
11
0
APPID
5
2E3
330
2E2
100
AcDbSymbolTableRecord
100
AcDbRegAppTableRecord
2
ACAD
70
0
0
APPID
5
2E4
330
2E2
100
AcDbSymbolTableRecord
100
AcDbRegAppTableRecord
2
ACAD_PSEXT
70
0
0
APPID
5
2E5
330
2E2
100
AcDbSymbolTableRecord
100
AcDbRegAppTableRecord
2
ACAD_EXEMPT_FROM_CAD_STANDARDS
70
0
0
APPID
5
2E6
330
2E2
100
AcDbSymbolTableRecord
100
AcDbRegAppTableRecord
2
DSTP_XDATA
70
0
0
APPID
5
2E7
330
2E2
100
AcDbSymbolTableRecord
100
AcDbRegAppTableRecord
2
AcAecLayerStandard
70
0
0
APPID
5
2E8
330
2E2
100
AcDbSymbolTableRecord
100
AcDbRegAppTableRecord
2
ACAD_DSTYLE_DIMTEXT_FILL
70
0
0
APPID
5
2E9
330
2E2
100
AcDbSymbolTableRecord
100
AcDbRegAppTableRecord
2
ACAD_DSTYLE_DIMEXT_LENGTH
70
0
0
APPID
5
2EA
330
2E2
100
AcDbSymbolTableRecord
100
AcDbRegAppTableRecord
2
ACAD_DSTYLE_DIMEXT_ENABLED
70
0
0
APPID
5
2EB
330
2E2
100
AcDbSymbolTableRecord
100
AcDbRegAppTableRecord
2
ACAD_DSTYLE_DIM_LINETYPE
70
0
0
APPID
5
2EC
330
2E2
100
AcDbSymbolTableRecord
100
AcDbRegAppTableRecord
2
ACAD_DSTYLE_DIM_EXT1_LINETYPE
70
0
0
APPID
5
2ED
330
2E2
100
AcDbSymbolTableRecord
100
AcDbRegAppTableRecord
2
ACAD_DSTYLE_DIM_EXT2_LINETYPE
70
0
0
ENDTAB
0
TABLE
2
DIMSTYLE
5
2EE
330
0
100
AcDbSymbolTable
70
2
100
AcDbDimStyleTable
71
1
340
2EF
0
DIMSTYLE
105
2EF
330
2EE
100
AcDbSymbolTableRecord
100
AcDbDimStyleTableRecord
2
Standard
70
0
340
2DE
0
ENDTAB
0
TABLE
2
BLOCK_RECORD
5
2F0
330
0
100
AcDbSymbolTable
70
1
0
BLOCK_RECORD
5
2F1
330
2F0
100
AcDbSymbolTableRecord
100
AcDbBlockTableRecord
2
*Model_Space
340
2F2
0
BLOCK_RECORD
5
2F3
330
2F0
100
AcDbSymbolTableRecord
100
AcDbBlockTableRecord
2
*Paper_Space
340
2F4
0
BLOCK_RECORD
5
2F5
330
2F0
100
AcDbSymbolTableRecord
100
AcDbBlockTableRecord
2
*Paper_Space0
340
2F6
0
BLOCK_RECORD
5
2F7
100
AcDbSymbolTableRecord
100
AcDbBlockTableRecord
2
_Oblique
0
BLOCK_RECORD
5
2F8
100
AcDbSymbolTableRecord
100
AcDbBlockTableRecord
2
ARROWHEAD_6
0
BLOCK_RECORD
5
2F9
100
AcDbSymbolTableRecord
100
AcDbBlockTableRecord
2
TESTBLOCK
0
BLOCK_RECORD
5
2FA
100
AcDbSymbolTableRecord
100
AcDbBlockTableRecord
2
testbox
0
BLOCK_RECORD
5
2FB
100
AcDbSymbolTableRecord
100
AcDbBlockTableRecord
2
FIX
0
BLOCK_RECORD
5
2FC
100
AcDbSymbolTableRecord
100
AcDbBlockTableRecord
2
DEVICE_TESTBOX
0
BLOCK_RECORD
5
2FD
100
AcDbSymbolTableRecord
100
AcDbBlockTableRecord
2
PS_DAT_SMOKE
0
BLOCK_RECORD
5
2FE
100
AcDbSymbolTableRecord
100
AcDbBlockTableRecord
2
DEVICE_PS_DAT_SMOKE
0
BLOCK_RECORD
5
2FF
100
AcDbSymbolTableRecord
100
AcDbBlockTableRecord
2
CONNECTOR_SQUARE
0
BLOCK_RECORD
5
300
100
AcDbSymbolTableRecord
100
AcDbBlockTableRecord
2
CONNECTOR_SQUARE
0
BLOCK_RECORD
5
301
100
AcDbSymbolTableRecord
100
AcDbBlockTableRecord
2
DEVICE_CONNECTOR_SQUARE
0
BLOCK_RECORD
5
302
100
AcDbSymbolTableRecord
100
AcDbBlockTableRecord
2
PS_DAT_TERMO
0
BLOCK_RECORD
5
303
100
AcDbSymbolTableRecord
100
AcDbBlockTableRecord
2
DEVICE_PS_DAT_TERMO
0
ENDTAB
0
ENDSEC
0
SECTION
2
BLOCKS
0
BLOCK
5
304
330
2F1
100
AcDbEntity
8
0
100
AcDbBlockBegin
2
*Model_Space
70
0
10
0.0
20
0.0
30
0.0
3
*Model_Space
1

0
ENDBLK
5
305
330
2F1
100
AcDbEntity
8
0
100
AcDbBlockEnd
0
BLOCK
5
306
330
2F3
100
AcDbEntity
67
1
8
0
100
AcDbBlockBegin
2
*Paper_Space
70
0
10
0.0
20
0.0
30
0.0
3
*Paper_Space
1

0
ENDBLK
5
307
330
2F3
100
AcDbEntity
67
1
8
0
100
AcDbBlockEnd
0
BLOCK
5
308
330
2F5
100
AcDbEntity
67
1
8
0
100
AcDbBlockBegin
2
*Paper_Space0
70
0
10
0.0
20
0.0
30
0.0
3
*Paper_Space0
1

0
ENDBLK
5
309
330
2F5
100
AcDbEntity
67
1
8
0
100
AcDbBlockEnd
0
BLOCK
5
30A
100
AcDbEntity
8
0
100
AcDbBlockBegin
2
_Oblique
70
2
10
0
20
0
30
0
3
_Oblique
1

0
LINE
5
30B
100
AcDbEntity
8
0
370
-2
100
AcDbLine
10
-0.5000000000
20
-0.5000000000
30
0.0000000000
11
0.5000000000
21
0.5000000000
31
0.0000000000
1001
DSTP_XDATA
1002
{
1000
_OWNERHANDLE=0000000064
1002
}
0
ENDBLK
5
30C
100
AcDbEntity
8
0
100
AcDbBlockEnd
0
BLOCK
5
30D
100
AcDbEntity
8
0
100
AcDbBlockBegin
2
ARROWHEAD_6
70
2
10
0
20
0
30
0
3
ARROWHEAD_6
1

0
LINE
5
30E
100
AcDbEntity
8
0
100
AcDbLine
10
-0.5000000000
20
-0.5000000000
30
0.0000000000
11
0.5000000000
21
0.5000000000
31
0.0000000000
1001
DSTP_XDATA
1002
{
1000
_OWNERHANDLE=0000000064
1002
}
0
LINE
5
30F
100
AcDbEntity
8
0
100
AcDbLine
10
0.0000000000
20
0.0000000000
30
0.0000000000
11
-1.0000000000
21
0.0000000000
31
0.0000000000
1001
DSTP_XDATA
1002
{
1000
_OWNERHANDLE=0000000064
1002
}
0
ENDBLK
5
310
100
AcDbEntity
8
0
100
AcDbBlockEnd
0
BLOCK
5
311
100
AcDbEntity
8
0
100
AcDbBlockBegin
2
TESTBLOCK
70
2
10
0
20
0
30
0
3
TESTBLOCK
1

0
CIRCLE
5
312
100
AcDbEntity
8
EL_DEVICE
100
AcDbCircle
10
0.0000000000
20
0.0000000000
30
0.0000000000
40
0.5000000000
1001
DSTP_XDATA
1002
{
1000
_OWNERHANDLE=0000000064
1002
}
0
TEXT
5
313
100
AcDbEntity
8
EL_DEVICE_PIN_NAME
100
AcDbText
11
0.0000000000
21
0.5000000000
31
0.0000000000
10
-1.1666666319
20
0.5000000000
30
0.0000000000
40
2.5000000000
50
0.0000000000
41
0.7000000000
51
12.0000000000
72
1
7
R2_5
1
??
100
AcDbText
73
0
1001
DSTP_XDATA
1002
{
1000
_OWNERHANDLE=0000000064
1002
}
0
ENDBLK
5
314
100
AcDbEntity
8
0
100
AcDbBlockEnd
0
BLOCK
5
315
100
AcDbEntity
8
0
100
AcDbBlockBegin
2
testbox
70
2
10
0
20
0
30
0
3
testbox
1

0
LINE
5
316
100
AcDbEntity
8
0
100
AcDbLine
10
0.0000000000
20
0.0000000000
30
0.0000000000
11
20.0000000000
21
0.0000000000
31
0.0000000000
1001
DSTP_XDATA
1002
{
1000
_OWNERHANDLE=0000000064
1002
}
0
LINE
5
317
100
AcDbEntity
8
0
100
AcDbLine
10
20.0000000000
20
0.0000000000
30
0.0000000000
11
20.0000000000
21
50.0000000000
31
0.0000000000
1001
DSTP_XDATA
1002
{
1000
_OWNERHANDLE=0000000064
1002
}
0
LINE
5
318
100
AcDbEntity
8
0
100
AcDbLine
10
20.0000000000
20
50.0000000000
30
0.0000000000
11
0.0000000000
21
50.0000000000
31
0.0000000000
1001
DSTP_XDATA
1002
{
1000
_OWNERHANDLE=0000000064
1002
}
0
LINE
5
319
100
AcDbEntity
8
0
100
AcDbLine
10
0.0000000000
20
0.0000000000
30
0.0000000000
11
0.0000000000
21
50.0000000000
31
0.0000000000
1001
DSTP_XDATA
1002
{
1000
_OWNERHANDLE=0000000064
1002
}
0
LINE
5
31A
100
AcDbEntity
8
0
100
AcDbLine
10
0.0000000000
20
0.0000000000
30
50.0000000000
11
20.0000000000
21
0.0000000000
31
50.0000000000
1001
DSTP_XDATA
1002
{
1000
_OWNERHANDLE=0000000064
1002
}
0
LINE
5
31B
100
AcDbEntity
8
0
100
AcDbLine
10
20.0000000000
20
0.0000000000
30
50.0000000000
11
20.0000000000
21
50.0000000000
31
50.0000000000
1001
DSTP_XDATA
1002
{
1000
_OWNERHANDLE=0000000064
1002
}
0
LINE
5
31C
100
AcDbEntity
8
0
100
AcDbLine
10
20.0000000000
20
50.0000000000
30
50.0000000000
11
0.0000000000
21
50.0000000000
31
50.0000000000
1001
DSTP_XDATA
1002
{
1000
_OWNERHANDLE=0000000064
1002
}
0
LINE
5
31D
100
AcDbEntity
8
0
100
AcDbLine
10
0.0000000000
20
0.0000000000
30
50.0000000000
11
0.0000000000
21
50.0000000000
31
50.0000000000
1001
DSTP_XDATA
1002
{
1000
_OWNERHANDLE=0000000064
1002
}
0
LINE
5
31E
100
AcDbEntity
8
0
100
AcDbLine
10
0.0000000000
20
0.0000000000
30
50.0000000000
11
0.0000000000
21
0.0000000000
31
0.0000000000
1001
DSTP_XDATA
1002
{
1000
_OWNERHANDLE=0000000064
1002
}
0
LINE
5
31F
100
AcDbEntity
8
0
100
AcDbLine
10
20.0000000000
20
0.0000000000
30
50.0000000000
11
20.0000000000
21
0.0000000000
31
0.0000000000
1001
DSTP_XDATA
1002
{
1000
_OWNERHANDLE=0000000064
1002
}
0
LINE
5
320
100
AcDbEntity
8
0
100
AcDbLine
10
0.0000000000
20
50.0000000000
30
50.0000000000
11
0.0000000000
21
50.0000000000
31
0.0000000000
1001
DSTP_XDATA
1002
{
1000
_OWNERHANDLE=0000000064
1002
}
0
LINE
5
321
100
AcDbEntity
8
0
100
AcDbLine
10
20.0000000000
20
50.0000000000
30
50.0000000000
11
20.0000000000
21
50.0000000000
31
0.0000000000
1001
DSTP_XDATA
1002
{
1000
_OWNERHANDLE=0000000064
1002
}
0
INSERT
5
322
100
AcDbEntity
8
0
100
AcDbBlockReference
2
FIX
10
10.0000000000
20
25.0000000000
30
0.0000000000
41
1.9685039370
42
1.9685039370
43
1.9685039370
50
0.0000000000
1001
DSTP_XDATA
1002
{
1000
_OWNERHANDLE=0000000064
1002
}
0
LINE
5
323
100
AcDbEntity
8
0
100
AcDbLine
10
0.0000000000
20
0.0000000000
30
0.0000000000
11
20.0000000000
21
0.0000000000
31
0.0000000000
1001
DSTP_XDATA
1002
{
1000
_OWNERHANDLE=0000000064
1002
}
0
LINE
5
324
100
AcDbEntity
8
0
100
AcDbLine
10
20.0000000000
20
0.0000000000
30
0.0000000000
11
20.0000000000
21
50.0000000000
31
0.0000000000
1001
DSTP_XDATA
1002
{
1000
_OWNERHANDLE=0000000064
1002
}
0
LINE
5
325
100
AcDbEntity
8
0
100
AcDbLine
10
20.0000000000
20
50.0000000000
30
0.0000000000
11
0.0000000000
21
50.0000000000
31
0.0000000000
1001
DSTP_XDATA
1002
{
1000
_OWNERHANDLE=0000000064
1002
}
0
LINE
5
326
100
AcDbEntity
8
0
100
AcDbLine
10
0.0000000000
20
0.0000000000
30
0.0000000000
11
0.0000000000
21
50.0000000000
31
0.0000000000
1001
DSTP_XDATA
1002
{
1000
_OWNERHANDLE=0000000064
1002
}
0
LINE
5
327
100
AcDbEntity
8
0
100
AcDbLine
10
0.0000000000
20
0.0000000000
30
50.0000000000
11
20.0000000000
21
0.0000000000
31
50.0000000000
1001
DSTP_XDATA
1002
{
1000
_OWNERHANDLE=0000000064
1002
}
0
LINE
5
328
100
AcDbEntity
8
0
100
AcDbLine
10
20.0000000000
20
0.0000000000
30
50.0000000000
11
20.0000000000
21
50.0000000000
31
50.0000000000
1001
DSTP_XDATA
1002
{
1000
_OWNERHANDLE=0000000064
1002
}
0
LINE
5
329
100
AcDbEntity
8
0
100
AcDbLine
10
20.0000000000
20
50.0000000000
30
50.0000000000
11
0.0000000000
21
50.0000000000
31
50.0000000000
1001
DSTP_XDATA
1002
{
1000
_OWNERHANDLE=0000000064
1002
}
0
LINE
5
32A
100
AcDbEntity
8
0
100
AcDbLine
10
0.0000000000
20
0.0000000000
30
50.0000000000
11
0.0000000000
21
50.0000000000
31
50.0000000000
1001
DSTP_XDATA
1002
{
1000
_OWNERHANDLE=0000000064
1002
}
0
LINE
5
32B
100
AcDbEntity
8
0
100
AcDbLine
10
0.0000000000
20
0.0000000000
30
50.0000000000
11
0.0000000000
21
0.0000000000
31
0.0000000000
1001
DSTP_XDATA
1002
{
1000
_OWNERHANDLE=0000000064
1002
}
0
LINE
5
32C
100
AcDbEntity
8
0
100
AcDbLine
10
20.0000000000
20
0.0000000000
30
50.0000000000
11
20.0000000000
21
0.0000000000
31
0.0000000000
1001
DSTP_XDATA
1002
{
1000
_OWNERHANDLE=0000000064
1002
}
0
LINE
5
32D
100
AcDbEntity
8
0
100
AcDbLine
10
0.0000000000
20
50.0000000000
30
50.0000000000
11
0.0000000000
21
50.0000000000
31
0.0000000000
1001
DSTP_XDATA
1002
{
1000
_OWNERHANDLE=0000000064
1002
}
0
LINE
5
32E
100
AcDbEntity
8
0
100
AcDbLine
10
20.0000000000
20
50.0000000000
30
50.0000000000
11
20.0000000000
21
50.0000000000
31
0.0000000000
1001
DSTP_XDATA
1002
{
1000
_OWNERHANDLE=0000000064
1002
}
0
ENDBLK
5
32F
100
AcDbEntity
8
0
100
AcDbBlockEnd
0
BLOCK
5
330
100
AcDbEntity
8
0
100
AcDbBlockBegin
2
FIX
70
2
10
0
20
0
30
0
3
FIX
1

0
LINE
5
331
100
AcDbEntity
8
EL_DEVICE
100
AcDbLine
10
-1.0000000000
20
0.0000000000
30
0.0000000000
11
1.0000000000
21
0.0000000000
31
0.0000000000
1001
DSTP_XDATA
1002
{
1000
_OWNERHANDLE=0000000064
1002
}
0
LINE
5
332
100
AcDbEntity
8
EL_DEVICE
100
AcDbLine
10
0.0000000000
20
1.0000000000
30
0.0000000000
11
0.0000000000
21
-1.0000000000
31
0.0000000000
1001
DSTP_XDATA
1002
{
1000
_OWNERHANDLE=0000000064
1002
}
0
ENDBLK
5
333
100
AcDbEntity
8
0
100
AcDbBlockEnd
0
BLOCK
5
334
100
AcDbEntity
8
0
100
AcDbBlockBegin
2
DEVICE_TESTBOX
70
2
10
0
20
0
30
0
3
DEVICE_TESTBOX
1

0
INSERT
5
335
100
AcDbEntity
8
0
100
AcDbBlockReference
2
FIX
10
10.0000000000
20
25.0000000000
30
0.0000000000
41
1.9685039370
42
1.9685039370
43
1.9685039370
50
0.0000000000
1001
DSTP_XDATA
1002
{
1000
_OWNERHANDLE=0000000064
1002
}
0
ENDBLK
5
336
100
AcDbEntity
8
0
100
AcDbBlockEnd
0
BLOCK
5
337
100
AcDbEntity
8
0
100
AcDbBlockBegin
2
PS_DAT_SMOKE
70
2
10
0
20
0
30
0
3
PS_DAT_SMOKE
1

0
LINE
5
338
100
AcDbEntity
8
EL_DEVICE
100
AcDbLine
10
0.5000000000
20
2.0000000000
30
0.0000000000
11
-0.7500000000
21
0.7500000000
31
0.0000000000
1001
DSTP_XDATA
1002
{
1000
_OWNERHANDLE=0000000064
1002
}
0
LINE
5
339
100
AcDbEntity
8
EL_DEVICE
100
AcDbLine
10
-0.7500000000
20
0.7500000000
30
0.0000000000
11
0.7500000000
21
-0.7500000000
31
0.0000000000
1001
DSTP_XDATA
1002
{
1000
_OWNERHANDLE=0000000064
1002
}
0
LINE
5
33A
100
AcDbEntity
8
EL_DEVICE
100
AcDbLine
10
0.7500000000
20
-0.7500000000
30
0.0000000000
11
-0.5000000000
21
-2.0000000000
31
0.0000000000
1001
DSTP_XDATA
1002
{
1000
_OWNERHANDLE=0000000064
1002
}
0
LINE
5
33B
100
AcDbEntity
8
EL_DEVICE
100
AcDbLine
10
2.5000000000
20
-2.5000000000
30
0.0000000000
11
-2.5000000000
21
-2.5000000000
31
0.0000000000
1001
DSTP_XDATA
1002
{
1000
_OWNERHANDLE=0000000064
1002
}
0
LINE
5
33C
100
AcDbEntity
8
EL_DEVICE
100
AcDbLine
10
2.5000000000
20
2.5000000000
30
0.0000000000
11
2.5000000000
21
-2.5000000000
31
0.0000000000
1001
DSTP_XDATA
1002
{
1000
_OWNERHANDLE=0000000064
1002
}
0
LINE
5
33D
100
AcDbEntity
8
EL_DEVICE
100
AcDbLine
10
-2.5000000000
20
2.5000000000
30
0.0000000000
11
2.5000000000
21
2.5000000000
31
0.0000000000
1001
DSTP_XDATA
1002
{
1000
_OWNERHANDLE=0000000064
1002
}
0
LINE
5
33E
100
AcDbEntity
8
EL_DEVICE
100
AcDbLine
10
-2.5000000000
20
-2.5000000000
30
0.0000000000
11
-2.5000000000
21
2.5000000000
31
0.0000000000
1001
DSTP_XDATA
1002
{
1000
_OWNERHANDLE=0000000064
1002
}
0
ENDBLK
5
33F
100
AcDbEntity
8
0
100
AcDbBlockEnd
0
BLOCK
5
340
100
AcDbEntity
8
0
100
AcDbBlockBegin
2
DEVICE_PS_DAT_SMOKE
70
2
10
0
20
0
30
0
3
DEVICE_PS_DAT_SMOKE
1

0
INSERT
5
341
100
AcDbEntity
8
0
100
AcDbBlockReference
2
CONNECTOR_SQUARE
10
0.0000000000
20
0.0000000000
30
0.0000000000
41
1.0000000000
42
1.0000000000
43
1.0000000000
50
0.0000000000
1001
DSTP_XDATA
1002
{
1000
_OWNERHANDLE=0000000064
1000
_HANDLE=001271BF10
1000
_UPGRADE=1
1002
}
0
LINE
5
342
100
AcDbEntity
8
SYS_DEVICE_BORDER
100
AcDbLine
10
2.5000000000
20
-2.5000000000
30
0.0000000000
11
-2.5000000000
21
-2.5000000000
31
0.0000000000
1001
DSTP_XDATA
1002
{
1000
_OWNERHANDLE=0000000064
1002
}
0
LINE
5
343
100
AcDbEntity
8
SYS_DEVICE_BORDER
100
AcDbLine
10
2.5000000000
20
2.5000000000
30
0.0000000000
11
2.5000000000
21
-2.5000000000
31
0.0000000000
1001
DSTP_XDATA
1002
{
1000
_OWNERHANDLE=0000000064
1002
}
0
LINE
5
344
100
AcDbEntity
8
SYS_DEVICE_BORDER
100
AcDbLine
10
-2.5000000000
20
2.5000000000
30
0.0000000000
11
2.5000000000
21
2.5000000000
31
0.0000000000
1001
DSTP_XDATA
1002
{
1000
_OWNERHANDLE=0000000064
1002
}
0
LINE
5
345
100
AcDbEntity
8
SYS_DEVICE_BORDER
100
AcDbLine
10
-2.5000000000
20
-2.5000000000
30
0.0000000000
11
-2.5000000000
21
2.5000000000
31
0.0000000000
1001
DSTP_XDATA
1002
{
1000
_OWNERHANDLE=0000000064
1002
}
0
TEXT
5
346
100
AcDbEntity
8
EL_DEVICE_NAME
100
AcDbText
11
0.0000000000
21
3.5000000000
31
0.0000000000
10
-11.6666667362
20
3.5000000000
30
0.0000000000
40
2.5000000000
50
0.0000000000
41
0.7000000000
51
12.0000000000
72
1
7
R2_5
1
!!ERR(NMO_Name)!!
100
AcDbText
73
0
1001
DSTP_XDATA
1002
{
1000
_TMPL1=@@[NMO_Name]
1000
_OWNERHANDLE=0000000064
1002
}
0
ENDBLK
5
347
100
AcDbEntity
8
0
100
AcDbBlockEnd
0
BLOCK
5
348
100
AcDbEntity
8
0
100
AcDbBlockBegin
2
CONNECTOR_SQUARE
70
2
10
0
20
0
30
0
3
CONNECTOR_SQUARE
1

0
LINE
5
349
100
AcDbEntity
8
SYS_PIN
100
AcDbLine
10
-0.3535533906
20
0.3535533906
30
0.0000000000
11
0.3535533906
21
-0.3535533906
31
0.0000000000
1001
DSTP_XDATA
1002
{
1000
_OWNERHANDLE=0000000064
1002
}
0
LINE
5
34A
100
AcDbEntity
8
SYS_PIN
100
AcDbLine
10
0.3535533906
20
0.3535533906
30
0.0000000000
11
-0.3535533906
21
-0.3535533906
31
0.0000000000
1001
DSTP_XDATA
1002
{
1000
_OWNERHANDLE=0000000064
1002
}
0
ENDBLK
5
34B
100
AcDbEntity
8
0
100
AcDbBlockEnd
0
BLOCK
5
34C
100
AcDbEntity
8
0
100
AcDbBlockBegin
2
CONNECTOR_SQUARE
70
2
10
0
20
0
30
0
3
CONNECTOR_SQUARE
1

0
LINE
5
34D
100
AcDbEntity
8
SYS_PIN
100
AcDbLine
10
-0.3535533906
20
0.3535533906
30
0.0000000000
11
0.3535533906
21
-0.3535533906
31
0.0000000000
1001
DSTP_XDATA
1002
{
1000
_OWNERHANDLE=0000000064
1002
}
0
LINE
5
34E
100
AcDbEntity
8
SYS_PIN
100
AcDbLine
10
0.3535533906
20
0.3535533906
30
0.0000000000
11
-0.3535533906
21
-0.3535533906
31
0.0000000000
1001
DSTP_XDATA
1002
{
1000
_OWNERHANDLE=0000000064
1002
}
0
ENDBLK
5
34F
100
AcDbEntity
8
0
100
AcDbBlockEnd
0
BLOCK
5
350
100
AcDbEntity
8
0
100
AcDbBlockBegin
2
DEVICE_CONNECTOR_SQUARE
70
2
10
0
20
0
30
0
3
DEVICE_CONNECTOR_SQUARE
1

0
LINE
5
351
100
AcDbEntity
8
SYS_METRIC
100
AcDbLine
10
-1.0000000000
20
0.0000000000
30
0.0000000000
11
1.0000000000
21
0.0000000000
31
0.0000000000
1001
DSTP_XDATA
1002
{
1000
_OWNERHANDLE=0000000064
1002
}
0
LINE
5
352
100
AcDbEntity
8
SYS_METRIC
100
AcDbLine
10
0.0000000000
20
1.0000000000
30
0.0000000000
11
0.0000000000
21
-1.0000000000
31
0.0000000000
1001
DSTP_XDATA
1002
{
1000
_OWNERHANDLE=0000000064
1002
}
0
ENDBLK
5
353
100
AcDbEntity
8
0
100
AcDbBlockEnd
0
BLOCK
5
354
100
AcDbEntity
8
0
100
AcDbBlockBegin
2
PS_DAT_TERMO
70
2
10
0
20
0
30
0
3
PS_DAT_TERMO
1

0
LINE
5
355
100
AcDbEntity
8
EL_DEVICE
100
AcDbLine
10
2.5000000000
20
-2.5000000000
30
0.0000000000
11
-2.5000000000
21
-2.5000000000
31
0.0000000000
1001
DSTP_XDATA
1002
{
1000
_OWNERHANDLE=0000000064
1002
}
0
LINE
5
356
100
AcDbEntity
8
EL_DEVICE
100
AcDbLine
10
2.5000000000
20
2.5000000000
30
0.0000000000
11
2.5000000000
21
-2.5000000000
31
0.0000000000
1001
DSTP_XDATA
1002
{
1000
_OWNERHANDLE=0000000064
1002
}
0
LINE
5
357
100
AcDbEntity
8
EL_DEVICE
100
AcDbLine
10
-2.5000000000
20
2.5000000000
30
0.0000000000
11
2.5000000000
21
2.5000000000
31
0.0000000000
1001
DSTP_XDATA
1002
{
1000
_OWNERHANDLE=0000000064
1002
}
0
LINE
5
358
100
AcDbEntity
8
EL_DEVICE
100
AcDbLine
10
-2.5000000000
20
-2.5000000000
30
0.0000000000
11
-2.5000000000
21
2.5000000000
31
0.0000000000
1001
DSTP_XDATA
1002
{
1000
_OWNERHANDLE=0000000064
1002
}
0
LINE
5
359
100
AcDbEntity
8
EL_DEVICE
100
AcDbLine
10
0.0000000000
20
-0.7093147645
30
0.0000000000
11
0.0000000000
21
1.7093147645
31
0.0000000000
1001
DSTP_XDATA
1002
{
1000
_OWNERHANDLE=0000000064
1002
}
0
CIRCLE
5
35A
100
AcDbEntity
8
EL_DEVICE
100
AcDbCircle
10
0.0000000000
20
-1.2093147645
30
0.0000000000
40
0.5000000000
1001
DSTP_XDATA
1002
{
1000
_OWNERHANDLE=0000000064
1002
}
0
ENDBLK
5
35B
100
AcDbEntity
8
0
100
AcDbBlockEnd
0
BLOCK
5
35C
100
AcDbEntity
8
0
100
AcDbBlockBegin
2
DEVICE_PS_DAT_TERMO
70
2
10
0
20
0
30
0
3
DEVICE_PS_DAT_TERMO
1

0
INSERT
5
35D
100
AcDbEntity
8
0
100
AcDbBlockReference
2
CONNECTOR_SQUARE
10
0.0000000000
20
0.0000000000
30
0.0000000000
41
1.0000000000
42
1.0000000000
43
1.0000000000
50
0.0000000000
1001
DSTP_XDATA
1002
{
1000
_OWNERHANDLE=0000000064
1000
_HANDLE=000D91EEE8
1000
_UPGRADE=1
1002
}
0
LINE
5
35E
100
AcDbEntity
8
SYS_DEVICE_BORDER
100
AcDbLine
10
2.5000000000
20
-2.5000000000
30
0.0000000000
11
-2.5000000000
21
-2.5000000000
31
0.0000000000
1001
DSTP_XDATA
1002
{
1000
_OWNERHANDLE=0000000064
1002
}
0
LINE
5
35F
100
AcDbEntity
8
SYS_DEVICE_BORDER
100
AcDbLine
10
2.5000000000
20
2.5000000000
30
0.0000000000
11
2.5000000000
21
-2.5000000000
31
0.0000000000
1001
DSTP_XDATA
1002
{
1000
_OWNERHANDLE=0000000064
1002
}
0
LINE
5
360
100
AcDbEntity
8
SYS_DEVICE_BORDER
100
AcDbLine
10
-2.5000000000
20
2.5000000000
30
0.0000000000
11
2.5000000000
21
2.5000000000
31
0.0000000000
1001
DSTP_XDATA
1002
{
1000
_OWNERHANDLE=0000000064
1002
}
0
LINE
5
361
100
AcDbEntity
8
SYS_DEVICE_BORDER
100
AcDbLine
10
-2.5000000000
20
-2.5000000000
30
0.0000000000
11
-2.5000000000
21
2.5000000000
31
0.0000000000
1001
DSTP_XDATA
1002
{
1000
_OWNERHANDLE=0000000064
1002
}
0
TEXT
5
362
100
AcDbEntity
8
EL_DEVICE_NAME
100
AcDbText
11
0.0000000000
21
3.5000000000
31
0.0000000000
10
-11.6666667362
20
3.5000000000
30
0.0000000000
40
2.5000000000
50
0.0000000000
41
0.7000000000
51
12.0000000000
72
1
7
R2_5
1
!!ERR(NMO_Name)!!
100
AcDbText
73
0
1001
DSTP_XDATA
1002
{
1000
_TMPL1=@@[NMO_Name]
1000
_OWNERHANDLE=0000000064
1002
}
0
ENDBLK
5
363
100
AcDbEntity
8
0
100
AcDbBlockEnd
0
ENDSEC
0
SECTION
2
ENTITIES
0
INSERT
5
364
100
AcDbEntity
8
0
100
AcDbBlockReference
2
testbox
10
267.5716113459
20
-31.5385068516
30
0.0000000000
41
1.0000000000
42
1.0000000000
43
1.0000000000
50
0.0000000000
1001
DSTP_XDATA
1002
{
1000
_OWNERHANDLE=0000000064
1000
_HANDLE=001384EF90
1000
_UPGRADE=1
1002
}
0
INSERT
5
365
100
AcDbEntity
8
0
100
AcDbBlockReference
2
FIX
10
277.5716113459
20
-6.5385068516
30
0.0000000000
41
1.9685039370
42
1.9685039370
43
1.9685039370
50
0.0000000000
1001
DSTP_XDATA
1002
{
1000
_OWNERHANDLE=001384EF90
1002
}
0
LWPOLYLINE
5
366
100
AcDbEntity
8
0
100
AcDbPolyline
90
4
70
1
38
0.0000000000
10
9.6129568006
20
81.9227930082
40
1.0000000000
41
1.0000000000
10
609.6129568006
20
81.9227930082
40
1.0000000000
41
1.0000000000
10
609.6129568006
20
1081.9227930082
40
1.0000000000
41
1.0000000000
10
9.6129568006
20
1081.9227930082
40
1.0000000000
41
1.0000000000
1001
DSTP_XDATA
1002
{
1000
_OWNERHANDLE=0000000064
1002
}
0
LWPOLYLINE
5
367
100
AcDbEntity
8
0
100
AcDbPolyline
90
2
70
0
38
0.0000000000
10
19.6129568006
20
881.9227930082
40
1.0000000000
41
1.0000000000
10
599.6129568006
20
881.9227930082
40
1.0000000000
41
1.0000000000
1001
DSTP_XDATA
1002
{
1000
_OWNERHANDLE=0000000064
1002
}
0
LWPOLYLINE
5
368
100
AcDbEntity
8
0
100
AcDbPolyline
90
2
70
0
38
0.0000000000
10
19.6129568006
20
790.2503012987
40
1.0000000000
41
1.0000000000
10
599.6129568006
20
605.8548376858
40
1.0000000000
41
1.0000000000
1001
DSTP_XDATA
1002
{
1000
_OWNERHANDLE=0000000064
1002
}
0
LWPOLYLINE
5
369
100
AcDbEntity
8
0
100
AcDbPolyline
90
2
70
0
38
9.6129568006
10
9.6129568006
20
9.6129568006
40
1.0000000000
41
1.0000000000
10
9.6129568006
20
9.6129568006
40
1.0000000000
41
1.0000000000
210
1.0000000000
220
0.0000000000
230
0.0000000000
1001
DSTP_XDATA
1002
{
1000
_OWNERHANDLE=0000000064
1002
}
0
INSERT
5
36A
100
AcDbEntity
8
0
100
AcDbBlockReference
2
testbox
10
39.1502838061
20
312.4971641239
30
-311.7864860052
41
1.0000000000
42
1.0000000000
43
1.0000000000
50
90.0000000000
210
-0.7071067812
220
0.0000000000
230
0.7071067812
1001
DSTP_XDATA
1002
{
1000
_OWNERHANDLE=0000000064
1000
_HANDLE=0012714C30
1000
_UPGRADE=1
1002
}
0
INSERT
5
36B
100
AcDbEntity
8
0
100
AcDbBlockReference
2
FIX
10
441.4352023902
20
-49.1502838061
30
25.5025253169
41
1.9685039370
42
1.9685039370
43
1.9685039370
50
90.0000000000
210
-0.7071067812
220
0.0000000000
230
0.7071067812
1001
DSTP_XDATA
1002
{
1000
_OWNERHANDLE=0012714C30
1002
}
0
INSERT
5
36C
100
AcDbEntity
8
0
100
AcDbBlockReference
2
testbox
10
336.8831879992
20
235.3610678358
30
-385.9415988627
41
1.0000000000
42
1.0000000000
43
1.0000000000
50
35.2643896828
210
-0.7071067812
220
-0.5000000000
230
0.5000000000
1001
DSTP_XDATA
1002
{
1000
_OWNERHANDLE=0000000064
1000
_HANDLE=0012715310
1000
_UPGRADE=1
1002
}
0
INSERT
5
36D
100
AcDbEntity
8
0
100
AcDbBlockReference
2
FIX
10
559.4773249374
20
-33.6358553912
30
29.0026378392
41
1.9685039370
42
1.9685039370
43
1.9685039370
50
302.2251926008
210
-0.7071067812
220
-0.5000000000
230
0.5000000000
1001
DSTP_XDATA
1002
{
1000
_OWNERHANDLE=0012715310
1002
}
0
LWPOLYLINE
5
36E
100
AcDbEntity
8
0
100
AcDbPolyline
90
4
70
1
38
-629.6129568006
10
629.6129568006
20
81.9227930082
40
1.0000000000
41
1.0000000000
10
629.6129568006
20
81.9227930082
40
1.0000000000
41
1.0000000000
10
629.6129568006
20
1081.9227930082
40
1.0000000000
41
1.0000000000
10
629.6129568006
20
1081.9227930082
40
1.0000000000
41
1.0000000000
210
-1.0000000000
220
0.0000000000
230
0.0000000000
1001
DSTP_XDATA
1002
{
1000
_OWNERHANDLE=0000000064
1002
}
0
LWPOLYLINE
5
36F
100
AcDbEntity
8
0
100
AcDbPolyline
90
2
70
0
38
-629.6129568006
10
629.6129568006
20
881.9227930082
40
1.0000000000
41
1.0000000000
10
629.6129568006
20
881.9227930082
40
1.0000000000
41
1.0000000000
210
-1.0000000000
220
0.0000000000
230
0.0000000000
1001
DSTP_XDATA
1002
{
1000
_OWNERHANDLE=0000000064
1002
}
0
LWPOLYLINE
5
370
100
AcDbEntity
8
0
100
AcDbPolyline
90
2
70
0
38
-629.6129568006
10
629.6129568006
20
790.2503012987
40
1.0000000000
41
1.0000000000
10
629.6129568006
20
605.8548376858
40
1.0000000000
41
1.0000000000
210
-1.0000000000
220
0.0000000000
230
0.0000000000
1001
DSTP_XDATA
1002
{
1000
_OWNERHANDLE=0000000064
1002
}
0
LWPOLYLINE
5
371
100
AcDbEntity
8
0
100
AcDbPolyline
90
4
70
1
38
-7.3447486828
10
-222.5190775554
20
81.9227930082
40
1.0000000000
41
1.0000000000
10
-10.3870431994
20
81.9227930082
40
1.0000000000
41
1.0000000000
10
-10.3870431994
20
1081.9227930082
40
1.0000000000
41
1.0000000000
10
-222.5190775554
20
1081.9227930082
40
1.0000000000
41
1.0000000000
210
0.7071067812
220
0.0000000000
230
0.7071067812
1001
DSTP_XDATA
1002
{
1000
_OWNERHANDLE=0000000064
1002
}
0
LWPOLYLINE
5
372
100
AcDbEntity
8
0
100
AcDbPolyline
90
2
70
0
38
-7.3447486828
10
-215.4480097435
20
881.9227930082
40
1.0000000000
41
1.0000000000
10
-17.4581110113
20
881.9227930082
40
1.0000000000
41
1.0000000000
210
0.7071067812
220
0.0000000000
230
0.7071067812
1001
DSTP_XDATA
1002
{
1000
_OWNERHANDLE=0000000064
1002
}
0
LWPOLYLINE
5
373
100
AcDbEntity
8
0
100
AcDbPolyline
90
2
70
0
38
-7.3447486828
10
-215.4480097435
20
790.2503012987
40
1.0000000000
41
1.0000000000
10
-17.4581110113
20
605.8548376858
40
1.0000000000
41
1.0000000000
210
0.7071067812
220
0.0000000000
230
0.7071067812
1001
DSTP_XDATA
1002
{
1000
_OWNERHANDLE=0000000064
1002
}
0
LWPOLYLINE
5
374
100
AcDbEntity
8
0
100
AcDbPolyline
90
24
70
1
38
0.0000000000
10
798.9573607737
20
494.0299519634
40
1.0000000000
41
1.0000000000
10
937.4890230844
20
714.2645706342
40
1.0000000000
41
1.0000000000
10
1050.5458148512
20
714.2645706342
40
1.0000000000
41
1.0000000000
10
1148.2515533883
20
690.5470840404
40
1.0000000000
41
1.0000000000
10
1177.4463542492
20
661.3522831794
40
1.0000000000
41
1.0000000000
10
1177.4463542492
20
617.1269706879
40
1.0000000000
41
1.0000000000
10
1153.9093217198
20
562.6712902421
40
1.0000000000
41
1.0000000000
10
1108.6867664707
20
517.4487349930
40
1.0000000000
41
1.0000000000
10
1038.9166985211
20
517.4487349930
40
1.0000000000
41
1.0000000000
10
1004.5964231851
20
466.8658276946
40
1.0000000000
41
1.0000000000
10
972.0886441960
20
388.2347497703
40
1.0000000000
41
1.0000000000
10
997.4211204349
20
310.4169296928
40
1.0000000000
41
1.0000000000
10
1083.9496306591
20
272.7606173217
40
1.0000000000
41
1.0000000000
10
1177.8286293208
20
352.5799686264
40
1.0000000000
41
1.0000000000
10
1223.3807412494
20
435.4016183141
40
1.0000000000
41
1.0000000000
10
1263.2928666685
20
763.1325674037
40
1.0000000000
41
1.0000000000
10
1219.0550104923
20
970.2804555389
40
1.0000000000
41
1.0000000000
10
1074.4301438513
20
1114.9053221799
40
1.0000000000
41
1.0000000000
10
953.0526953092
20
1114.9053221799
40
1.0000000000
41
1.0000000000
10
859.3416726437
20
980.1006222386
40
1.0000000000
41
1.0000000000
10
804.5075409070
20
767.3676279814
40
1.0000000000
41
1.0000000000
10
736.3090921909
20
596.7514425988
40
1.0000000000
41
1.0000000000
10
757.5819235805
20
414.5429346685
40
1.0000000000
41
1.0000000000
10
781.6380568191
20
513.0177446406
40
1.0000000000
41
1.0000000000
1001
DSTP_XDATA
1002
{
1000
_OWNERHANDLE=0000000064
1002
}
0
LINE
5
375
100
AcDbEntity
8
0
100
AcDbLine
10
790.2977087964
20
503.5238483020
30
0.0000000000
11
811.0714290767
21
612.0813464168
31
0.0000000000
1001
DSTP_XDATA
1002
{
1000
_OWNERHANDLE=0000000064
1002
}
0
LINE
5
376
100
AcDbEntity
8
0
100
AcDbLine
10
790.2977087964
20
503.5238483020
30
0.0000000000
11
833.6843792459
21
603.0880664804
31
0.0000000000
1001
DSTP_XDATA
1002
{
1000
_OWNERHANDLE=0000000064
1002
}
0
LWPOLYLINE
5
377
100
AcDbEntity
8
0
100
AcDbPolyline
90
23
70
1
38
0.0000000000
10
1324.0657498407
20
550.2990547455
40
1.0000000000
41
1.0000000000
10
1324.0657498407
20
460.8548848262
40
1.0000000000
41
1.0000000000
10
1340.9451373969
20
456.0826134819
40
1.0000000000
41
1.0000000000
10
1309.4719285295
20
443.8428364642
40
1.0000000000
41
1.0000000000
10
1325.2085329632
20
432.0028288185
40
1.0000000000
41
1.0000000000
10
1325.2085329632
20
401.7959396348
40
1.0000000000
41
1.0000000000
10
1353.9896258518
20
401.7959396348
40
1.0000000000
41
1.0000000000
10
1363.4747604848
20
430.6772833992
40
1.0000000000
41
1.0000000000
10
1368.2821257910
20
377.1870688678
40
1.0000000000
41
1.0000000000
10
1380.0949769806
20
401.7959396348
40
1.0000000000
41
1.0000000000
10
1400.4909743044
20
401.7959396348
40
1.0000000000
41
1.0000000000
10
1400.4909743044
20
475.5249142280
40
1.0000000000
41
1.0000000000
10
1380.9255702376
20
482.4675832660
40
1.0000000000
41
1.0000000000
10
1417.8681846614
20
492.8055220316
40
1.0000000000
41
1.0000000000
10
1400.4909743044
20
499.8848947542
40
1.0000000000
41
1.0000000000
10
1400.4909743044
20
550.2990547455
40
1.0000000000
41
1.0000000000
10
1376.8847876110
20
550.2990547455
40
1.0000000000
41
1.0000000000
10
1370.4502054418
20
568.1798134454
40
1.0000000000
41
1.0000000000
10
1365.6746256660
20
526.8443223125
40
1.0000000000
41
1.0000000000
10
1358.5246805992
20
550.9817992314
40
1.0000000000
41
1.0000000000
10
1349.2493480200
20
564.6933598313
40
1.0000000000
41
1.0000000000
10
1346.2769016506
20
540.0462130329
40
1.0000000000
41
1.0000000000
10
1333.1521997540
20
550.2990547455
40
1.0000000000
41
1.0000000000
1001
DSTP_XDATA
1002
{
1000
_OWNERHANDLE=0000000064
1002
}
0
INSERT
5
378
100
AcDbEntity
8
0
100
AcDbBlockReference
2
PS_DAT_SMOKE
10
835.9166632600
20
678.6351640035
30
0.0000000000
41
1.0000000000
42
1.0000000000
43
1.0000000000
50
0.0000000000
1001
DSTP_XDATA
1002
{
1000
USES=System
1000
USES=devices
1000
#0=NMO_Name|GDBString|??BTH0.0|–û–±–æ–∑–Ω–∞—á–µ–Ω–∏–µ
1000
#1=NMO_BaseName|GDBString|BTH|–ö–æ—Ä–æ—Ç–∫–æ–µ –ò–º—è
1000
#2=NMO_Prefix|GDBString||–ü—Ä–µ—Ñ–∏–∫—Å
1000
#3=NMO_Suffix|GDBString||–°—É—Ñ—Ñ–∏–∫—Å
1000
#4=NMO_Template|GDBString|@@[GC_HDShortName]@@[NMO_BaseName]@@[GC_HDGroup].@@[GC_NumberInGroup]|–®–∞–±–ª–æ–Ω –û–±–æ–∑–Ω–∞—á–µ–Ω–∏—è
1000
#5=DB_link|GDBString|SmokeDet|–ú–∞—Ç–µ—Ä–∏–∞–ª
1000
#6=DB_MatName|GDBString|Error!!!|–†–∞—Å—à–∏—Ñ—Ä–æ–≤–∫–∞
1000
#7=GC_HeadDevice|GDBString|ARK??|–ì–æ–ª–æ–≤–Ω–æ–≥–µ —É—Å—Ç—Ä–æ–π—Å—Ç–≤–æ
1000
#8=GC_HeadDeviceTemplate|GDBString||–®–∞–±–ª–æ–Ω –≥–æ–ª–æ–≤–Ω–æ–≥–æ —É—Å—Ç—Ä–æ–π—Å—Ç–≤–∞
1000
#9=GC_HDShortName|GDBString|??|–ö–æ—Ä–æ—Ç–∫–æ–µ –∏–º—è –≥–æ–ª–æ–≤–Ω–æ–≥–æ —É—Å—Ç—Ä–æ–π—Å—Ç–≤–∞
1000
#10=GC_HDShortNameTemplate|GDBString||–®–∞–±–ª–æ–Ω –∫–æ—Ä–æ—Ç–∫–æ–≥–æ –∏–º–µ–Ω–∏ –≥–æ–ª–æ–≤–Ω–æ–≥–æ —É—Å—Ç—Ä–æ–π—Å—Ç–≤–∞
1000
#11=GC_HDGroup|GDBString|0|–ì—Ä—É–ø–ø–∞ –≤ –≥–æ–ª–æ–≤–Ω–æ–º —É—Å—Ç—Ä–æ–π—Å—Ç–≤–µ
1000
#12=GC_HDGroupTemplate|GDBString||–®–∞–±–ª–æ–Ω –≥—Ä—É–ø–ø—ã
1000
#13=SerialConnection|GDBInteger|1|
1000
#14=GC_NumberInGroup|GDBInteger|0|–ù–æ–º–µ—Ä —É—Å—Ç—Ä–æ–π—Å—Ç–≤–∞ –≤ –≥—Ä—É–ø–ø–µ
1000
#15=GC_InGroup_Metric|GDBString||–ú–µ—Ç—Ä–∏–∫–∞ –Ω—É–º–µ—Ä–∞—Ü–∏–∏ –≤ –≥—Ä—É–ø–ø–µ
1000
#16=GC_Metric|GDBString||–ú–µ—Ç—Ä–∏–∫–∞ –Ω—É–º–µ—Ä–∞—Ü–∏–∏
1000
#17=Device_Type|TDeviceType|TDT_SensorPS|–¢–∏–ø —É—Å—Ç—Ä–æ–π—Å—Ç–≤–∞
1000
#18=Device_Class|TDeviceClass|TDC_Unknown|–ö–ª–∞—Å—Å —É—Å—Ç—Ä–æ–π—Å—Ç–≤–∞
1000
#19=Device_Group|TDeviceGroup|TDG_ElDevice|–ì—Ä—É–ø–ø–∞ —É—Å—Ç—Ä–æ–π—Å—Ç–≤–∞
1000
#20=BTY_TreeCoord|GDBString|PLAN_OPS_PSSENSORS_HSENSORS_–¢–æ—á–µ—á–Ω—ã–π 1|–ü–æ–∑–∏—Ü–∏—è –≤ –¥–µ—Ä–µ–≤–µ
1000
#21=Device_Type|TDeviceType|TDT_Unknown|–¢–∏–ø —É—Å—Ç—Ä–æ–π—Å—Ç–≤–∞
1000
#22=AmountI|GDBInteger|1|–ö–æ–ª–∏—á–µ—Å—Ç–≤–æ
1000
#23=EL_Cab_AddLength|GDBDouble|0.1|–î–æ–±–∞–≤–ª—è—Ç—å –∫ –¥–ª–∏–Ω–µ –∫–∞–±–µ–ª—è
1000
_OWNERHANDLE=0000000064
1000
_HANDLE=000D920478
1000
_UPGRADE=1
1002
}
0
INSERT
5
379
100
AcDbEntity
8
0
100
AcDbBlockReference
2
CONNECTOR_SQUARE
10
835.9166632600
20
678.6351640035
30
0.0000000000
41
1.0000000000
42
1.0000000000
43
1.0000000000
50
0.0000000000
1001
DSTP_XDATA
1002
{
1000
USES=System
1000
USES=connectors
1000
USES=devices
1000
#0=DeviceClass|TDeviceClass|TDC_Unknown|–ö–ª–∞—Å—Å —É—Å—Ç—Ä–æ–π—Å—Ç–≤–∞
1000
#1=Connector_Type|TConnectorType|TCT_ElCable|–¢–∏–ø —Å–æ–µ–¥–∏–Ω–µ–Ω–∏—è
1000
#2=Border_Type|TConnectorBorderType|TCBT_Owner|–ì—Ä–∞–Ω–∏—Ü–∞ –ø–æ–¥—Ä–µ–∑–∫–∏
1000
#3=Connector_Name|GDBString||–ò–º—è —Å–æ–µ–¥–∏–Ω–µ–Ω–∏—è
1000
#4=Connector_Junction|GDBBoolean|False|–í–æ–∑–º–æ–∂–Ω–æ—Å—Ç—å –æ—Ç–≤–µ—Ç–≤–ª–µ–Ω–∏—è
1000
#5=Cable_AddLength|GDBDouble|0.0|–î–æ–±–∞–≤–∏—Ç—å –∫ –¥–ª–∏–Ω–µ
1000
_OWNERHANDLE=000D920478
1000
_HANDLE=000D9206D8
1000
_UPGRADE=1
1002
}
0
LINE
5
37A
100
AcDbEntity
8
SYS_METRIC
100
AcDbLine
10
834.9166632600
20
678.6351640035
30
0.0000000000
11
836.9166632600
21
678.6351640035
31
0.0000000000
1001
DSTP_XDATA
1002
{
1000
_OWNERHANDLE=000D9206D8
1002
}
0
LINE
5
37B
100
AcDbEntity
8
SYS_METRIC
100
AcDbLine
10
835.9166632600
20
679.6351640035
30
0.0000000000
11
835.9166632600
21
677.6351640035
31
0.0000000000
1001
DSTP_XDATA
1002
{
1000
_OWNERHANDLE=000D9206D8
1002
}
0
LINE
5
37C
100
AcDbEntity
8
SYS_DEVICE_BORDER
100
AcDbLine
10
838.4166632600
20
676.1351640035
30
0.0000000000
11
833.4166632600
21
676.1351640035
31
0.0000000000
1001
DSTP_XDATA
1002
{
1000
_OWNERHANDLE=000D920478
1002
}
0
LINE
5
37D
100
AcDbEntity
8
SYS_DEVICE_BORDER
100
AcDbLine
10
838.4166632600
20
681.1351640035
30
0.0000000000
11
838.4166632600
21
676.1351640035
31
0.0000000000
1001
DSTP_XDATA
1002
{
1000
_OWNERHANDLE=000D920478
1002
}
0
LINE
5
37E
100
AcDbEntity
8
SYS_DEVICE_BORDER
100
AcDbLine
10
833.4166632600
20
681.1351640035
30
0.0000000000
11
838.4166632600
21
681.1351640035
31
0.0000000000
1001
DSTP_XDATA
1002
{
1000
_OWNERHANDLE=000D920478
1002
}
0
LINE
5
37F
100
AcDbEntity
8
SYS_DEVICE_BORDER
100
AcDbLine
10
833.4166632600
20
676.1351640035
30
0.0000000000
11
833.4166632600
21
681.1351640035
31
0.0000000000
1001
DSTP_XDATA
1002
{
1000
_OWNERHANDLE=000D920478
1002
}
0
TEXT
5
380
100
AcDbEntity
8
EL_DEVICE_NAME
100
AcDbText
11
835.9166632600
21
682.1351640035
31
0.0000000000
10
830.5208299267
20
682.1351640035
30
0.0000000000
40
2.5000000000
50
0.0000000000
41
0.7000000000
51
12.0000000000
72
1
7
R2_5
1
??BTH0.0
100
AcDbText
73
0
1001
DSTP_XDATA
1002
{
1000
_TMPL1=@@[NMO_Name]
1000
_OWNERHANDLE=000D920478
1002
}
0
INSERT
5
381
100
AcDbEntity
8
0
370
0
100
AcDbBlockReference
2
FIX
10
835.9166632600
20
674.0546105485
30
0.0000000000
41
1.0000000000
42
1.0000000000
43
1.0000000000
50
0.0000000000
1001
DSTP_XDATA
1002
{
1000
_OWNERHANDLE=000D920478
1002
}
0
INSERT
5
382
100
AcDbEntity
8
0
100
AcDbBlockReference
2
PS_DAT_SMOKE
10
835.9166632600
20
645.7185600592
30
0.0000000000
41
1.0000000000
42
1.0000000000
43
1.0000000000
50
0.0000000000
1001
DSTP_XDATA
1002
{
1000
USES=System
1000
USES=devices
1000
#0=NMO_Name|GDBString|??BTH0.0|–û–±–æ–∑–Ω–∞—á–µ–Ω–∏–µ
1000
#1=NMO_BaseName|GDBString|BTH|–ö–æ—Ä–æ—Ç–∫–æ–µ –ò–º—è
1000
#2=NMO_Prefix|GDBString||–ü—Ä–µ—Ñ–∏–∫—Å
1000
#3=NMO_Suffix|GDBString||–°—É—Ñ—Ñ–∏–∫—Å
1000
#4=NMO_Template|GDBString|@@[GC_HDShortName]@@[NMO_BaseName]@@[GC_HDGroup].@@[GC_NumberInGroup]|–®–∞–±–ª–æ–Ω –û–±–æ–∑–Ω–∞—á–µ–Ω–∏—è
1000
#5=DB_link|GDBString|SmokeDet|–ú–∞—Ç–µ—Ä–∏–∞–ª
1000
#6=DB_MatName|GDBString|Error!!!|–†–∞—Å—à–∏—Ñ—Ä–æ–≤–∫–∞
1000
#7=GC_HeadDevice|GDBString|ARK??|–ì–æ–ª–æ–≤–Ω–æ–≥–µ —É—Å—Ç—Ä–æ–π—Å—Ç–≤–æ
1000
#8=GC_HeadDeviceTemplate|GDBString||–®–∞–±–ª–æ–Ω –≥–æ–ª–æ–≤–Ω–æ–≥–æ —É—Å—Ç—Ä–æ–π—Å—Ç–≤–∞
1000
#9=GC_HDShortName|GDBString|??|–ö–æ—Ä–æ—Ç–∫–æ–µ –∏–º—è –≥–æ–ª–æ–≤–Ω–æ–≥–æ —É—Å—Ç—Ä–æ–π—Å—Ç–≤–∞
1000
#10=GC_HDShortNameTemplate|GDBString||–®–∞–±–ª–æ–Ω –∫–æ—Ä–æ—Ç–∫–æ–≥–æ –∏–º–µ–Ω–∏ –≥–æ–ª–æ–≤–Ω–æ–≥–æ —É—Å—Ç—Ä–æ–π—Å—Ç–≤–∞
1000
#11=GC_HDGroup|GDBString|0|–ì—Ä—É–ø–ø–∞ –≤ –≥–æ–ª–æ–≤–Ω–æ–º —É—Å—Ç—Ä–æ–π—Å—Ç–≤–µ
1000
#12=GC_HDGroupTemplate|GDBString||–®–∞–±–ª–æ–Ω –≥—Ä—É–ø–ø—ã
1000
#13=SerialConnection|GDBInteger|1|
1000
#14=GC_NumberInGroup|GDBInteger|0|–ù–æ–º–µ—Ä —É—Å—Ç—Ä–æ–π—Å—Ç–≤–∞ –≤ –≥—Ä—É–ø–ø–µ
1000
#15=GC_InGroup_Metric|GDBString||–ú–µ—Ç—Ä–∏–∫–∞ –Ω—É–º–µ—Ä–∞—Ü–∏–∏ –≤ –≥—Ä—É–ø–ø–µ
1000
#16=GC_Metric|GDBString||–ú–µ—Ç—Ä–∏–∫–∞ –Ω—É–º–µ—Ä–∞—Ü–∏–∏
1000
#17=Device_Type|TDeviceType|TDT_SensorPS|–¢–∏–ø —É—Å—Ç—Ä–æ–π—Å—Ç–≤–∞
1000
#18=Device_Class|TDeviceClass|TDC_Unknown|–ö–ª–∞—Å—Å —É—Å—Ç—Ä–æ–π—Å—Ç–≤–∞
1000
#19=Device_Group|TDeviceGroup|TDG_ElDevice|–ì—Ä—É–ø–ø–∞ —É—Å—Ç—Ä–æ–π—Å—Ç–≤–∞
1000
#20=BTY_TreeCoord|GDBString|PLAN_OPS_PSSENSORS_HSENSORS_–¢–æ—á–µ—á–Ω—ã–π 1|–ü–æ–∑–∏—Ü–∏—è –≤ –¥–µ—Ä–µ–≤–µ
1000
#21=Device_Type|TDeviceType|TDT_Unknown|–¢–∏–ø —É—Å—Ç—Ä–æ–π—Å—Ç–≤–∞
1000
#22=AmountI|GDBInteger|1|–ö–æ–ª–∏—á–µ—Å—Ç–≤–æ
1000
#23=EL_Cab_AddLength|GDBDouble|0.1|–î–æ–±–∞–≤–ª—è—Ç—å –∫ –¥–ª–∏–Ω–µ –∫–∞–±–µ–ª—è
1000
_OWNERHANDLE=0000000064
1000
_HANDLE=000D920D38
1000
_UPGRADE=1
1002
}
0
INSERT
5
383
100
AcDbEntity
8
0
100
AcDbBlockReference
2
CONNECTOR_SQUARE
10
835.9166632600
20
645.7185600592
30
0.0000000000
41
1.0000000000
42
1.0000000000
43
1.0000000000
50
0.0000000000
1001
DSTP_XDATA
1002
{
1000
USES=System
1000
USES=connectors
1000
USES=devices
1000
#0=DeviceClass|TDeviceClass|TDC_Unknown|–ö–ª–∞—Å—Å —É—Å—Ç—Ä–æ–π—Å—Ç–≤–∞
1000
#1=Connector_Type|TConnectorType|TCT_ElCable|–¢–∏–ø —Å–æ–µ–¥–∏–Ω–µ–Ω–∏—è
1000
#2=Border_Type|TConnectorBorderType|TCBT_Owner|–ì—Ä–∞–Ω–∏—Ü–∞ –ø–æ–¥—Ä–µ–∑–∫–∏
1000
#3=Connector_Name|GDBString||–ò–º—è —Å–æ–µ–¥–∏–Ω–µ–Ω–∏—è
1000
#4=Connector_Junction|GDBBoolean|False|–í–æ–∑–º–æ–∂–Ω–æ—Å—Ç—å –æ—Ç–≤–µ—Ç–≤–ª–µ–Ω–∏—è
1000
#5=Cable_AddLength|GDBDouble|0.0|–î–æ–±–∞–≤–∏—Ç—å –∫ –¥–ª–∏–Ω–µ
1000
_OWNERHANDLE=000D920D38
1000
_HANDLE=000D919728
1000
_UPGRADE=1
1002
}
0
LINE
5
384
100
AcDbEntity
8
SYS_METRIC
100
AcDbLine
10
834.9166632600
20
645.7185600592
30
0.0000000000
11
836.9166632600
21
645.7185600592
31
0.0000000000
1001
DSTP_XDATA
1002
{
1000
_OWNERHANDLE=000D919728
1002
}
0
LINE
5
385
100
AcDbEntity
8
SYS_METRIC
100
AcDbLine
10
835.9166632600
20
646.7185600592
30
0.0000000000
11
835.9166632600
21
644.7185600592
31
0.0000000000
1001
DSTP_XDATA
1002
{
1000
_OWNERHANDLE=000D919728
1002
}
0
LINE
5
386
100
AcDbEntity
8
SYS_DEVICE_BORDER
100
AcDbLine
10
838.4166632600
20
643.2185600592
30
0.0000000000
11
833.4166632600
21
643.2185600592
31
0.0000000000
1001
DSTP_XDATA
1002
{
1000
_OWNERHANDLE=000D920D38
1002
}
0
LINE
5
387
100
AcDbEntity
8
SYS_DEVICE_BORDER
100
AcDbLine
10
838.4166632600
20
648.2185600592
30
0.0000000000
11
838.4166632600
21
643.2185600592
31
0.0000000000
1001
DSTP_XDATA
1002
{
1000
_OWNERHANDLE=000D920D38
1002
}
0
LINE
5
388
100
AcDbEntity
8
SYS_DEVICE_BORDER
100
AcDbLine
10
833.4166632600
20
648.2185600592
30
0.0000000000
11
838.4166632600
21
648.2185600592
31
0.0000000000
1001
DSTP_XDATA
1002
{
1000
_OWNERHANDLE=000D920D38
1002
}
0
LINE
5
389
100
AcDbEntity
8
SYS_DEVICE_BORDER
100
AcDbLine
10
833.4166632600
20
643.2185600592
30
0.0000000000
11
833.4166632600
21
648.2185600592
31
0.0000000000
1001
DSTP_XDATA
1002
{
1000
_OWNERHANDLE=000D920D38
1002
}
0
TEXT
5
38A
100
AcDbEntity
8
EL_DEVICE_NAME
100
AcDbText
11
835.9166632600
21
649.2185600592
31
0.0000000000
10
830.5208299267
20
649.2185600592
30
0.0000000000
40
2.5000000000
50
0.0000000000
41
0.7000000000
51
12.0000000000
72
1
7
R2_5
1
??BTH0.0
100
AcDbText
73
0
1001
DSTP_XDATA
1002
{
1000
_TMPL1=@@[NMO_Name]
1000
_OWNERHANDLE=000D920D38
1002
}
0
ENDSEC
0
SECTION
2
OBJECTS
0
DICTIONARY
5
38B
330
0
100
AcDbDictionary
281
1
3
ACAD_COLOR
350
38C
3
ACAD_GROUP
350
38D
3
ACAD_LAYOUT
350
38E
3
ACAD_MATERIAL
350
38F
3
ACAD_MLINESTYLE
350
390
3
ACAD_PLOTSETTINGS
350
391
3
ACAD_PLOTSTYLENAME
350
392
3
ACAD_TABLESTYLE
350
393
3
ACDBHEADERROUNDTRIPXREC
350
394
3
AcDbVariableDictionary
350
395
3
DWGPROPS
350
396
0
DICTIONARY
5
2BB
330
2BA
100
AcDbDictionary
280
1
281
1
3
ACAD_LAYERFILTERS
360
397
3
ACAD_LAYERSTATES
360
398
3
ACLYDICTIONARY
360
399
0
DICTIONARY
5
38C
102
{ACAD_REACTORS
330
38B
102
}
330
38B
100
AcDbDictionary
281
1
0
DICTIONARY
5
38D
102
{ACAD_REACTORS
330
38B
102
}
330
38B
100
AcDbDictionary
281
1
0
DICTIONARY
5
38E
102
{ACAD_REACTORS
330
38B
102
}
330
38B
100
AcDbDictionary
281
1
3
Layout1
350
2F4
3
Layout2
350
2F6
3
Model
350
2F2
0
DICTIONARY
5
38F
102
{ACAD_REACTORS
330
38B
102
}
330
38B
100
AcDbDictionary
281
1
0
DICTIONARY
5
390
102
{ACAD_REACTORS
330
38B
102
}
330
38B
100
AcDbDictionary
281
1
3
Standard
350
39A
0
DICTIONARY
5
391
102
{ACAD_REACTORS
330
38B
102
}
330
38B
100
AcDbDictionary
281
1
0
ACDBDICTIONARYWDFLT
5
392
102
{ACAD_REACTORS
330
38B
102
}
330
38B
100
AcDbDictionary
281
1
3
Normal
350
2BD
100
AcDbDictionaryWithDefault
340
2BD
0
DICTIONARY
5
393
102
{ACAD_REACTORS
330
38B
102
}
330
38B
100
AcDbDictionary
281
1
3
Standard
350
39B
0
DICTIONARY
5
394
102
{ACAD_REACTORS
330
38B
102
}
330
38B
100
AcDbDictionary
281
1
0
DICTIONARY
5
395
102
{ACAD_REACTORS
330
38B
102
}
330
38B
100
AcDbDictionary
281
1
3
CTABLESTYLE
350
39C
3
DIMASSOC
350
39D
3
HIDETEXT
350
39E
3
PROJECTNAME
350
39F
0
XRECORD
5
396
102
{ACAD_REACTORS
330
38B
102
}
330
38B
100
AcDbXrecord
280
1
1
DWGPROPS COOKIE
2

3

4

6

7

8
Autodesk
9

300
=
301
=
302
=
303
=
304
=
305
=
306
=
307
=
308
=
309
=
40
0.0121102546296296
41
2455008.558453229
42
2455694.624051458
1

90
0
0
DICTIONARY
5
397
102
{ACAD_REACTORS
330
2BB
102
}
330
2BB
100
AcDbDictionary
281
1
0
DICTIONARY
5
398
102
{ACAD_REACTORS
330
2BB
102
}
330
2BB
100
AcDbDictionary
281
1
0
DICTIONARY
5
399
102
{ACAD_REACTORS
330
2BB
102
}
330
2BB
100
AcDbDictionary
281
1
1001
ACAD
1000
<All
0
LAYOUT
5
2F4
102
{ACAD_XDICTIONARY
360
3A0
102
}
102
{ACAD_REACTORS
330
38E
102
}
330
38E
100
AcDbPlotSettings
1

2
C:\Documents and Settings\basas\Application Data\Autodesk\AutoCAD 2005\R16.1\enu\plotters\Default Windows System Printer.pc3
4

6

40
0.0
41
0.0
42
0.0
43
0.0
44
0.0
45
0.0
46
0.0
47
0.0
48
0.0
49
0.0
140
0.0
141
0.0
142
1.0
143
1.0
70
688
72
0
73
0
74
5
7

75
16
147
1.0
148
0.0
149
0.0
100
AcDbLayout
1
Layout1
70
1
71
1
10
0.0
20
0.0
11
12.0
21
9.0
12
0.0
22
0.0
32
0.0
14
0.0
24
0.0
34
0.0
15
0.0
25
0.0
35
0.0
146
0.0
13
0.0
23
0.0
33
0.0
16
1.0
26
0.0
36
0.0
17
0.0
27
1.0
37
0.0
76
0
330
2F3
0
LAYOUT
5
2F6
102
{ACAD_XDICTIONARY
360
3A1
102
}
102
{ACAD_REACTORS
330
38E
102
}
330
38E
100
AcDbPlotSettings
1

2
C:\Documents and Settings\basas\Application Data\Autodesk\AutoCAD 2005\R16.1\enu\plotters\Default Windows System Printer.pc3
4

6

40
0.0
41
0.0
42
0.0
43
0.0
44
0.0
45
0.0
46
0.0
47
0.0
48
0.0
49
0.0
140
0.0
141
0.0
142
1.0
143
1.0
70
688
72
0
73
0
74
5
7

75
16
147
1.0
148
0.0
149
0.0
100
AcDbLayout
1
Layout2
70
1
71
2
10
0.0
20
0.0
11
12.0
21
9.0
12
0.0
22
0.0
32
0.0
14
0.0
24
0.0
34
0.0
15
0.0
25
0.0
35
0.0
146
0.0
13
0.0
23
0.0
33
0.0
16
1.0
26
0.0
36
0.0
17
0.0
27
1.0
37
0.0
76
0
330
2F5
0
LAYOUT
5
2F2
102
{ACAD_XDICTIONARY
360
3A2
102
}
102
{ACAD_REACTORS
330
38E
102
}
330
38E
100
AcDbPlotSettings
1

2
none_device
4
ISO_A4_(210.00_x_297.00_MM)
6

40
7.5
41
20.0
42
7.5
43
20.0
44
210.0
45
297.0
46
11.54999923706054
47
-13.65000009536743
48
0.0
49
0.0
140
0.0
141
0.0
142
1.0
143
8.704084754739808
70
11952
72
1
73
0
74
0
7

75
0
147
0.1148885871608098
148
0.0
149
0.0
100
AcDbLayout
1
Model
70
1
71
0
10
0.0
20
0.0
11
12.0
21
9.0
12
0.0
22
0.0
32
0.0
14
0.0
24
0.0
34
0.0
15
0.0
25
0.0
35
0.0
146
0.0
13
0.0
23
0.0
33
0.0
16
1.0
26
0.0
36
0.0
17
0.0
27
1.0
37
0.0
76
0
330
2F1
1001
ACAD_PSEXT
1000
None
1000
None
1000
Not applicable
1000
The layout will not be plotted unless a new plotter configuration name is selected.
1070
0
0
MLINESTYLE
5
39A
102
{ACAD_REACTORS
330
390
102
}
330
390
100
AcDbMlineStyle
2
STANDARD
70
0
3

62
256
51
90.0
52
90.0
71
2
49
0.5
62
256
6
BYLAYER
49
-0.5
62
256
6
BYLAYER
0
ACDBPLACEHOLDER
5
2BD
102
{ACAD_REACTORS
330
392
102
}
330
392
0
TABLESTYLE
5
39B
102
{ACAD_REACTORS
330
393
102
}
330
393
100
AcDbTableStyle
3
Standard
70
0
71
0
40
1.5
41
1.5
280
0
281
0
7
Standard
140
4.5
170
2
62
0
63
7
283
0
274
-2
284
1
64
0
275
-2
285
1
65
0
276
-2
286
1
66
0
277
-2
287
1
67
0
278
-2
288
1
68
0
279
-2
289
1
69
0
7
Standard
140
6.0
170
5
62
0
63
7
283
0
274
-2
284
1
64
0
275
-2
285
1
65
0
276
-2
286
1
66
0
277
-2
287
1
67
0
278
-2
288
1
68
0
279
-2
289
1
69
0
7
Standard
140
4.5
170
5
62
0
63
7
283
0
274
-2
284
1
64
0
275
-2
285
1
65
0
276
-2
286
1
66
0
277
-2
287
1
67
0
278
-2
288
1
68
0
279
-2
289
1
69
0
0
DICTIONARYVAR
5
39C
102
{ACAD_REACTORS
330
395
102
}
330
395
100
DictionaryVariables
280
0
1
STANDARD
0
DICTIONARYVAR
5
39D
102
{ACAD_REACTORS
330
395
102
}
330
395
100
DictionaryVariables
280
0
1
2
0
DICTIONARYVAR
5
39E
102
{ACAD_REACTORS
330
395
102
}
330
395
100
DictionaryVariables
280
0
1
1
0
DICTIONARYVAR
5
39F
102
{ACAD_REACTORS
330
395
102
}
330
395
100
DictionaryVariables
280
0
1

0
DICTIONARY
5
3A0
330
2F4
100
AcDbDictionary
280
1
281
1
3
ACAD_XREC_ROUNDTRIP
360
3A3
0
DICTIONARY
5
3A1
330
2F6
100
AcDbDictionary
280
1
281
1
3
ACAD_XREC_ROUNDTRIP
360
3A4
0
DICTIONARY
5
3A2
330
2F2
100
AcDbDictionary
280
1
281
1
3
ACAD_XREC_ROUNDTRIP
360
3A5
0
XRECORD
5
3A3
102
{ACAD_REACTORS
330
3A0
102
}
330
3A0
100
AcDbXrecord
280
1
102
SHADEPLOT
70
0
102
SHADEPLOTRESLEVEL
70
2
102
SHADEPLOTCUSTOMDPI
70
300
0
XRECORD
5
3A4
102
{ACAD_REACTORS
330
3A1
102
}
330
3A1
100
AcDbXrecord
280
1
102
SHADEPLOT
70
0
102
SHADEPLOTRESLEVEL
70
2
102
SHADEPLOTCUSTOMDPI
70
300
0
XRECORD
5
3A5
102
{ACAD_REACTORS
330
3A2
102
}
330
3A2
100
AcDbXrecord
280
1
102
SHADEPLOT
70
0
102
SHADEPLOTRESLEVEL
70
2
102
SHADEPLOTCUSTOMDPI
70
300
0
ENDSEC
0
EOF
