0
SECTION
2
HEADER
9
$ACADVER
1
AC1015
9
$ACADMAINTVER
70
20
9
$DWGCODEPAGE
3
ANSI_1251
9
$INSBASE
10
0.0
20
0.0
30
0.0
9
$EXTMIN
10
1.000000000000000E+20
20
1.000000000000000E+20
30
1.000000000000000E+20
9
$EXTMAX
10
-1.000000000000000E+20
20
-1.000000000000000E+20
30
-1.000000000000000E+20
9
$LIMMIN
10
0.0
20
0.0
9
$LIMMAX
10
420.0
20
297.0
9
$ORTHOMODE
70
0
9
$REGENMODE
70
1
9
$FILLMODE
70
1
9
$QTEXTMODE
70
0
9
$MIRRTEXT
70
0
9
$LTSCALE
40
1.0
9
$ATTMODE
70
1
9
$TEXTSIZE
40
2.5
9
$TRACEWID
40
1.0
9
$TEXTSTYLE
7
Standard
9
$CLAYER
8
0
9
$CELTYPE
6
ByLayer
9
$CECOLOR
62
256
9
$CELTSCALE
40
1.0
9
$DISPSILH
70
0
9
$DIMSCALE
40
1.0
9
$DIMASZ
40
0.18
9
$DIMEXO
40
0.0625
9
$DIMDLI
40
0.38
9
$DIMRND
40
0.0
9
$DIMDLE
40
0.0
9
$DIMEXE
40
0.18
9
$DIMTP
40
0.0
9
$DIMTM
40
0.0
9
$DIMTXT
40
0.18
9
$DIMCEN
40
0.09
9
$DIMTSZ
40
0.0
9
$DIMTOL
70
0
9
$DIMLIM
70
0
9
$DIMTIH
70
1
9
$DIMTOH
70
1
9
$DIMSE1
70
0
9
$DIMSE2
70
0
9
$DIMTAD
70
0
9
$DIMZIN
70
0
9
$DIMBLK
1

9
$DIMASO
70
1
9
$DIMSHO
70
1
9
$DIMPOST
1

9
$DIMAPOST
1

9
$DIMALT
70
0
9
$DIMALTD
70
2
9
$DIMALTF
40
25.4
9
$DIMLFAC
40
1.0
9
$DIMTOFL
70
0
9
$DIMTVP
40
0.0
9
$DIMTIX
70
0
9
$DIMSOXD
70
0
9
$DIMSAH
70
0
9
$DIMBLK1
1

9
$DIMBLK2
1

9
$DIMSTYLE
2
Standard
9
$DIMCLRD
70
0
9
$DIMCLRE
70
0
9
$DIMCLRT
70
0
9
$DIMTFAC
40
1.0
9
$DIMGAP
40
0.09
9
$DIMJUST
70
0
9
$DIMSD1
70
0
9
$DIMSD2
70
0
9
$DIMTOLJ
70
1
9
$DIMTZIN
70
0
9
$DIMALTZ
70
0
9
$DIMALTTZ
70
0
9
$DIMUPT
70
0
9
$DIMDEC
70
4
9
$DIMTDEC
70
4
9
$DIMALTU
70
2
9
$DIMALTTD
70
2
9
$DIMTXSTY
7
Standard
9
$DIMAUNIT
70
0
9
$DIMADEC
70
0
9
$DIMALTRND
40
0.0
9
$DIMAZIN
70
0
9
$DIMDSEP
70
46
9
$DIMATFIT
70
3
9
$DIMFRAC
70
0
9
$DIMLDRBLK
1

9
$DIMLUNIT
70
2
9
$DIMLWD
70
-2
9
$DIMLWE
70
-2
9
$DIMTMOVE
70
0
9
$LUNITS
70
2
9
$LUPREC
70
4
9
$SKETCHINC
40
1.0
9
$FILLETRAD
40
0.0
9
$AUNITS
70
0
9
$AUPREC
70
0
9
$MENU
1
.
9
$ELEVATION
40
0.0
9
$PELEVATION
40
0.0
9
$THICKNESS
40
0.0
9
$LIMCHECK
70
0
9
$CHAMFERA
40
0.0
9
$CHAMFERB
40
0.0
9
$CHAMFERC
40
0.0
9
$CHAMFERD
40
0.0
9
$SKPOLY
70
0
9
$TDCREATE
40
2455008.558453229
9
$TDUCREATE
40
2455008.308453229
9
$TDUPDATE
40
2455694.624051458
9
$TDUUPDATE
40
2455694.374051458
9
$TDINDWG
40
0.0121107986
9
$TDUSRTIMER
40
0.0121104398
9
$USRTIMER
70
1
9
$ANGBASE
50
0.0
9
$ANGDIR
70
0
9
$PDMODE
70
0
9
$PDSIZE
40
0.0
9
$PLINEWID
40
0.0
9
$SPLFRAME
70
0
9
$SPLINETYPE
70
6
9
$SPLINESEGS
70
8
9
$HANDSEED
5
1000004FC
9
$SURFTAB1
70
6
9
$SURFTAB2
70
6
9
$SURFTYPE
70
6
9
$SURFU
70
6
9
$SURFV
70
6
9
$UCSBASE
2

9
$UCSNAME
2

9
$UCSORG
10
0.0
20
0.0
30
0.0
9
$UCSXDIR
10
1.0
20
0.0
30
0.0
9
$UCSYDIR
10
0.0
20
1.0
30
0.0
9
$UCSORTHOREF
2

9
$UCSORTHOVIEW
70
0
9
$UCSORGTOP
10
0.0
20
0.0
30
0.0
9
$UCSORGBOTTOM
10
0.0
20
0.0
30
0.0
9
$UCSORGLEFT
10
0.0
20
0.0
30
0.0
9
$UCSORGRIGHT
10
0.0
20
0.0
30
0.0
9
$UCSORGFRONT
10
0.0
20
0.0
30
0.0
9
$UCSORGBACK
10
0.0
20
0.0
30
0.0
9
$PUCSBASE
2

9
$PUCSNAME
2

9
$PUCSORG
10
0.0
20
0.0
30
0.0
9
$PUCSXDIR
10
1.0
20
0.0
30
0.0
9
$PUCSYDIR
10
0.0
20
1.0
30
0.0
9
$PUCSORTHOREF
2

9
$PUCSORTHOVIEW
70
0
9
$PUCSORGTOP
10
0.0
20
0.0
30
0.0
9
$PUCSORGBOTTOM
10
0.0
20
0.0
30
0.0
9
$PUCSORGLEFT
10
0.0
20
0.0
30
0.0
9
$PUCSORGRIGHT
10
0.0
20
0.0
30
0.0
9
$PUCSORGFRONT
10
0.0
20
0.0
30
0.0
9
$PUCSORGBACK
10
0.0
20
0.0
30
0.0
9
$USERI1
70
0
9
$USERI2
70
0
9
$USERI3
70
0
9
$USERI4
70
0
9
$USERI5
70
0
9
$USERR1
40
0.0
9
$USERR2
40
0.0
9
$USERR3
40
0.0
9
$USERR4
40
0.0
9
$USERR5
40
0.0
9
$WORLDVIEW
70
1
9
$SHADEDGE
70
3
9
$SHADEDIF
70
70
9
$TILEMODE
70
1
9
$MAXACTVP
70
64
9
$PINSBASE
10
0.0
20
0.0
30
0.0
9
$PLIMCHECK
70
0
9
$PEXTMIN
10
0.0
20
0.0
30
0.0
9
$PEXTMAX
10
0.0
20
0.0
30
0.0
9
$PLIMMIN
10
0.0
20
0.0
9
$PLIMMAX
10
12.0
20
9.0
9
$UNITMODE
70
0
9
$VISRETAIN
70
1
9
$PLINEGEN
70
0
9
$PSLTSCALE
70
1
9
$TREEDEPTH
70
3020
9
$CMLSTYLE
2
Standard
9
$CMLJUST
70
0
9
$CMLSCALE
40
20.0
9
$PROXYGRAPHICS
70
1
9
$MEASUREMENT
70
1
9
$CELWEIGHT
370
-1
9
$ENDCAPS
280
0
9
$JOINSTYLE
280
0
9
$LWDISPLAY
290
1
9
$INSUNITS
70
0
9
$HYPERLINKBASE
1

9
$STYLESHEET
1

9
$XEDIT
290
1
9
$CEPSNTYPE
380
0
9
$PSTYLEMODE
290
1
9
$FINGERPRINTGUID
2
{83B934B2-5622-42D0-9691-648EBDBEDF3A}
9
$VERSIONGUID
2
{687BA470-A50B-4F07-854F-729D023A6E33}
9
$EXTNAMES
290
1
9
$PSVPSCALE
40
0.0
9
$OLESTARTUP
290
0
0
ENDSEC
0
SECTION
2
CLASSES
0
CLASS
1
ACDBDICTIONARYWDFLT
2
AcDbDictionaryWithDefault
3
ObjectDBX Classes
90
0
280
0
281
0
0
CLASS
1
ACDBPLACEHOLDER
2
AcDbPlaceHolder
3
ObjectDBX Classes
90
0
280
0
281
0
0
CLASS
1
LAYOUT
2
AcDbLayout
3
ObjectDBX Classes
90
0
280
0
281
0
0
CLASS
1
DICTIONARYVAR
2
AcDbDictionaryVar
3
ObjectDBX Classes
90
0
280
0
281
0
0
CLASS
1
TABLESTYLE
2
AcDbTableStyle
3
ObjectDBX Classes
90
2047
280
0
281
0
0
ENDSEC
0
SECTION
2
TABLES
0
TABLE
2
VPORT
5
2B6
330
0
100
AcDbSymbolTable
70
1
0
VPORT
5
2B7
330
2B6
100
AcDbSymbolTableRecord
100
AcDbViewportTableRecord
2
*Active
70
0
10
0.0
20
0.0
11
1.0
21
1.0
12
-39.8665080498029
22
-8.03435964165001
13
0
23
0
14
10
24
10
15
10
25
10
16
0
26
0
36
1
17
0
27
0
37
0
40
160.247662220059
41
1.38179148311307
42
50.0
43
0.0
44
0.0
50
0.0
51
0.0
71
0
72
1000
73
1
74
3
75
0
76
1
77
0
78
0
281
0
65
1
110
0.0
120
0.0
130
0.0
111
1.0
121
0.0
131
0.0
112
0.0
122
1.0
132
0.0
79
0
146
0.0
0
ENDTAB
0
TABLE
2
LTYPE
5
2B8
330
0
100
AcDbSymbolTable
70
1
0
LTYPE
5
2B9
330
2B8
100
AcDbSymbolTableRecord
100
AcDbLinetypeTableRecord
2
ByBlock
70
0
3

72
65
73
0
40
0.0
0
LTYPE
5
2BA
330
2B8
100
AcDbSymbolTableRecord
100
AcDbLinetypeTableRecord
2
ByLayer
70
0
3

72
65
73
0
40
0.0
0
LTYPE
5
2BB
330
2B8
100
AcDbSymbolTableRecord
100
AcDbLinetypeTableRecord
2
Continuous
70
0
3
Solid line
72
65
73
0
40
0.0
0
ENDTAB
0
TABLE
2
LAYER
5
2BC
102
{ACAD_XDICTIONARY
360
2BD
102
}
330
0
100
AcDbSymbolTable
70
1
0
LAYER
5
2C0
100
AcDbSymbolTableRecord
100
AcDbLayerTableRecord
2
0
70
0
62
7
6
Continuous
290
1
370
-3
390
2BF
0
LAYER
5
2C1
100
AcDbSymbolTableRecord
100
AcDbLayerTableRecord
2
SYS_METRIC
70
0
62
-7
6
Continuous
290
1
370
-3
390
2BF
0
LAYER
5
2C2
100
AcDbSymbolTableRecord
100
AcDbLayerTableRecord
2
EL_DEVICE
70
0
62
1
6
Continuous
290
1
370
40
390
2BF
0
LAYER
5
2C3
100
AcDbSymbolTableRecord
100
AcDbLayerTableRecord
2
TEXT
70
0
62
4
6
Continuous
290
1
370
-3
390
2BF
0
LAYER
5
2C4
100
AcDbSymbolTableRecord
100
AcDbLayerTableRecord
2
SYS_DEVICE_BORDER
70
0
62
-7
6
Continuous
290
1
370
-3
390
2BF
0
LAYER
5
2C5
100
AcDbSymbolTableRecord
100
AcDbLayerTableRecord
2
SYS_PIN
70
0
62
7
6
Continuous
290
1
370
-3
390
2BF
0
LAYER
5
2C6
100
AcDbSymbolTableRecord
100
AcDbLayerTableRecord
2
EL_DEVICE_NAME
70
0
62
7
6
Continuous
290
1
370
-3
390
2BF
0
LAYER
5
2C7
100
AcDbSymbolTableRecord
100
AcDbLayerTableRecord
2
FORMAT
70
0
62
134
6
Continuous
290
1
370
-3
390
2BF
0
LAYER
5
2C8
100
AcDbSymbolTableRecord
100
AcDbLayerTableRecord
2
TABLE
70
0
62
7
6
Continuous
290
1
370
50
390
2BF
0
ENDTAB
0
TABLE
2
STYLE
5
2C9
330
0
100
AcDbSymbolTable
70
2
0
STYLE
5
2CA
100
AcDbSymbolTableRecord
100
AcDbTextStyleTableRecord
2
Standard
70
0
40
0
41
1
50
0
71
0
42
2.5
3
txt
4

0
STYLE
5
2CB
100
AcDbSymbolTableRecord
100
AcDbTextStyleTableRecord
2
R2_5
70
0
40
2.5
41
0.65
50
12
71
0
42
2.5
3
romant.shx
4

0
ENDTAB
0
TABLE
2
VIEW
5
2CC
330
0
100
AcDbSymbolTable
70
0
0
ENDTAB
0
TABLE
2
UCS
5
2CD
330
0
100
AcDbSymbolTable
70
0
0
ENDTAB
0
TABLE
2
APPID
5
2CE
330
0
100
AcDbSymbolTable
70
11
0
APPID
5
2CF
330
2CE
100
AcDbSymbolTableRecord
100
AcDbRegAppTableRecord
2
ACAD
70
0
0
APPID
5
2D0
330
2CE
100
AcDbSymbolTableRecord
100
AcDbRegAppTableRecord
2
ACAD_PSEXT
70
0
0
APPID
5
2D1
330
2CE
100
AcDbSymbolTableRecord
100
AcDbRegAppTableRecord
2
ACAD_EXEMPT_FROM_CAD_STANDARDS
70
0
0
APPID
5
2D2
330
2CE
100
AcDbSymbolTableRecord
100
AcDbRegAppTableRecord
2
DSTP_XDATA
70
0
0
APPID
5
2D3
330
2CE
100
AcDbSymbolTableRecord
100
AcDbRegAppTableRecord
2
AcAecLayerStandard
70
0
0
APPID
5
2D4
330
2CE
100
AcDbSymbolTableRecord
100
AcDbRegAppTableRecord
2
ACAD_DSTYLE_DIMTEXT_FILL
70
0
0
APPID
5
2D5
330
2CE
100
AcDbSymbolTableRecord
100
AcDbRegAppTableRecord
2
ACAD_DSTYLE_DIMEXT_LENGTH
70
0
0
APPID
5
2D6
330
2CE
100
AcDbSymbolTableRecord
100
AcDbRegAppTableRecord
2
ACAD_DSTYLE_DIMEXT_ENABLED
70
0
0
APPID
5
2D7
330
2CE
100
AcDbSymbolTableRecord
100
AcDbRegAppTableRecord
2
ACAD_DSTYLE_DIM_LINETYPE
70
0
0
APPID
5
2D8
330
2CE
100
AcDbSymbolTableRecord
100
AcDbRegAppTableRecord
2
ACAD_DSTYLE_DIM_EXT1_LINETYPE
70
0
0
APPID
5
2D9
330
2CE
100
AcDbSymbolTableRecord
100
AcDbRegAppTableRecord
2
ACAD_DSTYLE_DIM_EXT2_LINETYPE
70
0
0
ENDTAB
0
TABLE
2
DIMSTYLE
5
2DA
330
0
100
AcDbSymbolTable
70
2
100
AcDbDimStyleTable
71
1
340
2DB
0
DIMSTYLE
105
2DB
330
2DA
100
AcDbSymbolTableRecord
100
AcDbDimStyleTableRecord
2
Standard
70
0
340
2CA
0
ENDTAB
0
TABLE
2
BLOCK_RECORD
5
2DC
330
0
100
AcDbSymbolTable
70
1
0
BLOCK_RECORD
5
2DD
330
2DC
100
AcDbSymbolTableRecord
100
AcDbBlockTableRecord
2
*Model_Space
340
2DE
0
BLOCK_RECORD
5
2DF
330
2DC
100
AcDbSymbolTableRecord
100
AcDbBlockTableRecord
2
*Paper_Space
340
2E0
0
BLOCK_RECORD
5
2E1
330
2DC
100
AcDbSymbolTableRecord
100
AcDbBlockTableRecord
2
*Paper_Space0
340
2E2
0
BLOCK_RECORD
5
2E3
100
AcDbSymbolTableRecord
100
AcDbBlockTableRecord
2
CONNECTOR_SQUARE
0
BLOCK_RECORD
5
2E4
100
AcDbSymbolTableRecord
100
AcDbBlockTableRecord
2
EL_MOTOR
0
BLOCK_RECORD
5
2E5
100
AcDbSymbolTableRecord
100
AcDbBlockTableRecord
2
EL_POSITION
0
BLOCK_RECORD
5
2E6
100
AcDbSymbolTableRecord
100
AcDbBlockTableRecord
2
EL_SR
0
BLOCK_RECORD
5
2E7
100
AcDbSymbolTableRecord
100
AcDbBlockTableRecord
2
KIP_KNOPKA
0
BLOCK_RECORD
5
2E8
100
AcDbSymbolTableRecord
100
AcDbBlockTableRecord
2
KIP_UKP
0
BLOCK_RECORD
5
2E9
100
AcDbSymbolTableRecord
100
AcDbBlockTableRecord
2
EL_CONTACTOR
0
BLOCK_RECORD
5
2EA
100
AcDbSymbolTableRecord
100
AcDbBlockTableRecord
2
DEVICE_EL_MOTOR
0
BLOCK_RECORD
5
2EB
100
AcDbSymbolTableRecord
100
AcDbBlockTableRecord
2
DEVICE_CONNECTOR_SQUARE
0
BLOCK_RECORD
5
2EC
100
AcDbSymbolTableRecord
100
AcDbBlockTableRecord
2
DEVICE_EL_POSITION
0
BLOCK_RECORD
5
2ED
100
AcDbSymbolTableRecord
100
AcDbBlockTableRecord
2
DEVICE_EL_CONTACTOR
0
BLOCK_RECORD
5
2EE
100
AcDbSymbolTableRecord
100
AcDbBlockTableRecord
2
DEVICE_EL_SR
0
BLOCK_RECORD
5
2EF
100
AcDbSymbolTableRecord
100
AcDbBlockTableRecord
2
EL_LIGHT_FBULB
0
BLOCK_RECORD
5
2F0
100
AcDbSymbolTableRecord
100
AcDbBlockTableRecord
2
DEVICE_EL_LIGHT_FBULB
0
BLOCK_RECORD
5
2F1
100
AcDbSymbolTableRecord
100
AcDbBlockTableRecord
2
EL_LIGHT_LBULB
0
BLOCK_RECORD
5
2F2
100
AcDbSymbolTableRecord
100
AcDbBlockTableRecord
2
DEVICE_EL_LIGHT_LBULB
0
BLOCK_RECORD
5
2F3
100
AcDbSymbolTableRecord
100
AcDbBlockTableRecord
2
DEVICE_KIP_KNOPKA
0
BLOCK_RECORD
5
2F4
100
AcDbSymbolTableRecord
100
AcDbBlockTableRecord
2
EM_PSRS_HEAD
0
ENDTAB
0
ENDSEC
0
SECTION
2
BLOCKS
0
BLOCK
5
2F5
330
2DD
100
AcDbEntity
8
0
100
AcDbBlockBegin
2
*Model_Space
70
0
10
0.0
20
0.0
30
0.0
3
*Model_Space
1

0
ENDBLK
5
2F6
330
2DD
100
AcDbEntity
8
0
100
AcDbBlockEnd
0
BLOCK
5
2F7
330
2DF
100
AcDbEntity
67
1
8
0
100
AcDbBlockBegin
2
*Paper_Space
70
0
10
0.0
20
0.0
30
0.0
3
*Paper_Space
1

0
ENDBLK
5
2F8
330
2DF
100
AcDbEntity
67
1
8
0
100
AcDbBlockEnd
0
BLOCK
5
2F9
330
2E1
100
AcDbEntity
67
1
8
0
100
AcDbBlockBegin
2
*Paper_Space0
70
0
10
0.0
20
0.0
30
0.0
3
*Paper_Space0
1

0
ENDBLK
5
2FA
330
2E1
100
AcDbEntity
67
1
8
0
100
AcDbBlockEnd
0
BLOCK
5
2FB
100
AcDbEntity
8
0
100
AcDbBlockBegin
2
CONNECTOR_SQUARE
70
2
10
0
20
0
30
0
3
CONNECTOR_SQUARE
1

0
LINE
5
2FC
100
AcDbEntity
8
SYS_PIN
100
AcDbLine
10
-0.3535533906
20
0.3535533906
30
0.0000000000
11
0.3535533906
21
-0.3535533906
31
0.0000000000
1001
DSTP_XDATA
1002
{
1000
_OWNERHANDLE=0000000064
1002
}
0
LINE
5
2FD
100
AcDbEntity
8
SYS_PIN
100
AcDbLine
10
0.3535533906
20
0.3535533906
30
0.0000000000
11
-0.3535533906
21
-0.3535533906
31
0.0000000000
1001
DSTP_XDATA
1002
{
1000
_OWNERHANDLE=0000000064
1002
}
0
ENDBLK
5
2FE
100
AcDbEntity
8
0
100
AcDbBlockEnd
0
BLOCK
5
2FF
100
AcDbEntity
8
0
100
AcDbBlockBegin
2
EL_MOTOR
70
2
10
0
20
0
30
0
3
EL_MOTOR
1

0
LINE
5
300
100
AcDbEntity
8
EL_DEVICE
100
AcDbLine
10
7.5000000000
20
-2.5000000000
30
0.0000000000
11
-2.5000000000
21
-2.5000000000
31
0.0000000000
1001
DSTP_XDATA
1002
{
1000
_OWNERHANDLE=0000000064
1002
}
0
LINE
5
301
100
AcDbEntity
8
EL_DEVICE
100
AcDbLine
10
7.5000000000
20
2.5000000000
30
0.0000000000
11
7.5000000000
21
-2.5000000000
31
0.0000000000
1001
DSTP_XDATA
1002
{
1000
_OWNERHANDLE=0000000064
1002
}
0
LINE
5
302
100
AcDbEntity
8
EL_DEVICE
100
AcDbLine
10
-2.5000000000
20
2.5000000000
30
0.0000000000
11
7.5000000000
21
2.5000000000
31
0.0000000000
1001
DSTP_XDATA
1002
{
1000
_OWNERHANDLE=0000000064
1002
}
0
LINE
5
303
100
AcDbEntity
8
EL_DEVICE
100
AcDbLine
10
-2.5000000000
20
-2.5000000000
30
0.0000000000
11
-2.5000000000
21
2.5000000000
31
0.0000000000
1001
DSTP_XDATA
1002
{
1000
_OWNERHANDLE=0000000064
1002
}
0
CIRCLE
5
304
100
AcDbEntity
8
EL_DEVICE
100
AcDbCircle
10
0.0000000000
20
0.0000000000
30
0.0000000000
40
1.5000000000
1001
DSTP_XDATA
1002
{
1000
_OWNERHANDLE=0000000064
1002
}
0
ENDBLK
5
305
100
AcDbEntity
8
0
100
AcDbBlockEnd
0
BLOCK
5
306
100
AcDbEntity
8
0
100
AcDbBlockBegin
2
EL_POSITION
70
2
10
0
20
0
30
0
3
EL_POSITION
1

0
LINE
5
307
100
AcDbEntity
8
TEXT
100
AcDbLine
10
-3.0000000000
20
0.0000000000
30
0.0000000000
11
3.0000000000
21
0.0000000000
31
0.0000000000
1001
DSTP_XDATA
1002
{
1000
_OWNERHANDLE=0000000064
1002
}
0
ENDBLK
5
308
100
AcDbEntity
8
0
100
AcDbBlockEnd
0
BLOCK
5
309
100
AcDbEntity
8
0
100
AcDbBlockBegin
2
EL_SR
70
2
10
0
20
0
30
0
3
EL_SR
1

0
LINE
5
30A
100
AcDbEntity
8
EL_DEVICE
100
AcDbLine
10
2.5000000000
20
-2.5000000000
30
0.0000000000
11
-2.5000000000
21
-2.5000000000
31
0.0000000000
1001
DSTP_XDATA
1002
{
1000
_OWNERHANDLE=0000000064
1002
}
0
LINE
5
30B
100
AcDbEntity
8
EL_DEVICE
100
AcDbLine
10
2.5000000000
20
2.5000000000
30
0.0000000000
11
2.5000000000
21
-2.5000000000
31
0.0000000000
1001
DSTP_XDATA
1002
{
1000
_OWNERHANDLE=0000000064
1002
}
0
LINE
5
30C
100
AcDbEntity
8
EL_DEVICE
100
AcDbLine
10
-2.5000000000
20
2.5000000000
30
0.0000000000
11
2.5000000000
21
2.5000000000
31
0.0000000000
1001
DSTP_XDATA
1002
{
1000
_OWNERHANDLE=0000000064
1002
}
0
LINE
5
30D
100
AcDbEntity
8
EL_DEVICE
100
AcDbLine
10
-2.5000000000
20
-2.5000000000
30
0.0000000000
11
-2.5000000000
21
2.5000000000
31
0.0000000000
1001
DSTP_XDATA
1002
{
1000
_OWNERHANDLE=0000000064
1002
}
0
LINE
5
30E
100
AcDbEntity
8
EL_DEVICE
100
AcDbLine
10
2.5000000000
20
-1.5000000000
30
0.0000000000
11
-2.5000000000
21
-1.5000000000
31
0.0000000000
1001
DSTP_XDATA
1002
{
1000
_OWNERHANDLE=0000000064
1002
}
0
ENDBLK
5
30F
100
AcDbEntity
8
0
100
AcDbBlockEnd
0
BLOCK
5
310
100
AcDbEntity
8
0
100
AcDbBlockBegin
2
KIP_KNOPKA
70
2
10
0
20
0
30
0
3
KIP_KNOPKA
1

0
LINE
5
311
100
AcDbEntity
8
EL_DEVICE
100
AcDbLine
10
1.2500000000
20
1.2500000000
30
0.0000000000
11
1.2500000000
21
-1.2500000000
31
0.0000000000
1001
DSTP_XDATA
1002
{
1000
_OWNERHANDLE=0000000064
1002
}
0
LINE
5
312
100
AcDbEntity
8
EL_DEVICE
100
AcDbLine
10
-1.2500000000
20
-1.2500000000
30
0.0000000000
11
1.2500000000
21
-1.2500000000
31
0.0000000000
1001
DSTP_XDATA
1002
{
1000
_OWNERHANDLE=0000000064
1002
}
0
LINE
5
313
100
AcDbEntity
8
EL_DEVICE
100
AcDbLine
10
1.2500000000
20
1.2500000000
30
0.0000000000
11
-1.2500000000
21
1.2500000000
31
0.0000000000
1001
DSTP_XDATA
1002
{
1000
_OWNERHANDLE=0000000064
1002
}
0
LINE
5
314
100
AcDbEntity
8
EL_DEVICE
100
AcDbLine
10
-1.2500000000
20
-1.2500000000
30
0.0000000000
11
-1.2500000000
21
1.2500000000
31
0.0000000000
1001
DSTP_XDATA
1002
{
1000
_OWNERHANDLE=0000000064
1002
}
0
CIRCLE
5
315
100
AcDbEntity
8
EL_DEVICE
100
AcDbCircle
10
0.0000000000
20
0.0000000000
30
0.0000000000
40
1.0000000000
1001
DSTP_XDATA
1002
{
1000
_OWNERHANDLE=0000000064
1002
}
0
ENDBLK
5
316
100
AcDbEntity
8
0
100
AcDbBlockEnd
0
BLOCK
5
317
100
AcDbEntity
8
0
100
AcDbBlockBegin
2
KIP_UKP
70
2
10
0
20
0
30
0
3
KIP_UKP
1

0
CIRCLE
5
318
100
AcDbEntity
8
EL_DEVICE
100
AcDbCircle
10
0.0000000000
20
0.0000000000
30
0.0000000000
40
1.0000000000
1001
DSTP_XDATA
1002
{
1000
_OWNERHANDLE=0000000064
1002
}
0
ENDBLK
5
319
100
AcDbEntity
8
0
100
AcDbBlockEnd
0
BLOCK
5
31A
100
AcDbEntity
8
0
100
AcDbBlockBegin
2
EL_CONTACTOR
70
2
10
0
20
0
30
0
3
EL_CONTACTOR
1

0
LINE
5
31B
100
AcDbEntity
8
EL_DEVICE
100
AcDbLine
10
2.5000000000
20
-2.5000000000
30
0.0000000000
11
-2.5000000000
21
-2.5000000000
31
0.0000000000
1001
DSTP_XDATA
1002
{
1000
_OWNERHANDLE=0000000064
1002
}
0
LINE
5
31C
100
AcDbEntity
8
EL_DEVICE
100
AcDbLine
10
2.5000000000
20
2.5000000000
30
0.0000000000
11
2.5000000000
21
-2.5000000000
31
0.0000000000
1001
DSTP_XDATA
1002
{
1000
_OWNERHANDLE=0000000064
1002
}
0
LINE
5
31D
100
AcDbEntity
8
EL_DEVICE
100
AcDbLine
10
-2.5000000000
20
2.5000000000
30
0.0000000000
11
2.5000000000
21
2.5000000000
31
0.0000000000
1001
DSTP_XDATA
1002
{
1000
_OWNERHANDLE=0000000064
1002
}
0
LINE
5
31E
100
AcDbEntity
8
EL_DEVICE
100
AcDbLine
10
-2.5000000000
20
-2.5000000000
30
0.0000000000
11
-2.5000000000
21
2.5000000000
31
0.0000000000
1001
DSTP_XDATA
1002
{
1000
_OWNERHANDLE=0000000064
1002
}
0
LINE
5
31F
100
AcDbEntity
8
EL_DEVICE
100
AcDbLine
10
2.5000000000
20
-2.5000000000
30
0.0000000000
11
-2.5000000000
21
2.5000000000
31
0.0000000000
1001
DSTP_XDATA
1002
{
1000
_OWNERHANDLE=0000000064
1002
}
0
ENDBLK
5
320
100
AcDbEntity
8
0
100
AcDbBlockEnd
0
BLOCK
5
321
100
AcDbEntity
8
0
100
AcDbBlockBegin
2
DEVICE_EL_MOTOR
70
2
10
0
20
0
30
0
3
DEVICE_EL_MOTOR
1

0
INSERT
5
322
100
AcDbEntity
8
0
100
AcDbBlockReference
2
CONNECTOR_SQUARE
10
0.0000000000
20
0.0000000000
30
0.0000000000
41
1.0000000000
42
1.0000000000
43
1.0000000000
50
0.0000000000
1001
DSTP_XDATA
1002
{
1000
_OWNERHANDLE=0000000064
1000
_HANDLE=00003617D8
1000
_UPGRADE=1
1002
}
0
LINE
5
323
100
AcDbEntity
8
SYS_DEVICE_BORDER
100
AcDbLine
10
7.5000000000
20
-2.5000000000
30
0.0000000000
11
-2.5000000000
21
-2.5000000000
31
0.0000000000
1001
DSTP_XDATA
1002
{
1000
_OWNERHANDLE=0000000064
1002
}
0
LINE
5
324
100
AcDbEntity
8
SYS_DEVICE_BORDER
100
AcDbLine
10
7.5000000000
20
2.5000000000
30
0.0000000000
11
7.5000000000
21
-2.5000000000
31
0.0000000000
1001
DSTP_XDATA
1002
{
1000
_OWNERHANDLE=0000000064
1002
}
0
LINE
5
325
100
AcDbEntity
8
SYS_DEVICE_BORDER
100
AcDbLine
10
-2.5000000000
20
2.5000000000
30
0.0000000000
11
7.5000000000
21
2.5000000000
31
0.0000000000
1001
DSTP_XDATA
1002
{
1000
_OWNERHANDLE=0000000064
1002
}
0
LINE
5
326
100
AcDbEntity
8
SYS_DEVICE_BORDER
100
AcDbLine
10
-2.5000000000
20
-2.5000000000
30
0.0000000000
11
-2.5000000000
21
2.5000000000
31
0.0000000000
1001
DSTP_XDATA
1002
{
1000
_OWNERHANDLE=0000000064
1002
}
0
TEXT
5
327
100
AcDbEntity
8
EL_DEVICE_NAME
100
AcDbText
11
2.5000000000
21
3.5000000000
31
0.0000000000
10
-10.9583341827
20
3.5000000000
30
0.0000000000
40
2.5000000000
50
0.0000000000
41
0.7000000000
51
12.0000000000
72
1
7
R2_5
1
!!ERR(NMO_Name)!!
100
AcDbText
73
0
1001
DSTP_XDATA
1002
{
1000
_TMPL1=@@[NMO_Name]
1000
_OWNERHANDLE=0000000064
1002
}
0
INSERT
5
328
100
AcDbEntity
8
0
100
AcDbBlockReference
2
EL_POSITION
10
11.5000000000
20
0.0000000000
30
0.0000000000
41
1.0000000000
42
1.0000000000
43
1.0000000000
50
0.0000000000
1001
DSTP_XDATA
1002
{
1000
_OWNERHANDLE=0000000064
1000
_HANDLE=000D604A00
1000
_UPGRADE=1
1002
}
0
ENDBLK
5
329
100
AcDbEntity
8
0
100
AcDbBlockEnd
0
BLOCK
5
32A
100
AcDbEntity
8
0
100
AcDbBlockBegin
2
DEVICE_CONNECTOR_SQUARE
70
2
10
0
20
0
30
0
3
DEVICE_CONNECTOR_SQUARE
1

0
LINE
5
32B
100
AcDbEntity
8
SYS_METRIC
100
AcDbLine
10
-1.0000000000
20
0.0000000000
30
0.0000000000
11
1.0000000000
21
0.0000000000
31
0.0000000000
1001
DSTP_XDATA
1002
{
1000
_OWNERHANDLE=0000000064
1002
}
0
LINE
5
32C
100
AcDbEntity
8
SYS_METRIC
100
AcDbLine
10
0.0000000000
20
1.0000000000
30
0.0000000000
11
0.0000000000
21
-1.0000000000
31
0.0000000000
1001
DSTP_XDATA
1002
{
1000
_OWNERHANDLE=0000000064
1002
}
0
ENDBLK
5
32D
100
AcDbEntity
8
0
100
AcDbBlockEnd
0
BLOCK
5
32E
100
AcDbEntity
8
0
100
AcDbBlockBegin
2
DEVICE_EL_POSITION
70
2
10
0
20
0
30
0
3
DEVICE_EL_POSITION
1

0
TEXT
5
32F
100
AcDbEntity
8
TEXT
100
AcDbText
11
0.0000000000
21
0.5000000000
31
0.0000000000
10
-11.2916669150
20
0.5000000000
30
0.0000000000
40
2.5000000000
50
0.0000000000
41
0.7000000000
51
12.0000000000
72
1
7
R2_5
1
!!ERR(Position)!!
100
AcDbText
73
0
1001
DSTP_XDATA
1002
{
1000
_TMPL1=@@[Position]
1000
_OWNERHANDLE=0000000064
1002
}
0
TEXT
5
330
100
AcDbEntity
8
TEXT
100
AcDbText
11
0.0000000000
21
-0.5000000000
31
0.0000000000
10
-9.6666668554
20
-3.0000000000
30
0.0000000000
40
2.5000000000
50
0.0000000000
41
0.7000000000
51
12.0000000000
72
1
7
R2_5
1
!!ERR(Power)!!
100
AcDbText
73
3
1001
DSTP_XDATA
1002
{
1000
_TMPL1=@@[Power]
1000
_OWNERHANDLE=0000000064
1002
}
0
ENDBLK
5
331
100
AcDbEntity
8
0
100
AcDbBlockEnd
0
BLOCK
5
332
100
AcDbEntity
8
0
100
AcDbBlockBegin
2
DEVICE_EL_CONTACTOR
70
2
10
0
20
0
30
0
3
DEVICE_EL_CONTACTOR
1

0
INSERT
5
333
100
AcDbEntity
8
0
100
AcDbBlockReference
2
CONNECTOR_SQUARE
10
0.0000000000
20
0.0000000000
30
0.0000000000
41
1.0000000000
42
1.0000000000
43
1.0000000000
50
0.0000000000
1001
DSTP_XDATA
1002
{
1000
_OWNERHANDLE=0000000064
1000
_HANDLE=000D6361B0
1000
_UPGRADE=1
1002
}
0
LINE
5
334
100
AcDbEntity
8
SYS_DEVICE_BORDER
100
AcDbLine
10
2.5000000000
20
-2.5000000000
30
0.0000000000
11
-2.5000000000
21
-2.5000000000
31
0.0000000000
1001
DSTP_XDATA
1002
{
1000
_OWNERHANDLE=0000000064
1002
}
0
LINE
5
335
100
AcDbEntity
8
SYS_DEVICE_BORDER
100
AcDbLine
10
2.5000000000
20
2.5000000000
30
0.0000000000
11
2.5000000000
21
-2.5000000000
31
0.0000000000
1001
DSTP_XDATA
1002
{
1000
_OWNERHANDLE=0000000064
1002
}
0
LINE
5
336
100
AcDbEntity
8
SYS_DEVICE_BORDER
100
AcDbLine
10
-2.5000000000
20
2.5000000000
30
0.0000000000
11
2.5000000000
21
2.5000000000
31
0.0000000000
1001
DSTP_XDATA
1002
{
1000
_OWNERHANDLE=0000000064
1002
}
0
LINE
5
337
100
AcDbEntity
8
SYS_DEVICE_BORDER
100
AcDbLine
10
-2.5000000000
20
-2.5000000000
30
0.0000000000
11
-2.5000000000
21
2.5000000000
31
0.0000000000
1001
DSTP_XDATA
1002
{
1000
_OWNERHANDLE=0000000064
1002
}
0
TEXT
5
338
100
AcDbEntity
8
EL_DEVICE_NAME
100
AcDbText
11
0.0000000000
21
3.5000000000
31
0.0000000000
10
-13.4583341827
20
3.5000000000
30
0.0000000000
40
2.5000000000
50
0.0000000000
41
0.7000000000
51
12.0000000000
72
1
7
R2_5
1
!!ERR(NMO_Name)!!
100
AcDbText
73
0
1001
DSTP_XDATA
1002
{
1000
_TMPL1=@@[NMO_Name]
1000
_OWNERHANDLE=0000000064
1002
}
0
ENDBLK
5
339
100
AcDbEntity
8
0
100
AcDbBlockEnd
0
BLOCK
5
33A
100
AcDbEntity
8
0
100
AcDbBlockBegin
2
DEVICE_EL_SR
70
2
10
0
20
0
30
0
3
DEVICE_EL_SR
1

0
INSERT
5
33B
100
AcDbEntity
8
0
100
AcDbBlockReference
2
CONNECTOR_SQUARE
10
0.0000000000
20
0.0000000000
30
0.0000000000
41
1.0000000000
42
1.0000000000
43
1.0000000000
50
0.0000000000
1001
DSTP_XDATA
1002
{
1000
_OWNERHANDLE=0000000064
1000
_HANDLE=000D6364C0
1000
_UPGRADE=1
1002
}
0
LINE
5
33C
100
AcDbEntity
8
SYS_DEVICE_BORDER
100
AcDbLine
10
2.5000000000
20
-2.5000000000
30
0.0000000000
11
-2.5000000000
21
-2.5000000000
31
0.0000000000
1001
DSTP_XDATA
1002
{
1000
_OWNERHANDLE=0000000064
1002
}
0
LINE
5
33D
100
AcDbEntity
8
SYS_DEVICE_BORDER
100
AcDbLine
10
2.5000000000
20
2.5000000000
30
0.0000000000
11
2.5000000000
21
-2.5000000000
31
0.0000000000
1001
DSTP_XDATA
1002
{
1000
_OWNERHANDLE=0000000064
1002
}
0
LINE
5
33E
100
AcDbEntity
8
SYS_DEVICE_BORDER
100
AcDbLine
10
-2.5000000000
20
2.5000000000
30
0.0000000000
11
2.5000000000
21
2.5000000000
31
0.0000000000
1001
DSTP_XDATA
1002
{
1000
_OWNERHANDLE=0000000064
1002
}
0
LINE
5
33F
100
AcDbEntity
8
SYS_DEVICE_BORDER
100
AcDbLine
10
-2.5000000000
20
-2.5000000000
30
0.0000000000
11
-2.5000000000
21
2.5000000000
31
0.0000000000
1001
DSTP_XDATA
1002
{
1000
_OWNERHANDLE=0000000064
1002
}
0
TEXT
5
340
100
AcDbEntity
8
EL_DEVICE_NAME
100
AcDbText
11
0.0000000000
21
3.5000000000
31
0.0000000000
10
-13.4583341827
20
3.5000000000
30
0.0000000000
40
2.5000000000
50
0.0000000000
41
0.7000000000
51
12.0000000000
72
1
7
R2_5
1
!!ERR(NMO_Name)!!
100
AcDbText
73
0
1001
DSTP_XDATA
1002
{
1000
_TMPL1=@@[NMO_Name]
1000
_OWNERHANDLE=0000000064
1002
}
0
ENDBLK
5
341
100
AcDbEntity
8
0
100
AcDbBlockEnd
0
BLOCK
5
342
100
AcDbEntity
8
0
100
AcDbBlockBegin
2
EL_LIGHT_FBULB
70
2
10
0
20
0
30
0
3
EL_LIGHT_FBULB
1

0
CIRCLE
5
343
100
AcDbEntity
8
EL_DEVICE
100
AcDbCircle
10
0.0000000000
20
0.0000000000
30
0.0000000000
40
2.5000000000
1001
DSTP_XDATA
1002
{
1000
_OWNERHANDLE=0000000064
1002
}
0
ENDBLK
5
344
100
AcDbEntity
8
0
100
AcDbBlockEnd
0
BLOCK
5
345
100
AcDbEntity
8
0
100
AcDbBlockBegin
2
DEVICE_EL_LIGHT_FBULB
70
2
10
0
20
0
30
0
3
DEVICE_EL_LIGHT_FBULB
1

0
INSERT
5
346
100
AcDbEntity
8
0
100
AcDbBlockReference
2
CONNECTOR_SQUARE
10
0.0000000000
20
0.0000000000
30
0.0000000000
41
1.0000000000
42
1.0000000000
43
1.0000000000
50
0.0000000000
1001
DSTP_XDATA
1002
{
1000
_OWNERHANDLE=0000000064
1000
_HANDLE=000BA3B0A0
1000
_UPGRADE=1
1002
}
0
CIRCLE
5
347
100
AcDbEntity
8
SYS_DEVICE_BORDER
100
AcDbCircle
10
0.0000000000
20
0.0000000000
30
0.0000000000
40
2.5000000000
1001
DSTP_XDATA
1002
{
1000
_OWNERHANDLE=0000000064
1002
}
0
ENDBLK
5
348
100
AcDbEntity
8
0
100
AcDbBlockEnd
0
BLOCK
5
349
100
AcDbEntity
8
0
100
AcDbBlockBegin
2
EL_LIGHT_LBULB
70
2
10
0
20
0
30
0
3
EL_LIGHT_LBULB
1

0
LINE
5
34A
100
AcDbEntity
8
EL_DEVICE
100
AcDbLine
10
1.2500000000
20
5.0000000000
30
0.0000000000
11
1.2500000000
21
-5.0000000000
31
0.0000000000
1001
DSTP_XDATA
1002
{
1000
_OWNERHANDLE=0000000064
1002
}
0
LINE
5
34B
100
AcDbEntity
8
EL_DEVICE
100
AcDbLine
10
1.2500000000
20
-5.0000000000
30
0.0000000000
11
-1.2500000000
21
-5.0000000000
31
0.0000000000
1001
DSTP_XDATA
1002
{
1000
_OWNERHANDLE=0000000064
1002
}
0
LINE
5
34C
100
AcDbEntity
8
EL_DEVICE
100
AcDbLine
10
-1.2500000000
20
5.0000000000
30
0.0000000000
11
-1.2500000000
21
-5.0000000000
31
0.0000000000
1001
DSTP_XDATA
1002
{
1000
_OWNERHANDLE=0000000064
1002
}
0
LINE
5
34D
100
AcDbEntity
8
EL_DEVICE
100
AcDbLine
10
1.2500000000
20
5.0000000000
30
0.0000000000
11
-1.2500000000
21
5.0000000000
31
0.0000000000
1001
DSTP_XDATA
1002
{
1000
_OWNERHANDLE=0000000064
1002
}
0
ENDBLK
5
34E
100
AcDbEntity
8
0
100
AcDbBlockEnd
0
BLOCK
5
34F
100
AcDbEntity
8
0
100
AcDbBlockBegin
2
DEVICE_EL_LIGHT_LBULB
70
2
10
0
20
0
30
0
3
DEVICE_EL_LIGHT_LBULB
1

0
INSERT
5
350
100
AcDbEntity
8
0
100
AcDbBlockReference
2
CONNECTOR_SQUARE
10
0.0000000000
20
0.0000000000
30
0.0000000000
41
1.0000000000
42
1.0000000000
43
1.0000000000
50
0.0000000000
1001
DSTP_XDATA
1002
{
1000
_OWNERHANDLE=0000000064
1000
_HANDLE=00120E51E0
1000
_UPGRADE=1
1002
}
0
LINE
5
351
100
AcDbEntity
8
SYS_DEVICE_BORDER
100
AcDbLine
10
1.2500000000
20
5.0000000000
30
0.0000000000
11
1.2500000000
21
-5.0000000000
31
0.0000000000
1001
DSTP_XDATA
1002
{
1000
_OWNERHANDLE=0000000064
1002
}
0
LINE
5
352
100
AcDbEntity
8
SYS_DEVICE_BORDER
100
AcDbLine
10
1.2500000000
20
-5.0000000000
30
0.0000000000
11
-1.2500000000
21
-5.0000000000
31
0.0000000000
1001
DSTP_XDATA
1002
{
1000
_OWNERHANDLE=0000000064
1002
}
0
LINE
5
353
100
AcDbEntity
8
SYS_DEVICE_BORDER
100
AcDbLine
10
-1.2500000000
20
5.0000000000
30
0.0000000000
11
-1.2500000000
21
-5.0000000000
31
0.0000000000
1001
DSTP_XDATA
1002
{
1000
_OWNERHANDLE=0000000064
1002
}
0
LINE
5
354
100
AcDbEntity
8
SYS_DEVICE_BORDER
100
AcDbLine
10
1.2500000000
20
5.0000000000
30
0.0000000000
11
-1.2500000000
21
5.0000000000
31
0.0000000000
1001
DSTP_XDATA
1002
{
1000
_OWNERHANDLE=0000000064
1002
}
0
ENDBLK
5
355
100
AcDbEntity
8
0
100
AcDbBlockEnd
0
BLOCK
5
356
100
AcDbEntity
8
0
100
AcDbBlockBegin
2
DEVICE_KIP_KNOPKA
70
2
10
0
20
0
30
0
3
DEVICE_KIP_KNOPKA
1

0
INSERT
5
357
100
AcDbEntity
8
0
100
AcDbBlockReference
2
CONNECTOR_SQUARE
10
0.0000000000
20
0.0000000000
30
0.0000000000
41
1.0000000000
42
1.0000000000
43
1.0000000000
50
0.0000000000
1001
DSTP_XDATA
1002
{
1000
_OWNERHANDLE=0000000064
1000
_HANDLE=00120E8030
1000
_UPGRADE=1
1002
}
0
LINE
5
358
100
AcDbEntity
8
SYS_DEVICE_BORDER
100
AcDbLine
10
-1.2500000000
20
-1.2500000000
30
0.0000000000
11
-1.2500000000
21
1.2500000000
31
0.0000000000
1001
DSTP_XDATA
1002
{
1000
_OWNERHANDLE=0000000064
1002
}
0
LINE
5
359
100
AcDbEntity
8
SYS_DEVICE_BORDER
100
AcDbLine
10
1.2500000000
20
-1.2500000000
30
0.0000000000
11
1.2500000000
21
1.2500000000
31
0.0000000000
1001
DSTP_XDATA
1002
{
1000
_OWNERHANDLE=0000000064
1002
}
0
LINE
5
35A
100
AcDbEntity
8
SYS_DEVICE_BORDER
100
AcDbLine
10
-1.2500000000
20
1.2500000000
30
0.0000000000
11
1.2500000000
21
1.2500000000
31
0.0000000000
1001
DSTP_XDATA
1002
{
1000
_OWNERHANDLE=0000000064
1002
}
0
LINE
5
35B
100
AcDbEntity
8
SYS_DEVICE_BORDER
100
AcDbLine
10
-1.2500000000
20
-1.2500000000
30
0.0000000000
11
1.2500000000
21
-1.2500000000
31
0.0000000000
1001
DSTP_XDATA
1002
{
1000
_OWNERHANDLE=0000000064
1002
}
0
TEXT
5
35C
100
AcDbEntity
8
SYS_METRIC
100
AcDbText
11
0.0000000000
21
2.2500000000
31
0.0000000000
10
-13.4583341827
20
2.2500000000
30
0.0000000000
40
2.5000000000
50
0.0000000000
41
0.7000000000
51
12.0000000000
72
1
7
R2_5
1
!!ERR(NMO_Name)!!
100
AcDbText
73
0
1001
DSTP_XDATA
1002
{
1000
_TMPL1=@@[NMO_Name]
1000
_OWNERHANDLE=0000000064
1002
}
0
ENDBLK
5
35D
100
AcDbEntity
8
0
100
AcDbBlockEnd
0
BLOCK
5
35E
100
AcDbEntity
8
0
100
AcDbBlockBegin
2
EM_PSRS_HEAD
70
2
10
0
20
0
30
0
3
EM_PSRS_HEAD
1

0
MTEXT
5
35F
100
AcDbEntity
8
FORMAT
100
AcDbMText
10
-35.0000000000
20
75.0000000000
30
0.0000000000
40
3.0000000000
41
68.0000000000
71
5
1
Данные питающей сети
7
R2_5
11
1.0000000000
21
0.0000000000
31
0.0000000000
44
1.0000000000
1001
DSTP_XDATA
1002
{
1000
_OWNERHANDLE=0000000064
1002
}
0
LINE
5
360
100
AcDbEntity
8
TABLE
100
AcDbLine
10
-70.0000000000
20
80.0000000000
30
0.0000000000
11
-70.0000000000
21
-205.0000000000
31
0.0000000000
1001
DSTP_XDATA
1002
{
1000
_OWNERHANDLE=0000000064
1002
}
0
LINE
5
361
100
AcDbEntity
8
TABLE
100
AcDbLine
10
0.0000000000
20
80.0000000000
30
0.0000000000
11
0.0000000000
21
-207.0000000000
31
0.0000000000
1001
DSTP_XDATA
1002
{
1000
_OWNERHANDLE=0000000064
1002
}
0
LINE
5
362
100
AcDbEntity
8
TABLE
100
AcDbLine
10
-70.0000000000
20
80.0000000000
30
0.0000000000
11
0.0000000000
21
80.0000000000
31
0.0000000000
1001
DSTP_XDATA
1002
{
1000
_OWNERHANDLE=0000000064
1002
}
0
LINE
5
363
100
AcDbEntity
8
TABLE
100
AcDbLine
10
-70.0000000000
20
0.0000000000
30
0.0000000000
11
0.0000000000
21
0.0000000000
31
0.0000000000
1001
DSTP_XDATA
1002
{
1000
_OWNERHANDLE=0000000064
1002
}
0
LINE
5
364
100
AcDbEntity
8
TABLE
100
AcDbLine
10
-70.0000000000
20
70.0000000000
30
0.0000000000
11
0.0000000000
21
70.0000000000
31
0.0000000000
1001
DSTP_XDATA
1002
{
1000
_OWNERHANDLE=0000000064
1002
}
0
LINE
5
365
100
AcDbEntity
8
TABLE
100
AcDbLine
10
-54.0000000000
20
48.0000000000
30
0.0000000000
11
0.0000000000
21
48.0000000000
31
0.0000000000
1001
DSTP_XDATA
1002
{
1000
_OWNERHANDLE=0000000064
1002
}
0
LINE
5
366
100
AcDbEntity
8
TABLE
100
AcDbLine
10
-70.0000000000
20
26.0000000000
30
0.0000000000
11
0.0000000000
21
26.0000000000
31
0.0000000000
1001
DSTP_XDATA
1002
{
1000
_OWNERHANDLE=0000000064
1002
}
0
LINE
5
367
100
AcDbEntity
8
TABLE
100
AcDbLine
10
-54.0000000000
20
70.0000000000
30
0.0000000000
11
-54.0000000000
21
0.0000000000
31
0.0000000000
1001
DSTP_XDATA
1002
{
1000
_OWNERHANDLE=0000000064
1002
}
0
MTEXT
5
368
100
AcDbEntity
8
FORMAT
100
AcDbMText
10
-27.0000000000
20
59.0000000000
30
0.0000000000
40
3.0000000000
41
52.0000000000
71
5
1
Аппарат на вводе\Pтип,\PIном. А\PРасцепитель, А
7
R2_5
11
1.0000000000
21
0.0000000000
31
0.0000000000
44
1.0000000000
1001
DSTP_XDATA
1002
{
1000
_OWNERHANDLE=0000000064
1002
}
0
MTEXT
5
369
100
AcDbEntity
8
FORMAT
100
AcDbMText
10
-27.0000000000
20
37.0000000000
30
0.0000000000
40
3.0000000000
41
52.0000000000
71
5
1
Обозначение, тип\PНапряжение,\PР уст. кВт\PI расч. А
7
R2_5
11
1.0000000000
21
0.0000000000
31
0.0000000000
44
1.0000000000
1001
DSTP_XDATA
1002
{
1000
_OWNERHANDLE=0000000064
1002
}
0
MTEXT
5
36A
100
AcDbEntity
8
FORMAT
100
AcDbMText
10
-27.0000000000
20
13.0000000000
30
0.0000000000
40
3.0000000000
41
52.0000000000
71
5
1
Тип,\PI ном. А\Pрасцепитель или\Pплавкая вставка, А
7
R2_5
11
1.0000000000
21
0.0000000000
31
0.0000000000
44
1.0000000000
1001
DSTP_XDATA
1002
{
1000
_OWNERHANDLE=0000000064
1002
}
0
MTEXT
5
36B
100
AcDbEntity
8
FORMAT
100
AcDbMText
10
-62.0000000000
20
48.0000000000
30
0.0000000000
40
3.0000000000
41
42.0000000000
71
5
1
Шинопровод распределительный пункт
7
R2_5
11
0.0000000000
21
1.0000000000
31
0.0000000000
44
1.0000000000
1001
DSTP_XDATA
1002
{
1000
_OWNERHANDLE=0000000064
1002
}
0
MTEXT
5
36C
100
AcDbEntity
8
FORMAT
100
AcDbMText
10
-62.0000000000
20
13.0000000000
30
0.0000000000
40
3.0000000000
41
24.0000000000
71
5
1
Аппарат отходящей линии
7
R2_5
11
0.0000000000
21
1.0000000000
31
0.0000000000
44
1.0000000000
1001
DSTP_XDATA
1002
{
1000
_OWNERHANDLE=0000000064
1002
}
0
LINE
5
36D
100
AcDbEntity
8
TABLE
100
AcDbLine
10
-70.0000000000
20
-40.0000000000
30
0.0000000000
11
0.0000000000
21
-40.0000000000
31
0.0000000000
1001
DSTP_XDATA
1002
{
1000
_OWNERHANDLE=0000000064
1002
}
0
LINE
5
36E
100
AcDbEntity
8
TABLE
100
AcDbLine
10
-70.0000000000
20
-75.0000000000
30
0.0000000000
11
0.0000000000
21
-75.0000000000
31
0.0000000000
1001
DSTP_XDATA
1002
{
1000
_OWNERHANDLE=0000000064
1002
}
0
LINE
5
36F
100
AcDbEntity
8
TABLE
100
AcDbLine
10
-50.0000000000
20
0.0000000000
30
0.0000000000
11
-50.0000000000
21
-40.0000000000
31
0.0000000000
1001
DSTP_XDATA
1002
{
1000
_OWNERHANDLE=0000000064
1002
}
0
MTEXT
5
370
100
AcDbEntity
8
FORMAT
100
AcDbMText
10
-60.0000000000
20
-20.0000000000
30
0.0000000000
40
3.0000000000
41
38.0000000000
71
5
1
Марка и сечение\Pпроводника
7
R2_5
11
0.0000000000
21
1.0000000000
31
0.0000000000
44
1.0000000000
1001
DSTP_XDATA
1002
{
1000
_OWNERHANDLE=0000000064
1002
}
0
MTEXT
5
371
100
AcDbEntity
8
FORMAT
100
AcDbMText
10
-25.0000000000
20
-20.0000000000
30
0.0000000000
40
3.0000000000
41
38.0000000000
71
5
1
Обозначение\Pучастка сети,\Pдлина, м\PОбозначение\Pтрубы на плане\Pпо стандарту,\Pдлина, м
7
R2_5
11
0.0000000000
21
1.0000000000
31
0.0000000000
44
1.0000000000
1001
DSTP_XDATA
1002
{
1000
_OWNERHANDLE=0000000064
1002
}
0
LINE
5
372
100
AcDbEntity
8
TABLE
100
AcDbLine
10
-54.0000000000
20
-40.0000000000
30
0.0000000000
11
-54.0000000000
21
-75.0000000000
31
0.0000000000
1001
DSTP_XDATA
1002
{
1000
_OWNERHANDLE=0000000064
1002
}
0
MTEXT
5
373
100
AcDbEntity
8
FORMAT
100
AcDbMText
10
-27.0000000000
20
-57.5000000000
30
0.0000000000
40
3.0000000000
41
52.0000000000
71
5
1
Обозначение,\PТип, I ном. А\PРасцепитель,\Pустановка теплового\Pреле, А
7
R2_5
11
1.0000000000
21
0.0000000000
31
0.0000000000
44
1.0000000000
1001
DSTP_XDATA
1002
{
1000
_OWNERHANDLE=0000000064
1002
}
0
MTEXT
5
374
100
AcDbEntity
8
FORMAT
100
AcDbMText
10
-62.0000000000
20
-57.5000000000
30
0.0000000000
40
3.0000000000
41
24.0000000000
71
5
1
Пусковой аппарат
7
R2_5
11
0.0000000000
21
1.0000000000
31
0.0000000000
44
1.0000000000
1001
DSTP_XDATA
1002
{
1000
_OWNERHANDLE=0000000064
1002
}
0
LINE
5
375
100
AcDbEntity
8
TABLE
100
AcDbLine
10
-70.0000000000
20
-115.0000000000
30
0.0000000000
11
0.0000000000
21
-115.0000000000
31
0.0000000000
1001
DSTP_XDATA
1002
{
1000
_OWNERHANDLE=0000000064
1002
}
0
LINE
5
376
100
AcDbEntity
8
TABLE
100
AcDbLine
10
-50.0000000000
20
-75.0000000000
30
0.0000000000
11
-50.0000000000
21
-115.0000000000
31
0.0000000000
1001
DSTP_XDATA
1002
{
1000
_OWNERHANDLE=0000000064
1002
}
0
MTEXT
5
377
100
AcDbEntity
8
FORMAT
100
AcDbMText
10
-60.0000000000
20
-95.0000000000
30
0.0000000000
40
3.0000000000
41
38.0000000000
71
5
1
Марка и сечение\Pпроводника
7
R2_5
11
0.0000000000
21
1.0000000000
31
0.0000000000
44
1.0000000000
1001
DSTP_XDATA
1002
{
1000
_OWNERHANDLE=0000000064
1002
}
0
MTEXT
5
378
100
AcDbEntity
8
FORMAT
100
AcDbMText
10
-25.0000000000
20
-95.0000000000
30
0.0000000000
40
3.0000000000
41
38.0000000000
71
5
1
Обозначение\Pучастка сети,\Pдлина, м\PОбозначение\Pтрубы на плане\Pпо стандарту,\Pдлина, м
7
R2_5
11
0.0000000000
21
1.0000000000
31
0.0000000000
44
1.0000000000
1001
DSTP_XDATA
1002
{
1000
_OWNERHANDLE=0000000064
1002
}
0
LINE
5
379
100
AcDbEntity
8
TABLE
100
AcDbLine
10
-62.0000000000
20
-128.0000000000
30
0.0000000000
11
0.0000000000
21
-128.0000000000
31
0.0000000000
1001
DSTP_XDATA
1002
{
1000
_OWNERHANDLE=0000000064
1002
}
0
MTEXT
5
37A
100
AcDbEntity
8
FORMAT
100
AcDbMText
10
-31.0000000000
20
-121.5000000000
30
0.0000000000
40
3.0000000000
41
60.0000000000
71
5
1
Условное обозначение
7
R2_5
11
1.0000000000
21
0.0000000000
31
0.0000000000
44
1.0000000000
1001
DSTP_XDATA
1002
{
1000
_OWNERHANDLE=0000000064
1002
}
0
LINE
5
37B
100
AcDbEntity
8
TABLE
100
AcDbLine
10
-62.0000000000
20
-115.0000000000
30
0.0000000000
11
-62.0000000000
21
-194.0000000000
31
0.0000000000
1001
DSTP_XDATA
1002
{
1000
_OWNERHANDLE=0000000064
1002
}
0
LINE
5
37C
100
AcDbEntity
8
TABLE
100
AcDbLine
10
-62.0000000000
20
-136.0000000000
30
0.0000000000
11
0.0000000000
21
-136.0000000000
31
0.0000000000
1001
DSTP_XDATA
1002
{
1000
_OWNERHANDLE=0000000064
1002
}
0
LINE
5
37D
100
AcDbEntity
8
TABLE
100
AcDbLine
10
-62.0000000000
20
-145.9676919101
30
0.0000000000
11
0.0000000000
21
-145.9676919101
31
0.0000000000
1001
DSTP_XDATA
1002
{
1000
_OWNERHANDLE=0000000064
1002
}
0
LINE
5
37E
100
AcDbEntity
8
TABLE
100
AcDbLine
10
-42.0000000000
20
-150.9676919101
30
0.0000000000
11
0.0000000000
21
-150.9676919101
31
0.0000000000
1001
DSTP_XDATA
1002
{
1000
_OWNERHANDLE=0000000064
1002
}
0
LINE
5
37F
100
AcDbEntity
8
TABLE
100
AcDbLine
10
-62.0000000000
20
-155.9676919101
30
0.0000000000
11
0.0000000000
21
-155.9676919101
31
0.0000000000
1001
DSTP_XDATA
1002
{
1000
_OWNERHANDLE=0000000064
1002
}
0
LINE
5
380
100
AcDbEntity
8
TABLE
100
AcDbLine
10
-42.0000000000
20
-145.9676919101
30
0.0000000000
11
-42.0000000000
21
-155.9676919101
31
0.0000000000
1001
DSTP_XDATA
1002
{
1000
_OWNERHANDLE=0000000064
1002
}
0
LINE
5
381
100
AcDbEntity
8
TABLE
100
AcDbLine
10
-70.0000000000
20
-194.0000000000
30
0.0000000000
11
0.0000000000
21
-194.0000000000
31
0.0000000000
1001
DSTP_XDATA
1002
{
1000
_OWNERHANDLE=0000000064
1002
}
0
MTEXT
5
382
100
AcDbEntity
8
FORMAT
100
AcDbMText
10
-66.0000000000
20
-154.5000000000
30
0.0000000000
40
3.0000000000
41
77.0000000000
71
5
1
Электроприемник
7
R2_5
11
0.0000000000
21
1.0000000000
31
0.0000000000
44
1.0000000000
1001
DSTP_XDATA
1002
{
1000
_OWNERHANDLE=0000000064
1002
}
0
MTEXT
5
383
100
AcDbEntity
8
FORMAT
100
AcDbMText
10
-31.0000000000
20
-132.0000000000
30
0.0000000000
40
3.0000000000
41
60.0000000000
71
5
1
Номер по плану
7
R2_5
11
1.0000000000
21
0.0000000000
31
0.0000000000
44
1.0000000000
1001
DSTP_XDATA
1002
{
1000
_OWNERHANDLE=0000000064
1002
}
0
MTEXT
5
384
100
AcDbEntity
8
FORMAT
100
AcDbMText
10
-35.0000000000
20
-200.5000000000
30
0.0000000000
40
3.0000000000
41
68.0000000000
71
5
1
Обозначение чертежа\Pпринципиальной схемы
7
R2_5
11
1.0000000000
21
0.0000000000
31
0.0000000000
44
1.0000000000
1001
DSTP_XDATA
1002
{
1000
_OWNERHANDLE=0000000064
1002
}
0
MTEXT
5
385
100
AcDbEntity
8
FORMAT
100
AcDbMText
10
-31.0000000000
20
-174.9838459550
30
0.0000000000
40
3.0000000000
41
60.0000000000
71
5
1
Наименование\Pмеханизма
7
R2_5
11
1.0000000000
21
0.0000000000
31
0.0000000000
44
1.0000000000
1001
DSTP_XDATA
1002
{
1000
_OWNERHANDLE=0000000064
1002
}
0
MTEXT
5
386
100
AcDbEntity
8
FORMAT
100
AcDbMText
10
-21.1739107797
20
-153.4676919101
30
0.0000000000
40
3.0000000000
41
40.0000000000
71
5
1
I пуск.
7
R2_5
11
1.0000000000
21
0.0000000000
31
0.0000000000
44
1.0000000000
1001
DSTP_XDATA
1002
{
1000
_OWNERHANDLE=0000000064
1002
}
0
MTEXT
5
387
100
AcDbEntity
8
FORMAT
100
AcDbMText
10
-21.0000000000
20
-148.4676919101
30
0.0000000000
40
3.0000000000
41
40.0000000000
71
5
1
I ном.
7
R2_5
11
1.0000000000
21
0.0000000000
31
0.0000000000
44
1.0000000000
1001
DSTP_XDATA
1002
{
1000
_OWNERHANDLE=0000000064
1002
}
0
MTEXT
5
388
100
AcDbEntity
8
FORMAT
100
AcDbMText
10
-30.0785732747
20
-143.4256913931
30
0.0000000000
40
3.0000000000
41
60.0000000000
71
5
1
Р ном. кВт
7
R2_5
11
1.0000000000
21
0.0000000000
31
0.0000000000
44
1.0000000000
1001
DSTP_XDATA
1002
{
1000
_OWNERHANDLE=0000000064
1002
}
0
MTEXT
5
389
100
AcDbEntity
8
FORMAT
100
AcDbMText
10
-51.7996898423
20
-150.9676919101
30
0.0000000000
40
3.0000000000
41
17.5993796847
71
5
1
Ток, А
7
R2_5
11
1.0000000000
21
0.0000000000
31
0.0000000000
44
1.0000000000
1001
DSTP_XDATA
1002
{
1000
_OWNERHANDLE=0000000064
1002
}
0
LINE
5
38A
100
AcDbEntity
8
TABLE
100
AcDbLine
10
-62.0000000000
20
-141.0000000000
30
0.0000000000
11
0.0000000000
21
-141.0000000000
31
0.0000000000
1001
DSTP_XDATA
1002
{
1000
_OWNERHANDLE=0000000064
1002
}
0
MTEXT
5
38B
100
AcDbEntity
8
FORMAT
100
AcDbMText
10
-30.0785732747
20
-138.4579994831
30
0.0000000000
40
3.0000000000
41
60.0000000000
71
5
1
Тип
7
R2_5
11
1.0000000000
21
0.0000000000
31
0.0000000000
44
1.0000000000
1001
DSTP_XDATA
1002
{
1000
_OWNERHANDLE=0000000064
1002
}
0
LINE
5
38C
100
AcDbEntity
8
TABLE
100
AcDbLine
10
-70.0000000000
20
-207.0000000000
30
0.0000000000
11
0.0000000000
21
-207.0000000000
31
0.0000000000
1001
DSTP_XDATA
1002
{
1000
_OWNERHANDLE=0000000064
1002
}
0
ENDBLK
5
38D
100
AcDbEntity
8
0
100
AcDbBlockEnd
0
ENDSEC
0
SECTION
2
ENTITIES
0
LINE
5
38E
100
AcDbEntity
8
0
100
AcDbLine
10
17.0895688217
20
18.8305707344
30
0.0000000000
11
7.4131181628
21
24.6890933096
31
0.0000000000
1001
DSTP_XDATA
1002
{
1000
_UPGRADE=1
1000
%1=size|GDBInteger|0|
1000
%2=scale|GDBDouble|1|
1000
%3=twidth|GDBDouble|0|
1002
}
0
LINE
5
38F
100
AcDbEntity
8
0
100
AcDbLine
10
17.0895688217
20
18.8305707344
30
0.0000000000
11
17.0895688217
21
18.8305707344
31
0.0000000000
1001
DSTP_XDATA
1002
{
1000
_OWNERHANDLE=000000006E
1002
}
0
MTEXT
5
390
100
AcDbEntity
8
0
100
AcDbMText
10
2.4131181628
20
31.6890933096
30
0.0000000000
40
2.5000000000
41
0.0000000000
71
2
1
ШР4-1
7
Standard
11
1.0000000000
21
0.0000000000
31
0.0000000000
44
0.9600000000
1001
DSTP_XDATA
1002
{
1000
_OWNERHANDLE=000000006E
1002
}
0
MTEXT
5
391
100
AcDbEntity
8
0
100
AcDbMText
10
2.4131181628
20
27.6890933096
30
0.0000000000
40
2.5000000000
41
0.0000000000
71
2
1
ШР4-2
7
Standard
11
1.0000000000
21
0.0000000000
31
0.0000000000
44
0.9600000000
1001
DSTP_XDATA
1002
{
1000
_OWNERHANDLE=000000006E
1002
}
0
LINE
5
392
100
AcDbEntity
8
0
100
AcDbLine
10
-2.5868818372
20
32.6890933096
30
0.0000000000
11
7.4131181628
21
32.6890933096
31
0.0000000000
1001
DSTP_XDATA
1002
{
1000
_OWNERHANDLE=000000006E
1002
}
0
LINE
5
393
100
AcDbEntity
8
0
100
AcDbLine
10
-2.5868818372
20
28.6890933096
30
0.0000000000
11
7.4131181628
21
28.6890933096
31
0.0000000000
1001
DSTP_XDATA
1002
{
1000
_OWNERHANDLE=000000006E
1002
}
0
LINE
5
394
100
AcDbEntity
8
0
100
AcDbLine
10
-2.5868818372
20
24.6890933096
30
0.0000000000
11
7.4131181628
21
24.6890933096
31
0.0000000000
1001
DSTP_XDATA
1002
{
1000
_OWNERHANDLE=000000006E
1002
}
0
LINE
5
395
100
AcDbEntity
8
0
100
AcDbLine
10
-2.5868818372
20
32.6890933096
30
0.0000000000
11
-2.5868818372
21
24.6890933096
31
0.0000000000
1001
DSTP_XDATA
1002
{
1000
_OWNERHANDLE=000000006E
1002
}
0
LINE
5
396
100
AcDbEntity
8
0
100
AcDbLine
10
7.4131181628
20
32.6890933096
30
0.0000000000
11
7.4131181628
21
24.6890933096
31
0.0000000000
1001
DSTP_XDATA
1002
{
1000
_OWNERHANDLE=000000006E
1002
}
0
MTEXT
5
397
100
AcDbEntity
8
0
100
AcDbMText
10
7.4131181628
20
34.1890933096
30
0.0000000000
40
2.5000000000
41
0.0000000000
71
9
1
ШР4
7
Standard
11
1.0000000000
21
0.0000000000
31
0.0000000000
44
0.0000000000
1001
DSTP_XDATA
1002
{
1000
_OWNERHANDLE=000000006E
1002
}
0
LINE
5
398
100
AcDbEntity
8
0
100
AcDbLine
10
7.4131181628
20
33.6890933096
30
0.0000000000
11
7.4131181628
21
32.6890933096
31
0.0000000000
1001
DSTP_XDATA
1002
{
1000
_OWNERHANDLE=000000006E
1002
}
0
LINE
5
399
100
AcDbEntity
8
0
100
AcDbLine
10
7.4131181628
20
33.6890933096
30
0.0000000000
11
2.1631180933
21
33.6890933096
31
0.0000000000
1001
DSTP_XDATA
1002
{
1000
_OWNERHANDLE=000000006E
1002
}
0
INSERT
5
39A
100
AcDbEntity
8
0
100
AcDbBlockReference
2
EL_SR
10
18.6110418714
20
17.8317538672
30
0.0000000000
41
1.0000000000
42
1.0000000000
43
1.0000000000
50
0.0000000000
1001
DSTP_XDATA
1002
{
1000
USES=System
1000
USES=devices
1000
#0=Device_Type|TDeviceType|TDT_SilaIst|РўРёРї СѓСЃС‚СЂРѕР№СЃС‚РІР°
1000
#1=Device_Class|TDeviceClass|TDC_Shell|РљР»Р°СЃСЃ СѓСЃС‚СЂРѕР№СЃС‚РІР°
1000
#2=Device_Group|TDeviceGroup|TDG_ElDevice|Р“СЂСѓРїРїР° СѓСЃС‚СЂРѕР№СЃС‚РІР°
1000
#3=BTY_TreeCoord|GDBString|PLAN_EM_Р Р°СЃРїСЂРµРґ СѓСЃС‚СЂРѕР№СЃС‚РІРѕ|РџРѕР·РёС†РёСЏ РІ РґРµСЂРµРІРµ
1000
#4=NMO_Template|GDBString|@@[NMO_BaseName]@@[NameNumber]|РЁР°Р±Р»РѕРЅ РћР±РѕР·РЅР°С‡РµРЅРёСЏ
1000
#5=NMO_Name|GDBString|РЁР 4|РћР±РѕР·РЅР°С‡РµРЅРёРµ
1000
#6=NMO_BaseName|GDBString|РЁР |РљРѕСЂРѕС‚РєРѕРµ РРјСЏ
1000
#7=NameNumber|GDBInteger|4|РќРѕРјРµСЂ
1000
#8=Power|GDBDouble|1.0|РњРѕС‰РЅРѕСЃС‚СЊ СЂР°СЃС‡РµС‚РЅР°СЏ, РєР’С‚
1000
#9=PowerUst|GDBDouble|0.0|РњРѕС‰РЅРѕСЃС‚СЊ СѓСЃС‚Р°РЅРѕРІР»РµРЅРЅР°СЏ, РєР’С‚
1000
#10=Current|GDBDouble|0.0|РўРѕРє СЂР°СЃС‡РµС‚РЅС‹Р№, Рђ
1000
#11=CurrentUst|GDBDouble|0.0|РўРѕРє СѓСЃС‚Р°РЅРѕРІР»РµРЅРЅС‹Р№, Рђ
1000
#12=CosPHI|GDBDouble|0.7|Cos(С„Рё)
1000
#13=Voltage|TVoltage|_AC_380V_50Hz|РќР°РїСЂСЏР¶РµРЅРёРµ РїРёС‚Р°РЅРёСЏ
1000
#14=Phase|TPhase|_ABC|Р¤Р°Р·Р°
1000
#15=DB_link|GDBString|El_РЁРєР°С„ СЂР°СЃРїСЂРµРґРµР»РёС‚РµР»СЊРЅС‹Р№|РњР°С‚РµСЂРёР°Р»
1000
#16=AmountI|GDBInteger|1|РљРѕР»РёС‡РµСЃС‚РІРѕ
1000
#17=GC_HeadDevice|GDBString|ARK??|
1000
#18=GC_HDShortName|GDBString|??|
1000
#19=GC_HDGroup|GDBString|0|
1000
#20=SerialConnection|GDBInteger|1|
1000
#21=GC_NumberInGroup|GDBInteger|0|РќРѕРјРµСЂ РІ РіСЂСѓРїРїРµ
1000
#22=EL_Cab_AddLength|GDBDouble|0.1|Р”РѕР±Р°РІР»СЏС‚СЊ Рє РґР»РёРЅРµ РєР°Р±РµР»СЏ
1000
#23=GC_Metric|GDBString||
1000
#24=GC_HDGroupTemplate|GDBString||РЁР°Р±Р»РѕРЅ РіСЂСѓРїРїС‹
1000
#25=GC_HeadDeviceTemplate|GDBString||РЁР°Р±Р»РѕРЅ РіРѕР»РѕРІРЅРѕРіРѕ СѓСЃС‚СЂРѕР№СЃС‚РІР°
1000
#26=GC_HDShortNameTemplate|GDBString||РЁР°Р±Р»РѕРЅ РєРѕСЂРѕС‚РєРѕРіРѕ РёРјРµРЅРё РіРѕР»РѕРІРЅРѕРіРѕ СѓСЃС‚СЂРѕР№СЃС‚РІР°
1000
#27=GC_InGroup_Metric|GDBString||РњРµС‚СЂРёРєР° РЅСѓРјРµСЂР°С†РёРё РІ РіСЂСѓРїРїРµ
1000
_OWNERHANDLE=0000000064
1000
_HANDLE=00120EFD10
1000
_UPGRADE=1
1002
}
0
INSERT
5
39B
100
AcDbEntity
8
0
100
AcDbBlockReference
2
CONNECTOR_SQUARE
10
18.6110418714
20
17.8317538672
30
0.0000000000
41
1.0000000000
42
1.0000000000
43
1.0000000000
50
0.0000000000
1001
DSTP_XDATA
1002
{
1000
USES=System
1000
USES=connectors
1000
USES=devices
1000
#0=DeviceClass|TDeviceClass|TDC_Unknown|РљР»Р°СЃСЃ СѓСЃС‚СЂРѕР№СЃС‚РІР°
1000
#1=Connector_Type|TConnectorType|TCT_ElCable|РўРёРї СЃРѕРµРґРёРЅРµРЅРёСЏ
1000
#2=Border_Type|TConnectorBorderType|TCBT_Owner|Р“СЂР°РЅРёС†Р° РїРѕРґСЂРµР·РєРё
1000
#3=Connector_Name|GDBString||РРјСЏ СЃРѕРµРґРёРЅРµРЅРёСЏ
1000
#4=Connector_Junction|GDBBoolean|False|Р’РѕР·РјРѕР¶РЅРѕСЃС‚СЊ РѕС‚РІРµС‚РІР»РµРЅРёСЏ
1000
#5=LENGTH_Add|GDBDouble|0.0|Р”РѕР±Р°РІРёС‚СЊ Рє РґР»РёРЅРµ
1000
_OWNERHANDLE=00120EFD10
1000
_HANDLE=00122B29B0
1000
_UPGRADE=1
1002
}
0
LINE
5
39C
100
AcDbEntity
8
SYS_METRIC
100
AcDbLine
10
17.6110418714
20
17.8317538672
30
0.0000000000
11
19.6110418714
21
17.8317538672
31
0.0000000000
1001
DSTP_XDATA
1002
{
1000
_OWNERHANDLE=00122B29B0
1002
}
0
LINE
5
39D
100
AcDbEntity
8
SYS_METRIC
100
AcDbLine
10
18.6110418714
20
18.8317538672
30
0.0000000000
11
18.6110418714
21
16.8317538672
31
0.0000000000
1001
DSTP_XDATA
1002
{
1000
_OWNERHANDLE=00122B29B0
1002
}
0
LINE
5
39E
100
AcDbEntity
8
SYS_DEVICE_BORDER
100
AcDbLine
10
21.1110418714
20
15.3317538672
30
0.0000000000
11
16.1110418714
21
15.3317538672
31
0.0000000000
1001
DSTP_XDATA
1002
{
1000
_OWNERHANDLE=00120EFD10
1002
}
0
LINE
5
39F
100
AcDbEntity
8
SYS_DEVICE_BORDER
100
AcDbLine
10
21.1110418714
20
20.3317538672
30
0.0000000000
11
21.1110418714
21
15.3317538672
31
0.0000000000
1001
DSTP_XDATA
1002
{
1000
_OWNERHANDLE=00120EFD10
1002
}
0
LINE
5
3A0
100
AcDbEntity
8
SYS_DEVICE_BORDER
100
AcDbLine
10
16.1110418714
20
20.3317538672
30
0.0000000000
11
21.1110418714
21
20.3317538672
31
0.0000000000
1001
DSTP_XDATA
1002
{
1000
_OWNERHANDLE=00120EFD10
1002
}
0
LINE
5
3A1
100
AcDbEntity
8
SYS_DEVICE_BORDER
100
AcDbLine
10
16.1110418714
20
15.3317538672
30
0.0000000000
11
16.1110418714
21
20.3317538672
31
0.0000000000
1001
DSTP_XDATA
1002
{
1000
_OWNERHANDLE=00120EFD10
1002
}
0
TEXT
5
3A2
100
AcDbEntity
8
EL_DEVICE_NAME
100
AcDbText
11
18.6110418714
21
21.3317538672
31
0.0000000000
10
15.7360419037
20
21.3317538672
30
0.0000000000
40
2.5000000000
50
0.0000000000
41
0.7000000000
51
12.0000000000
72
1
7
R2_5
1
ШР4
100
AcDbText
73
0
1001
DSTP_XDATA
1002
{
1000
_TMPL1=@@[NMO_Name]
1000
_OWNERHANDLE=00120EFD10
1002
}
0
INSERT
5
3A3
100
AcDbEntity
8
0
100
AcDbBlockReference
2
EL_MOTOR
10
-78.5966832034
20
1.6061419287
30
0.0000000000
41
1.0000000000
42
1.0000000000
43
1.0000000000
50
0.0000000000
1001
DSTP_XDATA
1002
{
1000
USES=System
1000
USES=devices
1000
#0=Device_Type|TDeviceType|TDT_SilaPotr|РўРёРї СѓСЃС‚СЂРѕР№СЃС‚РІР°
1000
#1=Device_Class|TDeviceClass|TDC_Shell|РљР»Р°СЃСЃ СѓСЃС‚СЂРѕР№СЃС‚РІР°
1000
#2=Device_Group|TDeviceGroup|TDG_ElDevice|Р“СЂСѓРїРїР° СѓСЃС‚СЂРѕР№СЃС‚РІР°
1000
#3=BTY_TreeCoord|GDBString|PLAN_EM_Р”РІРёРіР°С‚РµР»СЊ|РџРѕР·РёС†РёСЏ РІ РґРµСЂРµРІРµ
1000
#4=NMO_Template|GDBString|@@[NMO_BaseName]@@[NameNumber].1|РЁР°Р±Р»РѕРЅ РћР±РѕР·РЅР°С‡РµРЅРёСЏ
1000
#5=NMO_Name|GDBString|Р’1.1|РћР±РѕР·РЅР°С‡РµРЅРёРµ
1000
#6=NMO_BaseName|GDBString|Р’|РљРѕСЂРѕС‚РєРѕРµ РРјСЏ
1000
#7=NameNumber|GDBInteger|1|РќРѕРјРµСЂ
1000
#8=Position|GDBInteger|1|РџРѕР·РёС†РёСЏ РїРѕ Р·Р°РґР°РЅРёСЋ РўРҐ
1000
#9=CalcIP|TCalcIP|_I_from_P|РЎРїРѕСЃРѕР± СЂР°СЃС‡РµС‚Р°
1000
#10=Power|GDBDouble|1.0|РњРѕС‰РЅРѕСЃС‚СЊ, РєР’С‚
1000
#11=Current|GDBDouble|2.17306271458994|РўРѕРє, Рђ
1000
#12=CosPHI|GDBDouble|0.7|Cos(С„Рё)
1000
#13=Ks|GDBDouble|1.0|РљРѕСЌС„С„РёС†РёРµРЅС‚ СЃРїСЂРѕСЃР°
1000
#14=PV|GDBDouble|1.0|РџСЂРѕРґРѕР»Р¶РёС‚РµР»СЊРЅРѕСЃС‚СЊ РІРєР»СЋС‡РµРЅРёСЏ
1000
#15=Voltage|TVoltage|_AC_380V_50Hz|РќР°РїСЂСЏР¶РµРЅРёРµ РїРёС‚Р°РЅРёСЏ
1000
#16=Phase|TPhase|_ABC|Р¤Р°Р·Р°
1000
#17=DB_link|GDBString|El_Motor|РњР°С‚РµСЂРёР°Р»
1000
#18=AmountI|GDBInteger|1|РљРѕР»РёС‡РµСЃС‚РІРѕ
1000
#19=GC_HeadDevice|GDBString|ARK??|
1000
#20=GC_HDShortName|GDBString|??|
1000
#21=GC_HDGroup|GDBString|0|
1000
#22=SerialConnection|GDBInteger|1|
1000
#23=GC_NumberInGroup|GDBInteger|0|РќРѕРјРµСЂ РІ РіСЂСѓРїРїРµ
1000
#24=EL_Cab_AddLength|GDBDouble|0.1|Р”РѕР±Р°РІР»СЏС‚СЊ Рє РґР»РёРЅРµ РєР°Р±РµР»СЏ
1000
#25=GC_Metric|GDBString||
1000
#26=GC_HDGroupTemplate|GDBString||РЁР°Р±Р»РѕРЅ РіСЂСѓРїРїС‹
1000
#27=GC_HeadDeviceTemplate|GDBString||РЁР°Р±Р»РѕРЅ РіРѕР»РѕРІРЅРѕРіРѕ СѓСЃС‚СЂРѕР№СЃС‚РІР°
1000
#28=GC_HDShortNameTemplate|GDBString||РЁР°Р±Р»РѕРЅ РєРѕСЂРѕС‚РєРѕРіРѕ РёРјРµРЅРё РіРѕР»РѕРІРЅРѕРіРѕ СѓСЃС‚СЂРѕР№СЃС‚РІР°
1000
#29=GC_InGroup_Metric|GDBString||РњРµС‚СЂРёРєР° РЅСѓРјРµСЂР°С†РёРё РІ РіСЂСѓРїРїРµ
1000
_OWNERHANDLE=0000000064
1000
_HANDLE=00122BCB80
1000
_UPGRADE=1
1002
}
0
INSERT
5
3A4
100
AcDbEntity
8
0
100
AcDbBlockReference
2
CONNECTOR_SQUARE
10
-78.5966832034
20
1.6061419287
30
0.0000000000
41
1.0000000000
42
1.0000000000
43
1.0000000000
50
0.0000000000
1001
DSTP_XDATA
1002
{
1000
USES=System
1000
USES=connectors
1000
USES=devices
1000
#0=DeviceClass|TDeviceClass|TDC_Unknown|РљР»Р°СЃСЃ СѓСЃС‚СЂРѕР№СЃС‚РІР°
1000
#1=Connector_Type|TConnectorType|TCT_ElCable|РўРёРї СЃРѕРµРґРёРЅРµРЅРёСЏ
1000
#2=Border_Type|TConnectorBorderType|TCBT_Owner|Р“СЂР°РЅРёС†Р° РїРѕРґСЂРµР·РєРё
1000
#3=Connector_Name|GDBString||РРјСЏ СЃРѕРµРґРёРЅРµРЅРёСЏ
1000
#4=Connector_Junction|GDBBoolean|False|Р’РѕР·РјРѕР¶РЅРѕСЃС‚СЊ РѕС‚РІРµС‚РІР»РµРЅРёСЏ
1000
#5=LENGTH_Add|GDBDouble|0.0|Р”РѕР±Р°РІРёС‚СЊ Рє РґР»РёРЅРµ
1000
_OWNERHANDLE=00122BCB80
1000
_HANDLE=000D6BC450
1000
_UPGRADE=1
1002
}
0
LINE
5
3A5
100
AcDbEntity
8
SYS_METRIC
100
AcDbLine
10
-79.5966832034
20
1.6061419287
30
0.0000000000
11
-77.5966832034
21
1.6061419287
31
0.0000000000
1001
DSTP_XDATA
1002
{
1000
_OWNERHANDLE=000D6BC450
1002
}
0
LINE
5
3A6
100
AcDbEntity
8
SYS_METRIC
100
AcDbLine
10
-78.5966832034
20
2.6061419287
30
0.0000000000
11
-78.5966832034
21
0.6061419287
31
0.0000000000
1001
DSTP_XDATA
1002
{
1000
_OWNERHANDLE=000D6BC450
1002
}
0
LINE
5
3A7
100
AcDbEntity
8
SYS_DEVICE_BORDER
100
AcDbLine
10
-71.0966832034
20
-0.8938580713
30
0.0000000000
11
-81.0966832034
21
-0.8938580713
31
0.0000000000
1001
DSTP_XDATA
1002
{
1000
_OWNERHANDLE=00122BCB80
1002
}
0
LINE
5
3A8
100
AcDbEntity
8
SYS_DEVICE_BORDER
100
AcDbLine
10
-71.0966832034
20
4.1061419287
30
0.0000000000
11
-71.0966832034
21
-0.8938580713
31
0.0000000000
1001
DSTP_XDATA
1002
{
1000
_OWNERHANDLE=00122BCB80
1002
}
0
LINE
5
3A9
100
AcDbEntity
8
SYS_DEVICE_BORDER
100
AcDbLine
10
-81.0966832034
20
4.1061419287
30
0.0000000000
11
-71.0966832034
21
4.1061419287
31
0.0000000000
1001
DSTP_XDATA
1002
{
1000
_OWNERHANDLE=00122BCB80
1002
}
0
LINE
5
3AA
100
AcDbEntity
8
SYS_DEVICE_BORDER
100
AcDbLine
10
-81.0966832034
20
-0.8938580713
30
0.0000000000
11
-81.0966832034
21
4.1061419287
31
0.0000000000
1001
DSTP_XDATA
1002
{
1000
_OWNERHANDLE=00122BCB80
1002
}
0
TEXT
5
3AB
100
AcDbEntity
8
EL_DEVICE_NAME
100
AcDbText
11
-76.0966832034
21
5.1061419287
31
0.0000000000
10
-78.8466833872
20
5.1061419287
30
0.0000000000
40
2.5000000000
50
0.0000000000
41
0.7000000000
51
12.0000000000
72
1
7
R2_5
1
В1.1
100
AcDbText
73
0
1001
DSTP_XDATA
1002
{
1000
_TMPL1=@@[NMO_Name]
1000
_OWNERHANDLE=00122BCB80
1002
}
0
INSERT
5
3AC
100
AcDbEntity
8
0
100
AcDbBlockReference
2
EL_POSITION
10
-67.0966832034
20
1.6061419287
30
0.0000000000
41
1.0000000000
42
1.0000000000
43
1.0000000000
50
0.0000000000
1001
DSTP_XDATA
1002
{
1000
_OWNERHANDLE=00122BCB80
1000
_HANDLE=00122FCB10
1000
_UPGRADE=1
1002
}
0
TEXT
5
3AD
100
AcDbEntity
8
TEXT
100
AcDbText
11
-67.0966832034
21
2.1061419287
31
0.0000000000
10
-67.6383499247
20
2.1061419287
30
0.0000000000
40
2.5000000000
50
0.0000000000
41
0.7000000000
51
12.0000000000
72
1
7
R2_5
1
1
100
AcDbText
73
0
1001
DSTP_XDATA
1002
{
1000
_TMPL1=@@[Position]
1000
_OWNERHANDLE=00122FCB10
1002
}
0
TEXT
5
3AE
100
AcDbEntity
8
TEXT
100
AcDbText
11
-67.0966832034
21
1.1061419287
31
0.0000000000
10
-68.9300167230
20
-1.3938580713
30
0.0000000000
40
2.5000000000
50
0.0000000000
41
0.7000000000
51
12.0000000000
72
1
7
R2_5
1
1.0
100
AcDbText
73
3
1001
DSTP_XDATA
1002
{
1000
_TMPL1=@@[Power]
1000
_OWNERHANDLE=00122FCB10
1002
}
0
POLYLINE
5
3AF
100
AcDbEntity
8
SYS_METRIC
370
20
100
AcDb3dPolyline
66
1
10
0.0000000000
20
0.0000000000
30
0.0000000000
70
8
1001
DSTP_XDATA
1002
{
1000
USES=System
1000
USES=cables
1000
#0=NMO_Name|GDBString|РЁР 4-1|РћР±РѕР·РЅР°С‡РµРЅРёРµ
1000
#1=NMO_BaseName|GDBString|@|РљРѕСЂРѕС‚РєРѕРµ РРјСЏ
1000
#2=NMO_Prefix|GDBString||РџСЂРµС„РёРєСЃ
1000
#3=NMO_PrefixTemplate|GDBString||РЁР°Р±Р»РѕРЅ РїСЂРµС„РёРєСЃР°
1000
#4=NMO_Suffix|GDBString||РЎСѓС„С„РёРєСЃ
1000
#5=NMO_SuffixTemplate|GDBString||РЁР°Р±Р»РѕРЅ СЃСѓС„С„РёРєСЃР°
1000
#6=NMO_Template|GDBString|@@[NMO_Prefix]@@[GC_HeadDevice]-@@[GC_HDGroup]@@[NMO_Suffix]|РЁР°Р±Р»РѕРЅ РћР±РѕР·РЅР°С‡РµРЅРёСЏ
1000
#7=DB_link|GDBString|_EQ000000|РњР°С‚РµСЂРёР°Р»
1000
#8=LENGTH_RoundTo|GDBInteger|0|РћРєСЂСѓРіР»СЏС‚СЊ РґРѕ
1000
#9=LENGTH_Add|GDBDouble|4.0|Р”РѕР±Р°РІРёС‚СЊ Рє РґР»РёРЅРµ
1000
#10=LENGTH_Scale|GDBDouble|0.1|РњР°СЃС€С‚Р°Р±
1000
#11=GC_HeadDevice|GDBString|РЁР 4|Р“РѕР»РѕРІРЅРѕРµ СѓСЃС‚СЂРѕР№СЃС‚РІРѕ
1000
#12=GC_HDShortName|GDBString|4|РљРѕСЂРѕС‚РєРѕРµ РёРјСЏ РіРѕР»РѕРІРЅРѕРіРѕ СѓСЃС‚СЂРѕР№СЃС‚РІР°
1000
#13=GC_HDGroup|GDBString|1|Р“СЂСѓРїРїР° РІ РіРѕР»РѕРІРЅРѕРј СѓСЃС‚СЂРѕР№СЃС‚РІРµ
1000
#14=CABLE_Type|TCableType|TCT_Control|РўРёРї
1000
#15=CABLE_Segment|GDBInteger|0|РЎРµРіРјРµРЅС‚
1000
#16=CABLE_WireCount|GDBInteger|0|Р§РёСЃР»Рѕ Р¶РёР»
1000
#17=CABLE_TotalCD|GDBInteger|5|РџРѕРґРєР»СЋС‡РµРЅРѕ СѓСЃС‚СЂРѕР№СЃС‚РІ
1000
#18=AmountD|GDBDouble|20.0|Р”Р»РёРЅР°
1000
#19=GC_Metric|GDBString||
1000
#20=GC_HDGroupTemplate|GDBString||РЁР°Р±Р»РѕРЅ РіСЂСѓРїРїС‹
1000
#21=GC_HeadDeviceTemplate|GDBString||РЁР°Р±Р»РѕРЅ РіРѕР»РѕРІРЅРѕРіРѕ СѓСЃС‚СЂРѕР№СЃС‚РІР°
1000
#22=GC_HDShortNameTemplate|GDBString||РЁР°Р±Р»РѕРЅ РєРѕСЂРѕС‚РєРѕРіРѕ РёРјРµРЅРё РіРѕР»РѕРІРЅРѕРіРѕ СѓСЃС‚СЂРѕР№СЃС‚РІР°
1000
#23=GC_InGroup_Metric|GDBString||РњРµС‚СЂРёРєР° РЅСѓРјРµСЂР°С†РёРё РІ РіСЂСѓРїРїРµ
1000
_OWNERHANDLE=0000000064
1000
_UPGRADE=1
1000
_LAYER=0
1002
}
0
VERTEX
5
3B0
100
AcDbEntity
8
0
370
20
100
AcDbVertex
100
AcDb3dPolylineVertex
10
18.6110418714
20
17.8317538672
30
0.0000000000
0
VERTEX
5
3B1
100
AcDbEntity
8
0
370
20
100
AcDbVertex
100
AcDb3dPolylineVertex
10
-29.9928206660
20
9.7189478980
30
0.0000000000
0
VERTEX
5
3B2
100
AcDbEntity
8
0
370
20
100
AcDbVertex
100
AcDb3dPolylineVertex
10
-78.5966832034
20
1.6061419287
30
0.0000000000
0
VERTEX
5
3B3
100
AcDbEntity
8
0
370
20
100
AcDbVertex
100
AcDb3dPolylineVertex
10
-106.1454830774
20
-12.1682580083
30
0.0000000000
0
VERTEX
5
3B4
100
AcDbEntity
8
0
370
20
100
AcDbVertex
100
AcDb3dPolylineVertex
10
-128.4634981651
20
-30.1272857742
30
0.0000000000
0
SEQEND
5
3B5
100
AcDbEntity
8
0
370
20
0
LINE
5
3B6
100
AcDbEntity
8
0
370
20
100
AcDbLine
10
16.1110418714
20
17.4144616220
30
0.0000000000
11
-29.0064667957
21
9.8835870264
31
0.0000000000
1001
DSTP_XDATA
1002
{
1000
_OWNERHANDLE=6E
1002
}
0
LINE
5
3B7
100
AcDbEntity
8
0
370
20
100
AcDbLine
10
-30.9791745363
20
9.5543087696
30
0.0000000000
11
-71.0966832034
21
2.8580186643
31
0.0000000000
1001
DSTP_XDATA
1002
{
1000
_OWNERHANDLE=6E
1002
}
0
LINE
5
3B8
100
AcDbEntity
8
0
370
20
100
AcDbLine
10
-81.0966832034
20
0.3561419287
30
0.0000000000
11
-101.1454830774
21
-9.6682580083
31
0.0000000000
1001
DSTP_XDATA
1002
{
1000
_OWNERHANDLE=6E
1002
}
0
LINE
5
3B9
100
AcDbEntity
8
0
370
20
100
AcDbLine
10
-108.6454830774
20
-14.1799767583
30
0.0000000000
11
-125.3567020486
21
-27.6272857742
31
0.0000000000
1001
DSTP_XDATA
1002
{
1000
_OWNERHANDLE=6E
1002
}
0
LINE
5
3BA
100
AcDbEntity
8
0
100
AcDbLine
10
-30.6412827823
20
9.9003512026
30
0.0000000000
11
-43.7600610596
21
19.8234256408
31
0.0000000000
1001
DSTP_XDATA
1002
{
1000
_UPGRADE=1
1000
%1=size|GDBInteger|0|
1000
%2=scale|GDBDouble|1|
1000
%3=twidth|GDBDouble|0|
1002
}
0
LINE
5
3BB
100
AcDbEntity
8
0
100
AcDbLine
10
-30.6412827823
20
9.9003512026
30
0.0000000000
11
-30.6412827823
21
9.9003512026
31
0.0000000000
1001
DSTP_XDATA
1002
{
1000
_OWNERHANDLE=000000006E
1002
}
0
MTEXT
5
3BC
100
AcDbEntity
8
0
100
AcDbMText
10
-48.7600610596
20
26.8234256408
30
0.0000000000
40
2.5000000000
41
0.0000000000
71
2
1
@1
7
Standard
11
1.0000000000
21
0.0000000000
31
0.0000000000
44
0.9600000000
1001
DSTP_XDATA
1002
{
1000
_OWNERHANDLE=000000006E
1002
}
0
MTEXT
5
3BD
100
AcDbEntity
8
0
100
AcDbMText
10
-48.7600610596
20
22.8234256408
30
0.0000000000
40
2.5000000000
41
0.0000000000
71
2
1
ШР4-1
7
Standard
11
1.0000000000
21
0.0000000000
31
0.0000000000
44
0.9600000000
1001
DSTP_XDATA
1002
{
1000
_OWNERHANDLE=000000006E
1002
}
0
LINE
5
3BE
100
AcDbEntity
8
0
100
AcDbLine
10
-53.7600610596
20
27.8234256408
30
0.0000000000
11
-43.7600610596
21
27.8234256408
31
0.0000000000
1001
DSTP_XDATA
1002
{
1000
_OWNERHANDLE=000000006E
1002
}
0
LINE
5
3BF
100
AcDbEntity
8
0
100
AcDbLine
10
-53.7600610596
20
23.8234256408
30
0.0000000000
11
-43.7600610596
21
23.8234256408
31
0.0000000000
1001
DSTP_XDATA
1002
{
1000
_OWNERHANDLE=000000006E
1002
}
0
LINE
5
3C0
100
AcDbEntity
8
0
100
AcDbLine
10
-53.7600610596
20
19.8234256408
30
0.0000000000
11
-43.7600610596
21
19.8234256408
31
0.0000000000
1001
DSTP_XDATA
1002
{
1000
_OWNERHANDLE=000000006E
1002
}
0
LINE
5
3C1
100
AcDbEntity
8
0
100
AcDbLine
10
-53.7600610596
20
27.8234256408
30
0.0000000000
11
-53.7600610596
21
19.8234256408
31
0.0000000000
1001
DSTP_XDATA
1002
{
1000
_OWNERHANDLE=000000006E
1002
}
0
LINE
5
3C2
100
AcDbEntity
8
0
100
AcDbLine
10
-43.7600610596
20
27.8234256408
30
0.0000000000
11
-43.7600610596
21
19.8234256408
31
0.0000000000
1001
DSTP_XDATA
1002
{
1000
_OWNERHANDLE=000000006E
1002
}
0
MTEXT
5
3C3
100
AcDbEntity
8
0
100
AcDbMText
10
-43.7600610596
20
29.3234256408
30
0.0000000000
40
2.5000000000
41
0.0000000000
71
9
1
C1
7
Standard
11
1.0000000000
21
0.0000000000
31
0.0000000000
44
0.0000000000
1001
DSTP_XDATA
1002
{
1000
_OWNERHANDLE=000000006E
1002
}
0
LINE
5
3C4
100
AcDbEntity
8
0
100
AcDbLine
10
-43.7600610596
20
28.8234256408
30
0.0000000000
11
-43.7600610596
21
27.8234256408
31
0.0000000000
1001
DSTP_XDATA
1002
{
1000
_OWNERHANDLE=000000006E
1002
}
0
LINE
5
3C5
100
AcDbEntity
8
0
100
AcDbLine
10
-43.7600610596
20
28.8234256408
30
0.0000000000
11
-46.0933944538
21
28.8234256408
31
0.0000000000
1001
DSTP_XDATA
1002
{
1000
_OWNERHANDLE=000000006E
1002
}
0
INSERT
5
3C6
100
AcDbEntity
8
0
100
AcDbBlockReference
2
KIP_UKP
10
-29.9928206660
20
9.7189478980
30
0.0000000000
41
1.0000000000
42
1.0000000000
43
1.0000000000
50
0.0000000000
1001
DSTP_XDATA
1002
{
1000
USES=System
1000
USES=devices
1000
#0=NMO_Name|GDBString|C1|РћР±РѕР·РЅР°С‡РµРЅРёРµ
1000
#1=NMO_BaseName|GDBString|C|РљРѕСЂРѕС‚РєРѕРµ РРјСЏ
1000
#2=NMO_Prefix|GDBString||РџСЂРµС„РёРєСЃ
1000
#3=NMO_Suffix|GDBString|1|РЎСѓС„С„РёРєСЃ
1000
#4=NMO_Template|GDBString|@@[NMO_Prefix]@@[NMO_BaseName]@@[NMO_Suffix]|РЁР°Р±Р»РѕРЅ РћР±РѕР·РЅР°С‡РµРЅРёСЏ
1000
#5=DB_link|GDBString|РљРѕСЂРѕР±РєР°|РњР°С‚РµСЂРёР°Р»
1000
#6=EL_Cab_AddLength|GDBDouble|0.1|Р”РѕР±Р°РІР»СЏС‚СЊ Рє РґР»РёРЅРµ РєР°Р±РµР»СЏ
1000
#7=Device_Type|TDeviceType|TDT_Junction|РўРёРї СѓСЃС‚СЂРѕР№СЃС‚РІР°
1000
#8=Device_Class|TDeviceClass|TDC_Shell|РљР»Р°СЃСЃ СѓСЃС‚СЂРѕР№СЃС‚РІР°
1000
#9=Device_Group|TDeviceGroup|TDG_ElDevice|Р“СЂСѓРїРїР° СѓСЃС‚СЂРѕР№СЃС‚РІР°
1000
#10=BTY_TreeCoord|GDBString|PLAN_KIPIA_РљРѕСЂРѕР±РєР° РѕС‚РІРµС‚РІРёС‚РµР»СЊРЅР°СЏ|РџРѕР·РёС†РёСЏ РІ РґРµСЂРµРІРµ
1000
_OWNERHANDLE=0000000064
1000
_HANDLE=00122E5DE0
1000
_UPGRADE=1
1002
}
0
INSERT
5
3C7
100
AcDbEntity
8
0
100
AcDbBlockReference
2
CONNECTOR_SQUARE
10
-29.9928206660
20
9.7189478980
30
0.0000000000
41
1.0000000000
42
1.0000000000
43
1.0000000000
50
0.0000000000
1001
DSTP_XDATA
1002
{
1000
USES=System
1000
USES=connectors
1000
USES=devices
1000
#0=DeviceClass|TDeviceClass|TDC_Unknown|РљР»Р°СЃСЃ СѓСЃС‚СЂРѕР№СЃС‚РІР°
1000
#1=Connector_Type|TConnectorType|TCT_ElCable|РўРёРї СЃРѕРµРґРёРЅРµРЅРёСЏ
1000
#2=Border_Type|TConnectorBorderType|TCBT_Owner|Р“СЂР°РЅРёС†Р° РїРѕРґСЂРµР·РєРё
1000
#3=Connector_Name|GDBString||РРјСЏ СЃРѕРµРґРёРЅРµРЅРёСЏ
1000
#4=Connector_Junction|GDBBoolean|False|Р’РѕР·РјРѕР¶РЅРѕСЃС‚СЊ РѕС‚РІРµС‚РІР»РµРЅРёСЏ
1000
#5=LENGTH_Add|GDBDouble|0.0|Р”РѕР±Р°РІРёС‚СЊ Рє РґР»РёРЅРµ
1000
_OWNERHANDLE=00122E5DE0
1000
_HANDLE=00101CF480
1000
_UPGRADE=1
1002
}
0
LINE
5
3C8
100
AcDbEntity
8
SYS_METRIC
100
AcDbLine
10
-30.9928206660
20
9.7189478980
30
0.0000000000
11
-28.9928206660
21
9.7189478980
31
0.0000000000
1001
DSTP_XDATA
1002
{
1000
_OWNERHANDLE=00101CF480
1002
}
0
LINE
5
3C9
100
AcDbEntity
8
SYS_METRIC
100
AcDbLine
10
-29.9928206660
20
10.7189478980
30
0.0000000000
11
-29.9928206660
21
8.7189478980
31
0.0000000000
1001
DSTP_XDATA
1002
{
1000
_OWNERHANDLE=00101CF480
1002
}
0
TEXT
5
3CA
100
AcDbEntity
8
SYS_METRIC
100
AcDbText
11
-29.9928206660
21
11.7189478980
31
0.0000000000
10
-31.4094873873
20
11.7189478980
30
0.0000000000
40
2.5000000000
50
0.0000000000
41
0.7000000000
51
12.0000000000
72
1
7
R2_5
1
C1
100
AcDbText
73
0
1001
DSTP_XDATA
1002
{
1000
_TMPL1=@@[NMO_Name]
1000
_OWNERHANDLE=00122E5DE0
1002
}
0
CIRCLE
5
3CB
100
AcDbEntity
8
SYS_DEVICE_BORDER
100
AcDbCircle
10
-29.9928206660
20
9.7189478980
30
0.0000000000
40
1.0000000000
1001
DSTP_XDATA
1002
{
1000
_OWNERHANDLE=00122E5DE0
1002
}
0
INSERT
5
3CC
100
AcDbEntity
8
0
100
AcDbBlockReference
2
EL_MOTOR
10
-59.1370497059
20
-23.4026935393
30
0.0000000000
41
1.0000000000
42
1.0000000000
43
1.0000000000
50
0.0000000000
1001
DSTP_XDATA
1002
{
1000
USES=System
1000
USES=devices
1000
#0=Device_Type|TDeviceType|TDT_SilaPotr|РўРёРї СѓСЃС‚СЂРѕР№СЃС‚РІР°
1000
#1=Device_Class|TDeviceClass|TDC_Shell|РљР»Р°СЃСЃ СѓСЃС‚СЂРѕР№СЃС‚РІР°
1000
#2=Device_Group|TDeviceGroup|TDG_ElDevice|Р“СЂСѓРїРїР° СѓСЃС‚СЂРѕР№СЃС‚РІР°
1000
#3=BTY_TreeCoord|GDBString|PLAN_EM_Р”РІРёРіР°С‚РµР»СЊ|РџРѕР·РёС†РёСЏ РІ РґРµСЂРµРІРµ
1000
#4=NMO_Template|GDBString|@@[NMO_BaseName]@@[NameNumber].4|РЁР°Р±Р»РѕРЅ РћР±РѕР·РЅР°С‡РµРЅРёСЏ
1000
#5=NMO_Name|GDBString|Р’1.4|РћР±РѕР·РЅР°С‡РµРЅРёРµ
1000
#6=NMO_BaseName|GDBString|Р’|РљРѕСЂРѕС‚РєРѕРµ РРјСЏ
1000
#7=NameNumber|GDBInteger|1|РќРѕРјРµСЂ
1000
#8=Position|GDBInteger|1|РџРѕР·РёС†РёСЏ РїРѕ Р·Р°РґР°РЅРёСЋ РўРҐ
1000
#9=CalcIP|TCalcIP|_I_from_P|РЎРїРѕСЃРѕР± СЂР°СЃС‡РµС‚Р°
1000
#10=Power|GDBDouble|1.0|РњРѕС‰РЅРѕСЃС‚СЊ, РєР’С‚
1000
#11=Current|GDBDouble|2.17306271458994|РўРѕРє, Рђ
1000
#12=CosPHI|GDBDouble|0.7|Cos(С„Рё)
1000
#13=Ks|GDBDouble|1.0|РљРѕСЌС„С„РёС†РёРµРЅС‚ СЃРїСЂРѕСЃР°
1000
#14=PV|GDBDouble|1.0|РџСЂРѕРґРѕР»Р¶РёС‚РµР»СЊРЅРѕСЃС‚СЊ РІРєР»СЋС‡РµРЅРёСЏ
1000
#15=Voltage|TVoltage|_AC_380V_50Hz|РќР°РїСЂСЏР¶РµРЅРёРµ РїРёС‚Р°РЅРёСЏ
1000
#16=Phase|TPhase|_ABC|Р¤Р°Р·Р°
1000
#17=DB_link|GDBString|El_Motor|РњР°С‚РµСЂРёР°Р»
1000
#18=AmountI|GDBInteger|1|РљРѕР»РёС‡РµСЃС‚РІРѕ
1000
#19=GC_HeadDevice|GDBString|ARK??|
1000
#20=GC_HDShortName|GDBString|??|
1000
#21=GC_HDGroup|GDBString|0|
1000
#22=SerialConnection|GDBInteger|1|
1000
#23=GC_NumberInGroup|GDBInteger|0|РќРѕРјРµСЂ РІ РіСЂСѓРїРїРµ
1000
#24=EL_Cab_AddLength|GDBDouble|0.1|Р”РѕР±Р°РІР»СЏС‚СЊ Рє РґР»РёРЅРµ РєР°Р±РµР»СЏ
1000
#25=GC_Metric|GDBString||
1000
#26=GC_HDGroupTemplate|GDBString||РЁР°Р±Р»РѕРЅ РіСЂСѓРїРїС‹
1000
#27=GC_HeadDeviceTemplate|GDBString||РЁР°Р±Р»РѕРЅ РіРѕР»РѕРІРЅРѕРіРѕ СѓСЃС‚СЂРѕР№СЃС‚РІР°
1000
#28=GC_HDShortNameTemplate|GDBString||РЁР°Р±Р»РѕРЅ РєРѕСЂРѕС‚РєРѕРіРѕ РёРјРµРЅРё РіРѕР»РѕРІРЅРѕРіРѕ СѓСЃС‚СЂРѕР№СЃС‚РІР°
1000
#29=GC_InGroup_Metric|GDBString||РњРµС‚СЂРёРєР° РЅСѓРјРµСЂР°С†РёРё РІ РіСЂСѓРїРїРµ
1000
_OWNERHANDLE=0000000064
1000
_HANDLE=00101C8DF0
1000
_UPGRADE=1
1002
}
0
INSERT
5
3CD
100
AcDbEntity
8
0
100
AcDbBlockReference
2
CONNECTOR_SQUARE
10
-59.1370497059
20
-23.4026935393
30
0.0000000000
41
1.0000000000
42
1.0000000000
43
1.0000000000
50
0.0000000000
1001
DSTP_XDATA
1002
{
1000
USES=System
1000
USES=connectors
1000
USES=devices
1000
#0=DeviceClass|TDeviceClass|TDC_Unknown|РљР»Р°СЃСЃ СѓСЃС‚СЂРѕР№СЃС‚РІР°
1000
#1=Connector_Type|TConnectorType|TCT_ElCable|РўРёРї СЃРѕРµРґРёРЅРµРЅРёСЏ
1000
#2=Border_Type|TConnectorBorderType|TCBT_Owner|Р“СЂР°РЅРёС†Р° РїРѕРґСЂРµР·РєРё
1000
#3=Connector_Name|GDBString||РРјСЏ СЃРѕРµРґРёРЅРµРЅРёСЏ
1000
#4=Connector_Junction|GDBBoolean|False|Р’РѕР·РјРѕР¶РЅРѕСЃС‚СЊ РѕС‚РІРµС‚РІР»РµРЅРёСЏ
1000
#5=LENGTH_Add|GDBDouble|0.0|Р”РѕР±Р°РІРёС‚СЊ Рє РґР»РёРЅРµ
1000
_OWNERHANDLE=00101C8DF0
1000
_HANDLE=00122E8840
1000
_UPGRADE=1
1002
}
0
LINE
5
3CE
100
AcDbEntity
8
SYS_METRIC
100
AcDbLine
10
-60.1370497059
20
-23.4026935393
30
0.0000000000
11
-58.1370497059
21
-23.4026935393
31
0.0000000000
1001
DSTP_XDATA
1002
{
1000
_OWNERHANDLE=00122E8840
1002
}
0
LINE
5
3CF
100
AcDbEntity
8
SYS_METRIC
100
AcDbLine
10
-59.1370497059
20
-22.4026935393
30
0.0000000000
11
-59.1370497059
21
-24.4026935393
31
0.0000000000
1001
DSTP_XDATA
1002
{
1000
_OWNERHANDLE=00122E8840
1002
}
0
LINE
5
3D0
100
AcDbEntity
8
SYS_DEVICE_BORDER
100
AcDbLine
10
-51.6370497059
20
-25.9026935393
30
0.0000000000
11
-61.6370497059
21
-25.9026935393
31
0.0000000000
1001
DSTP_XDATA
1002
{
1000
_OWNERHANDLE=00101C8DF0
1002
}
0
LINE
5
3D1
100
AcDbEntity
8
SYS_DEVICE_BORDER
100
AcDbLine
10
-51.6370497059
20
-20.9026935393
30
0.0000000000
11
-51.6370497059
21
-25.9026935393
31
0.0000000000
1001
DSTP_XDATA
1002
{
1000
_OWNERHANDLE=00101C8DF0
1002
}
0
LINE
5
3D2
100
AcDbEntity
8
SYS_DEVICE_BORDER
100
AcDbLine
10
-61.6370497059
20
-20.9026935393
30
0.0000000000
11
-51.6370497059
21
-20.9026935393
31
0.0000000000
1001
DSTP_XDATA
1002
{
1000
_OWNERHANDLE=00101C8DF0
1002
}
0
LINE
5
3D3
100
AcDbEntity
8
SYS_DEVICE_BORDER
100
AcDbLine
10
-61.6370497059
20
-25.9026935393
30
0.0000000000
11
-61.6370497059
21
-20.9026935393
31
0.0000000000
1001
DSTP_XDATA
1002
{
1000
_OWNERHANDLE=00101C8DF0
1002
}
0
TEXT
5
3D4
100
AcDbEntity
8
EL_DEVICE_NAME
100
AcDbText
11
-56.6370497059
21
-19.9026935393
31
0.0000000000
10
-59.3870498375
20
-19.9026935393
30
0.0000000000
40
2.5000000000
50
0.0000000000
41
0.7000000000
51
12.0000000000
72
1
7
R2_5
1
В1.4
100
AcDbText
73
0
1001
DSTP_XDATA
1002
{
1000
_TMPL1=@@[NMO_Name]
1000
_OWNERHANDLE=00101C8DF0
1002
}
0
INSERT
5
3D5
100
AcDbEntity
8
0
100
AcDbBlockReference
2
EL_POSITION
10
-47.6370497059
20
-23.4026935393
30
0.0000000000
41
1.0000000000
42
1.0000000000
43
1.0000000000
50
0.0000000000
1001
DSTP_XDATA
1002
{
1000
_OWNERHANDLE=00101C8DF0
1000
_HANDLE=00122E92D0
1000
_UPGRADE=1
1002
}
0
TEXT
5
3D6
100
AcDbEntity
8
TEXT
100
AcDbText
11
-47.6370497059
21
-22.9026935393
31
0.0000000000
10
-48.1787164272
20
-22.9026935393
30
0.0000000000
40
2.5000000000
50
0.0000000000
41
0.7000000000
51
12.0000000000
72
1
7
R2_5
1
1
100
AcDbText
73
0
1001
DSTP_XDATA
1002
{
1000
_TMPL1=@@[Position]
1000
_OWNERHANDLE=00122E92D0
1002
}
0
TEXT
5
3D7
100
AcDbEntity
8
TEXT
100
AcDbText
11
-47.6370497059
21
-23.9026935393
31
0.0000000000
10
-49.4703832255
20
-26.4026935393
30
0.0000000000
40
2.5000000000
50
0.0000000000
41
0.7000000000
51
12.0000000000
72
1
7
R2_5
1
1.0
100
AcDbText
73
3
1001
DSTP_XDATA
1002
{
1000
_TMPL1=@@[Power]
1000
_OWNERHANDLE=00122E92D0
1002
}
0
POLYLINE
5
3D8
100
AcDbEntity
8
SYS_METRIC
370
20
100
AcDb3dPolyline
66
1
10
0.0000000000
20
0.0000000000
30
0.0000000000
70
8
1001
DSTP_XDATA
1002
{
1000
USES=System
1000
USES=cables
1000
#0=NMO_Name|GDBString|@1|РћР±РѕР·РЅР°С‡РµРЅРёРµ
1000
#1=NMO_BaseName|GDBString|@|РљРѕСЂРѕС‚РєРѕРµ РРјСЏ
1000
#2=NMO_Prefix|GDBString||РџСЂРµС„РёРєСЃ
1000
#3=NMO_PrefixTemplate|GDBString||РЁР°Р±Р»РѕРЅ РїСЂРµС„РёРєСЃР°
1000
#4=NMO_Suffix|GDBString|1|РЎСѓС„С„РёРєСЃ
1000
#5=NMO_SuffixTemplate|GDBString||РЁР°Р±Р»РѕРЅ СЃСѓС„С„РёРєСЃР°
1000
#6=NMO_Template|GDBString|@@[NMO_Prefix]@@[NMO_BaseName]@@[NMO_Suffix]|РЁР°Р±Р»РѕРЅ РћР±РѕР·РЅР°С‡РµРЅРёСЏ
1000
#7=DB_link|GDBString|_EQ000000|РњР°С‚РµСЂРёР°Р»
1000
#8=LENGTH_RoundTo|GDBInteger|0|РћРєСЂСѓРіР»СЏС‚СЊ РґРѕ
1000
#9=LENGTH_Add|GDBDouble|4.0|Р”РѕР±Р°РІРёС‚СЊ Рє РґР»РёРЅРµ
1000
#10=LENGTH_Scale|GDBDouble|0.1|РњР°СЃС€С‚Р°Р±
1000
#11=GC_HeadDevice|GDBString|??|Р“РѕР»РѕРІРЅРѕРµ СѓСЃС‚СЂРѕР№СЃС‚РІРѕ
1000
#12=GC_HDShortName|GDBString|??|РљРѕСЂРѕС‚РєРѕРµ РёРјСЏ РіРѕР»РѕРІРЅРѕРіРѕ СѓСЃС‚СЂРѕР№СЃС‚РІР°
1000
#13=GC_HDGroup|GDBString|0|Р“СЂСѓРїРїР° РІ РіРѕР»РѕРІРЅРѕРј СѓСЃС‚СЂРѕР№СЃС‚РІРµ
1000
#14=CABLE_Type|TCableType|TCT_Control|РўРёРї
1000
#15=CABLE_Segment|GDBInteger|0|РЎРµРіРјРµРЅС‚
1000
#16=CABLE_WireCount|GDBInteger|0|Р§РёСЃР»Рѕ Р¶РёР»
1000
#17=CABLE_TotalCD|GDBInteger|2|РџРѕРґРєР»СЋС‡РµРЅРѕ СѓСЃС‚СЂРѕР№СЃС‚РІ
1000
#18=AmountD|GDBDouble|9.0|Р”Р»РёРЅР°
1000
#19=GC_Metric|GDBString||
1000
#20=GC_HDGroupTemplate|GDBString||РЁР°Р±Р»РѕРЅ РіСЂСѓРїРїС‹
1000
#21=GC_HeadDeviceTemplate|GDBString||РЁР°Р±Р»РѕРЅ РіРѕР»РѕРІРЅРѕРіРѕ СѓСЃС‚СЂРѕР№СЃС‚РІР°
1000
#22=GC_HDShortNameTemplate|GDBString||РЁР°Р±Р»РѕРЅ РєРѕСЂРѕС‚РєРѕРіРѕ РёРјРµРЅРё РіРѕР»РѕРІРЅРѕРіРѕ СѓСЃС‚СЂРѕР№СЃС‚РІР°
1000
#23=GC_InGroup_Metric|GDBString||РњРµС‚СЂРёРєР° РЅСѓРјРµСЂР°С†РёРё РІ РіСЂСѓРїРїРµ
1000
_OWNERHANDLE=0000000064
1000
_UPGRADE=1
1000
_LAYER=0
1002
}
0
VERTEX
5
3D9
100
AcDbEntity
8
0
370
20
100
AcDbVertex
100
AcDb3dPolylineVertex
10
-29.9928206660
20
9.7189478980
30
0.0000000000
0
VERTEX
5
3DA
100
AcDbEntity
8
0
370
20
100
AcDbVertex
100
AcDb3dPolylineVertex
10
-59.1370497059
20
-23.4026935393
30
0.0000000000
0
SEQEND
5
3DB
100
AcDbEntity
8
0
370
20
0
LINE
5
3DC
100
AcDbEntity
8
0
370
20
100
AcDbLine
10
-30.6534125957
20
8.9682027332
30
0.0000000000
11
-56.9372622123
21
-20.9026935393
31
0.0000000000
1001
DSTP_XDATA
1002
{
1000
_OWNERHANDLE=6E
1002
}
0
INSERT
5
3DD
100
AcDbEntity
8
0
100
AcDbBlockReference
2
EL_MOTOR
10
-106.1454830774
20
-12.1682580083
30
0.0000000000
41
1.0000000000
42
1.0000000000
43
1.0000000000
50
0.0000000000
1001
DSTP_XDATA
1002
{
1000
USES=System
1000
USES=devices
1000
#0=Device_Type|TDeviceType|TDT_SilaPotr|РўРёРї СѓСЃС‚СЂРѕР№СЃС‚РІР°
1000
#1=Device_Class|TDeviceClass|TDC_Shell|РљР»Р°СЃСЃ СѓСЃС‚СЂРѕР№СЃС‚РІР°
1000
#2=Device_Group|TDeviceGroup|TDG_ElDevice|Р“СЂСѓРїРїР° СѓСЃС‚СЂРѕР№СЃС‚РІР°
1000
#3=BTY_TreeCoord|GDBString|PLAN_EM_Р”РІРёРіР°С‚РµР»СЊ|РџРѕР·РёС†РёСЏ РІ РґРµСЂРµРІРµ
1000
#4=NMO_Template|GDBString|@@[NMO_BaseName]@@[NameNumber].2|РЁР°Р±Р»РѕРЅ РћР±РѕР·РЅР°С‡РµРЅРёСЏ
1000
#5=NMO_Name|GDBString|Р’1.2|РћР±РѕР·РЅР°С‡РµРЅРёРµ
1000
#6=NMO_BaseName|GDBString|Р’|РљРѕСЂРѕС‚РєРѕРµ РРјСЏ
1000
#7=NameNumber|GDBInteger|1|РќРѕРјРµСЂ
1000
#8=Position|GDBInteger|1|РџРѕР·РёС†РёСЏ РїРѕ Р·Р°РґР°РЅРёСЋ РўРҐ
1000
#9=CalcIP|TCalcIP|_I_from_P|РЎРїРѕСЃРѕР± СЂР°СЃС‡РµС‚Р°
1000
#10=Power|GDBDouble|1.0|РњРѕС‰РЅРѕСЃС‚СЊ, РєР’С‚
1000
#11=Current|GDBDouble|2.17306271458994|РўРѕРє, Рђ
1000
#12=CosPHI|GDBDouble|0.7|Cos(С„Рё)
1000
#13=Ks|GDBDouble|1.0|РљРѕСЌС„С„РёС†РёРµРЅС‚ СЃРїСЂРѕСЃР°
1000
#14=PV|GDBDouble|1.0|РџСЂРѕРґРѕР»Р¶РёС‚РµР»СЊРЅРѕСЃС‚СЊ РІРєР»СЋС‡РµРЅРёСЏ
1000
#15=Voltage|TVoltage|_AC_380V_50Hz|РќР°РїСЂСЏР¶РµРЅРёРµ РїРёС‚Р°РЅРёСЏ
1000
#16=Phase|TPhase|_ABC|Р¤Р°Р·Р°
1000
#17=DB_link|GDBString|El_Motor|РњР°С‚РµСЂРёР°Р»
1000
#18=AmountI|GDBInteger|1|РљРѕР»РёС‡РµСЃС‚РІРѕ
1000
#19=GC_HeadDevice|GDBString|ARK??|
1000
#20=GC_HDShortName|GDBString|??|
1000
#21=GC_HDGroup|GDBString|0|
1000
#22=SerialConnection|GDBInteger|1|
1000
#23=GC_NumberInGroup|GDBInteger|0|РќРѕРјРµСЂ РІ РіСЂСѓРїРїРµ
1000
#24=EL_Cab_AddLength|GDBDouble|0.1|Р”РѕР±Р°РІР»СЏС‚СЊ Рє РґР»РёРЅРµ РєР°Р±РµР»СЏ
1000
#25=GC_Metric|GDBString||
1000
#26=GC_HDGroupTemplate|GDBString||РЁР°Р±Р»РѕРЅ РіСЂСѓРїРїС‹
1000
#27=GC_HeadDeviceTemplate|GDBString||РЁР°Р±Р»РѕРЅ РіРѕР»РѕРІРЅРѕРіРѕ СѓСЃС‚СЂРѕР№СЃС‚РІР°
1000
#28=GC_HDShortNameTemplate|GDBString||РЁР°Р±Р»РѕРЅ РєРѕСЂРѕС‚РєРѕРіРѕ РёРјРµРЅРё РіРѕР»РѕРІРЅРѕРіРѕ СѓСЃС‚СЂРѕР№СЃС‚РІР°
1000
#29=GC_InGroup_Metric|GDBString||РњРµС‚СЂРёРєР° РЅСѓРјРµСЂР°С†РёРё РІ РіСЂСѓРїРїРµ
1000
_OWNERHANDLE=0000000064
1000
_HANDLE=0010212B58
1000
_UPGRADE=1
1002
}
0
INSERT
5
3DE
100
AcDbEntity
8
0
100
AcDbBlockReference
2
CONNECTOR_SQUARE
10
-106.1454830774
20
-12.1682580083
30
0.0000000000
41
1.0000000000
42
1.0000000000
43
1.0000000000
50
0.0000000000
1001
DSTP_XDATA
1002
{
1000
USES=System
1000
USES=connectors
1000
USES=devices
1000
#0=DeviceClass|TDeviceClass|TDC_Unknown|РљР»Р°СЃСЃ СѓСЃС‚СЂРѕР№СЃС‚РІР°
1000
#1=Connector_Type|TConnectorType|TCT_ElCable|РўРёРї СЃРѕРµРґРёРЅРµРЅРёСЏ
1000
#2=Border_Type|TConnectorBorderType|TCBT_Owner|Р“СЂР°РЅРёС†Р° РїРѕРґСЂРµР·РєРё
1000
#3=Connector_Name|GDBString||РРјСЏ СЃРѕРµРґРёРЅРµРЅРёСЏ
1000
#4=Connector_Junction|GDBBoolean|False|Р’РѕР·РјРѕР¶РЅРѕСЃС‚СЊ РѕС‚РІРµС‚РІР»РµРЅРёСЏ
1000
#5=LENGTH_Add|GDBDouble|0.0|Р”РѕР±Р°РІРёС‚СЊ Рє РґР»РёРЅРµ
1000
_OWNERHANDLE=0010212B58
1000
_HANDLE=00102184E8
1000
_UPGRADE=1
1002
}
0
LINE
5
3DF
100
AcDbEntity
8
SYS_METRIC
100
AcDbLine
10
-107.1454830774
20
-12.1682580083
30
0.0000000000
11
-105.1454830774
21
-12.1682580083
31
0.0000000000
1001
DSTP_XDATA
1002
{
1000
_OWNERHANDLE=00102184E8
1002
}
0
LINE
5
3E0
100
AcDbEntity
8
SYS_METRIC
100
AcDbLine
10
-106.1454830774
20
-11.1682580083
30
0.0000000000
11
-106.1454830774
21
-13.1682580083
31
0.0000000000
1001
DSTP_XDATA
1002
{
1000
_OWNERHANDLE=00102184E8
1002
}
0
LINE
5
3E1
100
AcDbEntity
8
SYS_DEVICE_BORDER
100
AcDbLine
10
-98.6454830774
20
-14.6682580083
30
0.0000000000
11
-108.6454830774
21
-14.6682580083
31
0.0000000000
1001
DSTP_XDATA
1002
{
1000
_OWNERHANDLE=0010212B58
1002
}
0
LINE
5
3E2
100
AcDbEntity
8
SYS_DEVICE_BORDER
100
AcDbLine
10
-98.6454830774
20
-9.6682580083
30
0.0000000000
11
-98.6454830774
21
-14.6682580083
31
0.0000000000
1001
DSTP_XDATA
1002
{
1000
_OWNERHANDLE=0010212B58
1002
}
0
LINE
5
3E3
100
AcDbEntity
8
SYS_DEVICE_BORDER
100
AcDbLine
10
-108.6454830774
20
-9.6682580083
30
0.0000000000
11
-98.6454830774
21
-9.6682580083
31
0.0000000000
1001
DSTP_XDATA
1002
{
1000
_OWNERHANDLE=0010212B58
1002
}
0
LINE
5
3E4
100
AcDbEntity
8
SYS_DEVICE_BORDER
100
AcDbLine
10
-108.6454830774
20
-14.6682580083
30
0.0000000000
11
-108.6454830774
21
-9.6682580083
31
0.0000000000
1001
DSTP_XDATA
1002
{
1000
_OWNERHANDLE=0010212B58
1002
}
0
TEXT
5
3E5
100
AcDbEntity
8
EL_DEVICE_NAME
100
AcDbText
11
-103.6454830774
21
-8.6682580083
31
0.0000000000
10
-106.3954832090
20
-8.6682580083
30
0.0000000000
40
2.5000000000
50
0.0000000000
41
0.7000000000
51
12.0000000000
72
1
7
R2_5
1
В1.2
100
AcDbText
73
0
1001
DSTP_XDATA
1002
{
1000
_TMPL1=@@[NMO_Name]
1000
_OWNERHANDLE=0010212B58
1002
}
0
INSERT
5
3E6
100
AcDbEntity
8
0
100
AcDbBlockReference
2
EL_POSITION
10
-94.6454830774
20
-12.1682580083
30
0.0000000000
41
1.0000000000
42
1.0000000000
43
1.0000000000
50
0.0000000000
1001
DSTP_XDATA
1002
{
1000
_OWNERHANDLE=0010212B58
1000
_HANDLE=0010217638
1000
_UPGRADE=1
1002
}
0
TEXT
5
3E7
100
AcDbEntity
8
TEXT
100
AcDbText
11
-94.6454830774
21
-11.6682580083
31
0.0000000000
10
-95.1871497987
20
-11.6682580083
30
0.0000000000
40
2.5000000000
50
0.0000000000
41
0.7000000000
51
12.0000000000
72
1
7
R2_5
1
1
100
AcDbText
73
0
1001
DSTP_XDATA
1002
{
1000
_TMPL1=@@[Position]
1000
_OWNERHANDLE=0010217638
1002
}
0
TEXT
5
3E8
100
AcDbEntity
8
TEXT
100
AcDbText
11
-94.6454830774
21
-12.6682580083
31
0.0000000000
10
-96.4788165970
20
-15.1682580083
30
0.0000000000
40
2.5000000000
50
0.0000000000
41
0.7000000000
51
12.0000000000
72
1
7
R2_5
1
1.0
100
AcDbText
73
3
1001
DSTP_XDATA
1002
{
1000
_TMPL1=@@[Power]
1000
_OWNERHANDLE=0010217638
1002
}
0
INSERT
5
3E9
100
AcDbEntity
8
0
100
AcDbBlockReference
2
EL_MOTOR
10
-128.4634981651
20
-30.1272857742
30
0.0000000000
41
1.0000000000
42
1.0000000000
43
1.0000000000
50
0.0000000000
1001
DSTP_XDATA
1002
{
1000
USES=System
1000
USES=devices
1000
#0=Device_Type|TDeviceType|TDT_SilaPotr|РўРёРї СѓСЃС‚СЂРѕР№СЃС‚РІР°
1000
#1=Device_Class|TDeviceClass|TDC_Shell|РљР»Р°СЃСЃ СѓСЃС‚СЂРѕР№СЃС‚РІР°
1000
#2=Device_Group|TDeviceGroup|TDG_ElDevice|Р“СЂСѓРїРїР° СѓСЃС‚СЂРѕР№СЃС‚РІР°
1000
#3=BTY_TreeCoord|GDBString|PLAN_EM_Р”РІРёРіР°С‚РµР»СЊ|РџРѕР·РёС†РёСЏ РІ РґРµСЂРµРІРµ
1000
#4=NMO_Template|GDBString|@@[NMO_BaseName]@@[NameNumber].3|РЁР°Р±Р»РѕРЅ РћР±РѕР·РЅР°С‡РµРЅРёСЏ
1000
#5=NMO_Name|GDBString|Р’1.3|РћР±РѕР·РЅР°С‡РµРЅРёРµ
1000
#6=NMO_BaseName|GDBString|Р’|РљРѕСЂРѕС‚РєРѕРµ РРјСЏ
1000
#7=NameNumber|GDBInteger|1|РќРѕРјРµСЂ
1000
#8=Position|GDBInteger|1|РџРѕР·РёС†РёСЏ РїРѕ Р·Р°РґР°РЅРёСЋ РўРҐ
1000
#9=CalcIP|TCalcIP|_I_from_P|РЎРїРѕСЃРѕР± СЂР°СЃС‡РµС‚Р°
1000
#10=Power|GDBDouble|1.0|РњРѕС‰РЅРѕСЃС‚СЊ, РєР’С‚
1000
#11=Current|GDBDouble|2.17306271458994|РўРѕРє, Рђ
1000
#12=CosPHI|GDBDouble|0.7|Cos(С„Рё)
1000
#13=Ks|GDBDouble|1.0|РљРѕСЌС„С„РёС†РёРµРЅС‚ СЃРїСЂРѕСЃР°
1000
#14=PV|GDBDouble|1.0|РџСЂРѕРґРѕР»Р¶РёС‚РµР»СЊРЅРѕСЃС‚СЊ РІРєР»СЋС‡РµРЅРёСЏ
1000
#15=Voltage|TVoltage|_AC_380V_50Hz|РќР°РїСЂСЏР¶РµРЅРёРµ РїРёС‚Р°РЅРёСЏ
1000
#16=Phase|TPhase|_ABC|Р¤Р°Р·Р°
1000
#17=DB_link|GDBString|El_Motor|РњР°С‚РµСЂРёР°Р»
1000
#18=AmountI|GDBInteger|1|РљРѕР»РёС‡РµСЃС‚РІРѕ
1000
#19=GC_HeadDevice|GDBString|ARK??|
1000
#20=GC_HDShortName|GDBString|??|
1000
#21=GC_HDGroup|GDBString|0|
1000
#22=SerialConnection|GDBInteger|1|
1000
#23=GC_NumberInGroup|GDBInteger|0|РќРѕРјРµСЂ РІ РіСЂСѓРїРїРµ
1000
#24=EL_Cab_AddLength|GDBDouble|0.1|Р”РѕР±Р°РІР»СЏС‚СЊ Рє РґР»РёРЅРµ РєР°Р±РµР»СЏ
1000
#25=GC_Metric|GDBString||
1000
#26=GC_HDGroupTemplate|GDBString||РЁР°Р±Р»РѕРЅ РіСЂСѓРїРїС‹
1000
#27=GC_HeadDeviceTemplate|GDBString||РЁР°Р±Р»РѕРЅ РіРѕР»РѕРІРЅРѕРіРѕ СѓСЃС‚СЂРѕР№СЃС‚РІР°
1000
#28=GC_HDShortNameTemplate|GDBString||РЁР°Р±Р»РѕРЅ РєРѕСЂРѕС‚РєРѕРіРѕ РёРјРµРЅРё РіРѕР»РѕРІРЅРѕРіРѕ СѓСЃС‚СЂРѕР№СЃС‚РІР°
1000
#29=GC_InGroup_Metric|GDBString||РњРµС‚СЂРёРєР° РЅСѓРјРµСЂР°С†РёРё РІ РіСЂСѓРїРїРµ
1000
_OWNERHANDLE=0000000064
1000
_HANDLE=00102127E8
1000
_UPGRADE=1
1002
}
0
INSERT
5
3EA
100
AcDbEntity
8
0
100
AcDbBlockReference
2
CONNECTOR_SQUARE
10
-128.4634981651
20
-30.1272857742
30
0.0000000000
41
1.0000000000
42
1.0000000000
43
1.0000000000
50
0.0000000000
1001
DSTP_XDATA
1002
{
1000
USES=System
1000
USES=connectors
1000
USES=devices
1000
#0=DeviceClass|TDeviceClass|TDC_Unknown|РљР»Р°СЃСЃ СѓСЃС‚СЂРѕР№СЃС‚РІР°
1000
#1=Connector_Type|TConnectorType|TCT_ElCable|РўРёРї СЃРѕРµРґРёРЅРµРЅРёСЏ
1000
#2=Border_Type|TConnectorBorderType|TCBT_Owner|Р“СЂР°РЅРёС†Р° РїРѕРґСЂРµР·РєРё
1000
#3=Connector_Name|GDBString||РРјСЏ СЃРѕРµРґРёРЅРµРЅРёСЏ
1000
#4=Connector_Junction|GDBBoolean|False|Р’РѕР·РјРѕР¶РЅРѕСЃС‚СЊ РѕС‚РІРµС‚РІР»РµРЅРёСЏ
1000
#5=LENGTH_Add|GDBDouble|0.0|Р”РѕР±Р°РІРёС‚СЊ Рє РґР»РёРЅРµ
1000
_OWNERHANDLE=00102127E8
1000
_HANDLE=001021E918
1000
_UPGRADE=1
1002
}
0
LINE
5
3EB
100
AcDbEntity
8
SYS_METRIC
100
AcDbLine
10
-129.4634981651
20
-30.1272857742
30
0.0000000000
11
-127.4634981651
21
-30.1272857742
31
0.0000000000
1001
DSTP_XDATA
1002
{
1000
_OWNERHANDLE=001021E918
1002
}
0
LINE
5
3EC
100
AcDbEntity
8
SYS_METRIC
100
AcDbLine
10
-128.4634981651
20
-29.1272857742
30
0.0000000000
11
-128.4634981651
21
-31.1272857742
31
0.0000000000
1001
DSTP_XDATA
1002
{
1000
_OWNERHANDLE=001021E918
1002
}
0
LINE
5
3ED
100
AcDbEntity
8
SYS_DEVICE_BORDER
100
AcDbLine
10
-120.9634981651
20
-32.6272857742
30
0.0000000000
11
-130.9634981651
21
-32.6272857742
31
0.0000000000
1001
DSTP_XDATA
1002
{
1000
_OWNERHANDLE=00102127E8
1002
}
0
LINE
5
3EE
100
AcDbEntity
8
SYS_DEVICE_BORDER
100
AcDbLine
10
-120.9634981651
20
-27.6272857742
30
0.0000000000
11
-120.9634981651
21
-32.6272857742
31
0.0000000000
1001
DSTP_XDATA
1002
{
1000
_OWNERHANDLE=00102127E8
1002
}
0
LINE
5
3EF
100
AcDbEntity
8
SYS_DEVICE_BORDER
100
AcDbLine
10
-130.9634981651
20
-27.6272857742
30
0.0000000000
11
-120.9634981651
21
-27.6272857742
31
0.0000000000
1001
DSTP_XDATA
1002
{
1000
_OWNERHANDLE=00102127E8
1002
}
0
LINE
5
3F0
100
AcDbEntity
8
SYS_DEVICE_BORDER
100
AcDbLine
10
-130.9634981651
20
-32.6272857742
30
0.0000000000
11
-130.9634981651
21
-27.6272857742
31
0.0000000000
1001
DSTP_XDATA
1002
{
1000
_OWNERHANDLE=00102127E8
1002
}
0
TEXT
5
3F1
100
AcDbEntity
8
EL_DEVICE_NAME
100
AcDbText
11
-125.9634981651
21
-26.6272857742
31
0.0000000000
10
-128.7134983489
20
-26.6272857742
30
0.0000000000
40
2.5000000000
50
0.0000000000
41
0.7000000000
51
12.0000000000
72
1
7
R2_5
1
В1.3
100
AcDbText
73
0
1001
DSTP_XDATA
1002
{
1000
_TMPL1=@@[NMO_Name]
1000
_OWNERHANDLE=00102127E8
1002
}
0
INSERT
5
3F2
100
AcDbEntity
8
0
100
AcDbBlockReference
2
EL_POSITION
10
-116.9634981651
20
-30.1272857742
30
0.0000000000
41
1.0000000000
42
1.0000000000
43
1.0000000000
50
0.0000000000
1001
DSTP_XDATA
1002
{
1000
_OWNERHANDLE=00102127E8
1000
_HANDLE=0010224DB8
1000
_UPGRADE=1
1002
}
0
TEXT
5
3F3
100
AcDbEntity
8
TEXT
100
AcDbText
11
-116.9634981651
21
-29.6272857742
31
0.0000000000
10
-117.5051648864
20
-29.6272857742
30
0.0000000000
40
2.5000000000
50
0.0000000000
41
0.7000000000
51
12.0000000000
72
1
7
R2_5
1
1
100
AcDbText
73
0
1001
DSTP_XDATA
1002
{
1000
_TMPL1=@@[Position]
1000
_OWNERHANDLE=0010224DB8
1002
}
0
TEXT
5
3F4
100
AcDbEntity
8
TEXT
100
AcDbText
11
-116.9634981651
21
-30.6272857742
31
0.0000000000
10
-118.7968316847
20
-33.1272857742
30
0.0000000000
40
2.5000000000
50
0.0000000000
41
0.7000000000
51
12.0000000000
72
1
7
R2_5
1
1.0
100
AcDbText
73
3
1001
DSTP_XDATA
1002
{
1000
_TMPL1=@@[Power]
1000
_OWNERHANDLE=0010224DB8
1002
}
0
INSERT
5
3F5
100
AcDbEntity
8
0
100
AcDbBlockReference
2
EL_MOTOR
10
0.4132218290
20
-23.4026935393
30
0.0000000000
41
1.0000000000
42
1.0000000000
43
1.0000000000
50
0.0000000000
1001
DSTP_XDATA
1002
{
1000
USES=System
1000
USES=devices
1000
#0=Device_Type|TDeviceType|TDT_SilaPotr|РўРёРї СѓСЃС‚СЂРѕР№СЃС‚РІР°
1000
#1=Device_Class|TDeviceClass|TDC_Shell|РљР»Р°СЃСЃ СѓСЃС‚СЂРѕР№СЃС‚РІР°
1000
#2=Device_Group|TDeviceGroup|TDG_ElDevice|Р“СЂСѓРїРїР° СѓСЃС‚СЂРѕР№СЃС‚РІР°
1000
#3=BTY_TreeCoord|GDBString|PLAN_EM_Р”РІРёРіР°С‚РµР»СЊ|РџРѕР·РёС†РёСЏ РІ РґРµСЂРµРІРµ
1000
#4=NMO_Template|GDBString|@@[NMO_BaseName]@@[NameNumber].1|РЁР°Р±Р»РѕРЅ РћР±РѕР·РЅР°С‡РµРЅРёСЏ
1000
#5=NMO_Name|GDBString|Р’2.1|РћР±РѕР·РЅР°С‡РµРЅРёРµ
1000
#6=NMO_BaseName|GDBString|Р’|РљРѕСЂРѕС‚РєРѕРµ РРјСЏ
1000
#7=NameNumber|GDBInteger|2|РќРѕРјРµСЂ
1000
#8=Position|GDBInteger|1|РџРѕР·РёС†РёСЏ РїРѕ Р·Р°РґР°РЅРёСЋ РўРҐ
1000
#9=CalcIP|TCalcIP|_I_from_P|РЎРїРѕСЃРѕР± СЂР°СЃС‡РµС‚Р°
1000
#10=Power|GDBDouble|1.0|РњРѕС‰РЅРѕСЃС‚СЊ, РєР’С‚
1000
#11=Current|GDBDouble|2.17306271458994|РўРѕРє, Рђ
1000
#12=CosPHI|GDBDouble|0.7|Cos(С„Рё)
1000
#13=Ks|GDBDouble|1.0|РљРѕСЌС„С„РёС†РёРµРЅС‚ СЃРїСЂРѕСЃР°
1000
#14=PV|GDBDouble|1.0|РџСЂРѕРґРѕР»Р¶РёС‚РµР»СЊРЅРѕСЃС‚СЊ РІРєР»СЋС‡РµРЅРёСЏ
1000
#15=Voltage|TVoltage|_AC_380V_50Hz|РќР°РїСЂСЏР¶РµРЅРёРµ РїРёС‚Р°РЅРёСЏ
1000
#16=Phase|TPhase|_ABC|Р¤Р°Р·Р°
1000
#17=DB_link|GDBString|El_Motor|РњР°С‚РµСЂРёР°Р»
1000
#18=AmountI|GDBInteger|1|РљРѕР»РёС‡РµСЃС‚РІРѕ
1000
#19=GC_HeadDevice|GDBString|ARK??|
1000
#20=GC_HDShortName|GDBString|??|
1000
#21=GC_HDGroup|GDBString|0|
1000
#22=SerialConnection|GDBInteger|1|
1000
#23=GC_NumberInGroup|GDBInteger|0|РќРѕРјРµСЂ РІ РіСЂСѓРїРїРµ
1000
#24=EL_Cab_AddLength|GDBDouble|0.1|Р”РѕР±Р°РІР»СЏС‚СЊ Рє РґР»РёРЅРµ РєР°Р±РµР»СЏ
1000
#25=GC_Metric|GDBString||
1000
#26=GC_HDGroupTemplate|GDBString||РЁР°Р±Р»РѕРЅ РіСЂСѓРїРїС‹
1000
#27=GC_HeadDeviceTemplate|GDBString||РЁР°Р±Р»РѕРЅ РіРѕР»РѕРІРЅРѕРіРѕ СѓСЃС‚СЂРѕР№СЃС‚РІР°
1000
#28=GC_HDShortNameTemplate|GDBString||РЁР°Р±Р»РѕРЅ РєРѕСЂРѕС‚РєРѕРіРѕ РёРјРµРЅРё РіРѕР»РѕРІРЅРѕРіРѕ СѓСЃС‚СЂРѕР№СЃС‚РІР°
1000
#29=GC_InGroup_Metric|GDBString||РњРµС‚СЂРёРєР° РЅСѓРјРµСЂР°С†РёРё РІ РіСЂСѓРїРїРµ
1000
_OWNERHANDLE=0000000064
1000
_HANDLE=001021FA98
1000
_UPGRADE=1
1002
}
0
INSERT
5
3F6
100
AcDbEntity
8
0
100
AcDbBlockReference
2
CONNECTOR_SQUARE
10
0.4132218290
20
-23.4026935393
30
0.0000000000
41
1.0000000000
42
1.0000000000
43
1.0000000000
50
0.0000000000
1001
DSTP_XDATA
1002
{
1000
USES=System
1000
USES=connectors
1000
USES=devices
1000
#0=DeviceClass|TDeviceClass|TDC_Unknown|РљР»Р°СЃСЃ СѓСЃС‚СЂРѕР№СЃС‚РІР°
1000
#1=Connector_Type|TConnectorType|TCT_ElCable|РўРёРї СЃРѕРµРґРёРЅРµРЅРёСЏ
1000
#2=Border_Type|TConnectorBorderType|TCBT_Owner|Р“СЂР°РЅРёС†Р° РїРѕРґСЂРµР·РєРё
1000
#3=Connector_Name|GDBString||РРјСЏ СЃРѕРµРґРёРЅРµРЅРёСЏ
1000
#4=Connector_Junction|GDBBoolean|False|Р’РѕР·РјРѕР¶РЅРѕСЃС‚СЊ РѕС‚РІРµС‚РІР»РµРЅРёСЏ
1000
#5=LENGTH_Add|GDBDouble|0.0|Р”РѕР±Р°РІРёС‚СЊ Рє РґР»РёРЅРµ
1000
_OWNERHANDLE=001021FA98
1000
_HANDLE=001023AAA8
1000
_UPGRADE=1
1002
}
0
LINE
5
3F7
100
AcDbEntity
8
SYS_METRIC
100
AcDbLine
10
-0.5867781710
20
-23.4026935393
30
0.0000000000
11
1.4132218290
21
-23.4026935393
31
0.0000000000
1001
DSTP_XDATA
1002
{
1000
_OWNERHANDLE=001023AAA8
1002
}
0
LINE
5
3F8
100
AcDbEntity
8
SYS_METRIC
100
AcDbLine
10
0.4132218290
20
-22.4026935393
30
0.0000000000
11
0.4132218290
21
-24.4026935393
31
0.0000000000
1001
DSTP_XDATA
1002
{
1000
_OWNERHANDLE=001023AAA8
1002
}
0
LINE
5
3F9
100
AcDbEntity
8
SYS_DEVICE_BORDER
100
AcDbLine
10
7.9132218290
20
-25.9026935393
30
0.0000000000
11
-2.0867781710
21
-25.9026935393
31
0.0000000000
1001
DSTP_XDATA
1002
{
1000
_OWNERHANDLE=001021FA98
1002
}
0
LINE
5
3FA
100
AcDbEntity
8
SYS_DEVICE_BORDER
100
AcDbLine
10
7.9132218290
20
-20.9026935393
30
0.0000000000
11
7.9132218290
21
-25.9026935393
31
0.0000000000
1001
DSTP_XDATA
1002
{
1000
_OWNERHANDLE=001021FA98
1002
}
0
LINE
5
3FB
100
AcDbEntity
8
SYS_DEVICE_BORDER
100
AcDbLine
10
-2.0867781710
20
-20.9026935393
30
0.0000000000
11
7.9132218290
21
-20.9026935393
31
0.0000000000
1001
DSTP_XDATA
1002
{
1000
_OWNERHANDLE=001021FA98
1002
}
0
LINE
5
3FC
100
AcDbEntity
8
SYS_DEVICE_BORDER
100
AcDbLine
10
-2.0867781710
20
-25.9026935393
30
0.0000000000
11
-2.0867781710
21
-20.9026935393
31
0.0000000000
1001
DSTP_XDATA
1002
{
1000
_OWNERHANDLE=001021FA98
1002
}
0
TEXT
5
3FD
100
AcDbEntity
8
EL_DEVICE_NAME
100
AcDbText
11
2.9132218290
21
-19.9026935393
31
0.0000000000
10
0.1632216974
20
-19.9026935393
30
0.0000000000
40
2.5000000000
50
0.0000000000
41
0.7000000000
51
12.0000000000
72
1
7
R2_5
1
В2.1
100
AcDbText
73
0
1001
DSTP_XDATA
1002
{
1000
_TMPL1=@@[NMO_Name]
1000
_OWNERHANDLE=001021FA98
1002
}
0
INSERT
5
3FE
100
AcDbEntity
8
0
100
AcDbBlockReference
2
EL_POSITION
10
11.9132218290
20
-23.4026935393
30
0.0000000000
41
1.0000000000
42
1.0000000000
43
1.0000000000
50
0.0000000000
1001
DSTP_XDATA
1002
{
1000
_OWNERHANDLE=001021FA98
1000
_HANDLE=0010240848
1000
_UPGRADE=1
1002
}
0
TEXT
5
3FF
100
AcDbEntity
8
TEXT
100
AcDbText
11
11.9132218290
21
-22.9026935393
31
0.0000000000
10
11.3715551077
20
-22.9026935393
30
0.0000000000
40
2.5000000000
50
0.0000000000
41
0.7000000000
51
12.0000000000
72
1
7
R2_5
1
1
100
AcDbText
73
0
1001
DSTP_XDATA
1002
{
1000
_TMPL1=@@[Position]
1000
_OWNERHANDLE=0010240848
1002
}
0
TEXT
5
400
100
AcDbEntity
8
TEXT
100
AcDbText
11
11.9132218290
21
-23.9026935393
31
0.0000000000
10
10.0798883094
20
-26.4026935393
30
0.0000000000
40
2.5000000000
50
0.0000000000
41
0.7000000000
51
12.0000000000
72
1
7
R2_5
1
1.0
100
AcDbText
73
3
1001
DSTP_XDATA
1002
{
1000
_TMPL1=@@[Power]
1000
_OWNERHANDLE=0010240848
1002
}
0
POLYLINE
5
401
100
AcDbEntity
8
SYS_METRIC
370
20
100
AcDb3dPolyline
66
1
10
0.0000000000
20
0.0000000000
30
0.0000000000
70
8
1001
DSTP_XDATA
1002
{
1000
USES=System
1000
USES=cables
1000
#0=NMO_Name|GDBString|РЁР 4-2|РћР±РѕР·РЅР°С‡РµРЅРёРµ
1000
#1=NMO_BaseName|GDBString|@|РљРѕСЂРѕС‚РєРѕРµ РРјСЏ
1000
#2=NMO_Prefix|GDBString||РџСЂРµС„РёРєСЃ
1000
#3=NMO_PrefixTemplate|GDBString||РЁР°Р±Р»РѕРЅ РїСЂРµС„РёРєСЃР°
1000
#4=NMO_Suffix|GDBString||РЎСѓС„С„РёРєСЃ
1000
#5=NMO_SuffixTemplate|GDBString||РЁР°Р±Р»РѕРЅ СЃСѓС„С„РёРєСЃР°
1000
#6=NMO_Template|GDBString|@@[NMO_Prefix]@@[GC_HeadDevice]-@@[GC_HDGroup]@@[NMO_Suffix]|РЁР°Р±Р»РѕРЅ РћР±РѕР·РЅР°С‡РµРЅРёСЏ
1000
#7=DB_link|GDBString|_EQ000000|РњР°С‚РµСЂРёР°Р»
1000
#8=LENGTH_RoundTo|GDBInteger|0|РћРєСЂСѓРіР»СЏС‚СЊ РґРѕ
1000
#9=LENGTH_Add|GDBDouble|4.0|Р”РѕР±Р°РІРёС‚СЊ Рє РґР»РёРЅРµ
1000
#10=LENGTH_Scale|GDBDouble|0.1|РњР°СЃС€С‚Р°Р±
1000
#11=GC_HeadDevice|GDBString|РЁР 4|Р“РѕР»РѕРІРЅРѕРµ СѓСЃС‚СЂРѕР№СЃС‚РІРѕ
1000
#12=GC_HDShortName|GDBString|4|РљРѕСЂРѕС‚РєРѕРµ РёРјСЏ РіРѕР»РѕРІРЅРѕРіРѕ СѓСЃС‚СЂРѕР№СЃС‚РІР°
1000
#13=GC_HDGroup|GDBString|2|Р“СЂСѓРїРїР° РІ РіРѕР»РѕРІРЅРѕРј СѓСЃС‚СЂРѕР№СЃС‚РІРµ
1000
#14=CABLE_Type|TCableType|TCT_Control|РўРёРї
1000
#15=CABLE_Segment|GDBInteger|0|РЎРµРіРјРµРЅС‚
1000
#16=CABLE_WireCount|GDBInteger|0|Р§РёСЃР»Рѕ Р¶РёР»
1000
#17=CABLE_TotalCD|GDBInteger|4|РџРѕРґРєР»СЋС‡РµРЅРѕ СѓСЃС‚СЂРѕР№СЃС‚РІ
1000
#18=AmountD|GDBDouble|9.0|Р”Р»РёРЅР°
1000
#19=GC_Metric|GDBString||
1000
#20=GC_HDGroupTemplate|GDBString||РЁР°Р±Р»РѕРЅ РіСЂСѓРїРїС‹
1000
#21=GC_HeadDeviceTemplate|GDBString||РЁР°Р±Р»РѕРЅ РіРѕР»РѕРІРЅРѕРіРѕ СѓСЃС‚СЂРѕР№СЃС‚РІР°
1000
#22=GC_HDShortNameTemplate|GDBString||РЁР°Р±Р»РѕРЅ РєРѕСЂРѕС‚РєРѕРіРѕ РёРјРµРЅРё РіРѕР»РѕРІРЅРѕРіРѕ СѓСЃС‚СЂРѕР№СЃС‚РІР°
1000
#23=GC_InGroup_Metric|GDBString||РњРµС‚СЂРёРєР° РЅСѓРјРµСЂР°С†РёРё РІ РіСЂСѓРїРїРµ
1000
_OWNERHANDLE=0000000064
1000
_UPGRADE=1
1000
_LAYER=0
1002
}
0
VERTEX
5
402
100
AcDbEntity
8
0
370
20
100
AcDbVertex
100
AcDb3dPolylineVertex
10
18.6110418714
20
17.8317538672
30
0.0000000000
0
VERTEX
5
403
100
AcDbEntity
8
0
370
20
100
AcDbVertex
100
AcDb3dPolylineVertex
10
21.7115353074
20
7.9291182941
30
0.0000000000
0
VERTEX
5
404
100
AcDbEntity
8
0
370
20
100
AcDbVertex
100
AcDb3dPolylineVertex
10
14.8394322798
20
-1.9306197215
30
0.0000000000
0
VERTEX
5
405
100
AcDbEntity
8
0
370
20
100
AcDbVertex
100
AcDb3dPolylineVertex
10
0.4132218290
20
-23.4026935393
30
0.0000000000
0
SEQEND
5
406
100
AcDbEntity
8
0
370
20
0
LINE
5
407
100
AcDbEntity
8
0
370
20
100
AcDbLine
10
19.3937863774
20
15.3317538672
30
0.0000000000
11
21.4127406209
21
8.8834357126
31
0.0000000000
1001
DSTP_XDATA
1002
{
1000
_OWNERHANDLE=6E
1002
}
0
LINE
5
408
100
AcDbEntity
8
0
370
20
100
AcDbLine
10
21.1397334384
20
7.1087265446
30
0.0000000000
11
16.5818982096
21
0.5693802785
31
0.0000000000
1001
DSTP_XDATA
1002
{
1000
_OWNERHANDLE=6E
1002
}
0
LINE
5
409
100
AcDbEntity
8
0
370
20
100
AcDbLine
10
13.1597842666
20
-4.4306197215
30
0.0000000000
11
2.0928698422
21
-20.9026935393
31
0.0000000000
1001
DSTP_XDATA
1002
{
1000
_OWNERHANDLE=6E
1002
}
0
INSERT
5
40A
100
AcDbEntity
8
0
100
AcDbBlockReference
2
EL_CONTACTOR
10
14.8394322798
20
-1.9306197215
30
0.0000000000
41
1.0000000000
42
1.0000000000
43
1.0000000000
50
0.0000000000
1001
DSTP_XDATA
1002
{
1000
USES=System
1000
USES=devices
1000
#0=NMO_Name|GDBString|KM1|РћР±РѕР·РЅР°С‡РµРЅРёРµ
1000
#1=NMO_BaseName|GDBString|KM|РљРѕСЂРѕС‚РєРѕРµ РРјСЏ
1000
#2=NMO_Prefix|GDBString||РџСЂРµС„РёРєСЃ
1000
#3=NMO_Suffix|GDBString|1|РЎСѓС„С„РёРєСЃ
1000
#4=NMO_Template|GDBString|@@[NMO_Prefix]@@[NMO_BaseName]@@[NMO_Suffix]|РЁР°Р±Р»РѕРЅ РћР±РѕР·РЅР°С‡РµРЅРёСЏ
1000
#5=DB_link|GDBString|??|РњР°С‚РµСЂРёР°Р»
1000
#6=GC_HeadDevice|GDBString|??|
1000
#7=GC_HDShortName|GDBString|??|
1000
#8=GC_HDGroup|GDBString|0|
1000
#9=SerialConnection|GDBInteger|1|
1000
#10=GC_NumberInGroup|GDBInteger|0|
1000
#11=Device_Type|TDeviceType|TDT_SilaComm|РўРёРї СѓСЃС‚СЂРѕР№СЃС‚РІР°
1000
#12=Device_Class|TDeviceClass|TDC_Shell|РљР»Р°СЃСЃ СѓСЃС‚СЂРѕР№СЃС‚РІР°
1000
#13=Device_Group|TDeviceGroup|TDG_ElDevice|Р“СЂСѓРїРїР° СѓСЃС‚СЂРѕР№СЃС‚РІР°
1000
#14=BTY_TreeCoord|GDBString|PLAN_EM_РџСѓСЃРєР°С‚РµР»СЊ|РџРѕР·РёС†РёСЏ РІ РґРµСЂРµРІРµ
1000
#15=GC_Metric|GDBString||
1000
#16=GC_HDGroupTemplate|GDBString||РЁР°Р±Р»РѕРЅ РіСЂСѓРїРїС‹
1000
#17=GC_HeadDeviceTemplate|GDBString||РЁР°Р±Р»РѕРЅ РіРѕР»РѕРІРЅРѕРіРѕ СѓСЃС‚СЂРѕР№СЃС‚РІР°
1000
#18=GC_HDShortNameTemplate|GDBString||РЁР°Р±Р»РѕРЅ РєРѕСЂРѕС‚РєРѕРіРѕ РёРјРµРЅРё РіРѕР»РѕРІРЅРѕРіРѕ СѓСЃС‚СЂРѕР№СЃС‚РІР°
1000
#19=GC_InGroup_Metric|GDBString||РњРµС‚СЂРёРєР° РЅСѓРјРµСЂР°С†РёРё РІ РіСЂСѓРїРїРµ
1000
_OWNERHANDLE=0000000064
1000
_HANDLE=0010235C38
1000
_UPGRADE=1
1002
}
0
INSERT
5
40B
100
AcDbEntity
8
0
100
AcDbBlockReference
2
CONNECTOR_SQUARE
10
14.8394322798
20
-1.9306197215
30
0.0000000000
41
1.0000000000
42
1.0000000000
43
1.0000000000
50
0.0000000000
1001
DSTP_XDATA
1002
{
1000
USES=System
1000
USES=connectors
1000
USES=devices
1000
#0=DeviceClass|TDeviceClass|TDC_Unknown|РљР»Р°СЃСЃ СѓСЃС‚СЂРѕР№СЃС‚РІР°
1000
#1=Connector_Type|TConnectorType|TCT_ElCable|РўРёРї СЃРѕРµРґРёРЅРµРЅРёСЏ
1000
#2=Border_Type|TConnectorBorderType|TCBT_Owner|Р“СЂР°РЅРёС†Р° РїРѕРґСЂРµР·РєРё
1000
#3=Connector_Name|GDBString||РРјСЏ СЃРѕРµРґРёРЅРµРЅРёСЏ
1000
#4=Connector_Junction|GDBBoolean|False|Р’РѕР·РјРѕР¶РЅРѕСЃС‚СЊ РѕС‚РІРµС‚РІР»РµРЅРёСЏ
1000
#5=LENGTH_Add|GDBDouble|0.0|Р”РѕР±Р°РІРёС‚СЊ Рє РґР»РёРЅРµ
1000
_OWNERHANDLE=0010235C38
1000
_HANDLE=001023C148
1000
_UPGRADE=1
1002
}
0
LINE
5
40C
100
AcDbEntity
8
SYS_METRIC
100
AcDbLine
10
13.8394322798
20
-1.9306197215
30
0.0000000000
11
15.8394322798
21
-1.9306197215
31
0.0000000000
1001
DSTP_XDATA
1002
{
1000
_OWNERHANDLE=001023C148
1002
}
0
LINE
5
40D
100
AcDbEntity
8
SYS_METRIC
100
AcDbLine
10
14.8394322798
20
-0.9306197215
30
0.0000000000
11
14.8394322798
21
-2.9306197215
31
0.0000000000
1001
DSTP_XDATA
1002
{
1000
_OWNERHANDLE=001023C148
1002
}
0
LINE
5
40E
100
AcDbEntity
8
SYS_DEVICE_BORDER
100
AcDbLine
10
17.3394322798
20
-4.4306197215
30
0.0000000000
11
12.3394322798
21
-4.4306197215
31
0.0000000000
1001
DSTP_XDATA
1002
{
1000
_OWNERHANDLE=0010235C38
1002
}
0
LINE
5
40F
100
AcDbEntity
8
SYS_DEVICE_BORDER
100
AcDbLine
10
17.3394322798
20
0.5693802785
30
0.0000000000
11
17.3394322798
21
-4.4306197215
31
0.0000000000
1001
DSTP_XDATA
1002
{
1000
_OWNERHANDLE=0010235C38
1002
}
0
LINE
5
410
100
AcDbEntity
8
SYS_DEVICE_BORDER
100
AcDbLine
10
12.3394322798
20
0.5693802785
30
0.0000000000
11
17.3394322798
21
0.5693802785
31
0.0000000000
1001
DSTP_XDATA
1002
{
1000
_OWNERHANDLE=0010235C38
1002
}
0
LINE
5
411
100
AcDbEntity
8
SYS_DEVICE_BORDER
100
AcDbLine
10
12.3394322798
20
-4.4306197215
30
0.0000000000
11
12.3394322798
21
0.5693802785
31
0.0000000000
1001
DSTP_XDATA
1002
{
1000
_OWNERHANDLE=0010235C38
1002
}
0
TEXT
5
412
100
AcDbEntity
8
EL_DEVICE_NAME
100
AcDbText
11
14.8394322798
21
1.5693802785
31
0.0000000000
10
12.2977655734
20
1.5693802785
30
0.0000000000
40
2.5000000000
50
0.0000000000
41
0.7000000000
51
12.0000000000
72
1
7
R2_5
1
KM1
100
AcDbText
73
0
1001
DSTP_XDATA
1002
{
1000
_TMPL1=@@[NMO_Name]
1000
_OWNERHANDLE=0010235C38
1002
}
0
INSERT
5
413
100
AcDbEntity
8
0
100
AcDbBlockReference
2
KIP_UKP
10
21.7115353074
20
7.9291182941
30
0.0000000000
41
1.0000000000
42
1.0000000000
43
1.0000000000
50
0.0000000000
1001
DSTP_XDATA
1002
{
1000
USES=System
1000
USES=devices
1000
#0=NMO_Name|GDBString|C2|РћР±РѕР·РЅР°С‡РµРЅРёРµ
1000
#1=NMO_BaseName|GDBString|C|РљРѕСЂРѕС‚РєРѕРµ РРјСЏ
1000
#2=NMO_Prefix|GDBString||РџСЂРµС„РёРєСЃ
1000
#3=NMO_Suffix|GDBString|2|РЎСѓС„С„РёРєСЃ
1000
#4=NMO_Template|GDBString|@@[NMO_Prefix]@@[NMO_BaseName]@@[NMO_Suffix]|РЁР°Р±Р»РѕРЅ РћР±РѕР·РЅР°С‡РµРЅРёСЏ
1000
#5=DB_link|GDBString|РљРѕСЂРѕР±РєР°|РњР°С‚РµСЂРёР°Р»
1000
#6=EL_Cab_AddLength|GDBDouble|0.1|Р”РѕР±Р°РІР»СЏС‚СЊ Рє РґР»РёРЅРµ РєР°Р±РµР»СЏ
1000
#7=Device_Type|TDeviceType|TDT_Junction|РўРёРї СѓСЃС‚СЂРѕР№СЃС‚РІР°
1000
#8=Device_Class|TDeviceClass|TDC_Shell|РљР»Р°СЃСЃ СѓСЃС‚СЂРѕР№СЃС‚РІР°
1000
#9=Device_Group|TDeviceGroup|TDG_ElDevice|Р“СЂСѓРїРїР° СѓСЃС‚СЂРѕР№СЃС‚РІР°
1000
#10=BTY_TreeCoord|GDBString|PLAN_KIPIA_РљРѕСЂРѕР±РєР° РѕС‚РІРµС‚РІРёС‚РµР»СЊРЅР°СЏ|РџРѕР·РёС†РёСЏ РІ РґРµСЂРµРІРµ
1000
_OWNERHANDLE=0000000064
1000
_HANDLE=0010234608
1000
_UPGRADE=1
1002
}
0
INSERT
5
414
100
AcDbEntity
8
0
100
AcDbBlockReference
2
CONNECTOR_SQUARE
10
21.7115353074
20
7.9291182941
30
0.0000000000
41
1.0000000000
42
1.0000000000
43
1.0000000000
50
0.0000000000
1001
DSTP_XDATA
1002
{
1000
USES=System
1000
USES=connectors
1000
USES=devices
1000
#0=DeviceClass|TDeviceClass|TDC_Unknown|РљР»Р°СЃСЃ СѓСЃС‚СЂРѕР№СЃС‚РІР°
1000
#1=Connector_Type|TConnectorType|TCT_ElCable|РўРёРї СЃРѕРµРґРёРЅРµРЅРёСЏ
1000
#2=Border_Type|TConnectorBorderType|TCBT_Owner|Р“СЂР°РЅРёС†Р° РїРѕРґСЂРµР·РєРё
1000
#3=Connector_Name|GDBString||РРјСЏ СЃРѕРµРґРёРЅРµРЅРёСЏ
1000
#4=Connector_Junction|GDBBoolean|False|Р’РѕР·РјРѕР¶РЅРѕСЃС‚СЊ РѕС‚РІРµС‚РІР»РµРЅРёСЏ
1000
#5=LENGTH_Add|GDBDouble|0.0|Р”РѕР±Р°РІРёС‚СЊ Рє РґР»РёРЅРµ
1000
_OWNERHANDLE=0010234608
1000
_HANDLE=0010234D18
1000
_UPGRADE=1
1002
}
0
LINE
5
415
100
AcDbEntity
8
SYS_METRIC
100
AcDbLine
10
20.7115353074
20
7.9291182941
30
0.0000000000
11
22.7115353074
21
7.9291182941
31
0.0000000000
1001
DSTP_XDATA
1002
{
1000
_OWNERHANDLE=0010234D18
1002
}
0
LINE
5
416
100
AcDbEntity
8
SYS_METRIC
100
AcDbLine
10
21.7115353074
20
8.9291182941
30
0.0000000000
11
21.7115353074
21
6.9291182941
31
0.0000000000
1001
DSTP_XDATA
1002
{
1000
_OWNERHANDLE=0010234D18
1002
}
0
TEXT
5
417
100
AcDbEntity
8
SYS_METRIC
100
AcDbText
11
21.7115353074
21
9.9291182941
31
0.0000000000
10
20.2948686382
20
9.9291182941
30
0.0000000000
40
2.5000000000
50
0.0000000000
41
0.7000000000
51
12.0000000000
72
1
7
R2_5
1
C2
100
AcDbText
73
0
1001
DSTP_XDATA
1002
{
1000
_TMPL1=@@[NMO_Name]
1000
_OWNERHANDLE=0010234608
1002
}
0
CIRCLE
5
418
100
AcDbEntity
8
SYS_DEVICE_BORDER
100
AcDbCircle
10
21.7115353074
20
7.9291182941
30
0.0000000000
40
1.0000000000
1001
DSTP_XDATA
1002
{
1000
_OWNERHANDLE=0010234608
1002
}
0
INSERT
5
419
100
AcDbEntity
8
0
100
AcDbBlockReference
2
EL_MOTOR
10
37.6739188119
20
-23.4026935393
30
0.0000000000
41
1.0000000000
42
1.0000000000
43
1.0000000000
50
0.0000000000
1001
DSTP_XDATA
1002
{
1000
USES=System
1000
USES=devices
1000
#0=Device_Type|TDeviceType|TDT_SilaPotr|РўРёРї СѓСЃС‚СЂРѕР№СЃС‚РІР°
1000
#1=Device_Class|TDeviceClass|TDC_Shell|РљР»Р°СЃСЃ СѓСЃС‚СЂРѕР№СЃС‚РІР°
1000
#2=Device_Group|TDeviceGroup|TDG_ElDevice|Р“СЂСѓРїРїР° СѓСЃС‚СЂРѕР№СЃС‚РІР°
1000
#3=BTY_TreeCoord|GDBString|PLAN_EM_Р”РІРёРіР°С‚РµР»СЊ|РџРѕР·РёС†РёСЏ РІ РґРµСЂРµРІРµ
1000
#4=NMO_Template|GDBString|@@[NMO_BaseName]@@[NameNumber].2|РЁР°Р±Р»РѕРЅ РћР±РѕР·РЅР°С‡РµРЅРёСЏ
1000
#5=NMO_Name|GDBString|Р’2.2|РћР±РѕР·РЅР°С‡РµРЅРёРµ
1000
#6=NMO_BaseName|GDBString|Р’|РљРѕСЂРѕС‚РєРѕРµ РРјСЏ
1000
#7=NameNumber|GDBInteger|2|РќРѕРјРµСЂ
1000
#8=Position|GDBInteger|1|РџРѕР·РёС†РёСЏ РїРѕ Р·Р°РґР°РЅРёСЋ РўРҐ
1000
#9=CalcIP|TCalcIP|_I_from_P|РЎРїРѕСЃРѕР± СЂР°СЃС‡РµС‚Р°
1000
#10=Power|GDBDouble|1.0|РњРѕС‰РЅРѕСЃС‚СЊ, РєР’С‚
1000
#11=Current|GDBDouble|2.17306271458994|РўРѕРє, Рђ
1000
#12=CosPHI|GDBDouble|0.7|Cos(С„Рё)
1000
#13=Ks|GDBDouble|1.0|РљРѕСЌС„С„РёС†РёРµРЅС‚ СЃРїСЂРѕСЃР°
1000
#14=PV|GDBDouble|1.0|РџСЂРѕРґРѕР»Р¶РёС‚РµР»СЊРЅРѕСЃС‚СЊ РІРєР»СЋС‡РµРЅРёСЏ
1000
#15=Voltage|TVoltage|_AC_380V_50Hz|РќР°РїСЂСЏР¶РµРЅРёРµ РїРёС‚Р°РЅРёСЏ
1000
#16=Phase|TPhase|_ABC|Р¤Р°Р·Р°
1000
#17=DB_link|GDBString|El_Motor|РњР°С‚РµСЂРёР°Р»
1000
#18=AmountI|GDBInteger|1|РљРѕР»РёС‡РµСЃС‚РІРѕ
1000
#19=GC_HeadDevice|GDBString|ARK??|
1000
#20=GC_HDShortName|GDBString|??|
1000
#21=GC_HDGroup|GDBString|0|
1000
#22=SerialConnection|GDBInteger|1|
1000
#23=GC_NumberInGroup|GDBInteger|0|РќРѕРјРµСЂ РІ РіСЂСѓРїРїРµ
1000
#24=EL_Cab_AddLength|GDBDouble|0.1|Р”РѕР±Р°РІР»СЏС‚СЊ Рє РґР»РёРЅРµ РєР°Р±РµР»СЏ
1000
#25=GC_Metric|GDBString||
1000
#26=GC_HDGroupTemplate|GDBString||РЁР°Р±Р»РѕРЅ РіСЂСѓРїРїС‹
1000
#27=GC_HeadDeviceTemplate|GDBString||РЁР°Р±Р»РѕРЅ РіРѕР»РѕРІРЅРѕРіРѕ СѓСЃС‚СЂРѕР№СЃС‚РІР°
1000
#28=GC_HDShortNameTemplate|GDBString||РЁР°Р±Р»РѕРЅ РєРѕСЂРѕС‚РєРѕРіРѕ РёРјРµРЅРё РіРѕР»РѕРІРЅРѕРіРѕ СѓСЃС‚СЂРѕР№СЃС‚РІР°
1000
#29=GC_InGroup_Metric|GDBString||РњРµС‚СЂРёРєР° РЅСѓРјРµСЂР°С†РёРё РІ РіСЂСѓРїРїРµ
1000
_OWNERHANDLE=0000000064
1000
_HANDLE=001022C528
1000
_UPGRADE=1
1002
}
0
INSERT
5
41A
100
AcDbEntity
8
0
100
AcDbBlockReference
2
CONNECTOR_SQUARE
10
37.6739188119
20
-23.4026935393
30
0.0000000000
41
1.0000000000
42
1.0000000000
43
1.0000000000
50
0.0000000000
1001
DSTP_XDATA
1002
{
1000
USES=System
1000
USES=connectors
1000
USES=devices
1000
#0=DeviceClass|TDeviceClass|TDC_Unknown|РљР»Р°СЃСЃ СѓСЃС‚СЂРѕР№СЃС‚РІР°
1000
#1=Connector_Type|TConnectorType|TCT_ElCable|РўРёРї СЃРѕРµРґРёРЅРµРЅРёСЏ
1000
#2=Border_Type|TConnectorBorderType|TCBT_Owner|Р“СЂР°РЅРёС†Р° РїРѕРґСЂРµР·РєРё
1000
#3=Connector_Name|GDBString||РРјСЏ СЃРѕРµРґРёРЅРµРЅРёСЏ
1000
#4=Connector_Junction|GDBBoolean|False|Р’РѕР·РјРѕР¶РЅРѕСЃС‚СЊ РѕС‚РІРµС‚РІР»РµРЅРёСЏ
1000
#5=LENGTH_Add|GDBDouble|0.0|Р”РѕР±Р°РІРёС‚СЊ Рє РґР»РёРЅРµ
1000
_OWNERHANDLE=001022C528
1000
_HANDLE=0010238A88
1000
_UPGRADE=1
1002
}
0
LINE
5
41B
100
AcDbEntity
8
SYS_METRIC
100
AcDbLine
10
36.6739188119
20
-23.4026935393
30
0.0000000000
11
38.6739188119
21
-23.4026935393
31
0.0000000000
1001
DSTP_XDATA
1002
{
1000
_OWNERHANDLE=0010238A88
1002
}
0
LINE
5
41C
100
AcDbEntity
8
SYS_METRIC
100
AcDbLine
10
37.6739188119
20
-22.4026935393
30
0.0000000000
11
37.6739188119
21
-24.4026935393
31
0.0000000000
1001
DSTP_XDATA
1002
{
1000
_OWNERHANDLE=0010238A88
1002
}
0
LINE
5
41D
100
AcDbEntity
8
SYS_DEVICE_BORDER
100
AcDbLine
10
45.1739188119
20
-25.9026935393
30
0.0000000000
11
35.1739188119
21
-25.9026935393
31
0.0000000000
1001
DSTP_XDATA
1002
{
1000
_OWNERHANDLE=001022C528
1002
}
0
LINE
5
41E
100
AcDbEntity
8
SYS_DEVICE_BORDER
100
AcDbLine
10
45.1739188119
20
-20.9026935393
30
0.0000000000
11
45.1739188119
21
-25.9026935393
31
0.0000000000
1001
DSTP_XDATA
1002
{
1000
_OWNERHANDLE=001022C528
1002
}
0
LINE
5
41F
100
AcDbEntity
8
SYS_DEVICE_BORDER
100
AcDbLine
10
35.1739188119
20
-20.9026935393
30
0.0000000000
11
45.1739188119
21
-20.9026935393
31
0.0000000000
1001
DSTP_XDATA
1002
{
1000
_OWNERHANDLE=001022C528
1002
}
0
LINE
5
420
100
AcDbEntity
8
SYS_DEVICE_BORDER
100
AcDbLine
10
35.1739188119
20
-25.9026935393
30
0.0000000000
11
35.1739188119
21
-20.9026935393
31
0.0000000000
1001
DSTP_XDATA
1002
{
1000
_OWNERHANDLE=001022C528
1002
}
0
TEXT
5
421
100
AcDbEntity
8
EL_DEVICE_NAME
100
AcDbText
11
40.1739188119
21
-19.9026935393
31
0.0000000000
10
37.4239187324
20
-19.9026935393
30
0.0000000000
40
2.5000000000
50
0.0000000000
41
0.7000000000
51
12.0000000000
72
1
7
R2_5
1
В2.2
100
AcDbText
73
0
1001
DSTP_XDATA
1002
{
1000
_TMPL1=@@[NMO_Name]
1000
_OWNERHANDLE=001022C528
1002
}
0
INSERT
5
422
100
AcDbEntity
8
0
100
AcDbBlockReference
2
EL_POSITION
10
49.1739188119
20
-23.4026935393
30
0.0000000000
41
1.0000000000
42
1.0000000000
43
1.0000000000
50
0.0000000000
1001
DSTP_XDATA
1002
{
1000
_OWNERHANDLE=001022C528
1000
_HANDLE=001024F468
1000
_UPGRADE=1
1002
}
0
TEXT
5
423
100
AcDbEntity
8
TEXT
100
AcDbText
11
49.1739188119
21
-22.9026935393
31
0.0000000000
10
48.6322520906
20
-22.9026935393
30
0.0000000000
40
2.5000000000
50
0.0000000000
41
0.7000000000
51
12.0000000000
72
1
7
R2_5
1
1
100
AcDbText
73
0
1001
DSTP_XDATA
1002
{
1000
_TMPL1=@@[Position]
1000
_OWNERHANDLE=001024F468
1002
}
0
TEXT
5
424
100
AcDbEntity
8
TEXT
100
AcDbText
11
49.1739188119
21
-23.9026935393
31
0.0000000000
10
47.3405852923
20
-26.4026935393
30
0.0000000000
40
2.5000000000
50
0.0000000000
41
0.7000000000
51
12.0000000000
72
1
7
R2_5
1
1.0
100
AcDbText
73
3
1001
DSTP_XDATA
1002
{
1000
_TMPL1=@@[Power]
1000
_OWNERHANDLE=001024F468
1002
}
0
POLYLINE
5
425
100
AcDbEntity
8
SYS_METRIC
370
20
100
AcDb3dPolyline
66
1
10
0.0000000000
20
0.0000000000
30
0.0000000000
70
8
1001
DSTP_XDATA
1002
{
1000
USES=System
1000
USES=cables
1000
#0=NMO_Name|GDBString|@2|РћР±РѕР·РЅР°С‡РµРЅРёРµ
1000
#1=NMO_BaseName|GDBString|@|РљРѕСЂРѕС‚РєРѕРµ РРјСЏ
1000
#2=NMO_Prefix|GDBString||РџСЂРµС„РёРєСЃ
1000
#3=NMO_PrefixTemplate|GDBString||РЁР°Р±Р»РѕРЅ РїСЂРµС„РёРєСЃР°
1000
#4=NMO_Suffix|GDBString|2|РЎСѓС„С„РёРєСЃ
1000
#5=NMO_SuffixTemplate|GDBString||РЁР°Р±Р»РѕРЅ СЃСѓС„С„РёРєСЃР°
1000
#6=NMO_Template|GDBString|@@[NMO_Prefix]@@[NMO_BaseName]@@[NMO_Suffix]|РЁР°Р±Р»РѕРЅ РћР±РѕР·РЅР°С‡РµРЅРёСЏ
1000
#7=DB_link|GDBString|_EQ000000|РњР°С‚РµСЂРёР°Р»
1000
#8=LENGTH_RoundTo|GDBInteger|0|РћРєСЂСѓРіР»СЏС‚СЊ РґРѕ
1000
#9=LENGTH_Add|GDBDouble|4.0|Р”РѕР±Р°РІРёС‚СЊ Рє РґР»РёРЅРµ
1000
#10=LENGTH_Scale|GDBDouble|0.1|РњР°СЃС€С‚Р°Р±
1000
#11=GC_HeadDevice|GDBString|??|Р“РѕР»РѕРІРЅРѕРµ СѓСЃС‚СЂРѕР№СЃС‚РІРѕ
1000
#12=GC_HDShortName|GDBString|??|РљРѕСЂРѕС‚РєРѕРµ РёРјСЏ РіРѕР»РѕРІРЅРѕРіРѕ СѓСЃС‚СЂРѕР№СЃС‚РІР°
1000
#13=GC_HDGroup|GDBString|0|Р“СЂСѓРїРїР° РІ РіРѕР»РѕРІРЅРѕРј СѓСЃС‚СЂРѕР№СЃС‚РІРµ
1000
#14=CABLE_Type|TCableType|TCT_Control|РўРёРї
1000
#15=CABLE_Segment|GDBInteger|0|РЎРµРіРјРµРЅС‚
1000
#16=CABLE_WireCount|GDBInteger|0|Р§РёСЃР»Рѕ Р¶РёР»
1000
#17=CABLE_TotalCD|GDBInteger|3|РџРѕРґРєР»СЋС‡РµРЅРѕ СѓСЃС‚СЂРѕР№СЃС‚РІ
1000
#18=AmountD|GDBDouble|8.0|Р”Р»РёРЅР°
1000
#19=GC_Metric|GDBString||
1000
#20=GC_HDGroupTemplate|GDBString||РЁР°Р±Р»РѕРЅ РіСЂСѓРїРїС‹
1000
#21=GC_HeadDeviceTemplate|GDBString||РЁР°Р±Р»РѕРЅ РіРѕР»РѕРІРЅРѕРіРѕ СѓСЃС‚СЂРѕР№СЃС‚РІР°
1000
#22=GC_HDShortNameTemplate|GDBString||РЁР°Р±Р»РѕРЅ РєРѕСЂРѕС‚РєРѕРіРѕ РёРјРµРЅРё РіРѕР»РѕРІРЅРѕРіРѕ СѓСЃС‚СЂРѕР№СЃС‚РІР°
1000
#23=GC_InGroup_Metric|GDBString||РњРµС‚СЂРёРєР° РЅСѓРјРµСЂР°С†РёРё РІ РіСЂСѓРїРїРµ
1000
_OWNERHANDLE=0000000064
1000
_UPGRADE=1
1000
_LAYER=0
1002
}
0
VERTEX
5
426
100
AcDbEntity
8
0
370
20
100
AcDbVertex
100
AcDb3dPolylineVertex
10
21.7115353074
20
7.9291182941
30
0.0000000000
0
VERTEX
5
427
100
AcDbEntity
8
0
370
20
100
AcDbVertex
100
AcDb3dPolylineVertex
10
32.6947603865
20
-3.1926397181
30
0.0000000000
0
VERTEX
5
428
100
AcDbEntity
8
0
370
20
100
AcDbVertex
100
AcDb3dPolylineVertex
10
37.6739188119
20
-23.4026935393
30
0.0000000000
0
SEQEND
5
429
100
AcDbEntity
8
0
370
20
0
LINE
5
42A
100
AcDbEntity
8
0
370
20
100
AcDbLine
10
22.4141968196
20
7.2175940153
30
0.0000000000
11
30.2259004574
21
-0.6926397181
31
0.0000000000
1001
DSTP_XDATA
1002
{
1000
_OWNERHANDLE=6E
1002
}
0
LINE
5
42B
100
AcDbEntity
8
0
370
20
100
AcDbLine
10
33.3106863100
20
-5.6926397181
30
0.0000000000
11
37.0579928884
21
-20.9026935393
31
0.0000000000
1001
DSTP_XDATA
1002
{
1000
_OWNERHANDLE=6E
1002
}
0
POLYLINE
5
42C
100
AcDbEntity
8
SYS_METRIC
370
20
100
AcDb3dPolyline
66
1
10
0.0000000000
20
0.0000000000
30
0.0000000000
70
8
1001
DSTP_XDATA
1002
{
1000
USES=System
1000
USES=cables
1000
#0=NMO_Name|GDBString|@4|РћР±РѕР·РЅР°С‡РµРЅРёРµ
1000
#1=NMO_BaseName|GDBString|@|РљРѕСЂРѕС‚РєРѕРµ РРјСЏ
1000
#2=NMO_Prefix|GDBString||РџСЂРµС„РёРєСЃ
1000
#3=NMO_PrefixTemplate|GDBString||РЁР°Р±Р»РѕРЅ РїСЂРµС„РёРєСЃР°
1000
#4=NMO_Suffix|GDBString|4|РЎСѓС„С„РёРєСЃ
1000
#5=NMO_SuffixTemplate|GDBString||РЁР°Р±Р»РѕРЅ СЃСѓС„С„РёРєСЃР°
1000
#6=NMO_Template|GDBString|@@[NMO_Prefix]@@[NMO_BaseName]@@[NMO_Suffix]|РЁР°Р±Р»РѕРЅ РћР±РѕР·РЅР°С‡РµРЅРёСЏ
1000
#7=DB_link|GDBString|_EQ000001|РњР°С‚РµСЂРёР°Р»
1000
#8=LENGTH_RoundTo|GDBInteger|0|РћРєСЂСѓРіР»СЏС‚СЊ РґРѕ
1000
#9=LENGTH_Add|GDBDouble|4.0|Р”РѕР±Р°РІРёС‚СЊ Рє РґР»РёРЅРµ
1000
#10=LENGTH_Scale|GDBDouble|0.1|РњР°СЃС€С‚Р°Р±
1000
#11=GC_HeadDevice|GDBString|??|Р“РѕР»РѕРІРЅРѕРµ СѓСЃС‚СЂРѕР№СЃС‚РІРѕ
1000
#12=GC_HDShortName|GDBString|??|РљРѕСЂРѕС‚РєРѕРµ РёРјСЏ РіРѕР»РѕРІРЅРѕРіРѕ СѓСЃС‚СЂРѕР№СЃС‚РІР°
1000
#13=GC_HDGroup|GDBString|0|Р“СЂСѓРїРїР° РІ РіРѕР»РѕРІРЅРѕРј СѓСЃС‚СЂРѕР№СЃС‚РІРµ
1000
#14=CABLE_Type|TCableType|TCT_Control|РўРёРї
1000
#15=CABLE_Segment|GDBInteger|0|РЎРµРіРјРµРЅС‚
1000
#16=CABLE_WireCount|GDBInteger|0|Р§РёСЃР»Рѕ Р¶РёР»
1000
#17=CABLE_TotalCD|GDBInteger|2|РџРѕРґРєР»СЋС‡РµРЅРѕ СѓСЃС‚СЂРѕР№СЃС‚РІ
1000
#18=AmountD|GDBDouble|5.0|Р”Р»РёРЅР°
1000
#19=GC_Metric|GDBString||
1000
#20=GC_HDGroupTemplate|GDBString||РЁР°Р±Р»РѕРЅ РіСЂСѓРїРїС‹
1000
#21=GC_HeadDeviceTemplate|GDBString||РЁР°Р±Р»РѕРЅ РіРѕР»РѕРІРЅРѕРіРѕ СѓСЃС‚СЂРѕР№СЃС‚РІР°
1000
#22=GC_HDShortNameTemplate|GDBString||РЁР°Р±Р»РѕРЅ РєРѕСЂРѕС‚РєРѕРіРѕ РёРјРµРЅРё РіРѕР»РѕРІРЅРѕРіРѕ СѓСЃС‚СЂРѕР№СЃС‚РІР°
1000
#23=GC_InGroup_Metric|GDBString||РњРµС‚СЂРёРєР° РЅСѓРјРµСЂР°С†РёРё РІ РіСЂСѓРїРїРµ
1000
_OWNERHANDLE=0000000064
1000
_UPGRADE=1
1000
_LAYER=0
1002
}
0
VERTEX
5
42D
100
AcDbEntity
8
0
370
20
100
AcDbVertex
100
AcDb3dPolylineVertex
10
0.4132218290
20
-23.4026935393
30
0.0000000000
0
VERTEX
5
42E
100
AcDbEntity
8
0
370
20
100
AcDbVertex
100
AcDb3dPolylineVertex
10
-11.1103850816
20
-26.4834202500
30
0.0000000000
0
SEQEND
5
42F
100
AcDbEntity
8
0
370
20
0
LINE
5
430
100
AcDbEntity
8
0
370
20
100
AcDbLine
10
-2.0867781710
20
-24.0710447627
30
0.0000000000
11
-9.8603850816
21
-26.1492446383
31
0.0000000000
1001
DSTP_XDATA
1002
{
1000
_OWNERHANDLE=6E
1002
}
0
LINE
5
431
100
AcDbEntity
8
0
100
AcDbLine
10
-8.1016988062
20
13.3729460542
30
0.0000000000
11
-13.4271568632
21
18.6984041113
31
0.0000000000
1001
DSTP_XDATA
1002
{
1000
_UPGRADE=1
1000
%1=size|GDBInteger|0|
1000
%2=scale|GDBDouble|1|
1000
%3=twidth|GDBDouble|0|
1002
}
0
LINE
5
432
100
AcDbEntity
8
0
100
AcDbLine
10
-8.4067603127
20
12.4206134037
30
0.0000000000
11
-7.7966372997
21
14.3252787047
31
0.0000000000
1001
DSTP_XDATA
1002
{
1000
_OWNERHANDLE=000000006E
1002
}
0
MTEXT
5
433
100
AcDbEntity
8
0
100
AcDbMText
10
-18.4271568632
20
21.6984041113
30
0.0000000000
40
2.5000000000
41
0.0000000000
71
2
1
ШР4-1
7
Standard
11
1.0000000000
21
0.0000000000
31
0.0000000000
44
0.9600000000
1001
DSTP_XDATA
1002
{
1000
_OWNERHANDLE=000000006E
1002
}
0
LINE
5
434
100
AcDbEntity
8
0
100
AcDbLine
10
-23.4271568632
20
22.6984041113
30
0.0000000000
11
-13.4271568632
21
22.6984041113
31
0.0000000000
1001
DSTP_XDATA
1002
{
1000
_OWNERHANDLE=000000006E
1002
}
0
LINE
5
435
100
AcDbEntity
8
0
100
AcDbLine
10
-23.4271568632
20
18.6984041113
30
0.0000000000
11
-13.4271568632
21
18.6984041113
31
0.0000000000
1001
DSTP_XDATA
1002
{
1000
_OWNERHANDLE=000000006E
1002
}
0
LINE
5
436
100
AcDbEntity
8
0
100
AcDbLine
10
-23.4271568632
20
22.6984041113
30
0.0000000000
11
-23.4271568632
21
18.6984041113
31
0.0000000000
1001
DSTP_XDATA
1002
{
1000
_OWNERHANDLE=000000006E
1002
}
0
LINE
5
437
100
AcDbEntity
8
0
100
AcDbLine
10
-13.4271568632
20
22.6984041113
30
0.0000000000
11
-13.4271568632
21
18.6984041113
31
0.0000000000
1001
DSTP_XDATA
1002
{
1000
_OWNERHANDLE=000000006E
1002
}
0
LINE
5
438
100
AcDbEntity
8
0
100
AcDbLine
10
-42.4060054660
20
-4.3883065940
30
0.0000000000
11
-37.7547365172
21
-9.0395755427
31
0.0000000000
1001
DSTP_XDATA
1002
{
1000
_UPGRADE=1
1000
%1=size|GDBInteger|0|
1000
%2=scale|GDBDouble|1|
1000
%3=twidth|GDBDouble|0|
1002
}
0
LINE
5
439
100
AcDbEntity
8
0
100
AcDbLine
10
-41.4065140878
20
-4.3564163920
30
0.0000000000
11
-43.4054968442
21
-4.4201967960
31
0.0000000000
1001
DSTP_XDATA
1002
{
1000
_OWNERHANDLE=000000006E
1002
}
0
MTEXT
5
43A
100
AcDbEntity
8
0
100
AcDbMText
10
-32.7547365172
20
-10.0395755427
30
0.0000000000
40
2.5000000000
41
0.0000000000
71
2
1
@1
7
Standard
11
1.0000000000
21
0.0000000000
31
0.0000000000
44
0.9600000000
1001
DSTP_XDATA
1002
{
1000
_OWNERHANDLE=000000006E
1002
}
0
LINE
5
43B
100
AcDbEntity
8
0
100
AcDbLine
10
-37.7547365172
20
-9.0395755427
30
0.0000000000
11
-27.7547365172
21
-9.0395755427
31
0.0000000000
1001
DSTP_XDATA
1002
{
1000
_OWNERHANDLE=000000006E
1002
}
0
LINE
5
43C
100
AcDbEntity
8
0
100
AcDbLine
10
-37.7547365172
20
-13.0395755427
30
0.0000000000
11
-27.7547365172
21
-13.0395755427
31
0.0000000000
1001
DSTP_XDATA
1002
{
1000
_OWNERHANDLE=000000006E
1002
}
0
LINE
5
43D
100
AcDbEntity
8
0
100
AcDbLine
10
-37.7547365172
20
-9.0395755427
30
0.0000000000
11
-37.7547365172
21
-13.0395755427
31
0.0000000000
1001
DSTP_XDATA
1002
{
1000
_OWNERHANDLE=000000006E
1002
}
0
LINE
5
43E
100
AcDbEntity
8
0
100
AcDbLine
10
-27.7547365172
20
-9.0395755427
30
0.0000000000
11
-27.7547365172
21
-13.0395755427
31
0.0000000000
1001
DSTP_XDATA
1002
{
1000
_OWNERHANDLE=000000006E
1002
}
0
LINE
5
43F
100
AcDbEntity
8
0
100
AcDbLine
10
-79.7836802106
20
3.6795804120
30
0.0000000000
11
-85.9784642716
21
8.8904570458
31
0.0000000000
1001
DSTP_XDATA
1002
{
1000
_UPGRADE=1
1000
%1=size|GDBInteger|0|
1000
%2=scale|GDBDouble|1|
1000
%3=twidth|GDBDouble|0|
1002
}
0
LINE
5
440
100
AcDbEntity
8
0
100
AcDbLine
10
-79.7836802106
20
3.6795804120
30
0.0000000000
11
-79.7836802106
21
3.6795804120
31
0.0000000000
1001
DSTP_XDATA
1002
{
1000
_OWNERHANDLE=000000006E
1002
}
0
MTEXT
5
441
100
AcDbEntity
8
0
100
AcDbMText
10
-90.9784642716
20
11.8904570458
30
0.0000000000
40
2.5000000000
41
0.0000000000
71
2
1
ШР4-1
7
Standard
11
1.0000000000
21
0.0000000000
31
0.0000000000
44
0.9600000000
1001
DSTP_XDATA
1002
{
1000
_OWNERHANDLE=000000006E
1002
}
0
LINE
5
442
100
AcDbEntity
8
0
100
AcDbLine
10
-95.9784642716
20
12.8904570458
30
0.0000000000
11
-85.9784642716
21
12.8904570458
31
0.0000000000
1001
DSTP_XDATA
1002
{
1000
_OWNERHANDLE=000000006E
1002
}
0
LINE
5
443
100
AcDbEntity
8
0
100
AcDbLine
10
-95.9784642716
20
8.8904570458
30
0.0000000000
11
-85.9784642716
21
8.8904570458
31
0.0000000000
1001
DSTP_XDATA
1002
{
1000
_OWNERHANDLE=000000006E
1002
}
0
LINE
5
444
100
AcDbEntity
8
0
100
AcDbLine
10
-95.9784642716
20
12.8904570458
30
0.0000000000
11
-95.9784642716
21
8.8904570458
31
0.0000000000
1001
DSTP_XDATA
1002
{
1000
_OWNERHANDLE=000000006E
1002
}
0
LINE
5
445
100
AcDbEntity
8
0
100
AcDbLine
10
-85.9784642716
20
12.8904570458
30
0.0000000000
11
-85.9784642716
21
8.8904570458
31
0.0000000000
1001
DSTP_XDATA
1002
{
1000
_OWNERHANDLE=000000006E
1002
}
0
MTEXT
5
446
100
AcDbEntity
8
0
100
AcDbMText
10
-85.9784642716
20
14.3904570458
30
0.0000000000
40
2.5000000000
41
0.0000000000
71
9
1
В1.1
7
Standard
11
1.0000000000
21
0.0000000000
31
0.0000000000
44
0.0000000000
1001
DSTP_XDATA
1002
{
1000
_OWNERHANDLE=000000006E
1002
}
0
LINE
5
447
100
AcDbEntity
8
0
100
AcDbLine
10
-85.9784642716
20
13.8904570458
30
0.0000000000
11
-85.9784642716
21
12.8904570458
31
0.0000000000
1001
DSTP_XDATA
1002
{
1000
_OWNERHANDLE=000000006E
1002
}
0
LINE
5
448
100
AcDbEntity
8
0
100
AcDbLine
10
-85.9784642716
20
13.8904570458
30
0.0000000000
11
-90.0617977179
21
13.8904570458
31
0.0000000000
1001
DSTP_XDATA
1002
{
1000
_OWNERHANDLE=000000006E
1002
}
0
LINE
5
449
100
AcDbEntity
8
0
100
AcDbLine
10
-107.5592965020
20
-10.3041099045
30
0.0000000000
11
-112.9368642716
21
-5.2383429542
31
0.0000000000
1001
DSTP_XDATA
1002
{
1000
_UPGRADE=1
1000
%1=size|GDBInteger|0|
1000
%2=scale|GDBDouble|1|
1000
%3=twidth|GDBDouble|0|
1002
}
0
LINE
5
44A
100
AcDbEntity
8
0
100
AcDbLine
10
-107.5592965020
20
-10.3041099045
30
0.0000000000
11
-107.5592965020
21
-10.3041099045
31
0.0000000000
1001
DSTP_XDATA
1002
{
1000
_OWNERHANDLE=000000006E
1002
}
0
MTEXT
5
44B
100
AcDbEntity
8
0
100
AcDbMText
10
-117.9368642716
20
-2.2383429542
30
0.0000000000
40
2.5000000000
41
0.0000000000
71
2
1
ШР4-1
7
Standard
11
1.0000000000
21
0.0000000000
31
0.0000000000
44
0.9600000000
1001
DSTP_XDATA
1002
{
1000
_OWNERHANDLE=000000006E
1002
}
0
LINE
5
44C
100
AcDbEntity
8
0
100
AcDbLine
10
-122.9368642716
20
-1.2383429542
30
0.0000000000
11
-112.9368642716
21
-1.2383429542
31
0.0000000000
1001
DSTP_XDATA
1002
{
1000
_OWNERHANDLE=000000006E
1002
}
0
LINE
5
44D
100
AcDbEntity
8
0
100
AcDbLine
10
-122.9368642716
20
-5.2383429542
30
0.0000000000
11
-112.9368642716
21
-5.2383429542
31
0.0000000000
1001
DSTP_XDATA
1002
{
1000
_OWNERHANDLE=000000006E
1002
}
0
LINE
5
44E
100
AcDbEntity
8
0
100
AcDbLine
10
-122.9368642716
20
-1.2383429542
30
0.0000000000
11
-122.9368642716
21
-5.2383429542
31
0.0000000000
1001
DSTP_XDATA
1002
{
1000
_OWNERHANDLE=000000006E
1002
}
0
LINE
5
44F
100
AcDbEntity
8
0
100
AcDbLine
10
-112.9368642716
20
-1.2383429542
30
0.0000000000
11
-112.9368642716
21
-5.2383429542
31
0.0000000000
1001
DSTP_XDATA
1002
{
1000
_OWNERHANDLE=000000006E
1002
}
0
MTEXT
5
450
100
AcDbEntity
8
0
100
AcDbMText
10
-112.9368642716
20
0.2616570458
30
0.0000000000
40
2.5000000000
41
0.0000000000
71
9
1
В1.2
7
Standard
11
1.0000000000
21
0.0000000000
31
0.0000000000
44
0.0000000000
1001
DSTP_XDATA
1002
{
1000
_OWNERHANDLE=000000006E
1002
}
0
LINE
5
451
100
AcDbEntity
8
0
100
AcDbLine
10
-112.9368642716
20
-0.2383429542
30
0.0000000000
11
-112.9368642716
21
-1.2383429542
31
0.0000000000
1001
DSTP_XDATA
1002
{
1000
_OWNERHANDLE=000000006E
1002
}
0
LINE
5
452
100
AcDbEntity
8
0
100
AcDbLine
10
-112.9368642716
20
-0.2383429542
30
0.0000000000
11
-117.6035310165
21
-0.2383429542
31
0.0000000000
1001
DSTP_XDATA
1002
{
1000
_OWNERHANDLE=000000006E
1002
}
0
LINE
5
453
100
AcDbEntity
8
0
100
AcDbLine
10
-130.2101321433
20
-28.3101005882
30
0.0000000000
11
-136.1600642716
21
-24.2391429542
31
0.0000000000
1001
DSTP_XDATA
1002
{
1000
_UPGRADE=1
1000
%1=size|GDBInteger|0|
1000
%2=scale|GDBDouble|1|
1000
%3=twidth|GDBDouble|0|
1002
}
0
LINE
5
454
100
AcDbEntity
8
0
100
AcDbLine
10
-130.2101321433
20
-28.3101005882
30
0.0000000000
11
-130.2101321433
21
-28.3101005882
31
0.0000000000
1001
DSTP_XDATA
1002
{
1000
_OWNERHANDLE=000000006E
1002
}
0
MTEXT
5
455
100
AcDbEntity
8
0
100
AcDbMText
10
-141.1600642716
20
-21.2391429542
30
0.0000000000
40
2.5000000000
41
0.0000000000
71
2
1
ШР4-1
7
Standard
11
1.0000000000
21
0.0000000000
31
0.0000000000
44
0.9600000000
1001
DSTP_XDATA
1002
{
1000
_OWNERHANDLE=000000006E
1002
}
0
LINE
5
456
100
AcDbEntity
8
0
100
AcDbLine
10
-146.1600642716
20
-20.2391429542
30
0.0000000000
11
-136.1600642716
21
-20.2391429542
31
0.0000000000
1001
DSTP_XDATA
1002
{
1000
_OWNERHANDLE=000000006E
1002
}
0
LINE
5
457
100
AcDbEntity
8
0
100
AcDbLine
10
-146.1600642716
20
-24.2391429542
30
0.0000000000
11
-136.1600642716
21
-24.2391429542
31
0.0000000000
1001
DSTP_XDATA
1002
{
1000
_OWNERHANDLE=000000006E
1002
}
0
LINE
5
458
100
AcDbEntity
8
0
100
AcDbLine
10
-146.1600642716
20
-20.2391429542
30
0.0000000000
11
-146.1600642716
21
-24.2391429542
31
0.0000000000
1001
DSTP_XDATA
1002
{
1000
_OWNERHANDLE=000000006E
1002
}
0
LINE
5
459
100
AcDbEntity
8
0
100
AcDbLine
10
-136.1600642716
20
-20.2391429542
30
0.0000000000
11
-136.1600642716
21
-24.2391429542
31
0.0000000000
1001
DSTP_XDATA
1002
{
1000
_OWNERHANDLE=000000006E
1002
}
0
MTEXT
5
45A
100
AcDbEntity
8
0
100
AcDbMText
10
-136.1600642716
20
-18.7391429542
30
0.0000000000
40
2.5000000000
41
0.0000000000
71
9
1
В1.3
7
Standard
11
1.0000000000
21
0.0000000000
31
0.0000000000
44
0.0000000000
1001
DSTP_XDATA
1002
{
1000
_OWNERHANDLE=000000006E
1002
}
0
LINE
5
45B
100
AcDbEntity
8
0
100
AcDbLine
10
-136.1600642716
20
-19.2391429542
30
0.0000000000
11
-136.1600642716
21
-20.2391429542
31
0.0000000000
1001
DSTP_XDATA
1002
{
1000
_OWNERHANDLE=000000006E
1002
}
0
LINE
5
45C
100
AcDbEntity
8
0
100
AcDbLine
10
-136.1600642716
20
-19.2391429542
30
0.0000000000
11
-140.8267310165
21
-19.2391429542
31
0.0000000000
1001
DSTP_XDATA
1002
{
1000
_OWNERHANDLE=000000006E
1002
}
0
LINE
5
45D
100
AcDbEntity
8
0
100
AcDbLine
10
-55.1866811279
20
-25.0448533383
30
0.0000000000
11
-48.6264642716
21
-32.6839429542
31
0.0000000000
1001
DSTP_XDATA
1002
{
1000
_UPGRADE=1
1000
%1=size|GDBInteger|0|
1000
%2=scale|GDBDouble|1|
1000
%3=twidth|GDBDouble|0|
1002
}
0
LINE
5
45E
100
AcDbEntity
8
0
100
AcDbLine
10
-55.1866811279
20
-25.0448533383
30
0.0000000000
11
-55.1866811279
21
-25.0448533383
31
0.0000000000
1001
DSTP_XDATA
1002
{
1000
_OWNERHANDLE=000000006E
1002
}
0
MTEXT
5
45F
100
AcDbEntity
8
0
100
AcDbMText
10
-43.6264642716
20
-33.6839429542
30
0.0000000000
40
2.5000000000
41
0.0000000000
71
2
1
@1
7
Standard
11
1.0000000000
21
0.0000000000
31
0.0000000000
44
0.9600000000
1001
DSTP_XDATA
1002
{
1000
_OWNERHANDLE=000000006E
1002
}
0
LINE
5
460
100
AcDbEntity
8
0
100
AcDbLine
10
-48.6264642716
20
-32.6839429542
30
0.0000000000
11
-38.6264642716
21
-32.6839429542
31
0.0000000000
1001
DSTP_XDATA
1002
{
1000
_OWNERHANDLE=000000006E
1002
}
0
LINE
5
461
100
AcDbEntity
8
0
100
AcDbLine
10
-48.6264642716
20
-36.6839429542
30
0.0000000000
11
-38.6264642716
21
-36.6839429542
31
0.0000000000
1001
DSTP_XDATA
1002
{
1000
_OWNERHANDLE=000000006E
1002
}
0
LINE
5
462
100
AcDbEntity
8
0
100
AcDbLine
10
-48.6264642716
20
-32.6839429542
30
0.0000000000
11
-48.6264642716
21
-36.6839429542
31
0.0000000000
1001
DSTP_XDATA
1002
{
1000
_OWNERHANDLE=000000006E
1002
}
0
LINE
5
463
100
AcDbEntity
8
0
100
AcDbLine
10
-38.6264642716
20
-32.6839429542
30
0.0000000000
11
-38.6264642716
21
-36.6839429542
31
0.0000000000
1001
DSTP_XDATA
1002
{
1000
_OWNERHANDLE=000000006E
1002
}
0
MTEXT
5
464
100
AcDbEntity
8
0
100
AcDbMText
10
-48.6264642716
20
-31.1839429542
30
0.0000000000
40
2.5000000000
41
0.0000000000
71
7
1
В1.4
7
Standard
11
1.0000000000
21
0.0000000000
31
0.0000000000
44
0.0000000000
1001
DSTP_XDATA
1002
{
1000
_OWNERHANDLE=000000006E
1002
}
0
LINE
5
465
100
AcDbEntity
8
0
100
AcDbLine
10
-48.6264642716
20
-31.6839429542
30
0.0000000000
11
-48.6264642716
21
-32.6839429542
31
0.0000000000
1001
DSTP_XDATA
1002
{
1000
_OWNERHANDLE=000000006E
1002
}
0
LINE
5
466
100
AcDbEntity
8
0
100
AcDbLine
10
-48.6264642716
20
-31.6839429542
30
0.0000000000
11
-43.9597975267
21
-31.6839429542
31
0.0000000000
1001
DSTP_XDATA
1002
{
1000
_OWNERHANDLE=000000006E
1002
}
0
LINE
5
467
100
AcDbEntity
8
0
100
AcDbLine
10
-11.9001536576
20
-27.3432975681
30
0.0000000000
11
-21.6089474817
21
-29.0051082970
31
0.0000000000
1001
DSTP_XDATA
1002
{
1000
_UPGRADE=1
1000
%1=size|GDBInteger|0|
1000
%2=scale|GDBDouble|1|
1000
%3=twidth|GDBDouble|0|
1002
}
0
LINE
5
468
100
AcDbEntity
8
0
100
AcDbLine
10
-11.9001536576
20
-27.3432975681
30
0.0000000000
11
-11.9001536576
21
-27.3432975681
31
0.0000000000
1001
DSTP_XDATA
1002
{
1000
_OWNERHANDLE=000000006E
1002
}
0
MTEXT
5
469
100
AcDbEntity
8
0
100
AcDbMText
10
-26.6089474817
20
-30.0051082970
30
0.0000000000
40
2.5000000000
41
0.0000000000
71
2
1
@4
7
Standard
11
1.0000000000
21
0.0000000000
31
0.0000000000
44
0.9600000000
1001
DSTP_XDATA
1002
{
1000
_OWNERHANDLE=000000006E
1002
}
0
LINE
5
46A
100
AcDbEntity
8
0
100
AcDbLine
10
-31.6089474817
20
-29.0051082970
30
0.0000000000
11
-21.6089474817
21
-29.0051082970
31
0.0000000000
1001
DSTP_XDATA
1002
{
1000
_OWNERHANDLE=000000006E
1002
}
0
LINE
5
46B
100
AcDbEntity
8
0
100
AcDbLine
10
-31.6089474817
20
-33.0051082970
30
0.0000000000
11
-21.6089474817
21
-33.0051082970
31
0.0000000000
1001
DSTP_XDATA
1002
{
1000
_OWNERHANDLE=000000006E
1002
}
0
LINE
5
46C
100
AcDbEntity
8
0
100
AcDbLine
10
-31.6089474817
20
-29.0051082970
30
0.0000000000
11
-31.6089474817
21
-33.0051082970
31
0.0000000000
1001
DSTP_XDATA
1002
{
1000
_OWNERHANDLE=000000006E
1002
}
0
LINE
5
46D
100
AcDbEntity
8
0
100
AcDbLine
10
-21.6089474817
20
-29.0051082970
30
0.0000000000
11
-21.6089474817
21
-33.0051082970
31
0.0000000000
1001
DSTP_XDATA
1002
{
1000
_OWNERHANDLE=000000006E
1002
}
0
MTEXT
5
46E
100
AcDbEntity
8
0
100
AcDbMText
10
-21.6089474817
20
-27.5051082970
30
0.0000000000
40
2.5000000000
41
0.0000000000
71
9
1
SB2
7
Standard
11
1.0000000000
21
0.0000000000
31
0.0000000000
44
0.0000000000
1001
DSTP_XDATA
1002
{
1000
_OWNERHANDLE=000000006E
1002
}
0
LINE
5
46F
100
AcDbEntity
8
0
100
AcDbLine
10
-21.6089474817
20
-28.0051082970
30
0.0000000000
11
-21.6089474817
21
-29.0051082970
31
0.0000000000
1001
DSTP_XDATA
1002
{
1000
_OWNERHANDLE=000000006E
1002
}
0
LINE
5
470
100
AcDbEntity
8
0
100
AcDbLine
10
-21.6089474817
20
-28.0051082970
30
0.0000000000
11
-26.2756141484
21
-28.0051082970
31
0.0000000000
1001
DSTP_XDATA
1002
{
1000
_OWNERHANDLE=000000006E
1002
}
0
LINE
5
471
100
AcDbEntity
8
0
100
AcDbLine
10
-0.8642972726
20
-25.1815480175
30
0.0000000000
11
-3.6416642716
21
-34.4703429542
31
0.0000000000
1001
DSTP_XDATA
1002
{
1000
_UPGRADE=1
1000
%1=size|GDBInteger|0|
1000
%2=scale|GDBDouble|1|
1000
%3=twidth|GDBDouble|0|
1002
}
0
LINE
5
472
100
AcDbEntity
8
0
100
AcDbLine
10
-0.8642972726
20
-25.1815480175
30
0.0000000000
11
-0.8642972726
21
-25.1815480175
31
0.0000000000
1001
DSTP_XDATA
1002
{
1000
_OWNERHANDLE=000000006E
1002
}
0
MTEXT
5
473
100
AcDbEntity
8
0
100
AcDbMText
10
-8.6416642716
20
-35.4703429542
30
0.0000000000
40
2.5000000000
41
0.0000000000
71
2
1
@4
7
Standard
11
1.0000000000
21
0.0000000000
31
0.0000000000
44
0.9600000000
1001
DSTP_XDATA
1002
{
1000
_OWNERHANDLE=000000006E
1002
}
0
MTEXT
5
474
100
AcDbEntity
8
0
100
AcDbMText
10
-8.6416642716
20
-39.4703429542
30
0.0000000000
40
2.5000000000
41
0.0000000000
71
2
1
ШР4-2
7
Standard
11
1.0000000000
21
0.0000000000
31
0.0000000000
44
0.9600000000
1001
DSTP_XDATA
1002
{
1000
_OWNERHANDLE=000000006E
1002
}
0
LINE
5
475
100
AcDbEntity
8
0
100
AcDbLine
10
-13.6416642716
20
-34.4703429542
30
0.0000000000
11
-3.6416642716
21
-34.4703429542
31
0.0000000000
1001
DSTP_XDATA
1002
{
1000
_OWNERHANDLE=000000006E
1002
}
0
LINE
5
476
100
AcDbEntity
8
0
100
AcDbLine
10
-13.6416642716
20
-38.4703429542
30
0.0000000000
11
-3.6416642716
21
-38.4703429542
31
0.0000000000
1001
DSTP_XDATA
1002
{
1000
_OWNERHANDLE=000000006E
1002
}
0
LINE
5
477
100
AcDbEntity
8
0
100
AcDbLine
10
-13.6416642716
20
-42.4703429542
30
0.0000000000
11
-3.6416642716
21
-42.4703429542
31
0.0000000000
1001
DSTP_XDATA
1002
{
1000
_OWNERHANDLE=000000006E
1002
}
0
LINE
5
478
100
AcDbEntity
8
0
100
AcDbLine
10
-13.6416642716
20
-34.4703429542
30
0.0000000000
11
-13.6416642716
21
-42.4703429542
31
0.0000000000
1001
DSTP_XDATA
1002
{
1000
_OWNERHANDLE=000000006E
1002
}
0
LINE
5
479
100
AcDbEntity
8
0
100
AcDbLine
10
-3.6416642716
20
-34.4703429542
30
0.0000000000
11
-3.6416642716
21
-42.4703429542
31
0.0000000000
1001
DSTP_XDATA
1002
{
1000
_OWNERHANDLE=000000006E
1002
}
0
MTEXT
5
47A
100
AcDbEntity
8
0
100
AcDbMText
10
-3.6416642716
20
-32.9703429542
30
0.0000000000
40
2.5000000000
41
0.0000000000
71
9
1
В2.1
7
Standard
11
1.0000000000
21
0.0000000000
31
0.0000000000
44
0.0000000000
1001
DSTP_XDATA
1002
{
1000
_OWNERHANDLE=000000006E
1002
}
0
LINE
5
47B
100
AcDbEntity
8
0
100
AcDbLine
10
-3.6416642716
20
-33.4703429542
30
0.0000000000
11
-3.6416642716
21
-34.4703429542
31
0.0000000000
1001
DSTP_XDATA
1002
{
1000
_OWNERHANDLE=000000006E
1002
}
0
LINE
5
47C
100
AcDbEntity
8
0
100
AcDbLine
10
-3.6416642716
20
-33.4703429542
30
0.0000000000
11
-8.3083310165
21
-33.4703429542
31
0.0000000000
1001
DSTP_XDATA
1002
{
1000
_OWNERHANDLE=000000006E
1002
}
0
LINE
5
47D
100
AcDbEntity
8
0
100
AcDbLine
10
42.3861539589
20
-24.4100222796
30
0.0000000000
11
51.7535965914
21
-48.2578125929
31
0.0000000000
1001
DSTP_XDATA
1002
{
1000
_UPGRADE=1
1000
%1=size|GDBInteger|0|
1000
%2=scale|GDBDouble|1|
1000
%3=twidth|GDBDouble|0|
1002
}
0
LINE
5
47E
100
AcDbEntity
8
0
100
AcDbLine
10
42.3861539589
20
-24.4100222796
30
0.0000000000
11
42.3861539589
21
-24.4100222796
31
0.0000000000
1001
DSTP_XDATA
1002
{
1000
_OWNERHANDLE=000000006E
1002
}
0
MTEXT
5
47F
100
AcDbEntity
8
0
100
AcDbMText
10
56.7535965914
20
-49.2578125929
30
0.0000000000
40
2.5000000000
41
0.0000000000
71
2
1
@2
7
Standard
11
1.0000000000
21
0.0000000000
31
0.0000000000
44
0.9600000000
1001
DSTP_XDATA
1002
{
1000
_OWNERHANDLE=000000006E
1002
}
0
LINE
5
480
100
AcDbEntity
8
0
100
AcDbLine
10
51.7535965914
20
-48.2578125929
30
0.0000000000
11
61.7535965914
21
-48.2578125929
31
0.0000000000
1001
DSTP_XDATA
1002
{
1000
_OWNERHANDLE=000000006E
1002
}
0
LINE
5
481
100
AcDbEntity
8
0
100
AcDbLine
10
51.7535965914
20
-52.2578125929
30
0.0000000000
11
61.7535965914
21
-52.2578125929
31
0.0000000000
1001
DSTP_XDATA
1002
{
1000
_OWNERHANDLE=000000006E
1002
}
0
LINE
5
482
100
AcDbEntity
8
0
100
AcDbLine
10
51.7535965914
20
-48.2578125929
30
0.0000000000
11
51.7535965914
21
-52.2578125929
31
0.0000000000
1001
DSTP_XDATA
1002
{
1000
_OWNERHANDLE=000000006E
1002
}
0
LINE
5
483
100
AcDbEntity
8
0
100
AcDbLine
10
61.7535965914
20
-48.2578125929
30
0.0000000000
11
61.7535965914
21
-52.2578125929
31
0.0000000000
1001
DSTP_XDATA
1002
{
1000
_OWNERHANDLE=000000006E
1002
}
0
MTEXT
5
484
100
AcDbEntity
8
0
100
AcDbMText
10
51.7535965914
20
-46.7578125929
30
0.0000000000
40
2.5000000000
41
0.0000000000
71
7
1
В2.2
7
Standard
11
1.0000000000
21
0.0000000000
31
0.0000000000
44
0.0000000000
1001
DSTP_XDATA
1002
{
1000
_OWNERHANDLE=000000006E
1002
}
0
LINE
5
485
100
AcDbEntity
8
0
100
AcDbLine
10
51.7535965914
20
-47.2578125929
30
0.0000000000
11
51.7535965914
21
-48.2578125929
31
0.0000000000
1001
DSTP_XDATA
1002
{
1000
_OWNERHANDLE=000000006E
1002
}
0
LINE
5
486
100
AcDbEntity
8
0
100
AcDbLine
10
51.7535965914
20
-47.2578125929
30
0.0000000000
11
57.0035966349
21
-47.2578125929
31
0.0000000000
1001
DSTP_XDATA
1002
{
1000
_OWNERHANDLE=000000006E
1002
}
0
LINE
5
487
100
AcDbEntity
8
0
100
AcDbLine
10
15.0403817913
20
-3.5614131458
30
0.0000000000
11
21.8790185357
21
-14.5865380263
31
0.0000000000
1001
DSTP_XDATA
1002
{
1000
_UPGRADE=1
1000
%1=size|GDBInteger|0|
1000
%2=scale|GDBDouble|1|
1000
%3=twidth|GDBDouble|0|
1002
}
0
LINE
5
488
100
AcDbEntity
8
0
100
AcDbLine
10
15.0403817913
20
-3.5614131458
30
0.0000000000
11
15.0403817913
21
-3.5614131458
31
0.0000000000
1001
DSTP_XDATA
1002
{
1000
_OWNERHANDLE=000000006E
1002
}
0
MTEXT
5
489
100
AcDbEntity
8
0
100
AcDbMText
10
26.8790185357
20
-15.5865380263
30
0.0000000000
40
2.5000000000
41
0.0000000000
71
2
1
@3
7
Standard
11
1.0000000000
21
0.0000000000
31
0.0000000000
44
0.9600000000
1001
DSTP_XDATA
1002
{
1000
_OWNERHANDLE=000000006E
1002
}
0
MTEXT
5
48A
100
AcDbEntity
8
0
100
AcDbMText
10
26.8790185357
20
-19.5865380263
30
0.0000000000
40
2.5000000000
41
0.0000000000
71
2
1
ШР4-2
7
Standard
11
1.0000000000
21
0.0000000000
31
0.0000000000
44
0.9600000000
1001
DSTP_XDATA
1002
{
1000
_OWNERHANDLE=000000006E
1002
}
0
LINE
5
48B
100
AcDbEntity
8
0
100
AcDbLine
10
21.8790185357
20
-14.5865380263
30
0.0000000000
11
31.8790185357
21
-14.5865380263
31
0.0000000000
1001
DSTP_XDATA
1002
{
1000
_OWNERHANDLE=000000006E
1002
}
0
LINE
5
48C
100
AcDbEntity
8
0
100
AcDbLine
10
21.8790185357
20
-18.5865380263
30
0.0000000000
11
31.8790185357
21
-18.5865380263
31
0.0000000000
1001
DSTP_XDATA
1002
{
1000
_OWNERHANDLE=000000006E
1002
}
0
LINE
5
48D
100
AcDbEntity
8
0
100
AcDbLine
10
21.8790185357
20
-22.5865380263
30
0.0000000000
11
31.8790185357
21
-22.5865380263
31
0.0000000000
1001
DSTP_XDATA
1002
{
1000
_OWNERHANDLE=000000006E
1002
}
0
LINE
5
48E
100
AcDbEntity
8
0
100
AcDbLine
10
21.8790185357
20
-14.5865380263
30
0.0000000000
11
21.8790185357
21
-22.5865380263
31
0.0000000000
1001
DSTP_XDATA
1002
{
1000
_OWNERHANDLE=000000006E
1002
}
0
LINE
5
48F
100
AcDbEntity
8
0
100
AcDbLine
10
31.8790185357
20
-14.5865380263
30
0.0000000000
11
31.8790185357
21
-22.5865380263
31
0.0000000000
1001
DSTP_XDATA
1002
{
1000
_OWNERHANDLE=000000006E
1002
}
0
MTEXT
5
490
100
AcDbEntity
8
0
100
AcDbMText
10
21.8790185357
20
-13.0865380263
30
0.0000000000
40
2.5000000000
41
0.0000000000
71
7
1
KM1
7
Standard
11
1.0000000000
21
0.0000000000
31
0.0000000000
44
0.0000000000
1001
DSTP_XDATA
1002
{
1000
_OWNERHANDLE=000000006E
1002
}
0
LINE
5
491
100
AcDbEntity
8
0
100
AcDbLine
10
21.8790185357
20
-13.5865380263
30
0.0000000000
11
21.8790185357
21
-14.5865380263
31
0.0000000000
1001
DSTP_XDATA
1002
{
1000
_OWNERHANDLE=000000006E
1002
}
0
LINE
5
492
100
AcDbEntity
8
0
100
AcDbLine
10
21.8790185357
20
-13.5865380263
30
0.0000000000
11
25.9623519038
21
-13.5865380263
31
0.0000000000
1001
DSTP_XDATA
1002
{
1000
_OWNERHANDLE=000000006E
1002
}
0
INSERT
5
493
100
AcDbEntity
8
0
100
AcDbBlockReference
2
KIP_KNOPKA
10
-11.1103850816
20
-26.4834202500
30
0.0000000000
41
1.0000000000
42
1.0000000000
43
1.0000000000
50
0.0000000000
1001
DSTP_XDATA
1002
{
1000
USES=System
1000
USES=devices
1000
#0=NMO_Name|GDBString|SB2|РћР±РѕР·РЅР°С‡РµРЅРёРµ
1000
#1=NMO_BaseName|GDBString|SB|РљРѕСЂРѕС‚РєРѕРµ РРјСЏ
1000
#2=NMO_Prefix|GDBString||РџСЂРµС„РёРєСЃ
1000
#3=NMO_Suffix|GDBString|2|РЎСѓС„С„РёРєСЃ
1000
#4=NMO_Template|GDBString|@@[NMO_Prefix]@@[NMO_BaseName]@@[NMO_Suffix]|РЁР°Р±Р»РѕРЅ РћР±РѕР·РЅР°С‡РµРЅРёСЏ
1000
#5=DB_link|GDBString|??|РњР°С‚РµСЂРёР°Р»
1000
#6=GC_HeadDevice|GDBString|??|
1000
#7=GC_HDShortName|GDBString|??|
1000
#8=GC_HDGroup|GDBString|0|
1000
#9=SerialConnection|GDBInteger|1|
1000
#10=GC_NumberInGroup|GDBInteger|0|
1000
#11=Device_Type|TDeviceType|TDT_SilaComm|РўРёРї СѓСЃС‚СЂРѕР№СЃС‚РІР°
1000
#12=Device_Class|TDeviceClass|TDC_Shell|РљР»Р°СЃСЃ СѓСЃС‚СЂРѕР№СЃС‚РІР°
1000
#13=Device_Group|TDeviceGroup|TDG_ElDevice|Р“СЂСѓРїРїР° СѓСЃС‚СЂРѕР№СЃС‚РІР°
1000
#14=BTY_TreeCoord|GDBString|PLAN_EM_РџСѓСЃРєР°С‚РµР»СЊ|РџРѕР·РёС†РёСЏ РІ РґРµСЂРµРІРµ
1000
#15=GC_Metric|GDBString||
1000
#16=GC_HDGroupTemplate|GDBString||РЁР°Р±Р»РѕРЅ РіСЂСѓРїРїС‹
1000
#17=GC_HeadDeviceTemplate|GDBString||РЁР°Р±Р»РѕРЅ РіРѕР»РѕРІРЅРѕРіРѕ СѓСЃС‚СЂРѕР№СЃС‚РІР°
1000
#18=GC_HDShortNameTemplate|GDBString||РЁР°Р±Р»РѕРЅ РєРѕСЂРѕС‚РєРѕРіРѕ РёРјРµРЅРё РіРѕР»РѕРІРЅРѕРіРѕ СѓСЃС‚СЂРѕР№СЃС‚РІР°
1000
#19=GC_InGroup_Metric|GDBString||РњРµС‚СЂРёРєР° РЅСѓРјРµСЂР°С†РёРё РІ РіСЂСѓРїРїРµ
1000
_OWNERHANDLE=0000000064
1000
_HANDLE=001026EF68
1000
_UPGRADE=1
1002
}
0
INSERT
5
494
100
AcDbEntity
8
0
100
AcDbBlockReference
2
CONNECTOR_SQUARE
10
-11.1103850816
20
-26.4834202500
30
0.0000000000
41
1.0000000000
42
1.0000000000
43
1.0000000000
50
0.0000000000
1001
DSTP_XDATA
1002
{
1000
USES=System
1000
USES=connectors
1000
USES=devices
1000
#0=DeviceClass|TDeviceClass|TDC_Unknown|РљР»Р°СЃСЃ СѓСЃС‚СЂРѕР№СЃС‚РІР°
1000
#1=Connector_Type|TConnectorType|TCT_ElCable|РўРёРї СЃРѕРµРґРёРЅРµРЅРёСЏ
1000
#2=Border_Type|TConnectorBorderType|TCBT_Owner|Р“СЂР°РЅРёС†Р° РїРѕРґСЂРµР·РєРё
1000
#3=Connector_Name|GDBString||РРјСЏ СЃРѕРµРґРёРЅРµРЅРёСЏ
1000
#4=Connector_Junction|GDBBoolean|False|Р’РѕР·РјРѕР¶РЅРѕСЃС‚СЊ РѕС‚РІРµС‚РІР»РµРЅРёСЏ
1000
#5=LENGTH_Add|GDBDouble|0.0|Р”РѕР±Р°РІРёС‚СЊ Рє РґР»РёРЅРµ
1000
_OWNERHANDLE=001026EF68
1000
_HANDLE=00102706C8
1000
_UPGRADE=1
1002
}
0
LINE
5
495
100
AcDbEntity
8
SYS_METRIC
100
AcDbLine
10
-12.1103850816
20
-26.4834202500
30
0.0000000000
11
-10.1103850816
21
-26.4834202500
31
0.0000000000
1001
DSTP_XDATA
1002
{
1000
_OWNERHANDLE=00102706C8
1002
}
0
LINE
5
496
100
AcDbEntity
8
SYS_METRIC
100
AcDbLine
10
-11.1103850816
20
-25.4834202500
30
0.0000000000
11
-11.1103850816
21
-27.4834202500
31
0.0000000000
1001
DSTP_XDATA
1002
{
1000
_OWNERHANDLE=00102706C8
1002
}
0
LINE
5
497
100
AcDbEntity
8
SYS_DEVICE_BORDER
100
AcDbLine
10
-12.3603850816
20
-27.7334202500
30
0.0000000000
11
-12.3603850816
21
-25.2334202500
31
0.0000000000
1001
DSTP_XDATA
1002
{
1000
_OWNERHANDLE=001026EF68
1002
}
0
LINE
5
498
100
AcDbEntity
8
SYS_DEVICE_BORDER
100
AcDbLine
10
-9.8603850816
20
-27.7334202500
30
0.0000000000
11
-9.8603850816
21
-25.2334202500
31
0.0000000000
1001
DSTP_XDATA
1002
{
1000
_OWNERHANDLE=001026EF68
1002
}
0
LINE
5
499
100
AcDbEntity
8
SYS_DEVICE_BORDER
100
AcDbLine
10
-12.3603850816
20
-25.2334202500
30
0.0000000000
11
-9.8603850816
21
-25.2334202500
31
0.0000000000
1001
DSTP_XDATA
1002
{
1000
_OWNERHANDLE=001026EF68
1002
}
0
LINE
5
49A
100
AcDbEntity
8
SYS_DEVICE_BORDER
100
AcDbLine
10
-12.3603850816
20
-27.7334202500
30
0.0000000000
11
-9.8603850816
21
-27.7334202500
31
0.0000000000
1001
DSTP_XDATA
1002
{
1000
_OWNERHANDLE=001026EF68
1002
}
0
TEXT
5
49B
100
AcDbEntity
8
SYS_METRIC
100
AcDbText
11
-11.1103850816
21
-24.2334202500
31
0.0000000000
10
-13.4020518551
20
-24.2334202500
30
0.0000000000
40
2.5000000000
50
0.0000000000
41
0.7000000000
51
12.0000000000
72
1
7
R2_5
1
SB2
100
AcDbText
73
0
1001
DSTP_XDATA
1002
{
1000
_TMPL1=@@[NMO_Name]
1000
_OWNERHANDLE=001026EF68
1002
}
0
POLYLINE
5
49C
100
AcDbEntity
8
SYS_METRIC
370
20
100
AcDb3dPolyline
66
1
10
0.0000000000
20
0.0000000000
30
0.0000000000
70
8
1001
DSTP_XDATA
1002
{
1000
USES=System
1000
USES=cables
1000
#0=NMO_Name|GDBString|@3|РћР±РѕР·РЅР°С‡РµРЅРёРµ
1000
#1=NMO_BaseName|GDBString|@|РљРѕСЂРѕС‚РєРѕРµ РРјСЏ
1000
#2=NMO_Prefix|GDBString||РџСЂРµС„РёРєСЃ
1000
#3=NMO_PrefixTemplate|GDBString||РЁР°Р±Р»РѕРЅ РїСЂРµС„РёРєСЃР°
1000
#4=NMO_Suffix|GDBString|3|РЎСѓС„С„РёРєСЃ
1000
#5=NMO_SuffixTemplate|GDBString||РЁР°Р±Р»РѕРЅ СЃСѓС„С„РёРєСЃР°
1000
#6=NMO_Template|GDBString|@@[NMO_Prefix]@@[NMO_BaseName]@@[NMO_Suffix]|РЁР°Р±Р»РѕРЅ РћР±РѕР·РЅР°С‡РµРЅРёСЏ
1000
#7=DB_link|GDBString|_EQ000001|РњР°С‚РµСЂРёР°Р»
1000
#8=LENGTH_RoundTo|GDBInteger|0|РћРєСЂСѓРіР»СЏС‚СЊ РґРѕ
1000
#9=LENGTH_Add|GDBDouble|4.0|Р”РѕР±Р°РІРёС‚СЊ Рє РґР»РёРЅРµ
1000
#10=LENGTH_Scale|GDBDouble|0.1|РњР°СЃС€С‚Р°Р±
1000
#11=GC_HeadDevice|GDBString|??|Р“РѕР»РѕРІРЅРѕРµ СѓСЃС‚СЂРѕР№СЃС‚РІРѕ
1000
#12=GC_HDShortName|GDBString|??|РљРѕСЂРѕС‚РєРѕРµ РёРјСЏ РіРѕР»РѕРІРЅРѕРіРѕ СѓСЃС‚СЂРѕР№СЃС‚РІР°
1000
#13=GC_HDGroup|GDBString|0|Р“СЂСѓРїРїР° РІ РіРѕР»РѕРІРЅРѕРј СѓСЃС‚СЂРѕР№СЃС‚РІРµ
1000
#14=CABLE_Type|TCableType|TCT_Control|РўРёРї
1000
#15=CABLE_Segment|GDBInteger|0|РЎРµРіРјРµРЅС‚
1000
#16=CABLE_WireCount|GDBInteger|0|Р§РёСЃР»Рѕ Р¶РёР»
1000
#17=CABLE_TotalCD|GDBInteger|2|РџРѕРґРєР»СЋС‡РµРЅРѕ СѓСЃС‚СЂРѕР№СЃС‚РІ
1000
#18=AmountD|GDBDouble|5.0|Р”Р»РёРЅР°
1000
#19=GC_Metric|GDBString||
1000
#20=GC_HDGroupTemplate|GDBString||РЁР°Р±Р»РѕРЅ РіСЂСѓРїРїС‹
1000
#21=GC_HeadDeviceTemplate|GDBString||РЁР°Р±Р»РѕРЅ РіРѕР»РѕРІРЅРѕРіРѕ СѓСЃС‚СЂРѕР№СЃС‚РІР°
1000
#22=GC_HDShortNameTemplate|GDBString||РЁР°Р±Р»РѕРЅ РєРѕСЂРѕС‚РєРѕРіРѕ РёРјРµРЅРё РіРѕР»РѕРІРЅРѕРіРѕ СѓСЃС‚СЂРѕР№СЃС‚РІР°
1000
#23=GC_InGroup_Metric|GDBString||РњРµС‚СЂРёРєР° РЅСѓРјРµСЂР°С†РёРё РІ РіСЂСѓРїРїРµ
1000
_OWNERHANDLE=0000000064
1000
_UPGRADE=1
1000
_LAYER=0
1002
}
0
VERTEX
5
49D
100
AcDbEntity
8
0
370
20
100
AcDbVertex
100
AcDb3dPolylineVertex
10
14.8394322798
20
-1.9306197215
30
0.0000000000
0
VERTEX
5
49E
100
AcDbEntity
8
0
370
20
100
AcDbVertex
100
AcDb3dPolylineVertex
10
3.3158253692
20
-5.0113464322
30
0.0000000000
0
SEQEND
5
49F
100
AcDbEntity
8
0
370
20
0
LINE
5
4A0
100
AcDbEntity
8
0
370
20
100
AcDbLine
10
12.3394322798
20
-2.5989709449
30
0.0000000000
11
4.5658253692
21
-4.6771708205
31
0.0000000000
1001
DSTP_XDATA
1002
{
1000
_OWNERHANDLE=6E
1002
}
0
LINE
5
4A1
100
AcDbEntity
8
0
100
AcDbLine
10
2.5260567932
20
-5.8712237503
30
0.0000000000
11
-7.1827370309
21
-7.5330344792
31
0.0000000000
1001
DSTP_XDATA
1002
{
1000
_UPGRADE=1
1000
%1=size|GDBInteger|0|
1000
%2=scale|GDBDouble|1|
1000
%3=twidth|GDBDouble|0|
1002
}
0
LINE
5
4A2
100
AcDbEntity
8
0
100
AcDbLine
10
2.5260567932
20
-5.8712237503
30
0.0000000000
11
2.5260567932
21
-5.8712237503
31
0.0000000000
1001
DSTP_XDATA
1002
{
1000
_OWNERHANDLE=000000006E
1002
}
0
MTEXT
5
4A3
100
AcDbEntity
8
0
100
AcDbMText
10
-12.1827370309
20
-8.5330344792
30
0.0000000000
40
2.5000000000
41
0.0000000000
71
2
1
@3
7
Standard
11
1.0000000000
21
0.0000000000
31
0.0000000000
44
0.9600000000
1001
DSTP_XDATA
1002
{
1000
_OWNERHANDLE=000000006E
1002
}
0
LINE
5
4A4
100
AcDbEntity
8
0
100
AcDbLine
10
-17.1827370309
20
-7.5330344792
30
0.0000000000
11
-7.1827370309
21
-7.5330344792
31
0.0000000000
1001
DSTP_XDATA
1002
{
1000
_OWNERHANDLE=000000006E
1002
}
0
LINE
5
4A5
100
AcDbEntity
8
0
100
AcDbLine
10
-17.1827370309
20
-11.5330344792
30
0.0000000000
11
-7.1827370309
21
-11.5330344792
31
0.0000000000
1001
DSTP_XDATA
1002
{
1000
_OWNERHANDLE=000000006E
1002
}
0
LINE
5
4A6
100
AcDbEntity
8
0
100
AcDbLine
10
-17.1827370309
20
-7.5330344792
30
0.0000000000
11
-17.1827370309
21
-11.5330344792
31
0.0000000000
1001
DSTP_XDATA
1002
{
1000
_OWNERHANDLE=000000006E
1002
}
0
LINE
5
4A7
100
AcDbEntity
8
0
100
AcDbLine
10
-7.1827370309
20
-7.5330344792
30
0.0000000000
11
-7.1827370309
21
-11.5330344792
31
0.0000000000
1001
DSTP_XDATA
1002
{
1000
_OWNERHANDLE=000000006E
1002
}
0
MTEXT
5
4A8
100
AcDbEntity
8
0
100
AcDbMText
10
-7.1827370309
20
-6.0330344792
30
0.0000000000
40
2.5000000000
41
0.0000000000
71
9
1
SB1
7
Standard
11
1.0000000000
21
0.0000000000
31
0.0000000000
44
0.0000000000
1001
DSTP_XDATA
1002
{
1000
_OWNERHANDLE=000000006E
1002
}
0
LINE
5
4A9
100
AcDbEntity
8
0
100
AcDbLine
10
-7.1827370309
20
-6.5330344792
30
0.0000000000
11
-7.1827370309
21
-7.5330344792
31
0.0000000000
1001
DSTP_XDATA
1002
{
1000
_OWNERHANDLE=000000006E
1002
}
0
LINE
5
4AA
100
AcDbEntity
8
0
100
AcDbLine
10
-7.1827370309
20
-6.5330344792
30
0.0000000000
11
-11.2660703990
21
-6.5330344792
31
0.0000000000
1001
DSTP_XDATA
1002
{
1000
_OWNERHANDLE=000000006E
1002
}
0
INSERT
5
4AB
100
AcDbEntity
8
0
100
AcDbBlockReference
2
KIP_KNOPKA
10
3.3158253692
20
-5.0113464322
30
0.0000000000
41
1.0000000000
42
1.0000000000
43
1.0000000000
50
0.0000000000
1001
DSTP_XDATA
1002
{
1000
USES=System
1000
USES=devices
1000
#0=NMO_Name|GDBString|SB1|РћР±РѕР·РЅР°С‡РµРЅРёРµ
1000
#1=NMO_BaseName|GDBString|SB|РљРѕСЂРѕС‚РєРѕРµ РРјСЏ
1000
#2=NMO_Prefix|GDBString||РџСЂРµС„РёРєСЃ
1000
#3=NMO_Suffix|GDBString|1|РЎСѓС„С„РёРєСЃ
1000
#4=NMO_Template|GDBString|@@[NMO_Prefix]@@[NMO_BaseName]@@[NMO_Suffix]|РЁР°Р±Р»РѕРЅ РћР±РѕР·РЅР°С‡РµРЅРёСЏ
1000
#5=DB_link|GDBString|??|РњР°С‚РµСЂРёР°Р»
1000
#6=GC_HeadDevice|GDBString|??|
1000
#7=GC_HDShortName|GDBString|??|
1000
#8=GC_HDGroup|GDBString|0|
1000
#9=SerialConnection|GDBInteger|1|
1000
#10=GC_NumberInGroup|GDBInteger|0|
1000
#11=Device_Type|TDeviceType|TDT_SilaComm|РўРёРї СѓСЃС‚СЂРѕР№СЃС‚РІР°
1000
#12=Device_Class|TDeviceClass|TDC_Shell|РљР»Р°СЃСЃ СѓСЃС‚СЂРѕР№СЃС‚РІР°
1000
#13=Device_Group|TDeviceGroup|TDG_ElDevice|Р“СЂСѓРїРїР° СѓСЃС‚СЂРѕР№СЃС‚РІР°
1000
#14=BTY_TreeCoord|GDBString|PLAN_EM_РџСѓСЃРєР°С‚РµР»СЊ|РџРѕР·РёС†РёСЏ РІ РґРµСЂРµРІРµ
1000
#15=GC_Metric|GDBString||
1000
#16=GC_HDGroupTemplate|GDBString||РЁР°Р±Р»РѕРЅ РіСЂСѓРїРїС‹
1000
#17=GC_HeadDeviceTemplate|GDBString||РЁР°Р±Р»РѕРЅ РіРѕР»РѕРІРЅРѕРіРѕ СѓСЃС‚СЂРѕР№СЃС‚РІР°
1000
#18=GC_HDShortNameTemplate|GDBString||РЁР°Р±Р»РѕРЅ РєРѕСЂРѕС‚РєРѕРіРѕ РёРјРµРЅРё РіРѕР»РѕРІРЅРѕРіРѕ СѓСЃС‚СЂРѕР№СЃС‚РІР°
1000
#19=GC_InGroup_Metric|GDBString||РњРµС‚СЂРёРєР° РЅСѓРјРµСЂР°С†РёРё РІ РіСЂСѓРїРїРµ
1000
_OWNERHANDLE=0000000064
1000
_HANDLE=0010271DF8
1000
_UPGRADE=1
1002
}
0
INSERT
5
4AC
100
AcDbEntity
8
0
100
AcDbBlockReference
2
CONNECTOR_SQUARE
10
3.3158253692
20
-5.0113464322
30
0.0000000000
41
1.0000000000
42
1.0000000000
43
1.0000000000
50
0.0000000000
1001
DSTP_XDATA
1002
{
1000
USES=System
1000
USES=connectors
1000
USES=devices
1000
#0=DeviceClass|TDeviceClass|TDC_Unknown|РљР»Р°СЃСЃ СѓСЃС‚СЂРѕР№СЃС‚РІР°
1000
#1=Connector_Type|TConnectorType|TCT_ElCable|РўРёРї СЃРѕРµРґРёРЅРµРЅРёСЏ
1000
#2=Border_Type|TConnectorBorderType|TCBT_Owner|Р“СЂР°РЅРёС†Р° РїРѕРґСЂРµР·РєРё
1000
#3=Connector_Name|GDBString||РРјСЏ СЃРѕРµРґРёРЅРµРЅРёСЏ
1000
#4=Connector_Junction|GDBBoolean|False|Р’РѕР·РјРѕР¶РЅРѕСЃС‚СЊ РѕС‚РІРµС‚РІР»РµРЅРёСЏ
1000
#5=LENGTH_Add|GDBDouble|0.0|Р”РѕР±Р°РІРёС‚СЊ Рє РґР»РёРЅРµ
1000
_OWNERHANDLE=0010271DF8
1000
_HANDLE=001028AA98
1000
_UPGRADE=1
1002
}
0
LINE
5
4AD
100
AcDbEntity
8
SYS_METRIC
100
AcDbLine
10
2.3158253692
20
-5.0113464322
30
0.0000000000
11
4.3158253692
21
-5.0113464322
31
0.0000000000
1001
DSTP_XDATA
1002
{
1000
_OWNERHANDLE=001028AA98
1002
}
0
LINE
5
4AE
100
AcDbEntity
8
SYS_METRIC
100
AcDbLine
10
3.3158253692
20
-4.0113464322
30
0.0000000000
11
3.3158253692
21
-6.0113464322
31
0.0000000000
1001
DSTP_XDATA
1002
{
1000
_OWNERHANDLE=001028AA98
1002
}
0
LINE
5
4AF
100
AcDbEntity
8
SYS_DEVICE_BORDER
100
AcDbLine
10
2.0658253692
20
-6.2613464322
30
0.0000000000
11
2.0658253692
21
-3.7613464322
31
0.0000000000
1001
DSTP_XDATA
1002
{
1000
_OWNERHANDLE=0010271DF8
1002
}
0
LINE
5
4B0
100
AcDbEntity
8
SYS_DEVICE_BORDER
100
AcDbLine
10
4.5658253692
20
-6.2613464322
30
0.0000000000
11
4.5658253692
21
-3.7613464322
31
0.0000000000
1001
DSTP_XDATA
1002
{
1000
_OWNERHANDLE=0010271DF8
1002
}
0
LINE
5
4B1
100
AcDbEntity
8
SYS_DEVICE_BORDER
100
AcDbLine
10
2.0658253692
20
-3.7613464322
30
0.0000000000
11
4.5658253692
21
-3.7613464322
31
0.0000000000
1001
DSTP_XDATA
1002
{
1000
_OWNERHANDLE=0010271DF8
1002
}
0
LINE
5
4B2
100
AcDbEntity
8
SYS_DEVICE_BORDER
100
AcDbLine
10
2.0658253692
20
-6.2613464322
30
0.0000000000
11
4.5658253692
21
-6.2613464322
31
0.0000000000
1001
DSTP_XDATA
1002
{
1000
_OWNERHANDLE=0010271DF8
1002
}
0
TEXT
5
4B3
100
AcDbEntity
8
SYS_METRIC
100
AcDbText
11
3.3158253692
21
-2.7613464322
31
0.0000000000
10
1.0241585436
20
-2.7613464322
30
0.0000000000
40
2.5000000000
50
0.0000000000
41
0.7000000000
51
12.0000000000
72
1
7
R2_5
1
SB1
100
AcDbText
73
0
1001
DSTP_XDATA
1002
{
1000
_TMPL1=@@[NMO_Name]
1000
_OWNERHANDLE=0010271DF8
1002
}
0
INSERT
5
4B4
100
AcDbEntity
8
0
100
AcDbBlockReference
2
EL_CONTACTOR
10
32.6947603865
20
-3.1926397181
30
0.0000000000
41
1.0000000000
42
1.0000000000
43
1.0000000000
50
0.0000000000
1001
DSTP_XDATA
1002
{
1000
USES=System
1000
USES=devices
1000
#0=NMO_Name|GDBString|KM2|РћР±РѕР·РЅР°С‡РµРЅРёРµ
1000
#1=NMO_BaseName|GDBString|KM|РљРѕСЂРѕС‚РєРѕРµ РРјСЏ
1000
#2=NMO_Prefix|GDBString||РџСЂРµС„РёРєСЃ
1000
#3=NMO_Suffix|GDBString|2|РЎСѓС„С„РёРєСЃ
1000
#4=NMO_Template|GDBString|@@[NMO_Prefix]@@[NMO_BaseName]@@[NMO_Suffix]|РЁР°Р±Р»РѕРЅ РћР±РѕР·РЅР°С‡РµРЅРёСЏ
1000
#5=DB_link|GDBString|??|РњР°С‚РµСЂРёР°Р»
1000
#6=GC_HeadDevice|GDBString|??|
1000
#7=GC_HDShortName|GDBString|??|
1000
#8=GC_HDGroup|GDBString|0|
1000
#9=SerialConnection|GDBInteger|1|
1000
#10=GC_NumberInGroup|GDBInteger|0|
1000
#11=Device_Type|TDeviceType|TDT_SilaComm|РўРёРї СѓСЃС‚СЂРѕР№СЃС‚РІР°
1000
#12=Device_Class|TDeviceClass|TDC_Shell|РљР»Р°СЃСЃ СѓСЃС‚СЂРѕР№СЃС‚РІР°
1000
#13=Device_Group|TDeviceGroup|TDG_ElDevice|Р“СЂСѓРїРїР° СѓСЃС‚СЂРѕР№СЃС‚РІР°
1000
#14=BTY_TreeCoord|GDBString|PLAN_EM_РџСѓСЃРєР°С‚РµР»СЊ|РџРѕР·РёС†РёСЏ РІ РґРµСЂРµРІРµ
1000
#15=GC_Metric|GDBString||
1000
#16=GC_HDGroupTemplate|GDBString||РЁР°Р±Р»РѕРЅ РіСЂСѓРїРїС‹
1000
#17=GC_HeadDeviceTemplate|GDBString||РЁР°Р±Р»РѕРЅ РіРѕР»РѕРІРЅРѕРіРѕ СѓСЃС‚СЂРѕР№СЃС‚РІР°
1000
#18=GC_HDShortNameTemplate|GDBString||РЁР°Р±Р»РѕРЅ РєРѕСЂРѕС‚РєРѕРіРѕ РёРјРµРЅРё РіРѕР»РѕРІРЅРѕРіРѕ СѓСЃС‚СЂРѕР№СЃС‚РІР°
1000
#19=GC_InGroup_Metric|GDBString||РњРµС‚СЂРёРєР° РЅСѓРјРµСЂР°С†РёРё РІ РіСЂСѓРїРїРµ
1000
_OWNERHANDLE=0000000064
1000
_HANDLE=0010285E68
1000
_UPGRADE=1
1002
}
0
INSERT
5
4B5
100
AcDbEntity
8
0
100
AcDbBlockReference
2
CONNECTOR_SQUARE
10
32.6947603865
20
-3.1926397181
30
0.0000000000
41
1.0000000000
42
1.0000000000
43
1.0000000000
50
0.0000000000
1001
DSTP_XDATA
1002
{
1000
USES=System
1000
USES=connectors
1000
USES=devices
1000
#0=DeviceClass|TDeviceClass|TDC_Unknown|РљР»Р°СЃСЃ СѓСЃС‚СЂРѕР№СЃС‚РІР°
1000
#1=Connector_Type|TConnectorType|TCT_ElCable|РўРёРї СЃРѕРµРґРёРЅРµРЅРёСЏ
1000
#2=Border_Type|TConnectorBorderType|TCBT_Owner|Р“СЂР°РЅРёС†Р° РїРѕРґСЂРµР·РєРё
1000
#3=Connector_Name|GDBString||РРјСЏ СЃРѕРµРґРёРЅРµРЅРёСЏ
1000
#4=Connector_Junction|GDBBoolean|False|Р’РѕР·РјРѕР¶РЅРѕСЃС‚СЊ РѕС‚РІРµС‚РІР»РµРЅРёСЏ
1000
#5=LENGTH_Add|GDBDouble|0.0|Р”РѕР±Р°РІРёС‚СЊ Рє РґР»РёРЅРµ
1000
_OWNERHANDLE=0010285E68
1000
_HANDLE=00102814C8
1000
_UPGRADE=1
1002
}
0
LINE
5
4B6
100
AcDbEntity
8
SYS_METRIC
100
AcDbLine
10
31.6947603865
20
-3.1926397181
30
0.0000000000
11
33.6947603865
21
-3.1926397181
31
0.0000000000
1001
DSTP_XDATA
1002
{
1000
_OWNERHANDLE=00102814C8
1002
}
0
LINE
5
4B7
100
AcDbEntity
8
SYS_METRIC
100
AcDbLine
10
32.6947603865
20
-2.1926397181
30
0.0000000000
11
32.6947603865
21
-4.1926397181
31
0.0000000000
1001
DSTP_XDATA
1002
{
1000
_OWNERHANDLE=00102814C8
1002
}
0
LINE
5
4B8
100
AcDbEntity
8
SYS_DEVICE_BORDER
100
AcDbLine
10
35.1947603865
20
-5.6926397181
30
0.0000000000
11
30.1947603865
21
-5.6926397181
31
0.0000000000
1001
DSTP_XDATA
1002
{
1000
_OWNERHANDLE=0010285E68
1002
}
0
LINE
5
4B9
100
AcDbEntity
8
SYS_DEVICE_BORDER
100
AcDbLine
10
35.1947603865
20
-0.6926397181
30
0.0000000000
11
35.1947603865
21
-5.6926397181
31
0.0000000000
1001
DSTP_XDATA
1002
{
1000
_OWNERHANDLE=0010285E68
1002
}
0
LINE
5
4BA
100
AcDbEntity
8
SYS_DEVICE_BORDER
100
AcDbLine
10
30.1947603865
20
-0.6926397181
30
0.0000000000
11
35.1947603865
21
-0.6926397181
31
0.0000000000
1001
DSTP_XDATA
1002
{
1000
_OWNERHANDLE=0010285E68
1002
}
0
LINE
5
4BB
100
AcDbEntity
8
SYS_DEVICE_BORDER
100
AcDbLine
10
30.1947603865
20
-5.6926397181
30
0.0000000000
11
30.1947603865
21
-0.6926397181
31
0.0000000000
1001
DSTP_XDATA
1002
{
1000
_OWNERHANDLE=0010285E68
1002
}
0
TEXT
5
4BC
100
AcDbEntity
8
EL_DEVICE_NAME
100
AcDbText
11
32.6947603865
21
0.3073602819
31
0.0000000000
10
30.1530937323
20
0.3073602819
30
0.0000000000
40
2.5000000000
50
0.0000000000
41
0.7000000000
51
12.0000000000
72
1
7
R2_5
1
KM2
100
AcDbText
73
0
1001
DSTP_XDATA
1002
{
1000
_TMPL1=@@[NMO_Name]
1000
_OWNERHANDLE=0010285E68
1002
}
0
LINE
5
4BD
100
AcDbEntity
8
0
100
AcDbLine
10
22.3177305833
20
7.9752681296
30
0.0000000000
11
31.3002718650
21
16.9578094113
31
0.0000000000
1001
DSTP_XDATA
1002
{
1000
_UPGRADE=1
1000
%1=size|GDBInteger|0|
1000
%2=scale|GDBDouble|1|
1000
%3=twidth|GDBDouble|0|
1002
}
0
LINE
5
4BE
100
AcDbEntity
8
0
100
AcDbLine
10
22.3177305833
20
7.9752681296
30
0.0000000000
11
22.3177305833
21
7.9752681296
31
0.0000000000
1001
DSTP_XDATA
1002
{
1000
_OWNERHANDLE=000000006E
1002
}
0
MTEXT
5
4BF
100
AcDbEntity
8
0
100
AcDbMText
10
36.3002718650
20
23.9578094113
30
0.0000000000
40
2.5000000000
41
0.0000000000
71
2
1
@2
7
Standard
11
1.0000000000
21
0.0000000000
31
0.0000000000
44
0.9600000000
1001
DSTP_XDATA
1002
{
1000
_OWNERHANDLE=000000006E
1002
}
0
MTEXT
5
4C0
100
AcDbEntity
8
0
100
AcDbMText
10
36.3002718650
20
19.9578094113
30
0.0000000000
40
2.5000000000
41
0.0000000000
71
2
1
ШР4-2
7
Standard
11
1.0000000000
21
0.0000000000
31
0.0000000000
44
0.9600000000
1001
DSTP_XDATA
1002
{
1000
_OWNERHANDLE=000000006E
1002
}
0
LINE
5
4C1
100
AcDbEntity
8
0
100
AcDbLine
10
31.3002718650
20
24.9578094113
30
0.0000000000
11
41.3002718650
21
24.9578094113
31
0.0000000000
1001
DSTP_XDATA
1002
{
1000
_OWNERHANDLE=000000006E
1002
}
0
LINE
5
4C2
100
AcDbEntity
8
0
100
AcDbLine
10
31.3002718650
20
20.9578094113
30
0.0000000000
11
41.3002718650
21
20.9578094113
31
0.0000000000
1001
DSTP_XDATA
1002
{
1000
_OWNERHANDLE=000000006E
1002
}
0
LINE
5
4C3
100
AcDbEntity
8
0
100
AcDbLine
10
31.3002718650
20
16.9578094113
30
0.0000000000
11
41.3002718650
21
16.9578094113
31
0.0000000000
1001
DSTP_XDATA
1002
{
1000
_OWNERHANDLE=000000006E
1002
}
0
LINE
5
4C4
100
AcDbEntity
8
0
100
AcDbLine
10
31.3002718650
20
24.9578094113
30
0.0000000000
11
31.3002718650
21
16.9578094113
31
0.0000000000
1001
DSTP_XDATA
1002
{
1000
_OWNERHANDLE=000000006E
1002
}
0
LINE
5
4C5
100
AcDbEntity
8
0
100
AcDbLine
10
41.3002718650
20
24.9578094113
30
0.0000000000
11
41.3002718650
21
16.9578094113
31
0.0000000000
1001
DSTP_XDATA
1002
{
1000
_OWNERHANDLE=000000006E
1002
}
0
MTEXT
5
4C6
100
AcDbEntity
8
0
100
AcDbMText
10
31.3002718650
20
26.4578094113
30
0.0000000000
40
2.5000000000
41
0.0000000000
71
7
1
C2
7
Standard
11
1.0000000000
21
0.0000000000
31
0.0000000000
44
0.0000000000
1001
DSTP_XDATA
1002
{
1000
_OWNERHANDLE=000000006E
1002
}
0
LINE
5
4C7
100
AcDbEntity
8
0
100
AcDbLine
10
31.3002718650
20
25.9578094113
30
0.0000000000
11
31.3002718650
21
24.9578094113
31
0.0000000000
1001
DSTP_XDATA
1002
{
1000
_OWNERHANDLE=000000006E
1002
}
0
LINE
5
4C8
100
AcDbEntity
8
0
100
AcDbLine
10
31.3002718650
20
25.9578094113
30
0.0000000000
11
34.2169385577
21
25.9578094113
31
0.0000000000
1001
DSTP_XDATA
1002
{
1000
_OWNERHANDLE=000000006E
1002
}
0
POLYLINE
5
4C9
100
AcDbEntity
8
SYS_METRIC
370
20
100
AcDb3dPolyline
66
1
10
0.0000000000
20
0.0000000000
30
0.0000000000
70
8
1001
DSTP_XDATA
1002
{
1000
USES=System
1000
USES=cables
1000
#0=NMO_Name|GDBString|@5|РћР±РѕР·РЅР°С‡РµРЅРёРµ
1000
#1=NMO_BaseName|GDBString|@|РљРѕСЂРѕС‚РєРѕРµ РРјСЏ
1000
#2=NMO_Prefix|GDBString||РџСЂРµС„РёРєСЃ
1000
#3=NMO_PrefixTemplate|GDBString||РЁР°Р±Р»РѕРЅ РїСЂРµС„РёРєСЃР°
1000
#4=NMO_Suffix|GDBString|5|РЎСѓС„С„РёРєСЃ
1000
#5=NMO_SuffixTemplate|GDBString||РЁР°Р±Р»РѕРЅ СЃСѓС„С„РёРєСЃР°
1000
#6=NMO_Template|GDBString|@@[NMO_Prefix]@@[NMO_BaseName]@@[NMO_Suffix]|РЁР°Р±Р»РѕРЅ РћР±РѕР·РЅР°С‡РµРЅРёСЏ
1000
#7=DB_link|GDBString|_EQ000001|РњР°С‚РµСЂРёР°Р»
1000
#8=LENGTH_RoundTo|GDBInteger|0|РћРєСЂСѓРіР»СЏС‚СЊ РґРѕ
1000
#9=LENGTH_Add|GDBDouble|4.0|Р”РѕР±Р°РІРёС‚СЊ Рє РґР»РёРЅРµ
1000
#10=LENGTH_Scale|GDBDouble|0.1|РњР°СЃС€С‚Р°Р±
1000
#11=GC_HeadDevice|GDBString|??|Р“РѕР»РѕРІРЅРѕРµ СѓСЃС‚СЂРѕР№СЃС‚РІРѕ
1000
#12=GC_HDShortName|GDBString|??|РљРѕСЂРѕС‚РєРѕРµ РёРјСЏ РіРѕР»РѕРІРЅРѕРіРѕ СѓСЃС‚СЂРѕР№СЃС‚РІР°
1000
#13=GC_HDGroup|GDBString|0|Р“СЂСѓРїРїР° РІ РіРѕР»РѕРІРЅРѕРј СѓСЃС‚СЂРѕР№СЃС‚РІРµ
1000
#14=CABLE_Type|TCableType|TCT_Control|РўРёРї
1000
#15=CABLE_Segment|GDBInteger|0|РЎРµРіРјРµРЅС‚
1000
#16=CABLE_WireCount|GDBInteger|0|Р§РёСЃР»Рѕ Р¶РёР»
1000
#17=CABLE_TotalCD|GDBInteger|2|РџРѕРґРєР»СЋС‡РµРЅРѕ СѓСЃС‚СЂРѕР№СЃС‚РІ
1000
#18=AmountD|GDBDouble|6.0|Р”Р»РёРЅР°
1000
#19=GC_Metric|GDBString||
1000
#20=GC_HDGroupTemplate|GDBString||РЁР°Р±Р»РѕРЅ РіСЂСѓРїРїС‹
1000
#21=GC_HeadDeviceTemplate|GDBString||РЁР°Р±Р»РѕРЅ РіРѕР»РѕРІРЅРѕРіРѕ СѓСЃС‚СЂРѕР№СЃС‚РІР°
1000
#22=GC_HDShortNameTemplate|GDBString||РЁР°Р±Р»РѕРЅ РєРѕСЂРѕС‚РєРѕРіРѕ РёРјРµРЅРё РіРѕР»РѕРІРЅРѕРіРѕ СѓСЃС‚СЂРѕР№СЃС‚РІР°
1000
#23=GC_InGroup_Metric|GDBString||РњРµС‚СЂРёРєР° РЅСѓРјРµСЂР°С†РёРё РІ РіСЂСѓРїРїРµ
1000
_OWNERHANDLE=0000000064
1000
_UPGRADE=1
1000
_LAYER=0
1002
}
0
VERTEX
5
4CA
100
AcDbEntity
8
0
370
20
100
AcDbVertex
100
AcDb3dPolylineVertex
10
32.6947603865
20
-3.1926397181
30
0.0000000000
0
VERTEX
5
4CB
100
AcDbEntity
8
0
370
20
100
AcDbVertex
100
AcDb3dPolylineVertex
10
53.3207910226
20
-6.9116260483
30
0.0000000000
0
SEQEND
5
4CC
100
AcDbEntity
8
0
370
20
0
LINE
5
4CD
100
AcDbEntity
8
0
370
20
100
AcDbLine
10
35.1947603865
20
-3.6434034152
30
0.0000000000
11
52.0707910226
21
-6.6862441998
31
0.0000000000
1001
DSTP_XDATA
1002
{
1000
_OWNERHANDLE=6E
1002
}
0
LINE
5
4CE
100
AcDbEntity
8
0
100
AcDbLine
10
54.2770482465
20
-7.7296984551
30
0.0000000000
11
57.6770482465
21
-12.8296984551
31
0.0000000000
1001
DSTP_XDATA
1002
{
1000
_UPGRADE=1
1000
%1=size|GDBInteger|0|
1000
%2=scale|GDBDouble|1|
1000
%3=twidth|GDBDouble|0|
1002
}
0
LINE
5
4CF
100
AcDbEntity
8
0
100
AcDbLine
10
54.2770482465
20
-7.7296984551
30
0.0000000000
11
54.2770482465
21
-7.7296984551
31
0.0000000000
1001
DSTP_XDATA
1002
{
1000
_OWNERHANDLE=000000006E
1002
}
0
MTEXT
5
4D0
100
AcDbEntity
8
0
100
AcDbMText
10
62.6770482465
20
-13.8296984551
30
0.0000000000
40
2.5000000000
41
0.0000000000
71
2
1
@5
7
Standard
11
1.0000000000
21
0.0000000000
31
0.0000000000
44
0.9600000000
1001
DSTP_XDATA
1002
{
1000
_OWNERHANDLE=000000006E
1002
}
0
LINE
5
4D1
100
AcDbEntity
8
0
100
AcDbLine
10
57.6770482465
20
-12.8296984551
30
0.0000000000
11
67.6770482465
21
-12.8296984551
31
0.0000000000
1001
DSTP_XDATA
1002
{
1000
_OWNERHANDLE=000000006E
1002
}
0
LINE
5
4D2
100
AcDbEntity
8
0
100
AcDbLine
10
57.6770482465
20
-16.8296984551
30
0.0000000000
11
67.6770482465
21
-16.8296984551
31
0.0000000000
1001
DSTP_XDATA
1002
{
1000
_OWNERHANDLE=000000006E
1002
}
0
LINE
5
4D3
100
AcDbEntity
8
0
100
AcDbLine
10
57.6770482465
20
-12.8296984551
30
0.0000000000
11
57.6770482465
21
-16.8296984551
31
0.0000000000
1001
DSTP_XDATA
1002
{
1000
_OWNERHANDLE=000000006E
1002
}
0
LINE
5
4D4
100
AcDbEntity
8
0
100
AcDbLine
10
67.6770482465
20
-12.8296984551
30
0.0000000000
11
67.6770482465
21
-16.8296984551
31
0.0000000000
1001
DSTP_XDATA
1002
{
1000
_OWNERHANDLE=000000006E
1002
}
0
MTEXT
5
4D5
100
AcDbEntity
8
0
100
AcDbMText
10
57.6770482465
20
-11.3296984551
30
0.0000000000
40
2.5000000000
41
0.0000000000
71
7
1
SB3
7
Standard
11
1.0000000000
21
0.0000000000
31
0.0000000000
44
0.0000000000
1001
DSTP_XDATA
1002
{
1000
_OWNERHANDLE=000000006E
1002
}
0
LINE
5
4D6
100
AcDbEntity
8
0
100
AcDbLine
10
57.6770482465
20
-11.8296984551
30
0.0000000000
11
57.6770482465
21
-12.8296984551
31
0.0000000000
1001
DSTP_XDATA
1002
{
1000
_OWNERHANDLE=000000006E
1002
}
0
LINE
5
4D7
100
AcDbEntity
8
0
100
AcDbLine
10
57.6770482465
20
-11.8296984551
30
0.0000000000
11
62.3437149132
21
-11.8296984551
31
0.0000000000
1001
DSTP_XDATA
1002
{
1000
_OWNERHANDLE=000000006E
1002
}
0
INSERT
5
4D8
100
AcDbEntity
8
0
100
AcDbBlockReference
2
KIP_KNOPKA
10
53.3207910226
20
-6.9116260483
30
0.0000000000
41
1.0000000000
42
1.0000000000
43
1.0000000000
50
0.0000000000
1001
DSTP_XDATA
1002
{
1000
USES=System
1000
USES=devices
1000
#0=NMO_Name|GDBString|SB3|РћР±РѕР·РЅР°С‡РµРЅРёРµ
1000
#1=NMO_BaseName|GDBString|SB|РљРѕСЂРѕС‚РєРѕРµ РРјСЏ
1000
#2=NMO_Prefix|GDBString||РџСЂРµС„РёРєСЃ
1000
#3=NMO_Suffix|GDBString|3|РЎСѓС„С„РёРєСЃ
1000
#4=NMO_Template|GDBString|@@[NMO_Prefix]@@[NMO_BaseName]@@[NMO_Suffix]|РЁР°Р±Р»РѕРЅ РћР±РѕР·РЅР°С‡РµРЅРёСЏ
1000
#5=DB_link|GDBString|??|РњР°С‚РµСЂРёР°Р»
1000
#6=GC_HeadDevice|GDBString|??|
1000
#7=GC_HDShortName|GDBString|??|
1000
#8=GC_HDGroup|GDBString|0|
1000
#9=SerialConnection|GDBInteger|1|
1000
#10=GC_NumberInGroup|GDBInteger|0|
1000
#11=Device_Type|TDeviceType|TDT_SilaComm|РўРёРї СѓСЃС‚СЂРѕР№СЃС‚РІР°
1000
#12=Device_Class|TDeviceClass|TDC_Shell|РљР»Р°СЃСЃ СѓСЃС‚СЂРѕР№СЃС‚РІР°
1000
#13=Device_Group|TDeviceGroup|TDG_ElDevice|Р“СЂСѓРїРїР° СѓСЃС‚СЂРѕР№СЃС‚РІР°
1000
#14=BTY_TreeCoord|GDBString|PLAN_EM_РџСѓСЃРєР°С‚РµР»СЊ|РџРѕР·РёС†РёСЏ РІ РґРµСЂРµРІРµ
1000
#15=GC_Metric|GDBString||
1000
#16=GC_HDGroupTemplate|GDBString||РЁР°Р±Р»РѕРЅ РіСЂСѓРїРїС‹
1000
#17=GC_HeadDeviceTemplate|GDBString||РЁР°Р±Р»РѕРЅ РіРѕР»РѕРІРЅРѕРіРѕ СѓСЃС‚СЂРѕР№СЃС‚РІР°
1000
#18=GC_HDShortNameTemplate|GDBString||РЁР°Р±Р»РѕРЅ РєРѕСЂРѕС‚РєРѕРіРѕ РёРјРµРЅРё РіРѕР»РѕРІРЅРѕРіРѕ СѓСЃС‚СЂРѕР№СЃС‚РІР°
1000
#19=GC_InGroup_Metric|GDBString||РњРµС‚СЂРёРєР° РЅСѓРјРµСЂР°С†РёРё РІ РіСЂСѓРїРїРµ
1000
_OWNERHANDLE=0000000064
1000
_HANDLE=0010291DE0
1000
_UPGRADE=1
1002
}
0
INSERT
5
4D9
100
AcDbEntity
8
0
100
AcDbBlockReference
2
CONNECTOR_SQUARE
10
53.3207910226
20
-6.9116260483
30
0.0000000000
41
1.0000000000
42
1.0000000000
43
1.0000000000
50
0.0000000000
1001
DSTP_XDATA
1002
{
1000
USES=System
1000
USES=connectors
1000
USES=devices
1000
#0=DeviceClass|TDeviceClass|TDC_Unknown|РљР»Р°СЃСЃ СѓСЃС‚СЂРѕР№СЃС‚РІР°
1000
#1=Connector_Type|TConnectorType|TCT_ElCable|РўРёРї СЃРѕРµРґРёРЅРµРЅРёСЏ
1000
#2=Border_Type|TConnectorBorderType|TCBT_Owner|Р“СЂР°РЅРёС†Р° РїРѕРґСЂРµР·РєРё
1000
#3=Connector_Name|GDBString||РРјСЏ СЃРѕРµРґРёРЅРµРЅРёСЏ
1000
#4=Connector_Junction|GDBBoolean|False|Р’РѕР·РјРѕР¶РЅРѕСЃС‚СЊ РѕС‚РІРµС‚РІР»РµРЅРёСЏ
1000
#5=LENGTH_Add|GDBDouble|0.0|Р”РѕР±Р°РІРёС‚СЊ Рє РґР»РёРЅРµ
1000
_OWNERHANDLE=0010291DE0
1000
_HANDLE=0010295BE0
1000
_UPGRADE=1
1002
}
0
LINE
5
4DA
100
AcDbEntity
8
SYS_METRIC
100
AcDbLine
10
52.3207910226
20
-6.9116260483
30
0.0000000000
11
54.3207910226
21
-6.9116260483
31
0.0000000000
1001
DSTP_XDATA
1002
{
1000
_OWNERHANDLE=0010295BE0
1002
}
0
LINE
5
4DB
100
AcDbEntity
8
SYS_METRIC
100
AcDbLine
10
53.3207910226
20
-5.9116260483
30
0.0000000000
11
53.3207910226
21
-7.9116260483
31
0.0000000000
1001
DSTP_XDATA
1002
{
1000
_OWNERHANDLE=0010295BE0
1002
}
0
LINE
5
4DC
100
AcDbEntity
8
SYS_DEVICE_BORDER
100
AcDbLine
10
52.0707910226
20
-8.1616260483
30
0.0000000000
11
52.0707910226
21
-5.6616260483
31
0.0000000000
1001
DSTP_XDATA
1002
{
1000
_OWNERHANDLE=0010291DE0
1002
}
0
LINE
5
4DD
100
AcDbEntity
8
SYS_DEVICE_BORDER
100
AcDbLine
10
54.5707910226
20
-8.1616260483
30
0.0000000000
11
54.5707910226
21
-5.6616260483
31
0.0000000000
1001
DSTP_XDATA
1002
{
1000
_OWNERHANDLE=0010291DE0
1002
}
0
LINE
5
4DE
100
AcDbEntity
8
SYS_DEVICE_BORDER
100
AcDbLine
10
52.0707910226
20
-5.6616260483
30
0.0000000000
11
54.5707910226
21
-5.6616260483
31
0.0000000000
1001
DSTP_XDATA
1002
{
1000
_OWNERHANDLE=0010291DE0
1002
}
0
LINE
5
4DF
100
AcDbEntity
8
SYS_DEVICE_BORDER
100
AcDbLine
10
52.0707910226
20
-8.1616260483
30
0.0000000000
11
54.5707910226
21
-8.1616260483
31
0.0000000000
1001
DSTP_XDATA
1002
{
1000
_OWNERHANDLE=0010291DE0
1002
}
0
TEXT
5
4E0
100
AcDbEntity
8
SYS_METRIC
100
AcDbText
11
53.3207910226
21
-4.6616260483
31
0.0000000000
10
51.0291241970
20
-4.6616260483
30
0.0000000000
40
2.5000000000
50
0.0000000000
41
0.7000000000
51
12.0000000000
72
1
7
R2_5
1
SB3
100
AcDbText
73
0
1001
DSTP_XDATA
1002
{
1000
_TMPL1=@@[NMO_Name]
1000
_OWNERHANDLE=0010291DE0
1002
}
0
ENDSEC
0
SECTION
2
OBJECTS
0
DICTIONARY
5
4E1
330
0
100
AcDbDictionary
281
1
3
ACAD_COLOR
350
4E2
3
ACAD_GROUP
350
4E3
3
ACAD_LAYOUT
350
4E4
3
ACAD_MATERIAL
350
4E5
3
ACAD_MLINESTYLE
350
4E6
3
ACAD_PLOTSETTINGS
350
4E7
3
ACAD_PLOTSTYLENAME
350
4E8
3
ACAD_TABLESTYLE
350
4E9
3
ACDBHEADERROUNDTRIPXREC
350
4EA
3
AcDbVariableDictionary
350
4EB
3
DWGPROPS
350
4EC
0
DICTIONARY
5
2BD
330
2BC
100
AcDbDictionary
280
1
281
1
3
ACAD_LAYERFILTERS
360
4ED
3
ACAD_LAYERSTATES
360
4EE
3
ACLYDICTIONARY
360
4EF
0
DICTIONARY
5
4E2
102
{ACAD_REACTORS
330
4E1
102
}
330
4E1
100
AcDbDictionary
281
1
0
DICTIONARY
5
4E3
102
{ACAD_REACTORS
330
4E1
102
}
330
4E1
100
AcDbDictionary
281
1
0
DICTIONARY
5
4E4
102
{ACAD_REACTORS
330
4E1
102
}
330
4E1
100
AcDbDictionary
281
1
3
Layout1
350
2E0
3
Layout2
350
2E2
3
Model
350
2DE
0
DICTIONARY
5
4E5
102
{ACAD_REACTORS
330
4E1
102
}
330
4E1
100
AcDbDictionary
281
1
0
DICTIONARY
5
4E6
102
{ACAD_REACTORS
330
4E1
102
}
330
4E1
100
AcDbDictionary
281
1
3
Standard
350
4F0
0
DICTIONARY
5
4E7
102
{ACAD_REACTORS
330
4E1
102
}
330
4E1
100
AcDbDictionary
281
1
0
ACDBDICTIONARYWDFLT
5
4E8
102
{ACAD_REACTORS
330
4E1
102
}
330
4E1
100
AcDbDictionary
281
1
3
Normal
350
2BF
100
AcDbDictionaryWithDefault
340
2BF
0
DICTIONARY
5
4E9
102
{ACAD_REACTORS
330
4E1
102
}
330
4E1
100
AcDbDictionary
281
1
3
Standard
350
4F1
0
DICTIONARY
5
4EA
102
{ACAD_REACTORS
330
4E1
102
}
330
4E1
100
AcDbDictionary
281
1
0
DICTIONARY
5
4EB
102
{ACAD_REACTORS
330
4E1
102
}
330
4E1
100
AcDbDictionary
281
1
3
CTABLESTYLE
350
4F2
3
DIMASSOC
350
4F3
3
HIDETEXT
350
4F4
3
PROJECTNAME
350
4F5
0
XRECORD
5
4EC
102
{ACAD_REACTORS
330
4E1
102
}
330
4E1
100
AcDbXrecord
280
1
1
DWGPROPS COOKIE
2

3

4

6

7

8
Autodesk
9

300
=
301
=
302
=
303
=
304
=
305
=
306
=
307
=
308
=
309
=
40
0.0121102546296296
41
2455008.558453229
42
2455694.624051458
1

90
0
0
DICTIONARY
5
4ED
102
{ACAD_REACTORS
330
2BD
102
}
330
2BD
100
AcDbDictionary
281
1
0
DICTIONARY
5
4EE
102
{ACAD_REACTORS
330
2BD
102
}
330
2BD
100
AcDbDictionary
281
1
0
DICTIONARY
5
4EF
102
{ACAD_REACTORS
330
2BD
102
}
330
2BD
100
AcDbDictionary
281
1
1001
ACAD
1000
<All
0
LAYOUT
5
2E0
102
{ACAD_XDICTIONARY
360
4F6
102
}
102
{ACAD_REACTORS
330
4E4
102
}
330
4E4
100
AcDbPlotSettings
1

2
C:\Documents and Settings\basas\Application Data\Autodesk\AutoCAD 2005\R16.1\enu\plotters\Default Windows System Printer.pc3
4

6

40
0.0
41
0.0
42
0.0
43
0.0
44
0.0
45
0.0
46
0.0
47
0.0
48
0.0
49
0.0
140
0.0
141
0.0
142
1.0
143
1.0
70
688
72
0
73
0
74
5
7

75
16
147
1.0
148
0.0
149
0.0
100
AcDbLayout
1
Layout1
70
1
71
1
10
0.0
20
0.0
11
12.0
21
9.0
12
0.0
22
0.0
32
0.0
14
0.0
24
0.0
34
0.0
15
0.0
25
0.0
35
0.0
146
0.0
13
0.0
23
0.0
33
0.0
16
1.0
26
0.0
36
0.0
17
0.0
27
1.0
37
0.0
76
0
330
2DF
0
LAYOUT
5
2E2
102
{ACAD_XDICTIONARY
360
4F7
102
}
102
{ACAD_REACTORS
330
4E4
102
}
330
4E4
100
AcDbPlotSettings
1

2
C:\Documents and Settings\basas\Application Data\Autodesk\AutoCAD 2005\R16.1\enu\plotters\Default Windows System Printer.pc3
4

6

40
0.0
41
0.0
42
0.0
43
0.0
44
0.0
45
0.0
46
0.0
47
0.0
48
0.0
49
0.0
140
0.0
141
0.0
142
1.0
143
1.0
70
688
72
0
73
0
74
5
7

75
16
147
1.0
148
0.0
149
0.0
100
AcDbLayout
1
Layout2
70
1
71
2
10
0.0
20
0.0
11
12.0
21
9.0
12
0.0
22
0.0
32
0.0
14
0.0
24
0.0
34
0.0
15
0.0
25
0.0
35
0.0
146
0.0
13
0.0
23
0.0
33
0.0
16
1.0
26
0.0
36
0.0
17
0.0
27
1.0
37
0.0
76
0
330
2E1
0
LAYOUT
5
2DE
102
{ACAD_XDICTIONARY
360
4F8
102
}
102
{ACAD_REACTORS
330
4E4
102
}
330
4E4
100
AcDbPlotSettings
1

2
none_device
4
ISO_A4_(210.00_x_297.00_MM)
6

40
7.5
41
20.0
42
7.5
43
20.0
44
210.0
45
297.0
46
11.54999923706054
47
-13.65000009536743
48
0.0
49
0.0
140
0.0
141
0.0
142
1.0
143
8.704084754739808
70
11952
72
1
73
0
74
0
7

75
0
147
0.1148885871608098
148
0.0
149
0.0
100
AcDbLayout
1
Model
70
1
71
0
10
0.0
20
0.0
11
12.0
21
9.0
12
0.0
22
0.0
32
0.0
14
0.0
24
0.0
34
0.0
15
0.0
25
0.0
35
0.0
146
0.0
13
0.0
23
0.0
33
0.0
16
1.0
26
0.0
36
0.0
17
0.0
27
1.0
37
0.0
76
0
330
2DD
1001
ACAD_PSEXT
1000
None
1000
None
1000
Not applicable
1000
The layout will not be plotted unless a new plotter configuration name is selected.
1070
0
0
MLINESTYLE
5
4F0
102
{ACAD_REACTORS
330
4E6
102
}
330
4E6
100
AcDbMlineStyle
2
STANDARD
70
0
3

62
256
51
90.0
52
90.0
71
2
49
0.5
62
256
6
BYLAYER
49
-0.5
62
256
6
BYLAYER
0
ACDBPLACEHOLDER
5
2BF
102
{ACAD_REACTORS
330
4E8
102
}
330
4E8
0
TABLESTYLE
5
4F1
102
{ACAD_REACTORS
330
4E9
102
}
330
4E9
100
AcDbTableStyle
3
Standard
70
0
71
0
40
1.5
41
1.5
280
0
281
0
7
Standard
140
4.5
170
2
62
0
63
7
283
0
274
-2
284
1
64
0
275
-2
285
1
65
0
276
-2
286
1
66
0
277
-2
287
1
67
0
278
-2
288
1
68
0
279
-2
289
1
69
0
7
Standard
140
6.0
170
5
62
0
63
7
283
0
274
-2
284
1
64
0
275
-2
285
1
65
0
276
-2
286
1
66
0
277
-2
287
1
67
0
278
-2
288
1
68
0
279
-2
289
1
69
0
7
Standard
140
4.5
170
5
62
0
63
7
283
0
274
-2
284
1
64
0
275
-2
285
1
65
0
276
-2
286
1
66
0
277
-2
287
1
67
0
278
-2
288
1
68
0
279
-2
289
1
69
0
0
DICTIONARYVAR
5
4F2
102
{ACAD_REACTORS
330
4EB
102
}
330
4EB
100
DictionaryVariables
280
0
1
STANDARD
0
DICTIONARYVAR
5
4F3
102
{ACAD_REACTORS
330
4EB
102
}
330
4EB
100
DictionaryVariables
280
0
1
2
0
DICTIONARYVAR
5
4F4
102
{ACAD_REACTORS
330
4EB
102
}
330
4EB
100
DictionaryVariables
280
0
1
1
0
DICTIONARYVAR
5
4F5
102
{ACAD_REACTORS
330
4EB
102
}
330
4EB
100
DictionaryVariables
280
0
1

0
DICTIONARY
5
4F6
330
2E0
100
AcDbDictionary
280
1
281
1
3
ACAD_XREC_ROUNDTRIP
360
4F9
0
DICTIONARY
5
4F7
330
2E2
100
AcDbDictionary
280
1
281
1
3
ACAD_XREC_ROUNDTRIP
360
4FA
0
DICTIONARY
5
4F8
330
2DE
100
AcDbDictionary
280
1
281
1
3
ACAD_XREC_ROUNDTRIP
360
4FB
0
XRECORD
5
4F9
102
{ACAD_REACTORS
330
4F6
102
}
330
4F6
100
AcDbXrecord
280
1
102
SHADEPLOT
70
0
102
SHADEPLOTRESLEVEL
70
2
102
SHADEPLOTCUSTOMDPI
70
300
0
XRECORD
5
4FA
102
{ACAD_REACTORS
330
4F7
102
}
330
4F7
100
AcDbXrecord
280
1
102
SHADEPLOT
70
0
102
SHADEPLOTRESLEVEL
70
2
102
SHADEPLOTCUSTOMDPI
70
300
0
XRECORD
5
4FB
102
{ACAD_REACTORS
330
4F8
102
}
330
4F8
100
AcDbXrecord
280
1
102
SHADEPLOT
70
0
102
SHADEPLOTRESLEVEL
70
2
102
SHADEPLOTCUSTOMDPI
70
300
0
ENDSEC
0
EOF
