0
SECTION
2
HEADER
9
$ACADVER
1
AC1015
9
$ACADMAINTVER
70
20
9
$DWGCODEPAGE
3
ANSI_1251
9
$INSBASE
10
0.0
20
0.0
30
0.0
9
$EXTMIN
10
140.9759676061104
20
20.78384260612357
30
-4.556249999999999
9
$EXTMAX
10
2239.781280550934
20
2630.436136918981
30
2.025000000000061
9
$LIMMIN
10
0.0
20
0.0
9
$LIMMAX
10
420.0
20
297.0
9
$ORTHOMODE
70
0
9
$REGENMODE
70
1
9
$FILLMODE
70
1
9
$QTEXTMODE
70
0
9
$MIRRTEXT
70
0
9
$LTSCALE
40
1
9
$ATTMODE
70
1
9
$TEXTSIZE
40
2.5
9
$TRACEWID
40
1.0
9
$TEXTSTYLE
7
Standard
9
$CLAYER
8
0
9
$CELTYPE
6
ByBlock
9
$CECOLOR
62
256
9
$CELTSCALE
40
1
9
$DISPSILH
70
0
9
$DIMSCALE
40
1.0
9
$DIMASZ
40
2.5
9
$DIMEXO
40
0.625
9
$DIMDLI
40
3.75
9
$DIMRND
40
0.0
9
$DIMDLE
40
0.0
9
$DIMEXE
40
1.25
9
$DIMTP
40
0.0
9
$DIMTM
40
0.0
9
$DIMTXT
40
2.5
9
$DIMCEN
40
2.5
9
$DIMTSZ
40
0.0
9
$DIMTOL
70
0
9
$DIMLIM
70
0
9
$DIMTIH
70
0
9
$DIMTOH
70
0
9
$DIMSE1
70
0
9
$DIMSE2
70
0
9
$DIMTAD
70
1
9
$DIMZIN
70
8
9
$DIMBLK
1

9
$DIMASO
70
1
9
$DIMSHO
70
1
9
$DIMPOST
1

9
$DIMAPOST
1

9
$DIMALT
70
0
9
$DIMALTD
70
3
9
$DIMALTF
40
0.03937007874016
9
$DIMLFAC
40
1.0
9
$DIMTOFL
70
1
9
$DIMTVP
40
0.0
9
$DIMTIX
70
0
9
$DIMSOXD
70
0
9
$DIMSAH
70
0
9
$DIMBLK1
1

9
$DIMBLK2
1

9
$DIMSTYLE
2
ISO-25
9
$DIMCLRD
70
0
9
$DIMCLRE
70
0
9
$DIMCLRT
70
0
9
$DIMTFAC
40
1.0
9
$DIMGAP
40
0.625
9
$DIMJUST
70
0
9
$DIMSD1
70
0
9
$DIMSD2
70
0
9
$DIMTOLJ
70
0
9
$DIMTZIN
70
8
9
$DIMALTZ
70
0
9
$DIMALTTZ
70
0
9
$DIMUPT
70
0
9
$DIMDEC
70
2
9
$DIMTDEC
70
2
9
$DIMALTU
70
2
9
$DIMALTTD
70
3
9
$DIMTXSTY
7
Standard
9
$DIMAUNIT
70
0
9
$DIMADEC
70
0
9
$DIMALTRND
40
0.0
9
$DIMAZIN
70
0
9
$DIMDSEP
70
44
9
$DIMATFIT
70
3
9
$DIMFRAC
70
0
9
$DIMLDRBLK
1

9
$DIMLUNIT
70
2
9
$DIMLWD
70
-2
9
$DIMLWE
70
-2
9
$DIMTMOVE
70
0
9
$LUNITS
70
2
9
$LUPREC
70
4
9
$SKETCHINC
40
1.0
9
$FILLETRAD
40
0.0
9
$AUNITS
70
0
9
$AUPREC
70
0
9
$MENU
1
.
9
$ELEVATION
40
0.0
9
$PELEVATION
40
0.0
9
$THICKNESS
40
0.0
9
$LIMCHECK
70
0
9
$CHAMFERA
40
0.0
9
$CHAMFERB
40
0.0
9
$CHAMFERC
40
0.0
9
$CHAMFERD
40
0.0
9
$SKPOLY
70
0
9
$TDCREATE
40
2459754.940474538
9
$TDUCREATE
40
2459754.732141204
9
$TDUPDATE
40
2459754.959120370
9
$TDUUPDATE
40
2459754.750787037
9
$TDINDWG
40
0.0095717593
9
$TDUSRTIMER
40
0.0095717593
9
$USRTIMER
70
1
9
$ANGBASE
50
0
9
$ANGDIR
70
0
9
$PDMODE
70
0
9
$PDSIZE
40
0.0
9
$PLINEWID
40
0.0
9
$SPLFRAME
70
0
9
$SPLINETYPE
70
6
9
$SPLINESEGS
70
8
9
$HANDSEED
5
1000001F4
9
$SURFTAB1
70
6
9
$SURFTAB2
70
6
9
$SURFTYPE
70
6
9
$SURFU
70
6
9
$SURFV
70
6
9
$UCSBASE
2

9
$UCSNAME
2

9
$UCSORG
10
0.0
20
0.0
30
0.0
9
$UCSXDIR
10
1.0
20
0.0
30
0.0
9
$UCSYDIR
10
0.0
20
1.0
30
0.0
9
$UCSORTHOREF
2

9
$UCSORTHOVIEW
70
0
9
$UCSORGTOP
10
0.0
20
0.0
30
0.0
9
$UCSORGBOTTOM
10
0.0
20
0.0
30
0.0
9
$UCSORGLEFT
10
0.0
20
0.0
30
0.0
9
$UCSORGRIGHT
10
0.0
20
0.0
30
0.0
9
$UCSORGFRONT
10
0.0
20
0.0
30
0.0
9
$UCSORGBACK
10
0.0
20
0.0
30
0.0
9
$PUCSBASE
2

9
$PUCSNAME
2

9
$PUCSORG
10
0.0
20
0.0
30
0.0
9
$PUCSXDIR
10
1.0
20
0.0
30
0.0
9
$PUCSYDIR
10
0.0
20
1.0
30
0.0
9
$PUCSORTHOREF
2

9
$PUCSORTHOVIEW
70
0
9
$PUCSORGTOP
10
0.0
20
0.0
30
0.0
9
$PUCSORGBOTTOM
10
0.0
20
0.0
30
0.0
9
$PUCSORGLEFT
10
0.0
20
0.0
30
0.0
9
$PUCSORGRIGHT
10
0.0
20
0.0
30
0.0
9
$PUCSORGFRONT
10
0.0
20
0.0
30
0.0
9
$PUCSORGBACK
10
0.0
20
0.0
30
0.0
9
$USERI1
70
0
9
$USERI2
70
0
9
$USERI3
70
0
9
$USERI4
70
0
9
$USERI5
70
0
9
$USERR1
40
0.0
9
$USERR2
40
0.0
9
$USERR3
40
0.0
9
$USERR4
40
0.0
9
$USERR5
40
0.0
9
$WORLDVIEW
70
1
9
$SHADEDGE
70
3
9
$SHADEDIF
70
70
9
$TILEMODE
70
1
9
$MAXACTVP
70
64
9
$PINSBASE
10
0.0
20
0.0
30
0.0
9
$PLIMCHECK
70
0
9
$PEXTMIN
10
0.0
20
0.0
30
0.0
9
$PEXTMAX
10
0.0
20
0.0
30
0.0
9
$PLIMMIN
10
0.0
20
0.0
9
$PLIMMAX
10
12.0
20
9.0
9
$UNITMODE
70
0
9
$VISRETAIN
70
1
9
$PLINEGEN
70
0
9
$PSLTSCALE
70
1
9
$TREEDEPTH
70
3020
9
$CMLSTYLE
2
Standard
9
$CMLJUST
70
0
9
$CMLSCALE
40
20.0
9
$PROXYGRAPHICS
70
1
9
$MEASUREMENT
70
1
9
$CELWEIGHT
370
0
9
$ENDCAPS
280
0
9
$JOINSTYLE
280
0
9
$LWDISPLAY
290
0
9
$INSUNITS
70
0
9
$HYPERLINKBASE
1

9
$STYLESHEET
1

9
$XEDIT
290
1
9
$CEPSNTYPE
380
0
9
$PSTYLEMODE
290
1
9
$FINGERPRINTGUID
2
{125D6104-8854-F44D-B0E3-14664475AFC4}
9
$VERSIONGUID
2
{900CD5F9-5E65-C842-8ED3-6860838CE9DD}
9
$EXTNAMES
290
1
9
$PSVPSCALE
40
0.0
9
$OLESTARTUP
290
0
0
ENDSEC
0
SECTION
2
TABLES
0
TABLE
2
VPORT
5
5
330
0
100
AcDbSymbolTable
70
1
0
VPORT
5
6
330
5
100
AcDbSymbolTableRecord
100
AcDbViewportTableRecord
2
*Active
70
0
10
0.0
20
0.0
11
1.0
21
1.0
12
353.954380050013
22
156.353065075243
13
0
23
0
14
10
24
10
15
10
25
10
16
0
26
0
36
1
17
0
27
0
37
0
40
99.3703607609884
41
1.25748502994012
42
50.0
43
0.0
44
0.0
50
0.0
51
0.0
71
0
72
1000
73
1
74
3
75
0
76
0
77
0
78
0
281
0
65
1
110
0.0
120
0.0
130
0.0
111
1.0
121
0.0
131
0.0
112
0.0
122
1.0
132
0.0
79
0
146
0.0
0
ENDTAB
0
TABLE
2
LTYPE
5
7
330
3
100
AcDbSymbolTable
70
1
0
LTYPE
5
B
330
B
100
AcDbSymbolTableRecord
100
AcDbLinetypeTableRecord
2
Continuous
70
0
3
Solid line
72
65
73
0
40
0
0
LTYPE
5
C
330
C
100
AcDbSymbolTableRecord
100
AcDbLinetypeTableRecord
2
ByLayer
70
0
3

72
65
73
0
40
0
0
LTYPE
5
D
330
D
100
AcDbSymbolTableRecord
100
AcDbLinetypeTableRecord
2
ByBlock
70
0
3

72
65
73
0
40
0
0
ENDTAB
0
TABLE
2
LAYER
5
E
330
3
100
AcDbSymbolTable
70
1
0
LAYER
5
11
100
AcDbSymbolTableRecord
100
AcDbLayerTableRecord
2
0
70
0
62
7
6
Continuous
290
1
370
-3
390
10
0
LAYER
5
12
100
AcDbSymbolTableRecord
100
AcDbLayerTableRecord
2
SYS_METRIC
70
0
62
-7
6
Continuous
290
0
370
-3
390
10
0
LAYER
5
13
100
AcDbSymbolTableRecord
100
AcDbLayerTableRecord
2
EL_DEVICE
70
0
62
1
6
Continuous
290
1
370
40
390
10
0
LAYER
5
14
100
AcDbSymbolTableRecord
100
AcDbLayerTableRecord
2
EL_WIRES
70
0
62
3
6
Continuous
290
1
370
40
390
10
0
LAYER
5
15
100
AcDbSymbolTableRecord
100
AcDbLayerTableRecord
2
SYS_PIN
70
0
62
-7
6
Continuous
290
1
370
-3
390
10
0
LAYER
5
16
100
AcDbSymbolTableRecord
100
AcDbLayerTableRecord
2
EL_DEVICE_PIN_NAME
70
0
62
125
6
Continuous
290
1
370
-3
390
10
0
LAYER
5
17
100
AcDbSymbolTableRecord
100
AcDbLayerTableRecord
2
EL_DEVICE_NAME
70
0
62
7
6
Continuous
290
1
370
-3
390
10
0
ENDTAB
0
TABLE
2
STYLE
5
18
330
3
100
AcDbSymbolTable
70
1
0
STYLE
5
1A
330
18
100
AcDbSymbolTableRecord
100
AcDbTextStyleTableRecord
2
Standard
70
0
40
0
41
1
50
0
71
0
42
2.5
3
txt
4

0
STYLE
5
1B
330
18
100
AcDbSymbolTableRecord
100
AcDbTextStyleTableRecord
2
R2_5
70
0
40
2.5
41
0.65
50
12
71
0
42
2.5
3
gewind.shx
4

0
ENDTAB
0
TABLE
2
VIEW
5
1C
330
3
100
AcDbSymbolTable
70
0
0
ENDTAB
0
TABLE
2
UCS
5
1D
330
3
100
AcDbSymbolTable
70
0
0
ENDTAB
0
TABLE
2
APPID
5
1E
330
3
100
AcDbSymbolTable
70
1
0
APPID
5
21
100
AcDbSymbolTableRecord
100
AcDbRegAppTableRecord
2
ACAD
70
0
0
APPID
5
22
100
AcDbSymbolTableRecord
100
AcDbRegAppTableRecord
2
ACAD_PSEXT
70
0
0
APPID
5
23
100
AcDbSymbolTableRecord
100
AcDbRegAppTableRecord
2
AcAecLayerStandard
70
0
0
APPID
5
24
100
AcDbSymbolTableRecord
100
AcDbRegAppTableRecord
2
DSTP_XDATA
70
0
0
APPID
5
25
100
AcDbSymbolTableRecord
100
AcDbRegAppTableRecord
2
ACAD_DSTYLE_DIM_LINETYPE
70
0
0
APPID
5
26
100
AcDbSymbolTableRecord
100
AcDbRegAppTableRecord
2
ACAD_DSTYLE_DIM_EXT1_LINETYPE
70
0
0
APPID
5
27
100
AcDbSymbolTableRecord
100
AcDbRegAppTableRecord
2
ACAD_DSTYLE_DIM_EXT2_LINETYPE
70
0
0
ENDTAB
0
TABLE
2
DIMSTYLE
5
28
330
3
100
AcDbSymbolTable
70
1
100
AcDbDimStyleTable
71
0
0
DIMSTYLE
105
2A
330
28
100
AcDbSymbolTableRecord
100
AcDbDimStyleTableRecord
2
ISO-25
3

70
0
40
0
44
1.25
42
0.625
46
0
41
2.5
173
0
140
2.5
141
2.5
73
0
74
0
147
0.625
77
1
144
1
271
2
45
0
277
2
278
44
279
0
371
-2
372
-2
176
0
177
0
178
0
340
1A
0
ENDTAB
0
TABLE
2
BLOCK_RECORD
5
2B
330
3
100
AcDbSymbolTable
70
1
0
BLOCK_RECORD
5
2C
330
2B
100
AcDbSymbolTableRecord
100
AcDbBlockTableRecord
2
*Model_Space
340
2D
0
BLOCK_RECORD
5
2E
330
2B
100
AcDbSymbolTableRecord
100
AcDbBlockTableRecord
2
*Paper_Space
340
2F
0
BLOCK_RECORD
5
30
100
AcDbSymbolTableRecord
100
AcDbBlockTableRecord
2
SCH_MOTOR_3PH_1
0
BLOCK_RECORD
5
31
100
AcDbSymbolTableRecord
100
AcDbBlockTableRecord
2
DEVICE_SCH_MOTOR_3PH_1
0
BLOCK_RECORD
5
32
100
AcDbSymbolTableRecord
100
AcDbBlockTableRecord
2
SCH_CONNECTOR_TERMINAL
0
BLOCK_RECORD
5
33
100
AcDbSymbolTableRecord
100
AcDbBlockTableRecord
2
DEVICE_SCH_CONNECTOR_TERMINAL
0
BLOCK_RECORD
5
34
100
AcDbSymbolTableRecord
100
AcDbBlockTableRecord
2
SCH_COIL
0
BLOCK_RECORD
5
35
100
AcDbSymbolTableRecord
100
AcDbBlockTableRecord
2
DEVICE_SCH_COIL
0
BLOCK_RECORD
5
36
100
AcDbSymbolTableRecord
100
AcDbBlockTableRecord
2
SCH_CONNECTOR_TERMINAL_CC
0
BLOCK_RECORD
5
37
100
AcDbSymbolTableRecord
100
AcDbBlockTableRecord
2
DEVICE_SCH_CONNECTOR_TERMINAL_CC
0
BLOCK_RECORD
5
38
100
AcDbSymbolTableRecord
100
AcDbBlockTableRecord
2
SCH_CONTACT_NOC_CC
0
BLOCK_RECORD
5
39
100
AcDbSymbolTableRecord
100
AcDbBlockTableRecord
2
DEVICE_SCH_CONTACT_NOC_CC
0
BLOCK_RECORD
5
3A
100
AcDbSymbolTableRecord
100
AcDbBlockTableRecord
2
SCH_BUTTON_NOC_CC
0
BLOCK_RECORD
5
3B
100
AcDbSymbolTableRecord
100
AcDbBlockTableRecord
2
DEVICE_SCH_BUTTON_NOC_CC
0
BLOCK_RECORD
5
3C
100
AcDbSymbolTableRecord
100
AcDbBlockTableRecord
2
SCH_THERMO_NC_CC
0
BLOCK_RECORD
5
3D
100
AcDbSymbolTableRecord
100
AcDbBlockTableRecord
2
DEVICE_SCH_THERMO_NC_CC
0
BLOCK_RECORD
5
3E
100
AcDbSymbolTableRecord
100
AcDbBlockTableRecord
2
SCH_BUTTON_NC_CC
0
BLOCK_RECORD
5
3F
100
AcDbSymbolTableRecord
100
AcDbBlockTableRecord
2
DEVICE_SCH_BUTTON_NC_CC
0
BLOCK_RECORD
5
40
100
AcDbSymbolTableRecord
100
AcDbBlockTableRecord
2
SCH_THERMO
0
BLOCK_RECORD
5
41
100
AcDbSymbolTableRecord
100
AcDbBlockTableRecord
2
DEVICE_SCH_THERMO
0
BLOCK_RECORD
5
42
100
AcDbSymbolTableRecord
100
AcDbBlockTableRecord
2
SCH_LAMP
0
BLOCK_RECORD
5
43
100
AcDbSymbolTableRecord
100
AcDbBlockTableRecord
2
DEVICE_SCH_LAMP
0
ENDTAB
0
ENDSEC
0
SECTION
2
BLOCKS
0
BLOCK
5
44
330
2C
100
AcDbEntity
8
0
100
AcDbBlockBegin
2
*Model_Space
70
0
10
0.0
20
0.0
30
0.0
3
*Model_Space
1

0
ENDBLK
5
45
330
2C
100
AcDbEntity
8
0
100
AcDbBlockEnd
0
BLOCK
5
46
330
2E
100
AcDbEntity
67
1
8
0
100
AcDbBlockBegin
2
*Paper_Space
70
0
10
0.0
20
0.0
30
0.0
3
*Paper_Space
1

0
ENDBLK
5
47
330
2E
100
AcDbEntity
67
1
8
0
100
AcDbBlockEnd
0
BLOCK
5
48
100
AcDbEntity
8
0
100
AcDbBlockBegin
2
SCH_MOTOR_3PH_1
70
2
10
0
20
0
30
0
3
SCH_MOTOR_3PH_1
1

0
CIRCLE
5
49
100
AcDbEntity
8
EL_DEVICE
100
AcDbCircle
6
ByLayer
10
0.0000000000
20
-6.0000000000
30
0.0000000000
40
6.0000000000
1001
DSTP_XDATA
1002
{
1000
_OWNERHANDLE=0000000064
1002
}
0
LINE
5
4A
100
AcDbEntity
8
EL_WIRES
100
AcDbLine
6
Continuous
10
-6.0000000000
20
0.0000000000
30
0.0000000000
11
-4.2426406871
21
-1.7573593129
31
0.0000000000
1001
DSTP_XDATA
1002
{
1000
_OWNERHANDLE=0000000064
1002
}
0
LINE
5
4B
100
AcDbEntity
8
EL_WIRES
100
AcDbLine
6
Continuous
10
-12.0000000000
20
0.0000000000
30
0.0000000000
11
-5.3665631460
21
-3.3167184270
31
0.0000000000
1001
DSTP_XDATA
1002
{
1000
_OWNERHANDLE=0000000064
1002
}
0
LINE
5
4C
100
AcDbEntity
8
EL_WIRES
100
AcDbLine
6
Continuous
10
6.0000000000
20
0.0000000000
30
0.0000000000
11
4.2426406871
21
-1.7573593129
31
0.0000000000
1001
DSTP_XDATA
1002
{
1000
_OWNERHANDLE=0000000064
1002
}
0
LINE
5
4D
100
AcDbEntity
8
EL_WIRES
100
AcDbLine
6
Continuous
10
12.0000000000
20
0.0000000000
30
0.0000000000
11
5.3665631460
21
-3.3167184270
31
0.0000000000
1001
DSTP_XDATA
1002
{
1000
_OWNERHANDLE=0000000064
1002
}
0
ENDBLK
5
4E
100
AcDbEntity
8
0
100
AcDbBlockEnd
0
BLOCK
5
4F
100
AcDbEntity
8
0
100
AcDbBlockBegin
2
DEVICE_SCH_MOTOR_3PH_1
70
2
10
0
20
0
30
0
3
DEVICE_SCH_MOTOR_3PH_1
1

0
INSERT
5
50
100
AcDbEntity
8
0
370
0
100
AcDbBlockReference
6
ByBlock
2
SCH_CONNECTOR_TERMINAL
10
-12.0000000000
20
0.0000000000
30
0.0000000000
41
1.0000000000
42
1.0000000000
43
1.0000000000
50
0.0000000000
1001
DSTP_XDATA
1002
{
1000
_OWNERHANDLE=0000000064
1000
USES=System
1000
#0=NMO_Name|String|1|Обозначение
1000
#1=NMO_Template|String|1|Шаблон обозначения
1000
#2=PIN_Number|Integer|1|Номер вывода
1000
SCHConnectorRadius=0
1000
_HANDLE=000A6ABC70
1000
_UPGRADE=1
1002
}
0
LINE
5
51
100
AcDbEntity
8
SYS_METRIC
100
AcDbLine
6
ByLayer
10
-13.0000000000
20
0.0000000000
30
0.0000000000
11
-11.0000000000
21
0.0000000000
31
0.0000000000
1001
DSTP_XDATA
1002
{
1000
_OWNERHANDLE=000A6ABC70
1002
}
0
LINE
5
52
100
AcDbEntity
8
SYS_METRIC
100
AcDbLine
6
ByLayer
10
-12.0000000000
20
1.0000000000
30
0.0000000000
11
-12.0000000000
21
-1.0000000000
31
0.0000000000
1001
DSTP_XDATA
1002
{
1000
_OWNERHANDLE=000A6ABC70
1002
}
0
TEXT
5
53
100
AcDbEntity
8
EL_DEVICE_PIN_NAME
100
AcDbText
6
ByLayer
10
-11.5000000000
20
1.0000000000
30
0.0000000000
11
-11.5000000000
21
1.0000000000
31
0.0000000000
40
2.5000000000
50
0.0000000000
41
0.7000000000
51
12.0000000000
72
0
7
R2_5
1
1
100
AcDbText
73
0
1001
DSTP_XDATA
1002
{
1000
_TMPL1=@@[NMO_Name]
1000
_OWNERHANDLE=000A6ABC70
1000
STEDefault=TRUE
1002
}
0
INSERT
5
54
100
AcDbEntity
8
0
370
0
100
AcDbBlockReference
6
ByBlock
2
SCH_CONNECTOR_TERMINAL
10
-6.0000000000
20
0.0000000000
30
0.0000000000
41
1.0000000000
42
1.0000000000
43
1.0000000000
50
0.0000000000
1001
DSTP_XDATA
1002
{
1000
_OWNERHANDLE=0000000064
1000
USES=System
1000
#0=NMO_Name|String|2|Обозначение
1000
#1=NMO_Template|String|2|Шаблон обозначения
1000
#2=PIN_Number|Integer|2|Номер вывода
1000
SCHConnectorRadius=0
1000
_HANDLE=000A6B0910
1000
_UPGRADE=1
1002
}
0
LINE
5
55
100
AcDbEntity
8
SYS_METRIC
100
AcDbLine
6
ByLayer
10
-7.0000000000
20
0.0000000000
30
0.0000000000
11
-5.0000000000
21
0.0000000000
31
0.0000000000
1001
DSTP_XDATA
1002
{
1000
_OWNERHANDLE=000A6B0910
1002
}
0
LINE
5
56
100
AcDbEntity
8
SYS_METRIC
100
AcDbLine
6
ByLayer
10
-6.0000000000
20
1.0000000000
30
0.0000000000
11
-6.0000000000
21
-1.0000000000
31
0.0000000000
1001
DSTP_XDATA
1002
{
1000
_OWNERHANDLE=000A6B0910
1002
}
0
TEXT
5
57
100
AcDbEntity
8
EL_DEVICE_PIN_NAME
100
AcDbText
6
ByLayer
10
-5.5000000000
20
1.0000000000
30
0.0000000000
11
-5.5000000000
21
1.0000000000
31
0.0000000000
40
2.5000000000
50
0.0000000000
41
0.7000000000
51
12.0000000000
72
0
7
R2_5
1
2
100
AcDbText
73
0
1001
DSTP_XDATA
1002
{
1000
_TMPL1=@@[NMO_Name]
1000
_OWNERHANDLE=000A6B0910
1000
STEDefault=TRUE
1002
}
0
INSERT
5
58
100
AcDbEntity
8
0
370
0
100
AcDbBlockReference
6
ByBlock
2
SCH_CONNECTOR_TERMINAL
10
0.0000000000
20
0.0000000000
30
0.0000000000
41
1.0000000000
42
1.0000000000
43
1.0000000000
50
0.0000000000
1001
DSTP_XDATA
1002
{
1000
_OWNERHANDLE=0000000064
1000
USES=System
1000
#0=NMO_Name|String|3|Обозначение
1000
#1=NMO_Template|String|3|Шаблон обозначения
1000
#2=PIN_Number|Integer|3|Номер вывода
1000
SCHConnectorRadius=0
1000
_HANDLE=000A6AB7D0
1000
_UPGRADE=1
1002
}
0
LINE
5
59
100
AcDbEntity
8
SYS_METRIC
100
AcDbLine
6
ByLayer
10
-1.0000000000
20
0.0000000000
30
0.0000000000
11
1.0000000000
21
0.0000000000
31
0.0000000000
1001
DSTP_XDATA
1002
{
1000
_OWNERHANDLE=000A6AB7D0
1002
}
0
LINE
5
5A
100
AcDbEntity
8
SYS_METRIC
100
AcDbLine
6
ByLayer
10
0.0000000000
20
1.0000000000
30
0.0000000000
11
0.0000000000
21
-1.0000000000
31
0.0000000000
1001
DSTP_XDATA
1002
{
1000
_OWNERHANDLE=000A6AB7D0
1002
}
0
TEXT
5
5B
100
AcDbEntity
8
EL_DEVICE_PIN_NAME
100
AcDbText
6
ByLayer
10
0.5000000000
20
1.0000000000
30
0.0000000000
11
0.5000000000
21
1.0000000000
31
0.0000000000
40
2.5000000000
50
0.0000000000
41
0.7000000000
51
12.0000000000
72
0
7
R2_5
1
3
100
AcDbText
73
0
1001
DSTP_XDATA
1002
{
1000
_TMPL1=@@[NMO_Name]
1000
_OWNERHANDLE=000A6AB7D0
1000
STEDefault=TRUE
1002
}
0
INSERT
5
5C
100
AcDbEntity
8
0
370
0
100
AcDbBlockReference
6
ByBlock
2
SCH_CONNECTOR_TERMINAL
10
6.0000000000
20
0.0000000000
30
0.0000000000
41
1.0000000000
42
1.0000000000
43
1.0000000000
50
0.0000000000
1001
DSTP_XDATA
1002
{
1000
_OWNERHANDLE=0000000064
1000
USES=System
1000
#0=NMO_Name|String|4|Обозначение
1000
#1=NMO_Template|String|4|Шаблон обозначения
1000
#2=PIN_Number|Integer|4|Номер вывода
1000
SCHConnectorRadius=0
1000
_HANDLE=000A6B45F0
1000
_UPGRADE=1
1002
}
0
LINE
5
5D
100
AcDbEntity
8
SYS_METRIC
100
AcDbLine
6
ByLayer
10
5.0000000000
20
0.0000000000
30
0.0000000000
11
7.0000000000
21
0.0000000000
31
0.0000000000
1001
DSTP_XDATA
1002
{
1000
_OWNERHANDLE=000A6B45F0
1002
}
0
LINE
5
5E
100
AcDbEntity
8
SYS_METRIC
100
AcDbLine
6
ByLayer
10
6.0000000000
20
1.0000000000
30
0.0000000000
11
6.0000000000
21
-1.0000000000
31
0.0000000000
1001
DSTP_XDATA
1002
{
1000
_OWNERHANDLE=000A6B45F0
1002
}
0
TEXT
5
5F
100
AcDbEntity
8
EL_DEVICE_PIN_NAME
100
AcDbText
6
ByLayer
10
6.5000000000
20
1.0000000000
30
0.0000000000
11
6.5000000000
21
1.0000000000
31
0.0000000000
40
2.5000000000
50
0.0000000000
41
0.7000000000
51
12.0000000000
72
0
7
R2_5
1
4
100
AcDbText
73
0
1001
DSTP_XDATA
1002
{
1000
_TMPL1=@@[NMO_Name]
1000
_OWNERHANDLE=000A6B45F0
1000
STEDefault=TRUE
1002
}
0
INSERT
5
60
100
AcDbEntity
8
0
370
0
100
AcDbBlockReference
6
ByBlock
2
SCH_CONNECTOR_TERMINAL
10
12.0000000000
20
0.0000000000
30
0.0000000000
41
1.0000000000
42
1.0000000000
43
1.0000000000
50
0.0000000000
1001
DSTP_XDATA
1002
{
1000
_OWNERHANDLE=0000000064
1000
USES=System
1000
#0=NMO_Name|String|5|Обозначение
1000
#1=NMO_Template|String|5|Шаблон обозначения
1000
#2=PIN_Number|Integer|5|Номер вывода
1000
SCHConnectorRadius=0
1000
_HANDLE=000A6B6670
1000
_UPGRADE=1
1002
}
0
LINE
5
61
100
AcDbEntity
8
SYS_METRIC
100
AcDbLine
6
ByLayer
10
11.0000000000
20
0.0000000000
30
0.0000000000
11
13.0000000000
21
0.0000000000
31
0.0000000000
1001
DSTP_XDATA
1002
{
1000
_OWNERHANDLE=000A6B6670
1002
}
0
LINE
5
62
100
AcDbEntity
8
SYS_METRIC
100
AcDbLine
6
ByLayer
10
12.0000000000
20
1.0000000000
30
0.0000000000
11
12.0000000000
21
-1.0000000000
31
0.0000000000
1001
DSTP_XDATA
1002
{
1000
_OWNERHANDLE=000A6B6670
1002
}
0
TEXT
5
63
100
AcDbEntity
8
EL_DEVICE_PIN_NAME
100
AcDbText
6
ByLayer
10
12.5000000000
20
1.0000000000
30
0.0000000000
11
12.5000000000
21
1.0000000000
31
0.0000000000
40
2.5000000000
50
0.0000000000
41
0.7000000000
51
12.0000000000
72
0
7
R2_5
1
5
100
AcDbText
73
0
1001
DSTP_XDATA
1002
{
1000
_TMPL1=@@[NMO_Name]
1000
_OWNERHANDLE=000A6B6670
1000
STEDefault=TRUE
1002
}
0
ENDBLK
5
64
100
AcDbEntity
8
0
100
AcDbBlockEnd
0
BLOCK
5
65
100
AcDbEntity
8
0
100
AcDbBlockBegin
2
SCH_CONNECTOR_TERMINAL
70
2
10
0
20
0
30
0
3
SCH_CONNECTOR_TERMINAL
1

0
LINE
5
66
100
AcDbEntity
8
SYS_PIN
100
AcDbLine
6
ByLayer
48
100.0000000000
10
-0.3535533906
20
0.3535533906
30
0.0000000000
11
0.3535533906
21
-0.3535533906
31
0.0000000000
1001
DSTP_XDATA
1002
{
1000
_OWNERHANDLE=0000000064
1002
}
0
LINE
5
67
100
AcDbEntity
8
SYS_PIN
100
AcDbLine
6
ByLayer
48
100.0000000000
10
0.3535533906
20
0.3535533906
30
0.0000000000
11
-0.3535533906
21
-0.3535533906
31
0.0000000000
1001
DSTP_XDATA
1002
{
1000
_OWNERHANDLE=0000000064
1002
}
0
LINE
5
68
100
AcDbEntity
8
SYS_PIN
100
AcDbLine
6
ByLayer
48
100.0000000000
10
-0.3535533906
20
0.3535533906
30
0.0000000000
11
0.3535533906
21
-0.3535533906
31
0.0000000000
1001
DSTP_XDATA
1002
{
1000
_OWNERHANDLE=0000000064
1002
}
0
LINE
5
69
100
AcDbEntity
8
SYS_PIN
100
AcDbLine
6
ByLayer
48
100.0000000000
10
0.3535533906
20
0.3535533906
30
0.0000000000
11
-0.3535533906
21
-0.3535533906
31
0.0000000000
1001
DSTP_XDATA
1002
{
1000
_OWNERHANDLE=0000000064
1002
}
0
LINE
5
6A
100
AcDbEntity
8
SYS_PIN
100
AcDbLine
6
ByLayer
48
100.0000000000
10
-0.3535533906
20
0.3535533906
30
0.0000000000
11
0.3535533906
21
-0.3535533906
31
0.0000000000
1001
DSTP_XDATA
1002
{
1000
_OWNERHANDLE=0000000064
1002
}
0
LINE
5
6B
100
AcDbEntity
8
SYS_PIN
100
AcDbLine
6
ByLayer
48
100.0000000000
10
0.3535533906
20
0.3535533906
30
0.0000000000
11
-0.3535533906
21
-0.3535533906
31
0.0000000000
1001
DSTP_XDATA
1002
{
1000
_OWNERHANDLE=0000000064
1002
}
0
LINE
5
6C
100
AcDbEntity
8
SYS_PIN
100
AcDbLine
6
ByLayer
48
100.0000000000
10
-0.3535533906
20
0.3535533906
30
0.0000000000
11
0.3535533906
21
-0.3535533906
31
0.0000000000
1001
DSTP_XDATA
1002
{
1000
_OWNERHANDLE=0000000064
1002
}
0
LINE
5
6D
100
AcDbEntity
8
SYS_PIN
100
AcDbLine
6
ByLayer
48
100.0000000000
10
0.3535533906
20
0.3535533906
30
0.0000000000
11
-0.3535533906
21
-0.3535533906
31
0.0000000000
1001
DSTP_XDATA
1002
{
1000
_OWNERHANDLE=0000000064
1002
}
0
ENDBLK
5
6E
100
AcDbEntity
8
0
100
AcDbBlockEnd
0
BLOCK
5
6F
100
AcDbEntity
8
0
100
AcDbBlockBegin
2
DEVICE_SCH_CONNECTOR_TERMINAL
70
2
10
0
20
0
30
0
3
DEVICE_SCH_CONNECTOR_TERMINAL
1

0
LINE
5
70
100
AcDbEntity
8
SYS_METRIC
100
AcDbLine
6
ByLayer
10
-1.0000000000
20
0.0000000000
30
0.0000000000
11
1.0000000000
21
0.0000000000
31
0.0000000000
1001
DSTP_XDATA
1002
{
1000
_OWNERHANDLE=0000000064
1002
}
0
LINE
5
71
100
AcDbEntity
8
SYS_METRIC
100
AcDbLine
6
ByLayer
10
0.0000000000
20
1.0000000000
30
0.0000000000
11
0.0000000000
21
-1.0000000000
31
0.0000000000
1001
DSTP_XDATA
1002
{
1000
_OWNERHANDLE=0000000064
1002
}
0
TEXT
5
72
100
AcDbEntity
8
EL_DEVICE_PIN_NAME
100
AcDbText
6
ByLayer
11
0.0000000000
21
1.0000000000
31
0.0000000000
10
0.0000000000
20
2.0000000000
30
0.0000000000
40
2.5000000000
50
0.0000000000
41
0.7000000000
51
12.0000000000
72
1
7
R2_5
1
??
100
AcDbText
73
0
1001
DSTP_XDATA
1002
{
1000
_TMPL1=
1000
_OWNERHANDLE=0000000064
1002
}
0
ENDBLK
5
73
100
AcDbEntity
8
0
100
AcDbBlockEnd
0
BLOCK
5
74
100
AcDbEntity
8
0
100
AcDbBlockBegin
2
SCH_COIL
70
2
10
0
20
0
30
0
3
SCH_COIL
1

0
LINE
5
75
100
AcDbEntity
8
EL_DEVICE
100
AcDbLine
6
ByLayer
10
-3.5000000000
20
0.0000000000
30
0.0000000000
11
-2.0000000000
21
0.0000000000
31
0.0000000000
1001
DSTP_XDATA
1002
{
1000
_OWNERHANDLE=0000000064
1002
}
0
LINE
5
76
100
AcDbEntity
8
EL_DEVICE
100
AcDbLine
6
ByLayer
10
3.5000000000
20
0.0000000000
30
0.0000000000
11
2.0000000000
21
0.0000000000
31
0.0000000000
1001
DSTP_XDATA
1002
{
1000
_OWNERHANDLE=0000000064
1002
}
0
POLYLINE
5
77
100
AcDbEntity
8
EL_DEVICE
370
0
100
AcDb3dPolyline
6
ByBlock
66
1
10
0.0000000000
20
0.0000000000
30
0.0000000000
70
9
1001
DSTP_XDATA
1002
{
1000
_OWNERHANDLE=0000000064
1002
}
0
VERTEX
5
78
100
AcDbEntity
8
EL_DEVICE
370
0
100
AcDbVertex
6
ByBlock
100
AcDb3dPolylineVertex
10
2.0000000000
20
-4.0000000000
30
0.0000000000
0
VERTEX
5
79
100
AcDbEntity
8
EL_DEVICE
370
0
100
AcDbVertex
6
ByBlock
100
AcDb3dPolylineVertex
10
-2.0000000000
20
-4.0000000000
30
0.0000000000
0
VERTEX
5
7A
100
AcDbEntity
8
EL_DEVICE
370
0
100
AcDbVertex
6
ByBlock
100
AcDb3dPolylineVertex
10
-2.0000000000
20
4.0000000000
30
0.0000000000
0
VERTEX
5
7B
100
AcDbEntity
8
EL_DEVICE
370
0
100
AcDbVertex
6
ByBlock
100
AcDb3dPolylineVertex
10
2.0000000000
20
4.0000000000
30
0.0000000000
0
SEQEND
5
7C
100
AcDbEntity
8
EL_DEVICE
370
0
6
ByBlock
0
ENDBLK
5
7D
100
AcDbEntity
8
0
100
AcDbBlockEnd
0
BLOCK
5
7E
100
AcDbEntity
8
0
100
AcDbBlockBegin
2
DEVICE_SCH_COIL
70
2
10
0
20
0
30
0
3
DEVICE_SCH_COIL
1

0
TEXT
5
7F
100
AcDbEntity
8
EL_DEVICE_NAME
100
AcDbText
6
ByLayer
10
0.0000000000
20
144.0000000000
30
0.0000000000
11
0.0000000000
21
288.0000000000
31
0.0000000000
40
2.5000000000
50
0.0000000000
41
0.7000000000
51
12.0000000000
72
0
7
R2_5
1
??KA0
100
AcDbText
73
0
1001
DSTP_XDATA
1002
{
1000
_TMPL1=@@[NMO_Name]
1000
_OWNERHANDLE=0000000064
1000
STEDefault=TRUE
1002
}
0
INSERT
5
80
100
AcDbEntity
8
0
100
AcDbBlockReference
6
ByLayer
2
SCH_CONNECTOR_TERMINAL_CC
10
-4.0000000000
20
0.0000000000
30
0.0000000000
41
1.0000000000
42
1.0000000000
43
1.0000000000
50
0.0000000000
1001
DSTP_XDATA
1002
{
1000
_OWNERHANDLE=0000000064
1000
USES=System
1000
#0=NMO_Name|String|1|Обозначение
1000
#1=NMO_Template|String|1|Шаблон обозначения
1000
#2=PIN_Number|Integer|1|Номер вывода
1000
SCHConnectorRadius=1
1000
_HANDLE=000A6B8B10
1000
_UPGRADE=1
1002
}
0
LINE
5
81
100
AcDbEntity
8
SYS_METRIC
100
AcDbLine
6
ByLayer
10
-5.0000000000
20
0.0000000000
30
0.0000000000
11
-3.0000000000
21
0.0000000000
31
0.0000000000
1001
DSTP_XDATA
1002
{
1000
_OWNERHANDLE=000A6B8B10
1002
}
0
LINE
5
82
100
AcDbEntity
8
SYS_METRIC
100
AcDbLine
6
ByLayer
10
-4.0000000000
20
1.0000000000
30
0.0000000000
11
-4.0000000000
21
-1.0000000000
31
0.0000000000
1001
DSTP_XDATA
1002
{
1000
_OWNERHANDLE=000A6B8B10
1002
}
0
TEXT
5
83
100
AcDbEntity
8
EL_DEVICE_PIN_NAME
100
AcDbText
6
ByLayer
11
-4.0000000000
21
1.0000000000
31
0.0000000000
10
-4.5833333333
20
1.0000000000
30
0.0000000000
40
2.5000000000
50
0.0000000000
41
0.7000000000
51
12.0000000000
72
1
7
R2_5
1
1
100
AcDbText
73
0
1001
DSTP_XDATA
1002
{
1000
_TMPL1=@@[NMO_Name]
1000
_OWNERHANDLE=000A6B8B10
1000
STEDefault=TRUE
1002
}
0
INSERT
5
84
100
AcDbEntity
8
0
100
AcDbBlockReference
6
ByLayer
2
SCH_CONNECTOR_TERMINAL_CC
10
4.0000000000
20
0.0000000000
30
0.0000000000
41
1.0000000000
42
1.0000000000
43
1.0000000000
50
0.0000000000
1001
DSTP_XDATA
1002
{
1000
_OWNERHANDLE=0000000064
1000
USES=System
1000
#0=NMO_Name|String|2|Обозначение
1000
#1=NMO_Template|String|2|Шаблон обозначения
1000
#2=PIN_Number|Integer|2|Номер вывода
1000
SCHConnectorRadius=1
1000
_HANDLE=000A6B82F0
1000
_UPGRADE=1
1002
}
0
LINE
5
85
100
AcDbEntity
8
SYS_METRIC
100
AcDbLine
6
ByLayer
10
3.0000000000
20
0.0000000000
30
0.0000000000
11
5.0000000000
21
0.0000000000
31
0.0000000000
1001
DSTP_XDATA
1002
{
1000
_OWNERHANDLE=000A6B82F0
1002
}
0
LINE
5
86
100
AcDbEntity
8
SYS_METRIC
100
AcDbLine
6
ByLayer
10
4.0000000000
20
1.0000000000
30
0.0000000000
11
4.0000000000
21
-1.0000000000
31
0.0000000000
1001
DSTP_XDATA
1002
{
1000
_OWNERHANDLE=000A6B82F0
1002
}
0
TEXT
5
87
100
AcDbEntity
8
EL_DEVICE_PIN_NAME
100
AcDbText
6
ByLayer
11
4.0000000000
21
1.0000000000
31
0.0000000000
10
3.1250000000
20
1.0000000000
30
0.0000000000
40
2.5000000000
50
0.0000000000
41
0.7000000000
51
12.0000000000
72
1
7
R2_5
1
2
100
AcDbText
73
0
1001
DSTP_XDATA
1002
{
1000
_TMPL1=@@[NMO_Name]
1000
_OWNERHANDLE=000A6B82F0
1000
STEDefault=TRUE
1002
}
0
ENDBLK
5
88
100
AcDbEntity
8
0
100
AcDbBlockEnd
0
BLOCK
5
89
100
AcDbEntity
8
0
100
AcDbBlockBegin
2
SCH_CONNECTOR_TERMINAL_CC
70
2
10
0
20
0
30
0
3
SCH_CONNECTOR_TERMINAL_CC
1

0
LINE
5
8A
100
AcDbEntity
8
SYS_PIN
100
AcDbLine
6
ByLayer
48
100.0000000000
10
-0.3535533906
20
0.3535533906
30
0.0000000000
11
0.3535533906
21
-0.3535533906
31
0.0000000000
1001
DSTP_XDATA
1002
{
1000
_OWNERHANDLE=0000000064
1002
}
0
LINE
5
8B
100
AcDbEntity
8
SYS_PIN
100
AcDbLine
6
ByLayer
48
100.0000000000
10
0.3535533906
20
0.3535533906
30
0.0000000000
11
-0.3535533906
21
-0.3535533906
31
0.0000000000
1001
DSTP_XDATA
1002
{
1000
_OWNERHANDLE=0000000064
1002
}
0
CIRCLE
5
8C
100
AcDbEntity
8
EL_DEVICE
100
AcDbCircle
6
ByLayer
10
0.0000000000
20
0.0000000000
30
0.0000000000
40
0.5000000000
1001
DSTP_XDATA
1002
{
1000
_OWNERHANDLE=0000000064
1002
}
0
LINE
5
8D
100
AcDbEntity
8
SYS_PIN
100
AcDbLine
6
ByLayer
48
100.0000000000
10
-0.3535533906
20
0.3535533906
30
0.0000000000
11
0.3535533906
21
-0.3535533906
31
0.0000000000
1001
DSTP_XDATA
1002
{
1000
_OWNERHANDLE=0000000064
1002
}
0
LINE
5
8E
100
AcDbEntity
8
SYS_PIN
100
AcDbLine
6
ByLayer
48
100.0000000000
10
0.3535533906
20
0.3535533906
30
0.0000000000
11
-0.3535533906
21
-0.3535533906
31
0.0000000000
1001
DSTP_XDATA
1002
{
1000
_OWNERHANDLE=0000000064
1002
}
0
CIRCLE
5
8F
100
AcDbEntity
8
EL_DEVICE
100
AcDbCircle
6
ByLayer
10
0.0000000000
20
0.0000000000
30
0.0000000000
40
0.5000000000
1001
DSTP_XDATA
1002
{
1000
_OWNERHANDLE=0000000064
1002
}
0
LINE
5
90
100
AcDbEntity
8
SYS_PIN
100
AcDbLine
6
ByLayer
48
100.0000000000
10
-0.3535533906
20
0.3535533906
30
0.0000000000
11
0.3535533906
21
-0.3535533906
31
0.0000000000
1001
DSTP_XDATA
1002
{
1000
_OWNERHANDLE=0000000064
1002
}
0
LINE
5
91
100
AcDbEntity
8
SYS_PIN
100
AcDbLine
6
ByLayer
48
100.0000000000
10
0.3535533906
20
0.3535533906
30
0.0000000000
11
-0.3535533906
21
-0.3535533906
31
0.0000000000
1001
DSTP_XDATA
1002
{
1000
_OWNERHANDLE=0000000064
1002
}
0
CIRCLE
5
92
100
AcDbEntity
8
EL_DEVICE
100
AcDbCircle
6
ByLayer
10
0.0000000000
20
0.0000000000
30
0.0000000000
40
0.5000000000
1001
DSTP_XDATA
1002
{
1000
_OWNERHANDLE=0000000064
1002
}
0
LINE
5
93
100
AcDbEntity
8
SYS_PIN
100
AcDbLine
6
ByLayer
48
100.0000000000
10
-0.3535533906
20
0.3535533906
30
0.0000000000
11
0.3535533906
21
-0.3535533906
31
0.0000000000
1001
DSTP_XDATA
1002
{
1000
_OWNERHANDLE=0000000064
1002
}
0
LINE
5
94
100
AcDbEntity
8
SYS_PIN
100
AcDbLine
6
ByLayer
48
100.0000000000
10
0.3535533906
20
0.3535533906
30
0.0000000000
11
-0.3535533906
21
-0.3535533906
31
0.0000000000
1001
DSTP_XDATA
1002
{
1000
_OWNERHANDLE=0000000064
1002
}
0
CIRCLE
5
95
100
AcDbEntity
8
EL_DEVICE
100
AcDbCircle
6
ByLayer
10
0.0000000000
20
0.0000000000
30
0.0000000000
40
0.5000000000
1001
DSTP_XDATA
1002
{
1000
_OWNERHANDLE=0000000064
1002
}
0
ENDBLK
5
96
100
AcDbEntity
8
0
100
AcDbBlockEnd
0
BLOCK
5
97
100
AcDbEntity
8
0
100
AcDbBlockBegin
2
DEVICE_SCH_CONNECTOR_TERMINAL_CC
70
2
10
0
20
0
30
0
3
DEVICE_SCH_CONNECTOR_TERMINAL_CC
1

0
LINE
5
98
100
AcDbEntity
8
SYS_METRIC
100
AcDbLine
6
ByLayer
10
-1.0000000000
20
0.0000000000
30
0.0000000000
11
1.0000000000
21
0.0000000000
31
0.0000000000
1001
DSTP_XDATA
1002
{
1000
_OWNERHANDLE=0000000064
1002
}
0
LINE
5
99
100
AcDbEntity
8
SYS_METRIC
100
AcDbLine
6
ByLayer
10
0.0000000000
20
1.0000000000
30
0.0000000000
11
0.0000000000
21
-1.0000000000
31
0.0000000000
1001
DSTP_XDATA
1002
{
1000
_OWNERHANDLE=0000000064
1002
}
0
TEXT
5
9A
100
AcDbEntity
8
EL_DEVICE_PIN_NAME
100
AcDbText
6
ByLayer
11
0.0000000000
21
1.0000000000
31
0.0000000000
10
0.0000000000
20
2.0000000000
30
0.0000000000
40
2.5000000000
50
0.0000000000
41
0.7000000000
51
12.0000000000
72
1
7
R2_5
1
??
100
AcDbText
73
0
1001
DSTP_XDATA
1002
{
1000
_TMPL1=
1000
_OWNERHANDLE=0000000064
1002
}
0
ENDBLK
5
9B
100
AcDbEntity
8
0
100
AcDbBlockEnd
0
BLOCK
5
9C
100
AcDbEntity
8
0
100
AcDbBlockBegin
2
SCH_CONTACT_NOC_CC
70
2
10
0
20
0
30
0
3
SCH_CONTACT_NOC_CC
1

0
LINE
5
9D
100
AcDbEntity
8
EL_DEVICE
100
AcDbLine
6
ByLayer
10
-3.0000000000
20
0.0000000000
30
0.0000000000
11
3.0000000000
21
3.5000000000
31
0.0000000000
1001
DSTP_XDATA
1002
{
1000
_OWNERHANDLE=0000000064
1002
}
0
LINE
5
9E
100
AcDbEntity
8
EL_DEVICE
100
AcDbLine
6
ByLayer
10
-4.5000000000
20
0.0000000000
30
0.0000000000
11
-3.0000000000
21
0.0000000000
31
0.0000000000
1001
DSTP_XDATA
1002
{
1000
_OWNERHANDLE=0000000064
1002
}
0
LINE
5
9F
100
AcDbEntity
8
EL_DEVICE
100
AcDbLine
6
ByLayer
10
4.5000000000
20
0.0000000000
30
0.0000000000
11
3.0000000000
21
0.0000000000
31
0.0000000000
1001
DSTP_XDATA
1002
{
1000
_OWNERHANDLE=0000000064
1002
}
0
ENDBLK
5
A0
100
AcDbEntity
8
0
100
AcDbBlockEnd
0
BLOCK
5
A1
100
AcDbEntity
8
0
100
AcDbBlockBegin
2
DEVICE_SCH_CONTACT_NOC_CC
70
2
10
0
20
0
30
0
3
DEVICE_SCH_CONTACT_NOC_CC
1

0
TEXT
5
A2
100
AcDbEntity
8
EL_DEVICE_NAME
100
AcDbText
6
ByLayer
10
0.0000000000
20
128.0000000000
30
0.0000000000
11
0.0000000000
21
256.0000000000
31
0.0000000000
40
2.5000000000
50
0.0000000000
41
0.7000000000
51
12.0000000000
72
0
7
R2_5
1
??KA0
100
AcDbText
73
0
1001
DSTP_XDATA
1002
{
1000
_TMPL1=@@[NMO_Name]
1000
_OWNERHANDLE=0000000064
1000
STEDefault=TRUE
1002
}
0
INSERT
5
A3
100
AcDbEntity
8
0
100
AcDbBlockReference
6
ByLayer
2
SCH_CONNECTOR_TERMINAL_CC
10
-5.0000000000
20
0.0000000000
30
0.0000000000
41
1.0000000000
42
1.0000000000
43
1.0000000000
50
0.0000000000
1001
DSTP_XDATA
1002
{
1000
_OWNERHANDLE=0000000064
1000
USES=System
1000
#0=NMO_Name|String|1|Обозначение
1000
#1=NMO_Template|String|1|Шаблон обозначения
1000
#2=PIN_Number|Integer|1|Номер вывода
1000
SCHConnectorRadius=1
1000
_HANDLE=0006694910
1000
_UPGRADE=1
1002
}
0
LINE
5
A4
100
AcDbEntity
8
SYS_METRIC
100
AcDbLine
6
ByLayer
10
-6.0000000000
20
0.0000000000
30
0.0000000000
11
-4.0000000000
21
0.0000000000
31
0.0000000000
1001
DSTP_XDATA
1002
{
1000
_OWNERHANDLE=0006694910
1002
}
0
LINE
5
A5
100
AcDbEntity
8
SYS_METRIC
100
AcDbLine
6
ByLayer
10
-5.0000000000
20
1.0000000000
30
0.0000000000
11
-5.0000000000
21
-1.0000000000
31
0.0000000000
1001
DSTP_XDATA
1002
{
1000
_OWNERHANDLE=0006694910
1002
}
0
TEXT
5
A6
100
AcDbEntity
8
EL_DEVICE_PIN_NAME
100
AcDbText
6
ByLayer
11
-5.0000000000
21
1.0000000000
31
0.0000000000
10
-5.5833333333
20
1.0000000000
30
0.0000000000
40
2.5000000000
50
0.0000000000
41
0.7000000000
51
12.0000000000
72
1
7
R2_5
1
1
100
AcDbText
73
0
1001
DSTP_XDATA
1002
{
1000
_TMPL1=@@[NMO_Name]
1000
_OWNERHANDLE=0006694910
1000
STEDefault=TRUE
1002
}
0
INSERT
5
A7
100
AcDbEntity
8
0
100
AcDbBlockReference
6
ByLayer
2
SCH_CONNECTOR_TERMINAL_CC
10
5.0000000000
20
0.0000000000
30
0.0000000000
41
1.0000000000
42
1.0000000000
43
1.0000000000
50
0.0000000000
1001
DSTP_XDATA
1002
{
1000
_OWNERHANDLE=0000000064
1000
USES=System
1000
#0=NMO_Name|String|2|Обозначение
1000
#1=NMO_Template|String|2|Шаблон обозначения
1000
#2=PIN_Number|Integer|2|Номер вывода
1000
SCHConnectorRadius=1
1000
_HANDLE=0006694130
1000
_UPGRADE=1
1002
}
0
LINE
5
A8
100
AcDbEntity
8
SYS_METRIC
100
AcDbLine
6
ByLayer
10
4.0000000000
20
0.0000000000
30
0.0000000000
11
6.0000000000
21
0.0000000000
31
0.0000000000
1001
DSTP_XDATA
1002
{
1000
_OWNERHANDLE=0006694130
1002
}
0
LINE
5
A9
100
AcDbEntity
8
SYS_METRIC
100
AcDbLine
6
ByLayer
10
5.0000000000
20
1.0000000000
30
0.0000000000
11
5.0000000000
21
-1.0000000000
31
0.0000000000
1001
DSTP_XDATA
1002
{
1000
_OWNERHANDLE=0006694130
1002
}
0
TEXT
5
AA
100
AcDbEntity
8
EL_DEVICE_PIN_NAME
100
AcDbText
6
ByLayer
11
5.0000000000
21
1.0000000000
31
0.0000000000
10
4.1250000000
20
1.0000000000
30
0.0000000000
40
2.5000000000
50
0.0000000000
41
0.7000000000
51
12.0000000000
72
1
7
R2_5
1
2
100
AcDbText
73
0
1001
DSTP_XDATA
1002
{
1000
_TMPL1=@@[NMO_Name]
1000
_OWNERHANDLE=0006694130
1000
STEDefault=TRUE
1002
}
0
ENDBLK
5
AB
100
AcDbEntity
8
0
100
AcDbBlockEnd
0
BLOCK
5
AC
100
AcDbEntity
8
0
100
AcDbBlockBegin
2
SCH_BUTTON_NOC_CC
70
2
10
0
20
0
30
0
3
SCH_BUTTON_NOC_CC
1

0
LINE
5
AD
100
AcDbEntity
8
EL_DEVICE
100
AcDbLine
6
ByLayer
10
-3.0000000000
20
0.0000000000
30
0.0000000000
11
3.0000000000
21
3.5000000000
31
0.0000000000
1001
DSTP_XDATA
1002
{
1000
_OWNERHANDLE=0000000064
1002
}
0
LINE
5
AE
100
AcDbEntity
8
EL_DEVICE
100
AcDbLine
6
ByLayer
10
-4.5000000000
20
0.0000000000
30
0.0000000000
11
-3.0000000000
21
0.0000000000
31
0.0000000000
1001
DSTP_XDATA
1002
{
1000
_OWNERHANDLE=0000000064
1002
}
0
LINE
5
AF
100
AcDbEntity
8
EL_DEVICE
100
AcDbLine
6
ByLayer
10
4.5000000000
20
0.0000000000
30
0.0000000000
11
3.0000000000
21
0.0000000000
31
0.0000000000
1001
DSTP_XDATA
1002
{
1000
_OWNERHANDLE=0000000064
1002
}
0
LWPOLYLINE
5
B0
100
AcDbEntity
8
EL_DEVICE
100
AcDbPolyline
6
ByLayer
90
4
70
0
38
0.0000000000
10
-1.5000000000
20
4.0000000000
40
0.0000000000
41
0.0000000000
10
-1.5000000000
20
5.0000000000
40
0.0000000000
41
0.0000000000
10
1.5000000000
20
5.0000000000
40
0.0000000000
41
0.0000000000
10
1.5000000000
20
4.0000000000
40
0.0000000000
41
0.0000000000
1001
DSTP_XDATA
1002
{
1000
_OWNERHANDLE=0000000064
1002
}
0
LINE
5
B1
100
AcDbEntity
8
EL_DEVICE
100
AcDbLine
6
ByLayer
10
0.7500000000
20
2.1875000000
30
0.0000000000
11
0.7500000000
21
5.0000000000
31
0.0000000000
1001
DSTP_XDATA
1002
{
1000
_OWNERHANDLE=0000000064
1002
}
0
LINE
5
B2
100
AcDbEntity
8
EL_DEVICE
100
AcDbLine
6
ByLayer
10
-0.7500000000
20
1.3125000000
30
0.0000000000
11
-0.7500000000
21
5.0000000000
31
0.0000000000
1001
DSTP_XDATA
1002
{
1000
_OWNERHANDLE=0000000064
1002
}
0
ENDBLK
5
B3
100
AcDbEntity
8
0
100
AcDbBlockEnd
0
BLOCK
5
B4
100
AcDbEntity
8
0
100
AcDbBlockBegin
2
DEVICE_SCH_BUTTON_NOC_CC
70
2
10
0
20
0
30
0
3
DEVICE_SCH_BUTTON_NOC_CC
1

0
TEXT
5
B5
100
AcDbEntity
8
EL_DEVICE_NAME
100
AcDbText
6
ByLayer
10
0.0000000000
20
88.0000000000
30
0.0000000000
11
0.0000000000
21
176.0000000000
31
0.0000000000
40
2.5000000000
50
0.0000000000
41
0.7000000000
51
12.0000000000
72
0
7
R2_5
1
??SB0
100
AcDbText
73
0
1001
DSTP_XDATA
1002
{
1000
_TMPL1=@@[NMO_Name]
1000
_OWNERHANDLE=0000000064
1000
STEDefault=TRUE
1002
}
0
INSERT
5
B6
100
AcDbEntity
8
0
100
AcDbBlockReference
6
ByLayer
2
SCH_CONNECTOR_TERMINAL_CC
10
-5.0000000000
20
0.0000000000
30
0.0000000000
41
1.0000000000
42
1.0000000000
43
1.0000000000
50
0.0000000000
1001
DSTP_XDATA
1002
{
1000
_OWNERHANDLE=0000000064
1000
USES=System
1000
#0=NMO_Name|String|1|Обозначение
1000
#1=NMO_Template|String|1|Шаблон обозначения
1000
#2=PIN_Number|Integer|1|Номер вывода
1000
SCHConnectorRadius=1
1000
_HANDLE=0006699630
1000
_UPGRADE=1
1002
}
0
LINE
5
B7
100
AcDbEntity
8
SYS_METRIC
100
AcDbLine
6
ByLayer
10
-6.0000000000
20
0.0000000000
30
0.0000000000
11
-4.0000000000
21
0.0000000000
31
0.0000000000
1001
DSTP_XDATA
1002
{
1000
_OWNERHANDLE=0006699630
1002
}
0
LINE
5
B8
100
AcDbEntity
8
SYS_METRIC
100
AcDbLine
6
ByLayer
10
-5.0000000000
20
1.0000000000
30
0.0000000000
11
-5.0000000000
21
-1.0000000000
31
0.0000000000
1001
DSTP_XDATA
1002
{
1000
_OWNERHANDLE=0006699630
1002
}
0
TEXT
5
B9
100
AcDbEntity
8
EL_DEVICE_PIN_NAME
100
AcDbText
6
ByLayer
11
-5.0000000000
21
1.0000000000
31
0.0000000000
10
-5.5833333333
20
1.0000000000
30
0.0000000000
40
2.5000000000
50
0.0000000000
41
0.7000000000
51
12.0000000000
72
1
7
R2_5
1
1
100
AcDbText
73
0
1001
DSTP_XDATA
1002
{
1000
_TMPL1=@@[NMO_Name]
1000
_OWNERHANDLE=0006699630
1000
STEDefault=TRUE
1002
}
0
INSERT
5
BA
100
AcDbEntity
8
0
100
AcDbBlockReference
6
ByLayer
2
SCH_CONNECTOR_TERMINAL_CC
10
5.0000000000
20
0.0000000000
30
0.0000000000
41
1.0000000000
42
1.0000000000
43
1.0000000000
50
0.0000000000
1001
DSTP_XDATA
1002
{
1000
_OWNERHANDLE=0000000064
1000
USES=System
1000
#0=NMO_Name|String|2|Обозначение
1000
#1=NMO_Template|String|2|Шаблон обозначения
1000
#2=PIN_Number|Integer|2|Номер вывода
1000
SCHConnectorRadius=1
1000
_HANDLE=0006698E50
1000
_UPGRADE=1
1002
}
0
LINE
5
BB
100
AcDbEntity
8
SYS_METRIC
100
AcDbLine
6
ByLayer
10
4.0000000000
20
0.0000000000
30
0.0000000000
11
6.0000000000
21
0.0000000000
31
0.0000000000
1001
DSTP_XDATA
1002
{
1000
_OWNERHANDLE=0006698E50
1002
}
0
LINE
5
BC
100
AcDbEntity
8
SYS_METRIC
100
AcDbLine
6
ByLayer
10
5.0000000000
20
1.0000000000
30
0.0000000000
11
5.0000000000
21
-1.0000000000
31
0.0000000000
1001
DSTP_XDATA
1002
{
1000
_OWNERHANDLE=0006698E50
1002
}
0
TEXT
5
BD
100
AcDbEntity
8
EL_DEVICE_PIN_NAME
100
AcDbText
6
ByLayer
11
5.0000000000
21
1.0000000000
31
0.0000000000
10
4.1250000000
20
1.0000000000
30
0.0000000000
40
2.5000000000
50
0.0000000000
41
0.7000000000
51
12.0000000000
72
1
7
R2_5
1
2
100
AcDbText
73
0
1001
DSTP_XDATA
1002
{
1000
_TMPL1=@@[NMO_Name]
1000
_OWNERHANDLE=0006698E50
1000
STEDefault=TRUE
1002
}
0
ENDBLK
5
BE
100
AcDbEntity
8
0
100
AcDbBlockEnd
0
BLOCK
5
BF
100
AcDbEntity
8
0
100
AcDbBlockBegin
2
SCH_THERMO_NC_CC
70
2
10
0
20
0
30
0
3
SCH_THERMO_NC_CC
1

0
LINE
5
C0
100
AcDbEntity
8
EL_DEVICE
100
AcDbLine
6
ByLayer
10
-4.5000000000
20
0.0000000000
30
0.0000000000
11
-3.0000000000
21
0.0000000000
31
0.0000000000
1001
DSTP_XDATA
1002
{
1000
_OWNERHANDLE=0000000064
1002
}
0
LINE
5
C1
100
AcDbEntity
8
EL_DEVICE
100
AcDbLine
6
ByLayer
10
4.5000000000
20
0.0000000000
30
0.0000000000
11
3.0000000000
21
0.0000000000
31
0.0000000000
1001
DSTP_XDATA
1002
{
1000
_OWNERHANDLE=0000000064
1002
}
0
LWPOLYLINE
5
C2
100
AcDbEntity
8
EL_DEVICE
100
AcDbPolyline
6
ByLayer
90
4
70
0
38
0.0000000000
10
-1.5000000000
20
3.0000000000
40
0.0000000000
41
0.0000000000
10
-1.5000000000
20
2.0000000000
40
0.0000000000
41
0.0000000000
10
1.5000000000
20
2.0000000000
40
0.0000000000
41
0.0000000000
10
1.5000000000
20
3.0000000000
40
0.0000000000
41
0.0000000000
1001
DSTP_XDATA
1002
{
1000
_OWNERHANDLE=0000000064
1002
}
0
LINE
5
C3
100
AcDbEntity
8
EL_DEVICE
100
AcDbLine
6
ByLayer
10
0.0000000000
20
0.0000000000
30
0.0000000000
11
0.0000000000
21
2.0000000000
31
0.0000000000
1001
DSTP_XDATA
1002
{
1000
_OWNERHANDLE=0000000064
1002
}
0
LINE
5
C4
100
AcDbEntity
8
EL_DEVICE
100
AcDbLine
6
ByLayer
10
-3.0000000000
20
0.0000000000
30
0.0000000000
11
-3.0000000000
21
-5.0000000000
31
0.0000000000
1001
DSTP_XDATA
1002
{
1000
_OWNERHANDLE=0000000064
1002
}
0
LINE
5
C5
100
AcDbEntity
8
EL_DEVICE
100
AcDbLine
6
ByLayer
10
3.0000000000
20
0.0000000000
30
0.0000000000
11
3.0000000000
21
-3.0000000000
31
0.0000000000
1001
DSTP_XDATA
1002
{
1000
_OWNERHANDLE=0000000064
1002
}
0
LINE
5
C6
100
AcDbEntity
8
EL_DEVICE
100
AcDbLine
6
ByLayer
10
-3.0000000000
20
-5.0000000000
30
0.0000000000
11
4.2679491924
21
-0.8038475773
31
0.0000000000
1001
DSTP_XDATA
1002
{
1000
_OWNERHANDLE=0000000064
1002
}
0
LINE
5
C7
100
AcDbEntity
8
EL_DEVICE
100
AcDbLine
6
ByLayer
10
0.0000000000
20
-3.2679491924
30
0.0000000000
11
0.0000000000
21
-1.2679491924
31
0.0000000000
1001
DSTP_XDATA
1002
{
1000
_OWNERHANDLE=0000000064
1002
}
0
ENDBLK
5
C8
100
AcDbEntity
8
0
100
AcDbBlockEnd
0
BLOCK
5
C9
100
AcDbEntity
8
0
100
AcDbBlockBegin
2
DEVICE_SCH_THERMO_NC_CC
70
2
10
0
20
0
30
0
3
DEVICE_SCH_THERMO_NC_CC
1

0
TEXT
5
CA
100
AcDbEntity
8
EL_DEVICE_NAME
100
AcDbText
6
ByLayer
10
0.0000000000
20
28.0000000000
30
0.0000000000
11
0.0000000000
21
56.0000000000
31
0.0000000000
40
2.5000000000
50
0.0000000000
41
0.7000000000
51
12.0000000000
72
0
7
R2_5
1
??KK0
100
AcDbText
73
0
1001
DSTP_XDATA
1002
{
1000
_TMPL1=@@[NMO_Name]
1000
_OWNERHANDLE=0000000064
1000
STEDefault=TRUE
1002
}
0
INSERT
5
CB
100
AcDbEntity
8
0
100
AcDbBlockReference
6
ByLayer
2
SCH_CONNECTOR_TERMINAL_CC
10
-5.0000000000
20
0.0000000000
30
0.0000000000
41
1.0000000000
42
1.0000000000
43
1.0000000000
50
0.0000000000
1001
DSTP_XDATA
1002
{
1000
_OWNERHANDLE=0000000064
1000
USES=System
1000
#0=NMO_Name|String|1|Обозначение
1000
#1=NMO_Template|String|1|Шаблон обозначения
1000
#2=PIN_Number|Integer|1|Номер вывода
1000
SCHConnectorRadius=1
1000
_HANDLE=000669E970
1000
_UPGRADE=1
1002
}
0
LINE
5
CC
100
AcDbEntity
8
SYS_METRIC
100
AcDbLine
6
ByLayer
10
-6.0000000000
20
0.0000000000
30
0.0000000000
11
-4.0000000000
21
0.0000000000
31
0.0000000000
1001
DSTP_XDATA
1002
{
1000
_OWNERHANDLE=000669E970
1002
}
0
LINE
5
CD
100
AcDbEntity
8
SYS_METRIC
100
AcDbLine
6
ByLayer
10
-5.0000000000
20
1.0000000000
30
0.0000000000
11
-5.0000000000
21
-1.0000000000
31
0.0000000000
1001
DSTP_XDATA
1002
{
1000
_OWNERHANDLE=000669E970
1002
}
0
TEXT
5
CE
100
AcDbEntity
8
EL_DEVICE_PIN_NAME
100
AcDbText
6
ByLayer
11
-5.0000000000
21
1.0000000000
31
0.0000000000
10
-5.5833333333
20
1.0000000000
30
0.0000000000
40
2.5000000000
50
0.0000000000
41
0.7000000000
51
12.0000000000
72
1
7
R2_5
1
1
100
AcDbText
73
0
1001
DSTP_XDATA
1002
{
1000
_TMPL1=@@[NMO_Name]
1000
_OWNERHANDLE=000669E970
1000
STEDefault=TRUE
1002
}
0
INSERT
5
CF
100
AcDbEntity
8
0
100
AcDbBlockReference
6
ByLayer
2
SCH_CONNECTOR_TERMINAL_CC
10
5.0000000000
20
0.0000000000
30
0.0000000000
41
1.0000000000
42
1.0000000000
43
1.0000000000
50
0.0000000000
1001
DSTP_XDATA
1002
{
1000
_OWNERHANDLE=0000000064
1000
USES=System
1000
#0=NMO_Name|String|2|Обозначение
1000
#1=NMO_Template|String|2|Шаблон обозначения
1000
#2=PIN_Number|Integer|2|Номер вывода
1000
SCHConnectorRadius=1
1000
_HANDLE=000669E190
1000
_UPGRADE=1
1002
}
0
LINE
5
D0
100
AcDbEntity
8
SYS_METRIC
100
AcDbLine
6
ByLayer
10
4.0000000000
20
0.0000000000
30
0.0000000000
11
6.0000000000
21
0.0000000000
31
0.0000000000
1001
DSTP_XDATA
1002
{
1000
_OWNERHANDLE=000669E190
1002
}
0
LINE
5
D1
100
AcDbEntity
8
SYS_METRIC
100
AcDbLine
6
ByLayer
10
5.0000000000
20
1.0000000000
30
0.0000000000
11
5.0000000000
21
-1.0000000000
31
0.0000000000
1001
DSTP_XDATA
1002
{
1000
_OWNERHANDLE=000669E190
1002
}
0
TEXT
5
D2
100
AcDbEntity
8
EL_DEVICE_PIN_NAME
100
AcDbText
6
ByLayer
11
5.0000000000
21
1.0000000000
31
0.0000000000
10
4.1250000000
20
1.0000000000
30
0.0000000000
40
2.5000000000
50
0.0000000000
41
0.7000000000
51
12.0000000000
72
1
7
R2_5
1
2
100
AcDbText
73
0
1001
DSTP_XDATA
1002
{
1000
_TMPL1=@@[NMO_Name]
1000
_OWNERHANDLE=000669E190
1000
STEDefault=TRUE
1002
}
0
ENDBLK
5
D3
100
AcDbEntity
8
0
100
AcDbBlockEnd
0
BLOCK
5
D4
100
AcDbEntity
8
0
100
AcDbBlockBegin
2
SCH_BUTTON_NC_CC
70
2
10
0
20
0
30
0
3
SCH_BUTTON_NC_CC
1

0
LINE
5
D5
100
AcDbEntity
8
EL_DEVICE
100
AcDbLine
6
ByLayer
10
-4.5000000000
20
0.0000000000
30
0.0000000000
11
-3.0000000000
21
0.0000000000
31
0.0000000000
1001
DSTP_XDATA
1002
{
1000
_OWNERHANDLE=0000000064
1002
}
0
LINE
5
D6
100
AcDbEntity
8
EL_DEVICE
100
AcDbLine
6
ByLayer
10
4.5000000000
20
0.0000000000
30
0.0000000000
11
3.0000000000
21
0.0000000000
31
0.0000000000
1001
DSTP_XDATA
1002
{
1000
_OWNERHANDLE=0000000064
1002
}
0
LWPOLYLINE
5
D7
100
AcDbEntity
8
EL_DEVICE
100
AcDbPolyline
6
ByLayer
90
4
70
0
38
0.0000000000
10
-1.5000000000
20
2.0000000000
40
0.0000000000
41
0.0000000000
10
-1.5000000000
20
3.0000000000
40
0.0000000000
41
0.0000000000
10
1.5000000000
20
3.0000000000
40
0.0000000000
41
0.0000000000
10
1.5000000000
20
2.0000000000
40
0.0000000000
41
0.0000000000
1001
DSTP_XDATA
1002
{
1000
_OWNERHANDLE=0000000064
1002
}
0
LINE
5
D8
100
AcDbEntity
8
EL_DEVICE
100
AcDbLine
6
ByLayer
10
0.7500000000
20
-2.8259618943
30
0.0000000000
11
0.7500000000
21
3.0000000000
31
0.0000000000
1001
DSTP_XDATA
1002
{
1000
_OWNERHANDLE=0000000064
1002
}
0
LINE
5
D9
100
AcDbEntity
8
EL_DEVICE
100
AcDbLine
6
ByLayer
10
-0.7500000000
20
-3.7009618943
30
0.0000000000
11
-0.7500000000
21
3.0000000000
31
0.0000000000
1001
DSTP_XDATA
1002
{
1000
_OWNERHANDLE=0000000064
1002
}
0
LINE
5
DA
100
AcDbEntity
8
EL_DEVICE
100
AcDbLine
6
ByLayer
10
-3.0000000000
20
0.0000000000
30
0.0000000000
11
-3.0000000000
21
-5.0000000000
31
0.0000000000
1001
DSTP_XDATA
1002
{
1000
_OWNERHANDLE=0000000064
1002
}
0
LINE
5
DB
100
AcDbEntity
8
EL_DEVICE
100
AcDbLine
6
ByLayer
10
3.0000000000
20
0.0000000000
30
0.0000000000
11
3.0000000000
21
-3.0000000000
31
0.0000000000
1001
DSTP_XDATA
1002
{
1000
_OWNERHANDLE=0000000064
1002
}
0
LINE
5
DC
100
AcDbEntity
8
EL_DEVICE
100
AcDbLine
6
ByLayer
10
-3.0000000000
20
-5.0000000000
30
0.0000000000
11
4.2679491924
21
-0.8038475773
31
0.0000000000
1001
DSTP_XDATA
1002
{
1000
_OWNERHANDLE=0000000064
1002
}
0
ENDBLK
5
DD
100
AcDbEntity
8
0
100
AcDbBlockEnd
0
BLOCK
5
DE
100
AcDbEntity
8
0
100
AcDbBlockBegin
2
DEVICE_SCH_BUTTON_NC_CC
70
2
10
0
20
0
30
0
3
DEVICE_SCH_BUTTON_NC_CC
1

0
TEXT
5
DF
100
AcDbEntity
8
EL_DEVICE_NAME
100
AcDbText
6
ByLayer
10
0.0000000000
20
28.0000000000
30
0.0000000000
11
0.0000000000
21
56.0000000000
31
0.0000000000
40
2.5000000000
50
0.0000000000
41
0.7000000000
51
12.0000000000
72
0
7
R2_5
1
??SB0
100
AcDbText
73
0
1001
DSTP_XDATA
1002
{
1000
_TMPL1=@@[NMO_Name]
1000
_OWNERHANDLE=0000000064
1000
STEDefault=TRUE
1002
}
0
INSERT
5
E0
100
AcDbEntity
8
0
100
AcDbBlockReference
6
ByLayer
2
SCH_CONNECTOR_TERMINAL_CC
10
-5.0000000000
20
0.0000000000
30
0.0000000000
41
1.0000000000
42
1.0000000000
43
1.0000000000
50
0.0000000000
1001
DSTP_XDATA
1002
{
1000
_OWNERHANDLE=0000000064
1000
USES=System
1000
#0=NMO_Name|String|1|Обозначение
1000
#1=NMO_Template|String|1|Шаблон обозначения
1000
#2=PIN_Number|Integer|1|Номер вывода
1000
SCHConnectorRadius=1
1000
_HANDLE=00066A3A90
1000
_UPGRADE=1
1002
}
0
LINE
5
E1
100
AcDbEntity
8
SYS_METRIC
100
AcDbLine
6
ByLayer
10
-6.0000000000
20
0.0000000000
30
0.0000000000
11
-4.0000000000
21
0.0000000000
31
0.0000000000
1001
DSTP_XDATA
1002
{
1000
_OWNERHANDLE=00066A3A90
1002
}
0
LINE
5
E2
100
AcDbEntity
8
SYS_METRIC
100
AcDbLine
6
ByLayer
10
-5.0000000000
20
1.0000000000
30
0.0000000000
11
-5.0000000000
21
-1.0000000000
31
0.0000000000
1001
DSTP_XDATA
1002
{
1000
_OWNERHANDLE=00066A3A90
1002
}
0
TEXT
5
E3
100
AcDbEntity
8
EL_DEVICE_PIN_NAME
100
AcDbText
6
ByLayer
11
-5.0000000000
21
1.0000000000
31
0.0000000000
10
-5.5833333333
20
1.0000000000
30
0.0000000000
40
2.5000000000
50
0.0000000000
41
0.7000000000
51
12.0000000000
72
1
7
R2_5
1
1
100
AcDbText
73
0
1001
DSTP_XDATA
1002
{
1000
_TMPL1=@@[NMO_Name]
1000
_OWNERHANDLE=00066A3A90
1000
STEDefault=TRUE
1002
}
0
INSERT
5
E4
100
AcDbEntity
8
0
100
AcDbBlockReference
6
ByLayer
2
SCH_CONNECTOR_TERMINAL_CC
10
5.0000000000
20
0.0000000000
30
0.0000000000
41
1.0000000000
42
1.0000000000
43
1.0000000000
50
0.0000000000
1001
DSTP_XDATA
1002
{
1000
_OWNERHANDLE=0000000064
1000
USES=System
1000
#0=NMO_Name|String|2|Обозначение
1000
#1=NMO_Template|String|2|Шаблон обозначения
1000
#2=PIN_Number|Integer|2|Номер вывода
1000
SCHConnectorRadius=1
1000
_HANDLE=00066A32B0
1000
_UPGRADE=1
1002
}
0
LINE
5
E5
100
AcDbEntity
8
SYS_METRIC
100
AcDbLine
6
ByLayer
10
4.0000000000
20
0.0000000000
30
0.0000000000
11
6.0000000000
21
0.0000000000
31
0.0000000000
1001
DSTP_XDATA
1002
{
1000
_OWNERHANDLE=00066A32B0
1002
}
0
LINE
5
E6
100
AcDbEntity
8
SYS_METRIC
100
AcDbLine
6
ByLayer
10
5.0000000000
20
1.0000000000
30
0.0000000000
11
5.0000000000
21
-1.0000000000
31
0.0000000000
1001
DSTP_XDATA
1002
{
1000
_OWNERHANDLE=00066A32B0
1002
}
0
TEXT
5
E7
100
AcDbEntity
8
EL_DEVICE_PIN_NAME
100
AcDbText
6
ByLayer
11
5.0000000000
21
1.0000000000
31
0.0000000000
10
4.1250000000
20
1.0000000000
30
0.0000000000
40
2.5000000000
50
0.0000000000
41
0.7000000000
51
12.0000000000
72
1
7
R2_5
1
2
100
AcDbText
73
0
1001
DSTP_XDATA
1002
{
1000
_TMPL1=@@[NMO_Name]
1000
_OWNERHANDLE=00066A32B0
1000
STEDefault=TRUE
1002
}
0
ENDBLK
5
E8
100
AcDbEntity
8
0
100
AcDbBlockEnd
0
BLOCK
5
E9
100
AcDbEntity
8
0
100
AcDbBlockBegin
2
SCH_THERMO
70
2
10
0
20
0
30
0
3
SCH_THERMO
1

0
LINE
5
EA
100
AcDbEntity
8
EL_DEVICE
100
AcDbLine
6
ByLayer
10
-3.5000000000
20
0.0000000000
30
0.0000000000
11
-2.0000000000
21
0.0000000000
31
0.0000000000
1001
DSTP_XDATA
1002
{
1000
_OWNERHANDLE=0000000064
1002
}
0
LINE
5
EB
100
AcDbEntity
8
EL_DEVICE
100
AcDbLine
6
ByLayer
10
3.5000000000
20
0.0000000000
30
0.0000000000
11
2.0000000000
21
0.0000000000
31
0.0000000000
1001
DSTP_XDATA
1002
{
1000
_OWNERHANDLE=0000000064
1002
}
0
POLYLINE
5
EC
100
AcDbEntity
8
EL_DEVICE
370
0
100
AcDb3dPolyline
6
ByBlock
66
1
10
0.0000000000
20
0.0000000000
30
0.0000000000
70
9
1001
DSTP_XDATA
1002
{
1000
_OWNERHANDLE=0000000064
1002
}
0
VERTEX
5
ED
100
AcDbEntity
8
EL_DEVICE
370
0
100
AcDbVertex
6
ByBlock
100
AcDb3dPolylineVertex
10
2.0000000000
20
-3.0000000000
30
0.0000000000
0
VERTEX
5
EE
100
AcDbEntity
8
EL_DEVICE
370
0
100
AcDbVertex
6
ByBlock
100
AcDb3dPolylineVertex
10
-2.0000000000
20
-3.0000000000
30
0.0000000000
0
VERTEX
5
EF
100
AcDbEntity
8
EL_DEVICE
370
0
100
AcDbVertex
6
ByBlock
100
AcDb3dPolylineVertex
10
-2.0000000000
20
3.0000000000
30
0.0000000000
0
VERTEX
5
F0
100
AcDbEntity
8
EL_DEVICE
370
0
100
AcDbVertex
6
ByBlock
100
AcDb3dPolylineVertex
10
2.0000000000
20
3.0000000000
30
0.0000000000
0
SEQEND
5
F1
100
AcDbEntity
8
EL_DEVICE
370
0
6
ByBlock
0
POLYLINE
5
F2
100
AcDbEntity
8
EL_DEVICE
100
AcDb3dPolyline
6
ByLayer
66
1
10
0.0000000000
20
0.0000000000
30
0.0000000000
70
8
1001
DSTP_XDATA
1002
{
1000
_OWNERHANDLE=0000000064
1002
}
0
VERTEX
5
F3
100
AcDbEntity
8
EL_DEVICE
100
AcDbVertex
6
ByLayer
100
AcDb3dPolylineVertex
10
-2.0000000000
20
0.0000000000
30
0.0000000000
0
VERTEX
5
F4
100
AcDbEntity
8
EL_DEVICE
100
AcDbVertex
6
ByLayer
100
AcDb3dPolylineVertex
10
-1.0000000000
20
0.0000000000
30
0.0000000000
0
VERTEX
5
F5
100
AcDbEntity
8
EL_DEVICE
100
AcDbVertex
6
ByLayer
100
AcDb3dPolylineVertex
10
-1.0000000000
20
2.0000000000
30
0.0000000000
0
VERTEX
5
F6
100
AcDbEntity
8
EL_DEVICE
100
AcDbVertex
6
ByLayer
100
AcDb3dPolylineVertex
10
1.0000000000
20
2.0000000000
30
0.0000000000
0
VERTEX
5
F7
100
AcDbEntity
8
EL_DEVICE
100
AcDbVertex
6
ByLayer
100
AcDb3dPolylineVertex
10
1.0000000000
20
0.0000000000
30
0.0000000000
0
VERTEX
5
F8
100
AcDbEntity
8
EL_DEVICE
100
AcDbVertex
6
ByLayer
100
AcDb3dPolylineVertex
10
2.0000000000
20
0.0000000000
30
0.0000000000
0
SEQEND
5
F9
100
AcDbEntity
8
EL_DEVICE
6
ByLayer
0
ENDBLK
5
FA
100
AcDbEntity
8
0
100
AcDbBlockEnd
0
BLOCK
5
FB
100
AcDbEntity
8
0
100
AcDbBlockBegin
2
DEVICE_SCH_THERMO
70
2
10
0
20
0
30
0
3
DEVICE_SCH_THERMO
1

0
TEXT
5
FC
100
AcDbEntity
8
EL_DEVICE_NAME
100
AcDbText
6
ByLayer
11
0.0000000000
21
3.5000000000
31
0.0000000000
10
0.0000000000
20
7.0000000000
30
0.0000000000
40
2.5000000000
50
0.0000000000
41
0.7000000000
51
12.0000000000
72
1
7
R2_5
1
??KK0
100
AcDbText
73
0
1001
DSTP_XDATA
1002
{
1000
_TMPL1=@@[NMO_Name]
1000
_OWNERHANDLE=0000000064
1000
STEDefault=TRUE
1002
}
0
INSERT
5
FD
100
AcDbEntity
8
0
100
AcDbBlockReference
6
ByLayer
2
SCH_CONNECTOR_TERMINAL_CC
10
-4.0000000000
20
0.0000000000
30
0.0000000000
41
1.0000000000
42
1.0000000000
43
1.0000000000
50
0.0000000000
1001
DSTP_XDATA
1002
{
1000
_OWNERHANDLE=0000000064
1000
USES=System
1000
#0=NMO_Name|String|1|Обозначение
1000
#1=NMO_Template|String|1|Шаблон обозначения
1000
#2=PIN_Number|Integer|1|Номер вывода
1000
SCHConnectorRadius=1
1000
_HANDLE=00066A8BB0
1000
_UPGRADE=1
1002
}
0
LINE
5
FE
100
AcDbEntity
8
SYS_METRIC
100
AcDbLine
6
ByLayer
10
-5.0000000000
20
0.0000000000
30
0.0000000000
11
-3.0000000000
21
0.0000000000
31
0.0000000000
1001
DSTP_XDATA
1002
{
1000
_OWNERHANDLE=00066A8BB0
1002
}
0
LINE
5
FF
100
AcDbEntity
8
SYS_METRIC
100
AcDbLine
6
ByLayer
10
-4.0000000000
20
1.0000000000
30
0.0000000000
11
-4.0000000000
21
-1.0000000000
31
0.0000000000
1001
DSTP_XDATA
1002
{
1000
_OWNERHANDLE=00066A8BB0
1002
}
0
TEXT
5
100
100
AcDbEntity
8
EL_DEVICE_PIN_NAME
100
AcDbText
6
ByLayer
11
-4.0000000000
21
1.0000000000
31
0.0000000000
10
-4.5833333333
20
1.0000000000
30
0.0000000000
40
2.5000000000
50
0.0000000000
41
0.7000000000
51
12.0000000000
72
1
7
R2_5
1
1
100
AcDbText
73
0
1001
DSTP_XDATA
1002
{
1000
_TMPL1=@@[NMO_Name]
1000
_OWNERHANDLE=00066A8BB0
1000
STEDefault=TRUE
1002
}
0
INSERT
5
101
100
AcDbEntity
8
0
100
AcDbBlockReference
6
ByLayer
2
SCH_CONNECTOR_TERMINAL_CC
10
4.0000000000
20
0.0000000000
30
0.0000000000
41
1.0000000000
42
1.0000000000
43
1.0000000000
50
0.0000000000
1001
DSTP_XDATA
1002
{
1000
_OWNERHANDLE=0000000064
1000
USES=System
1000
#0=NMO_Name|String|2|Обозначение
1000
#1=NMO_Template|String|2|Шаблон обозначения
1000
#2=PIN_Number|Integer|2|Номер вывода
1000
SCHConnectorRadius=1
1000
_HANDLE=00066A83D0
1000
_UPGRADE=1
1002
}
0
LINE
5
102
100
AcDbEntity
8
SYS_METRIC
100
AcDbLine
6
ByLayer
10
3.0000000000
20
0.0000000000
30
0.0000000000
11
5.0000000000
21
0.0000000000
31
0.0000000000
1001
DSTP_XDATA
1002
{
1000
_OWNERHANDLE=00066A83D0
1002
}
0
LINE
5
103
100
AcDbEntity
8
SYS_METRIC
100
AcDbLine
6
ByLayer
10
4.0000000000
20
1.0000000000
30
0.0000000000
11
4.0000000000
21
-1.0000000000
31
0.0000000000
1001
DSTP_XDATA
1002
{
1000
_OWNERHANDLE=00066A83D0
1002
}
0
TEXT
5
104
100
AcDbEntity
8
EL_DEVICE_PIN_NAME
100
AcDbText
6
ByLayer
11
4.0000000000
21
1.0000000000
31
0.0000000000
10
3.1250000000
20
1.0000000000
30
0.0000000000
40
2.5000000000
50
0.0000000000
41
0.7000000000
51
12.0000000000
72
1
7
R2_5
1
2
100
AcDbText
73
0
1001
DSTP_XDATA
1002
{
1000
_TMPL1=@@[NMO_Name]
1000
_OWNERHANDLE=00066A83D0
1000
STEDefault=TRUE
1002
}
0
ENDBLK
5
105
100
AcDbEntity
8
0
100
AcDbBlockEnd
0
BLOCK
5
106
100
AcDbEntity
8
0
100
AcDbBlockBegin
2
SCH_LAMP
70
2
10
0
20
0
30
0
3
SCH_LAMP
1

0
CIRCLE
5
107
100
AcDbEntity
8
EL_DEVICE
100
AcDbCircle
6
ByLayer
10
0.0000000000
20
-0.0000000000
30
0.0000000000
40
3.0000000000
1001
DSTP_XDATA
1002
{
1000
_OWNERHANDLE=0000000064
1002
}
0
LINE
5
108
100
AcDbEntity
8
EL_DEVICE
100
AcDbLine
6
ByLayer
10
-2.1213203436
20
2.1213203436
30
0.0000000000
11
2.1213203436
21
-2.1213203436
31
0.0000000000
1001
DSTP_XDATA
1002
{
1000
_OWNERHANDLE=0000000064
1002
}
0
LINE
5
109
100
AcDbEntity
8
EL_DEVICE
100
AcDbLine
6
ByLayer
10
2.1213203436
20
2.1213203436
30
0.0000000000
11
-2.1213203436
21
-2.1213203436
31
0.0000000000
1001
DSTP_XDATA
1002
{
1000
_OWNERHANDLE=0000000064
1002
}
0
ENDBLK
5
10A
100
AcDbEntity
8
0
100
AcDbBlockEnd
0
BLOCK
5
10B
100
AcDbEntity
8
0
100
AcDbBlockBegin
2
DEVICE_SCH_LAMP
70
2
10
0
20
0
30
0
3
DEVICE_SCH_LAMP
1

0
INSERT
5
10C
100
AcDbEntity
8
0
370
0
100
AcDbBlockReference
6
ByBlock
2
SCH_CONNECTOR_TERMINAL
10
-3.0000000000
20
0.0000000000
30
0.0000000000
41
1.0000000000
42
1.0000000000
43
1.0000000000
50
0.0000000000
1001
DSTP_XDATA
1002
{
1000
_OWNERHANDLE=0000000064
1000
USES=System
1000
#0=NMO_Name|String|1|Обозначение
1000
#1=NMO_Template|String|1|Шаблон обозначения
1000
#2=PIN_Number|Integer|1|Номер вывода
1000
SCHConnectorRadius=0
1000
_HANDLE=00066ADCD0
1000
_UPGRADE=1
1002
}
0
LINE
5
10D
100
AcDbEntity
8
SYS_METRIC
100
AcDbLine
6
ByLayer
10
-4.0000000000
20
0.0000000000
30
0.0000000000
11
-2.0000000000
21
0.0000000000
31
0.0000000000
1001
DSTP_XDATA
1002
{
1000
_OWNERHANDLE=00066ADCD0
1002
}
0
LINE
5
10E
100
AcDbEntity
8
SYS_METRIC
100
AcDbLine
6
ByLayer
10
-3.0000000000
20
1.0000000000
30
0.0000000000
11
-3.0000000000
21
-1.0000000000
31
0.0000000000
1001
DSTP_XDATA
1002
{
1000
_OWNERHANDLE=00066ADCD0
1002
}
0
TEXT
5
10F
100
AcDbEntity
8
EL_DEVICE_PIN_NAME
100
AcDbText
6
ByLayer
11
-3.5000000000
21
1.0000000000
31
0.0000000000
10
-4.6666666667
20
1.0000000000
30
0.0000000000
40
2.5000000000
50
0.0000000000
41
0.7000000000
51
12.0000000000
72
2
7
R2_5
1
1
100
AcDbText
73
0
1001
DSTP_XDATA
1002
{
1000
_TMPL1=@@[NMO_Name]
1000
_OWNERHANDLE=00066ADCD0
1000
STEDefault=TRUE
1002
}
0
INSERT
5
110
100
AcDbEntity
8
0
370
0
100
AcDbBlockReference
6
ByBlock
2
SCH_CONNECTOR_TERMINAL
10
3.0000000000
20
0.0000000000
30
0.0000000000
41
1.0000000000
42
1.0000000000
43
1.0000000000
50
0.0000000000
1001
DSTP_XDATA
1002
{
1000
_OWNERHANDLE=0000000064
1000
USES=System
1000
#0=NMO_Name|String|2|Обозначение
1000
#1=NMO_Template|String|2|Шаблон обозначения
1000
#2=PIN_Number|Integer|2|Номер вывода
1000
SCHConnectorRadius=0
1000
_HANDLE=00066AD4F0
1000
_UPGRADE=1
1002
}
0
LINE
5
111
100
AcDbEntity
8
SYS_METRIC
100
AcDbLine
6
ByLayer
10
2.0000000000
20
0.0000000000
30
0.0000000000
11
4.0000000000
21
0.0000000000
31
0.0000000000
1001
DSTP_XDATA
1002
{
1000
_OWNERHANDLE=00066AD4F0
1002
}
0
LINE
5
112
100
AcDbEntity
8
SYS_METRIC
100
AcDbLine
6
ByLayer
10
3.0000000000
20
1.0000000000
30
0.0000000000
11
3.0000000000
21
-1.0000000000
31
0.0000000000
1001
DSTP_XDATA
1002
{
1000
_OWNERHANDLE=00066AD4F0
1002
}
0
TEXT
5
113
100
AcDbEntity
8
EL_DEVICE_PIN_NAME
100
AcDbText
6
ByLayer
10
3.5000000000
20
1.0000000000
30
0.0000000000
11
3.5000000000
21
1.0000000000
31
0.0000000000
40
2.5000000000
50
0.0000000000
41
0.7000000000
51
12.0000000000
72
0
7
R2_5
1
2
100
AcDbText
73
0
1001
DSTP_XDATA
1002
{
1000
_TMPL1=@@[NMO_Name]
1000
_OWNERHANDLE=00066AD4F0
1000
STEDefault=TRUE
1002
}
0
TEXT
5
114
100
AcDbEntity
8
EL_DEVICE_NAME
100
AcDbText
6
ByLayer
11
0.0000000000
21
3.5000000000
31
0.0000000000
10
0.0000000000
20
7.0000000000
30
0.0000000000
40
2.5000000000
50
0.0000000000
41
0.7000000000
51
12.0000000000
72
1
7
R2_5
1
??HL0
100
AcDbText
73
0
1001
DSTP_XDATA
1002
{
1000
_TMPL1=@@[NMO_Name]
1000
_OWNERHANDLE=0000000064
1000
STEDefault=TRUE
1002
}
0
ENDBLK
5
115
100
AcDbEntity
8
0
100
AcDbBlockEnd
0
ENDSEC
0
SECTION
2
ENTITIES
0
INSERT
5
116
100
AcDbEntity
8
0
370
0
100
AcDbBlockReference
6
ByBlock
2
SCH_MOTOR_3PH_1
10
315.2862120989
20
129.2933489568
30
0.0000000000
41
1.0000000000
42
1.0000000000
43
1.0000000000
50
0.0000000000
1001
DSTP_XDATA
1002
{
1000
_OWNERHANDLE=0000000064
1000
USES=System
1000
#0=NMO_Name|String|M1|Обозначение
1000
#1=NMO_BaseName|String|M|Короткое Имя
1000
#2=NMO_Prefix|String||Префикс
1000
#3=NMO_Suffix|String|1|Суффикс
1000
#4=NMO_Affix|String||Аффикс
1000
#5=NMO_Template|String|@@[NMO_Prefix]@@[NMO_BaseName]@@[NMO_Suffix]@@[NMO_Affix]|Шаблон Обозначения
1000
_HANDLE=00066B2DF0
1000
_UPGRADE=1
1002
}
0
INSERT
5
117
100
AcDbEntity
8
0
370
0
100
AcDbBlockReference
6
ByBlock
2
SCH_CONNECTOR_TERMINAL
10
303.2862120989
20
129.2933489568
30
0.0000000000
41
1.0000000000
42
1.0000000000
43
1.0000000000
50
0.0000000000
1001
DSTP_XDATA
1002
{
1000
_OWNERHANDLE=00066B2DF0
1000
USES=System
1000
#0=NMO_Name|String|L1|Обозначение
1000
#1=NMO_Template|String|L1|Шаблон обозначения
1000
#2=PIN_Number|Integer|1|Номер вывода
1000
SCHConnectorRadius=0
1000
_HANDLE=00066B4E90
1000
_UPGRADE=1
1002
}
0
LINE
5
118
100
AcDbEntity
8
SYS_METRIC
100
AcDbLine
6
ByLayer
10
302.2862120989
20
129.2933489568
30
0.0000000000
11
304.2862120989
21
129.2933489568
31
0.0000000000
1001
DSTP_XDATA
1002
{
1000
_OWNERHANDLE=00066B4E90
1002
}
0
LINE
5
119
100
AcDbEntity
8
SYS_METRIC
100
AcDbLine
6
ByLayer
10
303.2862120989
20
130.2933489568
30
0.0000000000
11
303.2862120989
21
128.2933489568
31
0.0000000000
1001
DSTP_XDATA
1002
{
1000
_OWNERHANDLE=00066B4E90
1002
}
0
TEXT
5
11A
100
AcDbEntity
8
EL_DEVICE_PIN_NAME
100
AcDbText
6
ByLayer
10
303.7862120989
20
130.2933489568
30
0.0000000000
11
303.7862120989
21
130.2933489568
31
0.0000000000
40
2.5000000000
50
0.0000000000
41
0.7000000000
51
12.0000000000
72
0
7
R2_5
1
L1
100
AcDbText
73
0
1001
DSTP_XDATA
1002
{
1000
_TMPL1=@@[NMO_Name]
1000
_OWNERHANDLE=00066B4E90
1000
STEDefault=TRUE
1002
}
0
INSERT
5
11B
100
AcDbEntity
8
0
370
0
100
AcDbBlockReference
6
ByBlock
2
SCH_CONNECTOR_TERMINAL
10
309.2862120989
20
129.2933489568
30
0.0000000000
41
1.0000000000
42
1.0000000000
43
1.0000000000
50
0.0000000000
1001
DSTP_XDATA
1002
{
1000
_OWNERHANDLE=00066B2DF0
1000
USES=System
1000
#0=NMO_Name|String|L2|Обозначение
1000
#1=NMO_Template|String|L2|Шаблон обозначения
1000
#2=PIN_Number|Integer|2|Номер вывода
1000
SCHConnectorRadius=0
1000
_HANDLE=00066B1DD0
1000
_UPGRADE=1
1002
}
0
LINE
5
11C
100
AcDbEntity
8
SYS_METRIC
100
AcDbLine
6
ByLayer
10
308.2862120989
20
129.2933489568
30
0.0000000000
11
310.2862120989
21
129.2933489568
31
0.0000000000
1001
DSTP_XDATA
1002
{
1000
_OWNERHANDLE=00066B1DD0
1002
}
0
LINE
5
11D
100
AcDbEntity
8
SYS_METRIC
100
AcDbLine
6
ByLayer
10
309.2862120989
20
130.2933489568
30
0.0000000000
11
309.2862120989
21
128.2933489568
31
0.0000000000
1001
DSTP_XDATA
1002
{
1000
_OWNERHANDLE=00066B1DD0
1002
}
0
TEXT
5
11E
100
AcDbEntity
8
EL_DEVICE_PIN_NAME
100
AcDbText
6
ByLayer
10
309.7862120989
20
130.2933489568
30
0.0000000000
11
309.7862120989
21
130.2933489568
31
0.0000000000
40
2.5000000000
50
0.0000000000
41
0.7000000000
51
12.0000000000
72
0
7
R2_5
1
L2
100
AcDbText
73
0
1001
DSTP_XDATA
1002
{
1000
_TMPL1=@@[NMO_Name]
1000
_OWNERHANDLE=00066B1DD0
1000
STEDefault=TRUE
1002
}
0
INSERT
5
11F
100
AcDbEntity
8
0
370
0
100
AcDbBlockReference
6
ByBlock
2
SCH_CONNECTOR_TERMINAL
10
315.2862120989
20
129.2933489568
30
0.0000000000
41
1.0000000000
42
1.0000000000
43
1.0000000000
50
0.0000000000
1001
DSTP_XDATA
1002
{
1000
_OWNERHANDLE=00066B2DF0
1000
USES=System
1000
#0=NMO_Name|String|L3|Обозначение
1000
#1=NMO_Template|String|L3|Шаблон обозначения
1000
#2=PIN_Number|Integer|3|Номер вывода
1000
SCHConnectorRadius=0
1000
_HANDLE=00066B6AB0
1000
_UPGRADE=1
1002
}
0
LINE
5
120
100
AcDbEntity
8
SYS_METRIC
100
AcDbLine
6
ByLayer
10
314.2862120989
20
129.2933489568
30
0.0000000000
11
316.2862120989
21
129.2933489568
31
0.0000000000
1001
DSTP_XDATA
1002
{
1000
_OWNERHANDLE=00066B6AB0
1002
}
0
LINE
5
121
100
AcDbEntity
8
SYS_METRIC
100
AcDbLine
6
ByLayer
10
315.2862120989
20
130.2933489568
30
0.0000000000
11
315.2862120989
21
128.2933489568
31
0.0000000000
1001
DSTP_XDATA
1002
{
1000
_OWNERHANDLE=00066B6AB0
1002
}
0
TEXT
5
122
100
AcDbEntity
8
EL_DEVICE_PIN_NAME
100
AcDbText
6
ByLayer
10
315.7862120989
20
130.2933489568
30
0.0000000000
11
315.7862120989
21
130.2933489568
31
0.0000000000
40
2.5000000000
50
0.0000000000
41
0.7000000000
51
12.0000000000
72
0
7
R2_5
1
L3
100
AcDbText
73
0
1001
DSTP_XDATA
1002
{
1000
_TMPL1=@@[NMO_Name]
1000
_OWNERHANDLE=00066B6AB0
1000
STEDefault=TRUE
1002
}
0
INSERT
5
123
100
AcDbEntity
8
0
370
0
100
AcDbBlockReference
6
ByBlock
2
SCH_CONNECTOR_TERMINAL
10
321.2862120989
20
129.2933489568
30
0.0000000000
41
1.0000000000
42
1.0000000000
43
1.0000000000
50
0.0000000000
1001
DSTP_XDATA
1002
{
1000
_OWNERHANDLE=00066B2DF0
1000
USES=System
1000
#0=NMO_Name|String||Обозначение
1000
#1=NMO_Template|String||Шаблон обозначения
1000
#2=PIN_Number|Integer|4|Номер вывода
1000
SCHConnectorRadius=0
1000
_HANDLE=00066B8F30
1000
_UPGRADE=1
1002
}
0
LINE
5
124
100
AcDbEntity
8
SYS_METRIC
100
AcDbLine
6
ByLayer
10
320.2862120989
20
129.2933489568
30
0.0000000000
11
322.2862120989
21
129.2933489568
31
0.0000000000
1001
DSTP_XDATA
1002
{
1000
_OWNERHANDLE=00066B8F30
1002
}
0
LINE
5
125
100
AcDbEntity
8
SYS_METRIC
100
AcDbLine
6
ByLayer
10
321.2862120989
20
130.2933489568
30
0.0000000000
11
321.2862120989
21
128.2933489568
31
0.0000000000
1001
DSTP_XDATA
1002
{
1000
_OWNERHANDLE=00066B8F30
1002
}
0
TEXT
5
126
100
AcDbEntity
8
EL_DEVICE_PIN_NAME
100
AcDbText
6
ByLayer
10
321.7862120989
20
130.2933489568
30
0.0000000000
11
321.7862120989
21
130.2933489568
31
0.0000000000
40
2.5000000000
50
0.0000000000
41
0.7000000000
51
12.0000000000
72
0
7
R2_5
1

100
AcDbText
73
0
1001
DSTP_XDATA
1002
{
1000
_TMPL1=@@[NMO_Name]
1000
_OWNERHANDLE=00066B8F30
1000
STEDefault=TRUE
1002
}
0
INSERT
5
127
100
AcDbEntity
8
0
370
0
100
AcDbBlockReference
6
ByBlock
2
SCH_CONNECTOR_TERMINAL
10
327.2862120989
20
129.2933489568
30
0.0000000000
41
1.0000000000
42
1.0000000000
43
1.0000000000
50
0.0000000000
1001
DSTP_XDATA
1002
{
1000
_OWNERHANDLE=00066B2DF0
1000
USES=System
1000
#0=NMO_Name|String|PE|Обозначение
1000
#1=NMO_Template|String|PE|Шаблон обозначения
1000
#2=PIN_Number|Integer|5|Номер вывода
1000
SCHConnectorRadius=0
1000
_HANDLE=00066BAB90
1000
_UPGRADE=1
1002
}
0
LINE
5
128
100
AcDbEntity
8
SYS_METRIC
100
AcDbLine
6
ByLayer
10
326.2862120989
20
129.2933489568
30
0.0000000000
11
328.2862120989
21
129.2933489568
31
0.0000000000
1001
DSTP_XDATA
1002
{
1000
_OWNERHANDLE=00066BAB90
1002
}
0
LINE
5
129
100
AcDbEntity
8
SYS_METRIC
100
AcDbLine
6
ByLayer
10
327.2862120989
20
130.2933489568
30
0.0000000000
11
327.2862120989
21
128.2933489568
31
0.0000000000
1001
DSTP_XDATA
1002
{
1000
_OWNERHANDLE=00066BAB90
1002
}
0
TEXT
5
12A
100
AcDbEntity
8
EL_DEVICE_PIN_NAME
100
AcDbText
6
ByLayer
10
327.7862120989
20
130.2933489568
30
0.0000000000
11
327.7862120989
21
130.2933489568
31
0.0000000000
40
2.5000000000
50
0.0000000000
41
0.7000000000
51
12.0000000000
72
0
7
R2_5
1
PE
100
AcDbText
73
0
1001
DSTP_XDATA
1002
{
1000
_TMPL1=@@[NMO_Name]
1000
_OWNERHANDLE=00066BAB90
1000
STEDefault=TRUE
1002
}
0
TEXT
5
12B
100
AcDbEntity
8
EL_DEVICE_NAME
370
0
100
AcDbText
6
ByBlock
11
315.2862120989
21
123.2933489568
31
0.0000000000
10
313.5362120989
20
121.7933489568
30
0.0000000000
40
3.0000000000
50
0.0000000000
41
0.7000000000
51
0.0000000000
72
1
7
R2_5
1
M1
100
AcDbText
73
2
1001
DSTP_XDATA
1002
{
1000
_TMPL1=@@[NMO_Name]
1000
_OWNERHANDLE=00066B2DF0
1002
}
0
INSERT
5
12C
100
AcDbEntity
8
0
370
0
100
AcDbBlockReference
6
ByBlock
2
SCH_COIL
10
401.8368329011
20
171.2933489568
30
0.0000000000
41
1.0000000000
42
1.0000000000
43
1.0000000000
50
0.0000000000
1001
DSTP_XDATA
1002
{
1000
_OWNERHANDLE=0000000064
1000
USES=System
1000
#0=NMO_Name|String|KM1|Обозначение
1000
#1=NMO_BaseName|String|KM|Короткое Имя
1000
#2=NMO_Prefix|String||Префикс
1000
#3=NMO_Suffix|String|1|Суффикс
1000
#4=NMO_Affix|String||Аффикс
1000
#5=NMO_Template|String|@@[NMO_Prefix]@@[NMO_BaseName]@@[NMO_Suffix]@@[NMO_Affix]|Шаблон Обозначения
1000
_HANDLE=00066BEC30
1000
_UPGRADE=1
1002
}
0
TEXT
5
12D
100
AcDbEntity
8
EL_DEVICE_NAME
100
AcDbText
6
ByLayer
11
401.8368329011
21
175.7933489568
31
0.0000000000
10
399.5034995678
20
175.7933489568
30
0.0000000000
40
2.5000000000
50
0.0000000000
41
0.7000000000
51
12.0000000000
72
1
7
R2_5
1
KM1
100
AcDbText
73
0
1001
DSTP_XDATA
1002
{
1000
_TMPL1=@@[NMO_Name]
1000
_OWNERHANDLE=00066BEC30
1000
STEDefault=TRUE
1002
}
0
INSERT
5
12E
100
AcDbEntity
8
0
100
AcDbBlockReference
6
ByLayer
2
SCH_CONNECTOR_TERMINAL_CC
10
397.8368329011
20
171.2933489568
30
0.0000000000
41
1.0000000000
42
1.0000000000
43
1.0000000000
50
0.0000000000
1001
DSTP_XDATA
1002
{
1000
_OWNERHANDLE=00066BEC30
1000
USES=System
1000
#0=NMO_Name|String|A|Обозначение
1000
#1=NMO_Template|String|A|Шаблон обозначения
1000
#2=PIN_Number|Integer|1|Номер вывода
1000
SCHConnectorRadius=1
1000
_HANDLE=00066BE450
1000
_UPGRADE=1
1002
}
0
LINE
5
12F
100
AcDbEntity
8
SYS_METRIC
100
AcDbLine
6
ByLayer
10
396.8368329011
20
171.2933489568
30
0.0000000000
11
398.8368329011
21
171.2933489568
31
0.0000000000
1001
DSTP_XDATA
1002
{
1000
_OWNERHANDLE=00066BE450
1002
}
0
LINE
5
130
100
AcDbEntity
8
SYS_METRIC
100
AcDbLine
6
ByLayer
10
397.8368329011
20
172.2933489568
30
0.0000000000
11
397.8368329011
21
170.2933489568
31
0.0000000000
1001
DSTP_XDATA
1002
{
1000
_OWNERHANDLE=00066BE450
1002
}
0
TEXT
5
131
100
AcDbEntity
8
EL_DEVICE_PIN_NAME
100
AcDbText
6
ByLayer
11
397.8368329011
21
172.2933489568
31
0.0000000000
10
397.0347495678
20
172.2933489568
30
0.0000000000
40
2.5000000000
50
0.0000000000
41
0.7000000000
51
12.0000000000
72
1
7
R2_5
1
A
100
AcDbText
73
0
1001
DSTP_XDATA
1002
{
1000
_TMPL1=@@[NMO_Name]
1000
_OWNERHANDLE=00066BE450
1000
STEDefault=TRUE
1002
}
0
INSERT
5
132
100
AcDbEntity
8
0
100
AcDbBlockReference
6
ByLayer
2
SCH_CONNECTOR_TERMINAL_CC
10
405.8368329011
20
171.2933489568
30
0.0000000000
41
1.0000000000
42
1.0000000000
43
1.0000000000
50
0.0000000000
1001
DSTP_XDATA
1002
{
1000
_OWNERHANDLE=00066BEC30
1000
USES=System
1000
#0=NMO_Name|String|B|Обозначение
1000
#1=NMO_Template|String|B|Шаблон обозначения
1000
#2=PIN_Number|Integer|2|Номер вывода
1000
SCHConnectorRadius=1
1000
_HANDLE=00066C6270
1000
_UPGRADE=1
1002
}
0
LINE
5
133
100
AcDbEntity
8
SYS_METRIC
100
AcDbLine
6
ByLayer
10
404.8368329011
20
171.2933489568
30
0.0000000000
11
406.8368329011
21
171.2933489568
31
0.0000000000
1001
DSTP_XDATA
1002
{
1000
_OWNERHANDLE=00066C6270
1002
}
0
LINE
5
134
100
AcDbEntity
8
SYS_METRIC
100
AcDbLine
6
ByLayer
10
405.8368329011
20
172.2933489568
30
0.0000000000
11
405.8368329011
21
170.2933489568
31
0.0000000000
1001
DSTP_XDATA
1002
{
1000
_OWNERHANDLE=00066C6270
1002
}
0
TEXT
5
135
100
AcDbEntity
8
EL_DEVICE_PIN_NAME
100
AcDbText
6
ByLayer
11
405.8368329011
21
172.2933489568
31
0.0000000000
10
404.9618329011
20
172.2933489568
30
0.0000000000
40
2.5000000000
50
0.0000000000
41
0.7000000000
51
12.0000000000
72
1
7
R2_5
1
B
100
AcDbText
73
0
1001
DSTP_XDATA
1002
{
1000
_TMPL1=@@[NMO_Name]
1000
_OWNERHANDLE=00066C6270
1000
STEDefault=TRUE
1002
}
0
INSERT
5
136
100
AcDbEntity
8
0
370
0
100
AcDbBlockReference
6
ByBlock
2
SCH_CONTACT_NOC_CC
10
303.2862120989
20
161.2933489568
30
0.0000000000
41
1.0000000000
42
1.0000000000
43
1.0000000000
50
90.0000000000
1001
DSTP_XDATA
1002
{
1000
_OWNERHANDLE=0000000064
1000
MAINFUNCTION=12C
1000
_HANDLE=00066CB730
1000
_UPGRADE=1
1002
}
0
TEXT
5
137
100
AcDbEntity
8
EL_DEVICE_NAME
100
AcDbText
6
ByLayer
11
299.2862120989
21
161.2933489568
31
0.0000000000
10
294.6195454322
20
160.0433489568
30
0.0000000000
40
2.5000000000
50
0.0000000000
41
0.7000000000
51
12.0000000000
72
2
7
R2_5
1
KM1
100
AcDbText
73
2
1001
DSTP_XDATA
1002
{
1000
_TMPL1=@@[NMO_Name]
1000
_OWNERHANDLE=00066CB730
1000
STEDefault=TRUE
1002
}
0
INSERT
5
138
100
AcDbEntity
8
0
100
AcDbBlockReference
6
ByLayer
2
SCH_CONNECTOR_TERMINAL_CC
10
303.2862120989
20
166.2933489568
30
0.0000000000
41
1.0000000000
42
1.0000000000
43
1.0000000000
50
90.0000000000
1001
DSTP_XDATA
1002
{
1000
_OWNERHANDLE=00066CB730
1000
USES=System
1000
#0=NMO_Name|String|1|Обозначение
1000
#1=NMO_Template|String|1|Шаблон обозначения
1000
#2=PIN_Number|Integer|2|Номер вывода
1000
SCHConnectorRadius=1
1000
_HANDLE=00066CD330
1000
_UPGRADE=1
1002
}
0
LINE
5
139
100
AcDbEntity
8
SYS_METRIC
100
AcDbLine
6
ByLayer
10
303.2862120989
20
165.2933489568
30
0.0000000000
11
303.2862120989
21
167.2933489568
31
0.0000000000
1001
DSTP_XDATA
1002
{
1000
_OWNERHANDLE=00066CD330
1002
}
0
LINE
5
13A
100
AcDbEntity
8
SYS_METRIC
100
AcDbLine
6
ByLayer
10
302.2862120989
20
166.2933489568
30
0.0000000000
11
304.2862120989
21
166.2933489568
31
0.0000000000
1001
DSTP_XDATA
1002
{
1000
_OWNERHANDLE=00066CD330
1002
}
0
TEXT
5
13B
100
AcDbEntity
8
EL_DEVICE_PIN_NAME
100
AcDbText
6
ByLayer
11
302.2862120989
21
166.2933489568
31
0.0000000000
10
301.1195454322
20
165.0433489568
30
0.0000000000
40
2.5000000000
50
0.0000000000
41
0.7000000000
51
12.0000000000
72
2
7
R2_5
1
1
100
AcDbText
73
2
1001
DSTP_XDATA
1002
{
1000
_TMPL1=@@[NMO_Name]
1000
_OWNERHANDLE=00066CD330
1000
STEDefault=TRUE
1002
}
0
INSERT
5
13C
100
AcDbEntity
8
0
370
0
100
AcDbBlockReference
6
ByBlock
2
SCH_CONTACT_NOC_CC
10
309.2862120989
20
161.2933489568
30
0.0000000000
41
1.0000000000
42
1.0000000000
43
1.0000000000
50
90.0000000000
1001
DSTP_XDATA
1002
{
1000
_OWNERHANDLE=0000000064
1000
MAINFUNCTION=12C
1000
_HANDLE=00066D2110
1000
_UPGRADE=1
1002
}
0
TEXT
5
13D
100
AcDbEntity
8
SYS_METRIC
100
AcDbText
6
ByLayer
11
305.2862120989
21
161.2933489568
31
0.0000000000
10
300.6195454322
20
160.0433489568
30
0.0000000000
40
2.5000000000
50
0.0000000000
41
0.7000000000
51
12.0000000000
72
2
7
R2_5
1
KM1
100
AcDbText
73
2
1001
DSTP_XDATA
1002
{
1000
_TMPL1=@@[NMO_Name]
1000
_OWNERHANDLE=00066D2110
1000
STEDefault=TRUE
1002
}
0
INSERT
5
13E
100
AcDbEntity
8
0
100
AcDbBlockReference
6
ByLayer
2
SCH_CONNECTOR_TERMINAL_CC
10
309.2862120989
20
166.2933489568
30
0.0000000000
41
1.0000000000
42
1.0000000000
43
1.0000000000
50
90.0000000000
1001
DSTP_XDATA
1002
{
1000
_OWNERHANDLE=00066D2110
1000
USES=System
1000
#0=NMO_Name|String|3|Обозначение
1000
#1=NMO_Template|String|3|Шаблон обозначения
1000
#2=PIN_Number|Integer|2|Номер вывода
1000
SCHConnectorRadius=1
1000
_HANDLE=00066D3910
1000
_UPGRADE=1
1002
}
0
LINE
5
13F
100
AcDbEntity
8
SYS_METRIC
100
AcDbLine
6
ByLayer
10
309.2862120989
20
165.2933489568
30
0.0000000000
11
309.2862120989
21
167.2933489568
31
0.0000000000
1001
DSTP_XDATA
1002
{
1000
_OWNERHANDLE=00066D3910
1002
}
0
LINE
5
140
100
AcDbEntity
8
SYS_METRIC
100
AcDbLine
6
ByLayer
10
308.2862120989
20
166.2933489568
30
0.0000000000
11
310.2862120989
21
166.2933489568
31
0.0000000000
1001
DSTP_XDATA
1002
{
1000
_OWNERHANDLE=00066D3910
1002
}
0
TEXT
5
141
100
AcDbEntity
8
EL_DEVICE_PIN_NAME
100
AcDbText
6
ByLayer
11
308.2862120989
21
166.2933489568
31
0.0000000000
10
306.3903787656
20
165.0433489568
30
0.0000000000
40
2.5000000000
50
0.0000000000
41
0.7000000000
51
12.0000000000
72
2
7
R2_5
1
3
100
AcDbText
73
2
1001
DSTP_XDATA
1002
{
1000
_TMPL1=@@[NMO_Name]
1000
_OWNERHANDLE=00066D3910
1000
STEDefault=TRUE
1002
}
0
INSERT
5
142
100
AcDbEntity
8
0
370
0
100
AcDbBlockReference
6
ByBlock
2
SCH_CONTACT_NOC_CC
10
315.2862120989
20
161.2933489568
30
0.0000000000
41
1.0000000000
42
1.0000000000
43
1.0000000000
50
90.0000000000
1001
DSTP_XDATA
1002
{
1000
_OWNERHANDLE=0000000064
1000
MAINFUNCTION=12C
1000
_HANDLE=00066D82F0
1000
_UPGRADE=1
1002
}
0
TEXT
5
143
100
AcDbEntity
8
SYS_METRIC
100
AcDbText
6
ByLayer
11
311.2862120989
21
161.2933489568
31
0.0000000000
10
306.6195454322
20
160.0433489568
30
0.0000000000
40
2.5000000000
50
0.0000000000
41
0.7000000000
51
12.0000000000
72
2
7
R2_5
1
KM1
100
AcDbText
73
2
1001
DSTP_XDATA
1002
{
1000
_TMPL1=@@[NMO_Name]
1000
_OWNERHANDLE=00066D82F0
1000
STEDefault=TRUE
1002
}
0
INSERT
5
144
100
AcDbEntity
8
0
100
AcDbBlockReference
6
ByLayer
2
SCH_CONNECTOR_TERMINAL_CC
10
315.2862120989
20
166.2933489568
30
0.0000000000
41
1.0000000000
42
1.0000000000
43
1.0000000000
50
90.0000000000
1001
DSTP_XDATA
1002
{
1000
_OWNERHANDLE=00066D82F0
1000
USES=System
1000
#0=NMO_Name|String|5|Обозначение
1000
#1=NMO_Template|String|5|Шаблон обозначения
1000
#2=PIN_Number|Integer|2|Номер вывода
1000
SCHConnectorRadius=1
1000
_HANDLE=00066D9EF0
1000
_UPGRADE=1
1002
}
0
LINE
5
145
100
AcDbEntity
8
SYS_METRIC
100
AcDbLine
6
ByLayer
10
315.2862120989
20
165.2933489568
30
0.0000000000
11
315.2862120989
21
167.2933489568
31
0.0000000000
1001
DSTP_XDATA
1002
{
1000
_OWNERHANDLE=00066D9EF0
1002
}
0
LINE
5
146
100
AcDbEntity
8
SYS_METRIC
100
AcDbLine
6
ByLayer
10
314.2862120989
20
166.2933489568
30
0.0000000000
11
316.2862120989
21
166.2933489568
31
0.0000000000
1001
DSTP_XDATA
1002
{
1000
_OWNERHANDLE=00066D9EF0
1002
}
0
TEXT
5
147
100
AcDbEntity
8
EL_DEVICE_PIN_NAME
100
AcDbText
6
ByLayer
11
314.2862120989
21
166.2933489568
31
0.0000000000
10
312.5362120989
20
165.0433489568
30
0.0000000000
40
2.5000000000
50
0.0000000000
41
0.7000000000
51
12.0000000000
72
2
7
R2_5
1
5
100
AcDbText
73
2
1001
DSTP_XDATA
1002
{
1000
_TMPL1=@@[NMO_Name]
1000
_OWNERHANDLE=00066D9EF0
1000
STEDefault=TRUE
1002
}
0
INSERT
5
148
100
AcDbEntity
8
0
370
0
100
AcDbBlockReference
6
ByBlock
2
SCH_CONTACT_NOC_CC
10
362.8368329011
20
161.2933489568
30
0.0000000000
41
1.0000000000
42
1.0000000000
43
1.0000000000
50
0.0000000000
1001
DSTP_XDATA
1002
{
1000
_OWNERHANDLE=0000000064
1000
MAINFUNCTION=12C
1000
_HANDLE=00066DECD0
1000
_UPGRADE=1
1002
}
0
TEXT
5
149
100
AcDbEntity
8
EL_DEVICE_NAME
100
AcDbText
6
ByLayer
11
362.8368329011
21
165.2933489568
31
0.0000000000
10
360.5034995678
20
165.2933489568
30
0.0000000000
40
2.5000000000
50
0.0000000000
41
0.7000000000
51
12.0000000000
72
1
7
R2_5
1
KM1
100
AcDbText
73
0
1001
DSTP_XDATA
1002
{
1000
_TMPL1=@@[NMO_Name]
1000
_OWNERHANDLE=00066DECD0
1000
STEDefault=TRUE
1002
}
0
INSERT
5
14A
100
AcDbEntity
8
0
100
AcDbBlockReference
6
ByLayer
2
SCH_CONNECTOR_TERMINAL_CC
10
357.8368329011
20
161.2933489568
30
0.0000000000
41
1.0000000000
42
1.0000000000
43
1.0000000000
50
0.0000000000
1001
DSTP_XDATA
1002
{
1000
_OWNERHANDLE=00066DECD0
1000
USES=System
1000
#0=NMO_Name|String|11|Обозначение
1000
#1=NMO_Template|String|11|Шаблон обозначения
1000
#2=PIN_Number|Integer|1|Номер вывода
1000
SCHConnectorRadius=1
1000
_HANDLE=00066E04D0
1000
_UPGRADE=1
1002
}
0
LINE
5
14B
100
AcDbEntity
8
SYS_METRIC
100
AcDbLine
6
ByLayer
10
356.8368329011
20
161.2933489568
30
0.0000000000
11
358.8368329011
21
161.2933489568
31
0.0000000000
1001
DSTP_XDATA
1002
{
1000
_OWNERHANDLE=00066E04D0
1002
}
0
LINE
5
14C
100
AcDbEntity
8
SYS_METRIC
100
AcDbLine
6
ByLayer
10
357.8368329011
20
162.2933489568
30
0.0000000000
11
357.8368329011
21
160.2933489568
31
0.0000000000
1001
DSTP_XDATA
1002
{
1000
_OWNERHANDLE=00066E04D0
1002
}
0
TEXT
5
14D
100
AcDbEntity
8
EL_DEVICE_PIN_NAME
100
AcDbText
6
ByLayer
11
357.8368329011
21
162.2933489568
31
0.0000000000
10
356.6701662344
20
162.2933489568
30
0.0000000000
40
2.5000000000
50
0.0000000000
41
0.7000000000
51
12.0000000000
72
1
7
R2_5
1
11
100
AcDbText
73
0
1001
DSTP_XDATA
1002
{
1000
_TMPL1=@@[NMO_Name]
1000
_OWNERHANDLE=00066E04D0
1000
STEDefault=TRUE
1002
}
0
INSERT
5
14E
100
AcDbEntity
8
0
100
AcDbBlockReference
6
ByLayer
2
SCH_CONNECTOR_TERMINAL_CC
10
367.8368329011
20
161.2933489568
30
0.0000000000
41
1.0000000000
42
1.0000000000
43
1.0000000000
50
0.0000000000
1001
DSTP_XDATA
1002
{
1000
_OWNERHANDLE=00066DECD0
1000
USES=System
1000
#0=NMO_Name|String|14|Обозначение
1000
#1=NMO_Template|String|14|Шаблон обозначения
1000
#2=PIN_Number|Integer|2|Номер вывода
1000
SCHConnectorRadius=1
1000
_HANDLE=00066E52D0
1000
_UPGRADE=1
1002
}
0
LINE
5
14F
100
AcDbEntity
8
SYS_METRIC
100
AcDbLine
6
ByLayer
10
366.8368329011
20
161.2933489568
30
0.0000000000
11
368.8368329011
21
161.2933489568
31
0.0000000000
1001
DSTP_XDATA
1002
{
1000
_OWNERHANDLE=00066E52D0
1002
}
0
LINE
5
150
100
AcDbEntity
8
SYS_METRIC
100
AcDbLine
6
ByLayer
10
367.8368329011
20
162.2933489568
30
0.0000000000
11
367.8368329011
21
160.2933489568
31
0.0000000000
1001
DSTP_XDATA
1002
{
1000
_OWNERHANDLE=00066E52D0
1002
}
0
TEXT
5
151
100
AcDbEntity
8
EL_DEVICE_PIN_NAME
100
AcDbText
6
ByLayer
11
367.8368329011
21
162.2933489568
31
0.0000000000
10
366.3784995678
20
162.2933489568
30
0.0000000000
40
2.5000000000
50
0.0000000000
41
0.7000000000
51
12.0000000000
72
1
7
R2_5
1
14
100
AcDbText
73
0
1001
DSTP_XDATA
1002
{
1000
_TMPL1=@@[NMO_Name]
1000
_OWNERHANDLE=00066E52D0
1000
STEDefault=TRUE
1002
}
0
INSERT
5
152
100
AcDbEntity
8
0
370
0
100
AcDbBlockReference
6
ByBlock
2
SCH_BUTTON_NOC_CC
10
362.8368329011
20
171.2933489568
30
0.0000000000
41
1.0000000000
42
1.0000000000
43
1.0000000000
50
0.0000000000
1001
DSTP_XDATA
1002
{
1000
_OWNERHANDLE=0000000064
1000
USES=System
1000
#0=NMO_Name|String|SB1|Обозначение
1000
#1=NMO_BaseName|String|SB|Короткое Имя
1000
#2=NMO_Prefix|String||Префикс
1000
#3=NMO_Suffix|String|1|Суффикс
1000
#4=NMO_Affix|String||Аффикс
1000
#5=NMO_Template|String|@@[NMO_Prefix]@@[NMO_BaseName]@@[NMO_Suffix]@@[NMO_Affix]|Шаблон Обозначения
1000
_HANDLE=00066EABB0
1000
_UPGRADE=1
1002
}
0
TEXT
5
153
100
AcDbEntity
8
EL_DEVICE_NAME
100
AcDbText
6
ByLayer
11
362.8368329011
21
176.7933489568
31
0.0000000000
10
360.5034995678
20
176.7933489568
30
0.0000000000
40
2.5000000000
50
0.0000000000
41
0.7000000000
51
12.0000000000
72
1
7
R2_5
1
SB1
100
AcDbText
73
0
1001
DSTP_XDATA
1002
{
1000
_TMPL1=@@[NMO_Name]
1000
_OWNERHANDLE=00066EABB0
1000
STEDefault=TRUE
1002
}
0
INSERT
5
154
100
AcDbEntity
8
0
100
AcDbBlockReference
6
ByLayer
2
SCH_CONNECTOR_TERMINAL_CC
10
357.8368329011
20
171.2933489568
30
0.0000000000
41
1.0000000000
42
1.0000000000
43
1.0000000000
50
0.0000000000
1001
DSTP_XDATA
1002
{
1000
_OWNERHANDLE=00066EABB0
1000
USES=System
1000
#0=NMO_Name|String|13|Обозначение
1000
#1=NMO_Template|String|13|Шаблон обозначения
1000
#2=PIN_Number|Integer|1|Номер вывода
1000
SCHConnectorRadius=1
1000
_HANDLE=000B4A03B0
1000
_UPGRADE=1
1002
}
0
LINE
5
155
100
AcDbEntity
8
SYS_METRIC
100
AcDbLine
6
ByLayer
10
356.8368329011
20
171.2933489568
30
0.0000000000
11
358.8368329011
21
171.2933489568
31
0.0000000000
1001
DSTP_XDATA
1002
{
1000
_OWNERHANDLE=000B4A03B0
1002
}
0
LINE
5
156
100
AcDbEntity
8
SYS_METRIC
100
AcDbLine
6
ByLayer
10
357.8368329011
20
172.2933489568
30
0.0000000000
11
357.8368329011
21
170.2933489568
31
0.0000000000
1001
DSTP_XDATA
1002
{
1000
_OWNERHANDLE=000B4A03B0
1002
}
0
TEXT
5
157
100
AcDbEntity
8
EL_DEVICE_PIN_NAME
100
AcDbText
6
ByLayer
11
357.8368329011
21
172.2933489568
31
0.0000000000
10
356.3055829011
20
172.2933489568
30
0.0000000000
40
2.5000000000
50
0.0000000000
41
0.7000000000
51
12.0000000000
72
1
7
R2_5
1
13
100
AcDbText
73
0
1001
DSTP_XDATA
1002
{
1000
_TMPL1=@@[NMO_Name]
1000
_OWNERHANDLE=000B4A03B0
1000
STEDefault=TRUE
1002
}
0
INSERT
5
158
100
AcDbEntity
8
0
100
AcDbBlockReference
6
ByLayer
2
SCH_CONNECTOR_TERMINAL_CC
10
367.8368329011
20
171.2933489568
30
0.0000000000
41
1.0000000000
42
1.0000000000
43
1.0000000000
50
0.0000000000
1001
DSTP_XDATA
1002
{
1000
_OWNERHANDLE=00066EABB0
1000
USES=System
1000
#0=NMO_Name|String|14|Обозначение
1000
#1=NMO_Template|String|14|Шаблон обозначения
1000
#2=PIN_Number|Integer|2|Номер вывода
1000
SCHConnectorRadius=1
1000
_HANDLE=000B4A54F0
1000
_UPGRADE=1
1002
}
0
LINE
5
159
100
AcDbEntity
8
SYS_METRIC
100
AcDbLine
6
ByLayer
10
366.8368329011
20
171.2933489568
30
0.0000000000
11
368.8368329011
21
171.2933489568
31
0.0000000000
1001
DSTP_XDATA
1002
{
1000
_OWNERHANDLE=000B4A54F0
1002
}
0
LINE
5
15A
100
AcDbEntity
8
SYS_METRIC
100
AcDbLine
6
ByLayer
10
367.8368329011
20
172.2933489568
30
0.0000000000
11
367.8368329011
21
170.2933489568
31
0.0000000000
1001
DSTP_XDATA
1002
{
1000
_OWNERHANDLE=000B4A54F0
1002
}
0
TEXT
5
15B
100
AcDbEntity
8
EL_DEVICE_PIN_NAME
100
AcDbText
6
ByLayer
11
367.8368329011
21
172.2933489568
31
0.0000000000
10
366.3784995678
20
172.2933489568
30
0.0000000000
40
2.5000000000
50
0.0000000000
41
0.7000000000
51
12.0000000000
72
1
7
R2_5
1
14
100
AcDbText
73
0
1001
DSTP_XDATA
1002
{
1000
_TMPL1=@@[NMO_Name]
1000
_OWNERHANDLE=000B4A54F0
1000
STEDefault=TRUE
1002
}
0
INSERT
5
15C
100
AcDbEntity
8
0
370
0
100
AcDbBlockReference
6
ByBlock
2
SCH_THERMO_NC_CC
10
382.8368329011
20
171.2933489568
30
0.0000000000
41
1.0000000000
42
1.0000000000
43
1.0000000000
50
0.0000000000
1001
DSTP_XDATA
1002
{
1000
_OWNERHANDLE=0000000064
1000
USES=System
1000
#0=NMO_Name|String|KK1|Обозначение
1000
#1=NMO_BaseName|String|KK|Короткое Имя
1000
#2=NMO_Prefix|String||Префикс
1000
#3=NMO_Suffix|String|1|Суффикс
1000
#4=NMO_Affix|String||Аффикс
1000
#5=NMO_Template|String|@@[NMO_Prefix]@@[NMO_BaseName]@@[NMO_Suffix]@@[NMO_Affix]|Шаблон Обозначения
1000
_HANDLE=000B4AADD0
1000
_UPGRADE=1
1002
}
0
TEXT
5
15D
100
AcDbEntity
8
EL_DEVICE_NAME
100
AcDbText
6
ByLayer
11
382.8368329011
21
174.7933489568
31
0.0000000000
10
380.5034995678
20
174.7933489568
30
0.0000000000
40
2.5000000000
50
0.0000000000
41
0.7000000000
51
12.0000000000
72
1
7
R2_5
1
KK1
100
AcDbText
73
0
1001
DSTP_XDATA
1002
{
1000
_TMPL1=@@[NMO_Name]
1000
_OWNERHANDLE=000B4AADD0
1000
STEDefault=TRUE
1002
}
0
INSERT
5
15E
100
AcDbEntity
8
0
100
AcDbBlockReference
6
ByLayer
2
SCH_CONNECTOR_TERMINAL_CC
10
377.8368329011
20
171.2933489568
30
0.0000000000
41
1.0000000000
42
1.0000000000
43
1.0000000000
50
0.0000000000
1001
DSTP_XDATA
1002
{
1000
_OWNERHANDLE=000B4AADD0
1000
USES=System
1000
#0=NMO_Name|String|95|Обозначение
1000
#1=NMO_Template|String|95|Шаблон обозначения
1000
#2=PIN_Number|Integer|1|Номер вывода
1000
SCHConnectorRadius=1
1000
_HANDLE=000B4AD950
1000
_UPGRADE=1
1002
}
0
LINE
5
15F
100
AcDbEntity
8
SYS_METRIC
100
AcDbLine
6
ByLayer
10
376.8368329011
20
171.2933489568
30
0.0000000000
11
378.8368329011
21
171.2933489568
31
0.0000000000
1001
DSTP_XDATA
1002
{
1000
_OWNERHANDLE=000B4AD950
1002
}
0
LINE
5
160
100
AcDbEntity
8
SYS_METRIC
100
AcDbLine
6
ByLayer
10
377.8368329011
20
172.2933489568
30
0.0000000000
11
377.8368329011
21
170.2933489568
31
0.0000000000
1001
DSTP_XDATA
1002
{
1000
_OWNERHANDLE=000B4AD950
1002
}
0
TEXT
5
161
100
AcDbEntity
8
EL_DEVICE_PIN_NAME
100
AcDbText
6
ByLayer
11
377.8368329011
21
172.2933489568
31
0.0000000000
10
376.0868329011
20
172.2933489568
30
0.0000000000
40
2.5000000000
50
0.0000000000
41
0.7000000000
51
12.0000000000
72
1
7
R2_5
1
95
100
AcDbText
73
0
1001
DSTP_XDATA
1002
{
1000
_TMPL1=@@[NMO_Name]
1000
_OWNERHANDLE=000B4AD950
1000
STEDefault=TRUE
1002
}
0
INSERT
5
162
100
AcDbEntity
8
0
100
AcDbBlockReference
6
ByLayer
2
SCH_CONNECTOR_TERMINAL_CC
10
387.8368329011
20
171.2933489568
30
0.0000000000
41
1.0000000000
42
1.0000000000
43
1.0000000000
50
0.0000000000
1001
DSTP_XDATA
1002
{
1000
_OWNERHANDLE=000B4AADD0
1000
USES=System
1000
#0=NMO_Name|String|96|Обозначение
1000
#1=NMO_Template|String|96|Шаблон обозначения
1000
#2=PIN_Number|Integer|2|Номер вывода
1000
SCHConnectorRadius=1
1000
_HANDLE=000B4B3310
1000
_UPGRADE=1
1002
}
0
LINE
5
163
100
AcDbEntity
8
SYS_METRIC
100
AcDbLine
6
ByLayer
10
386.8368329011
20
171.2933489568
30
0.0000000000
11
388.8368329011
21
171.2933489568
31
0.0000000000
1001
DSTP_XDATA
1002
{
1000
_OWNERHANDLE=000B4B3310
1002
}
0
LINE
5
164
100
AcDbEntity
8
SYS_METRIC
100
AcDbLine
6
ByLayer
10
387.8368329011
20
172.2933489568
30
0.0000000000
11
387.8368329011
21
170.2933489568
31
0.0000000000
1001
DSTP_XDATA
1002
{
1000
_OWNERHANDLE=000B4B3310
1002
}
0
TEXT
5
165
100
AcDbEntity
8
EL_DEVICE_PIN_NAME
100
AcDbText
6
ByLayer
11
387.8368329011
21
172.2933489568
31
0.0000000000
10
386.0868329011
20
172.2933489568
30
0.0000000000
40
2.5000000000
50
0.0000000000
41
0.7000000000
51
12.0000000000
72
1
7
R2_5
1
96
100
AcDbText
73
0
1001
DSTP_XDATA
1002
{
1000
_TMPL1=@@[NMO_Name]
1000
_OWNERHANDLE=000B4B3310
1000
STEDefault=TRUE
1002
}
0
INSERT
5
166
100
AcDbEntity
8
0
370
0
100
AcDbBlockReference
6
ByBlock
2
SCH_BUTTON_NC_CC
10
342.8368329011
20
171.2933489568
30
0.0000000000
41
1.0000000000
42
1.0000000000
43
1.0000000000
50
0.0000000000
1001
DSTP_XDATA
1002
{
1000
_OWNERHANDLE=0000000064
1000
USES=System
1000
#0=NMO_Name|String|SB2|Обозначение
1000
#1=NMO_BaseName|String|SB|Короткое Имя
1000
#2=NMO_Prefix|String||Префикс
1000
#3=NMO_Suffix|String|2|Суффикс
1000
#4=NMO_Affix|String||Аффикс
1000
#5=NMO_Template|String|@@[NMO_Prefix]@@[NMO_BaseName]@@[NMO_Suffix]@@[NMO_Affix]|Шаблон Обозначения
1000
_HANDLE=000B4B8110
1000
_UPGRADE=1
1002
}
0
TEXT
5
167
100
AcDbEntity
8
EL_DEVICE_NAME
100
AcDbText
6
ByLayer
11
342.8368329011
21
174.7933489568
31
0.0000000000
10
340.2118329011
20
174.7933489568
30
0.0000000000
40
2.5000000000
50
0.0000000000
41
0.7000000000
51
12.0000000000
72
1
7
R2_5
1
SB2
100
AcDbText
73
0
1001
DSTP_XDATA
1002
{
1000
_TMPL1=@@[NMO_Name]
1000
_OWNERHANDLE=000B4B8110
1000
STEDefault=TRUE
1002
}
0
INSERT
5
168
100
AcDbEntity
8
0
100
AcDbBlockReference
6
ByLayer
2
SCH_CONNECTOR_TERMINAL_CC
10
337.8368329011
20
171.2933489568
30
0.0000000000
41
1.0000000000
42
1.0000000000
43
1.0000000000
50
0.0000000000
1001
DSTP_XDATA
1002
{
1000
_OWNERHANDLE=000B4B8110
1000
USES=System
1000
#0=NMO_Name|String|11|Обозначение
1000
#1=NMO_Template|String|11|Шаблон обозначения
1000
#2=PIN_Number|Integer|1|Номер вывода
1000
SCHConnectorRadius=1
1000
_HANDLE=000B4BAC90
1000
_UPGRADE=1
1002
}
0
LINE
5
169
100
AcDbEntity
8
SYS_METRIC
100
AcDbLine
6
ByLayer
10
336.8368329011
20
171.2933489568
30
0.0000000000
11
338.8368329011
21
171.2933489568
31
0.0000000000
1001
DSTP_XDATA
1002
{
1000
_OWNERHANDLE=000B4BAC90
1002
}
0
LINE
5
16A
100
AcDbEntity
8
SYS_METRIC
100
AcDbLine
6
ByLayer
10
337.8368329011
20
172.2933489568
30
0.0000000000
11
337.8368329011
21
170.2933489568
31
0.0000000000
1001
DSTP_XDATA
1002
{
1000
_OWNERHANDLE=000B4BAC90
1002
}
0
TEXT
5
16B
100
AcDbEntity
8
EL_DEVICE_PIN_NAME
100
AcDbText
6
ByLayer
11
337.8368329011
21
172.2933489568
31
0.0000000000
10
336.6701662344
20
172.2933489568
30
0.0000000000
40
2.5000000000
50
0.0000000000
41
0.7000000000
51
12.0000000000
72
1
7
R2_5
1
11
100
AcDbText
73
0
1001
DSTP_XDATA
1002
{
1000
_TMPL1=@@[NMO_Name]
1000
_OWNERHANDLE=000B4BAC90
1000
STEDefault=TRUE
1002
}
0
INSERT
5
16C
100
AcDbEntity
8
0
100
AcDbBlockReference
6
ByLayer
2
SCH_CONNECTOR_TERMINAL_CC
10
347.8368329011
20
171.2933489568
30
0.0000000000
41
1.0000000000
42
1.0000000000
43
1.0000000000
50
0.0000000000
1001
DSTP_XDATA
1002
{
1000
_OWNERHANDLE=000B4B8110
1000
USES=System
1000
#0=NMO_Name|String|12|Обозначение
1000
#1=NMO_Template|String|12|Шаблон обозначения
1000
#2=PIN_Number|Integer|2|Номер вывода
1000
SCHConnectorRadius=1
1000
_HANDLE=000B4C0650
1000
_UPGRADE=1
1002
}
0
LINE
5
16D
100
AcDbEntity
8
SYS_METRIC
100
AcDbLine
6
ByLayer
10
346.8368329011
20
171.2933489568
30
0.0000000000
11
348.8368329011
21
171.2933489568
31
0.0000000000
1001
DSTP_XDATA
1002
{
1000
_OWNERHANDLE=000B4C0650
1002
}
0
LINE
5
16E
100
AcDbEntity
8
SYS_METRIC
100
AcDbLine
6
ByLayer
10
347.8368329011
20
172.2933489568
30
0.0000000000
11
347.8368329011
21
170.2933489568
31
0.0000000000
1001
DSTP_XDATA
1002
{
1000
_OWNERHANDLE=000B4C0650
1002
}
0
TEXT
5
16F
100
AcDbEntity
8
EL_DEVICE_PIN_NAME
100
AcDbText
6
ByLayer
11
347.8368329011
21
172.2933489568
31
0.0000000000
10
346.3784995678
20
172.2933489568
30
0.0000000000
40
2.5000000000
50
0.0000000000
41
0.7000000000
51
12.0000000000
72
1
7
R2_5
1
12
100
AcDbText
73
0
1001
DSTP_XDATA
1002
{
1000
_TMPL1=@@[NMO_Name]
1000
_OWNERHANDLE=000B4C0650
1000
STEDefault=TRUE
1002
}
0
INSERT
5
170
100
AcDbEntity
8
0
370
0
100
AcDbBlockReference
6
ByBlock
2
SCH_THERMO
10
303.2862120989
20
153.2933489568
30
0.0000000000
41
1.0000000000
42
1.0000000000
43
1.0000000000
50
90.0000000000
1001
DSTP_XDATA
1002
{
1000
_OWNERHANDLE=0000000064
1000
MAINFUNCTION=15C
1000
_HANDLE=000B4C6870
1000
_UPGRADE=1
1002
}
0
TEXT
5
171
100
AcDbEntity
8
EL_DEVICE_NAME
100
AcDbText
6
ByLayer
11
299.7862120989
21
153.2933489568
31
0.0000000000
10
295.1195454322
20
152.0433489568
30
0.0000000000
40
2.5000000000
50
0.0000000000
41
0.7000000000
51
12.0000000000
72
2
7
R2_5
1
KK1
100
AcDbText
73
2
1001
DSTP_XDATA
1002
{
1000
_TMPL1=@@[NMO_Name]
1000
_OWNERHANDLE=000B4C6870
1000
STEDefault=TRUE
1002
}
0
INSERT
5
172
100
AcDbEntity
8
0
100
AcDbBlockReference
6
ByLayer
2
SCH_CONNECTOR_TERMINAL_CC
10
303.2862120989
20
149.2933489568
30
0.0000000000
41
1.0000000000
42
1.0000000000
43
1.0000000000
50
90.0000000000
1001
DSTP_XDATA
1002
{
1000
_OWNERHANDLE=000B4C6870
1000
USES=System
1000
#0=NMO_Name|String|2|Обозначение
1000
#1=NMO_Template|String|2|Шаблон обозначения
1000
#2=PIN_Number|Integer|1|Номер вывода
1000
SCHConnectorRadius=1
1000
_HANDLE=000B4C8470
1000
_UPGRADE=1
1002
}
0
LINE
5
173
100
AcDbEntity
8
SYS_METRIC
100
AcDbLine
6
ByLayer
10
303.2862120989
20
148.2933489568
30
0.0000000000
11
303.2862120989
21
150.2933489568
31
0.0000000000
1001
DSTP_XDATA
1002
{
1000
_OWNERHANDLE=000B4C8470
1002
}
0
LINE
5
174
100
AcDbEntity
8
SYS_METRIC
100
AcDbLine
6
ByLayer
10
302.2862120989
20
149.2933489568
30
0.0000000000
11
304.2862120989
21
149.2933489568
31
0.0000000000
1001
DSTP_XDATA
1002
{
1000
_OWNERHANDLE=000B4C8470
1002
}
0
TEXT
5
175
100
AcDbEntity
8
EL_DEVICE_PIN_NAME
100
AcDbText
6
ByLayer
11
302.2862120989
21
149.2933489568
31
0.0000000000
10
300.5362120989
20
148.0433489568
30
0.0000000000
40
2.5000000000
50
0.0000000000
41
0.7000000000
51
12.0000000000
72
2
7
R2_5
1
2
100
AcDbText
73
2
1001
DSTP_XDATA
1002
{
1000
_TMPL1=@@[NMO_Name]
1000
_OWNERHANDLE=000B4C8470
1000
STEDefault=TRUE
1002
}
0
INSERT
5
176
100
AcDbEntity
8
0
370
0
100
AcDbBlockReference
6
ByBlock
2
SCH_THERMO
10
309.2862120989
20
153.2933489568
30
0.0000000000
41
1.0000000000
42
1.0000000000
43
1.0000000000
50
90.0000000000
1001
DSTP_XDATA
1002
{
1000
_OWNERHANDLE=0000000064
1000
MAINFUNCTION=15C
1000
_HANDLE=000B4CD250
1000
_UPGRADE=1
1002
}
0
TEXT
5
177
100
AcDbEntity
8
SYS_METRIC
100
AcDbText
6
ByLayer
11
305.7862120989
21
153.2933489568
31
0.0000000000
10
301.1195454322
20
152.0433489568
30
0.0000000000
40
2.5000000000
50
0.0000000000
41
0.7000000000
51
12.0000000000
72
2
7
R2_5
1
KK1
100
AcDbText
73
2
1001
DSTP_XDATA
1002
{
1000
_TMPL1=@@[NMO_Name]
1000
_OWNERHANDLE=000B4CD250
1000
STEDefault=TRUE
1002
}
0
INSERT
5
178
100
AcDbEntity
8
0
100
AcDbBlockReference
6
ByLayer
2
SCH_CONNECTOR_TERMINAL_CC
10
309.2862120989
20
149.2933489568
30
0.0000000000
41
1.0000000000
42
1.0000000000
43
1.0000000000
50
90.0000000000
1001
DSTP_XDATA
1002
{
1000
_OWNERHANDLE=000B4CD250
1000
USES=System
1000
#0=NMO_Name|String|4|Обозначение
1000
#1=NMO_Template|String|4|Шаблон обозначения
1000
#2=PIN_Number|Integer|1|Номер вывода
1000
SCHConnectorRadius=1
1000
_HANDLE=000B4CEA50
1000
_UPGRADE=1
1002
}
0
LINE
5
179
100
AcDbEntity
8
SYS_METRIC
100
AcDbLine
6
ByLayer
10
309.2862120989
20
148.2933489568
30
0.0000000000
11
309.2862120989
21
150.2933489568
31
0.0000000000
1001
DSTP_XDATA
1002
{
1000
_OWNERHANDLE=000B4CEA50
1002
}
0
LINE
5
17A
100
AcDbEntity
8
SYS_METRIC
100
AcDbLine
6
ByLayer
10
308.2862120989
20
149.2933489568
30
0.0000000000
11
310.2862120989
21
149.2933489568
31
0.0000000000
1001
DSTP_XDATA
1002
{
1000
_OWNERHANDLE=000B4CEA50
1002
}
0
TEXT
5
17B
100
AcDbEntity
8
EL_DEVICE_PIN_NAME
100
AcDbText
6
ByLayer
11
308.2862120989
21
149.2933489568
31
0.0000000000
10
306.5362120989
20
148.0433489568
30
0.0000000000
40
2.5000000000
50
0.0000000000
41
0.7000000000
51
12.0000000000
72
2
7
R2_5
1
4
100
AcDbText
73
2
1001
DSTP_XDATA
1002
{
1000
_TMPL1=@@[NMO_Name]
1000
_OWNERHANDLE=000B4CEA50
1000
STEDefault=TRUE
1002
}
0
INSERT
5
17C
100
AcDbEntity
8
0
370
0
100
AcDbBlockReference
6
ByBlock
2
SCH_THERMO
10
315.2862120989
20
153.2933489568
30
0.0000000000
41
1.0000000000
42
1.0000000000
43
1.0000000000
50
90.0000000000
1001
DSTP_XDATA
1002
{
1000
_OWNERHANDLE=0000000064
1000
MAINFUNCTION=15C
1000
_HANDLE=000B4D3430
1000
_UPGRADE=1
1002
}
0
TEXT
5
17D
100
AcDbEntity
8
SYS_METRIC
100
AcDbText
6
ByLayer
11
311.7862120989
21
153.2933489568
31
0.0000000000
10
307.1195454322
20
152.0433489568
30
0.0000000000
40
2.5000000000
50
0.0000000000
41
0.7000000000
51
12.0000000000
72
2
7
R2_5
1
KK1
100
AcDbText
73
2
1001
DSTP_XDATA
1002
{
1000
_TMPL1=@@[NMO_Name]
1000
_OWNERHANDLE=000B4D3430
1000
STEDefault=TRUE
1002
}
0
INSERT
5
17E
100
AcDbEntity
8
0
100
AcDbBlockReference
6
ByLayer
2
SCH_CONNECTOR_TERMINAL_CC
10
315.2862120989
20
149.2933489568
30
0.0000000000
41
1.0000000000
42
1.0000000000
43
1.0000000000
50
90.0000000000
1001
DSTP_XDATA
1002
{
1000
_OWNERHANDLE=000B4D3430
1000
USES=System
1000
#0=NMO_Name|String|6|Обозначение
1000
#1=NMO_Template|String|6|Шаблон обозначения
1000
#2=PIN_Number|Integer|1|Номер вывода
1000
SCHConnectorRadius=1
1000
_HANDLE=000B4D5030
1000
_UPGRADE=1
1002
}
0
LINE
5
17F
100
AcDbEntity
8
SYS_METRIC
100
AcDbLine
6
ByLayer
10
315.2862120989
20
148.2933489568
30
0.0000000000
11
315.2862120989
21
150.2933489568
31
0.0000000000
1001
DSTP_XDATA
1002
{
1000
_OWNERHANDLE=000B4D5030
1002
}
0
LINE
5
180
100
AcDbEntity
8
SYS_METRIC
100
AcDbLine
6
ByLayer
10
314.2862120989
20
149.2933489568
30
0.0000000000
11
316.2862120989
21
149.2933489568
31
0.0000000000
1001
DSTP_XDATA
1002
{
1000
_OWNERHANDLE=000B4D5030
1002
}
0
TEXT
5
181
100
AcDbEntity
8
EL_DEVICE_PIN_NAME
100
AcDbText
6
ByLayer
11
314.2862120989
21
149.2933489568
31
0.0000000000
10
312.5362120989
20
148.0433489568
30
0.0000000000
40
2.5000000000
50
0.0000000000
41
0.7000000000
51
12.0000000000
72
2
7
R2_5
1
6
100
AcDbText
73
2
1001
DSTP_XDATA
1002
{
1000
_TMPL1=@@[NMO_Name]
1000
_OWNERHANDLE=000B4D5030
1000
STEDefault=TRUE
1002
}
0
INSERT
5
182
100
AcDbEntity
8
0
370
0
100
AcDbBlockReference
6
ByBlock
2
SCH_LAMP
10
401.8368329011
20
160.2877369037
30
0.0000000000
41
1.0000000000
42
1.0000000000
43
1.0000000000
50
0.0000000000
1001
DSTP_XDATA
1002
{
1000
_OWNERHANDLE=0000000064
1000
USES=System
1000
#0=NMO_Name|String|HL1|Обозначение
1000
#1=NMO_BaseName|String|HL|Короткое Имя
1000
#2=NMO_Prefix|String||Префикс
1000
#3=NMO_Suffix|String|1|Суффикс
1000
#4=NMO_Affix|String||Аффикс
1000
#5=NMO_Template|String|@@[NMO_Prefix]@@[NMO_BaseName]@@[NMO_Suffix]@@[NMO_Affix]|Шаблон Обозначения
1000
_HANDLE=000B4DA9F0
1000
_UPGRADE=1
1002
}
0
INSERT
5
183
100
AcDbEntity
8
0
370
0
100
AcDbBlockReference
6
ByBlock
2
SCH_CONNECTOR_TERMINAL
10
398.8368329011
20
160.2877369037
30
0.0000000000
41
1.0000000000
42
1.0000000000
43
1.0000000000
50
0.0000000000
1001
DSTP_XDATA
1002
{
1000
_OWNERHANDLE=000B4DA9F0
1000
USES=System
1000
#0=NMO_Name|String|1|Обозначение
1000
#1=NMO_Template|String|1|Шаблон обозначения
1000
#2=PIN_Number|Integer|1|Номер вывода
1000
SCHConnectorRadius=0.01
1000
_HANDLE=000B4D9E30
1000
_UPGRADE=1
1002
}
0
LINE
5
184
100
AcDbEntity
8
SYS_METRIC
100
AcDbLine
6
ByLayer
10
397.8368329011
20
160.2877369037
30
0.0000000000
11
399.8368329011
21
160.2877369037
31
0.0000000000
1001
DSTP_XDATA
1002
{
1000
_OWNERHANDLE=000B4D9E30
1002
}
0
LINE
5
185
100
AcDbEntity
8
SYS_METRIC
100
AcDbLine
6
ByLayer
10
398.8368329011
20
161.2877369037
30
0.0000000000
11
398.8368329011
21
159.2877369037
31
0.0000000000
1001
DSTP_XDATA
1002
{
1000
_OWNERHANDLE=000B4D9E30
1002
}
0
TEXT
5
186
100
AcDbEntity
8
EL_DEVICE_PIN_NAME
100
AcDbText
6
ByLayer
11
398.3368329011
21
161.2877369037
31
0.0000000000
10
397.1701662344
20
161.2877369037
30
0.0000000000
40
2.5000000000
50
0.0000000000
41
0.7000000000
51
12.0000000000
72
2
7
R2_5
1
1
100
AcDbText
73
0
1001
DSTP_XDATA
1002
{
1000
_TMPL1=@@[NMO_Name]
1000
_OWNERHANDLE=000B4D9E30
1000
STEDefault=TRUE
1002
}
0
INSERT
5
187
100
AcDbEntity
8
0
370
0
100
AcDbBlockReference
6
ByBlock
2
SCH_CONNECTOR_TERMINAL
10
404.8368329011
20
160.2877369037
30
0.0000000000
41
1.0000000000
42
1.0000000000
43
1.0000000000
50
0.0000000000
1001
DSTP_XDATA
1002
{
1000
_OWNERHANDLE=000B4DA9F0
1000
USES=System
1000
#0=NMO_Name|String|2|Обозначение
1000
#1=NMO_Template|String|2|Шаблон обозначения
1000
#2=PIN_Number|Integer|2|Номер вывода
1000
SCHConnectorRadius=0.01
1000
_HANDLE=000B4DF1D0
1000
_UPGRADE=1
1002
}
0
LINE
5
188
100
AcDbEntity
8
SYS_METRIC
100
AcDbLine
6
ByLayer
10
403.8368329011
20
160.2877369037
30
0.0000000000
11
405.8368329011
21
160.2877369037
31
0.0000000000
1001
DSTP_XDATA
1002
{
1000
_OWNERHANDLE=000B4DF1D0
1002
}
0
LINE
5
189
100
AcDbEntity
8
SYS_METRIC
100
AcDbLine
6
ByLayer
10
404.8368329011
20
161.2877369037
30
0.0000000000
11
404.8368329011
21
159.2877369037
31
0.0000000000
1001
DSTP_XDATA
1002
{
1000
_OWNERHANDLE=000B4DF1D0
1002
}
0
TEXT
5
18A
100
AcDbEntity
8
EL_DEVICE_PIN_NAME
100
AcDbText
6
ByLayer
10
405.3368329011
20
161.2877369037
30
0.0000000000
11
405.3368329011
21
161.2877369037
31
0.0000000000
40
2.5000000000
50
0.0000000000
41
0.7000000000
51
12.0000000000
72
0
7
R2_5
1
2
100
AcDbText
73
0
1001
DSTP_XDATA
1002
{
1000
_TMPL1=@@[NMO_Name]
1000
_OWNERHANDLE=000B4DF1D0
1000
STEDefault=TRUE
1002
}
0
TEXT
5
18B
100
AcDbEntity
8
EL_DEVICE_NAME
100
AcDbText
6
ByLayer
11
401.8368329011
21
163.7877369037
31
0.0000000000
10
399.5034995678
20
163.7877369037
30
0.0000000000
40
2.5000000000
50
0.0000000000
41
0.7000000000
51
12.0000000000
72
1
7
R2_5
1
HL1
100
AcDbText
73
0
1001
DSTP_XDATA
1002
{
1000
_TMPL1=@@[NMO_Name]
1000
_OWNERHANDLE=000B4DA9F0
1000
STEDefault=TRUE
1002
}
0
INSERT
5
18C
100
AcDbEntity
8
0
370
0
100
AcDbBlockReference
6
ByBlock
2
SCH_CONNECTOR_TERMINAL_CC
10
303.2862120989
20
186.2933489568
30
0.0000000000
41
1.0000000000
42
1.0000000000
43
1.0000000000
50
0.0000000000
1001
DSTP_XDATA
1002
{
1000
_OWNERHANDLE=0000000064
1000
USES=System
1000
#0=NMO_Name|String|X1:1|Обозначение
1000
#1=NMO_BaseName|String|X|Короткое Имя
1000
#2=NMO_Prefix|String||Префикс
1000
#3=NMO_Suffix|String|1|Суффикс
1000
#4=NMO_Affix|String|1|Аффикс
1000
#5=NMO_Template|String|@@[NMO_Prefix]@@[NMO_BaseName]@@[NMO_Suffix]:@@[NMO_Affix]|Шаблон Обозначения
1000
SCHConnectorRadius=1
1000
_HANDLE=000B4E1670
1000
_UPGRADE=1
1002
}
0
LINE
5
18D
100
AcDbEntity
8
SYS_METRIC
100
AcDbLine
6
ByLayer
10
302.2862120989
20
186.2933489568
30
0.0000000000
11
304.2862120989
21
186.2933489568
31
0.0000000000
1001
DSTP_XDATA
1002
{
1000
_OWNERHANDLE=000B4E1670
1002
}
0
LINE
5
18E
100
AcDbEntity
8
SYS_METRIC
100
AcDbLine
6
ByLayer
10
303.2862120989
20
187.2933489568
30
0.0000000000
11
303.2862120989
21
185.2933489568
31
0.0000000000
1001
DSTP_XDATA
1002
{
1000
_OWNERHANDLE=000B4E1670
1002
}
0
TEXT
5
18F
100
AcDbEntity
8
EL_DEVICE_PIN_NAME
100
AcDbText
6
ByLayer
11
302.2862120989
21
186.2933489568
31
0.0000000000
10
298.5528787656
20
185.2933489568
30
0.0000000000
40
2.0000000000
50
0.0000000000
41
0.7000000000
51
12.0000000000
72
2
7
R2_5
1
X1:1
100
AcDbText
73
2
1001
DSTP_XDATA
1002
{
1000
_TMPL1=@@[NMO_Name]
1000
_OWNERHANDLE=000B4E1670
1000
STEDefault=TRUE
1002
}
0
INSERT
5
190
100
AcDbEntity
8
0
370
0
100
AcDbBlockReference
6
ByBlock
2
SCH_CONNECTOR_TERMINAL
10
303.2862120989
20
181.2933489568
30
0.0000000000
41
1.0000000000
42
1.0000000000
43
1.0000000000
50
0.0000000000
1001
DSTP_XDATA
1002
{
1000
_OWNERHANDLE=0000000064
1000
USES=System
1000
#0=NetName|String|A801|
1000
SCHConnectorRadius=0
1000
SCHConnectorType=CTSetter
1000
_HANDLE=000B4E46F0
1000
_UPGRADE=1
1002
}
0
LINE
5
191
100
AcDbEntity
8
SYS_METRIC
100
AcDbLine
6
ByLayer
10
302.2862120989
20
181.2933489568
30
0.0000000000
11
304.2862120989
21
181.2933489568
31
0.0000000000
1001
DSTP_XDATA
1002
{
1000
_OWNERHANDLE=000B4E46F0
1002
}
0
LINE
5
192
100
AcDbEntity
8
SYS_METRIC
100
AcDbLine
6
ByLayer
10
303.2862120989
20
182.2933489568
30
0.0000000000
11
303.2862120989
21
180.2933489568
31
0.0000000000
1001
DSTP_XDATA
1002
{
1000
_OWNERHANDLE=000B4E46F0
1002
}
0
TEXT
5
193
100
AcDbEntity
8
EL_DEVICE_PIN_NAME
100
AcDbText
6
ByLayer
11
302.7862120989
21
181.2933489568
31
0.0000000000
10
298.2362120989
20
180.2933489568
30
0.0000000000
40
2.0000000000
50
0.0000000000
41
0.7000000000
51
12.0000000000
72
2
7
R2_5
1
A801
100
AcDbText
73
2
1001
DSTP_XDATA
1002
{
1000
_TMPL1=@@[NetName]
1000
_OWNERHANDLE=000B4E46F0
1000
STEDefault=TRUE
1002
}
0
INSERT
5
194
100
AcDbEntity
8
0
370
0
100
AcDbBlockReference
6
ByBlock
2
SCH_CONNECTOR_TERMINAL_CC
10
309.2862120989
20
186.2933489568
30
0.0000000000
41
1.0000000000
42
1.0000000000
43
1.0000000000
50
0.0000000000
1001
DSTP_XDATA
1002
{
1000
_OWNERHANDLE=0000000064
1000
USES=System
1000
#0=NMO_Name|String|X1:2|Обозначение
1000
#1=NMO_BaseName|String|X|Короткое Имя
1000
#2=NMO_Prefix|String||Префикс
1000
#3=NMO_Suffix|String|1|Суффикс
1000
#4=NMO_Affix|String|2|Аффикс
1000
#5=NMO_Template|String|@@[NMO_Prefix]@@[NMO_BaseName]@@[NMO_Suffix]:@@[NMO_Affix]|Шаблон Обозначения
1000
SCHConnectorRadius=1
1000
_HANDLE=000B4E85D0
1000
_UPGRADE=1
1002
}
0
LINE
5
195
100
AcDbEntity
8
SYS_METRIC
100
AcDbLine
6
ByLayer
10
308.2862120989
20
186.2933489568
30
0.0000000000
11
310.2862120989
21
186.2933489568
31
0.0000000000
1001
DSTP_XDATA
1002
{
1000
_OWNERHANDLE=000B4E85D0
1002
}
0
LINE
5
196
100
AcDbEntity
8
SYS_METRIC
100
AcDbLine
6
ByLayer
10
309.2862120989
20
187.2933489568
30
0.0000000000
11
309.2862120989
21
185.2933489568
31
0.0000000000
1001
DSTP_XDATA
1002
{
1000
_OWNERHANDLE=000B4E85D0
1002
}
0
TEXT
5
197
100
AcDbEntity
8
EL_DEVICE_PIN_NAME
100
AcDbText
6
ByLayer
11
308.2862120989
21
186.2933489568
31
0.0000000000
10
304.0862120989
20
185.2933489568
30
0.0000000000
40
2.0000000000
50
0.0000000000
41
0.7000000000
51
12.0000000000
72
2
7
R2_5
1
X1:2
100
AcDbText
73
2
1001
DSTP_XDATA
1002
{
1000
_TMPL1=@@[NMO_Name]
1000
_OWNERHANDLE=000B4E85D0
1000
STEDefault=TRUE
1002
}
0
INSERT
5
198
100
AcDbEntity
8
0
370
0
100
AcDbBlockReference
6
ByBlock
2
SCH_CONNECTOR_TERMINAL_CC
10
315.2862120989
20
186.2933489568
30
0.0000000000
41
1.0000000000
42
1.0000000000
43
1.0000000000
50
0.0000000000
1001
DSTP_XDATA
1002
{
1000
_OWNERHANDLE=0000000064
1000
USES=System
1000
#0=NMO_Name|String|X1:3|Обозначение
1000
#1=NMO_BaseName|String|X|Короткое Имя
1000
#2=NMO_Prefix|String||Префикс
1000
#3=NMO_Suffix|String|1|Суффикс
1000
#4=NMO_Affix|String|3|Аффикс
1000
#5=NMO_Template|String|@@[NMO_Prefix]@@[NMO_BaseName]@@[NMO_Suffix]:@@[NMO_Affix]|Шаблон Обозначения
1000
SCHConnectorRadius=1
1000
_HANDLE=000B4E9E50
1000
_UPGRADE=1
1002
}
0
LINE
5
199
100
AcDbEntity
8
SYS_METRIC
100
AcDbLine
6
ByLayer
10
314.2862120989
20
186.2933489568
30
0.0000000000
11
316.2862120989
21
186.2933489568
31
0.0000000000
1001
DSTP_XDATA
1002
{
1000
_OWNERHANDLE=000B4E9E50
1002
}
0
LINE
5
19A
100
AcDbEntity
8
SYS_METRIC
100
AcDbLine
6
ByLayer
10
315.2862120989
20
187.2933489568
30
0.0000000000
11
315.2862120989
21
185.2933489568
31
0.0000000000
1001
DSTP_XDATA
1002
{
1000
_OWNERHANDLE=000B4E9E50
1002
}
0
TEXT
5
19B
100
AcDbEntity
8
EL_DEVICE_PIN_NAME
100
AcDbText
6
ByLayer
11
314.2862120989
21
186.2933489568
31
0.0000000000
10
309.9695454322
20
185.2933489568
30
0.0000000000
40
2.0000000000
50
0.0000000000
41
0.7000000000
51
12.0000000000
72
2
7
R2_5
1
X1:3
100
AcDbText
73
2
1001
DSTP_XDATA
1002
{
1000
_TMPL1=@@[NMO_Name]
1000
_OWNERHANDLE=000B4E9E50
1000
STEDefault=TRUE
1002
}
0
INSERT
5
19C
100
AcDbEntity
8
0
370
0
100
AcDbBlockReference
6
ByBlock
2
SCH_CONNECTOR_TERMINAL_CC
10
303.2862120989
20
139.2933489568
30
0.0000000000
41
1.0000000000
42
1.0000000000
43
1.0000000000
50
0.0000000000
1001
DSTP_XDATA
1002
{
1000
_OWNERHANDLE=0000000064
1000
USES=System
1000
#0=NMO_Name|String|X2:1|Обозначение
1000
#1=NMO_BaseName|String|X|Короткое Имя
1000
#2=NMO_Prefix|String||Префикс
1000
#3=NMO_Suffix|String|2|Суффикс
1000
#4=NMO_Affix|String|1|Аффикс
1000
#5=NMO_Template|String|@@[NMO_Prefix]@@[NMO_BaseName]@@[NMO_Suffix]:@@[NMO_Affix]|Шаблон Обозначения
1000
SCHConnectorRadius=1
1000
_HANDLE=000B4E1250
1000
_UPGRADE=1
1002
}
0
LINE
5
19D
100
AcDbEntity
8
SYS_METRIC
100
AcDbLine
6
ByLayer
10
302.2862120989
20
139.2933489568
30
0.0000000000
11
304.2862120989
21
139.2933489568
31
0.0000000000
1001
DSTP_XDATA
1002
{
1000
_OWNERHANDLE=000B4E1250
1002
}
0
LINE
5
19E
100
AcDbEntity
8
SYS_METRIC
100
AcDbLine
6
ByLayer
10
303.2862120989
20
140.2933489568
30
0.0000000000
11
303.2862120989
21
138.2933489568
31
0.0000000000
1001
DSTP_XDATA
1002
{
1000
_OWNERHANDLE=000B4E1250
1002
}
0
TEXT
5
19F
100
AcDbEntity
8
EL_DEVICE_PIN_NAME
100
AcDbText
6
ByLayer
11
302.2862120989
21
139.2933489568
31
0.0000000000
10
298.0862120989
20
138.2933489568
30
0.0000000000
40
2.0000000000
50
0.0000000000
41
0.7000000000
51
12.0000000000
72
2
7
R2_5
1
X2:1
100
AcDbText
73
2
1001
DSTP_XDATA
1002
{
1000
_TMPL1=@@[NMO_Name]
1000
_OWNERHANDLE=000B4E1250
1000
STEDefault=TRUE
1002
}
0
INSERT
5
1A0
100
AcDbEntity
8
0
370
0
100
AcDbBlockReference
6
ByBlock
2
SCH_CONNECTOR_TERMINAL_CC
10
309.2862120989
20
139.2933489568
30
0.0000000000
41
1.0000000000
42
1.0000000000
43
1.0000000000
50
0.0000000000
1001
DSTP_XDATA
1002
{
1000
_OWNERHANDLE=0000000064
1000
USES=System
1000
#0=NMO_Name|String|X2:2|Обозначение
1000
#1=NMO_BaseName|String|X|Короткое Имя
1000
#2=NMO_Prefix|String||Префикс
1000
#3=NMO_Suffix|String|2|Суффикс
1000
#4=NMO_Affix|String|2|Аффикс
1000
#5=NMO_Template|String|@@[NMO_Prefix]@@[NMO_BaseName]@@[NMO_Suffix]:@@[NMO_Affix]|Шаблон Обозначения
1000
SCHConnectorRadius=1
1000
_HANDLE=000B4EBDD0
1000
_UPGRADE=1
1002
}
0
LINE
5
1A1
100
AcDbEntity
8
SYS_METRIC
100
AcDbLine
6
ByLayer
10
308.2862120989
20
139.2933489568
30
0.0000000000
11
310.2862120989
21
139.2933489568
31
0.0000000000
1001
DSTP_XDATA
1002
{
1000
_OWNERHANDLE=000B4EBDD0
1002
}
0
LINE
5
1A2
100
AcDbEntity
8
SYS_METRIC
100
AcDbLine
6
ByLayer
10
309.2862120989
20
140.2933489568
30
0.0000000000
11
309.2862120989
21
138.2933489568
31
0.0000000000
1001
DSTP_XDATA
1002
{
1000
_OWNERHANDLE=000B4EBDD0
1002
}
0
TEXT
5
1A3
100
AcDbEntity
8
EL_DEVICE_PIN_NAME
100
AcDbText
6
ByLayer
11
308.2862120989
21
139.2933489568
31
0.0000000000
10
303.6195454322
20
138.2933489568
30
0.0000000000
40
2.0000000000
50
0.0000000000
41
0.7000000000
51
12.0000000000
72
2
7
R2_5
1
X2:2
100
AcDbText
73
2
1001
DSTP_XDATA
1002
{
1000
_TMPL1=@@[NMO_Name]
1000
_OWNERHANDLE=000B4EBDD0
1000
STEDefault=TRUE
1002
}
0
INSERT
5
1A4
100
AcDbEntity
8
0
370
0
100
AcDbBlockReference
6
ByBlock
2
SCH_CONNECTOR_TERMINAL_CC
10
315.2862120989
20
139.2933489568
30
0.0000000000
41
1.0000000000
42
1.0000000000
43
1.0000000000
50
0.0000000000
1001
DSTP_XDATA
1002
{
1000
_OWNERHANDLE=0000000064
1000
USES=System
1000
#0=NMO_Name|String|X2:3|Обозначение
1000
#1=NMO_BaseName|String|X|Короткое Имя
1000
#2=NMO_Prefix|String||Префикс
1000
#3=NMO_Suffix|String|2|Суффикс
1000
#4=NMO_Affix|String|3|Аффикс
1000
#5=NMO_Template|String|@@[NMO_Prefix]@@[NMO_BaseName]@@[NMO_Suffix]:@@[NMO_Affix]|Шаблон Обозначения
1000
SCHConnectorRadius=1
1000
_HANDLE=000B4F00D0
1000
_UPGRADE=1
1002
}
0
LINE
5
1A5
100
AcDbEntity
8
SYS_METRIC
100
AcDbLine
6
ByLayer
10
314.2862120989
20
139.2933489568
30
0.0000000000
11
316.2862120989
21
139.2933489568
31
0.0000000000
1001
DSTP_XDATA
1002
{
1000
_OWNERHANDLE=000B4F00D0
1002
}
0
LINE
5
1A6
100
AcDbEntity
8
SYS_METRIC
100
AcDbLine
6
ByLayer
10
315.2862120989
20
140.2933489568
30
0.0000000000
11
315.2862120989
21
138.2933489568
31
0.0000000000
1001
DSTP_XDATA
1002
{
1000
_OWNERHANDLE=000B4F00D0
1002
}
0
TEXT
5
1A7
100
AcDbEntity
8
EL_DEVICE_PIN_NAME
100
AcDbText
6
ByLayer
11
314.2862120989
21
139.2933489568
31
0.0000000000
10
309.5028787656
20
138.2933489568
30
0.0000000000
40
2.0000000000
50
0.0000000000
41
0.7000000000
51
12.0000000000
72
2
7
R2_5
1
X2:3
100
AcDbText
73
2
1001
DSTP_XDATA
1002
{
1000
_TMPL1=@@[NMO_Name]
1000
_OWNERHANDLE=000B4F00D0
1000
STEDefault=TRUE
1002
}
0
INSERT
5
1A8
100
AcDbEntity
8
0
370
0
100
AcDbBlockReference
6
ByBlock
2
SCH_CONNECTOR_TERMINAL_CC
10
333.2862120989
20
186.2933489568
30
0.0000000000
41
1.0000000000
42
1.0000000000
43
1.0000000000
50
0.0000000000
1001
DSTP_XDATA
1002
{
1000
_OWNERHANDLE=0000000064
1000
USES=System
1000
#0=NMO_Name|String|X1:5|Обозначение
1000
#1=NMO_BaseName|String|X|Короткое Имя
1000
#2=NMO_Prefix|String||Префикс
1000
#3=NMO_Suffix|String|1|Суффикс
1000
#4=NMO_Affix|String|5|Аффикс
1000
#5=NMO_Template|String|@@[NMO_Prefix]@@[NMO_BaseName]@@[NMO_Suffix]:@@[NMO_Affix]|Шаблон Обозначения
1000
SCHConnectorRadius=1
1000
_HANDLE=000B4F88B0
1000
_UPGRADE=1
1002
}
0
LINE
5
1A9
100
AcDbEntity
8
SYS_METRIC
100
AcDbLine
6
ByLayer
10
332.2862120989
20
186.2933489568
30
0.0000000000
11
334.2862120989
21
186.2933489568
31
0.0000000000
1001
DSTP_XDATA
1002
{
1000
_OWNERHANDLE=000B4F88B0
1002
}
0
LINE
5
1AA
100
AcDbEntity
8
SYS_METRIC
100
AcDbLine
6
ByLayer
10
333.2862120989
20
187.2933489568
30
0.0000000000
11
333.2862120989
21
185.2933489568
31
0.0000000000
1001
DSTP_XDATA
1002
{
1000
_OWNERHANDLE=000B4F88B0
1002
}
0
TEXT
5
1AB
100
AcDbEntity
8
EL_DEVICE_PIN_NAME
100
AcDbText
6
ByLayer
11
332.2862120989
21
186.2933489568
31
0.0000000000
10
328.0862120989
20
185.2933489568
30
0.0000000000
40
2.0000000000
50
0.0000000000
41
0.7000000000
51
12.0000000000
72
2
7
R2_5
1
X1:5
100
AcDbText
73
2
1001
DSTP_XDATA
1002
{
1000
_TMPL1=@@[NMO_Name]
1000
_OWNERHANDLE=000B4F88B0
1000
STEDefault=TRUE
1002
}
0
INSERT
5
1AC
100
AcDbEntity
8
0
370
0
100
AcDbBlockReference
6
ByBlock
2
SCH_CONNECTOR_TERMINAL_CC
10
327.2862120989
20
186.2933489568
30
0.0000000000
41
1.0000000000
42
1.0000000000
43
1.0000000000
50
0.0000000000
1001
DSTP_XDATA
1002
{
1000
_OWNERHANDLE=0000000064
1000
USES=System
1000
#0=NMO_Name|String|X1:4|Обозначение
1000
#1=NMO_BaseName|String|X|Короткое Имя
1000
#2=NMO_Prefix|String||Префикс
1000
#3=NMO_Suffix|String|1|Суффикс
1000
#4=NMO_Affix|String|4|Аффикс
1000
#5=NMO_Template|String|@@[NMO_Prefix]@@[NMO_BaseName]@@[NMO_Suffix]:@@[NMO_Affix]|Шаблон Обозначения
1000
SCHConnectorRadius=1
1000
_HANDLE=000B4FE170
1000
_UPGRADE=1
1002
}
0
LINE
5
1AD
100
AcDbEntity
8
SYS_METRIC
100
AcDbLine
6
ByLayer
10
326.2862120989
20
186.2933489568
30
0.0000000000
11
328.2862120989
21
186.2933489568
31
0.0000000000
1001
DSTP_XDATA
1002
{
1000
_OWNERHANDLE=000B4FE170
1002
}
0
LINE
5
1AE
100
AcDbEntity
8
SYS_METRIC
100
AcDbLine
6
ByLayer
10
327.2862120989
20
187.2933489568
30
0.0000000000
11
327.2862120989
21
185.2933489568
31
0.0000000000
1001
DSTP_XDATA
1002
{
1000
_OWNERHANDLE=000B4FE170
1002
}
0
TEXT
5
1AF
100
AcDbEntity
8
EL_DEVICE_PIN_NAME
100
AcDbText
6
ByLayer
11
326.2862120989
21
186.2933489568
31
0.0000000000
10
322.0862120989
20
185.2933489568
30
0.0000000000
40
2.0000000000
50
0.0000000000
41
0.7000000000
51
12.0000000000
72
2
7
R2_5
1
X1:4
100
AcDbText
73
2
1001
DSTP_XDATA
1002
{
1000
_TMPL1=@@[NMO_Name]
1000
_OWNERHANDLE=000B4FE170
1000
STEDefault=TRUE
1002
}
0
LINE
5
1B0
100
AcDbEntity
8
EL_WIRES
370
0
100
AcDbLine
6
ByBlock
10
303.2862120989
20
186.2933489568
30
0.0000000000
11
303.2862120989
21
166.2933489568
31
0.0000000000
1001
DSTP_XDATA
1002
{
1000
_OWNERHANDLE=0000000064
1000
SCHConnection=
1002
}
0
INSERT
5
1B1
100
AcDbEntity
8
0
370
0
100
AcDbBlockReference
6
ByBlock
2
SCH_CONNECTOR_TERMINAL_CC
10
327.2862120989
20
139.2933489568
30
0.0000000000
41
1.0000000000
42
1.0000000000
43
1.0000000000
50
0.0000000000
1001
DSTP_XDATA
1002
{
1000
_OWNERHANDLE=0000000064
1000
USES=System
1000
#0=NMO_Name|String|X2:4|Обозначение
1000
#1=NMO_BaseName|String|X|Короткое Имя
1000
#2=NMO_Prefix|String||Префикс
1000
#3=NMO_Suffix|String|2|Суффикс
1000
#4=NMO_Affix|String|4|Аффикс
1000
#5=NMO_Template|String|@@[NMO_Prefix]@@[NMO_BaseName]@@[NMO_Suffix]:@@[NMO_Affix]|Шаблон Обозначения
1000
SCHConnectorRadius=1
1000
_HANDLE=000B503A30
1000
_UPGRADE=1
1002
}
0
LINE
5
1B2
100
AcDbEntity
8
SYS_METRIC
100
AcDbLine
6
ByLayer
10
326.2862120989
20
139.2933489568
30
0.0000000000
11
328.2862120989
21
139.2933489568
31
0.0000000000
1001
DSTP_XDATA
1002
{
1000
_OWNERHANDLE=000B503A30
1002
}
0
LINE
5
1B3
100
AcDbEntity
8
SYS_METRIC
100
AcDbLine
6
ByLayer
10
327.2862120989
20
140.2933489568
30
0.0000000000
11
327.2862120989
21
138.2933489568
31
0.0000000000
1001
DSTP_XDATA
1002
{
1000
_OWNERHANDLE=000B503A30
1002
}
0
TEXT
5
1B4
100
AcDbEntity
8
EL_DEVICE_PIN_NAME
100
AcDbText
6
ByLayer
11
326.2862120989
21
139.2933489568
31
0.0000000000
10
321.6195454322
20
138.2933489568
30
0.0000000000
40
2.0000000000
50
0.0000000000
41
0.7000000000
51
12.0000000000
72
2
7
R2_5
1
X2:4
100
AcDbText
73
2
1001
DSTP_XDATA
1002
{
1000
_TMPL1=@@[NMO_Name]
1000
_OWNERHANDLE=000B503A30
1000
STEDefault=TRUE
1002
}
0
INSERT
5
1B5
100
AcDbEntity
8
0
370
0
100
AcDbBlockReference
6
ByBlock
2
SCH_CONNECTOR_TERMINAL
10
309.2862120989
20
181.2933489568
30
0.0000000000
41
1.0000000000
42
1.0000000000
43
1.0000000000
50
0.0000000000
1001
DSTP_XDATA
1002
{
1000
_OWNERHANDLE=0000000064
1000
USES=System
1000
#0=NetName|String|B801|
1000
SCHConnectorRadius=0
1000
SCHConnectorType=CTSetter
1000
_HANDLE=000B5092F0
1000
_UPGRADE=1
1002
}
0
LINE
5
1B6
100
AcDbEntity
8
SYS_METRIC
100
AcDbLine
6
ByLayer
10
308.2862120989
20
181.2933489568
30
0.0000000000
11
310.2862120989
21
181.2933489568
31
0.0000000000
1001
DSTP_XDATA
1002
{
1000
_OWNERHANDLE=000B5092F0
1002
}
0
LINE
5
1B7
100
AcDbEntity
8
SYS_METRIC
100
AcDbLine
6
ByLayer
10
309.2862120989
20
182.2933489568
30
0.0000000000
11
309.2862120989
21
180.2933489568
31
0.0000000000
1001
DSTP_XDATA
1002
{
1000
_OWNERHANDLE=000B5092F0
1002
}
0
TEXT
5
1B8
100
AcDbEntity
8
EL_DEVICE_PIN_NAME
100
AcDbText
6
ByLayer
11
308.7862120989
21
181.2933489568
31
0.0000000000
10
304.1195454322
20
180.2933489568
30
0.0000000000
40
2.0000000000
50
0.0000000000
41
0.7000000000
51
12.0000000000
72
2
7
R2_5
1
B801
100
AcDbText
73
2
1001
DSTP_XDATA
1002
{
1000
_TMPL1=@@[NetName]
1000
_OWNERHANDLE=000B5092F0
1000
STEDefault=TRUE
1002
}
0
LINE
5
1B9
100
AcDbEntity
8
EL_WIRES
370
0
100
AcDbLine
6
ByBlock
10
309.2862120989
20
186.2933489568
30
0.0000000000
11
309.2862120989
21
166.2933489568
31
0.0000000000
1001
DSTP_XDATA
1002
{
1000
_OWNERHANDLE=0000000064
1000
SCHConnection=
1002
}
0
INSERT
5
1BA
100
AcDbEntity
8
0
370
0
100
AcDbBlockReference
6
ByBlock
2
SCH_CONNECTOR_TERMINAL
10
315.2862120989
20
181.2933489568
30
0.0000000000
41
1.0000000000
42
1.0000000000
43
1.0000000000
50
0.0000000000
1001
DSTP_XDATA
1002
{
1000
_OWNERHANDLE=0000000064
1000
USES=System
1000
#0=NetName|String|C801|
1000
SCHConnectorRadius=0
1000
SCHConnectorType=CTSetter
1000
_HANDLE=000B512910
1000
_UPGRADE=1
1002
}
0
LINE
5
1BB
100
AcDbEntity
8
SYS_METRIC
100
AcDbLine
6
ByLayer
10
314.2862120989
20
181.2933489568
30
0.0000000000
11
316.2862120989
21
181.2933489568
31
0.0000000000
1001
DSTP_XDATA
1002
{
1000
_OWNERHANDLE=000B512910
1002
}
0
LINE
5
1BC
100
AcDbEntity
8
SYS_METRIC
100
AcDbLine
6
ByLayer
10
315.2862120989
20
182.2933489568
30
0.0000000000
11
315.2862120989
21
180.2933489568
31
0.0000000000
1001
DSTP_XDATA
1002
{
1000
_OWNERHANDLE=000B512910
1002
}
0
TEXT
5
1BD
100
AcDbEntity
8
EL_DEVICE_PIN_NAME
100
AcDbText
6
ByLayer
11
314.7862120989
21
181.2933489568
31
0.0000000000
10
310.1195454322
20
180.2933489568
30
0.0000000000
40
2.0000000000
50
0.0000000000
41
0.7000000000
51
12.0000000000
72
2
7
R2_5
1
C801
100
AcDbText
73
2
1001
DSTP_XDATA
1002
{
1000
_TMPL1=@@[NetName]
1000
_OWNERHANDLE=000B512910
1000
STEDefault=TRUE
1002
}
0
LINE
5
1BE
100
AcDbEntity
8
EL_WIRES
370
0
100
AcDbLine
6
ByBlock
10
315.2862120989
20
186.2933489568
30
0.0000000000
11
315.2862120989
21
166.2933489568
31
0.0000000000
1001
DSTP_XDATA
1002
{
1000
_OWNERHANDLE=0000000064
1000
SCHConnection=
1002
}
0
INSERT
5
1BF
100
AcDbEntity
8
0
370
0
100
AcDbBlockReference
6
ByBlock
2
SCH_CONNECTOR_TERMINAL
10
303.2862120989
20
144.2933489568
30
0.0000000000
41
1.0000000000
42
1.0000000000
43
1.0000000000
50
0.0000000000
1001
DSTP_XDATA
1002
{
1000
_OWNERHANDLE=0000000064
1000
USES=System
1000
#0=NetName|String|A901|
1000
SCHConnectorRadius=0
1000
SCHConnectorType=CTSetter
1000
_HANDLE=000B4E7610
1000
_UPGRADE=1
1002
}
0
LINE
5
1C0
100
AcDbEntity
8
SYS_METRIC
100
AcDbLine
6
ByLayer
10
302.2862120989
20
144.2933489568
30
0.0000000000
11
304.2862120989
21
144.2933489568
31
0.0000000000
1001
DSTP_XDATA
1002
{
1000
_OWNERHANDLE=000B4E7610
1002
}
0
LINE
5
1C1
100
AcDbEntity
8
SYS_METRIC
100
AcDbLine
6
ByLayer
10
303.2862120989
20
145.2933489568
30
0.0000000000
11
303.2862120989
21
143.2933489568
31
0.0000000000
1001
DSTP_XDATA
1002
{
1000
_OWNERHANDLE=000B4E7610
1002
}
0
TEXT
5
1C2
100
AcDbEntity
8
EL_DEVICE_PIN_NAME
100
AcDbText
6
ByLayer
11
302.7862120989
21
144.2933489568
31
0.0000000000
10
298.2362120989
20
143.2933489568
30
0.0000000000
40
2.0000000000
50
0.0000000000
41
0.7000000000
51
12.0000000000
72
2
7
R2_5
1
A901
100
AcDbText
73
2
1001
DSTP_XDATA
1002
{
1000
_TMPL1=@@[NetName]
1000
_OWNERHANDLE=000B4E7610
1000
STEDefault=TRUE
1002
}
0
LINE
5
1C3
100
AcDbEntity
8
EL_WIRES
370
0
100
AcDbLine
6
ByBlock
10
303.2862120989
20
149.2933489568
30
0.0000000000
11
303.2862120989
21
129.2933489568
31
0.0000000000
1001
DSTP_XDATA
1002
{
1000
_OWNERHANDLE=0000000064
1000
SCHConnection=
1002
}
0
INSERT
5
1C4
100
AcDbEntity
8
0
370
0
100
AcDbBlockReference
6
ByBlock
2
SCH_CONNECTOR_TERMINAL
10
309.2862120989
20
144.2933489568
30
0.0000000000
41
1.0000000000
42
1.0000000000
43
1.0000000000
50
0.0000000000
1001
DSTP_XDATA
1002
{
1000
_OWNERHANDLE=0000000064
1000
USES=System
1000
#0=NetName|String|B901|
1000
SCHConnectorRadius=0
1000
SCHConnectorType=CTSetter
1000
_HANDLE=000B51A7D0
1000
_UPGRADE=1
1002
}
0
LINE
5
1C5
100
AcDbEntity
8
SYS_METRIC
100
AcDbLine
6
ByLayer
10
308.2862120989
20
144.2933489568
30
0.0000000000
11
310.2862120989
21
144.2933489568
31
0.0000000000
1001
DSTP_XDATA
1002
{
1000
_OWNERHANDLE=000B51A7D0
1002
}
0
LINE
5
1C6
100
AcDbEntity
8
SYS_METRIC
100
AcDbLine
6
ByLayer
10
309.2862120989
20
145.2933489568
30
0.0000000000
11
309.2862120989
21
143.2933489568
31
0.0000000000
1001
DSTP_XDATA
1002
{
1000
_OWNERHANDLE=000B51A7D0
1002
}
0
TEXT
5
1C7
100
AcDbEntity
8
EL_DEVICE_PIN_NAME
100
AcDbText
6
ByLayer
11
308.7862120989
21
144.2933489568
31
0.0000000000
10
304.1195454322
20
143.2933489568
30
0.0000000000
40
2.0000000000
50
0.0000000000
41
0.7000000000
51
12.0000000000
72
2
7
R2_5
1
B901
100
AcDbText
73
2
1001
DSTP_XDATA
1002
{
1000
_TMPL1=@@[NetName]
1000
_OWNERHANDLE=000B51A7D0
1000
STEDefault=TRUE
1002
}
0
LINE
5
1C8
100
AcDbEntity
8
EL_WIRES
370
0
100
AcDbLine
6
ByBlock
10
309.2862120989
20
149.2933489568
30
0.0000000000
11
309.2862120989
21
129.2933489568
31
0.0000000000
1001
DSTP_XDATA
1002
{
1000
_OWNERHANDLE=0000000064
1000
SCHConnection=
1002
}
0
INSERT
5
1C9
100
AcDbEntity
8
0
370
0
100
AcDbBlockReference
6
ByBlock
2
SCH_CONNECTOR_TERMINAL
10
315.2862120989
20
144.2933489568
30
0.0000000000
41
1.0000000000
42
1.0000000000
43
1.0000000000
50
0.0000000000
1001
DSTP_XDATA
1002
{
1000
_OWNERHANDLE=0000000064
1000
USES=System
1000
#0=NetName|String|C901|
1000
SCHConnectorRadius=0
1000
SCHConnectorType=CTSetter
1000
_HANDLE=000B51C850
1000
_UPGRADE=1
1002
}
0
LINE
5
1CA
100
AcDbEntity
8
SYS_METRIC
100
AcDbLine
6
ByLayer
10
314.2862120989
20
144.2933489568
30
0.0000000000
11
316.2862120989
21
144.2933489568
31
0.0000000000
1001
DSTP_XDATA
1002
{
1000
_OWNERHANDLE=000B51C850
1002
}
0
LINE
5
1CB
100
AcDbEntity
8
SYS_METRIC
100
AcDbLine
6
ByLayer
10
315.2862120989
20
145.2933489568
30
0.0000000000
11
315.2862120989
21
143.2933489568
31
0.0000000000
1001
DSTP_XDATA
1002
{
1000
_OWNERHANDLE=000B51C850
1002
}
0
TEXT
5
1CC
100
AcDbEntity
8
EL_DEVICE_PIN_NAME
100
AcDbText
6
ByLayer
11
314.7862120989
21
144.2933489568
31
0.0000000000
10
310.1195454322
20
143.2933489568
30
0.0000000000
40
2.0000000000
50
0.0000000000
41
0.7000000000
51
12.0000000000
72
2
7
R2_5
1
C901
100
AcDbText
73
2
1001
DSTP_XDATA
1002
{
1000
_TMPL1=@@[NetName]
1000
_OWNERHANDLE=000B51C850
1000
STEDefault=TRUE
1002
}
0
LINE
5
1CD
100
AcDbEntity
8
EL_WIRES
370
0
100
AcDbLine
6
ByBlock
10
315.2862120989
20
149.2933489568
30
0.0000000000
11
315.2862120989
21
129.2933489568
31
0.0000000000
1001
DSTP_XDATA
1002
{
1000
_OWNERHANDLE=0000000064
1000
SCHConnection=
1002
}
0
INSERT
5
1CE
100
AcDbEntity
8
0
370
0
100
AcDbBlockReference
6
ByBlock
2
SCH_CONNECTOR_TERMINAL
10
327.2862120989
20
181.2933489568
30
0.0000000000
41
1.0000000000
42
1.0000000000
43
1.0000000000
50
0.0000000000
1001
DSTP_XDATA
1002
{
1000
_OWNERHANDLE=0000000064
1000
USES=System
1000
#0=NetName|String|PE|
1000
SCHConnectorRadius=0
1000
SCHConnectorType=CTSetter
1000
_HANDLE=000B51C050
1000
_UPGRADE=1
1002
}
0
LINE
5
1CF
100
AcDbEntity
8
SYS_METRIC
100
AcDbLine
6
ByLayer
10
326.2862120989
20
181.2933489568
30
0.0000000000
11
328.2862120989
21
181.2933489568
31
0.0000000000
1001
DSTP_XDATA
1002
{
1000
_OWNERHANDLE=000B51C050
1002
}
0
LINE
5
1D0
100
AcDbEntity
8
SYS_METRIC
100
AcDbLine
6
ByLayer
10
327.2862120989
20
182.2933489568
30
0.0000000000
11
327.2862120989
21
180.2933489568
31
0.0000000000
1001
DSTP_XDATA
1002
{
1000
_OWNERHANDLE=000B51C050
1002
}
0
TEXT
5
1D1
100
AcDbEntity
8
EL_DEVICE_PIN_NAME
100
AcDbText
6
ByLayer
11
326.7862120989
21
181.2933489568
31
0.0000000000
10
323.9862120989
20
180.2933489568
30
0.0000000000
40
2.0000000000
50
0.0000000000
41
0.7000000000
51
12.0000000000
72
2
7
R2_5
1
PE
100
AcDbText
73
2
1001
DSTP_XDATA
1002
{
1000
_TMPL1=@@[NetName]
1000
_OWNERHANDLE=000B51C050
1000
STEDefault=TRUE
1002
}
0
LINE
5
1D2
100
AcDbEntity
8
EL_WIRES
370
0
100
AcDbLine
6
ByBlock
10
327.2862120989
20
186.2933489568
30
0.0000000000
11
327.2862120989
21
129.2933489568
31
0.0000000000
1001
DSTP_XDATA
1002
{
1000
_OWNERHANDLE=0000000064
1000
SCHConnection=
1002
}
0
INSERT
5
1D3
100
AcDbEntity
8
0
370
0
100
AcDbBlockReference
6
ByBlock
2
SCH_CONNECTOR_TERMINAL
10
333.2862120989
20
181.2933489568
30
0.0000000000
41
1.0000000000
42
1.0000000000
43
1.0000000000
50
0.0000000000
1001
DSTP_XDATA
1002
{
1000
_OWNERHANDLE=0000000064
1000
USES=System
1000
#0=NetName|String|N|
1000
SCHConnectorRadius=0
1000
SCHConnectorType=CTSetter
1000
_HANDLE=000B51E0D0
1000
_UPGRADE=1
1002
}
0
LINE
5
1D4
100
AcDbEntity
8
SYS_METRIC
100
AcDbLine
6
ByLayer
10
332.2862120989
20
181.2933489568
30
0.0000000000
11
334.2862120989
21
181.2933489568
31
0.0000000000
1001
DSTP_XDATA
1002
{
1000
_OWNERHANDLE=000B51E0D0
1002
}
0
LINE
5
1D5
100
AcDbEntity
8
SYS_METRIC
100
AcDbLine
6
ByLayer
10
333.2862120989
20
182.2933489568
30
0.0000000000
11
333.2862120989
21
180.2933489568
31
0.0000000000
1001
DSTP_XDATA
1002
{
1000
_OWNERHANDLE=000B51E0D0
1002
}
0
TEXT
5
1D6
100
AcDbEntity
8
EL_DEVICE_PIN_NAME
100
AcDbText
6
ByLayer
11
332.7862120989
21
181.2933489568
31
0.0000000000
10
331.3862120989
20
180.2933489568
30
0.0000000000
40
2.0000000000
50
0.0000000000
41
0.7000000000
51
12.0000000000
72
2
7
R2_5
1
N
100
AcDbText
73
2
1001
DSTP_XDATA
1002
{
1000
_TMPL1=@@[NetName]
1000
_OWNERHANDLE=000B51E0D0
1000
STEDefault=TRUE
1002
}
0
LINE
5
1D7
100
AcDbEntity
8
EL_WIRES
370
0
100
AcDbLine
6
ByBlock
10
333.2862120989
20
186.2933489568
30
0.0000000000
11
333.2862120989
21
180.2933489568
31
0.0000000000
1001
DSTP_XDATA
1002
{
1000
_OWNERHANDLE=0000000064
1000
SCHConnection=
1002
}
0
LINE
5
1D8
100
AcDbEntity
8
EL_WIRES
370
0
100
AcDbLine
6
ByBlock
10
333.2862120989
20
180.2933489568
30
0.0000000000
11
410.8368329011
21
180.2933489568
31
0.0000000000
1001
DSTP_XDATA
1002
{
1000
_OWNERHANDLE=0000000064
1000
SCHConnection=
1002
}
0
LINE
5
1D9
100
AcDbEntity
8
EL_WIRES
370
0
100
AcDbLine
6
ByBlock
10
410.8368329011
20
180.2933489568
30
0.0000000000
11
410.8368329011
21
160.2877369037
31
0.0000000000
1001
DSTP_XDATA
1002
{
1000
_OWNERHANDLE=0000000064
1000
SCHConnection=
1002
}
0
LINE
5
1DA
100
AcDbEntity
8
EL_WIRES
370
0
100
AcDbLine
6
ByBlock
10
303.2862120989
20
171.2933489568
30
0.0000000000
11
337.8368329011
21
171.2933489568
31
0.0000000000
1001
DSTP_XDATA
1002
{
1000
_OWNERHANDLE=0000000064
1000
SCHConnection=
1002
}
0
LINE
5
1DB
100
AcDbEntity
8
EL_WIRES
370
0
100
AcDbLine
6
ByBlock
10
347.8368329011
20
171.2933489568
30
0.0000000000
11
357.8368329011
21
171.2933489568
31
0.0000000000
1001
DSTP_XDATA
1002
{
1000
_OWNERHANDLE=0000000064
1000
SCHConnection=
1002
}
0
LINE
5
1DC
100
AcDbEntity
8
EL_WIRES
370
0
100
AcDbLine
6
ByBlock
10
367.8368329011
20
171.2933489568
30
0.0000000000
11
377.8368329011
21
171.2933489568
31
0.0000000000
1001
DSTP_XDATA
1002
{
1000
_OWNERHANDLE=0000000064
1000
SCHConnection=
1002
}
0
LINE
5
1DD
100
AcDbEntity
8
EL_WIRES
370
0
100
AcDbLine
6
ByBlock
10
387.8368329011
20
171.2933489568
30
0.0000000000
11
397.8368329011
21
171.2933489568
31
0.0000000000
1001
DSTP_XDATA
1002
{
1000
_OWNERHANDLE=0000000064
1000
SCHConnection=
1002
}
0
LINE
5
1DE
100
AcDbEntity
8
EL_WIRES
370
0
100
AcDbLine
6
ByBlock
10
405.8368329011
20
171.2933489568
30
0.0000000000
11
410.8368329011
21
171.2933489568
31
0.0000000000
1001
DSTP_XDATA
1002
{
1000
_OWNERHANDLE=0000000064
1000
SCHConnection=
1002
}
0
LINE
5
1DF
100
AcDbEntity
8
EL_WIRES
370
0
100
AcDbLine
6
ByBlock
10
404.8368329011
20
160.2877369037
30
0.0000000000
11
410.8368329011
21
160.2877369037
31
0.0000000000
1001
DSTP_XDATA
1002
{
1000
_OWNERHANDLE=0000000064
1000
SCHConnection=
1002
}
0
LINE
5
1E0
100
AcDbEntity
8
EL_WIRES
370
0
100
AcDbLine
6
ByBlock
10
392.8368329011
20
160.2877369037
30
0.0000000000
11
398.8368329011
21
160.2877369037
31
0.0000000000
1001
DSTP_XDATA
1002
{
1000
_OWNERHANDLE=0000000064
1000
SCHConnection=
1002
}
0
LINE
5
1E1
100
AcDbEntity
8
EL_WIRES
370
0
100
AcDbLine
6
ByBlock
10
392.8368329011
20
171.2933489568
30
0.0000000000
11
392.8368329011
21
160.2877369037
31
0.0000000000
1001
DSTP_XDATA
1002
{
1000
_OWNERHANDLE=0000000064
1000
SCHConnection=
1002
}
0
LINE
5
1E2
100
AcDbEntity
8
EL_WIRES
370
0
100
AcDbLine
6
ByBlock
10
367.8368329011
20
161.2933489568
30
0.0000000000
11
372.8368329011
21
161.2933489568
31
0.0000000000
1001
DSTP_XDATA
1002
{
1000
_OWNERHANDLE=0000000064
1000
SCHConnection=
1002
}
0
LINE
5
1E3
100
AcDbEntity
8
EL_WIRES
370
0
100
AcDbLine
6
ByBlock
10
372.8368329011
20
171.2933489568
30
0.0000000000
11
372.8368329011
21
161.2933489568
31
0.0000000000
1001
DSTP_XDATA
1002
{
1000
_OWNERHANDLE=0000000064
1000
SCHConnection=
1002
}
0
LINE
5
1E4
100
AcDbEntity
8
EL_WIRES
370
0
100
AcDbLine
6
ByBlock
10
352.8368329011
20
161.2933489568
30
0.0000000000
11
357.8368329011
21
161.2933489568
31
0.0000000000
1001
DSTP_XDATA
1002
{
1000
_OWNERHANDLE=0000000064
1000
SCHConnection=
1002
}
0
LINE
5
1E5
100
AcDbEntity
8
EL_WIRES
370
0
100
AcDbLine
6
ByBlock
10
352.8368329011
20
171.2933489568
30
0.0000000000
11
352.8368329011
21
161.2933489568
31
0.0000000000
1001
DSTP_XDATA
1002
{
1000
_OWNERHANDLE=0000000064
1000
SCHConnection=
1002
}
0
INSERT
5
1E6
100
AcDbEntity
8
0
370
0
100
AcDbBlockReference
6
ByBlock
2
SCH_CONNECTOR_TERMINAL
10
351.8368329011
20
171.2933489568
30
0.0000000000
41
1.0000000000
42
1.0000000000
43
1.0000000000
50
0.0000000000
1001
DSTP_XDATA
1002
{
1000
_OWNERHANDLE=0000000064
1000
USES=System
1000
#0=NetName|String|1|
1000
SCHConnectorRadius=0
1000
SCHConnectorType=CTSetter
1000
_HANDLE=000B522190
1000
_UPGRADE=1
1002
}
0
LINE
5
1E7
100
AcDbEntity
8
SYS_METRIC
100
AcDbLine
6
ByLayer
10
350.8368329011
20
171.2933489568
30
0.0000000000
11
352.8368329011
21
171.2933489568
31
0.0000000000
1001
DSTP_XDATA
1002
{
1000
_OWNERHANDLE=000B522190
1002
}
0
LINE
5
1E8
100
AcDbEntity
8
SYS_METRIC
100
AcDbLine
6
ByLayer
10
351.8368329011
20
172.2933489568
30
0.0000000000
11
351.8368329011
21
170.2933489568
31
0.0000000000
1001
DSTP_XDATA
1002
{
1000
_OWNERHANDLE=000B522190
1002
}
0
TEXT
5
1E9
100
AcDbEntity
8
EL_DEVICE_PIN_NAME
100
AcDbText
6
ByLayer
11
351.8368329011
21
171.7933489568
31
0.0000000000
10
351.3701662344
20
171.7933489568
30
0.0000000000
40
2.0000000000
50
0.0000000000
41
0.7000000000
51
12.0000000000
72
1
7
R2_5
1
1
100
AcDbText
73
0
1001
DSTP_XDATA
1002
{
1000
_TMPL1=@@[NetName]
1000
_OWNERHANDLE=000B522190
1000
STEDefault=TRUE
1002
}
0
INSERT
5
1EA
100
AcDbEntity
8
0
370
0
100
AcDbBlockReference
6
ByBlock
2
SCH_CONNECTOR_TERMINAL
10
371.8368329011
20
171.2933489568
30
0.0000000000
41
1.0000000000
42
1.0000000000
43
1.0000000000
50
0.0000000000
1001
DSTP_XDATA
1002
{
1000
_OWNERHANDLE=0000000064
1000
USES=System
1000
#0=NetName|String|2|
1000
SCHConnectorRadius=0
1000
SCHConnectorType=CTSetter
1000
_HANDLE=000B524210
1000
_UPGRADE=1
1002
}
0
LINE
5
1EB
100
AcDbEntity
8
SYS_METRIC
100
AcDbLine
6
ByLayer
10
370.8368329011
20
171.2933489568
30
0.0000000000
11
372.8368329011
21
171.2933489568
31
0.0000000000
1001
DSTP_XDATA
1002
{
1000
_OWNERHANDLE=000B524210
1002
}
0
LINE
5
1EC
100
AcDbEntity
8
SYS_METRIC
100
AcDbLine
6
ByLayer
10
371.8368329011
20
172.2933489568
30
0.0000000000
11
371.8368329011
21
170.2933489568
31
0.0000000000
1001
DSTP_XDATA
1002
{
1000
_OWNERHANDLE=000B524210
1002
}
0
TEXT
5
1ED
100
AcDbEntity
8
EL_DEVICE_PIN_NAME
100
AcDbText
6
ByLayer
11
371.8368329011
21
171.7933489568
31
0.0000000000
10
371.1368329011
20
171.7933489568
30
0.0000000000
40
2.0000000000
50
0.0000000000
41
0.7000000000
51
12.0000000000
72
1
7
R2_5
1
2
100
AcDbText
73
0
1001
DSTP_XDATA
1002
{
1000
_TMPL1=@@[NetName]
1000
_OWNERHANDLE=000B524210
1000
STEDefault=TRUE
1002
}
0
INSERT
5
1EE
100
AcDbEntity
8
0
370
0
100
AcDbBlockReference
6
ByBlock
2
SCH_CONNECTOR_TERMINAL
10
391.8368329011
20
171.2933489568
30
0.0000000000
41
1.0000000000
42
1.0000000000
43
1.0000000000
50
0.0000000000
1001
DSTP_XDATA
1002
{
1000
_OWNERHANDLE=0000000064
1000
USES=System
1000
#0=NetName|String|3|
1000
SCHConnectorRadius=0
1000
SCHConnectorType=CTSetter
1000
_HANDLE=000B523A10
1000
_UPGRADE=1
1002
}
0
LINE
5
1EF
100
AcDbEntity
8
SYS_METRIC
100
AcDbLine
6
ByLayer
10
390.8368329011
20
171.2933489568
30
0.0000000000
11
392.8368329011
21
171.2933489568
31
0.0000000000
1001
DSTP_XDATA
1002
{
1000
_OWNERHANDLE=000B523A10
1002
}
0
LINE
5
1F0
100
AcDbEntity
8
SYS_METRIC
100
AcDbLine
6
ByLayer
10
391.8368329011
20
172.2933489568
30
0.0000000000
11
391.8368329011
21
170.2933489568
31
0.0000000000
1001
DSTP_XDATA
1002
{
1000
_OWNERHANDLE=000B523A10
1002
}
0
TEXT
5
1F1
100
AcDbEntity
8
EL_DEVICE_PIN_NAME
100
AcDbText
6
ByLayer
11
391.8368329011
21
171.7933489568
31
0.0000000000
10
391.0784995678
20
171.7933489568
30
0.0000000000
40
2.0000000000
50
0.0000000000
41
0.7000000000
51
12.0000000000
72
1
7
R2_5
1
3
100
AcDbText
73
0
1001
DSTP_XDATA
1002
{
1000
_TMPL1=@@[NetName]
1000
_OWNERHANDLE=000B523A10
1000
STEDefault=TRUE
1002
}
0
ENDSEC
0
SECTION
2
OBJECTS
0
DICTIONARY
5
1F2
330
3
100
AcDbDictionary
281
1
3
ACAD_GROUP
350
1F3
0
DICTIONARY
5
1F3
330
1F2
100
AcDbDictionary
281
1
0
ENDSEC
0
EOF
