0
SECTION
2
HEADER
9
$ACADVER
1
AC1015
9
$ACADMAINTVER
70
20
9
$DWGCODEPAGE
3
ANSI_1251
9
$INSBASE
10
0.0
20
0.0
30
0.0
9
$EXTMIN
10
140.9759676061104
20
20.78384260612357
30
-4.556249999999999
9
$EXTMAX
10
2239.781280550934
20
2630.436136918981
30
2.025000000000061
9
$LIMMIN
10
0.0
20
0.0
9
$LIMMAX
10
420.0
20
297.0
9
$ORTHOMODE
70
0
9
$REGENMODE
70
1
9
$FILLMODE
70
1
9
$QTEXTMODE
70
0
9
$MIRRTEXT
70
0
9
$LTSCALE
40
1
9
$ATTMODE
70
1
9
$TEXTSIZE
40
2.5
9
$TRACEWID
40
1.0
9
$TEXTSTYLE
7
Standard
9
$CLAYER
8
0
9
$CELTYPE
6
ByBlock
9
$CECOLOR
62
256
9
$CELTSCALE
40
1
9
$DISPSILH
70
0
9
$DIMSCALE
40
1.0
9
$DIMASZ
40
2.5
9
$DIMEXO
40
0.625
9
$DIMDLI
40
3.75
9
$DIMRND
40
0.0
9
$DIMDLE
40
0.0
9
$DIMEXE
40
1.25
9
$DIMTP
40
0.0
9
$DIMTM
40
0.0
9
$DIMTXT
40
2.5
9
$DIMCEN
40
2.5
9
$DIMTSZ
40
0.0
9
$DIMTOL
70
0
9
$DIMLIM
70
0
9
$DIMTIH
70
0
9
$DIMTOH
70
0
9
$DIMSE1
70
0
9
$DIMSE2
70
0
9
$DIMTAD
70
1
9
$DIMZIN
70
8
9
$DIMBLK
1

9
$DIMASO
70
1
9
$DIMSHO
70
1
9
$DIMPOST
1

9
$DIMAPOST
1

9
$DIMALT
70
0
9
$DIMALTD
70
3
9
$DIMALTF
40
0.03937007874016
9
$DIMLFAC
40
1.0
9
$DIMTOFL
70
1
9
$DIMTVP
40
0.0
9
$DIMTIX
70
0
9
$DIMSOXD
70
0
9
$DIMSAH
70
0
9
$DIMBLK1
1

9
$DIMBLK2
1

9
$DIMSTYLE
2
ISO-25
9
$DIMCLRD
70
0
9
$DIMCLRE
70
0
9
$DIMCLRT
70
0
9
$DIMTFAC
40
1.0
9
$DIMGAP
40
0.625
9
$DIMJUST
70
0
9
$DIMSD1
70
0
9
$DIMSD2
70
0
9
$DIMTOLJ
70
0
9
$DIMTZIN
70
8
9
$DIMALTZ
70
0
9
$DIMALTTZ
70
0
9
$DIMUPT
70
0
9
$DIMDEC
70
2
9
$DIMTDEC
70
2
9
$DIMALTU
70
2
9
$DIMALTTD
70
3
9
$DIMTXSTY
7
Standard
9
$DIMAUNIT
70
0
9
$DIMADEC
70
0
9
$DIMALTRND
40
0.0
9
$DIMAZIN
70
0
9
$DIMDSEP
70
44
9
$DIMATFIT
70
3
9
$DIMFRAC
70
0
9
$DIMLDRBLK
1

9
$DIMLUNIT
70
2
9
$DIMLWD
70
-2
9
$DIMLWE
70
-2
9
$DIMTMOVE
70
0
9
$LUNITS
70
2
9
$LUPREC
70
4
9
$SKETCHINC
40
1.0
9
$FILLETRAD
40
0.0
9
$AUNITS
70
0
9
$AUPREC
70
0
9
$MENU
1
.
9
$ELEVATION
40
0.0
9
$PELEVATION
40
0.0
9
$THICKNESS
40
0.0
9
$LIMCHECK
70
0
9
$CHAMFERA
40
0.0
9
$CHAMFERB
40
0.0
9
$CHAMFERC
40
0.0
9
$CHAMFERD
40
0.0
9
$SKPOLY
70
0
9
$TDCREATE
40
2459754.940474538
9
$TDUCREATE
40
2459754.732141204
9
$TDUPDATE
40
2459754.959120370
9
$TDUUPDATE
40
2459754.750787037
9
$TDINDWG
40
0.0095717593
9
$TDUSRTIMER
40
0.0095717593
9
$USRTIMER
70
1
9
$ANGBASE
50
0
9
$ANGDIR
70
0
9
$PDMODE
70
0
9
$PDSIZE
40
0.0
9
$PLINEWID
40
0.0
9
$SPLFRAME
70
0
9
$SPLINETYPE
70
6
9
$SPLINESEGS
70
8
9
$HANDSEED
5
1000000EF
9
$SURFTAB1
70
6
9
$SURFTAB2
70
6
9
$SURFTYPE
70
6
9
$SURFU
70
6
9
$SURFV
70
6
9
$UCSBASE
2

9
$UCSNAME
2

9
$UCSORG
10
0.0
20
0.0
30
0.0
9
$UCSXDIR
10
1.0
20
0.0
30
0.0
9
$UCSYDIR
10
0.0
20
1.0
30
0.0
9
$UCSORTHOREF
2

9
$UCSORTHOVIEW
70
0
9
$UCSORGTOP
10
0.0
20
0.0
30
0.0
9
$UCSORGBOTTOM
10
0.0
20
0.0
30
0.0
9
$UCSORGLEFT
10
0.0
20
0.0
30
0.0
9
$UCSORGRIGHT
10
0.0
20
0.0
30
0.0
9
$UCSORGFRONT
10
0.0
20
0.0
30
0.0
9
$UCSORGBACK
10
0.0
20
0.0
30
0.0
9
$PUCSBASE
2

9
$PUCSNAME
2

9
$PUCSORG
10
0.0
20
0.0
30
0.0
9
$PUCSXDIR
10
1.0
20
0.0
30
0.0
9
$PUCSYDIR
10
0.0
20
1.0
30
0.0
9
$PUCSORTHOREF
2

9
$PUCSORTHOVIEW
70
0
9
$PUCSORGTOP
10
0.0
20
0.0
30
0.0
9
$PUCSORGBOTTOM
10
0.0
20
0.0
30
0.0
9
$PUCSORGLEFT
10
0.0
20
0.0
30
0.0
9
$PUCSORGRIGHT
10
0.0
20
0.0
30
0.0
9
$PUCSORGFRONT
10
0.0
20
0.0
30
0.0
9
$PUCSORGBACK
10
0.0
20
0.0
30
0.0
9
$USERI1
70
0
9
$USERI2
70
0
9
$USERI3
70
0
9
$USERI4
70
0
9
$USERI5
70
0
9
$USERR1
40
0.0
9
$USERR2
40
0.0
9
$USERR3
40
0.0
9
$USERR4
40
0.0
9
$USERR5
40
0.0
9
$WORLDVIEW
70
1
9
$SHADEDGE
70
3
9
$SHADEDIF
70
70
9
$TILEMODE
70
1
9
$MAXACTVP
70
64
9
$PINSBASE
10
0.0
20
0.0
30
0.0
9
$PLIMCHECK
70
0
9
$PEXTMIN
10
0.0
20
0.0
30
0.0
9
$PEXTMAX
10
0.0
20
0.0
30
0.0
9
$PLIMMIN
10
0.0
20
0.0
9
$PLIMMAX
10
12.0
20
9.0
9
$UNITMODE
70
0
9
$VISRETAIN
70
1
9
$PLINEGEN
70
0
9
$PSLTSCALE
70
1
9
$TREEDEPTH
70
3020
9
$CMLSTYLE
2
Standard
9
$CMLJUST
70
0
9
$CMLSCALE
40
20.0
9
$PROXYGRAPHICS
70
1
9
$MEASUREMENT
70
1
9
$CELWEIGHT
370
0
9
$ENDCAPS
280
0
9
$JOINSTYLE
280
0
9
$LWDISPLAY
290
0
9
$INSUNITS
70
0
9
$HYPERLINKBASE
1

9
$STYLESHEET
1

9
$XEDIT
290
1
9
$CEPSNTYPE
380
0
9
$PSTYLEMODE
290
1
9
$FINGERPRINTGUID
2
{125D6104-8854-F44D-B0E3-14664475AFC4}
9
$VERSIONGUID
2
{900CD5F9-5E65-C842-8ED3-6860838CE9DD}
9
$EXTNAMES
290
1
9
$PSVPSCALE
40
0.0
9
$OLESTARTUP
290
0
0
ENDSEC
0
SECTION
2
TABLES
0
TABLE
2
VPORT
5
5
330
0
100
AcDbSymbolTable
70
1
0
VPORT
5
6
330
5
100
AcDbSymbolTableRecord
100
AcDbViewportTableRecord
2
*Active
70
0
10
0.0
20
0.0
11
1.0
21
1.0
12
29.7606334060757
22
198.946347557305
13
0
23
0
14
10
24
10
15
10
25
10
16
0
26
0
36
1
17
0
27
0
37
0
40
106.371999984247
41
1.92481203007519
42
50.0
43
0.0
44
0.0
50
0.0
51
0.0
71
0
72
1000
73
1
74
3
75
0
76
0
77
0
78
0
281
0
65
1
110
0.0
120
0.0
130
0.0
111
1.0
121
0.0
131
0.0
112
0.0
122
1.0
132
0.0
79
0
146
0.0
0
ENDTAB
0
TABLE
2
LTYPE
5
7
330
3
100
AcDbSymbolTable
70
1
0
LTYPE
5
B
330
B
100
AcDbSymbolTableRecord
100
AcDbLinetypeTableRecord
2
Continuous
70
0
3
Solid line
72
65
73
0
40
0
0
LTYPE
5
C
330
C
100
AcDbSymbolTableRecord
100
AcDbLinetypeTableRecord
2
ByLayer
70
0
3

72
65
73
0
40
0
0
LTYPE
5
D
330
D
100
AcDbSymbolTableRecord
100
AcDbLinetypeTableRecord
2
ByBlock
70
0
3

72
65
73
0
40
0
0
LTYPE
5
E
330
E
100
AcDbSymbolTableRecord
100
AcDbLinetypeTableRecord
2
ACAD_ISO02W100
70
0
3
ISO штриховая __ __ __ __ __ __ __ __ __ __ __ 
72
65
73
2
40
15
49
12
74
0
49
-3
74
0
0
ENDTAB
0
TABLE
2
LAYER
5
F
330
3
100
AcDbSymbolTable
70
1
0
LAYER
5
12
100
AcDbSymbolTableRecord
100
AcDbLayerTableRecord
2
0
70
0
62
7
6
Continuous
290
1
370
-3
390
11
0
LAYER
5
13
100
AcDbSymbolTableRecord
100
AcDbLayerTableRecord
2
SYS_METRIC
70
0
62
-7
6
Continuous
290
0
370
-3
390
11
0
LAYER
5
14
100
AcDbSymbolTableRecord
100
AcDbLayerTableRecord
2
!VSCHEMES
70
0
62
1
6
Continuous
290
1
370
25
390
11
0
LAYER
5
15
100
AcDbSymbolTableRecord
100
AcDbLayerTableRecord
2
!VSCHEMES_DISABLED
70
0
62
-5
6
Continuous
290
0
370
25
390
11
0
ENDTAB
0
TABLE
2
STYLE
5
16
330
3
100
AcDbSymbolTable
70
1
0
STYLE
5
18
330
16
100
AcDbSymbolTableRecord
100
AcDbTextStyleTableRecord
2
Standard
70
0
40
0
41
1
50
0
71
0
42
2.5
3
txt
4

0
STYLE
5
19
330
16
100
AcDbSymbolTableRecord
100
AcDbTextStyleTableRecord
2
!VTEXT
70
0
40
2.2
41
0.9
50
0
71
0
42
2.5
3
calibri.ttf
4

1001
ACAD
1000
Calibri
0
STYLE
5
1A
330
16
100
AcDbSymbolTableRecord
100
AcDbTextStyleTableRecord
2
Annotative
70
0
40
0
41
1
50
0
71
0
42
2.5
3
txt
4

1001
ACAD
1000
AnnotativeData
0
ENDTAB
0
TABLE
2
VIEW
5
1B
330
3
100
AcDbSymbolTable
70
0
0
ENDTAB
0
TABLE
2
UCS
5
1C
330
3
100
AcDbSymbolTable
70
0
0
ENDTAB
0
TABLE
2
APPID
5
1D
330
3
100
AcDbSymbolTable
70
1
0
APPID
5
20
100
AcDbSymbolTableRecord
100
AcDbRegAppTableRecord
2
ACAD
70
0
0
APPID
5
21
100
AcDbSymbolTableRecord
100
AcDbRegAppTableRecord
2
ACAD_PSEXT
70
0
0
APPID
5
22
100
AcDbSymbolTableRecord
100
AcDbRegAppTableRecord
2
AcAecLayerStandard
70
0
0
APPID
5
23
100
AcDbSymbolTableRecord
100
AcDbRegAppTableRecord
2
DSTP_XDATA
70
0
0
APPID
5
24
100
AcDbSymbolTableRecord
100
AcDbRegAppTableRecord
2
ACAD_DSTYLE_DIM_LINETYPE
70
0
0
APPID
5
25
100
AcDbSymbolTableRecord
100
AcDbRegAppTableRecord
2
ACAD_DSTYLE_DIM_EXT1_LINETYPE
70
0
0
APPID
5
26
100
AcDbSymbolTableRecord
100
AcDbRegAppTableRecord
2
ACAD_DSTYLE_DIM_EXT2_LINETYPE
70
0
0
ENDTAB
0
TABLE
2
DIMSTYLE
5
27
330
3
100
AcDbSymbolTable
70
1
100
AcDbDimStyleTable
71
0
0
DIMSTYLE
105
29
330
27
100
AcDbSymbolTableRecord
100
AcDbDimStyleTableRecord
2
ISO-25
3

70
0
40
0
44
1.25
42
0.625
46
0
41
2.5
173
0
140
2.5
141
2.5
73
0
74
0
147
0.625
77
1
144
1
271
2
45
0
277
2
278
44
279
0
371
-2
372
-2
176
0
177
0
178
0
340
18
0
DIMSTYLE
105
2A
330
27
100
AcDbSymbolTableRecord
100
AcDbDimStyleTableRecord
2
Standard
3

70
0
40
0
44
0.18
42
0.0625
46
0
41
0.18
173
0
140
0.18
141
0.09
73
1
74
1
147
0.625
77
0
144
1
271
4
45
0
277
2
278
46
279
0
371
-2
372
-2
176
0
177
0
178
0
340
18
0
DIMSTYLE
105
2B
330
27
100
AcDbSymbolTableRecord
100
AcDbDimStyleTableRecord
2
Annotative
3

70
0
40
0
44
0.18
42
0.0625
46
0
41
0.18
173
0
140
0.18
141
0.09
73
1
74
1
147
0.625
77
0
144
1
271
4
45
0
277
2
278
46
279
0
371
-2
372
-2
176
0
177
0
178
0
340
18
0
ENDTAB
0
TABLE
2
BLOCK_RECORD
5
2C
330
3
100
AcDbSymbolTable
70
1
0
BLOCK_RECORD
5
2D
330
2C
100
AcDbSymbolTableRecord
100
AcDbBlockTableRecord
2
*Model_Space
340
2E
0
BLOCK_RECORD
5
2F
330
2C
100
AcDbSymbolTableRecord
100
AcDbBlockTableRecord
2
*Paper_Space
340
30
0
BLOCK_RECORD
5
31
100
AcDbSymbolTableRecord
100
AcDbBlockTableRecord
2
VSCHEMA_PANEL_SIDE
0
BLOCK_RECORD
5
32
100
AcDbSymbolTableRecord
100
AcDbBlockTableRecord
2
VSCHEMA_PANEL_OUT
0
BLOCK_RECORD
5
33
100
AcDbSymbolTableRecord
100
AcDbBlockTableRecord
2
DEVICE_VSCHEMA_PANEL_OUT
0
BLOCK_RECORD
5
34
100
AcDbSymbolTableRecord
100
AcDbBlockTableRecord
2
VSCHEMA_PANEL_IN
0
BLOCK_RECORD
5
35
100
AcDbSymbolTableRecord
100
AcDbBlockTableRecord
2
DEVICE_VSCHEMA_PANEL_IN
0
ENDTAB
0
ENDSEC
0
SECTION
2
BLOCKS
0
BLOCK
5
36
330
2D
100
AcDbEntity
8
0
100
AcDbBlockBegin
2
*Model_Space
70
0
10
0.0
20
0.0
30
0.0
3
*Model_Space
1

0
ENDBLK
5
37
330
2D
100
AcDbEntity
8
0
100
AcDbBlockEnd
0
BLOCK
5
38
330
2F
100
AcDbEntity
67
1
8
0
100
AcDbBlockBegin
2
*Paper_Space
70
0
10
0.0
20
0.0
30
0.0
3
*Paper_Space
1

0
ENDBLK
5
39
330
2F
100
AcDbEntity
67
1
8
0
100
AcDbBlockEnd
0
BLOCK
5
3A
100
AcDbEntity
8
0
100
AcDbBlockBegin
2
VSCHEMA_PANEL_SIDE
70
2
10
0
20
0
30
0
3
VSCHEMA_PANEL_SIDE
1

0
LINE
5
3B
100
AcDbEntity
8
!VSCHEMES
62
0
370
30
100
AcDbLine
6
ByLayer
10
0.0000000000
20
116.0000000000
30
0.0000000000
11
50.0000000000
21
116.0000000000
31
0.0000000000
1001
DSTP_XDATA
1002
{
1000
_OWNERHANDLE=0000000064
1002
}
0
LINE
5
3C
100
AcDbEntity
8
!VSCHEMES
62
0
370
30
100
AcDbLine
6
ByLayer
10
50.0000000000
20
0.0000000000
30
0.0000000000
11
50.0000000000
21
227.0000000000
31
0.0000000000
1001
DSTP_XDATA
1002
{
1000
_OWNERHANDLE=0000000064
1002
}
0
LINE
5
3D
100
AcDbEntity
8
!VSCHEMES
62
0
370
30
100
AcDbLine
6
ByLayer
10
25.0000000000
20
116.0000000000
30
0.0000000000
11
25.0000000000
21
40.0000000000
31
0.0000000000
1001
DSTP_XDATA
1002
{
1000
_OWNERHANDLE=0000000064
1002
}
0
LINE
5
3E
100
AcDbEntity
8
!VSCHEMES
62
0
370
30
100
AcDbLine
6
ByLayer
10
0.0000000000
20
227.0000000000
30
0.0000000000
11
0.0000000000
21
0.0000000000
31
0.0000000000
1001
DSTP_XDATA
1002
{
1000
_OWNERHANDLE=0000000064
1002
}
0
LINE
5
3F
100
AcDbEntity
8
!VSCHEMES
62
0
370
30
100
AcDbLine
6
ByLayer
10
60.0000000000
20
16.0000000000
30
0.0000000000
11
0.0000000000
21
16.0000000000
31
0.0000000000
1001
DSTP_XDATA
1002
{
1000
_OWNERHANDLE=0000000064
1002
}
0
LINE
5
40
100
AcDbEntity
8
!VSCHEMES
62
0
370
30
100
AcDbLine
6
ByLayer
10
60.0000000000
20
24.0000000000
30
0.0000000000
11
0.0000000000
21
24.0000000000
31
0.0000000000
1001
DSTP_XDATA
1002
{
1000
_OWNERHANDLE=0000000064
1002
}
0
LINE
5
41
100
AcDbEntity
8
!VSCHEMES
62
0
370
30
100
AcDbLine
6
ByLayer
10
60.0000000000
20
40.0000000000
30
0.0000000000
11
0.0000000000
21
40.0000000000
31
0.0000000000
1001
DSTP_XDATA
1002
{
1000
_OWNERHANDLE=0000000064
1002
}
0
LINE
5
42
100
AcDbEntity
8
!VSCHEMES
62
0
370
30
100
AcDbLine
6
ByLayer
10
60.0000000000
20
0.0000000000
30
0.0000000000
11
0.0000000000
21
0.0000000000
31
0.0000000000
1001
DSTP_XDATA
1002
{
1000
_OWNERHANDLE=0000000064
1002
}
0
LINE
5
43
100
AcDbEntity
8
!VSCHEMES
62
0
370
30
100
AcDbLine
6
ByLayer
10
60.0000000000
20
0.0000000000
30
0.0000000000
11
60.0000000000
21
40.0000000000
31
0.0000000000
1001
DSTP_XDATA
1002
{
1000
_OWNERHANDLE=0000000064
1002
}
0
LINE
5
44
100
AcDbEntity
8
!VSCHEMES
62
0
370
30
100
AcDbLine
6
ByLayer
10
60.0000000000
20
32.0000000000
30
0.0000000000
11
0.0000000000
21
32.0000000000
31
0.0000000000
1001
DSTP_XDATA
1002
{
1000
_OWNERHANDLE=0000000064
1002
}
0
LINE
5
45
100
AcDbEntity
8
!VSCHEMES
62
0
370
30
100
AcDbLine
6
ByLayer
10
0.0000000000
20
141.0000000000
30
0.0000000000
11
50.0000000000
21
141.0000000000
31
0.0000000000
1001
DSTP_XDATA
1002
{
1000
_OWNERHANDLE=0000000064
1002
}
0
LINE
5
46
100
AcDbEntity
8
!VSCHEMES
62
0
370
30
100
AcDbLine
6
ByLayer
10
0.0000000000
20
166.0000000000
30
0.0000000000
11
50.0000000000
21
166.0000000000
31
0.0000000000
1001
DSTP_XDATA
1002
{
1000
_OWNERHANDLE=0000000064
1002
}
0
LINE
5
47
100
AcDbEntity
8
!VSCHEMES
62
0
370
30
100
AcDbLine
6
ByLayer
10
0.0000000000
20
216.0000000000
30
0.0000000000
11
50.0000000000
21
216.0000000000
31
0.0000000000
1001
DSTP_XDATA
1002
{
1000
_OWNERHANDLE=0000000064
1002
}
0
LINE
5
48
100
AcDbEntity
8
!VSCHEMES
62
0
370
30
100
AcDbLine
6
ByLayer
10
0.0000000000
20
227.0000000000
30
0.0000000000
11
50.0000000000
21
227.0000000000
31
0.0000000000
1001
DSTP_XDATA
1002
{
1000
_OWNERHANDLE=0000000064
1002
}
0
TEXT
5
49
100
AcDbEntity
8
!VSCHEMES
62
0
370
30
100
AcDbText
6
ByLayer
11
25.0000000000
21
36.0000000000
31
0.0000000000
10
50.0000000000
20
72.0000000000
30
0.0000000000
40
2.5000000000
50
0.0000000000
41
0.9000000000
51
0.0000000000
72
1
7
!VTEXT
1
Обозначение
100
AcDbText
73
2
1001
DSTP_XDATA
1002
{
1000
_TMPL1=
1000
_OWNERHANDLE=0000000064
1002
}
0
TEXT
5
4A
100
AcDbEntity
8
!VSCHEMES
62
0
370
30
100
AcDbText
6
ByLayer
11
25.0000000000
21
28.0000000000
31
0.0000000000
10
50.0000000000
20
56.0000000000
30
0.0000000000
40
2.5000000000
50
0.0000000000
41
0.9000000000
51
0.0000000000
72
1
7
!VTEXT
1
Руст / Ррасч, кВт
100
AcDbText
73
2
1001
DSTP_XDATA
1002
{
1000
_TMPL1=
1000
_OWNERHANDLE=0000000064
1002
}
0
TEXT
5
4B
100
AcDbEntity
8
!VSCHEMES
62
0
370
30
100
AcDbText
6
ByLayer
11
25.0000000000
21
20.0000000000
31
0.0000000000
10
50.0000000000
20
40.0000000000
30
0.0000000000
40
2.5000000000
50
0.0000000000
41
0.9000000000
51
0.0000000000
72
1
7
!VTEXT
1
I расч (ном), А
100
AcDbText
73
2
1001
DSTP_XDATA
1002
{
1000
_TMPL1=
1000
_OWNERHANDLE=0000000064
1002
}
0
TEXT
5
4C
100
AcDbEntity
8
!VSCHEMES
62
0
370
30
100
AcDbText
6
ByLayer
11
25.0000000000
21
8.0000000000
31
0.0000000000
10
50.0000000000
20
16.0000000000
30
0.0000000000
40
2.5000000000
50
0.0000000000
41
0.9000000000
51
0.0000000000
72
1
7
!VTEXT
1
Наименование, тип
100
AcDbText
73
2
1001
DSTP_XDATA
1002
{
1000
_TMPL1=
1000
_OWNERHANDLE=0000000064
1002
}
0
LINE
5
4D
100
AcDbEntity
8
!VSCHEMES
62
0
370
30
100
AcDbLine
6
ByLayer
10
0.0000000000
20
78.0000000000
30
0.0000000000
11
50.0000000000
21
78.0000000000
31
0.0000000000
1001
DSTP_XDATA
1002
{
1000
_OWNERHANDLE=0000000064
1002
}
0
MTEXT
5
4E
100
AcDbEntity
8
!VSCHEMES
62
0
370
30
100
AcDbMText
6
ByLayer
10
25.0000000000
20
191.0000000000
30
0.0000000000
40
2.5000000000
41
42.4933425007
71
5
1
\U+0410\U+043F\U+043F\U+0430\U+0440\U+0430\U+0442 \U+043D\U+0430 \U+0432\U+0432\U+043E\U+0434\U+0435 (\U+0432\U+044B\U+043A\U+043B\U+044E\U+0447\U+0430\U+0442\U+0435\U+043B\U+044C \U+0430\U+0432\U+0442\U+043E\U+043C\U+0430\U+0442\U+0438\U+0447\U+0435
3
\U+0441\U+043A\U+0438\U+0439 \U+0438\U+043B\U+0438 \U+0432\U+044B\U+043A\U+043B\U+044E\U+0447\U+0430\U+0442\U+0435\U+043B\U+044C \U+043D\U+0430\U+0433\U+0440\U+0443\U+0437\U+043A\U+0438): \U+043D\U+043E\U+043C\U+0435\U+0440; \U+0442\U+0438\U+043F; \U
3
+0442\U+043E\U+043A \U+0440\U+0430\U+0441\U+0446\U+0435\U+043F\U+0438\U+0442\U+0435\U+043B\U+044F \U+0438\U+043B\U+0438 \P\U+043F\U+043B\U+0430\U+0432\U+043A\U+043E\U+0439 \U+0432\U+0441\U+0442\U+0430\U+0432\U+043A\U+0438, \U+0410
7
!VTEXT
11
1.0000000000
21
0.0000000000
31
0.0000000000
73
2
44
1.0000000000
1001
DSTP_XDATA
1002
{
1000
_TMPL1=
1000
_OWNERHANDLE=0000000064
1002
}
0
MTEXT
5
4F
100
AcDbEntity
8
!VSCHEMES
62
0
370
30
100
AcDbMText
6
ByLayer
10
25.0000000000
20
153.5000000000
30
0.0000000000
40
2.5000000000
41
43.8077220823
71
5
1
\U+0410\U+043F\U+043F\U+0430\U+0440\U+0430\U+0442 \U+043D\U+0430 \U+043B\U+0438\U+043D\U+0438\U+0438 (\U+0432\U+044B\U+043A\U+043B\U+044E\U+0447\U+0430\U+0442\U+0435\U+043B\U+044C \U+0430\U+0432\U+0442. \U+0438\U+043B\U+0438 \U+043F\U+0440\U+0435\U+0
3
434\U+043E\U+0445\U+0440\U+0430\U+043D\U+0438\U+0442\U+0435\U+043B\U+044C): \U+043D\U+043E\U+043C\U+0435\U+0440; \U+0442\U+0438\U+043F; \U+0442\U+043E\U+043A \U+0440\U+0430\U+0441\U+0446\U+0435\U+043F\U+0438\U+0442\U+0435\U+043B\U+044F \P\U+0438\U+04
3
3B\U+0438 \U+043F\U+043B\U+0430\U+0432\U+043A\U+043E\U+0439 \U+0432\U+0441\U+0442\U+0430\U+0432\U+043A\U+0438, \U+0410
7
!VTEXT
11
1.0000000000
21
0.0000000000
31
0.0000000000
73
2
44
1.0000000000
1001
DSTP_XDATA
1002
{
1000
_TMPL1=
1000
_OWNERHANDLE=0000000064
1002
}
0
MTEXT
5
50
100
AcDbEntity
8
!VSCHEMES
62
0
370
30
100
AcDbMText
6
ByLayer
10
25.0000000000
20
128.5000000000
30
0.0000000000
40
2.5000000000
41
48.2330472311
71
5
1
\U+041F\U+0443\U+0441\U+043A\U+0430\U+0442\U+0435\U+043B\U+044C \U+043C\U+0430\U+0433\U+043D\U+0438\U+0442\U+043D\U+044B\U+0439 (\U+0443\U+0441\U+0442\U+0440\U+043E\U+0439\U+0441\U+0442\U+0432\U+043E \U+0437\U+0430\U+0449\U+0438\U+0442\U+043D\U+043E\
3
U+0433\U+043E \U+043E\U+0442\U+043A\U+043B\U+044E\U+0447\U+0435\U+043D\U+0438\U+044F \U+0438\U+043B\U+0438 \U+0434\U+0440\U+0443\U+0433\U+0438\U+0435 \U+0430\U+043F\U+043F\U+0430\U+0440\U+0430\U+0442\U+044B): \U+043D\U+043E\U+043C\U+0435\U+0440; \U+0
3
442\U+0438\U+043F; \U+043D\U+043E\U+043C\U+0438\U+043D\U+0430\U+043B\U+044C\U+043D\U+044B\U+0439 \U+0442\U+043E\U+043A, \U+0410
7
!VTEXT
11
1.0000000000
21
0.0000000000
31
0.0000000000
73
2
44
1.0000000000
1001
DSTP_XDATA
1002
{
1000
_TMPL1=
1000
_OWNERHANDLE=0000000064
1002
}
0
MTEXT
5
51
100
AcDbEntity
8
!VSCHEMES
62
0
370
30
100
AcDbMText
6
ByLayer
10
25.0000000000
20
221.5000000000
30
0.0000000000
40
2.5000000000
41
50.0000000000
71
5
1
\U+0418\U+0441\U+0442\U+043E\U+0447\U+043D\U+0438\U+043A \U+043F\U+0438\U+0442\U+0430\U+043D\U+0438\U+044F
7
!VTEXT
11
1.0000000000
21
0.0000000000
31
0.0000000000
73
2
44
1.0000000000
1001
DSTP_XDATA
1002
{
1000
_TMPL1=
1000
_OWNERHANDLE=0000000064
1002
}
0
MTEXT
5
52
100
AcDbEntity
8
!VSCHEMES
62
0
370
30
100
AcDbMText
6
ByLayer
10
12.5000000000
20
96.9977649250
30
0.0000000000
40
2.5000000000
41
38.0044701500
71
5
1
\U+041C\U+0430\U+0440\U+043A\U+0438\U+0440\U+043E\U+0432\U+043A\U+0430\P\U+043A\U+0430\U+0431\U+0435\U+043B\U+044F, \U+0434\U+043B\U+0438\U+043D\U+0430, \U+043C
7
!VTEXT
11
0.0000000000
21
1.0000000000
31
0.0000000000
73
2
44
1.0000000000
1001
DSTP_XDATA
1002
{
1000
_TMPL1=
1000
_OWNERHANDLE=0000000064
1002
}
0
MTEXT
5
53
100
AcDbEntity
8
!VSCHEMES
62
0
370
30
100
AcDbMText
6
ByLayer
10
37.5000000000
20
96.9955298500
30
0.0000000000
40
2.5000000000
41
38.0089403000
71
5
1
\U+041C\U+0430\U+0440\U+043A\U+0430, \P\U+0441\U+0435\U+0447. \U+043F\U+0440\U+043E\U+0432\U+043E\U+0434\U+043D\U+0438\U+043A\U+0430
7
!VTEXT
11
0.0000000000
21
1.0000000000
31
0.0000000000
73
2
44
1.0000000000
1001
DSTP_XDATA
1002
{
1000
_TMPL1=
1000
_OWNERHANDLE=0000000064
1002
}
0
MTEXT
5
54
100
AcDbEntity
8
!VSCHEMES
62
0
370
30
100
AcDbMText
6
ByLayer
10
12.5000000000
20
58.9977649250
30
0.0000000000
40
2.5000000000
41
38.0044701500
71
5
1
\U+041C\U+0430\U+0440\U+043A\U+0438\U+0440\U+043E\U+0432\U+043A\U+0430\P\U+043A\U+0430\U+0431\U+0435\U+043B\U+044F, \U+0434\U+043B\U+0438\U+043D\U+0430, \U+043C
7
!VTEXT
11
0.0000000000
21
1.0000000000
31
0.0000000000
73
2
44
1.0000000000
1001
DSTP_XDATA
1002
{
1000
_TMPL1=
1000
_OWNERHANDLE=0000000064
1002
}
0
MTEXT
5
55
100
AcDbEntity
8
!VSCHEMES
62
0
370
30
100
AcDbMText
6
ByLayer
10
37.5000000000
20
58.9955298500
30
0.0000000000
40
2.5000000000
41
38.0089403000
71
5
1
\U+041C\U+0430\U+0440\U+043A\U+0430, \P\U+0441\U+0435\U+0447. \U+043F\U+0440\U+043E\U+0432\U+043E\U+0434\U+043D\U+0438\U+043A\U+0430
7
!VTEXT
11
0.0000000000
21
1.0000000000
31
0.0000000000
73
2
44
1.0000000000
1001
DSTP_XDATA
1002
{
1000
_TMPL1=
1000
_OWNERHANDLE=0000000064
1002
}
0
ENDBLK
5
56
100
AcDbEntity
8
0
100
AcDbBlockEnd
1001
DSTP_XDATA
1002
{
1002
}
0
BLOCK
5
57
100
AcDbEntity
8
0
100
AcDbBlockBegin
2
VSCHEMA_PANEL_OUT
70
2
10
0
20
0
30
0
3
VSCHEMA_PANEL_OUT
1

0
ENDBLK
5
58
100
AcDbEntity
8
0
100
AcDbBlockEnd
1001
DSTP_XDATA
1002
{
1002
}
0
BLOCK
5
59
100
AcDbEntity
8
0
100
AcDbBlockBegin
2
DEVICE_VSCHEMA_PANEL_OUT
70
2
10
0
20
0
30
0
3
DEVICE_VSCHEMA_PANEL_OUT
1

0
MTEXT
5
5A
100
AcDbEntity
8
!VSCHEMES
62
0
370
25
100
AcDbMText
6
ByLayer
10
12.4999999833
20
20.0000000000
30
0.0000000000
40
2.2000000000
41
23.0000000000
71
5
1
??
7
!VTEXT
11
1.0000000000
21
0.0000000000
31
0.0000000000
73
2
44
0.9000000000
1001
DSTP_XDATA
1002
{
1000
_TMPL1=@@[VSCHEMADevamperage]
1000
_OWNERHANDLE=0000000064
1002
}
0
MTEXT
5
5B
100
AcDbEntity
8
!VSCHEMES
62
0
370
25
100
AcDbMText
6
ByLayer
10
12.4999999833
20
8.0000000000
30
0.0000000000
40
2.2000000000
41
23.0000000000
71
5
1
??
7
!VTEXT
11
1.0000000000
21
0.0000000000
31
0.0000000000
73
2
44
0.9000000000
1001
DSTP_XDATA
1002
{
1000
_TMPL1=@@[VSCHEMADevname]
1000
_OWNERHANDLE=0000000064
1002
}
0
MTEXT
5
5C
100
AcDbEntity
8
!VSCHEMES
62
0
370
25
100
AcDbMText
6
ByLayer
10
12.4999999833
20
36.0000000000
30
0.0000000000
40
2.2000000000
41
23.0000000000
71
5
1
??
7
!VTEXT
11
1.0000000000
21
0.0000000000
31
0.0000000000
73
2
44
0.9000000000
1001
DSTP_XDATA
1002
{
1000
_TMPL1=@@[VSCHEMADevpos]
1000
_OWNERHANDLE=0000000064
1002
}
0
LINE
5
5D
100
AcDbEntity
8
!VSCHEMES
62
0
370
25
100
AcDbLine
6
ACAD_ISO02W100
48
0.2500000000
10
17.5000000000
20
144.0000000000
30
0.0000000000
11
17.5000000000
21
161.0000000000
31
0.0000000000
1001
DSTP_XDATA
1002
{
1000
_OWNERHANDLE=0000000064
1000
LCGoodLayer=!VSCHEMES
1000
LCBadLayer=!VSCHEMES_DISABLED
1000
LCExpression=(VSCHEMABuspe=true)and(VSCHEMALevel0start=0)
1002
}
0
LINE
5
5E
100
AcDbEntity
8
!VSCHEMES
62
0
370
25
100
AcDbLine
6
ByLayer
10
15.0000000000
20
166.0000000000
30
0.0000000000
11
15.0000000000
21
150.0000000000
31
0.0000000000
1001
DSTP_XDATA
1002
{
1000
_OWNERHANDLE=0000000064
1000
LCGoodLayer=!VSCHEMES
1000
LCBadLayer=!VSCHEMES_DISABLED
1000
LCExpression=(VSCHEMABusn=true)and(VSCHEMALevel0start=0)
1002
}
0
LINE
5
5F
100
AcDbEntity
8
!VSCHEMES
62
0
370
25
100
AcDbLine
6
ByLayer
10
0.0000000000
20
166.0000000000
30
0.0000000000
11
24.9999999862
21
166.0000000000
31
0.0000000000
1001
DSTP_XDATA
1002
{
1000
_OWNERHANDLE=0000000064
1002
}
0
LINE
5
60
100
AcDbEntity
8
!VSCHEMES
62
0
370
25
100
AcDbLine
6
ACAD_ISO02W100
48
0.4000000000
10
0.0000000000
20
161.0000000000
30
0.0000000000
11
24.9999999862
21
161.0000000000
31
0.0000000000
1001
DSTP_XDATA
1002
{
1000
_OWNERHANDLE=0000000064
1002
}
0
CIRCLE
5
61
100
AcDbEntity
8
!VSCHEMES_DISABLED
62
0
370
25
100
AcDbCircle
6
ByLayer
10
12.5000000000
20
171.0000000000
30
0.0000000000
40
0.5000000000
1001
DSTP_XDATA
1002
{
1000
_OWNERHANDLE=0000000064
1000
LCGoodLayer=!VSCHEMES
1000
LCBadLayer=!VSCHEMES_DISABLED
1000
LCExpression=VSCHEMATransfer=true
1002
}
0
CIRCLE
5
62
100
AcDbEntity
8
!VSCHEMES
62
0
370
25
100
AcDbCircle
6
ByLayer
10
15.0000000000
20
166.0000000000
30
0.0000000000
40
0.5000000000
1001
DSTP_XDATA
1002
{
1000
_OWNERHANDLE=0000000064
1000
LCGoodLayer=!VSCHEMES
1000
LCBadLayer=!VSCHEMES_DISABLED
1000
LCExpression=(VSCHEMABusn=true)and(VSCHEMALevel0start=0)
1002
}
0
CIRCLE
5
63
100
AcDbEntity
8
!VSCHEMES
62
0
370
25
100
AcDbCircle
6
ByLayer
10
17.5000000000
20
161.0000000000
30
0.0000000000
40
0.5000000000
1001
DSTP_XDATA
1002
{
1000
_OWNERHANDLE=0000000064
1000
LCGoodLayer=!VSCHEMES
1000
LCBadLayer=!VSCHEMES_DISABLED
1000
LCExpression=(VSCHEMABuspe=true)and(VSCHEMALevel0start=0)
1002
}
0
LINE
5
64
100
AcDbEntity
8
!VSCHEMES
62
0
370
25
100
AcDbLine
6
ByLayer
10
12.5000000000
20
139.0000000000
30
0.0000000000
11
12.5000000000
21
130.0000000000
31
0.0000000000
1001
DSTP_XDATA
1002
{
1000
_OWNERHANDLE=0000000064
1000
LCGoodLayer=!VSCHEMES
1000
LCBadLayer=!VSCHEMES_DISABLED
1000
LCExpression=(VSCHEMALevel0start=0)or(VSCHEMALevel0start=1)
1002
}
0
LINE
5
65
100
AcDbEntity
8
!VSCHEMES_DISABLED
62
0
370
25
100
AcDbLine
6
Continuous
10
12.5000186454
20
116.0000000000
30
0.0000000000
11
12.5000186454
21
75.4999999994
31
0.0000000000
1001
DSTP_XDATA
1002
{
1000
_OWNERHANDLE=0000000064
1000
LCGoodLayer=!VSCHEMES
1000
LCBadLayer=!VSCHEMES_DISABLED
1000
LCExpression=VSCHEMALevel1finish=4
1002
}
0
LINE
5
66
100
AcDbEntity
8
!VSCHEMES
62
0
370
25
100
AcDbLine
6
Continuous
10
25.0000000012
20
16.0000000000
30
0.0000000000
11
-0.0000000167
21
16.0000000000
31
0.0000000000
1001
DSTP_XDATA
1002
{
1000
_OWNERHANDLE=0000000064
1002
}
0
LINE
5
67
100
AcDbEntity
8
!VSCHEMES
62
0
370
25
100
AcDbLine
6
Continuous
10
-0.0000000167
20
24.0000000000
30
0.0000000000
11
24.9999999966
21
24.0000000000
31
0.0000000000
1001
DSTP_XDATA
1002
{
1000
_OWNERHANDLE=0000000064
1002
}
0
LINE
5
68
100
AcDbEntity
8
!VSCHEMES
62
0
370
25
100
AcDbLine
6
Continuous
10
25.0000000049
20
40.0000000000
30
0.0000000000
11
-0.0000000167
21
40.0000000000
31
0.0000000000
1001
DSTP_XDATA
1002
{
1000
_OWNERHANDLE=0000000064
1002
}
0
LINE
5
69
100
AcDbEntity
8
!VSCHEMES
62
0
370
25
100
AcDbLine
6
Continuous
10
24.9999999862
20
0.0000000000
30
0.0000000000
11
-0.0000000167
21
0.0000000000
31
0.0000000000
1001
DSTP_XDATA
1002
{
1000
_OWNERHANDLE=0000000064
1002
}
0
LINE
5
6A
100
AcDbEntity
8
!VSCHEMES
62
0
370
25
100
AcDbLine
6
Continuous
10
24.9999999862
20
0.0000000000
30
0.0000000000
11
24.9999999862
21
40.0000000000
31
0.0000000000
1001
DSTP_XDATA
1002
{
1000
_OWNERHANDLE=0000000064
1002
}
0
LINE
5
6B
100
AcDbEntity
8
!VSCHEMES
62
0
370
25
100
AcDbLine
6
Continuous
10
0.0000000000
20
0.0000000000
30
0.0000000000
11
-0.0000000167
21
40.0000000000
31
0.0000000000
1001
DSTP_XDATA
1002
{
1000
_OWNERHANDLE=0000000064
1002
}
0
LINE
5
6C
100
AcDbEntity
8
!VSCHEMES
62
0
370
25
100
AcDbLine
6
Continuous
10
25.0000000008
20
32.0000000000
30
0.0000000000
11
-0.0000000167
21
32.0000000000
31
0.0000000000
1001
DSTP_XDATA
1002
{
1000
_OWNERHANDLE=0000000064
1002
}
0
LINE
5
6D
100
AcDbEntity
8
!VSCHEMES
62
0
370
25
100
AcDbLine
6
ByLayer
10
12.5000000000
20
171.0000000000
30
0.0000000000
11
12.5000000000
21
150.0000000000
31
0.0000000000
1001
DSTP_XDATA
1002
{
1000
_OWNERHANDLE=0000000064
1000
LCGoodLayer=!VSCHEMES
1000
LCBadLayer=!VSCHEMES_DISABLED
1000
LCExpression=VSCHEMALevel0start=0
1002
}
0
MTEXT
5
6E
100
AcDbEntity
8
!VSCHEMES
62
0
370
25
100
AcDbMText
6
ByLayer
10
12.4999999833
20
28.0000000000
30
0.0000000000
40
2.2000000000
41
23.0000000000
71
5
1
??
7
!VTEXT
11
1.0000000000
21
0.0000000000
31
0.0000000000
73
2
44
0.9000000000
1001
DSTP_XDATA
1002
{
1000
_TMPL1=@@[VSCHEMADevpower]
1000
_OWNERHANDLE=0000000064
1002
}
0
MTEXT
5
6F
100
AcDbEntity
8
!VSCHEMES
62
0
370
25
100
AcDbMText
6
ByLayer
10
10.5000000000
20
97.0000000000
30
0.0000000000
40
2.2000000000
41
43.8077220823
71
5
1
??
7
!VTEXT
11
0.0000000000
21
1.0000000000
31
0.0000000000
73
2
44
1.0000000000
1001
DSTP_XDATA
1002
{
1000
_TMPL1=@@[VSCHEMACable11]
1000
_OWNERHANDLE=0000000064
1002
}
0
MTEXT
5
70
100
AcDbEntity
8
!VSCHEMES
62
0
370
25
100
AcDbMText
6
ByLayer
10
15.0000000000
20
97.0000000000
30
0.0000000000
40
2.2000000000
41
43.8077220823
71
5
1
??
7
!VTEXT
11
0.0000000000
21
1.0000000000
31
0.0000000000
73
2
44
1.0000000000
1001
DSTP_XDATA
1002
{
1000
_TMPL1=@@[VSCHEMACable12]
1000
_OWNERHANDLE=0000000064
1002
}
0
LINE
5
71
100
AcDbEntity
8
!VSCHEMES_DISABLED
62
0
370
25
100
AcDbLine
6
ByLayer
10
12.5000000000
20
139.0000000000
30
0.0000000000
11
-12.5000000000
21
139.0000000000
31
0.0000000000
1001
DSTP_XDATA
1002
{
1000
_OWNERHANDLE=0000000064
1000
LCGoodLayer=!VSCHEMES
1000
LCBadLayer=!VSCHEMES_DISABLED
1000
LCExpression=(VSCHEMALevel0start=1)or(VSCHEMALevel0start=2)
1002
}
0
LINE
5
72
100
AcDbEntity
8
!VSCHEMES_DISABLED
62
0
370
25
100
AcDbLine
6
ByLayer
10
15.0000000000
20
141.5000000000
30
0.0000000000
11
-10.0000000000
21
141.5000000000
31
0.0000000000
1001
DSTP_XDATA
1002
{
1000
_OWNERHANDLE=0000000064
1000
LCGoodLayer=!VSCHEMES
1000
LCBadLayer=!VSCHEMES_DISABLED
1000
LCExpression=(VSCHEMABusn=true)and((VSCHEMALevel0start=1)or(VSCHEMALevel0start=2))
1002
}
0
LINE
5
73
100
AcDbEntity
8
!VSCHEMES_DISABLED
62
0
370
25
100
AcDbLine
6
ACAD_ISO02W100
48
0.2500000000
10
17.5000000000
20
144.0000000000
30
0.0000000000
11
-7.5000000000
21
144.0000000000
31
0.0000000000
1001
DSTP_XDATA
1002
{
1000
_OWNERHANDLE=0000000064
1000
LCGoodLayer=!VSCHEMES
1000
LCBadLayer=!VSCHEMES_DISABLED
1000
LCExpression=(VSCHEMABuspe=true)and((VSCHEMALevel0start=1)or(VSCHEMALevel0start=2))
1002
}
0
LINE
5
74
100
AcDbEntity
8
!VSCHEMES_DISABLED
62
0
370
25
100
AcDbLine
6
Continuous
10
12.4999999999
20
75.4999999994
30
0.0000000000
11
12.4999999945
21
42.4999998738
31
0.0000000000
1001
DSTP_XDATA
1002
{
1000
_OWNERHANDLE=0000000064
1000
LCGoodLayer=!VSCHEMES
1000
LCBadLayer=!VSCHEMES_DISABLED
1000
LCExpression=VSCHEMALevel2finish=5
1002
}
0
MTEXT
5
75
100
AcDbEntity
8
!VSCHEMES
62
0
370
25
100
AcDbMText
6
ByLayer
10
10.4999999974
20
58.9999999369
30
0.0000000000
40
2.2000000000
41
43.8077220823
71
5
1
??
7
!VTEXT
11
0.0000000000
21
1.0000000000
31
0.0000000000
73
2
44
1.0000000000
1001
DSTP_XDATA
1002
{
1000
_TMPL1=@@[VSCHEMACable21]
1000
_OWNERHANDLE=0000000064
1002
}
0
MTEXT
5
76
100
AcDbEntity
8
!VSCHEMES
62
0
370
25
100
AcDbMText
6
ByLayer
10
14.9999999974
20
58.9999999369
30
0.0000000000
40
2.2000000000
41
43.8077220823
71
5
1
??
7
!VTEXT
11
0.0000000000
21
1.0000000000
31
0.0000000000
73
2
44
1.0000000000
1001
DSTP_XDATA
1002
{
1000
_TMPL1=@@[VSCHEMACable22]
1000
_OWNERHANDLE=0000000064
1002
}
0
CIRCLE
5
77
100
AcDbEntity
8
!VSCHEMES_DISABLED
62
0
370
25
100
AcDbCircle
6
ByLayer
10
-12.5000000000
20
171.0000000000
30
0.0000000000
40
0.5000000000
1001
DSTP_XDATA
1002
{
1000
_OWNERHANDLE=0000000064
1000
LCGoodLayer=!VSCHEMES
1000
LCBadLayer=!VSCHEMES_DISABLED
1000
LCExpression=VSCHEMATransfer=true
1002
}
0
MTEXT
5
78
100
AcDbEntity
8
!VSCHEMES
62
0
370
25
100
AcDbMText
6
ByLayer
10
9.9999999942
20
43.0000000000
30
0.0000000000
40
1.2000000000
41
12.0000000000
71
6
1

7
!VTEXT
11
1.0000000000
21
0.0000000000
31
0.0000000000
73
2
44
1.0000000000
1001
DSTP_XDATA
1002
{
1000
_TMPL1=@@[VSCHEMAAddtext]
1000
_OWNERHANDLE=0000000064
1002
}
0
MTEXT
5
79
100
AcDbEntity
8
!VSCHEMES
62
0
370
25
100
AcDbMText
6
ByLayer
10
14.0000000000
20
113.5000000000
30
0.0000000000
40
2.2000000000
41
9.0000000000
71
4
1
??
7
!VTEXT
11
1.0000000000
21
0.0000000000
31
0.0000000000
73
2
44
0.9000000000
1001
DSTP_XDATA
1002
{
1000
_TMPL1=@@[VSCHEMAFeedernamemain]
1000
_OWNERHANDLE=0000000064
1000
LCGoodLayer=!VSCHEMES
1000
LCBadLayer=!VSCHEMES_DISABLED
1000
LCExpression=(VSCHEMALevel0start=0)or(VSCHEMALevel0start=1)
1002
}
0
MTEXT
5
7A
100
AcDbEntity
8
!VSCHEMES
62
0
370
25
100
AcDbMText
6
ByLayer
10
11.0000000000
20
111.0000000000
30
0.0000000000
40
2.2000000000
41
9.0000000000
71
6
1

7
!VTEXT
11
1.0000000000
21
0.0000000000
31
0.0000000000
73
2
44
0.9000000000
1001
DSTP_XDATA
1002
{
1000
_TMPL1=@@[VSCHEMAFeedername1]
1000
_OWNERHANDLE=0000000064
1002
}
0
MTEXT
5
7B
100
AcDbEntity
8
!VSCHEMES
62
0
370
25
100
AcDbMText
6
ByLayer
10
11.0000000000
20
72.0000000000
30
0.0000000000
40
2.2000000000
41
9.0000000000
71
6
1

7
!VTEXT
11
1.0000000000
21
0.0000000000
31
0.0000000000
73
2
44
0.9000000000
1001
DSTP_XDATA
1002
{
1000
_TMPL1=@@[VSCHEMAFeedername2]
1000
_OWNERHANDLE=0000000064
1002
}
0
LINE
5
7C
100
AcDbEntity
8
!VSCHEMES
62
0
370
25
100
AcDbLine
6
ByLayer
10
12.5000000000
20
116.0000000000
30
0.0000000000
11
15.0000000000
21
118.5000000000
31
0.0000000000
1001
DSTP_XDATA
1002
{
1000
_OWNERHANDLE=0000000064
1000
LCGoodLayer=!VSCHEMES
1000
LCBadLayer=!VSCHEMES_DISABLED
1000
LCExpression=(VSCHEMABusn=true)and(VSCHEMALevel0start=0)or(VSCHEMALevel0start=1)
1002
}
0
LINE
5
7D
100
AcDbEntity
8
!VSCHEMES
62
0
370
25
100
AcDbLine
6
ByLayer
10
15.0000000000
20
118.5000000000
30
0.0000000000
11
15.0000000000
21
125.0000000000
31
0.0000000000
1001
DSTP_XDATA
1002
{
1000
_OWNERHANDLE=0000000064
1000
LCGoodLayer=!VSCHEMES
1000
LCBadLayer=!VSCHEMES_DISABLED
1000
LCExpression=(VSCHEMABusn=true)and(VSCHEMALevel0start=0)or(VSCHEMALevel0start=1)
1002
}
0
LINE
5
7E
100
AcDbEntity
8
!VSCHEMES
62
0
370
25
100
AcDbLine
6
ACAD_ISO02W100
48
0.2500000000
10
12.5000000000
20
116.0000000000
30
0.0000000000
11
17.5000000000
21
118.5000000000
31
0.0000000000
1001
DSTP_XDATA
1002
{
1000
_OWNERHANDLE=0000000064
1000
LCGoodLayer=!VSCHEMES
1000
LCBadLayer=!VSCHEMES_DISABLED
1000
LCExpression=(VSCHEMABuspe=true)and(VSCHEMALevel0start=0)or(VSCHEMALevel0start=1)
1002
}
0
LINE
5
7F
100
AcDbEntity
8
!VSCHEMES
62
0
370
25
100
AcDbLine
6
ACAD_ISO02W100
48
0.2500000000
10
17.5000000000
20
118.5000000000
30
0.0000000000
11
17.5000000000
21
144.0000000000
31
0.0000000000
1001
DSTP_XDATA
1002
{
1000
_OWNERHANDLE=0000000064
1000
LCGoodLayer=!VSCHEMES
1000
LCBadLayer=!VSCHEMES_DISABLED
1000
LCExpression=(VSCHEMABuspe=true)and(VSCHEMALevel0start=0)or(VSCHEMALevel0start=1)
1002
}
0
LINE
5
80
100
AcDbEntity
8
!VSCHEMES_DISABLED
62
0
370
25
100
AcDbLine
6
ByLayer
10
-12.5000000000
20
79.9999996144
30
0.0000000000
11
-7.5000000000
21
83.0000000000
31
0.0000000000
1001
DSTP_XDATA
1002
{
1000
_OWNERHANDLE=0000000064
1000
LCGoodLayer=!VSCHEMES
1000
LCBadLayer=!VSCHEMES_DISABLED
1000
LCExpression=VSCHEMALevel1start=3
1002
}
0
LINE
5
81
100
AcDbEntity
8
!VSCHEMES_DISABLED
62
0
370
25
100
AcDbLine
6
ByLayer
10
-7.5000000000
20
83.0000000000
30
0.0000000000
11
-7.5000000000
21
113.5000000011
31
0.0000000000
1001
DSTP_XDATA
1002
{
1000
_OWNERHANDLE=0000000064
1000
LCGoodLayer=!VSCHEMES
1000
LCBadLayer=!VSCHEMES_DISABLED
1000
LCExpression=(VSCHEMALevel1start=1)or(VSCHEMALevel1start=4)
1002
}
0
LINE
5
82
100
AcDbEntity
8
!VSCHEMES_DISABLED
62
0
370
25
100
AcDbLine
6
ByLayer
10
-7.5000000000
20
113.5000000011
30
0.0000000000
11
-6.0000000000
21
116.0000000011
31
0.0000000000
1001
DSTP_XDATA
1002
{
1000
_OWNERHANDLE=0000000064
1000
LCGoodLayer=!VSCHEMES
1000
LCBadLayer=!VSCHEMES_DISABLED
1000
LCExpression=(VSCHEMALevel1start=1)or(VSCHEMALevel1start=4)
1002
}
0
LINE
5
83
100
AcDbEntity
8
!VSCHEMES_DISABLED
62
0
370
25
100
AcDbLine
6
ByLayer
10
-6.0000000000
20
116.0000000011
30
0.0000000000
11
11.0000000000
21
116.0000000000
31
0.0000000000
1001
DSTP_XDATA
1002
{
1000
_OWNERHANDLE=0000000064
1000
LCGoodLayer=!VSCHEMES
1000
LCBadLayer=!VSCHEMES_DISABLED
1000
LCExpression=(VSCHEMALevel1start=1)or(VSCHEMALevel1start=4)
1002
}
0
LINE
5
84
100
AcDbEntity
8
!VSCHEMES_DISABLED
62
0
370
25
100
AcDbLine
6
ByLayer
10
-12.5000000000
20
79.4999998748
30
0.0000000000
11
-6.5000000000
21
79.4999998739
31
0.0000000000
1001
DSTP_XDATA
1002
{
1000
_OWNERHANDLE=0000000064
1000
LCGoodLayer=!VSCHEMES
1000
LCBadLayer=!VSCHEMES_DISABLED
1000
LCExpression=(VSCHEMALevel1start=2)or(VSCHEMALevel1start=4)
1002
}
0
LINE
5
85
100
AcDbEntity
8
!VSCHEMES_DISABLED
62
0
370
25
100
AcDbLine
6
ByLayer
10
-6.5000000000
20
79.4999998739
30
0.0000000000
11
-5.0000000000
21
81.0000000000
31
0.0000000000
1001
DSTP_XDATA
1002
{
1000
_OWNERHANDLE=0000000064
1000
LCGoodLayer=!VSCHEMES
1000
LCBadLayer=!VSCHEMES_DISABLED
1000
LCExpression=(VSCHEMALevel1start=2)or(VSCHEMALevel1start=4)
1002
}
0
LINE
5
86
100
AcDbEntity
8
!VSCHEMES_DISABLED
62
0
370
25
100
AcDbLine
6
ByLayer
10
-5.0000000000
20
81.0000000000
30
0.0000000000
11
-5.0000000000
21
112.0000000004
31
0.0000000000
1001
DSTP_XDATA
1002
{
1000
_OWNERHANDLE=0000000064
1000
LCGoodLayer=!VSCHEMES
1000
LCBadLayer=!VSCHEMES_DISABLED
1000
LCExpression=(VSCHEMALevel1start=2)or(VSCHEMALevel1start=4)
1002
}
0
LINE
5
87
100
AcDbEntity
8
!VSCHEMES_DISABLED
62
0
370
25
100
AcDbLine
6
ByLayer
10
-5.0000000000
20
112.0000000004
30
0.0000000000
11
-3.5000000000
21
114.5000000004
31
0.0000000000
1001
DSTP_XDATA
1002
{
1000
_OWNERHANDLE=0000000064
1000
LCGoodLayer=!VSCHEMES
1000
LCBadLayer=!VSCHEMES_DISABLED
1000
LCExpression=(VSCHEMALevel1start=2)or(VSCHEMALevel1start=4)
1002
}
0
LINE
5
88
100
AcDbEntity
8
!VSCHEMES_DISABLED
62
0
370
25
100
AcDbLine
6
ByLayer
10
-3.5000000000
20
114.5000000004
30
0.0000000000
11
11.0000000000
21
114.4999999995
31
0.0000000000
1001
DSTP_XDATA
1002
{
1000
_OWNERHANDLE=0000000064
1000
LCGoodLayer=!VSCHEMES
1000
LCBadLayer=!VSCHEMES_DISABLED
1000
LCExpression=(VSCHEMALevel1start=2)or(VSCHEMALevel1start=4)
1002
}
0
LINE
5
89
100
AcDbEntity
8
!VSCHEMES_DISABLED
62
0
370
25
100
AcDbLine
6
ByLayer
10
-12.5000000000
20
79.9999998744
30
0.0000000000
11
-7.5000000000
21
83.0000000000
31
0.0000000000
1001
DSTP_XDATA
1002
{
1000
_OWNERHANDLE=0000000064
1000
LCGoodLayer=!VSCHEMES
1000
LCBadLayer=!VSCHEMES_DISABLED
1000
LCExpression=(VSCHEMALevel1start=1)or(VSCHEMALevel1start=4)
1002
}
0
LINE
5
8A
100
AcDbEntity
8
!VSCHEMES_DISABLED
62
0
370
25
100
AcDbLine
6
ByLayer
10
-7.5000000000
20
83.0000000000
30
0.0000000000
11
-7.5000000000
21
110.5000000016
31
0.0000000000
1001
DSTP_XDATA
1002
{
1000
_OWNERHANDLE=0000000064
1000
LCGoodLayer=!VSCHEMES
1000
LCBadLayer=!VSCHEMES_DISABLED
1000
LCExpression=(VSCHEMALevel1start=3)or(VSCHEMALevel1start=5)
1002
}
0
LINE
5
8B
100
AcDbEntity
8
!VSCHEMES_DISABLED
62
0
370
25
100
AcDbLine
6
ByLayer
10
-7.5000000000
20
110.5000000016
30
0.0000000000
11
-6.0000000000
21
113.0000000016
31
0.0000000000
1001
DSTP_XDATA
1002
{
1000
_OWNERHANDLE=0000000064
1000
LCGoodLayer=!VSCHEMES
1000
LCBadLayer=!VSCHEMES_DISABLED
1000
LCExpression=(VSCHEMALevel1start=3)or(VSCHEMALevel1start=5)
1002
}
0
LINE
5
8C
100
AcDbEntity
8
!VSCHEMES_DISABLED
62
0
370
25
100
AcDbLine
6
ByLayer
10
-6.0000000000
20
113.0000000016
30
0.0000000000
11
11.0000000000
21
112.9999999988
31
0.0000000000
1001
DSTP_XDATA
1002
{
1000
_OWNERHANDLE=0000000064
1000
LCGoodLayer=!VSCHEMES
1000
LCBadLayer=!VSCHEMES_DISABLED
1000
LCExpression=(VSCHEMALevel1start=3)or(VSCHEMALevel1start=5)
1002
}
0
LINE
5
8D
100
AcDbEntity
8
!VSCHEMES_DISABLED
62
0
370
25
100
AcDbLine
6
Continuous
10
11.0000000000
20
112.9999999988
30
0.0000000000
11
12.5000000000
21
110.4999999997
31
0.0000000000
1001
DSTP_XDATA
1002
{
1000
_OWNERHANDLE=0000000064
1000
LCGoodLayer=!VSCHEMES
1000
LCBadLayer=!VSCHEMES_DISABLED
1000
LCExpression=VSCHEMALevel1finish=3
1002
}
0
LINE
5
8E
100
AcDbEntity
8
!VSCHEMES_DISABLED
62
0
370
25
100
AcDbLine
6
Continuous
10
12.5000000000
20
110.4999999997
30
0.0000000000
11
12.5000000000
21
75.5000000000
31
0.0000000000
1001
DSTP_XDATA
1002
{
1000
_OWNERHANDLE=0000000064
1000
LCGoodLayer=!VSCHEMES
1000
LCBadLayer=!VSCHEMES_DISABLED
1000
LCExpression=VSCHEMALevel1finish=3
1002
}
0
LINE
5
8F
100
AcDbEntity
8
!VSCHEMES_DISABLED
62
0
370
25
100
AcDbLine
6
Continuous
10
11.0000000000
20
114.4999999995
30
0.0000000000
11
12.5000000000
21
112.0000000000
31
0.0000000000
1001
DSTP_XDATA
1002
{
1000
_OWNERHANDLE=0000000064
1000
LCGoodLayer=!VSCHEMES
1000
LCBadLayer=!VSCHEMES_DISABLED
1000
LCExpression=VSCHEMALevel1finish=2
1002
}
0
LINE
5
90
100
AcDbEntity
8
!VSCHEMES_DISABLED
62
0
370
25
100
AcDbLine
6
Continuous
10
12.5000000000
20
112.0000000000
30
0.0000000000
11
12.5000000000
21
75.4999999994
31
0.0000000000
1001
DSTP_XDATA
1002
{
1000
_OWNERHANDLE=0000000064
1000
LCGoodLayer=!VSCHEMES
1000
LCBadLayer=!VSCHEMES_DISABLED
1000
LCExpression=VSCHEMALevel1finish=2
1002
}
0
LINE
5
91
100
AcDbEntity
8
!VSCHEMES_DISABLED
62
0
370
25
100
AcDbLine
6
Continuous
10
11.0000000000
20
116.0000000000
30
0.0000000000
11
12.5000186454
21
113.5000000000
31
0.0000000000
1001
DSTP_XDATA
1002
{
1000
_OWNERHANDLE=0000000064
1000
LCGoodLayer=!VSCHEMES
1000
LCBadLayer=!VSCHEMES_DISABLED
1000
LCExpression=VSCHEMALevel1finish=1
1002
}
0
LINE
5
92
100
AcDbEntity
8
!VSCHEMES_DISABLED
62
0
370
25
100
AcDbLine
6
Continuous
10
12.5000186454
20
113.5000000000
30
0.0000000000
11
12.5000186454
21
75.4999999994
31
0.0000000000
1001
DSTP_XDATA
1002
{
1000
_OWNERHANDLE=0000000064
1000
LCGoodLayer=!VSCHEMES
1000
LCBadLayer=!VSCHEMES_DISABLED
1000
LCExpression=VSCHEMALevel1finish=1
1002
}
0
LINE
5
93
100
AcDbEntity
8
!VSCHEMES
62
0
370
25
100
AcDbLine
6
ByLayer
10
0.0000000354
20
171.0000000000
30
0.0000000000
11
8.0000000216
21
171.0000000000
31
0.0000000000
1001
DSTP_XDATA
1002
{
1000
_OWNERHANDLE=0000000064
1000
LCGoodLayer=!VSCHEMES
1000
LCBadLayer=!VSCHEMES_DISABLED
1000
LCExpression=VSCHEMATransfer=false
1002
}
0
LINE
5
94
100
AcDbEntity
8
!VSCHEMES
62
0
370
25
100
AcDbLine
6
ByLayer
10
8.0000000216
20
171.0000000000
30
0.0000000000
11
25.0000000216
21
171.0000000000
31
0.0000000000
1001
DSTP_XDATA
1002
{
1000
_OWNERHANDLE=0000000064
1002
}
0
LINE
5
95
100
AcDbEntity
8
!VSCHEMES_DISABLED
62
0
370
25
100
AcDbLine
6
ByLayer
10
12.5000000000
20
171.0000000000
30
0.0000000000
11
12.5000000000
21
139.0000000000
31
0.0000000000
1001
DSTP_XDATA
1002
{
1000
_OWNERHANDLE=0000000064
1000
LCGoodLayer=!VSCHEMES
1000
LCBadLayer=!VSCHEMES_DISABLED
1000
LCExpression=VSCHEMATransfer=true
1002
}
0
LINE
5
96
100
AcDbEntity
8
!VSCHEMES_DISABLED
62
0
370
25
100
AcDbLine
6
ByLayer
10
12.5000000000
20
139.0000000000
30
0.0000000000
11
-12.5000000000
21
139.0000000000
31
0.0000000000
1001
DSTP_XDATA
1002
{
1000
_OWNERHANDLE=0000000064
1000
LCGoodLayer=!VSCHEMES
1000
LCBadLayer=!VSCHEMES_DISABLED
1000
LCExpression=VSCHEMATransfer=true
1002
}
0
LINE
5
97
100
AcDbEntity
8
!VSCHEMES_DISABLED
62
0
370
25
100
AcDbLine
6
ByLayer
10
-12.5000000000
20
139.0000000000
30
0.0000000000
11
-12.5000000000
21
171.0000000000
31
0.0000000000
1001
DSTP_XDATA
1002
{
1000
_OWNERHANDLE=0000000064
1000
LCGoodLayer=!VSCHEMES
1000
LCBadLayer=!VSCHEMES_DISABLED
1000
LCExpression=VSCHEMATransfer=true
1002
}
0
LINE
5
98
100
AcDbEntity
8
!VSCHEMES_DISABLED
62
0
370
25
100
AcDbLine
6
ByLayer
10
-12.5000000000
20
44.4999997481
30
0.0000000000
11
-7.5000000000
21
48.0000000000
31
0.0000000000
1001
DSTP_XDATA
1002
{
1000
_OWNERHANDLE=0000000064
1000
LCGoodLayer=!VSCHEMES
1000
LCBadLayer=!VSCHEMES_DISABLED
1000
LCExpression=VSCHEMALevel2start=3
1002
}
0
LINE
5
99
100
AcDbEntity
8
!VSCHEMES_DISABLED
62
0
370
25
100
AcDbLine
6
ByLayer
10
-7.5000000000
20
48.0000000000
30
0.0000000000
11
-7.5000000000
21
74.5000000000
31
0.0000000000
1001
DSTP_XDATA
1002
{
1000
_OWNERHANDLE=0000000064
1000
LCGoodLayer=!VSCHEMES
1000
LCBadLayer=!VSCHEMES_DISABLED
1000
LCExpression=(VSCHEMALevel2start=1)or(VSCHEMALevel1start=5)
1002
}
0
LINE
5
9A
100
AcDbEntity
8
!VSCHEMES_DISABLED
62
0
370
25
100
AcDbLine
6
ByLayer
10
-7.5000000000
20
74.5000000000
30
0.0000000000
11
-5.0000000000
21
76.4999998742
31
0.0000000000
1001
DSTP_XDATA
1002
{
1000
_OWNERHANDLE=0000000064
1000
LCGoodLayer=!VSCHEMES
1000
LCBadLayer=!VSCHEMES_DISABLED
1000
LCExpression=VSCHEMALevel2start=1
1002
}
0
LINE
5
9B
100
AcDbEntity
8
!VSCHEMES_DISABLED
62
0
370
25
100
AcDbLine
6
ByLayer
10
-5.0000000000
20
76.4999998742
30
0.0000000000
11
11.0000000000
21
76.4999998732
31
0.0000000000
1001
DSTP_XDATA
1002
{
1000
_OWNERHANDLE=0000000064
1000
LCGoodLayer=!VSCHEMES
1000
LCBadLayer=!VSCHEMES_DISABLED
1000
LCExpression=VSCHEMALevel2start=1
1002
}
0
LINE
5
9C
100
AcDbEntity
8
!VSCHEMES_DISABLED
62
0
370
25
100
AcDbLine
6
ByLayer
10
-12.4999999915
20
43.5000000000
30
0.0000000000
11
-6.5000000000
21
43.5000000000
31
0.0000000000
1001
DSTP_XDATA
1002
{
1000
_OWNERHANDLE=0000000064
1000
LCGoodLayer=!VSCHEMES
1000
LCBadLayer=!VSCHEMES_DISABLED
1000
LCExpression=VSCHEMALevel2start=2
1002
}
0
LINE
5
9D
100
AcDbEntity
8
!VSCHEMES_DISABLED
62
0
370
25
100
AcDbLine
6
ByLayer
10
-6.5000000000
20
43.5000000000
30
0.0000000000
11
-5.0000000000
21
44.5000000000
31
0.0000000000
1001
DSTP_XDATA
1002
{
1000
_OWNERHANDLE=0000000064
1000
LCGoodLayer=!VSCHEMES
1000
LCBadLayer=!VSCHEMES_DISABLED
1000
LCExpression=VSCHEMALevel2start=2
1002
}
0
LINE
5
9E
100
AcDbEntity
8
!VSCHEMES_DISABLED
62
0
370
25
100
AcDbLine
6
ByLayer
10
-5.0000000000
20
44.5000000000
30
0.0000000000
11
-5.0000000000
21
72.4999997484
31
0.0000000000
1001
DSTP_XDATA
1002
{
1000
_OWNERHANDLE=0000000064
1000
LCGoodLayer=!VSCHEMES
1000
LCBadLayer=!VSCHEMES_DISABLED
1000
LCExpression=VSCHEMALevel2start=2
1002
}
0
LINE
5
9F
100
AcDbEntity
8
!VSCHEMES_DISABLED
62
0
370
25
100
AcDbLine
6
ByLayer
10
-5.0000000000
20
72.4999997484
30
0.0000000000
11
-3.5000000000
21
74.9999997484
31
0.0000000000
1001
DSTP_XDATA
1002
{
1000
_OWNERHANDLE=0000000064
1000
LCGoodLayer=!VSCHEMES
1000
LCBadLayer=!VSCHEMES_DISABLED
1000
LCExpression=VSCHEMALevel2start=2
1002
}
0
LINE
5
A0
100
AcDbEntity
8
!VSCHEMES_DISABLED
62
0
370
25
100
AcDbLine
6
ByLayer
10
-3.5000000000
20
74.9999997484
30
0.0000000000
11
11.0000000000
21
74.9999997475
31
0.0000000000
1001
DSTP_XDATA
1002
{
1000
_OWNERHANDLE=0000000064
1000
LCGoodLayer=!VSCHEMES
1000
LCBadLayer=!VSCHEMES_DISABLED
1000
LCExpression=VSCHEMALevel2start=2
1002
}
0
LINE
5
A1
100
AcDbEntity
8
!VSCHEMES_DISABLED
62
0
370
25
100
AcDbLine
6
ByLayer
10
-12.5000000000
20
44.5000000000
30
0.0000000000
11
-7.5000000000
21
48.0000000000
31
0.0000000000
1001
DSTP_XDATA
1002
{
1000
_OWNERHANDLE=0000000064
1000
LCGoodLayer=!VSCHEMES
1000
LCBadLayer=!VSCHEMES_DISABLED
1000
LCExpression=(VSCHEMALevel2start=1)or(VSCHEMALevel1start=5)
1002
}
0
LINE
5
A2
100
AcDbEntity
8
!VSCHEMES_DISABLED
62
0
370
25
100
AcDbLine
6
ByLayer
10
-7.5000000000
20
48.0000000000
30
0.0000000000
11
-7.5000000000
21
70.9999996233
31
0.0000000000
1001
DSTP_XDATA
1002
{
1000
_OWNERHANDLE=0000000064
1000
LCGoodLayer=!VSCHEMES
1000
LCBadLayer=!VSCHEMES_DISABLED
1000
LCExpression=VSCHEMALevel2start=3
1002
}
0
LINE
5
A3
100
AcDbEntity
8
!VSCHEMES_DISABLED
62
0
370
25
100
AcDbLine
6
ByLayer
10
-7.5000000000
20
70.9999996233
30
0.0000000000
11
-6.0000000000
21
73.4999996233
31
0.0000000000
1001
DSTP_XDATA
1002
{
1000
_OWNERHANDLE=0000000064
1000
LCGoodLayer=!VSCHEMES
1000
LCBadLayer=!VSCHEMES_DISABLED
1000
LCExpression=VSCHEMALevel2start=3
1002
}
0
LINE
5
A4
100
AcDbEntity
8
!VSCHEMES_DISABLED
62
0
370
25
100
AcDbLine
6
ByLayer
10
-6.0000000000
20
73.4999996233
30
0.0000000000
11
11.0000000000
21
73.4999996206
31
0.0000000000
1001
DSTP_XDATA
1002
{
1000
_OWNERHANDLE=0000000064
1000
LCGoodLayer=!VSCHEMES
1000
LCBadLayer=!VSCHEMES_DISABLED
1000
LCExpression=VSCHEMALevel2start=3
1002
}
0
LINE
5
A5
100
AcDbEntity
8
!VSCHEMES_DISABLED
62
0
370
25
100
AcDbLine
6
Continuous
10
11.0000000000
20
73.4999996206
30
0.0000000000
11
12.5000000000
21
70.9999996214
31
0.0000000000
1001
DSTP_XDATA
1002
{
1000
_OWNERHANDLE=0000000064
1000
LCGoodLayer=!VSCHEMES
1000
LCBadLayer=!VSCHEMES_DISABLED
1000
LCExpression=VSCHEMALevel2finish=3
1002
}
0
LINE
5
A6
100
AcDbEntity
8
!VSCHEMES_DISABLED
62
0
370
25
100
AcDbLine
6
Continuous
10
12.5000000000
20
70.9999996214
30
0.0000000000
11
12.5000000000
21
42.5000000000
31
0.0000000000
1001
DSTP_XDATA
1002
{
1000
_OWNERHANDLE=0000000064
1000
LCGoodLayer=!VSCHEMES
1000
LCBadLayer=!VSCHEMES_DISABLED
1000
LCExpression=VSCHEMALevel2finish=3
1002
}
0
LINE
5
A7
100
AcDbEntity
8
!VSCHEMES_DISABLED
62
0
370
25
100
AcDbLine
6
Continuous
10
11.0000000000
20
74.9999997475
30
0.0000000000
11
12.5000000000
21
72.4999997480
31
0.0000000000
1001
DSTP_XDATA
1002
{
1000
_OWNERHANDLE=0000000064
1000
LCGoodLayer=!VSCHEMES
1000
LCBadLayer=!VSCHEMES_DISABLED
1000
LCExpression=VSCHEMALevel2finish=2
1002
}
0
LINE
5
A8
100
AcDbEntity
8
!VSCHEMES_DISABLED
62
0
370
25
100
AcDbLine
6
Continuous
10
12.5000000000
20
72.4999997480
30
0.0000000000
11
12.5000000000
21
42.5000000000
31
0.0000000000
1001
DSTP_XDATA
1002
{
1000
_OWNERHANDLE=0000000064
1000
LCGoodLayer=!VSCHEMES
1000
LCBadLayer=!VSCHEMES_DISABLED
1000
LCExpression=VSCHEMALevel2finish=2
1002
}
0
LINE
5
A9
100
AcDbEntity
8
!VSCHEMES_DISABLED
62
0
370
25
100
AcDbLine
6
Continuous
10
11.0000000000
20
76.4999998741
30
0.0000000000
11
12.5000000000
21
73.9999998741
31
0.0000000000
1001
DSTP_XDATA
1002
{
1000
_OWNERHANDLE=0000000064
1000
LCGoodLayer=!VSCHEMES
1000
LCBadLayer=!VSCHEMES_DISABLED
1000
LCExpression=VSCHEMALevel2finish=1
1002
}
0
LINE
5
AA
100
AcDbEntity
8
!VSCHEMES_DISABLED
62
0
370
25
100
AcDbLine
6
Continuous
10
12.5000000000
20
73.9999998741
30
0.0000000000
11
12.5000000000
21
42.5000000000
31
0.0000000000
1001
DSTP_XDATA
1002
{
1000
_OWNERHANDLE=0000000064
1000
LCGoodLayer=!VSCHEMES
1000
LCBadLayer=!VSCHEMES_DISABLED
1000
LCExpression=VSCHEMALevel2finish=1
1002
}
0
LINE
5
AB
100
AcDbEntity
8
!VSCHEMES_DISABLED
62
0
370
25
100
AcDbLine
6
ByLayer
10
-12.4999998604
20
78.0000000000
30
0.0000000000
11
11.0000000000
21
78.0000000000
31
0.0000000000
1001
DSTP_XDATA
1002
{
1000
_OWNERHANDLE=0000000064
1000
LCGoodLayer=!VSCHEMES
1000
LCBadLayer=!VSCHEMES_DISABLED
1000
LCExpression=VSCHEMALevel2start=4
1002
}
0
LINE
5
AC
100
AcDbEntity
8
!VSCHEMES
62
0
370
25
100
AcDbLine
6
ByLayer
10
12.5000000000
20
113.5000000000
30
0.0000000000
11
11.0000000000
21
116.0000000000
31
0.0000000000
1001
DSTP_XDATA
1002
{
1000
_OWNERHANDLE=0000000064
1000
LCGoodLayer=!VSCHEMES
1000
LCBadLayer=!VSCHEMES_DISABLED
1000
LCExpression=(VSCHEMALevel0start=0)or(VSCHEMALevel0start=1)
1002
}
0
LINE
5
AD
100
AcDbEntity
8
!VSCHEMES
62
0
370
25
100
AcDbLine
6
ByLayer
10
11.0000000000
20
116.0000000000
30
0.0000000000
11
14.0000000000
21
116.0000000000
31
0.0000000000
1001
DSTP_XDATA
1002
{
1000
_OWNERHANDLE=0000000064
1000
LCGoodLayer=!VSCHEMES
1000
LCBadLayer=!VSCHEMES_DISABLED
1000
LCExpression=(VSCHEMALevel0start=0)or(VSCHEMALevel0start=1)
1002
}
0
LINE
5
AE
100
AcDbEntity
8
!VSCHEMES
62
0
370
25
100
AcDbLine
6
ByLayer
10
14.0000000000
20
116.0000000000
30
0.0000000000
11
12.5000000000
21
113.5000000000
31
0.0000000000
1001
DSTP_XDATA
1002
{
1000
_OWNERHANDLE=0000000064
1000
LCGoodLayer=!VSCHEMES
1000
LCBadLayer=!VSCHEMES_DISABLED
1000
LCExpression=(VSCHEMALevel0start=0)or(VSCHEMALevel0start=1)
1002
}
0
LINE
5
AF
100
AcDbEntity
8
!VSCHEMES_DISABLED
62
0
370
25
100
AcDbLine
6
Continuous
10
11.0000000000
20
78.0000000000
30
0.0000000000
11
12.5000000000
21
75.5000000000
31
0.0000000000
1001
DSTP_XDATA
1002
{
1000
_OWNERHANDLE=0000000064
1000
LCGoodLayer=!VSCHEMES
1000
LCBadLayer=!VSCHEMES_DISABLED
1000
LCExpression=VSCHEMALevel2finish=4
1002
}
0
LINE
5
B0
100
AcDbEntity
8
!VSCHEMES_DISABLED
62
0
370
25
100
AcDbLine
6
Continuous
10
12.5000000000
20
75.5000000000
30
0.0000000000
11
12.5000000000
21
42.5000000007
31
0.0000000000
1001
DSTP_XDATA
1002
{
1000
_OWNERHANDLE=0000000064
1000
LCGoodLayer=!VSCHEMES
1000
LCBadLayer=!VSCHEMES_DISABLED
1000
LCExpression=VSCHEMALevel2finish=4
1002
}
0
LINE
5
B1
100
AcDbEntity
8
!VSCHEMES_DISABLED
62
0
370
25
100
AcDbLine
6
ByLayer
10
-14.0000000000
20
74.9999998726
30
0.0000000000
11
11.0000000000
21
74.9999998726
31
0.0000000000
1001
DSTP_XDATA
1002
{
1000
_OWNERHANDLE=0000000064
1000
LCGoodLayer=!VSCHEMES
1000
LCBadLayer=!VSCHEMES_DISABLED
1000
LCExpression=VSCHEMALevel2continue=2
1002
}
0
LINE
5
B2
100
AcDbEntity
8
!VSCHEMES_DISABLED
62
0
370
25
100
AcDbLine
6
ByLayer
10
-14.0000000000
20
76.4999998733
30
0.0000000000
11
11.0000000000
21
76.4999998733
31
0.0000000000
1001
DSTP_XDATA
1002
{
1000
_OWNERHANDLE=0000000064
1000
LCGoodLayer=!VSCHEMES
1000
LCBadLayer=!VSCHEMES_DISABLED
1000
LCExpression=VSCHEMALevel2continue=1
1002
}
0
LINE
5
B3
100
AcDbEntity
8
!VSCHEMES_DISABLED
62
0
370
25
100
AcDbLine
6
ByLayer
10
-14.0000000000
20
77.9999998738
30
0.0000000000
11
11.0000000000
21
77.9999998738
31
0.0000000000
1001
DSTP_XDATA
1002
{
1000
_OWNERHANDLE=0000000064
1000
LCGoodLayer=!VSCHEMES
1000
LCBadLayer=!VSCHEMES_DISABLED
1000
LCExpression=VSCHEMALevel2continue=4
1002
}
0
LINE
5
B4
100
AcDbEntity
8
!VSCHEMES_DISABLED
62
0
370
25
100
AcDbLine
6
ByLayer
10
-14.0000000000
20
73.4999994944
30
0.0000000000
11
11.0000000000
21
73.4999994944
31
0.0000000000
1001
DSTP_XDATA
1002
{
1000
_OWNERHANDLE=0000000064
1000
LCGoodLayer=!VSCHEMES
1000
LCBadLayer=!VSCHEMES_DISABLED
1000
LCExpression=VSCHEMALevel2continue=3
1002
}
0
LINE
5
B5
100
AcDbEntity
8
!VSCHEMES_DISABLED
62
0
370
25
100
AcDbLine
6
ByLayer
10
-14.0000000000
20
114.4999999994
30
0.0000000000
11
11.0000000000
21
114.4999999994
31
0.0000000000
1001
DSTP_XDATA
1002
{
1000
_OWNERHANDLE=0000000064
1000
LCGoodLayer=!VSCHEMES
1000
LCBadLayer=!VSCHEMES_DISABLED
1000
LCExpression=VSCHEMALevel1continue=2
1002
}
0
LINE
5
B6
100
AcDbEntity
8
!VSCHEMES_DISABLED
62
0
370
25
100
AcDbLine
6
ByLayer
10
-14.0000000000
20
116.0000000000
30
0.0000000000
11
11.0000000000
21
116.0000000000
31
0.0000000000
1001
DSTP_XDATA
1002
{
1000
_OWNERHANDLE=0000000064
1000
LCGoodLayer=!VSCHEMES
1000
LCBadLayer=!VSCHEMES_DISABLED
1000
LCExpression=VSCHEMALevel1continue=1
1002
}
0
LINE
5
B7
100
AcDbEntity
8
!VSCHEMES_DISABLED
62
0
370
25
100
AcDbLine
6
ByLayer
10
-14.0000000000
20
112.9999996211
30
0.0000000000
11
11.0000000000
21
112.9999999988
31
0.0000000000
1001
DSTP_XDATA
1002
{
1000
_OWNERHANDLE=0000000064
1000
LCGoodLayer=!VSCHEMES
1000
LCBadLayer=!VSCHEMES_DISABLED
1000
LCExpression=VSCHEMALevel1continue=3
1002
}
0
LINE
5
B8
100
AcDbEntity
8
!VSCHEMES
62
0
370
25
100
AcDbLine
6
ByLayer
10
11.5000000000
20
158.0000000000
30
0.0000000000
11
13.5000000000
21
160.5000000000
31
0.0000000000
1001
DSTP_XDATA
1002
{
1000
_OWNERHANDLE=0000000064
1000
LCGoodLayer=!VSCHEMES
1000
LCBadLayer=!VSCHEMES_DISABLED
1000
LCExpression=(VSCHEMAPhase3=true)and(VSCHEMALevel0start=0)
1002
}
0
LINE
5
B9
100
AcDbEntity
8
!VSCHEMES
62
0
370
25
100
AcDbLine
6
ByLayer
10
11.5000000000
20
157.0000000000
30
0.0000000000
11
13.5000000000
21
159.5000000000
31
0.0000000000
1001
DSTP_XDATA
1002
{
1000
_OWNERHANDLE=0000000064
1000
LCGoodLayer=!VSCHEMES
1000
LCBadLayer=!VSCHEMES_DISABLED
1000
LCExpression=VSCHEMALevel0start=0
1002
}
0
LINE
5
BA
100
AcDbEntity
8
!VSCHEMES
62
0
370
25
100
AcDbLine
6
ByLayer
10
11.5000000000
20
156.0000000000
30
0.0000000000
11
13.5000000000
21
158.5000000000
31
0.0000000000
1001
DSTP_XDATA
1002
{
1000
_OWNERHANDLE=0000000064
1000
LCGoodLayer=!VSCHEMES
1000
LCBadLayer=!VSCHEMES_DISABLED
1000
LCExpression=(VSCHEMAPhase3=true)and(VSCHEMALevel0start=0)
1002
}
0
LINE
5
BB
100
AcDbEntity
8
!VSCHEMES_DISABLED
62
0
370
25
100
AcDbLine
6
ByLayer
10
-7.5000000000
20
74.5000000000
30
0.0000000000
11
-7.5000000000
21
83.0000000000
31
0.0000000000
1001
DSTP_XDATA
1002
{
1000
_OWNERHANDLE=0000000064
1000
LCGoodLayer=!VSCHEMES
1000
LCBadLayer=!VSCHEMES_DISABLED
1000
LCExpression=VSCHEMALevel1start=5
1002
}
0
LINE
5
BC
100
AcDbEntity
8
!VSCHEMES
62
0
370
25
100
AcDbLine
6
ByLayer
10
12.5000000000
20
150.0000000000
30
0.0000000000
11
12.5000000000
21
145.0000000000
31
0.0000000000
1001
DSTP_XDATA
1002
{
1000
_OWNERHANDLE=0000000064
1000
LCGoodLayer=!VSCHEMES
1000
LCBadLayer=!VSCHEMES_DISABLED
1000
LCExpression=VSCHEMACircuitBreaker1=0
1002
}
0
LINE
5
BD
100
AcDbEntity
8
!VSCHEMES
62
0
370
25
100
AcDbLine
6
ByLayer
10
12.5000000000
20
130.0000000000
30
0.0000000000
11
12.5000000000
21
125.0000000000
31
0.0000000000
1001
DSTP_XDATA
1002
{
1000
_OWNERHANDLE=0000000064
1000
LCGoodLayer=!VSCHEMES
1000
LCBadLayer=!VSCHEMES_DISABLED
1000
LCExpression=VSCHEMACircuitBreaker2=0
1002
}
0
LINE
5
BE
100
AcDbEntity
8
!VSCHEMES
62
0
370
25
100
AcDbLine
6
ByLayer
10
12.5000000000
20
125.0000000000
30
0.0000000000
11
12.5000000000
21
116.0000000000
31
0.0000000000
1001
DSTP_XDATA
1002
{
1000
_OWNERHANDLE=0000000064
1000
LCGoodLayer=!VSCHEMES
1000
LCBadLayer=!VSCHEMES_DISABLED
1000
LCExpression=(VSCHEMALevel0start=0)or(VSCHEMALevel0start=1)
1002
}
0
LINE
5
BF
100
AcDbEntity
8
!VSCHEMES
62
0
370
25
100
AcDbLine
6
ByLayer
10
12.5000000000
20
145.0000000000
30
0.0000000000
11
12.5000000000
21
139.0000000000
31
0.0000000000
1001
DSTP_XDATA
1002
{
1000
_OWNERHANDLE=0000000064
1000
LCGoodLayer=!VSCHEMES
1000
LCBadLayer=!VSCHEMES_DISABLED
1000
LCExpression=VSCHEMALevel0start=0
1002
}
0
LINE
5
C0
100
AcDbEntity
8
!VSCHEMES
62
0
370
25
100
AcDbLine
6
ByLayer
10
15.0000000000
20
150.0000000000
30
0.0000000000
11
15.0000000000
21
145.0000000000
31
0.0000000000
1001
DSTP_XDATA
1002
{
1000
_OWNERHANDLE=0000000064
1000
LCGoodLayer=!VSCHEMES
1000
LCBadLayer=!VSCHEMES_DISABLED
1000
LCExpression=(VSCHEMACircuitBreaker1=0)or(VSCHEMACircuitBreaker1=1)
1002
}
0
LINE
5
C1
100
AcDbEntity
8
!VSCHEMES
62
0
370
25
100
AcDbLine
6
ByLayer
10
15.0000000000
20
145.0000000000
30
0.0000000000
11
15.0000000000
21
141.5000000000
31
0.0000000000
1001
DSTP_XDATA
1002
{
1000
_OWNERHANDLE=0000000064
1000
LCGoodLayer=!VSCHEMES
1000
LCBadLayer=!VSCHEMES_DISABLED
1000
LCExpression=(VSCHEMABusn=true)and(VSCHEMALevel0start=0)
1002
}
0
LINE
5
C2
100
AcDbEntity
8
!VSCHEMES
62
0
370
25
100
AcDbLine
6
ByLayer
10
15.0000000000
20
130.0000000000
30
0.0000000000
11
15.0000000000
21
125.0000000000
31
0.0000000000
1001
DSTP_XDATA
1002
{
1000
_OWNERHANDLE=0000000064
1000
LCGoodLayer=!VSCHEMES
1000
LCBadLayer=!VSCHEMES_DISABLED
1000
LCExpression=(VSCHEMACircuitBreaker2=0)or(VSCHEMACircuitBreaker2=1)
1002
}
0
LINE
5
C3
100
AcDbEntity
8
!VSCHEMES
62
0
370
25
100
AcDbLine
6
ByLayer
10
15.0000000000
20
130.0000000000
30
0.0000000000
11
15.0000000000
21
141.5000000000
31
0.0000000000
1001
DSTP_XDATA
1002
{
1000
_OWNERHANDLE=0000000064
1000
LCGoodLayer=!VSCHEMES
1000
LCBadLayer=!VSCHEMES_DISABLED
1000
LCExpression=(VSCHEMABusn=true)and(VSCHEMALevel0start=0)or(VSCHEMALevel0start=1)
1002
}
0
ENDBLK
5
C4
100
AcDbEntity
8
0
100
AcDbBlockEnd
1001
DSTP_XDATA
1002
{
1002
}
0
BLOCK
5
C5
100
AcDbEntity
8
0
100
AcDbBlockBegin
2
VSCHEMA_PANEL_IN
70
2
10
0
20
0
30
0
3
VSCHEMA_PANEL_IN
1

0
ENDBLK
5
C6
100
AcDbEntity
8
0
100
AcDbBlockEnd
1001
DSTP_XDATA
1002
{
1002
}
0
BLOCK
5
C7
100
AcDbEntity
8
0
100
AcDbBlockBegin
2
DEVICE_VSCHEMA_PANEL_IN
70
2
10
0
20
0
30
0
3
DEVICE_VSCHEMA_PANEL_IN
1

0
LINE
5
C8
100
AcDbEntity
8
!VSCHEMES
62
0
370
30
100
AcDbLine
6
ByLayer
10
0.0000000000
20
171.0000000000
30
0.0000000000
11
25.0000000054
21
171.0000000000
31
0.0000000000
1001
DSTP_XDATA
1002
{
1000
_OWNERHANDLE=0000000064
1002
}
0
LINE
5
C9
100
AcDbEntity
8
!VSCHEMES
62
0
370
30
100
AcDbLine
6
ByLayer
10
0.0000000000
20
166.0000000000
30
0.0000000000
11
25.0000000054
21
166.0000000000
31
0.0000000000
1001
DSTP_XDATA
1002
{
1000
_OWNERHANDLE=0000000064
1002
}
0
LINE
5
CA
100
AcDbEntity
8
!VSCHEMES
62
0
370
30
100
AcDbLine
6
ACAD_ISO02W100
48
0.4000000000
10
0.0000000000
20
161.0000000000
30
0.0000000000
11
25.0000000054
21
161.0000000000
31
0.0000000000
1001
DSTP_XDATA
1002
{
1000
_OWNERHANDLE=0000000064
1002
}
0
CIRCLE
5
CB
100
AcDbEntity
8
!VSCHEMES
62
0
370
30
100
AcDbCircle
6
ByLayer
10
4.0000000000
20
171.0000000000
30
0.0000000000
40
0.5000000000
1001
DSTP_XDATA
1002
{
1000
_OWNERHANDLE=0000000064
1002
}
0
CIRCLE
5
CC
100
AcDbEntity
8
!VSCHEMES
62
0
370
30
100
AcDbCircle
6
ByLayer
10
6.5000000000
20
166.0000000000
30
0.0000000000
40
0.5000000000
1001
DSTP_XDATA
1002
{
1000
_OWNERHANDLE=0000000064
1002
}
0
CIRCLE
5
CD
100
AcDbEntity
8
!VSCHEMES
62
0
370
30
100
AcDbCircle
6
ByLayer
10
9.0000000000
20
161.0000000000
30
0.0000000000
40
0.5000000000
1001
DSTP_XDATA
1002
{
1000
_OWNERHANDLE=0000000064
1002
}
0
LINE
5
CE
100
AcDbEntity
8
!VSCHEMES
62
0
100
AcDbLine
6
Continuous
10
44.0000000097
20
221.0000000000
30
0.0000000000
11
4.0000000139
21
221.0000000097
31
0.0000000000
1001
DSTP_XDATA
1002
{
1000
_OWNERHANDLE=0000000064
1002
}
0
MTEXT
5
CF
100
AcDbEntity
8
!VSCHEMES
62
0
100
AcDbMText
6
ByLayer
10
11.0000000043
20
223.0000000000
30
0.0000000000
40
2.2000000000
41
70.0000000000
71
4
1
??
7
!VTEXT
11
1.0000000000
21
0.0000000000
31
0.0000000000
73
2
44
0.9000000000
1001
DSTP_XDATA
1002
{
1000
_TMPL1=@@[VSCHEMACable11]
1000
_OWNERHANDLE=0000000064
1002
}
0
MTEXT
5
D0
100
AcDbEntity
8
!VSCHEMES
62
0
100
AcDbMText
6
ByLayer
10
17.0000000043
20
205.6985350422
30
0.0000000000
40
2.2000000000
41
70.0000000000
71
4
1
??
7
!VTEXT
11
1.0000000000
21
0.0000000000
31
0.0000000000
73
2
44
0.9000000000
1001
DSTP_XDATA
1002
{
1000
_TMPL1=@@[VSCHEMAShieldname]
1000
_OWNERHANDLE=0000000064
1002
}
0
MTEXT
5
D1
100
AcDbEntity
8
!VSCHEMES
62
0
100
AcDbMText
6
ByLayer
10
17.0000000043
20
210.6985350422
30
0.0000000000
40
2.2000000000
41
70.0000000000
71
4
1
??
7
!VTEXT
11
1.0000000000
21
0.0000000000
31
0.0000000000
73
2
44
0.9000000000
1001
DSTP_XDATA
1002
{
1000
_TMPL1=@@[VSCHEMAShieldpos]
1000
_OWNERHANDLE=0000000064
1002
}
0
MTEXT
5
D2
100
AcDbEntity
8
!VSCHEMES
62
0
100
AcDbMText
6
ByLayer
10
17.0000000043
20
200.6985350422
30
0.0000000000
40
2.2000000000
41
70.0000000000
71
4
1
Py
7
!VTEXT
11
1.0000000000
21
0.0000000000
31
0.0000000000
73
2
44
0.9000000000
1001
DSTP_XDATA
1002
{
1000
_TMPL1=@@[VSCHEMAPy]
1000
_OWNERHANDLE=0000000064
1002
}
0
LWPOLYLINE
5
D3
100
AcDbEntity
8
!VSCHEMES
62
0
100
AcDbPolyline
6
ByLayer
90
2
70
0
38
0.0000000000
10
4.0000000097
20
225.9999999903
40
0.0000000000
41
0.0000000000
10
4.0000000000
20
207.0000000000
40
0.0000000000
41
0.0000000000
1001
DSTP_XDATA
1002
{
1000
_OWNERHANDLE=0000000064
1002
}
0
LWPOLYLINE
5
D4
100
AcDbEntity
8
!VSCHEMES
62
0
100
AcDbPolyline
6
ByLayer
90
3
70
1
38
0.0000000000
10
2.5000000097
20
215.9999999826
40
0.0000000000
41
0.0000000000
10
4.0000000084
20
218.4999999804
40
0.0000000000
41
0.0000000000
10
5.5000000097
20
215.9999999826
40
0.0000000000
41
0.0000000000
1001
DSTP_XDATA
1002
{
1000
_OWNERHANDLE=0000000064
1002
}
0
LWPOLYLINE
5
D5
100
AcDbEntity
8
!VSCHEMES
62
0
100
AcDbPolyline
6
ByLayer
90
3
70
0
38
0.0000000000
10
4.0000000079
20
215.9999999844
40
0.0000000000
41
0.0000000000
10
6.5000000097
20
213.4999999903
40
0.0000000000
41
0.0000000000
10
6.5000000097
20
207.0000000000
40
0.0000000000
41
0.0000000000
1001
DSTP_XDATA
1002
{
1000
_OWNERHANDLE=0000000064
1002
}
0
LWPOLYLINE
5
D6
100
AcDbEntity
8
!VSCHEMES
62
0
100
AcDbPolyline
6
ACAD_ISO02W100
48
0.2500000000
90
3
70
0
38
0.0000000000
10
4.0000000079
20
215.9999999826
40
0.0000000000
41
0.0000000000
10
9.0000000097
20
213.4999999826
40
0.0000000000
41
0.0000000000
10
9.0000000097
20
161.0000000000
40
0.0000000000
41
0.0000000000
1001
DSTP_XDATA
1002
{
1000
_OWNERHANDLE=0000000064
1002
}
0
LINE
5
D7
100
AcDbEntity
8
!VSCHEMES
62
0
100
AcDbLine
6
ByLayer
10
3.2500000139
20
220.2500000097
30
0.0000000000
11
4.7500000139
21
221.7500000097
31
0.0000000000
1001
DSTP_XDATA
1002
{
1000
_OWNERHANDLE=0000000064
1002
}
0
MTEXT
5
D8
100
AcDbEntity
8
!VSCHEMES
62
0
100
AcDbMText
6
ByLayer
10
11.0000000043
20
218.0000000000
30
0.0000000000
40
2.2000000000
41
70.0000000000
71
4
1
??
7
!VTEXT
11
1.0000000000
21
0.0000000000
31
0.0000000000
73
2
44
0.9000000000
1001
DSTP_XDATA
1002
{
1000
_TMPL1=@@[VSCHEMACable12]
1000
_OWNERHANDLE=0000000064
1002
}
0
MTEXT
5
D9
100
AcDbEntity
8
!VSCHEMES
62
0
100
AcDbMText
6
ByLayer
10
17.0000000043
20
195.6985350422
30
0.0000000000
40
2.2000000000
41
70.0000000000
71
4
1
Kc
7
!VTEXT
11
1.0000000000
21
0.0000000000
31
0.0000000000
73
2
44
0.9000000000
1001
DSTP_XDATA
1002
{
1000
_TMPL1=@@[VSCHEMAKc]
1000
_OWNERHANDLE=0000000064
1002
}
0
MTEXT
5
DA
100
AcDbEntity
8
!VSCHEMES
62
0
100
AcDbMText
6
ByLayer
10
17.0000000043
20
190.6985350422
30
0.0000000000
40
2.2000000000
41
70.0000000000
71
4
1
Pp
7
!VTEXT
11
1.0000000000
21
0.0000000000
31
0.0000000000
73
2
44
0.9000000000
1001
DSTP_XDATA
1002
{
1000
_TMPL1=@@[VSCHEMAPp]
1000
_OWNERHANDLE=0000000064
1002
}
0
MTEXT
5
DB
100
AcDbEntity
8
!VSCHEMES
62
0
100
AcDbMText
6
ByLayer
10
17.0000000043
20
185.6985350422
30
0.0000000000
40
2.2000000000
41
70.0000000000
71
4
1
Cosf
7
!VTEXT
11
1.0000000000
21
0.0000000000
31
0.0000000000
73
2
44
0.9000000000
1001
DSTP_XDATA
1002
{
1000
_TMPL1=@@[VSCHEMACosf]
1000
_OWNERHANDLE=0000000064
1002
}
0
MTEXT
5
DC
100
AcDbEntity
8
!VSCHEMES
62
0
100
AcDbMText
6
ByLayer
10
17.0000000043
20
180.6985350422
30
0.0000000000
40
2.2000000000
41
70.0000000000
71
4
1
Ip
7
!VTEXT
11
1.0000000000
21
0.0000000000
31
0.0000000000
73
2
44
0.9000000000
1001
DSTP_XDATA
1002
{
1000
_TMPL1=@@[VSCHEMAIp]
1000
_OWNERHANDLE=0000000064
1002
}
0
MTEXT
5
DD
100
AcDbEntity
8
!VSCHEMES
62
0
100
AcDbMText
6
ByLayer
10
17.0000000043
20
175.6985350422
30
0.0000000000
40
2.2000000000
41
35.0000000000
71
4
1

7
!VTEXT
11
1.0000000000
21
0.0000000000
31
0.0000000000
73
2
44
0.9000000000
1001
DSTP_XDATA
1002
{
1000
_TMPL1=@@[VSCHEMAAdd]
1000
_OWNERHANDLE=0000000064
1002
}
0
MTEXT
5
DE
100
AcDbEntity
8
!VSCHEMES
62
0
100
AcDbMText
6
ByLayer
10
1.0000000000
20
172.5000000000
30
0.0000000000
40
2.2000000000
41
35.0000000000
71
6
1
L1,L2,L3
7
!VTEXT
11
1.0000000000
21
0.0000000000
31
0.0000000000
73
2
44
0.9000000000
1001
DSTP_XDATA
1002
{
1000
_OWNERHANDLE=0000000064
1002
}
0
MTEXT
5
DF
100
AcDbEntity
8
!VSCHEMES
62
0
100
AcDbMText
6
ByLayer
10
1.0000000000
20
167.5000000000
30
0.0000000000
40
2.2000000000
41
35.0000000000
71
6
1
N
7
!VTEXT
11
1.0000000000
21
0.0000000000
31
0.0000000000
73
2
44
0.9000000000
1001
DSTP_XDATA
1002
{
1000
_OWNERHANDLE=0000000064
1002
}
0
MTEXT
5
E0
100
AcDbEntity
8
!VSCHEMES
62
0
100
AcDbMText
6
ByLayer
10
1.0000000000
20
162.5000000000
30
0.0000000000
40
2.2000000000
41
35.0000000000
71
6
1
PE
7
!VTEXT
11
1.0000000000
21
0.0000000000
31
0.0000000000
73
2
44
0.9000000000
1001
DSTP_XDATA
1002
{
1000
_OWNERHANDLE=0000000064
1002
}
0
LWPOLYLINE
5
E1
100
AcDbEntity
8
!VSCHEMES
62
0
100
AcDbPolyline
6
ByLayer
90
2
70
0
38
0.0000000000
10
3.0000000000
20
172.0000000000
40
0.0000000000
41
0.0000000000
10
5.0000000000
20
174.5000000000
40
0.0000000000
41
0.0000000000
1001
DSTP_XDATA
1002
{
1000
_OWNERHANDLE=0000000064
1000
LCGoodLayer=!VSCHEMES
1000
LCBadLayer=!VSCHEMES_DISABLED
1000
LCExpression=VSCHEMAPhase3=true
1002
}
0
LWPOLYLINE
5
E2
100
AcDbEntity
8
0
62
0
100
AcDbPolyline
6
ByLayer
90
2
70
0
38
0.0000000000
10
3.0000000000
20
173.0000000000
40
0.0000000000
41
0.0000000000
10
5.0000000000
20
175.5000000000
40
0.0000000000
41
0.0000000000
1001
DSTP_XDATA
1002
{
1000
_OWNERHANDLE=0000000064
1002
}
0
LWPOLYLINE
5
E3
100
AcDbEntity
8
!VSCHEMES
62
0
100
AcDbPolyline
6
ByLayer
90
2
70
0
38
0.0000000000
10
3.0000000000
20
174.0000000000
40
0.0000000000
41
0.0000000000
10
5.0000000000
20
176.5000000000
40
0.0000000000
41
0.0000000000
1001
DSTP_XDATA
1002
{
1000
_OWNERHANDLE=0000000064
1000
LCGoodLayer=!VSCHEMES
1000
LCBadLayer=!VSCHEMES_DISABLED
1000
LCExpression=VSCHEMAPhase3=true
1002
}
0
LWPOLYLINE
5
E4
100
AcDbEntity
8
!VSCHEMES
62
0
100
AcDbPolyline
6
ByLayer
90
2
70
0
38
0.0000000000
10
4.0000000000
20
207.0000000000
40
0.0000000000
41
0.0000000000
10
4.0000000000
20
202.0000000000
40
0.0000000000
41
0.0000000000
1001
DSTP_XDATA
1002
{
1000
_OWNERHANDLE=0000000064
1000
LCGoodLayer=!VSCHEMES
1000
LCBadLayer=!VSCHEMES_DISABLED
1000
LCExpression=VSCHEMACircuitBreaker1=0
1002
}
0
LWPOLYLINE
5
E5
100
AcDbEntity
8
!VSCHEMES
62
0
100
AcDbPolyline
6
ByLayer
90
2
70
0
38
0.0000000000
10
4.0000000000
20
202.0000000000
40
0.0000000000
41
0.0000000000
10
4.0000000000
20
187.0000000000
40
0.0000000000
41
0.0000000000
1001
DSTP_XDATA
1002
{
1000
_OWNERHANDLE=0000000064
1002
}
0
LWPOLYLINE
5
E6
100
AcDbEntity
8
!VSCHEMES
62
0
100
AcDbPolyline
6
ByLayer
90
2
70
0
38
0.0000000000
10
4.0000000000
20
187.0000000000
40
0.0000000000
41
0.0000000000
10
4.0000000000
20
182.0000000000
40
0.0000000000
41
0.0000000000
1001
DSTP_XDATA
1002
{
1000
_OWNERHANDLE=0000000064
1000
LCGoodLayer=!VSCHEMES
1000
LCBadLayer=!VSCHEMES_DISABLED
1000
LCExpression=VSCHEMACircuitBreaker2=0
1002
}
0
LWPOLYLINE
5
E7
100
AcDbEntity
8
!VSCHEMES
62
0
100
AcDbPolyline
6
ByLayer
90
2
70
0
38
0.0000000000
10
4.0000000000
20
182.0000000000
40
0.0000000000
41
0.0000000000
10
4.0000000000
20
171.0000000000
40
0.0000000000
41
0.0000000000
1001
DSTP_XDATA
1002
{
1000
_OWNERHANDLE=0000000064
1002
}
0
LWPOLYLINE
5
E8
100
AcDbEntity
8
!VSCHEMES
62
0
100
AcDbPolyline
6
ByLayer
90
2
70
0
38
0.0000000000
10
6.5000000097
20
207.0000000000
40
0.0000000000
41
0.0000000000
10
6.5000000097
20
202.0000000000
40
0.0000000000
41
0.0000000000
1001
DSTP_XDATA
1002
{
1000
_OWNERHANDLE=0000000064
1000
LCGoodLayer=!VSCHEMES
1000
LCBadLayer=!VSCHEMES_DISABLED
1000
LCExpression=(VSCHEMACircuitBreaker1=0)or(VSCHEMACircuitBreaker1=1)
1002
}
0
LWPOLYLINE
5
E9
100
AcDbEntity
8
!VSCHEMES
62
0
100
AcDbPolyline
6
ByLayer
90
2
70
0
38
0.0000000000
10
6.5000000097
20
187.0000000000
40
0.0000000000
41
0.0000000000
10
6.5000000097
20
182.0000000000
40
0.0000000000
41
0.0000000000
1001
DSTP_XDATA
1002
{
1000
_OWNERHANDLE=0000000064
1000
LCGoodLayer=!VSCHEMES
1000
LCBadLayer=!VSCHEMES_DISABLED
1000
LCExpression=(VSCHEMACircuitBreaker2=0)or(VSCHEMACircuitBreaker2=1)
1002
}
0
LWPOLYLINE
5
EA
100
AcDbEntity
8
!VSCHEMES
62
0
100
AcDbPolyline
6
ByLayer
90
2
70
0
38
0.0000000000
10
6.5000000097
20
202.0000000000
40
0.0000000000
41
0.0000000000
10
6.5000000097
20
187.0000000000
40
0.0000000000
41
0.0000000000
1001
DSTP_XDATA
1002
{
1000
_OWNERHANDLE=0000000064
1002
}
0
LWPOLYLINE
5
EB
100
AcDbEntity
8
!VSCHEMES
62
0
100
AcDbPolyline
6
ByLayer
90
2
70
0
38
0.0000000000
10
6.5000000097
20
182.0000000000
40
0.0000000000
41
0.0000000000
10
6.5000000097
20
166.0000000000
40
0.0000000000
41
0.0000000000
1001
DSTP_XDATA
1002
{
1000
_OWNERHANDLE=0000000064
1002
}
0
ENDBLK
5
EC
100
AcDbEntity
8
0
100
AcDbBlockEnd
1001
DSTP_XDATA
1002
{
1002
}
0
ENDSEC
0
SECTION
2
ENTITIES
0
ENDSEC
0
SECTION
2
OBJECTS
0
DICTIONARY
5
ED
330
3
100
AcDbDictionary
281
1
3
ACAD_GROUP
350
EE
0
DICTIONARY
5
EE
330
ED
100
AcDbDictionary
281
1
0
ENDSEC
0
EOF
