<?xml version="1.0" encoding="UTF-8" standalone="no"?>
<!-- Created with Inkscape (http://www.inkscape.org/) -->

<svg
   xmlns:dc="http://purl.org/dc/elements/1.1/"
   xmlns:cc="http://creativecommons.org/ns#"
   xmlns:rdf="http://www.w3.org/1999/02/22-rdf-syntax-ns#"
   xmlns:svg="http://www.w3.org/2000/svg"
   xmlns="http://www.w3.org/2000/svg"
   xmlns:sodipodi="http://sodipodi.sourceforge.net/DTD/sodipodi-0.dtd"
   xmlns:inkscape="http://www.inkscape.org/namespaces/inkscape"
   width="16"
   height="16"
   viewBox="0 0 16 16"
   id="svg4225"
   version="1.1"
   inkscape:version="0.92.1 r15371"
   sodipodi:docname="cable.svg"
   inkscape:export-filename="default.png"
   inkscape:export-xdpi="96"
   inkscape:export-ydpi="96">
  <defs
     id="defs4227" />
  <sodipodi:namedview
     id="base"
     pagecolor="#ffffff"
     bordercolor="#666666"
     borderopacity="1.0"
     inkscape:pageopacity="0.0"
     inkscape:pageshadow="2"
     inkscape:zoom="45.254834"
     inkscape:cx="5.4596673"
     inkscape:cy="6.5984683"
     inkscape:document-units="px"
     inkscape:current-layer="layer1"
     showgrid="true"
     inkscape:snap-bbox="true"
     inkscape:bbox-paths="true"
     inkscape:bbox-nodes="true"
     inkscape:snap-bbox-edge-midpoints="true"
     inkscape:snap-bbox-midpoints="true"
     inkscape:object-paths="true"
     inkscape:snap-intersection-paths="true"
     inkscape:object-nodes="true"
     inkscape:snap-smooth-nodes="true"
     inkscape:snap-midpoints="true"
     inkscape:snap-object-midpoints="true"
     inkscape:snap-center="true"
     units="px"
     inkscape:window-width="2560"
     inkscape:window-height="1414"
     inkscape:window-x="-9"
     inkscape:window-y="-9"
     inkscape:window-maximized="1"
     showguides="true"
     inkscape:guide-bbox="true">
    <inkscape:grid
       type="xygrid"
       id="grid4241"
       spacingx="0.5"
       spacingy="0.5"
       empspacing="2"
       dotted="true" />
  </sodipodi:namedview>
  <metadata
     id="metadata4230">
    <rdf:RDF>
      <cc:Work
         rdf:about="">
        <dc:format>image/svg+xml</dc:format>
        <dc:type
           rdf:resource="http://purl.org/dc/dcmitype/StillImage" />
        <dc:title></dc:title>
      </cc:Work>
    </rdf:RDF>
  </metadata>
  <g
     inkscape:label="Ebene 1"
     inkscape:groupmode="layer"
     id="layer1"
     transform="translate(0,-1036.3622)">
    <path
       style="fill:#e3851b;stroke-width:0.18532389"
       d="m 14.460076,1041.0404 c -3.374566,0.5342 -6.5410828,3.1071 -9.0796838,5.7815 -0.515259,0.5452 -0.996342,1.0961 -1.4539125,1.6364 l 0.8214604,0.5012 c 0.4266848,-0.5013 0.8364707,-1.0038 1.3121563,-1.5067 2.4671376,-2.618 5.5532416,-5.0477 8.5453706,-5.5006 0.253843,-0.04 0.428563,-0.2759 0.388924,-0.526 -0.03964,-0.251 -0.279915,-0.4249 -0.534315,-0.3858 z"
       id="path6241"
       inkscape:connector-curvature="0" />
    <path
       style="fill:#d40000;fill-opacity:1;stroke-width:0.18532389"
       d="m 9.3615351,1036.3668 c -0.2551448,-0.037 -0.4879506,0.148 -0.519774,0.4 -0.4808843,3.8457 -2.601619,8.8783 -4.6089023,12.9149 -0.057529,0.1158 -0.1135429,0.2211 -0.170835,0.3352 l 0.7960169,0.4831 c 0.069177,-0.1376 0.1376308,-0.271 0.2071825,-0.4111 2.0244047,-4.0844 4.184273,-9.148 4.6997719,-13.2066 0.031633,-0.2547 -0.1488751,-0.4839 -0.40346,-0.5155 z"
       id="path6243"
       inkscape:connector-curvature="0" />
    <path
       style="fill:#49a94c;stroke-width:0.18532389"
       d="m 14.175206,1044.8079 c -2.364803,-0.067 -4.3889798,0.6464 -6.0737183,1.5822 l 0.8941563,0.5445 c 1.477498,-0.7462 3.206608,-1.2678 5.154118,-1.2041 0.256819,0 0.468901,-0.1943 0.476159,-0.4505 0.0078,-0.2547 -0.194081,-0.465 -0.450715,-0.4721 z"
       id="path6247"
       inkscape:connector-curvature="0" />
    <path
       style="fill:#31a9dc;stroke-width:0.18532389"
       d="m 2.9990008,1036.8346 c -0.1188018,0 -0.2352781,0.059 -0.3198608,0.155 -0.1684212,0.192 -0.1466642,0.4852 0.047253,0.6524 1.2094691,1.0468 1.8781293,2.3638 2.209947,3.7883 0.160149,0.6868 0.2186879,1.3964 0.2362609,2.1049 l 0.9195995,0.5589 c 0.016228,-0.9512 -0.029477,-1.9169 -0.2507999,-2.8729 -0.3623382,-1.5683 -1.1247991,-3.0838 -2.5043642,-4.2749 -0.096959,-0.083 -0.2192327,-0.1195 -0.3380347,-0.1109 z"
       id="path6249"
       inkscape:connector-curvature="0" />
    <path
       id="path6239"
       style="fill:#707070;fill-opacity:1;stroke:none;stroke-width:0.18532389;stroke-opacity:1"
       inkscape:connector-curvature="0"
       d="m 9.241484,1045.4154 c -0.3493112,-0.3839 -0.8112134,-0.7866 -1.3641189,-1.1361 -0.5530915,-0.3506 -1.1139994,-0.598 -1.6103303,-0.7529 -0.8091663,-0.251 -1.445445,-0.2548 -1.5891148,-0.036 l -4.0412349,5.6873 5.2683276,3.3289 4.041421,-5.6873 c 0.1330613,-0.2067 -0.1356668,-0.7821 -0.7049497,-1.4077 z"
       sodipodi:nodetypes="ccccccccc" />
  </g>
</svg>
