<?xml version="1.0" encoding="UTF-8" standalone="no"?>
<svg
   width="24"
   height="24"
   viewBox="0 0 24 24"
   version="1.1"
   xmlns="http://www.w3.org/2000/svg">
  <defs />

  <!-- Основной кабель -->
  <path
     style="fill:none;stroke:#20A8FF;stroke-width:2.5;stroke-linecap:round;stroke-linejoin:round"
     d="M 6,9 L 6,15 C 6,15 5.8,19.5 9.4,19.5 C 21,19.4 17.9,19.5 19.6,19.5" />

  <!-- Красный проводок -->
  <path
     style="fill:none;stroke:#FF3120;stroke-width:1;stroke-linecap:square;stroke-linejoin:bevel"
     d="M 6.2,9 L 8.1,7.7 C 8.1,7.7 9.7,7.6 10,7.9 C 10.3,8.3 10.6,9.1 10.6,9.5 C 10.6,10 10.7,11.6 10.7,11.6" />

  <!-- Синий проводок -->
  <path
     style="fill:none;stroke:#2A20FF;stroke-width:1;stroke-linecap:square;stroke-linejoin:bevel"
     d="M 5.6,9 C 9,2.5 7.3,1.9 7.3,1.9" />

  <!-- Зелёный проводок -->
  <path
     style="fill:none;stroke:#20FF2D;stroke-width:1;stroke-linecap:square;stroke-linejoin:bevel"
     d="M 5.8,9.2 C 3.4,5 1.4,8 1.4,8" />

  <!-- Символ плюса -->
  <g transform="translate(18, 6)">
    <!-- Вертикальная линия плюса -->
    <path
       style="fill:none;stroke:#008C00;stroke-width:2.8;stroke-linecap:round"
       d="M 0,-4.5 L 0,4.5" />
    <!-- Горизонтальная линия плюса -->
    <path
       style="fill:none;stroke:#008C00;stroke-width:2.8;stroke-linecap:round"
       d="M -4.5,0 L 4.5,0" />
  </g>
</svg>
