<?xml version="1.0" encoding="UTF-8" standalone="no"?>
<svg
   width="16"
   height="16"
   viewBox="0 0 16 16"
   version="1.1"
   xmlns="http://www.w3.org/2000/svg">
  <defs />

  <!-- Основной кабель -->
  <path
     style="fill:none;stroke:#20A8FF;stroke-width:1.7;stroke-linecap:round;stroke-linejoin:round"
     d="M 4,6 L 4,10 C 4,10 3.9,13 6.3,13 C 14,12.9 11.9,13 13.1,13" />

  <!-- Красный проводок -->
  <path
     style="fill:none;stroke:#FF3120;stroke-width:0.7;stroke-linecap:square;stroke-linejoin:bevel"
     d="M 4.1,6 L 5.4,5.1 C 5.4,5.1 6.5,5.1 6.7,5.3 C 6.9,5.5 7.1,6.1 7.1,6.3 C 7.1,6.7 7.2,7.7 7.2,7.7" />

  <!-- Синий проводок -->
  <path
     style="fill:none;stroke:#2A20FF;stroke-width:0.7;stroke-linecap:square;stroke-linejoin:bevel"
     d="M 3.7,6 C 6,1.7 4.9,1.3 4.9,1.3" />

  <!-- Зелёный проводок -->
  <path
     style="fill:none;stroke:#20FF2D;stroke-width:0.7;stroke-linecap:square;stroke-linejoin:bevel"
     d="M 3.9,6.1 C 2.3,3.3 0.9,5.3 0.9,5.3" />

  <!-- Символ плюса -->
  <g transform="translate(12, 4)">
    <!-- Вертикальная линия плюса -->
    <path
       style="fill:none;stroke:#008C00;stroke-width:1.9;stroke-linecap:round"
       d="M 0,-3 L 0,3" />
    <!-- Горизонтальная линия плюса -->
    <path
       style="fill:none;stroke:#008C00;stroke-width:1.9;stroke-linecap:round"
       d="M -3,0 L 3,0" />
  </g>
</svg>
