<?xml version="1.0" encoding="UTF-8" standalone="no"?>
<svg
   width="32"
   height="32"
   viewBox="0 0 32 32"
   version="1.1"
   xmlns="http://www.w3.org/2000/svg">
  <defs />

  <!-- Основной кабель -->
  <path
     style="fill:none;stroke:#20A8FF;stroke-width:3.3;stroke-linecap:round;stroke-linejoin:round"
     d="M 8,12 L 8,20 C 8,20 7.7,26 12.5,26 C 28,25.9 23.9,26 26.2,26" />

  <!-- Красный проводок -->
  <path
     style="fill:none;stroke:#FF3120;stroke-width:1.3;stroke-linecap:square;stroke-linejoin:bevel"
     d="M 8.3,12 L 10.8,10.2 C 10.8,10.2 13,10.1 13.3,10.5 C 13.7,11.1 14.2,12.1 14.2,12.7 C 14.2,13.4 14.4,15.4 14.4,15.4" />

  <!-- Синий проводок -->
  <path
     style="fill:none;stroke:#2A20FF;stroke-width:1.3;stroke-linecap:square;stroke-linejoin:bevel"
     d="M 7.5,12 C 12,3.3 9.7,2.5 9.7,2.5" />

  <!-- Зелёный проводок -->
  <path
     style="fill:none;stroke:#20FF2D;stroke-width:1.3;stroke-linecap:square;stroke-linejoin:bevel"
     d="M 7.7,12.2 C 4.5,6.7 1.9,10.7 1.9,10.7" />

  <!-- Символ минуса -->
  <g transform="translate(24, 8)">
    <!-- Горизонтальная линия минуса -->
    <path
       style="fill:none;stroke:#BE0000;stroke-width:3.7;stroke-linecap:round"
       d="M -6,0 L 6,0" />
  </g>
</svg>
