<?xml version="1.0" encoding="UTF-8" standalone="no"?>
<svg
   width="40"
   height="40"
   viewBox="0 0 40 40"
   version="1.1"
   xmlns="http://www.w3.org/2000/svg">
  <defs />

  <!-- Основной кабель -->
  <path
     style="fill:none;stroke:#20A8FF;stroke-width:4.2;stroke-linecap:round;stroke-linejoin:round"
     d="M 10,15 L 10,25 C 10,25 9.7,32.5 15.7,32.5 C 35,32.4 29.8,32.5 32.7,32.5" />

  <!-- Красный проводок -->
  <path
     style="fill:none;stroke:#FF3120;stroke-width:1.7;stroke-linecap:square;stroke-linejoin:bevel"
     d="M 10.3,15 L 13.5,12.8 C 13.5,12.8 16.2,12.7 16.6,13.2 C 17.1,13.9 17.7,15.1 17.7,15.9 C 17.7,16.7 17.9,19.3 17.9,19.3" />

  <!-- Синий проводок -->
  <path
     style="fill:none;stroke:#2A20FF;stroke-width:1.7;stroke-linecap:square;stroke-linejoin:bevel"
     d="M 9.4,15 C 15,4.2 12.2,3.1 12.2,3.1" />

  <!-- Зелёный проводок -->
  <path
     style="fill:none;stroke:#20FF2D;stroke-width:1.7;stroke-linecap:square;stroke-linejoin:bevel"
     d="M 9.6,15.3 C 5.6,8.3 2.3,13.3 2.3,13.3" />

  <!-- Символ минуса -->
  <g transform="translate(30, 10)">
    <!-- Горизонтальная линия минуса -->
    <path
       style="fill:none;stroke:#BE0000;stroke-width:4.6;stroke-linecap:round"
       d="M -7.5,0 L 7.5,0" />
  </g>
</svg>
