<?xml version="1.0" encoding="UTF-8" standalone="no"?>
<svg
   width="48"
   height="48"
   viewBox="0 0 48 48"
   version="1.1"
   xmlns="http://www.w3.org/2000/svg">
  <defs />

  <!-- Основной кабель -->
  <path
     style="fill:none;stroke:#20A8FF;stroke-width:5;stroke-linecap:round;stroke-linejoin:round"
     d="M 12,18 L 12,30 C 12,30 11.6,39 18.8,39 C 42,38.9 35.8,39 39.2,39" />

  <!-- Красный проводок -->
  <path
     style="fill:none;stroke:#FF3120;stroke-width:2;stroke-linecap:square;stroke-linejoin:bevel"
     d="M 12.4,18 L 16.2,15.4 C 16.2,15.4 19.4,15.2 19.9,15.9 C 20.5,16.7 21.3,18.1 21.3,19.1 C 21.3,20.1 21.5,23.2 21.5,23.2" />

  <!-- Синий проводок -->
  <path
     style="fill:none;stroke:#2A20FF;stroke-width:2;stroke-linecap:square;stroke-linejoin:bevel"
     d="M 11.3,18 C 18,5 14.6,3.7 14.6,3.7" />

  <!-- Зелёный проводок -->
  <path
     style="fill:none;stroke:#20FF2D;stroke-width:2;stroke-linecap:square;stroke-linejoin:bevel"
     d="M 11.5,18.3 C 6.7,10 2.8,16 2.8,16" />

  <!-- Символ минуса -->
  <g transform="translate(36, 12)">
    <!-- Горизонтальная линия минуса -->
    <path
       style="fill:none;stroke:#BE0000;stroke-width:5.5;stroke-linecap:round"
       d="M -9,0 L 9,0" />
  </g>
</svg>
