0
SECTION
2
HEADER
9
$ACADVER
1
AC1015
9
$ACADMAINTVER
70
20
9
$DWGCODEPAGE
3
ANSI_1251
9
$INSBASE
10
0.0
20
0.0
30
0.0
9
$EXTMIN
10
1.000000000000000E+20
20
1.000000000000000E+20
30
1.000000000000000E+20
9
$EXTMAX
10
-1.000000000000000E+20
20
-1.000000000000000E+20
30
-1.000000000000000E+20
9
$LIMMIN
10
0.0
20
0.0
9
$LIMMAX
10
420.0
20
297.0
9
$ORTHOMODE
70
0
9
$REGENMODE
70
1
9
$FILLMODE
70
1
9
$QTEXTMODE
70
0
9
$MIRRTEXT
70
0
9
$LTSCALE
40
1.0
9
$ATTMODE
70
1
9
$TEXTSIZE
40
2.5
9
$TRACEWID
40
1.0
9
$TEXTSTYLE
7
Standard
9
$CLAYER
8
0
9
$CELTYPE
6
ByLayer
9
$CECOLOR
62
256
9
$CELTSCALE
40
1.0
9
$DISPSILH
70
0
9
$DIMSCALE
40
1.0
9
$DIMASZ
40
0.18
9
$DIMEXO
40
0.0625
9
$DIMDLI
40
0.38
9
$DIMRND
40
0.0
9
$DIMDLE
40
0.0
9
$DIMEXE
40
0.18
9
$DIMTP
40
0.0
9
$DIMTM
40
0.0
9
$DIMTXT
40
0.18
9
$DIMCEN
40
0.09
9
$DIMTSZ
40
0.0
9
$DIMTOL
70
0
9
$DIMLIM
70
0
9
$DIMTIH
70
1
9
$DIMTOH
70
1
9
$DIMSE1
70
0
9
$DIMSE2
70
0
9
$DIMTAD
70
0
9
$DIMZIN
70
0
9
$DIMBLK
1

9
$DIMASO
70
1
9
$DIMSHO
70
1
9
$DIMPOST
1

9
$DIMAPOST
1

9
$DIMALT
70
0
9
$DIMALTD
70
2
9
$DIMALTF
40
25.4
9
$DIMLFAC
40
1.0
9
$DIMTOFL
70
0
9
$DIMTVP
40
0.0
9
$DIMTIX
70
0
9
$DIMSOXD
70
0
9
$DIMSAH
70
0
9
$DIMBLK1
1

9
$DIMBLK2
1

9
$DIMSTYLE
2
Standard
9
$DIMCLRD
70
0
9
$DIMCLRE
70
0
9
$DIMCLRT
70
0
9
$DIMTFAC
40
1.0
9
$DIMGAP
40
0.09
9
$DIMJUST
70
0
9
$DIMSD1
70
0
9
$DIMSD2
70
0
9
$DIMTOLJ
70
1
9
$DIMTZIN
70
0
9
$DIMALTZ
70
0
9
$DIMALTTZ
70
0
9
$DIMUPT
70
0
9
$DIMDEC
70
4
9
$DIMTDEC
70
4
9
$DIMALTU
70
2
9
$DIMALTTD
70
2
9
$DIMTXSTY
7
Standard
9
$DIMAUNIT
70
0
9
$DIMADEC
70
0
9
$DIMALTRND
40
0.0
9
$DIMAZIN
70
0
9
$DIMDSEP
70
46
9
$DIMATFIT
70
3
9
$DIMFRAC
70
0
9
$DIMLDRBLK
1

9
$DIMLUNIT
70
2
9
$DIMLWD
70
-2
9
$DIMLWE
70
-2
9
$DIMTMOVE
70
0
9
$LUNITS
70
2
9
$LUPREC
70
4
9
$SKETCHINC
40
1.0
9
$FILLETRAD
40
0.0
9
$AUNITS
70
0
9
$AUPREC
70
0
9
$MENU
1
.
9
$ELEVATION
40
0.0
9
$PELEVATION
40
0.0
9
$THICKNESS
40
0.0
9
$LIMCHECK
70
0
9
$CHAMFERA
40
0.0
9
$CHAMFERB
40
0.0
9
$CHAMFERC
40
0.0
9
$CHAMFERD
40
0.0
9
$SKPOLY
70
0
9
$TDCREATE
40
2455008.558453229
9
$TDUCREATE
40
2455008.308453229
9
$TDUPDATE
40
2455694.624051458
9
$TDUUPDATE
40
2455694.374051458
9
$TDINDWG
40
0.0121107986
9
$TDUSRTIMER
40
0.0121104398
9
$USRTIMER
70
1
9
$ANGBASE
50
0.0
9
$ANGDIR
70
0
9
$PDMODE
70
0
9
$PDSIZE
40
0.0
9
$PLINEWID
40
0.0
9
$SPLFRAME
70
0
9
$SPLINETYPE
70
6
9
$SPLINESEGS
70
8
9
$HANDSEED
<<<<<<< .mine
5
100000358
9
=======
5
1000003A6
9
>>>>>>> .r114
$SURFTAB1
70
6
9
$SURFTAB2
70
6
9
$SURFTYPE
70
6
9
$SURFU
70
6
9
$SURFV
70
6
9
$UCSBASE
2

9
$UCSNAME
2

9
$UCSORG
10
0.0
20
0.0
30
0.0
9
$UCSXDIR
10
1.0
20
0.0
30
0.0
9
$UCSYDIR
10
0.0
20
1.0
30
0.0
9
$UCSORTHOREF
2

9
$UCSORTHOVIEW
70
0
9
$UCSORGTOP
10
0.0
20
0.0
30
0.0
9
$UCSORGBOTTOM
10
0.0
20
0.0
30
0.0
9
$UCSORGLEFT
10
0.0
20
0.0
30
0.0
9
$UCSORGRIGHT
10
0.0
20
0.0
30
0.0
9
$UCSORGFRONT
10
0.0
20
0.0
30
0.0
9
$UCSORGBACK
10
0.0
20
0.0
30
0.0
9
$PUCSBASE
2

9
$PUCSNAME
2

9
$PUCSORG
10
0.0
20
0.0
30
0.0
9
$PUCSXDIR
10
1.0
20
0.0
30
0.0
9
$PUCSYDIR
10
0.0
20
1.0
30
0.0
9
$PUCSORTHOREF
2

9
$PUCSORTHOVIEW
70
0
9
$PUCSORGTOP
10
0.0
20
0.0
30
0.0
9
$PUCSORGBOTTOM
10
0.0
20
0.0
30
0.0
9
$PUCSORGLEFT
10
0.0
20
0.0
30
0.0
9
$PUCSORGRIGHT
10
0.0
20
0.0
30
0.0
9
$PUCSORGFRONT
10
0.0
20
0.0
30
0.0
9
$PUCSORGBACK
10
0.0
20
0.0
30
0.0
9
$USERI1
70
0
9
$USERI2
70
0
9
$USERI3
70
0
9
$USERI4
70
0
9
$USERI5
70
0
9
$USERR1
40
0.0
9
$USERR2
40
0.0
9
$USERR3
40
0.0
9
$USERR4
40
0.0
9
$USERR5
40
0.0
9
$WORLDVIEW
70
1
9
$SHADEDGE
70
3
9
$SHADEDIF
70
70
9
$TILEMODE
70
1
9
$MAXACTVP
70
64
9
$PINSBASE
10
0.0
20
0.0
30
0.0
9
$PLIMCHECK
70
0
9
$PEXTMIN
10
0.0
20
0.0
30
0.0
9
$PEXTMAX
10
0.0
20
0.0
30
0.0
9
$PLIMMIN
10
0.0
20
0.0
9
$PLIMMAX
10
12.0
20
9.0
9
$UNITMODE
70
0
9
$VISRETAIN
70
1
9
$PLINEGEN
70
0
9
$PSLTSCALE
70
1
9
$TREEDEPTH
70
3020
9
$CMLSTYLE
2
Standard
9
$CMLJUST
70
0
9
$CMLSCALE
40
20.0
9
$PROXYGRAPHICS
70
1
9
$MEASUREMENT
70
1
9
$CELWEIGHT
370
-1
9
$ENDCAPS
280
0
9
$JOINSTYLE
280
0
9
$LWDISPLAY
290
0
9
$INSUNITS
70
0
9
$HYPERLINKBASE
1

9
$STYLESHEET
1

9
$XEDIT
290
1
9
$CEPSNTYPE
380
0
9
$PSTYLEMODE
290
1
9
$FINGERPRINTGUID
2
{83B934B2-5622-42D0-9691-648EBDBEDF3A}
9
$VERSIONGUID
2
{687BA470-A50B-4F07-854F-729D023A6E33}
9
$EXTNAMES
290
1
9
$PSVPSCALE
40
0.0
9
$OLESTARTUP
290
0
0
ENDSEC
0
SECTION
2
CLASSES
0
CLASS
1
ACDBDICTIONARYWDFLT
2
AcDbDictionaryWithDefault
3
ObjectDBX Classes
90
0
280
0
281
0
0
CLASS
1
ACDBPLACEHOLDER
2
AcDbPlaceHolder
3
ObjectDBX Classes
90
0
280
0
281
0
0
CLASS
1
LAYOUT
2
AcDbLayout
3
ObjectDBX Classes
90
0
280
0
281
0
0
CLASS
1
DICTIONARYVAR
2
AcDbDictionaryVar
3
ObjectDBX Classes
90
0
280
0
281
0
0
CLASS
1
TABLESTYLE
2
AcDbTableStyle
3
ObjectDBX Classes
90
2047
280
0
281
0
0
ENDSEC
0
SECTION
2
TABLES
0
TABLE
2
VPORT
5
2B4
330
0
100
AcDbSymbolTable
70
2
0
VPORT
5
2B5
330
2B4
100
AcDbSymbolTableRecord
100
AcDbViewportTableRecord
2
*Active
70
0
10
0.0
20
0.0
11
1.0
21
1.0
12
390.4547463557241
22
194.9963087256912
13
0.0
23
0.0
14
10.0
24
10.0
15
10.0
25
10.0
16
0.0
26
0.0
36
1.0
17
0.0
27
0.0
37
0.0
40
420.481902819253
41
1.016627078384798
42
50.0
43
0.0
44
0.0
50
0.0
51
0.0
71
0
72
1000
73
1
74
3
75
0
76
0
77
0
78
0
281
0
65
1
110
0.0
120
0.0
130
0.0
111
1.0
121
0.0
131
0.0
112
0.0
122
1.0
132
0.0
79
0
146
0.0
0
ENDTAB
0
TABLE
2
LTYPE
5
2B6
330
0
100
AcDbSymbolTable
70
1
0
LTYPE
5
2B7
330
2B6
100
AcDbSymbolTableRecord
100
AcDbLinetypeTableRecord
2
ByBlock
70
0
3

72
65
73
0
40
0.0
0
LTYPE
5
2B8
330
2B6
100
AcDbSymbolTableRecord
100
AcDbLinetypeTableRecord
2
ByLayer
70
0
3

72
65
73
0
40
0.0
0
LTYPE
5
2B9
330
2B6
100
AcDbSymbolTableRecord
100
AcDbLinetypeTableRecord
2
Continuous
70
0
3
Solid line
72
65
73
0
40
0.0
0
ENDTAB
0
TABLE
2
LAYER
5
2BA
102
{ACAD_XDICTIONARY
360
2BB
102
}
330
0
100
AcDbSymbolTable
70
1
0
LAYER
5
2BE
100
AcDbSymbolTableRecord
100
AcDbLayerTableRecord
2
0
70
0
62
7
6
Continuous
290
1
370
-3
390
2BD
0
LAYER
5
2BF
100
AcDbSymbolTableRecord
100
AcDbLayerTableRecord
2
SYS_METRIC
70
0
62
-7
6
Continuous
290
0
370
-3
390
2BD
0
LAYER
5
2C0
100
AcDbSymbolTableRecord
100
AcDbLayerTableRecord
2
_shtamp
70
0
62
7
6
Continuous
290
1
370
-3
390
2BD
0
LAYER
5
2C1
100
AcDbSymbolTableRecord
100
AcDbLayerTableRecord
2
ОС
70
0
62
5
6
Continuous
290
1
370
40
390
2BD
0
LAYER
5
2C2
100
AcDbSymbolTableRecord
100
AcDbLayerTableRecord
2
ОС_текст
70
0
62
7
6
Continuous
290
1
370
-3
390
2BD
0
LAYER
5
2C3
100
AcDbSymbolTableRecord
100
AcDbLayerTableRecord
2
ОС_выноски
70
0
62
7
6
Continuous
290
1
370
-3
390
2BD
0
LAYER
5
2C4
100
AcDbSymbolTableRecord
100
AcDbLayerTableRecord
2
ПС
70
0
62
1
6
Continuous
290
1
370
40
390
2BD
0
LAYER
5
2C5
100
AcDbSymbolTableRecord
100
AcDbLayerTableRecord
2
ПС_текст
70
0
62
7
6
Continuous
290
1
370
-3
390
2BD
0
LAYER
5
2C6
100
AcDbSymbolTableRecord
100
AcDbLayerTableRecord
2
ПС_выноски
70
0
62
7
6
Continuous
290
1
370
-3
390
2BD
0
LAYER
5
2C7
100
AcDbSymbolTableRecord
100
AcDbLayerTableRecord
2
ОП
70
0
62
6
6
Continuous
290
1
370
40
390
2BD
0
LAYER
5
2C8
100
AcDbSymbolTableRecord
100
AcDbLayerTableRecord
2
ОП_выноски
70
0
62
7
6
Continuous
290
1
370
-3
390
2BD
0
LAYER
5
2C9
100
AcDbSymbolTableRecord
100
AcDbLayerTableRecord
2
ОП_текст
70
0
62
7
6
Continuous
290
1
370
-3
390
2BD
0
LAYER
5
2CA
100
AcDbSymbolTableRecord
100
AcDbLayerTableRecord
2
ПТ_текст
70
0
62
7
6
Continuous
290
1
370
-3
390
2BD
0
LAYER
5
2CB
100
AcDbSymbolTableRecord
100
AcDbLayerTableRecord
2
ПТ_выноски
70
0
62
7
6
Continuous
290
1
370
-3
390
2BD
0
LAYER
5
2CC
100
AcDbSymbolTableRecord
100
AcDbLayerTableRecord
2
ПТ_магистраль
70
0
62
1
6
Continuous
290
1
370
80
390
2BD
0
LAYER
5
2CD
100
AcDbSymbolTableRecord
100
AcDbLayerTableRecord
2
ПТ_рядки
70
0
62
1
6
Continuous
290
1
370
40
390
2BD
0
LAYER
5
2CE
100
AcDbSymbolTableRecord
100
AcDbLayerTableRecord
2
формат
70
0
62
2
6
Continuous
290
0
370
-3
390
2BD
0
LAYER
5
2CF
100
AcDbSymbolTableRecord
100
AcDbLayerTableRecord
2
ПТ_размеры
70
0
62
252
6
Continuous
290
1
370
-3
390
2BD
0
LAYER
5
2D0
100
AcDbSymbolTableRecord
100
AcDbLayerTableRecord
2
Defpoints
70
4
62
7
6
Continuous
290
0
370
-3
390
2BD
0
LAYER
5
2D1
100
AcDbSymbolTableRecord
100
AcDbLayerTableRecord
2
ПТ_орошение
70
0
62
2
6
Continuous
290
0
370
-3
390
2BD
0
LAYER
5
2D2
100
AcDbSymbolTableRecord
100
AcDbLayerTableRecord
2
рисунок
70
0
62
8
6
Continuous
290
0
370
-3
390
2BD
0
LAYER
5
2D3
100
AcDbSymbolTableRecord
100
AcDbLayerTableRecord
2
стены
70
0
62
4
6
Continuous
290
1
370
-3
390
2BD
0
LAYER
5
2D4
100
AcDbSymbolTableRecord
100
AcDbLayerTableRecord
2
_RS
70
0
62
5
6
Continuous
290
1
370
40
390
2BD
0
LAYER
5
2D5
100
AcDbSymbolTableRecord
100
AcDbLayerTableRecord
2
_ЦП
70
0
62
6
6
Continuous
290
1
370
40
390
2BD
0
LAYER
5
2D6
100
AcDbSymbolTableRecord
100
AcDbLayerTableRecord
2
_ШС
70
0
62
92
6
Continuous
290
1
370
40
390
2BD
0
LAYER
5
2D7
100
AcDbSymbolTableRecord
100
AcDbLayerTableRecord
2
_ШТ
70
0
62
92
6
Continuous
290
1
370
40
390
2BD
0
LAYER
5
2D8
100
AcDbSymbolTableRecord
100
AcDbLayerTableRecord
2
EL_DEVICE
70
0
62
1
6
Continuous
290
1
370
40
390
2BD
0
LAYER
5
2D9
100
AcDbSymbolTableRecord
100
AcDbLayerTableRecord
2
EL_DEVICE_PIN_NAME
70
0
62
125
6
Continuous
290
1
370
-3
390
2BD
<<<<<<< .mine
0
=======
0
LAYER
5
2DA
100
AcDbSymbolTableRecord
100
AcDbLayerTableRecord
2
SYS_PIN
70
0
62
7
6
Continuous
290
1
370
-3
390
2BD
0
LAYER
5
2DB
100
AcDbSymbolTableRecord
100
AcDbLayerTableRecord
2
SYS_DEVICE_BORDER
70
0
62
-7
6
Continuous
290
0
370
-3
390
2BD
0
LAYER
5
2DC
100
AcDbSymbolTableRecord
100
AcDbLayerTableRecord
2
EL_DEVICE_NAME
70
0
62
7
6
Continuous
290
1
370
-3
390
2BD
0
>>>>>>> .r114
ENDTAB
0
TABLE
2
STYLE
<<<<<<< .mine
5
2DA
=======
5
2DD
>>>>>>> .r114
330
0
100
AcDbSymbolTable
70
2
0
STYLE
<<<<<<< .mine
5
2DB
=======
5
2DE
>>>>>>> .r114
100
AcDbSymbolTableRecord
100
AcDbTextStyleTableRecord
2
Standard
70
0
40
3
41
1
50
15
71
0
42
2.5
3
_mipgost.shx
4

0
STYLE
<<<<<<< .mine
5
2DC
=======
5
2DF
>>>>>>> .r114
100
AcDbSymbolTableRecord
100
AcDbTextStyleTableRecord
2
R2_5
70
0
40
2.5
41
0.65
50
12
71
0
42
2.5
3
gewind.shx
4

0
ENDTAB
0
TABLE
2
VIEW
<<<<<<< .mine
5
2DD
=======
5
2E0
>>>>>>> .r114
330
0
100
AcDbSymbolTable
70
0
0
ENDTAB
0
TABLE
2
UCS
<<<<<<< .mine
5
2DE
=======
5
2E1
>>>>>>> .r114
330
0
100
AcDbSymbolTable
70
0
0
ENDTAB
0
TABLE
2
APPID
<<<<<<< .mine
5
2DF
=======
5
2E2
>>>>>>> .r114
330
0
100
AcDbSymbolTable
70
11
0
APPID
<<<<<<< .mine
5
2E0
=======
5
2E3
>>>>>>> .r114
330
2E2
100
AcDbSymbolTableRecord
100
AcDbRegAppTableRecord
2
ACAD
70
0
0
APPID
<<<<<<< .mine
5
2E1
=======
5
2E4
>>>>>>> .r114
330
2E2
100
AcDbSymbolTableRecord
100
AcDbRegAppTableRecord
2
ACAD_PSEXT
70
0
0
APPID
<<<<<<< .mine
5
2E2
=======
5
2E5
>>>>>>> .r114
330
2E2
100
AcDbSymbolTableRecord
100
AcDbRegAppTableRecord
2
ACAD_EXEMPT_FROM_CAD_STANDARDS
70
0
0
APPID
<<<<<<< .mine
5
2E3
=======
5
2E6
>>>>>>> .r114
330
2E2
100
AcDbSymbolTableRecord
100
AcDbRegAppTableRecord
2
DSTP_XDATA
70
0
0
APPID
<<<<<<< .mine
5
2E4
=======
5
2E7
>>>>>>> .r114
330
2E2
100
AcDbSymbolTableRecord
100
AcDbRegAppTableRecord
2
AcAecLayerStandard
70
0
0
APPID
<<<<<<< .mine
5
2E5
=======
5
2E8
>>>>>>> .r114
330
2E2
100
AcDbSymbolTableRecord
100
AcDbRegAppTableRecord
2
ACAD_DSTYLE_DIMTEXT_FILL
70
0
0
APPID
<<<<<<< .mine
5
2E6
=======
5
2E9
>>>>>>> .r114
330
2E2
100
AcDbSymbolTableRecord
100
AcDbRegAppTableRecord
2
ACAD_DSTYLE_DIMEXT_LENGTH
70
0
0
APPID
<<<<<<< .mine
5
2E7
=======
5
2EA
>>>>>>> .r114
330
2E2
100
AcDbSymbolTableRecord
100
AcDbRegAppTableRecord
2
ACAD_DSTYLE_DIMEXT_ENABLED
70
0
0
APPID
<<<<<<< .mine
5
2E8
=======
5
2EB
>>>>>>> .r114
330
2E2
100
AcDbSymbolTableRecord
100
AcDbRegAppTableRecord
2
ACAD_DSTYLE_DIM_LINETYPE
70
0
0
APPID
<<<<<<< .mine
5
2E9
=======
5
2EC
>>>>>>> .r114
330
2E2
100
AcDbSymbolTableRecord
100
AcDbRegAppTableRecord
2
ACAD_DSTYLE_DIM_EXT1_LINETYPE
70
0
0
APPID
<<<<<<< .mine
5
2EA
=======
5
2ED
>>>>>>> .r114
330
2E2
100
AcDbSymbolTableRecord
100
AcDbRegAppTableRecord
2
ACAD_DSTYLE_DIM_EXT2_LINETYPE
70
0
0
ENDTAB
0
TABLE
2
DIMSTYLE
<<<<<<< .mine
5
2EB
=======
5
2EE
>>>>>>> .r114
330
0
100
AcDbSymbolTable
70
2
100
AcDbDimStyleTable
71
1
340
<<<<<<< .mine
2EC
0
=======
2EF
0
>>>>>>> .r114
DIMSTYLE
105
2EF
330
2EE
100
AcDbSymbolTableRecord
100
AcDbDimStyleTableRecord
2
Standard
70
0
340
<<<<<<< .mine
2DB
0
=======
2DE
0
>>>>>>> .r114
ENDTAB
0
TABLE
2
BLOCK_RECORD
<<<<<<< .mine
5
2ED
=======
5
2F0
>>>>>>> .r114
330
0
100
AcDbSymbolTable
70
1
0
BLOCK_RECORD
<<<<<<< .mine
5
2EE
=======
5
2F1
>>>>>>> .r114
330
2F0
100
AcDbSymbolTableRecord
100
AcDbBlockTableRecord
2
*Model_Space
340
<<<<<<< .mine
2EF
0
=======
2F2
0
>>>>>>> .r114
BLOCK_RECORD
<<<<<<< .mine
5
2F0
=======
5
2F3
>>>>>>> .r114
330
2F0
100
AcDbSymbolTableRecord
100
AcDbBlockTableRecord
2
*Paper_Space
340
<<<<<<< .mine
2F1
0
=======
2F4
0
>>>>>>> .r114
BLOCK_RECORD
<<<<<<< .mine
5
2F2
=======
5
2F5
>>>>>>> .r114
330
2F0
100
AcDbSymbolTableRecord
100
AcDbBlockTableRecord
2
*Paper_Space0
340
<<<<<<< .mine
2F3
0
=======
2F6
0
>>>>>>> .r114
BLOCK_RECORD
<<<<<<< .mine
5
2F4
=======
5
2F7
>>>>>>> .r114
100
AcDbSymbolTableRecord
100
AcDbBlockTableRecord
2
_Oblique
0
BLOCK_RECORD
<<<<<<< .mine
5
2F5
=======
5
2F8
>>>>>>> .r114
100
AcDbSymbolTableRecord
100
AcDbBlockTableRecord
2
ARROWHEAD_6
0
BLOCK_RECORD
<<<<<<< .mine
5
2F6
=======
5
2F9
>>>>>>> .r114
100
AcDbSymbolTableRecord
100
AcDbBlockTableRecord
2
TESTBLOCK
0
BLOCK_RECORD
<<<<<<< .mine
5
2F7
=======
5
2FA
>>>>>>> .r114
100
AcDbSymbolTableRecord
100
AcDbBlockTableRecord
2
testbox
0
BLOCK_RECORD
<<<<<<< .mine
5
2F8
=======
5
2FB
>>>>>>> .r114
100
AcDbSymbolTableRecord
100
AcDbBlockTableRecord
2
FIX
0
BLOCK_RECORD
<<<<<<< .mine
5
2F9
=======
5
2FC
>>>>>>> .r114
100
AcDbSymbolTableRecord
100
AcDbBlockTableRecord
2
DEVICE_TESTBOX
0
<<<<<<< .mine
=======
BLOCK_RECORD
5
2FD
100
AcDbSymbolTableRecord
100
AcDbBlockTableRecord
2
PS_DAT_SMOKE
0
BLOCK_RECORD
5
2FE
100
AcDbSymbolTableRecord
100
AcDbBlockTableRecord
2
DEVICE_PS_DAT_SMOKE
0
BLOCK_RECORD
5
2FF
100
AcDbSymbolTableRecord
100
AcDbBlockTableRecord
2
CONNECTOR_SQUARE
0
BLOCK_RECORD
5
300
100
AcDbSymbolTableRecord
100
AcDbBlockTableRecord
2
CONNECTOR_SQUARE
0
BLOCK_RECORD
5
301
100
AcDbSymbolTableRecord
100
AcDbBlockTableRecord
2
DEVICE_CONNECTOR_SQUARE
0
BLOCK_RECORD
5
302
100
AcDbSymbolTableRecord
100
AcDbBlockTableRecord
2
PS_DAT_TERMO
0
BLOCK_RECORD
5
303
100
AcDbSymbolTableRecord
100
AcDbBlockTableRecord
2
DEVICE_PS_DAT_TERMO
0
>>>>>>> .r114
ENDTAB
0
ENDSEC
0
SECTION
2
BLOCKS
0
BLOCK
<<<<<<< .mine
5
2FA
=======
5
304
>>>>>>> .r114
330
2F1
100
AcDbEntity
8
0
100
AcDbBlockBegin
2
*Model_Space
70
0
10
0.0
20
0.0
30
0.0
3
*Model_Space
1

0
ENDBLK
<<<<<<< .mine
5
2FB
=======
5
305
>>>>>>> .r114
330
2F1
100
AcDbEntity
8
0
100
AcDbBlockEnd
0
BLOCK
<<<<<<< .mine
5
2FC
=======
5
306
>>>>>>> .r114
330
2F3
100
AcDbEntity
67
1
8
0
100
AcDbBlockBegin
2
*Paper_Space
70
0
10
0.0
20
0.0
30
0.0
3
*Paper_Space
1

0
ENDBLK
<<<<<<< .mine
5
2FD
=======
5
307
>>>>>>> .r114
330
2F3
100
AcDbEntity
67
1
8
0
100
AcDbBlockEnd
0
BLOCK
<<<<<<< .mine
5
2FE
=======
5
308
>>>>>>> .r114
330
2F5
100
AcDbEntity
67
1
8
0
100
AcDbBlockBegin
2
*Paper_Space0
70
0
10
0.0
20
0.0
30
0.0
3
*Paper_Space0
1

0
ENDBLK
<<<<<<< .mine
5
2FF
=======
5
309
>>>>>>> .r114
330
2F5
100
AcDbEntity
67
1
8
0
100
AcDbBlockEnd
0
BLOCK
<<<<<<< .mine
5
300
=======
5
30A
>>>>>>> .r114
100
AcDbEntity
8
0
100
AcDbBlockBegin
2
_Oblique
70
2
10
0
20
0
30
0
3
_Oblique
1

0
LINE
<<<<<<< .mine
5
301
=======
5
30B
>>>>>>> .r114
100
AcDbEntity
8
0
370
-2
100
AcDbLine
10
-0.5000000000
20
-0.5000000000
30
0.0000000000
11
0.5000000000
21
0.5000000000
31
0.0000000000
1001
DSTP_XDATA
1002
{
1000
_OWNERHANDLE=0000000064
1002
}
0
ENDBLK
<<<<<<< .mine
5
302
=======
5
30C
>>>>>>> .r114
100
AcDbEntity
8
0
100
AcDbBlockEnd
0
BLOCK
<<<<<<< .mine
5
303
=======
5
30D
>>>>>>> .r114
100
AcDbEntity
8
0
100
AcDbBlockBegin
2
ARROWHEAD_6
70
2
10
0
20
0
30
0
3
ARROWHEAD_6
1

0
LINE
<<<<<<< .mine
5
304
=======
5
30E
>>>>>>> .r114
100
AcDbEntity
8
0
100
AcDbLine
10
-0.5000000000
20
-0.5000000000
30
0.0000000000
11
0.5000000000
21
0.5000000000
31
0.0000000000
1001
DSTP_XDATA
1002
{
1000
_OWNERHANDLE=0000000064
1002
}
0
LINE
<<<<<<< .mine
5
305
=======
5
30F
>>>>>>> .r114
100
AcDbEntity
8
0
100
AcDbLine
10
0.0000000000
20
0.0000000000
30
0.0000000000
11
-1.0000000000
21
0.0000000000
31
0.0000000000
1001
DSTP_XDATA
1002
{
1000
_OWNERHANDLE=0000000064
1002
}
0
ENDBLK
<<<<<<< .mine
5
306
=======
5
310
>>>>>>> .r114
100
AcDbEntity
8
0
100
AcDbBlockEnd
0
BLOCK
<<<<<<< .mine
5
307
=======
5
311
>>>>>>> .r114
100
AcDbEntity
8
0
100
AcDbBlockBegin
2
TESTBLOCK
70
2
10
0
20
0
30
0
3
TESTBLOCK
1

0
CIRCLE
<<<<<<< .mine
5
308
=======
5
312
>>>>>>> .r114
100
AcDbEntity
8
EL_DEVICE
100
AcDbCircle
10
0.0000000000
20
0.0000000000
30
0.0000000000
40
0.5000000000
1001
DSTP_XDATA
1002
{
1000
_OWNERHANDLE=0000000064
1002
}
0
TEXT
<<<<<<< .mine
5
309
=======
5
313
>>>>>>> .r114
100
AcDbEntity
8
EL_DEVICE_PIN_NAME
100
AcDbText
11
0.0000000000
21
0.5000000000
31
0.0000000000
10
-1.1666666319
20
0.5000000000
30
0.0000000000
40
2.5000000000
50
0.0000000000
41
0.7000000000
51
12.0000000000
72
1
7
R2_5
1
??
100
AcDbText
73
0
1001
DSTP_XDATA
1002
{
1000
_OWNERHANDLE=0000000064
1002
}
0
ENDBLK
<<<<<<< .mine
5
30A
=======
5
314
>>>>>>> .r114
100
AcDbEntity
8
0
100
AcDbBlockEnd
0
BLOCK
<<<<<<< .mine
5
30B
=======
5
315
>>>>>>> .r114
100
AcDbEntity
8
0
100
AcDbBlockBegin
2
testbox
70
2
10
0
20
0
30
0
3
testbox
1

0
LINE
<<<<<<< .mine
5
30C
=======
5
316
>>>>>>> .r114
100
AcDbEntity
8
0
100
AcDbLine
10
0.0000000000
20
0.0000000000
30
0.0000000000
11
20.0000000000
21
0.0000000000
31
0.0000000000
1001
DSTP_XDATA
1002
{
1000
_OWNERHANDLE=0000000064
1002
}
0
LINE
<<<<<<< .mine
5
30D
=======
5
317
>>>>>>> .r114
100
AcDbEntity
8
0
100
AcDbLine
10
20.0000000000
20
0.0000000000
30
0.0000000000
11
20.0000000000
21
50.0000000000
31
0.0000000000
1001
DSTP_XDATA
1002
{
1000
_OWNERHANDLE=0000000064
1002
}
0
LINE
<<<<<<< .mine
5
30E
=======
5
318
>>>>>>> .r114
100
AcDbEntity
8
0
100
AcDbLine
10
20.0000000000
20
50.0000000000
30
0.0000000000
11
0.0000000000
21
50.0000000000
31
0.0000000000
1001
DSTP_XDATA
1002
{
1000
_OWNERHANDLE=0000000064
1002
}
0
LINE
<<<<<<< .mine
5
30F
=======
5
319
>>>>>>> .r114
100
AcDbEntity
8
0
100
AcDbLine
10
0.0000000000
20
0.0000000000
30
0.0000000000
11
0.0000000000
21
50.0000000000
31
0.0000000000
1001
DSTP_XDATA
1002
{
1000
_OWNERHANDLE=0000000064
1002
}
0
LINE
<<<<<<< .mine
5
310
=======
5
31A
>>>>>>> .r114
100
AcDbEntity
8
0
100
AcDbLine
10
0.0000000000
20
0.0000000000
30
50.0000000000
11
20.0000000000
21
0.0000000000
31
50.0000000000
1001
DSTP_XDATA
1002
{
1000
_OWNERHANDLE=0000000064
1002
}
0
LINE
<<<<<<< .mine
5
311
=======
5
31B
>>>>>>> .r114
100
AcDbEntity
8
0
100
AcDbLine
10
20.0000000000
20
0.0000000000
30
50.0000000000
11
20.0000000000
21
50.0000000000
31
50.0000000000
1001
DSTP_XDATA
1002
{
1000
_OWNERHANDLE=0000000064
1002
}
0
LINE
<<<<<<< .mine
5
312
=======
5
31C
>>>>>>> .r114
100
AcDbEntity
8
0
100
AcDbLine
10
20.0000000000
20
50.0000000000
30
50.0000000000
11
0.0000000000
21
50.0000000000
31
50.0000000000
1001
DSTP_XDATA
1002
{
1000
_OWNERHANDLE=0000000064
1002
}
0
LINE
<<<<<<< .mine
5
313
=======
5
31D
>>>>>>> .r114
100
AcDbEntity
8
0
100
AcDbLine
10
0.0000000000
20
0.0000000000
30
50.0000000000
11
0.0000000000
21
50.0000000000
31
50.0000000000
1001
DSTP_XDATA
1002
{
1000
_OWNERHANDLE=0000000064
1002
}
0
LINE
<<<<<<< .mine
5
314
=======
5
31E
>>>>>>> .r114
100
AcDbEntity
8
0
100
AcDbLine
10
0.0000000000
20
0.0000000000
30
50.0000000000
11
0.0000000000
21
0.0000000000
31
0.0000000000
1001
DSTP_XDATA
1002
{
1000
_OWNERHANDLE=0000000064
1002
}
0
LINE
<<<<<<< .mine
5
315
=======
5
31F
>>>>>>> .r114
100
AcDbEntity
8
0
100
AcDbLine
10
20.0000000000
20
0.0000000000
30
50.0000000000
11
20.0000000000
21
0.0000000000
31
0.0000000000
1001
DSTP_XDATA
1002
{
1000
_OWNERHANDLE=0000000064
1002
}
0
LINE
<<<<<<< .mine
5
316
=======
5
320
>>>>>>> .r114
100
AcDbEntity
8
0
100
AcDbLine
10
0.0000000000
20
50.0000000000
30
50.0000000000
11
0.0000000000
21
50.0000000000
31
0.0000000000
1001
DSTP_XDATA
1002
{
1000
_OWNERHANDLE=0000000064
1002
}
0
LINE
<<<<<<< .mine
5
317
=======
5
321
>>>>>>> .r114
100
AcDbEntity
8
0
100
AcDbLine
10
20.0000000000
20
50.0000000000
30
50.0000000000
11
20.0000000000
21
50.0000000000
31
0.0000000000
1001
DSTP_XDATA
1002
{
1000
_OWNERHANDLE=0000000064
1002
}
0
INSERT
<<<<<<< .mine
5
318
=======
5
322
>>>>>>> .r114
100
AcDbEntity
8
0
100
AcDbBlockReference
2
FIX
10
10.0000000000
20
25.0000000000
30
0.0000000000
41
1.9685039370
42
1.9685039370
43
1.9685039370
50
0.0000000000
1001
DSTP_XDATA
1002
{
1000
_OWNERHANDLE=0000000064
1002
}
0
LINE
<<<<<<< .mine
5
319
=======
5
323
>>>>>>> .r114
100
AcDbEntity
8
0
100
AcDbLine
10
0.0000000000
20
0.0000000000
30
0.0000000000
11
20.0000000000
21
0.0000000000
31
0.0000000000
1001
DSTP_XDATA
1002
{
1000
_OWNERHANDLE=0000000064
1002
}
0
LINE
<<<<<<< .mine
5
31A
=======
5
324
>>>>>>> .r114
100
AcDbEntity
8
0
100
AcDbLine
10
20.0000000000
20
0.0000000000
30
0.0000000000
11
20.0000000000
21
50.0000000000
31
0.0000000000
1001
DSTP_XDATA
1002
{
1000
_OWNERHANDLE=0000000064
1002
}
0
LINE
<<<<<<< .mine
5
31B
=======
5
325
>>>>>>> .r114
100
AcDbEntity
8
0
100
AcDbLine
10
20.0000000000
20
50.0000000000
30
0.0000000000
11
0.0000000000
21
50.0000000000
31
0.0000000000
1001
DSTP_XDATA
1002
{
1000
_OWNERHANDLE=0000000064
1002
}
0
LINE
<<<<<<< .mine
5
31C
=======
5
326
>>>>>>> .r114
100
AcDbEntity
8
0
100
AcDbLine
10
0.0000000000
20
0.0000000000
30
0.0000000000
11
0.0000000000
21
50.0000000000
31
0.0000000000
1001
DSTP_XDATA
1002
{
1000
_OWNERHANDLE=0000000064
1002
}
0
LINE
<<<<<<< .mine
5
31D
=======
5
327
>>>>>>> .r114
100
AcDbEntity
8
0
100
AcDbLine
10
0.0000000000
20
0.0000000000
30
50.0000000000
11
20.0000000000
21
0.0000000000
31
50.0000000000
1001
DSTP_XDATA
1002
{
1000
_OWNERHANDLE=0000000064
1002
}
0
LINE
<<<<<<< .mine
5
31E
=======
5
328
>>>>>>> .r114
100
AcDbEntity
8
0
100
AcDbLine
10
20.0000000000
20
0.0000000000
30
50.0000000000
11
20.0000000000
21
50.0000000000
31
50.0000000000
1001
DSTP_XDATA
1002
{
1000
_OWNERHANDLE=0000000064
1002
}
0
LINE
<<<<<<< .mine
5
31F
=======
5
329
>>>>>>> .r114
100
AcDbEntity
8
0
100
AcDbLine
10
20.0000000000
20
50.0000000000
30
50.0000000000
11
0.0000000000
21
50.0000000000
31
50.0000000000
1001
DSTP_XDATA
1002
{
1000
_OWNERHANDLE=0000000064
1002
}
0
LINE
<<<<<<< .mine
5
320
=======
5
32A
>>>>>>> .r114
100
AcDbEntity
8
0
100
AcDbLine
10
0.0000000000
20
0.0000000000
30
50.0000000000
11
0.0000000000
21
50.0000000000
31
50.0000000000
1001
DSTP_XDATA
1002
{
1000
_OWNERHANDLE=0000000064
1002
}
0
LINE
<<<<<<< .mine
5
321
=======
5
32B
>>>>>>> .r114
100
AcDbEntity
8
0
100
AcDbLine
10
0.0000000000
20
0.0000000000
30
50.0000000000
11
0.0000000000
21
0.0000000000
31
0.0000000000
1001
DSTP_XDATA
1002
{
1000
_OWNERHANDLE=0000000064
1002
}
0
LINE
<<<<<<< .mine
5
322
=======
5
32C
>>>>>>> .r114
100
AcDbEntity
8
0
100
AcDbLine
10
20.0000000000
20
0.0000000000
30
50.0000000000
11
20.0000000000
21
0.0000000000
31
0.0000000000
1001
DSTP_XDATA
1002
{
1000
_OWNERHANDLE=0000000064
1002
}
0
LINE
<<<<<<< .mine
5
323
=======
5
32D
>>>>>>> .r114
100
AcDbEntity
8
0
100
AcDbLine
10
0.0000000000
20
50.0000000000
30
50.0000000000
11
0.0000000000
21
50.0000000000
31
0.0000000000
1001
DSTP_XDATA
1002
{
1000
_OWNERHANDLE=0000000064
1002
}
0
LINE
<<<<<<< .mine
5
324
=======
5
32E
>>>>>>> .r114
100
AcDbEntity
8
0
100
AcDbLine
10
20.0000000000
20
50.0000000000
30
50.0000000000
11
20.0000000000
21
50.0000000000
31
0.0000000000
1001
DSTP_XDATA
1002
{
1000
_OWNERHANDLE=0000000064
1002
}
0
ENDBLK
<<<<<<< .mine
5
325
=======
5
32F
>>>>>>> .r114
100
AcDbEntity
8
0
100
AcDbBlockEnd
0
BLOCK
<<<<<<< .mine
5
326
=======
5
>>>>>>> .r114
<<<<<<< .mine
=======
330
>>>>>>> .r114
100
AcDbEntity
8
0
100
AcDbBlockBegin
2
FIX
70
2
10
0
20
0
30
0
3
FIX
1

0
LINE
<<<<<<< .mine
5
327
=======
5
331
>>>>>>> .r114
100
AcDbEntity
8
EL_DEVICE
100
AcDbLine
10
-1.0000000000
20
0.0000000000
30
0.0000000000
11
1.0000000000
21
0.0000000000
31
0.0000000000
1001
DSTP_XDATA
1002
{
1000
_OWNERHANDLE=0000000064
1002
}
0
LINE
<<<<<<< .mine
5
328
=======
5
332
>>>>>>> .r114
100
AcDbEntity
8
EL_DEVICE
100
AcDbLine
10
0.0000000000
20
1.0000000000
30
0.0000000000
11
0.0000000000
21
-1.0000000000
31
0.0000000000
1001
DSTP_XDATA
1002
{
1000
_OWNERHANDLE=0000000064
1002
}
0
ENDBLK
<<<<<<< .mine
5
329
=======
5
333
>>>>>>> .r114
100
AcDbEntity
8
0
100
AcDbBlockEnd
0
BLOCK
<<<<<<< .mine
5
32A
=======
5
334
>>>>>>> .r114
100
AcDbEntity
8
0
100
AcDbBlockBegin
2
DEVICE_TESTBOX
70
2
10
0
20
0
30
0
3
DEVICE_TESTBOX
1

0
INSERT
<<<<<<< .mine
5
32B
=======
5
335
>>>>>>> .r114
100
AcDbEntity
8
0
100
AcDbBlockReference
2
FIX
10
10.0000000000
20
25.0000000000
30
0.0000000000
41
1.9685039370
42
1.9685039370
43
1.9685039370
50
0.0000000000
1001
DSTP_XDATA
1002
{
1000
_OWNERHANDLE=0000000064
1002
}
0
ENDBLK
<<<<<<< .mine
5
32C
=======
5
336
>>>>>>> .r114
100
AcDbEntity
8
0
100
AcDbBlockEnd
<<<<<<< .mine
0
=======
0
BLOCK
5
337
100
AcDbEntity
8
0
100
AcDbBlockBegin
2
PS_DAT_SMOKE
70
2
10
0
20
0
30
0
3
PS_DAT_SMOKE
1

0
LINE
5
338
100
AcDbEntity
8
EL_DEVICE
100
AcDbLine
10
0.5000000000
20
2.0000000000
30
0.0000000000
11
-0.7500000000
21
0.7500000000
31
0.0000000000
1001
DSTP_XDATA
1002
{
1000
_OWNERHANDLE=0000000064
1002
}
0
LINE
5
339
100
AcDbEntity
8
EL_DEVICE
100
AcDbLine
10
-0.7500000000
20
0.7500000000
30
0.0000000000
11
0.7500000000
21
-0.7500000000
31
0.0000000000
1001
DSTP_XDATA
1002
{
1000
_OWNERHANDLE=0000000064
1002
}
0
LINE
5
33A
100
AcDbEntity
8
EL_DEVICE
100
AcDbLine
10
0.7500000000
20
-0.7500000000
30
0.0000000000
11
-0.5000000000
21
-2.0000000000
31
0.0000000000
1001
DSTP_XDATA
1002
{
1000
_OWNERHANDLE=0000000064
1002
}
0
LINE
5
33B
100
AcDbEntity
8
EL_DEVICE
100
AcDbLine
10
2.5000000000
20
-2.5000000000
30
0.0000000000
11
-2.5000000000
21
-2.5000000000
31
0.0000000000
1001
DSTP_XDATA
1002
{
1000
_OWNERHANDLE=0000000064
1002
}
0
LINE
5
33C
100
AcDbEntity
8
EL_DEVICE
100
AcDbLine
10
2.5000000000
20
2.5000000000
30
0.0000000000
11
2.5000000000
21
-2.5000000000
31
0.0000000000
1001
DSTP_XDATA
1002
{
1000
_OWNERHANDLE=0000000064
1002
}
0
LINE
5
33D
100
AcDbEntity
8
EL_DEVICE
100
AcDbLine
10
-2.5000000000
20
2.5000000000
30
0.0000000000
11
2.5000000000
21
2.5000000000
31
0.0000000000
1001
DSTP_XDATA
1002
{
1000
_OWNERHANDLE=0000000064
1002
}
0
LINE
5
33E
100
AcDbEntity
8
EL_DEVICE
100
AcDbLine
10
-2.5000000000
20
-2.5000000000
30
0.0000000000
11
-2.5000000000
21
2.5000000000
31
0.0000000000
1001
DSTP_XDATA
1002
{
1000
_OWNERHANDLE=0000000064
1002
}
0
ENDBLK
5
33F
100
AcDbEntity
8
0
100
AcDbBlockEnd
0
BLOCK
5
340
100
AcDbEntity
8
0
100
AcDbBlockBegin
2
DEVICE_PS_DAT_SMOKE
70
2
10
0
20
0
30
0
3
DEVICE_PS_DAT_SMOKE
1

0
INSERT
5
341
100
AcDbEntity
8
0
100
AcDbBlockReference
2
CONNECTOR_SQUARE
10
0.0000000000
20
0.0000000000
30
0.0000000000
41
1.0000000000
42
1.0000000000
43
1.0000000000
50
0.0000000000
1001
DSTP_XDATA
1002
{
1000
_OWNERHANDLE=0000000064
1000
_HANDLE=001271BF10
1000
_UPGRADE=1
1002
}
0
LINE
5
342
100
AcDbEntity
8
SYS_DEVICE_BORDER
100
AcDbLine
10
2.5000000000
20
-2.5000000000
30
0.0000000000
11
-2.5000000000
21
-2.5000000000
31
0.0000000000
1001
DSTP_XDATA
1002
{
1000
_OWNERHANDLE=0000000064
1002
}
0
LINE
5
343
100
AcDbEntity
8
SYS_DEVICE_BORDER
100
AcDbLine
10
2.5000000000
20
2.5000000000
30
0.0000000000
11
2.5000000000
21
-2.5000000000
31
0.0000000000
1001
DSTP_XDATA
1002
{
1000
_OWNERHANDLE=0000000064
1002
}
0
LINE
5
344
100
AcDbEntity
8
SYS_DEVICE_BORDER
100
AcDbLine
10
-2.5000000000
20
2.5000000000
30
0.0000000000
11
2.5000000000
21
2.5000000000
31
0.0000000000
1001
DSTP_XDATA
1002
{
1000
_OWNERHANDLE=0000000064
1002
}
0
LINE
5
345
100
AcDbEntity
8
SYS_DEVICE_BORDER
100
AcDbLine
10
-2.5000000000
20
-2.5000000000
30
0.0000000000
11
-2.5000000000
21
2.5000000000
31
0.0000000000
1001
DSTP_XDATA
1002
{
1000
_OWNERHANDLE=0000000064
1002
}
0
TEXT
5
346
100
AcDbEntity
8
EL_DEVICE_NAME
100
AcDbText
11
0.0000000000
21
3.5000000000
31
0.0000000000
10
-11.6666667362
20
3.5000000000
30
0.0000000000
40
2.5000000000
50
0.0000000000
41
0.7000000000
51
12.0000000000
72
1
7
R2_5
1
!!ERR(NMO_Name)!!
100
AcDbText
73
0
1001
DSTP_XDATA
1002
{
1000
_TMPL1=@@[NMO_Name]
1000
_OWNERHANDLE=0000000064
1002
}
0
ENDBLK
5
347
100
AcDbEntity
8
0
100
AcDbBlockEnd
0
BLOCK
5
348
100
AcDbEntity
8
0
100
AcDbBlockBegin
2
CONNECTOR_SQUARE
70
2
10
0
20
0
30
0
3
CONNECTOR_SQUARE
1

0
LINE
5
349
100
AcDbEntity
8
SYS_PIN
100
AcDbLine
10
-0.3535533906
20
0.3535533906
30
0.0000000000
11
0.3535533906
21
-0.3535533906
31
0.0000000000
1001
DSTP_XDATA
1002
{
1000
_OWNERHANDLE=0000000064
1002
}
0
LINE
5
34A
100
AcDbEntity
8
SYS_PIN
100
AcDbLine
10
0.3535533906
20
0.3535533906
30
0.0000000000
11
-0.3535533906
21
-0.3535533906
31
0.0000000000
1001
DSTP_XDATA
1002
{
1000
_OWNERHANDLE=0000000064
1002
}
0
ENDBLK
5
34B
100
AcDbEntity
8
0
100
AcDbBlockEnd
0
BLOCK
5
34C
100
AcDbEntity
8
0
100
AcDbBlockBegin
2
CONNECTOR_SQUARE
70
2
10
0
20
0
30
0
3
CONNECTOR_SQUARE
1

0
LINE
5
34D
100
AcDbEntity
8
SYS_PIN
100
AcDbLine
10
-0.3535533906
20
0.3535533906
30
0.0000000000
11
0.3535533906
21
-0.3535533906
31
0.0000000000
1001
DSTP_XDATA
1002
{
1000
_OWNERHANDLE=0000000064
1002
}
0
LINE
5
34E
100
AcDbEntity
8
SYS_PIN
100
AcDbLine
10
0.3535533906
20
0.3535533906
30
0.0000000000
11
-0.3535533906
21
-0.3535533906
31
0.0000000000
1001
DSTP_XDATA
1002
{
1000
_OWNERHANDLE=0000000064
1002
}
0
ENDBLK
5
34F
100
AcDbEntity
8
0
100
AcDbBlockEnd
0
BLOCK
5
350
100
AcDbEntity
8
0
100
AcDbBlockBegin
2
DEVICE_CONNECTOR_SQUARE
70
2
10
0
20
0
30
0
3
DEVICE_CONNECTOR_SQUARE
1

0
LINE
5
351
100
AcDbEntity
8
SYS_METRIC
100
AcDbLine
10
-1.0000000000
20
0.0000000000
30
0.0000000000
11
1.0000000000
21
0.0000000000
31
0.0000000000
1001
DSTP_XDATA
1002
{
1000
_OWNERHANDLE=0000000064
1002
}
0
LINE
5
352
100
AcDbEntity
8
SYS_METRIC
100
AcDbLine
10
0.0000000000
20
1.0000000000
30
0.0000000000
11
0.0000000000
21
-1.0000000000
31
0.0000000000
1001
DSTP_XDATA
1002
{
1000
_OWNERHANDLE=0000000064
1002
}
0
ENDBLK
5
353
100
AcDbEntity
8
0
100
AcDbBlockEnd
0
BLOCK
5
354
100
AcDbEntity
8
0
100
AcDbBlockBegin
2
PS_DAT_TERMO
70
2
10
0
20
0
30
0
3
PS_DAT_TERMO
1

0
LINE
5
355
100
AcDbEntity
8
EL_DEVICE
100
AcDbLine
10
2.5000000000
20
-2.5000000000
30
0.0000000000
11
-2.5000000000
21
-2.5000000000
31
0.0000000000
1001
DSTP_XDATA
1002
{
1000
_OWNERHANDLE=0000000064
1002
}
0
LINE
5
356
100
AcDbEntity
8
EL_DEVICE
100
AcDbLine
10
2.5000000000
20
2.5000000000
30
0.0000000000
11
2.5000000000
21
-2.5000000000
31
0.0000000000
1001
DSTP_XDATA
1002
{
1000
_OWNERHANDLE=0000000064
1002
}
0
LINE
5
357
100
AcDbEntity
8
EL_DEVICE
100
AcDbLine
10
-2.5000000000
20
2.5000000000
30
0.0000000000
11
2.5000000000
21
2.5000000000
31
0.0000000000
1001
DSTP_XDATA
1002
{
1000
_OWNERHANDLE=0000000064
1002
}
0
LINE
5
358
100
AcDbEntity
8
EL_DEVICE
100
AcDbLine
10
-2.5000000000
20
-2.5000000000
30
0.0000000000
11
-2.5000000000
21
2.5000000000
31
0.0000000000
1001
DSTP_XDATA
1002
{
1000
_OWNERHANDLE=0000000064
1002
}
0
LINE
5
359
100
AcDbEntity
8
EL_DEVICE
100
AcDbLine
10
0.0000000000
20
-0.7093147645
30
0.0000000000
11
0.0000000000
21
1.7093147645
31
0.0000000000
1001
DSTP_XDATA
1002
{
1000
_OWNERHANDLE=0000000064
1002
}
0
CIRCLE
5
35A
100
AcDbEntity
8
EL_DEVICE
100
AcDbCircle
10
0.0000000000
20
-1.2093147645
30
0.0000000000
40
0.5000000000
1001
DSTP_XDATA
1002
{
1000
_OWNERHANDLE=0000000064
1002
}
0
ENDBLK
5
35B
100
AcDbEntity
8
0
100
AcDbBlockEnd
0
BLOCK
5
35C
100
AcDbEntity
8
0
100
AcDbBlockBegin
2
DEVICE_PS_DAT_TERMO
70
2
10
0
20
0
30
0
3
DEVICE_PS_DAT_TERMO
1

0
INSERT
5
35D
100
AcDbEntity
8
0
100
AcDbBlockReference
2
CONNECTOR_SQUARE
10
0.0000000000
20
0.0000000000
30
0.0000000000
41
1.0000000000
42
1.0000000000
43
1.0000000000
50
0.0000000000
1001
DSTP_XDATA
1002
{
1000
_OWNERHANDLE=0000000064
1000
_HANDLE=000D91EEE8
1000
_UPGRADE=1
1002
}
0
LINE
5
35E
100
AcDbEntity
8
SYS_DEVICE_BORDER
100
AcDbLine
10
2.5000000000
20
-2.5000000000
30
0.0000000000
11
-2.5000000000
21
-2.5000000000
31
0.0000000000
1001
DSTP_XDATA
1002
{
1000
_OWNERHANDLE=0000000064
1002
}
0
LINE
5
35F
100
AcDbEntity
8
SYS_DEVICE_BORDER
100
AcDbLine
10
2.5000000000
20
2.5000000000
30
0.0000000000
11
2.5000000000
21
-2.5000000000
31
0.0000000000
1001
DSTP_XDATA
1002
{
1000
_OWNERHANDLE=0000000064
1002
}
0
LINE
5
360
100
AcDbEntity
8
SYS_DEVICE_BORDER
100
AcDbLine
10
-2.5000000000
20
2.5000000000
30
0.0000000000
11
2.5000000000
21
2.5000000000
31
0.0000000000
1001
DSTP_XDATA
1002
{
1000
_OWNERHANDLE=0000000064
1002
}
0
LINE
5
361
100
AcDbEntity
8
SYS_DEVICE_BORDER
100
AcDbLine
10
-2.5000000000
20
-2.5000000000
30
0.0000000000
11
-2.5000000000
21
2.5000000000
31
0.0000000000
1001
DSTP_XDATA
1002
{
1000
_OWNERHANDLE=0000000064
1002
}
0
TEXT
5
362
100
AcDbEntity
8
EL_DEVICE_NAME
100
AcDbText
11
0.0000000000
21
3.5000000000
31
0.0000000000
10
-11.6666667362
20
3.5000000000
30
0.0000000000
40
2.5000000000
50
0.0000000000
41
0.7000000000
51
12.0000000000
72
1
7
R2_5
1
!!ERR(NMO_Name)!!
100
AcDbText
73
0
1001
DSTP_XDATA
1002
{
1000
_TMPL1=@@[NMO_Name]
1000
_OWNERHANDLE=0000000064
1002
}
0
ENDBLK
5
363
100
AcDbEntity
8
0
100
AcDbBlockEnd
0
>>>>>>> .r114
ENDSEC
0
SECTION
2
ENTITIES
0
INSERT
<<<<<<< .mine
5
32D
=======
5
364
>>>>>>> .r114
100
AcDbEntity
8
0
100
AcDbBlockReference
2
testbox
<<<<<<< .mine
10
2.5084907988
20
769.4551758412
30
0.0000000000
41
1.0000000000
42
1.0000000000
43
1.0000000000
50
342.3633316023
=======
10
267.5716113459
20
-31.5385068516
30
0.0000000000
41
1.0000000000
42
1.0000000000
43
1.0000000000
50
0.0000000000
>>>>>>> .r114
1001
DSTP_XDATA
1002
{
1000
_OWNERHANDLE=0000000064
1000
<<<<<<< .mine
_HANDLE=000890CAC8
=======
_HANDLE=001384EF90
>>>>>>> .r114
1000
_UPGRADE=1
1002
}
0
INSERT
<<<<<<< .mine
5
32E
=======
5
365
>>>>>>> .r114
100
AcDbEntity
8
0
100
AcDbBlockReference
2
FIX
<<<<<<< .mine
10
19.6129568006
20
790.2503012987
30
0.0000000000
41
1.9685039370
42
1.9685039370
43
1.9685039370
50
342.3633316023
=======
10
277.5716113459
20
-6.5385068516
30
0.0000000000
41
1.9685039370
42
1.9685039370
43
1.9685039370
50
0.0000000000
>>>>>>> .r114
1001
DSTP_XDATA
1002
{
1000
<<<<<<< .mine
_OWNERHANDLE=000890CAC8
=======
_OWNERHANDLE=001384EF90
>>>>>>> .r114
1002
}
0
LWPOLYLINE
<<<<<<< .mine
5
32F
=======
5
366
>>>>>>> .r114
100
AcDbEntity
8
0
100
AcDbPolyline
90
4
70
1
38
0.0000000000
10
9.6129568006
20
81.9227930082
40
1.0000000000
41
1.0000000000
10
609.6129568006
20
81.9227930082
40
1.0000000000
41
1.0000000000
10
609.6129568006
20
1081.9227930082
40
1.0000000000
41
1.0000000000
10
9.6129568006
20
1081.9227930082
40
1.0000000000
41
1.0000000000
1001
DSTP_XDATA
1002
{
1000
_OWNERHANDLE=0000000064
1002
}
0
LWPOLYLINE
<<<<<<< .mine
5
330
=======
5
367
>>>>>>> .r114
100
AcDbEntity
8
0
100
AcDbPolyline
90
2
70
0
38
0.0000000000
10
19.6129568006
20
881.9227930082
40
1.0000000000
41
1.0000000000
10
599.6129568006
20
881.9227930082
40
1.0000000000
41
1.0000000000
1001
DSTP_XDATA
1002
{
1000
_OWNERHANDLE=0000000064
1002
}
0
LWPOLYLINE
<<<<<<< .mine
5
331
=======
5
368
>>>>>>> .r114
100
AcDbEntity
8
0
100
AcDbPolyline
90
2
70
0
38
0.0000000000
10
19.6129568006
20
790.2503012987
40
1.0000000000
41
1.0000000000
10
599.6129568006
20
605.8548376858
40
1.0000000000
41
1.0000000000
1001
DSTP_XDATA
1002
{
1000
_OWNERHANDLE=0000000064
1002
}
0
LWPOLYLINE
<<<<<<< .mine
5
332
=======
5
369
>>>>>>> .r114
100
AcDbEntity
8
0
100
AcDbPolyline
90
2
70
0
38
9.6129568006
10
9.6129568006
20
9.6129568006
40
1.0000000000
41
1.0000000000
10
9.6129568006
20
9.6129568006
40
1.0000000000
41
1.0000000000
210
1.0000000000
220
0.0000000000
230
0.0000000000
1001
DSTP_XDATA
1002
{
1000
_OWNERHANDLE=0000000064
1002
}
0
INSERT
<<<<<<< .mine
5
333
=======
5
36A
>>>>>>> .r114
100
AcDbEntity
8
0
100
AcDbBlockReference
2
testbox
10
39.1502838061
20
312.4971641239
30
-311.7864860052
41
1.0000000000
42
1.0000000000
43
1.0000000000
50
90.0000000000
210
-0.7071067812
220
0.0000000000
230
0.7071067812
1001
DSTP_XDATA
1002
{
1000
_OWNERHANDLE=0000000064
1000
<<<<<<< .mine
_HANDLE=0027625120
=======
_HANDLE=0012714C30
>>>>>>> .r114
1000
_UPGRADE=1
1002
}
0
INSERT
<<<<<<< .mine
5
334
=======
5
36B
>>>>>>> .r114
100
AcDbEntity
8
0
100
AcDbBlockReference
2
FIX
<<<<<<< .mine
10
448.5062702021
20
-10.0057616350
30
7.5735931288
41
1.9685039370
42
1.3919424826
43
1.9685039370
50
90.0000000000
=======
10
441.4352023902
20
-49.1502838061
30
25.5025253169
41
1.9685039370
42
1.9685039370
43
1.9685039370
50
90.0000000000
>>>>>>> .r114
210
-0.7071067812
220
0.0000000000
230
0.7071067812
1001
DSTP_XDATA
1002
{
1000
<<<<<<< .mine
_OWNERHANDLE=0027625120
=======
_OWNERHANDLE=0012714C30
>>>>>>> .r114
1002
}
0
INSERT
<<<<<<< .mine
5
335
=======
5
36C
>>>>>>> .r114
100
AcDbEntity
8
0
100
AcDbBlockReference
2
testbox
10
336.8831879992
20
235.3610678358
30
-385.9415988627
41
1.0000000000
42
1.0000000000
43
1.0000000000
50
35.2643896828
210
-0.7071067812
220
-0.5000000000
230
0.5000000000
1001
DSTP_XDATA
1002
{
1000
_OWNERHANDLE=0000000064
1000
<<<<<<< .mine
_HANDLE=0027625800
=======
_HANDLE=0012715310
>>>>>>> .r114
1000
_UPGRADE=1
1002
}
0
INSERT
<<<<<<< .mine
5
336
=======
5
36D
>>>>>>> .r114
100
AcDbEntity
8
0
100
AcDbBlockReference
2
FIX
<<<<<<< .mine
10
544.9852297602
20
34.6932284116
30
33.5355339059
41
1.7969900181
42
1.8846990310
43
1.9685039370
50
312.1304147614
=======
10
559.4773249374
20
-33.6358553912
30
29.0026378392
41
1.9685039370
42
1.9685039370
43
1.9685039370
50
302.2251926008
>>>>>>> .r114
210
-0.7071067812
220
-0.5000000000
230
0.5000000000
1001
DSTP_XDATA
1002
{
1000
<<<<<<< .mine
_OWNERHANDLE=0027625800
=======
_OWNERHANDLE=0012715310
>>>>>>> .r114
1002
}
0
LWPOLYLINE
<<<<<<< .mine
5
337
=======
5
36E
>>>>>>> .r114
100
AcDbEntity
8
0
100
AcDbPolyline
90
4
70
1
38
-629.6129568006
10
629.6129568006
20
81.9227930082
40
1.0000000000
41
1.0000000000
10
629.6129568006
20
81.9227930082
40
1.0000000000
41
1.0000000000
10
629.6129568006
20
1081.9227930082
40
1.0000000000
41
1.0000000000
10
629.6129568006
20
1081.9227930082
40
1.0000000000
41
1.0000000000
210
-1.0000000000
220
0.0000000000
230
0.0000000000
1001
DSTP_XDATA
1002
{
1000
_OWNERHANDLE=0000000064
1002
}
0
LWPOLYLINE
<<<<<<< .mine
5
338
=======
5
36F
>>>>>>> .r114
100
AcDbEntity
8
0
100
AcDbPolyline
90
2
70
0
38
-629.6129568006
10
629.6129568006
20
881.9227930082
40
1.0000000000
41
1.0000000000
10
629.6129568006
20
881.9227930082
40
1.0000000000
41
1.0000000000
210
-1.0000000000
220
0.0000000000
230
0.0000000000
1001
DSTP_XDATA
1002
{
1000
_OWNERHANDLE=0000000064
1002
}
0
LWPOLYLINE
<<<<<<< .mine
5
339
=======
5
370
>>>>>>> .r114
100
AcDbEntity
8
0
100
AcDbPolyline
90
2
70
0
38
-629.6129568006
10
629.6129568006
20
790.2503012987
40
1.0000000000
41
1.0000000000
10
629.6129568006
20
605.8548376858
40
1.0000000000
41
1.0000000000
210
-1.0000000000
220
0.0000000000
230
0.0000000000
1001
DSTP_XDATA
1002
{
1000
_OWNERHANDLE=0000000064
1002
}
0
LWPOLYLINE
<<<<<<< .mine
5
33A
=======
5
371
>>>>>>> .r114
100
AcDbEntity
8
0
100
AcDbPolyline
<<<<<<< .mine
90
4
70
1
38
-7.3447486828
10
-222.5190775554
20
57.9281624698
40
1.0000000000
41
1.0000000000
10
-10.3870431994
20
57.9281624698
40
1.0000000000
41
1.0000000000
10
-10.3870431994
20
765.0349436564
40
1.0000000000
41
1.0000000000
10
-222.5190775554
20
765.0349436564
40
1.0000000000
41
1.0000000000
=======
90
4
70
1
38
-7.3447486828
10
-222.5190775554
20
81.9227930082
40
1.0000000000
41
1.0000000000
10
-10.3870431994
20
81.9227930082
40
1.0000000000
41
1.0000000000
10
-10.3870431994
20
1081.9227930082
40
1.0000000000
41
1.0000000000
10
-222.5190775554
20
1081.9227930082
40
1.0000000000
41
1.0000000000
>>>>>>> .r114
210
0.7071067812
220
0.0000000000
230
0.7071067812
1001
DSTP_XDATA
1002
{
1000
_OWNERHANDLE=0000000064
1002
}
0
LWPOLYLINE
<<<<<<< .mine
5
33B
=======
5
372
>>>>>>> .r114
100
AcDbEntity
8
0
100
AcDbPolyline
<<<<<<< .mine
90
2
70
0
38
-7.3447486828
10
-215.4480097435
20
623.6135874191
40
1.0000000000
41
1.0000000000
10
-17.4581110113
20
623.6135874191
40
1.0000000000
41
1.0000000000
=======
90
2
70
0
38
-7.3447486828
10
-215.4480097435
20
881.9227930082
40
1.0000000000
41
1.0000000000
10
-17.4581110113
20
881.9227930082
40
1.0000000000
41
1.0000000000
>>>>>>> .r114
210
0.7071067812
220
0.0000000000
230
0.7071067812
1001
DSTP_XDATA
1002
{
1000
_OWNERHANDLE=0000000064
1002
}
0
LWPOLYLINE
<<<<<<< .mine
5
33C
=======
5
373
>>>>>>> .r114
100
AcDbEntity
8
0
100
AcDbPolyline
<<<<<<< .mine
90
2
70
0
38
-7.3447486828
10
-215.4480097435
20
558.7913468830
40
1.0000000000
41
1.0000000000
10
-17.4581110113
20
428.4040641423
40
1.0000000000
41
1.0000000000
=======
90
2
70
0
38
-7.3447486828
10
-215.4480097435
20
790.2503012987
40
1.0000000000
41
1.0000000000
10
-17.4581110113
20
605.8548376858
40
1.0000000000
41
1.0000000000
>>>>>>> .r114
210
0.7071067812
220
0.0000000000
230
0.7071067812
1001
DSTP_XDATA
1002
{
1000
_OWNERHANDLE=0000000064
1002
}
<<<<<<< .mine
0
=======
0
LWPOLYLINE
5
374
100
AcDbEntity
8
0
100
AcDbPolyline
90
24
70
1
38
0.0000000000
10
798.9573607737
20
494.0299519634
40
1.0000000000
41
1.0000000000
10
937.4890230844
20
714.2645706342
40
1.0000000000
41
1.0000000000
10
1050.5458148512
20
714.2645706342
40
1.0000000000
41
1.0000000000
10
1148.2515533883
20
690.5470840404
40
1.0000000000
41
1.0000000000
10
1177.4463542492
20
661.3522831794
40
1.0000000000
41
1.0000000000
10
1177.4463542492
20
617.1269706879
40
1.0000000000
41
1.0000000000
10
1153.9093217198
20
562.6712902421
40
1.0000000000
41
1.0000000000
10
1108.6867664707
20
517.4487349930
40
1.0000000000
41
1.0000000000
10
1038.9166985211
20
517.4487349930
40
1.0000000000
41
1.0000000000
10
1004.5964231851
20
466.8658276946
40
1.0000000000
41
1.0000000000
10
972.0886441960
20
388.2347497703
40
1.0000000000
41
1.0000000000
10
997.4211204349
20
310.4169296928
40
1.0000000000
41
1.0000000000
10
1083.9496306591
20
272.7606173217
40
1.0000000000
41
1.0000000000
10
1177.8286293208
20
352.5799686264
40
1.0000000000
41
1.0000000000
10
1223.3807412494
20
435.4016183141
40
1.0000000000
41
1.0000000000
10
1263.2928666685
20
763.1325674037
40
1.0000000000
41
1.0000000000
10
1219.0550104923
20
970.2804555389
40
1.0000000000
41
1.0000000000
10
1074.4301438513
20
1114.9053221799
40
1.0000000000
41
1.0000000000
10
953.0526953092
20
1114.9053221799
40
1.0000000000
41
1.0000000000
10
859.3416726437
20
980.1006222386
40
1.0000000000
41
1.0000000000
10
804.5075409070
20
767.3676279814
40
1.0000000000
41
1.0000000000
10
736.3090921909
20
596.7514425988
40
1.0000000000
41
1.0000000000
10
757.5819235805
20
414.5429346685
40
1.0000000000
41
1.0000000000
10
781.6380568191
20
513.0177446406
40
1.0000000000
41
1.0000000000
1001
DSTP_XDATA
1002
{
1000
_OWNERHANDLE=0000000064
1002
}
0
LINE
5
375
100
AcDbEntity
8
0
100
AcDbLine
10
790.2977087964
20
503.5238483020
30
0.0000000000
11
811.0714290767
21
612.0813464168
31
0.0000000000
1001
DSTP_XDATA
1002
{
1000
_OWNERHANDLE=0000000064
1002
}
0
LINE
5
376
100
AcDbEntity
8
0
100
AcDbLine
10
790.2977087964
20
503.5238483020
30
0.0000000000
11
833.6843792459
21
603.0880664804
31
0.0000000000
1001
DSTP_XDATA
1002
{
1000
_OWNERHANDLE=0000000064
1002
}
0
LWPOLYLINE
5
377
100
AcDbEntity
8
0
100
AcDbPolyline
90
23
70
1
38
0.0000000000
10
1324.0657498407
20
550.2990547455
40
1.0000000000
41
1.0000000000
10
1324.0657498407
20
460.8548848262
40
1.0000000000
41
1.0000000000
10
1340.9451373969
20
456.0826134819
40
1.0000000000
41
1.0000000000
10
1309.4719285295
20
443.8428364642
40
1.0000000000
41
1.0000000000
10
1325.2085329632
20
432.0028288185
40
1.0000000000
41
1.0000000000
10
1325.2085329632
20
401.7959396348
40
1.0000000000
41
1.0000000000
10
1353.9896258518
20
401.7959396348
40
1.0000000000
41
1.0000000000
10
1363.4747604848
20
430.6772833992
40
1.0000000000
41
1.0000000000
10
1368.2821257910
20
377.1870688678
40
1.0000000000
41
1.0000000000
10
1380.0949769806
20
401.7959396348
40
1.0000000000
41
1.0000000000
10
1400.4909743044
20
401.7959396348
40
1.0000000000
41
1.0000000000
10
1400.4909743044
20
475.5249142280
40
1.0000000000
41
1.0000000000
10
1380.9255702376
20
482.4675832660
40
1.0000000000
41
1.0000000000
10
1417.8681846614
20
492.8055220316
40
1.0000000000
41
1.0000000000
10
1400.4909743044
20
499.8848947542
40
1.0000000000
41
1.0000000000
10
1400.4909743044
20
550.2990547455
40
1.0000000000
41
1.0000000000
10
1376.8847876110
20
550.2990547455
40
1.0000000000
41
1.0000000000
10
1370.4502054418
20
568.1798134454
40
1.0000000000
41
1.0000000000
10
1365.6746256660
20
526.8443223125
40
1.0000000000
41
1.0000000000
10
1358.5246805992
20
550.9817992314
40
1.0000000000
41
1.0000000000
10
1349.2493480200
20
564.6933598313
40
1.0000000000
41
1.0000000000
10
1346.2769016506
20
540.0462130329
40
1.0000000000
41
1.0000000000
10
1333.1521997540
20
550.2990547455
40
1.0000000000
41
1.0000000000
1001
DSTP_XDATA
1002
{
1000
_OWNERHANDLE=0000000064
1002
}
0
INSERT
5
378
100
AcDbEntity
8
0
100
AcDbBlockReference
2
PS_DAT_SMOKE
10
835.9166632600
20
678.6351640035
30
0.0000000000
41
1.0000000000
42
1.0000000000
43
1.0000000000
50
0.0000000000
1001
DSTP_XDATA
1002
{
1000
USES=System
1000
USES=devices
1000
#0=NMO_Name|GDBString|??BTH0.0|РћР±РѕР·РЅР°С‡РµРЅРёРµ
1000
#1=NMO_BaseName|GDBString|BTH|РљРѕСЂРѕС‚РєРѕРµ РРјСЏ
1000
#2=NMO_Prefix|GDBString||РџСЂРµС„РёРєСЃ
1000
#3=NMO_Suffix|GDBString||РЎСѓС„С„РёРєСЃ
1000
#4=NMO_Template|GDBString|@@[GC_HDShortName]@@[NMO_BaseName]@@[GC_HDGroup].@@[GC_NumberInGroup]|РЁР°Р±Р»РѕРЅ РћР±РѕР·РЅР°С‡РµРЅРёСЏ
1000
#5=DB_link|GDBString|SmokeDet|РњР°С‚РµСЂРёР°Р»
1000
#6=DB_MatName|GDBString|Error!!!|Р Р°СЃС€РёС„СЂРѕРІРєР°
1000
#7=GC_HeadDevice|GDBString|ARK??|Р“РѕР»РѕРІРЅРѕРіРµ СѓСЃС‚СЂРѕР№СЃС‚РІРѕ
1000
#8=GC_HeadDeviceTemplate|GDBString||РЁР°Р±Р»РѕРЅ РіРѕР»РѕРІРЅРѕРіРѕ СѓСЃС‚СЂРѕР№СЃС‚РІР°
1000
#9=GC_HDShortName|GDBString|??|РљРѕСЂРѕС‚РєРѕРµ РёРјСЏ РіРѕР»РѕРІРЅРѕРіРѕ СѓСЃС‚СЂРѕР№СЃС‚РІР°
1000
#10=GC_HDShortNameTemplate|GDBString||РЁР°Р±Р»РѕРЅ РєРѕСЂРѕС‚РєРѕРіРѕ РёРјРµРЅРё РіРѕР»РѕРІРЅРѕРіРѕ СѓСЃС‚СЂРѕР№СЃС‚РІР°
1000
#11=GC_HDGroup|GDBString|0|Р“СЂСѓРїРїР° РІ РіРѕР»РѕРІРЅРѕРј СѓСЃС‚СЂРѕР№СЃС‚РІРµ
1000
#12=GC_HDGroupTemplate|GDBString||РЁР°Р±Р»РѕРЅ РіСЂСѓРїРїС‹
1000
#13=SerialConnection|GDBInteger|1|
1000
#14=GC_NumberInGroup|GDBInteger|0|РќРѕРјРµСЂ СѓСЃС‚СЂРѕР№СЃС‚РІР° РІ РіСЂСѓРїРїРµ
1000
#15=GC_InGroup_Metric|GDBString||РњРµС‚СЂРёРєР° РЅСѓРјРµСЂР°С†РёРё РІ РіСЂСѓРїРїРµ
1000
#16=GC_Metric|GDBString||РњРµС‚СЂРёРєР° РЅСѓРјРµСЂР°С†РёРё
1000
#17=Device_Type|TDeviceType|TDT_SensorPS|РўРёРї СѓСЃС‚СЂРѕР№СЃС‚РІР°
1000
#18=Device_Class|TDeviceClass|TDC_Unknown|РљР»Р°СЃСЃ СѓСЃС‚СЂРѕР№СЃС‚РІР°
1000
#19=Device_Group|TDeviceGroup|TDG_ElDevice|Р“СЂСѓРїРїР° СѓСЃС‚СЂРѕР№СЃС‚РІР°
1000
#20=BTY_TreeCoord|GDBString|PLAN_OPS_PSSENSORS_HSENSORS_РўРѕС‡РµС‡РЅС‹Р№ 1|РџРѕР·РёС†РёСЏ РІ РґРµСЂРµРІРµ
1000
#21=Device_Type|TDeviceType|TDT_Unknown|РўРёРї СѓСЃС‚СЂРѕР№СЃС‚РІР°
1000
#22=AmountI|GDBInteger|1|РљРѕР»РёС‡РµСЃС‚РІРѕ
1000
#23=EL_Cab_AddLength|GDBDouble|0.1|Р”РѕР±Р°РІР»СЏС‚СЊ Рє РґР»РёРЅРµ РєР°Р±РµР»СЏ
1000
_OWNERHANDLE=0000000064
1000
_HANDLE=000D920478
1000
_UPGRADE=1
1002
}
0
INSERT
5
379
100
AcDbEntity
8
0
100
AcDbBlockReference
2
CONNECTOR_SQUARE
10
835.9166632600
20
678.6351640035
30
0.0000000000
41
1.0000000000
42
1.0000000000
43
1.0000000000
50
0.0000000000
1001
DSTP_XDATA
1002
{
1000
USES=System
1000
USES=connectors
1000
USES=devices
1000
#0=DeviceClass|TDeviceClass|TDC_Unknown|РљР»Р°СЃСЃ СѓСЃС‚СЂРѕР№СЃС‚РІР°
1000
#1=Connector_Type|TConnectorType|TCT_ElCable|РўРёРї СЃРѕРµРґРёРЅРµРЅРёСЏ
1000
#2=Border_Type|TConnectorBorderType|TCBT_Owner|Р“СЂР°РЅРёС†Р° РїРѕРґСЂРµР·РєРё
1000
#3=Connector_Name|GDBString||РРјСЏ СЃРѕРµРґРёРЅРµРЅРёСЏ
1000
#4=Connector_Junction|GDBBoolean|False|Р’РѕР·РјРѕР¶РЅРѕСЃС‚СЊ РѕС‚РІРµС‚РІР»РµРЅРёСЏ
1000
#5=Cable_AddLength|GDBDouble|0.0|Р”РѕР±Р°РІРёС‚СЊ Рє РґР»РёРЅРµ
1000
_OWNERHANDLE=000D920478
1000
_HANDLE=000D9206D8
1000
_UPGRADE=1
1002
}
0
LINE
5
37A
100
AcDbEntity
8
SYS_METRIC
100
AcDbLine
10
834.9166632600
20
678.6351640035
30
0.0000000000
11
836.9166632600
21
678.6351640035
31
0.0000000000
1001
DSTP_XDATA
1002
{
1000
_OWNERHANDLE=000D9206D8
1002
}
0
LINE
5
37B
100
AcDbEntity
8
SYS_METRIC
100
AcDbLine
10
835.9166632600
20
679.6351640035
30
0.0000000000
11
835.9166632600
21
677.6351640035
31
0.0000000000
1001
DSTP_XDATA
1002
{
1000
_OWNERHANDLE=000D9206D8
1002
}
0
LINE
5
37C
100
AcDbEntity
8
SYS_DEVICE_BORDER
100
AcDbLine
10
838.4166632600
20
676.1351640035
30
0.0000000000
11
833.4166632600
21
676.1351640035
31
0.0000000000
1001
DSTP_XDATA
1002
{
1000
_OWNERHANDLE=000D920478
1002
}
0
LINE
5
37D
100
AcDbEntity
8
SYS_DEVICE_BORDER
100
AcDbLine
10
838.4166632600
20
681.1351640035
30
0.0000000000
11
838.4166632600
21
676.1351640035
31
0.0000000000
1001
DSTP_XDATA
1002
{
1000
_OWNERHANDLE=000D920478
1002
}
0
LINE
5
37E
100
AcDbEntity
8
SYS_DEVICE_BORDER
100
AcDbLine
10
833.4166632600
20
681.1351640035
30
0.0000000000
11
838.4166632600
21
681.1351640035
31
0.0000000000
1001
DSTP_XDATA
1002
{
1000
_OWNERHANDLE=000D920478
1002
}
0
LINE
5
37F
100
AcDbEntity
8
SYS_DEVICE_BORDER
100
AcDbLine
10
833.4166632600
20
676.1351640035
30
0.0000000000
11
833.4166632600
21
681.1351640035
31
0.0000000000
1001
DSTP_XDATA
1002
{
1000
_OWNERHANDLE=000D920478
1002
}
0
TEXT
5
380
100
AcDbEntity
8
EL_DEVICE_NAME
100
AcDbText
11
835.9166632600
21
682.1351640035
31
0.0000000000
10
830.5208299267
20
682.1351640035
30
0.0000000000
40
2.5000000000
50
0.0000000000
41
0.7000000000
51
12.0000000000
72
1
7
R2_5
1
??BTH0.0
100
AcDbText
73
0
1001
DSTP_XDATA
1002
{
1000
_TMPL1=@@[NMO_Name]
1000
_OWNERHANDLE=000D920478
1002
}
0
INSERT
5
381
100
AcDbEntity
8
0
370
0
100
AcDbBlockReference
2
FIX
10
835.9166632600
20
674.0546105485
30
0.0000000000
41
1.0000000000
42
1.0000000000
43
1.0000000000
50
0.0000000000
1001
DSTP_XDATA
1002
{
1000
_OWNERHANDLE=000D920478
1002
}
0
INSERT
5
382
100
AcDbEntity
8
0
100
AcDbBlockReference
2
PS_DAT_SMOKE
10
835.9166632600
20
645.7185600592
30
0.0000000000
41
1.0000000000
42
1.0000000000
43
1.0000000000
50
0.0000000000
1001
DSTP_XDATA
1002
{
1000
USES=System
1000
USES=devices
1000
#0=NMO_Name|GDBString|??BTH0.0|РћР±РѕР·РЅР°С‡РµРЅРёРµ
1000
#1=NMO_BaseName|GDBString|BTH|РљРѕСЂРѕС‚РєРѕРµ РРјСЏ
1000
#2=NMO_Prefix|GDBString||РџСЂРµС„РёРєСЃ
1000
#3=NMO_Suffix|GDBString||РЎСѓС„С„РёРєСЃ
1000
#4=NMO_Template|GDBString|@@[GC_HDShortName]@@[NMO_BaseName]@@[GC_HDGroup].@@[GC_NumberInGroup]|РЁР°Р±Р»РѕРЅ РћР±РѕР·РЅР°С‡РµРЅРёСЏ
1000
#5=DB_link|GDBString|SmokeDet|РњР°С‚РµСЂРёР°Р»
1000
#6=DB_MatName|GDBString|Error!!!|Р Р°СЃС€РёС„СЂРѕРІРєР°
1000
#7=GC_HeadDevice|GDBString|ARK??|Р“РѕР»РѕРІРЅРѕРіРµ СѓСЃС‚СЂРѕР№СЃС‚РІРѕ
1000
#8=GC_HeadDeviceTemplate|GDBString||РЁР°Р±Р»РѕРЅ РіРѕР»РѕРІРЅРѕРіРѕ СѓСЃС‚СЂРѕР№СЃС‚РІР°
1000
#9=GC_HDShortName|GDBString|??|РљРѕСЂРѕС‚РєРѕРµ РёРјСЏ РіРѕР»РѕРІРЅРѕРіРѕ СѓСЃС‚СЂРѕР№СЃС‚РІР°
1000
#10=GC_HDShortNameTemplate|GDBString||РЁР°Р±Р»РѕРЅ РєРѕСЂРѕС‚РєРѕРіРѕ РёРјРµРЅРё РіРѕР»РѕРІРЅРѕРіРѕ СѓСЃС‚СЂРѕР№СЃС‚РІР°
1000
#11=GC_HDGroup|GDBString|0|Р“СЂСѓРїРїР° РІ РіРѕР»РѕРІРЅРѕРј СѓСЃС‚СЂРѕР№СЃС‚РІРµ
1000
#12=GC_HDGroupTemplate|GDBString||РЁР°Р±Р»РѕРЅ РіСЂСѓРїРїС‹
1000
#13=SerialConnection|GDBInteger|1|
1000
#14=GC_NumberInGroup|GDBInteger|0|РќРѕРјРµСЂ СѓСЃС‚СЂРѕР№СЃС‚РІР° РІ РіСЂСѓРїРїРµ
1000
#15=GC_InGroup_Metric|GDBString||РњРµС‚СЂРёРєР° РЅСѓРјРµСЂР°С†РёРё РІ РіСЂСѓРїРїРµ
1000
#16=GC_Metric|GDBString||РњРµС‚СЂРёРєР° РЅСѓРјРµСЂР°С†РёРё
1000
#17=Device_Type|TDeviceType|TDT_SensorPS|РўРёРї СѓСЃС‚СЂРѕР№СЃС‚РІР°
1000
#18=Device_Class|TDeviceClass|TDC_Unknown|РљР»Р°СЃСЃ СѓСЃС‚СЂРѕР№СЃС‚РІР°
1000
#19=Device_Group|TDeviceGroup|TDG_ElDevice|Р“СЂСѓРїРїР° СѓСЃС‚СЂРѕР№СЃС‚РІР°
1000
#20=BTY_TreeCoord|GDBString|PLAN_OPS_PSSENSORS_HSENSORS_РўРѕС‡РµС‡РЅС‹Р№ 1|РџРѕР·РёС†РёСЏ РІ РґРµСЂРµРІРµ
1000
#21=Device_Type|TDeviceType|TDT_Unknown|РўРёРї СѓСЃС‚СЂРѕР№СЃС‚РІР°
1000
#22=AmountI|GDBInteger|1|РљРѕР»РёС‡РµСЃС‚РІРѕ
1000
#23=EL_Cab_AddLength|GDBDouble|0.1|Р”РѕР±Р°РІР»СЏС‚СЊ Рє РґР»РёРЅРµ РєР°Р±РµР»СЏ
1000
_OWNERHANDLE=0000000064
1000
_HANDLE=000D920D38
1000
_UPGRADE=1
1002
}
0
INSERT
5
383
100
AcDbEntity
8
0
100
AcDbBlockReference
2
CONNECTOR_SQUARE
10
835.9166632600
20
645.7185600592
30
0.0000000000
41
1.0000000000
42
1.0000000000
43
1.0000000000
50
0.0000000000
1001
DSTP_XDATA
1002
{
1000
USES=System
1000
USES=connectors
1000
USES=devices
1000
#0=DeviceClass|TDeviceClass|TDC_Unknown|РљР»Р°СЃСЃ СѓСЃС‚СЂРѕР№СЃС‚РІР°
1000
#1=Connector_Type|TConnectorType|TCT_ElCable|РўРёРї СЃРѕРµРґРёРЅРµРЅРёСЏ
1000
#2=Border_Type|TConnectorBorderType|TCBT_Owner|Р“СЂР°РЅРёС†Р° РїРѕРґСЂРµР·РєРё
1000
#3=Connector_Name|GDBString||РРјСЏ СЃРѕРµРґРёРЅРµРЅРёСЏ
1000
#4=Connector_Junction|GDBBoolean|False|Р’РѕР·РјРѕР¶РЅРѕСЃС‚СЊ РѕС‚РІРµС‚РІР»РµРЅРёСЏ
1000
#5=Cable_AddLength|GDBDouble|0.0|Р”РѕР±Р°РІРёС‚СЊ Рє РґР»РёРЅРµ
1000
_OWNERHANDLE=000D920D38
1000
_HANDLE=000D919728
1000
_UPGRADE=1
1002
}
0
LINE
5
384
100
AcDbEntity
8
SYS_METRIC
100
AcDbLine
10
834.9166632600
20
645.7185600592
30
0.0000000000
11
836.9166632600
21
645.7185600592
31
0.0000000000
1001
DSTP_XDATA
1002
{
1000
_OWNERHANDLE=000D919728
1002
}
0
LINE
5
385
100
AcDbEntity
8
SYS_METRIC
100
AcDbLine
10
835.9166632600
20
646.7185600592
30
0.0000000000
11
835.9166632600
21
644.7185600592
31
0.0000000000
1001
DSTP_XDATA
1002
{
1000
_OWNERHANDLE=000D919728
1002
}
0
LINE
5
386
100
AcDbEntity
8
SYS_DEVICE_BORDER
100
AcDbLine
10
838.4166632600
20
643.2185600592
30
0.0000000000
11
833.4166632600
21
643.2185600592
31
0.0000000000
1001
DSTP_XDATA
1002
{
1000
_OWNERHANDLE=000D920D38
1002
}
0
LINE
5
387
100
AcDbEntity
8
SYS_DEVICE_BORDER
100
AcDbLine
10
838.4166632600
20
648.2185600592
30
0.0000000000
11
838.4166632600
21
643.2185600592
31
0.0000000000
1001
DSTP_XDATA
1002
{
1000
_OWNERHANDLE=000D920D38
1002
}
0
LINE
5
388
100
AcDbEntity
8
SYS_DEVICE_BORDER
100
AcDbLine
10
833.4166632600
20
648.2185600592
30
0.0000000000
11
838.4166632600
21
648.2185600592
31
0.0000000000
1001
DSTP_XDATA
1002
{
1000
_OWNERHANDLE=000D920D38
1002
}
0
LINE
5
389
100
AcDbEntity
8
SYS_DEVICE_BORDER
100
AcDbLine
10
833.4166632600
20
643.2185600592
30
0.0000000000
11
833.4166632600
21
648.2185600592
31
0.0000000000
1001
DSTP_XDATA
1002
{
1000
_OWNERHANDLE=000D920D38
1002
}
0
TEXT
5
38A
100
AcDbEntity
8
EL_DEVICE_NAME
100
AcDbText
11
835.9166632600
21
649.2185600592
31
0.0000000000
10
830.5208299267
20
649.2185600592
30
0.0000000000
40
2.5000000000
50
0.0000000000
41
0.7000000000
51
12.0000000000
72
1
7
R2_5
1
??BTH0.0
100
AcDbText
73
0
1001
DSTP_XDATA
1002
{
1000
_TMPL1=@@[NMO_Name]
1000
_OWNERHANDLE=000D920D38
1002
}
0
>>>>>>> .r114
ENDSEC
0
SECTION
2
OBJECTS
0
DICTIONARY
<<<<<<< .mine
5
33D
=======
5
38B
>>>>>>> .r114
330
0
100
AcDbDictionary
281
1
3
ACAD_COLOR
350
<<<<<<< .mine
33E
3
=======
38C
3
>>>>>>> .r114
ACAD_GROUP
350
<<<<<<< .mine
33F
3
=======
38D
3
>>>>>>> .r114
ACAD_LAYOUT
350
<<<<<<< .mine
340
3
=======
38E
3
>>>>>>> .r114
ACAD_MATERIAL
350
<<<<<<< .mine
341
3
=======
38F
3
>>>>>>> .r114
ACAD_MLINESTYLE
350
<<<<<<< .mine
342
3
=======
390
3
>>>>>>> .r114
ACAD_PLOTSETTINGS
350
<<<<<<< .mine
343
3
=======
391
3
>>>>>>> .r114
ACAD_PLOTSTYLENAME
350
<<<<<<< .mine
344
3
=======
392
3
>>>>>>> .r114
ACAD_TABLESTYLE
350
<<<<<<< .mine
345
3
ACDBHEADERROUNDTRIPXREC
=======
393
3
ACDBHEADERROUNDTRIPXREC
>>>>>>> .r114
350
<<<<<<< .mine
346
3
=======
394
3
>>>>>>> .r114
AcDbVariableDictionary
350
<<<<<<< .mine
347
3
=======
395
3
>>>>>>> .r114
DWGPROPS
350
<<<<<<< .mine
348
0
=======
396
0
>>>>>>> .r114
DICTIONARY
5
2BB
330
2BA
100
AcDbDictionary
280
1
281
1
3
ACAD_LAYERFILTERS
360
<<<<<<< .mine
349
3
=======
397
3
>>>>>>> .r114
ACAD_LAYERSTATES
360
<<<<<<< .mine
34A
3
=======
398
3
>>>>>>> .r114
ACLYDICTIONARY
360
<<<<<<< .mine
34B
0
=======
399
0
>>>>>>> .r114
DICTIONARY
<<<<<<< .mine
5
33E
=======
5
38C
>>>>>>> .r114
102
{ACAD_REACTORS
330
<<<<<<< .mine
33D
=======
38B
>>>>>>> .r114
102
}
330
<<<<<<< .mine
33D
=======
38B
>>>>>>> .r114
100
AcDbDictionary
281
1
0
DICTIONARY
<<<<<<< .mine
5
33F
=======
5
38D
>>>>>>> .r114
102
{ACAD_REACTORS
330
<<<<<<< .mine
33D
=======
38B
>>>>>>> .r114
102
}
330
<<<<<<< .mine
33D
=======
38B
>>>>>>> .r114
100
AcDbDictionary
281
1
0
DICTIONARY
<<<<<<< .mine
5
340
=======
5
38E
>>>>>>> .r114
102
{ACAD_REACTORS
330
<<<<<<< .mine
33D
=======
38B
>>>>>>> .r114
102
}
330
<<<<<<< .mine
33D
=======
38B
>>>>>>> .r114
100
AcDbDictionary
281
1
3
Layout1
350
<<<<<<< .mine
2F1
3
=======
2F4
3
>>>>>>> .r114
Layout2
350
<<<<<<< .mine
2F3
3
=======
2F6
3
>>>>>>> .r114
Model
350
<<<<<<< .mine
2EF
0
=======
2F2
0
>>>>>>> .r114
DICTIONARY
<<<<<<< .mine
5
341
=======
5
38F
>>>>>>> .r114
102
{ACAD_REACTORS
330
<<<<<<< .mine
33D
=======
38B
>>>>>>> .r114
102
}
330
<<<<<<< .mine
33D
=======
38B
>>>>>>> .r114
100
AcDbDictionary
281
1
0
DICTIONARY
<<<<<<< .mine
5
342
=======
5
390
>>>>>>> .r114
102
{ACAD_REACTORS
330
<<<<<<< .mine
33D
=======
38B
>>>>>>> .r114
102
}
330
<<<<<<< .mine
33D
=======
38B
>>>>>>> .r114
100
AcDbDictionary
281
1
3
Standard
350
<<<<<<< .mine
34C
0
=======
39A
0
>>>>>>> .r114
DICTIONARY
<<<<<<< .mine
5
343
=======
5
391
>>>>>>> .r114
102
{ACAD_REACTORS
330
<<<<<<< .mine
33D
102
}
330
33D
100
AcDbDictionary
281
1
0
=======
38B
102
}
330
38B
100
AcDbDictionary
281
1
0
>>>>>>> .r114
ACDBDICTIONARYWDFLT
<<<<<<< .mine
5
344
=======
5
392
>>>>>>> .r114
102
{ACAD_REACTORS
330
<<<<<<< .mine
33D
=======
38B
>>>>>>> .r114
102
}
330
<<<<<<< .mine
33D
=======
38B
>>>>>>> .r114
100
AcDbDictionary
281
1
3
Normal
350
2BD
100
AcDbDictionaryWithDefault
340
2BD
0
DICTIONARY
<<<<<<< .mine
5
345
=======
5
393
>>>>>>> .r114
102
{ACAD_REACTORS
330
<<<<<<< .mine
33D
=======
38B
>>>>>>> .r114
102
}
330
<<<<<<< .mine
33D
=======
38B
>>>>>>> .r114
100
AcDbDictionary
281
1
3
Standard
350
<<<<<<< .mine
34D
0
=======
39B
0
>>>>>>> .r114
DICTIONARY
<<<<<<< .mine
5
346
=======
5
394
>>>>>>> .r114
102
{ACAD_REACTORS
330
<<<<<<< .mine
33D
=======
38B
>>>>>>> .r114
102
}
330
<<<<<<< .mine
33D
=======
38B
>>>>>>> .r114
100
AcDbDictionary
281
1
0
DICTIONARY
<<<<<<< .mine
5
347
=======
5
395
>>>>>>> .r114
102
{ACAD_REACTORS
330
<<<<<<< .mine
33D
=======
38B
>>>>>>> .r114
102
}
330
<<<<<<< .mine
33D
=======
38B
>>>>>>> .r114
100
AcDbDictionary
281
1
3
CTABLESTYLE
350
<<<<<<< .mine
34E
3
=======
39C
3
>>>>>>> .r114
DIMASSOC
350
<<<<<<< .mine
34F
3
=======
39D
3
>>>>>>> .r114
HIDETEXT
350
<<<<<<< .mine
350
3
=======
39E
3
>>>>>>> .r114
PROJECTNAME
350
<<<<<<< .mine
351
0
=======
39F
0
>>>>>>> .r114
XRECORD
<<<<<<< .mine
5
348
=======
5
396
>>>>>>> .r114
102
{ACAD_REACTORS
330
<<<<<<< .mine
33D
=======
38B
>>>>>>> .r114
102
}
330
<<<<<<< .mine
33D
=======
38B
>>>>>>> .r114
100
AcDbXrecord
280
1
1
DWGPROPS COOKIE
2

3

4

6

7

8
Autodesk
9

300
=
301
=
302
=
303
=
304
=
305
=
306
=
307
=
308
=
309
=
40
0.0121102546296296
41
2455008.558453229
42
2455694.624051458
1

90
0
0
DICTIONARY
<<<<<<< .mine
5
349
=======
5
397
>>>>>>> .r114
102
{ACAD_REACTORS
330
2BB
102
}
330
2BB
100
AcDbDictionary
281
1
0
DICTIONARY
<<<<<<< .mine
5
34A
=======
5
398
>>>>>>> .r114
102
{ACAD_REACTORS
330
2BB
102
}
330
2BB
100
AcDbDictionary
281
1
0
DICTIONARY
<<<<<<< .mine
5
34B
=======
5
399
>>>>>>> .r114
102
{ACAD_REACTORS
330
2BB
102
}
330
2BB
100
AcDbDictionary
281
1
1001
ACAD
1000
<All
0
LAYOUT
<<<<<<< .mine
5
2F1
=======
5
2F4
>>>>>>> .r114
102
{ACAD_XDICTIONARY
360
<<<<<<< .mine
352
=======
3A0
>>>>>>> .r114
102
}
102
{ACAD_REACTORS
330
<<<<<<< .mine
340
=======
38E
>>>>>>> .r114
102
}
330
<<<<<<< .mine
340
=======
38E
>>>>>>> .r114
100
AcDbPlotSettings
1

2
C:\Documents and Settings\basas\Application Data\Autodesk\AutoCAD 2005\R16.1\enu\plotters\Default Windows System Printer.pc3
4

6

40
0.0
41
0.0
42
0.0
43
0.0
44
0.0
45
0.0
46
0.0
47
0.0
48
0.0
49
0.0
140
0.0
141
0.0
142
1.0
143
1.0
70
688
72
0
73
0
74
5
7

75
16
147
1.0
148
0.0
149
0.0
100
AcDbLayout
1
Layout1
70
1
71
1
10
0.0
20
0.0
11
12.0
21
9.0
12
0.0
22
0.0
32
0.0
14
0.0
24
0.0
34
0.0
15
0.0
25
0.0
35
0.0
146
0.0
13
0.0
23
0.0
33
0.0
16
1.0
26
0.0
36
0.0
17
0.0
27
1.0
37
0.0
76
0
330
<<<<<<< .mine
2F0
0
LAYOUT
5
=======
>>>>>>> .r114
2F3
0
LAYOUT
5
2F6
102
{ACAD_XDICTIONARY
360
<<<<<<< .mine
353
=======
3A1
>>>>>>> .r114
102
}
102
{ACAD_REACTORS
330
<<<<<<< .mine
340
=======
38E
>>>>>>> .r114
102
}
330
<<<<<<< .mine
340
=======
38E
>>>>>>> .r114
100
AcDbPlotSettings
1

2
C:\Documents and Settings\basas\Application Data\Autodesk\AutoCAD 2005\R16.1\enu\plotters\Default Windows System Printer.pc3
4

6

40
0.0
41
0.0
42
0.0
43
0.0
44
0.0
45
0.0
46
0.0
47
0.0
48
0.0
49
0.0
140
0.0
141
0.0
142
1.0
143
1.0
70
688
72
0
73
0
74
5
7

75
16
147
1.0
148
0.0
149
0.0
100
AcDbLayout
1
Layout2
70
1
71
2
10
0.0
20
0.0
11
12.0
21
9.0
12
0.0
22
0.0
32
0.0
14
0.0
24
0.0
34
0.0
15
0.0
25
0.0
35
0.0
146
0.0
13
0.0
23
0.0
33
0.0
16
1.0
26
0.0
36
0.0
17
0.0
27
1.0
37
0.0
76
0
330
<<<<<<< .mine
2F2
0
=======
2F5
0
>>>>>>> .r114
LAYOUT
<<<<<<< .mine
5
2EF
=======
5
2F2
>>>>>>> .r114
102
{ACAD_XDICTIONARY
360
<<<<<<< .mine
354
=======
3A2
>>>>>>> .r114
102
}
102
{ACAD_REACTORS
330
<<<<<<< .mine
340
=======
38E
>>>>>>> .r114
102
}
330
<<<<<<< .mine
340
=======
38E
>>>>>>> .r114
100
AcDbPlotSettings
1

2
none_device
4
ISO_A4_(210.00_x_297.00_MM)
6

40
7.5
41
20.0
42
7.5
43
20.0
44
210.0
45
297.0
46
11.54999923706054
47
-13.65000009536743
48
0.0
49
0.0
140
0.0
141
0.0
142
1.0
143
8.704084754739808
70
11952
72
1
73
0
74
0
7

75
0
147
0.1148885871608098
148
0.0
149
0.0
100
AcDbLayout
1
Model
70
1
71
0
10
0.0
20
0.0
11
12.0
21
9.0
12
0.0
22
0.0
32
0.0
14
0.0
24
0.0
34
0.0
15
0.0
25
0.0
35
0.0
146
0.0
13
0.0
23
0.0
33
0.0
16
1.0
26
0.0
36
0.0
17
0.0
27
1.0
37
0.0
76
0
330
<<<<<<< .mine
2EE
=======
2F1
>>>>>>> .r114
1001
ACAD_PSEXT
1000
None
1000
None
1000
Not applicable
1000
The layout will not be plotted unless a new plotter configuration name is selected.
1070
<<<<<<< .mine
0
0
MLINESTYLE
5
34C
102
{ACAD_REACTORS
330
342
=======
0
0
MLINESTYLE
5
39A
>>>>>>> .r114
102
<<<<<<< .mine
=======
{ACAD_REACTORS
330
390
102
>>>>>>> .r114
}
330
<<<<<<< .mine
342
=======
390
>>>>>>> .r114
100
AcDbMlineStyle
2
STANDARD
70
0
3

62
256
51
90.0
52
90.0
71
2
49
0.5
62
256
6
BYLAYER
49
-0.5
62
256
6
BYLAYER
0
ACDBPLACEHOLDER
5
2BD
102
{ACAD_REACTORS
330
<<<<<<< .mine
344
=======
392
>>>>>>> .r114
102
}
330
<<<<<<< .mine
344
0
=======
392
0
>>>>>>> .r114
TABLESTYLE
<<<<<<< .mine
5
34D
=======
5
39B
>>>>>>> .r114
102
{ACAD_REACTORS
330
<<<<<<< .mine
345
=======
393
>>>>>>> .r114
102
}
330
<<<<<<< .mine
345
=======
393
>>>>>>> .r114
100
AcDbTableStyle
3
Standard
70
0
71
0
40
1.5
41
1.5
280
0
281
0
7
Standard
140
4.5
170
2
62
0
63
7
283
0
274
-2
284
1
64
0
275
-2
285
1
65
0
276
-2
286
1
66
0
277
-2
287
1
67
0
278
-2
288
1
68
0
279
-2
289
1
69
0
7
Standard
140
6.0
170
5
62
0
63
7
283
0
274
-2
284
1
64
0
275
-2
285
1
65
0
276
-2
286
1
66
0
277
-2
287
1
67
0
278
-2
288
1
68
0
279
-2
289
1
69
0
7
Standard
140
4.5
170
5
62
0
63
7
283
0
274
-2
284
1
64
0
275
-2
285
1
65
0
276
-2
286
1
66
0
277
-2
287
1
67
0
278
-2
288
1
68
0
279
-2
289
1
69
0
0
DICTIONARYVAR
<<<<<<< .mine
5
34E
=======
5
39C
>>>>>>> .r114
102
{ACAD_REACTORS
330
<<<<<<< .mine
347
=======
395
>>>>>>> .r114
102
}
330
<<<<<<< .mine
347
=======
395
>>>>>>> .r114
100
DictionaryVariables
280
0
1
STANDARD
0
DICTIONARYVAR
<<<<<<< .mine
5
34F
=======
5
39D
>>>>>>> .r114
102
{ACAD_REACTORS
330
<<<<<<< .mine
347
=======
395
>>>>>>> .r114
102
}
330
<<<<<<< .mine
347
=======
395
>>>>>>> .r114
100
DictionaryVariables
280
0
1
2
0
DICTIONARYVAR
<<<<<<< .mine
5
350
=======
5
39E
>>>>>>> .r114
102
{ACAD_REACTORS
330
<<<<<<< .mine
347
=======
395
>>>>>>> .r114
102
}
330
<<<<<<< .mine
347
=======
395
>>>>>>> .r114
100
DictionaryVariables
280
0
1
1
0
DICTIONARYVAR
<<<<<<< .mine
5
351
=======
5
39F
>>>>>>> .r114
102
{ACAD_REACTORS
330
<<<<<<< .mine
347
=======
395
>>>>>>> .r114
102
}
330
<<<<<<< .mine
347
=======
395
>>>>>>> .r114
100
DictionaryVariables
280
0
1

0
DICTIONARY
<<<<<<< .mine
5
352
=======
5
3A0
>>>>>>> .r114
330
2F4
100
AcDbDictionary
280
1
281
1
3
ACAD_XREC_ROUNDTRIP
360
<<<<<<< .mine
355
0
=======
3A3
0
>>>>>>> .r114
DICTIONARY
<<<<<<< .mine
5
353
=======
5
3A1
>>>>>>> .r114
330
2F6
100
AcDbDictionary
280
1
281
1
3
ACAD_XREC_ROUNDTRIP
360
<<<<<<< .mine
356
0
=======
3A4
0
>>>>>>> .r114
DICTIONARY
<<<<<<< .mine
5
354
=======
5
3A2
>>>>>>> .r114
330
2F2
100
AcDbDictionary
280
1
281
1
3
ACAD_XREC_ROUNDTRIP
360
<<<<<<< .mine
357
0
=======
3A5
0
>>>>>>> .r114
XRECORD
<<<<<<< .mine
5
355
=======
5
3A3
>>>>>>> .r114
102
{ACAD_REACTORS
330
<<<<<<< .mine
352
=======
3A0
>>>>>>> .r114
102
}
330
<<<<<<< .mine
352
=======
3A0
>>>>>>> .r114
100
AcDbXrecord
280
1
102
SHADEPLOT
70
0
102
SHADEPLOTRESLEVEL
70
2
102
SHADEPLOTCUSTOMDPI
70
300
0
XRECORD
<<<<<<< .mine
5
356
=======
5
3A4
>>>>>>> .r114
102
{ACAD_REACTORS
330
<<<<<<< .mine
353
=======
3A1
>>>>>>> .r114
102
}
330
<<<<<<< .mine
353
=======
3A1
>>>>>>> .r114
100
AcDbXrecord
280
1
102
SHADEPLOT
70
0
102
SHADEPLOTRESLEVEL
70
2
102
SHADEPLOTCUSTOMDPI
70
300
0
XRECORD
<<<<<<< .mine
5
357
=======
5
3A5
>>>>>>> .r114
102
{ACAD_REACTORS
330
<<<<<<< .mine
354
=======
3A2
>>>>>>> .r114
102
}
330
<<<<<<< .mine
354
=======
3A2
>>>>>>> .r114
100
AcDbXrecord
280
1
102
SHADEPLOT
70
0
102
SHADEPLOTRESLEVEL
70
2
102
SHADEPLOTCUSTOMDPI
70
300
0
ENDSEC
0
EOF
