0
SECTION
2
HEADER
9
$ACADVER
1
AC1015
9
$ACADMAINTVER
70
20
9
$DWGCODEPAGE
3
ANSI_1251
9
$INSBASE
10
0.0
20
0.0
30
0.0
9
$EXTMIN
10
1.000000000000000E+20
20
1.000000000000000E+20
30
1.000000000000000E+20
9
$EXTMAX
10
-1.000000000000000E+20
20
-1.000000000000000E+20
30
-1.000000000000000E+20
9
$LIMMIN
10
0.0
20
0.0
9
$LIMMAX
10
420.0
20
297.0
9
$ORTHOMODE
70
0
9
$REGENMODE
70
1
9
$FILLMODE
70
1
9
$QTEXTMODE
70
0
9
$MIRRTEXT
70
0
9
$LTSCALE
40
1.0
9
$ATTMODE
70
1
9
$TEXTSIZE
40
2.5
9
$TRACEWID
40
1.0
9
$TEXTSTYLE
7
Standard
9
$CLAYER
8
0
9
$CELTYPE
6
ByLayer
9
$CECOLOR
62
256
9
$CELTSCALE
40
1.0
9
$DISPSILH
70
0
9
$DIMSCALE
40
1.0
9
$DIMASZ
40
0.18
9
$DIMEXO
40
0.0625
9
$DIMDLI
40
0.38
9
$DIMRND
40
0.0
9
$DIMDLE
40
0.0
9
$DIMEXE
40
0.18
9
$DIMTP
40
0.0
9
$DIMTM
40
0.0
9
$DIMTXT
40
0.18
9
$DIMCEN
40
0.09
9
$DIMTSZ
40
0.0
9
$DIMTOL
70
0
9
$DIMLIM
70
0
9
$DIMTIH
70
1
9
$DIMTOH
70
1
9
$DIMSE1
70
0
9
$DIMSE2
70
0
9
$DIMTAD
70
0
9
$DIMZIN
70
0
9
$DIMBLK
1

9
$DIMASO
70
1
9
$DIMSHO
70
1
9
$DIMPOST
1

9
$DIMAPOST
1

9
$DIMALT
70
0
9
$DIMALTD
70
2
9
$DIMALTF
40
25.4
9
$DIMLFAC
40
1.0
9
$DIMTOFL
70
0
9
$DIMTVP
40
0.0
9
$DIMTIX
70
0
9
$DIMSOXD
70
0
9
$DIMSAH
70
0
9
$DIMBLK1
1

9
$DIMBLK2
1

9
$DIMSTYLE
2
Standard
9
$DIMCLRD
70
0
9
$DIMCLRE
70
0
9
$DIMCLRT
70
0
9
$DIMTFAC
40
1.0
9
$DIMGAP
40
0.09
9
$DIMJUST
70
0
9
$DIMSD1
70
0
9
$DIMSD2
70
0
9
$DIMTOLJ
70
1
9
$DIMTZIN
70
0
9
$DIMALTZ
70
0
9
$DIMALTTZ
70
0
9
$DIMUPT
70
0
9
$DIMDEC
70
4
9
$DIMTDEC
70
4
9
$DIMALTU
70
2
9
$DIMALTTD
70
2
9
$DIMTXSTY
7
Standard
9
$DIMAUNIT
70
0
9
$DIMADEC
70
0
9
$DIMALTRND
40
0.0
9
$DIMAZIN
70
0
9
$DIMDSEP
70
46
9
$DIMATFIT
70
3
9
$DIMFRAC
70
0
9
$DIMLDRBLK
1

9
$DIMLUNIT
70
2
9
$DIMLWD
70
-2
9
$DIMLWE
70
-2
9
$DIMTMOVE
70
0
9
$LUNITS
70
2
9
$LUPREC
70
4
9
$SKETCHINC
40
1.0
9
$FILLETRAD
40
0.0
9
$AUNITS
70
0
9
$AUPREC
70
0
9
$MENU
1
.
9
$ELEVATION
40
0.0
9
$PELEVATION
40
0.0
9
$THICKNESS
40
0.0
9
$LIMCHECK
70
0
9
$CHAMFERA
40
0.0
9
$CHAMFERB
40
0.0
9
$CHAMFERC
40
0.0
9
$CHAMFERD
40
0.0
9
$SKPOLY
70
0
9
$TDCREATE
40
2455008.558453229
9
$TDUCREATE
40
2455008.308453229
9
$TDUPDATE
40
2455694.624051458
9
$TDUUPDATE
40
2455694.374051458
9
$TDINDWG
40
0.0121107986
9
$TDUSRTIMER
40
0.0121104398
9
$USRTIMER
70
1
9
$ANGBASE
50
0.0
9
$ANGDIR
70
0
9
$PDMODE
70
0
9
$PDSIZE
40
0.0
9
$PLINEWID
40
0.0
9
$SPLFRAME
70
0
9
$SPLINETYPE
70
6
9
$SPLINESEGS
70
8
9
$HANDSEED
5
1000003AD
9
$SURFTAB1
70
6
9
$SURFTAB2
70
6
9
$SURFTYPE
70
6
9
$SURFU
70
6
9
$SURFV
70
6
9
$UCSBASE
2

9
$UCSNAME
2

9
$UCSORG
10
0.0
20
0.0
30
0.0
9
$UCSXDIR
10
1.0
20
0.0
30
0.0
9
$UCSYDIR
10
0.0
20
1.0
30
0.0
9
$UCSORTHOREF
2

9
$UCSORTHOVIEW
70
0
9
$UCSORGTOP
10
0.0
20
0.0
30
0.0
9
$UCSORGBOTTOM
10
0.0
20
0.0
30
0.0
9
$UCSORGLEFT
10
0.0
20
0.0
30
0.0
9
$UCSORGRIGHT
10
0.0
20
0.0
30
0.0
9
$UCSORGFRONT
10
0.0
20
0.0
30
0.0
9
$UCSORGBACK
10
0.0
20
0.0
30
0.0
9
$PUCSBASE
2

9
$PUCSNAME
2

9
$PUCSORG
10
0.0
20
0.0
30
0.0
9
$PUCSXDIR
10
1.0
20
0.0
30
0.0
9
$PUCSYDIR
10
0.0
20
1.0
30
0.0
9
$PUCSORTHOREF
2

9
$PUCSORTHOVIEW
70
0
9
$PUCSORGTOP
10
0.0
20
0.0
30
0.0
9
$PUCSORGBOTTOM
10
0.0
20
0.0
30
0.0
9
$PUCSORGLEFT
10
0.0
20
0.0
30
0.0
9
$PUCSORGRIGHT
10
0.0
20
0.0
30
0.0
9
$PUCSORGFRONT
10
0.0
20
0.0
30
0.0
9
$PUCSORGBACK
10
0.0
20
0.0
30
0.0
9
$USERI1
70
0
9
$USERI2
70
0
9
$USERI3
70
0
9
$USERI4
70
0
9
$USERI5
70
0
9
$USERR1
40
0.0
9
$USERR2
40
0.0
9
$USERR3
40
0.0
9
$USERR4
40
0.0
9
$USERR5
40
0.0
9
$WORLDVIEW
70
1
9
$SHADEDGE
70
3
9
$SHADEDIF
70
70
9
$TILEMODE
70
1
9
$MAXACTVP
70
64
9
$PINSBASE
10
0.0
20
0.0
30
0.0
9
$PLIMCHECK
70
0
9
$PEXTMIN
10
0.0
20
0.0
30
0.0
9
$PEXTMAX
10
0.0
20
0.0
30
0.0
9
$PLIMMIN
10
0.0
20
0.0
9
$PLIMMAX
10
12.0
20
9.0
9
$UNITMODE
70
0
9
$VISRETAIN
70
1
9
$PLINEGEN
70
0
9
$PSLTSCALE
70
1
9
$TREEDEPTH
70
3020
9
$CMLSTYLE
2
Standard
9
$CMLJUST
70
0
9
$CMLSCALE
40
20.0
9
$PROXYGRAPHICS
70
1
9
$MEASUREMENT
70
1
9
$CELWEIGHT
370
-1
9
$ENDCAPS
280
0
9
$JOINSTYLE
280
0
9
$LWDISPLAY
290
0
9
$INSUNITS
70
0
9
$HYPERLINKBASE
1

9
$STYLESHEET
1

9
$XEDIT
290
1
9
$CEPSNTYPE
380
0
9
$PSTYLEMODE
290
1
9
$FINGERPRINTGUID
2
{83B934B2-5622-42D0-9691-648EBDBEDF3A}
9
$VERSIONGUID
2
{687BA470-A50B-4F07-854F-729D023A6E33}
9
$EXTNAMES
290
1
9
$PSVPSCALE
40
0.0
9
$OLESTARTUP
290
0
0
ENDSEC
0
SECTION
2
CLASSES
0
CLASS
1
ACDBDICTIONARYWDFLT
2
AcDbDictionaryWithDefault
3
ObjectDBX Classes
90
0
280
0
281
0
0
CLASS
1
ACDBPLACEHOLDER
2
AcDbPlaceHolder
3
ObjectDBX Classes
90
0
280
0
281
0
0
CLASS
1
LAYOUT
2
AcDbLayout
3
ObjectDBX Classes
90
0
280
0
281
0
0
CLASS
1
DICTIONARYVAR
2
AcDbDictionaryVar
3
ObjectDBX Classes
90
0
280
0
281
0
0
CLASS
1
TABLESTYLE
2
AcDbTableStyle
3
ObjectDBX Classes
90
2047
280
0
281
0
0
ENDSEC
0
SECTION
2
TABLES
0
TABLE
2
VPORT
5
2B4
330
0
100
AcDbSymbolTable
70
2
0
VPORT
5
2B5
330
2B4
100
AcDbSymbolTableRecord
100
AcDbViewportTableRecord
2
*Active
70
0
10
0.0
20
0.0
11
1.0
21
1.0
12
390.4547463557241
22
194.9963087256912
13
0.0
23
0.0
14
10.0
24
10.0
15
10.0
25
10.0
16
0.0
26
0.0
36
1.0
17
0.0
27
0.0
37
0.0
40
420.481902819253
41
1.016627078384798
42
50.0
43
0.0
44
0.0
50
0.0
51
0.0
71
0
72
1000
73
1
74
3
75
0
76
0
77
0
78
0
281
0
65
1
110
0.0
120
0.0
130
0.0
111
1.0
121
0.0
131
0.0
112
0.0
122
1.0
132
0.0
79
0
146
0.0
0
ENDTAB
0
TABLE
2
LTYPE
5
2B6
330
0
100
AcDbSymbolTable
70
1
0
LTYPE
5
2B7
330
2B6
100
AcDbSymbolTableRecord
100
AcDbLinetypeTableRecord
2
ByBlock
70
0
3

72
65
73
0
40
0.0
0
LTYPE
5
2B8
330
2B6
100
AcDbSymbolTableRecord
100
AcDbLinetypeTableRecord
2
ByLayer
70
0
3

72
65
73
0
40
0.0
0
LTYPE
5
2B9
330
2B6
100
AcDbSymbolTableRecord
100
AcDbLinetypeTableRecord
2
Continuous
70
0
3
Solid line
72
65
73
0
40
0.0
0
ENDTAB
0
TABLE
2
LAYER
5
2BA
102
{ACAD_XDICTIONARY
360
2BB
102
}
330
0
100
AcDbSymbolTable
70
1
0
LAYER
5
2BE
100
AcDbSymbolTableRecord
100
AcDbLayerTableRecord
2
0
70
0
62
7
6
Continuous
290
1
370
-3
390
2BD
0
LAYER
5
2BF
100
AcDbSymbolTableRecord
100
AcDbLayerTableRecord
2
SYS_METRIC
70
0
62
-7
6
Continuous
290
0
370
-3
390
2BD
0
LAYER
5
2C0
100
AcDbSymbolTableRecord
100
AcDbLayerTableRecord
2
EL_DEVICE
70
0
62
1
6
Continuous
290
1
370
40
390
2BD
0
LAYER
5
2C1
100
AcDbSymbolTableRecord
100
AcDbLayerTableRecord
2
SYS_PIN
70
0
62
7
6
Continuous
290
1
370
-3
390
2BD
0
LAYER
5
2C2
100
AcDbSymbolTableRecord
100
AcDbLayerTableRecord
2
SYS_DEVICE_BORDER
70
0
62
-7
6
Continuous
290
0
370
-3
390
2BD
0
LAYER
5
2C3
100
AcDbSymbolTableRecord
100
AcDbLayerTableRecord
2
EL_DEVICE_NAME
70
0
62
7
6
Continuous
290
1
370
-3
390
2BD
0
ENDTAB
0
TABLE
2
STYLE
5
2C4
330
0
100
AcDbSymbolTable
70
2
0
STYLE
5
2C5
100
AcDbSymbolTableRecord
100
AcDbTextStyleTableRecord
2
Standard
70
0
40
0
41
1
50
0
71
0
42
2.5
3
txt
4

0
STYLE
5
2C6
100
AcDbSymbolTableRecord
100
AcDbTextStyleTableRecord
2
R2_5
70
0
40
2.5
41
0.65
50
12
71
0
42
2.5
3
gewind.shx
4

0
ENDTAB
0
TABLE
2
VIEW
5
2C7
330
0
100
AcDbSymbolTable
70
0
0
ENDTAB
0
TABLE
2
UCS
5
2C8
330
0
100
AcDbSymbolTable
70
0
0
ENDTAB
0
TABLE
2
APPID
5
2C9
330
0
100
AcDbSymbolTable
70
11
0
APPID
5
2CA
330
2C9
100
AcDbSymbolTableRecord
100
AcDbRegAppTableRecord
2
ACAD
70
0
0
APPID
5
2CB
330
2C9
100
AcDbSymbolTableRecord
100
AcDbRegAppTableRecord
2
ACAD_PSEXT
70
0
0
APPID
5
2CC
330
2C9
100
AcDbSymbolTableRecord
100
AcDbRegAppTableRecord
2
ACAD_EXEMPT_FROM_CAD_STANDARDS
70
0
0
APPID
5
2CD
330
2C9
100
AcDbSymbolTableRecord
100
AcDbRegAppTableRecord
2
DSTP_XDATA
70
0
0
APPID
5
2CE
330
2C9
100
AcDbSymbolTableRecord
100
AcDbRegAppTableRecord
2
AcAecLayerStandard
70
0
0
APPID
5
2CF
330
2C9
100
AcDbSymbolTableRecord
100
AcDbRegAppTableRecord
2
ACAD_DSTYLE_DIMTEXT_FILL
70
0
0
APPID
5
2D0
330
2C9
100
AcDbSymbolTableRecord
100
AcDbRegAppTableRecord
2
ACAD_DSTYLE_DIMEXT_LENGTH
70
0
0
APPID
5
2D1
330
2C9
100
AcDbSymbolTableRecord
100
AcDbRegAppTableRecord
2
ACAD_DSTYLE_DIMEXT_ENABLED
70
0
0
APPID
5
2D2
330
2C9
100
AcDbSymbolTableRecord
100
AcDbRegAppTableRecord
2
ACAD_DSTYLE_DIM_LINETYPE
70
0
0
APPID
5
2D3
330
2C9
100
AcDbSymbolTableRecord
100
AcDbRegAppTableRecord
2
ACAD_DSTYLE_DIM_EXT1_LINETYPE
70
0
0
APPID
5
2D4
330
2C9
100
AcDbSymbolTableRecord
100
AcDbRegAppTableRecord
2
ACAD_DSTYLE_DIM_EXT2_LINETYPE
70
0
0
ENDTAB
0
TABLE
2
DIMSTYLE
5
2D5
330
0
100
AcDbSymbolTable
70
2
100
AcDbDimStyleTable
71
1
340
2D6
0
DIMSTYLE
105
2D6
330
2D5
100
AcDbSymbolTableRecord
100
AcDbDimStyleTableRecord
2
Standard
70
0
340
2C5
0
ENDTAB
0
TABLE
2
BLOCK_RECORD
5
2D7
330
0
100
AcDbSymbolTable
70
1
0
BLOCK_RECORD
5
2D8
330
2D7
100
AcDbSymbolTableRecord
100
AcDbBlockTableRecord
2
*Model_Space
340
2D9
0
BLOCK_RECORD
5
2DA
330
2D7
100
AcDbSymbolTableRecord
100
AcDbBlockTableRecord
2
*Paper_Space
340
2DB
0
BLOCK_RECORD
5
2DC
330
2D7
100
AcDbSymbolTableRecord
100
AcDbBlockTableRecord
2
*Paper_Space0
340
2DD
0
BLOCK_RECORD
5
2DE
100
AcDbSymbolTableRecord
100
AcDbBlockTableRecord
2
PS_ARK_DEVICE
0
BLOCK_RECORD
5
2DF
100
AcDbSymbolTableRecord
100
AcDbBlockTableRecord
2
DEVICE_PS_ARK_DEVICE
0
BLOCK_RECORD
5
2E0
100
AcDbSymbolTableRecord
100
AcDbBlockTableRecord
2
CONNECTOR_SQUARE
0
BLOCK_RECORD
5
2E1
100
AcDbSymbolTableRecord
100
AcDbBlockTableRecord
2
DEVICE_CONNECTOR_SQUARE
0
ENDTAB
0
ENDSEC
0
SECTION
2
BLOCKS
0
BLOCK
5
2E2
330
2D8
100
AcDbEntity
8
0
100
AcDbBlockBegin
2
*Model_Space
70
0
10
0.0
20
0.0
30
0.0
3
*Model_Space
1

0
ENDBLK
5
2E3
330
2D8
100
AcDbEntity
8
0
100
AcDbBlockEnd
0
BLOCK
5
2E4
330
2DA
100
AcDbEntity
67
1
8
0
100
AcDbBlockBegin
2
*Paper_Space
70
0
10
0.0
20
0.0
30
0.0
3
*Paper_Space
1

0
ENDBLK
5
2E5
330
2DA
100
AcDbEntity
67
1
8
0
100
AcDbBlockEnd
0
BLOCK
5
2E6
330
2DC
100
AcDbEntity
67
1
8
0
100
AcDbBlockBegin
2
*Paper_Space0
70
0
10
0.0
20
0.0
30
0.0
3
*Paper_Space0
1

0
ENDBLK
5
2E7
330
2DC
100
AcDbEntity
67
1
8
0
100
AcDbBlockEnd
0
BLOCK
5
2E8
100
AcDbEntity
8
0
100
AcDbBlockBegin
2
PS_ARK_DEVICE
70
2
10
0
20
0
30
0
3
PS_ARK_DEVICE
1

0
LINE
5
2E9
100
AcDbEntity
8
EL_DEVICE
100
AcDbLine
10
-4.0000000000
20
2.5000000000
30
0.0000000000
11
4.0000000000
21
2.5000000000
31
0.0000000000
1001
DSTP_XDATA
1002
{
1000
_OWNERHANDLE=0000000064
1002
}
0
LINE
5
2EA
100
AcDbEntity
8
EL_DEVICE
100
AcDbLine
10
4.0000000000
20
2.5000000000
30
0.0000000000
11
4.0000000000
21
-2.5000000000
31
0.0000000000
1001
DSTP_XDATA
1002
{
1000
_OWNERHANDLE=0000000064
1002
}
0
LINE
5
2EB
100
AcDbEntity
8
EL_DEVICE
100
AcDbLine
10
4.0000000000
20
-2.5000000000
30
0.0000000000
11
-4.0000000000
21
-2.5000000000
31
0.0000000000
1001
DSTP_XDATA
1002
{
1000
_OWNERHANDLE=0000000064
1002
}
0
LINE
5
2EC
100
AcDbEntity
8
EL_DEVICE
100
AcDbLine
10
-4.0000000000
20
-2.5000000000
30
0.0000000000
11
-4.0000000000
21
2.5000000000
31
0.0000000000
1001
DSTP_XDATA
1002
{
1000
_OWNERHANDLE=0000000064
1002
}
0
LINE
5
2ED
100
AcDbEntity
8
EL_DEVICE
100
AcDbLine
10
0.0000000000
20
0.0000000000
30
0.0000000000
11
0.0000000000
21
-2.5000000000
31
0.0000000000
1001
DSTP_XDATA
1002
{
1000
_OWNERHANDLE=0000000064
1002
}
0
LINE
5
2EE
100
AcDbEntity
8
EL_DEVICE
100
AcDbLine
10
0.0000000000
20
0.0000000000
30
0.0000000000
11
4.0000000000
21
0.0000000000
31
0.0000000000
1001
DSTP_XDATA
1002
{
1000
_OWNERHANDLE=0000000064
1002
}
0
LWPOLYLINE
5
2EF
100
AcDbEntity
8
EL_DEVICE
100
AcDbPolyline
90
2
70
0
38
0.0000000000
10
0.0000000000
20
-1.2500000000
40
2.5000000000
41
2.5000000000
10
4.0000000000
20
-1.2500000000
40
0.0000000000
41
0.0000000000
1001
DSTP_XDATA
1002
{
1000
_OWNERHANDLE=0000000064
1002
}
0
ENDBLK
5
2F0
100
AcDbEntity
8
0
100
AcDbBlockEnd
0
BLOCK
5
2F1
100
AcDbEntity
8
0
100
AcDbBlockBegin
2
DEVICE_PS_ARK_DEVICE
70
2
10
0
20
0
30
0
3
DEVICE_PS_ARK_DEVICE
1

0
INSERT
5
2F2
100
AcDbEntity
8
0
100
AcDbBlockReference
2
CONNECTOR_SQUARE
10
0.0000000000
20
0.0000000000
30
0.0000000000
41
1.0000000000
42
1.0000000000
43
1.0000000000
50
0.0000000000
1001
DSTP_XDATA
1002
{
1000
_OWNERHANDLE=0000000064
1000
_HANDLE=000034AEB0
1000
_UPGRADE=1
1002
}
0
LINE
5
2F3
100
AcDbEntity
8
SYS_DEVICE_BORDER
100
AcDbLine
10
-4.0000000000
20
-2.5000000000
30
0.0000000000
11
-4.0000000000
21
2.5000000000
31
0.0000000000
1001
DSTP_XDATA
1002
{
1000
_OWNERHANDLE=0000000064
1002
}
0
LINE
5
2F4
100
AcDbEntity
8
SYS_DEVICE_BORDER
100
AcDbLine
10
4.0000000000
20
-2.5000000000
30
0.0000000000
11
4.0000000000
21
2.5000000000
31
0.0000000000
1001
DSTP_XDATA
1002
{
1000
_OWNERHANDLE=0000000064
1002
}
0
LINE
5
2F5
100
AcDbEntity
8
SYS_DEVICE_BORDER
100
AcDbLine
10
-4.0000000000
20
2.5000000000
30
0.0000000000
11
4.0000000000
21
2.5000000000
31
0.0000000000
1001
DSTP_XDATA
1002
{
1000
_OWNERHANDLE=0000000064
1002
}
0
LINE
5
2F6
100
AcDbEntity
8
SYS_DEVICE_BORDER
100
AcDbLine
10
-4.0000000000
20
-2.5000000000
30
0.0000000000
11
4.0000000000
21
-2.5000000000
31
0.0000000000
1001
DSTP_XDATA
1002
{
1000
_OWNERHANDLE=0000000064
1002
}
0
TEXT
5
2F7
100
AcDbEntity
8
EL_DEVICE_NAME
100
AcDbText
11
0.0000000000
21
3.2500000000
31
0.0000000000
10
-16.6666667660
20
3.2500000000
30
0.0000000000
40
2.5000000000
50
0.0000000000
41
1.0000000000
51
15.0000000000
72
1
7
R2_5
1
!!ERR(NMO_Name)!!
100
AcDbText
73
0
1001
DSTP_XDATA
1002
{
1000
_TMPL1=@@[NMO_Name]
1000
_OWNERHANDLE=0000000064
1002
}
0
ENDBLK
5
2F8
100
AcDbEntity
8
0
100
AcDbBlockEnd
0
BLOCK
5
2F9
100
AcDbEntity
8
0
100
AcDbBlockBegin
2
CONNECTOR_SQUARE
70
2
10
0
20
0
30
0
3
CONNECTOR_SQUARE
1

0
LINE
5
2FA
100
AcDbEntity
8
SYS_PIN
100
AcDbLine
10
-0.3535533906
20
0.3535533906
30
0.0000000000
11
0.3535533906
21
-0.3535533906
31
0.0000000000
1001
DSTP_XDATA
1002
{
1000
_OWNERHANDLE=0000000064
1002
}
0
LINE
5
2FB
100
AcDbEntity
8
SYS_PIN
100
AcDbLine
10
0.3535533906
20
0.3535533906
30
0.0000000000
11
-0.3535533906
21
-0.3535533906
31
0.0000000000
1001
DSTP_XDATA
1002
{
1000
_OWNERHANDLE=0000000064
1002
}
0
ENDBLK
5
2FC
100
AcDbEntity
8
0
100
AcDbBlockEnd
0
BLOCK
5
2FD
100
AcDbEntity
8
0
100
AcDbBlockBegin
2
DEVICE_CONNECTOR_SQUARE
70
2
10
0
20
0
30
0
3
DEVICE_CONNECTOR_SQUARE
1

0
LINE
5
2FE
100
AcDbEntity
8
SYS_METRIC
100
AcDbLine
10
-1.0000000000
20
0.0000000000
30
0.0000000000
11
1.0000000000
21
0.0000000000
31
0.0000000000
1001
DSTP_XDATA
1002
{
1000
_OWNERHANDLE=0000000064
1002
}
0
LINE
5
2FF
100
AcDbEntity
8
SYS_METRIC
100
AcDbLine
10
0.0000000000
20
1.0000000000
30
0.0000000000
11
0.0000000000
21
-1.0000000000
31
0.0000000000
1001
DSTP_XDATA
1002
{
1000
_OWNERHANDLE=0000000064
1002
}
0
ENDBLK
5
300
100
AcDbEntity
8
0
100
AcDbBlockEnd
0
ENDSEC
0
SECTION
2
ENTITIES
0
INSERT
5
301
100
AcDbEntity
8
0
100
AcDbBlockReference
2
PS_ARK_DEVICE
10
-21.4500000000
20
8.5000000000
30
0.0000000000
41
1.0000000000
42
1.0000000000
43
1.0000000000
50
0.0000000000
1001
DSTP_XDATA
1002
{
1000
USES=System
1000
USES=devices
1000
#0=NMO_Name|GDBString|ARK1|Обозначение
1000
#1=NMO_BaseName|GDBString|ARK|Короткое Имя
1000
#2=NMO_Prefix|GDBString||Префикс
1000
#3=NMO_Suffix|GDBString|1|Суффикс
1000
#4=NMO_Template|GDBString|@@[NMO_BaseName]@@[NMO_Prefix]@@[NMO_Suffix]|Шаблон Обозначения
1000
#5=Device_Type|TDeviceType|TDT_PriborOPS|Тип устройства
1000
#6=Device_Class|TDeviceClass|TDC_Unknown|Класс устройства
1000
#7=Device_Group|TDeviceGroup|TDG_ElDevice|Группа устройства
1000
#8=BTY_TreeCoord|GDBString|PLAN_OPS_Прибор ОПС|Позиция в дереве
1000
#9=Device_Type|TDeviceType|TDT_Unknown|Тип устройства
1000
#10=DB_link|GDBString|Прибор ОПС|Материал
1000
#11=GC_HeadDevice|GDBString|??|
1000
#12=GC_HDShortName|GDBString|??|
1000
#13=GC_HDGroup|GDBString|0|
1000
#14=GC_NumberInGroup|GDBInteger|0|
1000
#15=SerialConnection|GDBInteger|0|
1000
#16=EL_Cab_AddLength|GDBDouble|0.0|Добавлять к длине кабеля
1000
#17=GC_Metric|GDBString||
1000
#18=GC_HDGroupTemplate|GDBString||Шаблон группы
1000
#19=GC_HeadDeviceTemplate|GDBString||Шаблон головного устройства
1000
#20=GC_HDShortNameTemplate|GDBString||Шаблон короткого имени головного устройства
1000
#21=GC_InGroup_Metric|GDBString||Метрика нумерации в группе
1000
_OWNERHANDLE=0000000064
1000
_HANDLE=0000317C90
1000
_UPGRADE=1
1002
}
0
INSERT
5
302
100
AcDbEntity
8
0
100
AcDbBlockReference
2
CONNECTOR_SQUARE
10
-21.4500000000
20
8.5000000000
30
0.0000000000
41
1.0000000000
42
1.0000000000
43
1.0000000000
50
0.0000000000
1001
DSTP_XDATA
1002
{
1000
USES=System
1000
USES=connectors
1000
USES=devices
1000
#0=DeviceClass|TDeviceClass|TDC_Unknown|Класс устройства
1000
#1=Connector_Type|TConnectorType|TCT_ElCable|Тип соединения
1000
#2=Border_Type|TConnectorBorderType|TCBT_Owner|Граница подрезки
1000
#3=Connector_Name|GDBString||Имя соединения
1000
#4=Connector_Junction|GDBBoolean|False|Возможность ответвления
1000
#5=LENGTH_Add|GDBDouble|0.0|Добавить к длине
1000
_OWNERHANDLE=0000317C90
1000
_HANDLE=0010ADE710
1000
_UPGRADE=1
1002
}
0
LINE
5
303
100
AcDbEntity
8
SYS_METRIC
100
AcDbLine
10
-22.4500000000
20
8.5000000000
30
0.0000000000
11
-20.4500000000
21
8.5000000000
31
0.0000000000
1001
DSTP_XDATA
1002
{
1000
_OWNERHANDLE=0010ADE710
1002
}
0
LINE
5
304
100
AcDbEntity
8
SYS_METRIC
100
AcDbLine
10
-21.4500000000
20
9.5000000000
30
0.0000000000
11
-21.4500000000
21
7.5000000000
31
0.0000000000
1001
DSTP_XDATA
1002
{
1000
_OWNERHANDLE=0010ADE710
1002
}
0
LINE
5
305
100
AcDbEntity
8
SYS_DEVICE_BORDER
100
AcDbLine
10
-25.4500000000
20
6.0000000000
30
0.0000000000
11
-25.4500000000
21
11.0000000000
31
0.0000000000
1001
DSTP_XDATA
1002
{
1000
_OWNERHANDLE=0000317C90
1002
}
0
LINE
5
306
100
AcDbEntity
8
SYS_DEVICE_BORDER
100
AcDbLine
10
-17.4500000000
20
6.0000000000
30
0.0000000000
11
-17.4500000000
21
11.0000000000
31
0.0000000000
1001
DSTP_XDATA
1002
{
1000
_OWNERHANDLE=0000317C90
1002
}
0
LINE
5
307
100
AcDbEntity
8
SYS_DEVICE_BORDER
100
AcDbLine
10
-25.4500000000
20
11.0000000000
30
0.0000000000
11
-17.4500000000
21
11.0000000000
31
0.0000000000
1001
DSTP_XDATA
1002
{
1000
_OWNERHANDLE=0000317C90
1002
}
0
LINE
5
308
100
AcDbEntity
8
SYS_DEVICE_BORDER
100
AcDbLine
10
-25.4500000000
20
6.0000000000
30
0.0000000000
11
-17.4500000000
21
6.0000000000
31
0.0000000000
1001
DSTP_XDATA
1002
{
1000
_OWNERHANDLE=0000317C90
1002
}
0
TEXT
5
309
100
AcDbEntity
8
EL_DEVICE_NAME
100
AcDbText
11
-21.4500000000
21
11.7500000000
31
0.0000000000
10
-25.5125001242
20
11.7500000000
30
0.0000000000
40
2.5000000000
50
0.0000000000
41
1.0000000000
51
15.0000000000
72
1
7
R2_5
1
ARK1
100
AcDbText
73
0
1001
DSTP_XDATA
1002
{
1000
_TMPL1=@@[NMO_Name]
1000
_OWNERHANDLE=0000317C90
1002
}
0
INSERT
5
30A
100
AcDbEntity
8
0
100
AcDbBlockReference
2
PS_ARK_DEVICE
10
23.2500000000
20
-17.0000000000
30
0.0000000000
41
1.0000000000
42
1.0000000000
43
1.0000000000
50
0.0000000000
1001
DSTP_XDATA
1002
{
1000
USES=System
1000
USES=devices
1000
#0=NMO_Name|GDBString|ARK2|Обозначение
1000
#1=NMO_BaseName|GDBString|ARK|Короткое Имя
1000
#2=NMO_Prefix|GDBString||Префикс
1000
#3=NMO_Suffix|GDBString|2|Суффикс
1000
#4=NMO_Template|GDBString|@@[NMO_BaseName]@@[NMO_Prefix]@@[NMO_Suffix]|Шаблон Обозначения
1000
#5=Device_Type|TDeviceType|TDT_PriborOPS|Тип устройства
1000
#6=Device_Class|TDeviceClass|TDC_Unknown|Класс устройства
1000
#7=Device_Group|TDeviceGroup|TDG_ElDevice|Группа устройства
1000
#8=BTY_TreeCoord|GDBString|PLAN_OPS_Прибор ОПС|Позиция в дереве
1000
#9=Device_Type|TDeviceType|TDT_Unknown|Тип устройства
1000
#10=DB_link|GDBString|Прибор ОПС|Материал
1000
#11=GC_HeadDevice|GDBString|??|
1000
#12=GC_HDShortName|GDBString|??|
1000
#13=GC_HDGroup|GDBString|0|
1000
#14=GC_NumberInGroup|GDBInteger|0|
1000
#15=SerialConnection|GDBInteger|0|
1000
#16=EL_Cab_AddLength|GDBDouble|0.0|Добавлять к длине кабеля
1000
#17=GC_Metric|GDBString||
1000
#18=GC_HDGroupTemplate|GDBString||Шаблон группы
1000
#19=GC_HeadDeviceTemplate|GDBString||Шаблон головного устройства
1000
#20=GC_HDShortNameTemplate|GDBString||Шаблон короткого имени головного устройства
1000
#21=GC_InGroup_Metric|GDBString||Метрика нумерации в группе
1000
_OWNERHANDLE=0000000064
1000
_HANDLE=0010ADF5C0
1000
_UPGRADE=1
1002
}
0
INSERT
5
30B
100
AcDbEntity
8
0
100
AcDbBlockReference
2
CONNECTOR_SQUARE
10
23.2500000000
20
-17.0000000000
30
0.0000000000
41
1.0000000000
42
1.0000000000
43
1.0000000000
50
0.0000000000
1001
DSTP_XDATA
1002
{
1000
USES=System
1000
USES=connectors
1000
USES=devices
1000
#0=DeviceClass|TDeviceClass|TDC_Unknown|Класс устройства
1000
#1=Connector_Type|TConnectorType|TCT_ElCable|Тип соединения
1000
#2=Border_Type|TConnectorBorderType|TCBT_Owner|Граница подрезки
1000
#3=Connector_Name|GDBString||Имя соединения
1000
#4=Connector_Junction|GDBBoolean|False|Возможность ответвления
1000
#5=LENGTH_Add|GDBDouble|0.0|Добавить к длине
1000
_OWNERHANDLE=0010ADF5C0
1000
_HANDLE=000CBBCB90
1000
_UPGRADE=1
1002
}
0
LINE
5
30C
100
AcDbEntity
8
SYS_METRIC
100
AcDbLine
10
22.2500000000
20
-17.0000000000
30
0.0000000000
11
24.2500000000
21
-17.0000000000
31
0.0000000000
1001
DSTP_XDATA
1002
{
1000
_OWNERHANDLE=000CBBCB90
1002
}
0
LINE
5
30D
100
AcDbEntity
8
SYS_METRIC
100
AcDbLine
10
23.2500000000
20
-16.0000000000
30
0.0000000000
11
23.2500000000
21
-18.0000000000
31
0.0000000000
1001
DSTP_XDATA
1002
{
1000
_OWNERHANDLE=000CBBCB90
1002
}
0
LINE
5
30E
100
AcDbEntity
8
SYS_DEVICE_BORDER
100
AcDbLine
10
19.2500000000
20
-19.5000000000
30
0.0000000000
11
19.2500000000
21
-14.5000000000
31
0.0000000000
1001
DSTP_XDATA
1002
{
1000
_OWNERHANDLE=0010ADF5C0
1002
}
0
LINE
5
30F
100
AcDbEntity
8
SYS_DEVICE_BORDER
100
AcDbLine
10
27.2500000000
20
-19.5000000000
30
0.0000000000
11
27.2500000000
21
-14.5000000000
31
0.0000000000
1001
DSTP_XDATA
1002
{
1000
_OWNERHANDLE=0010ADF5C0
1002
}
0
LINE
5
310
100
AcDbEntity
8
SYS_DEVICE_BORDER
100
AcDbLine
10
19.2500000000
20
-14.5000000000
30
0.0000000000
11
27.2500000000
21
-14.5000000000
31
0.0000000000
1001
DSTP_XDATA
1002
{
1000
_OWNERHANDLE=0010ADF5C0
1002
}
0
LINE
5
311
100
AcDbEntity
8
SYS_DEVICE_BORDER
100
AcDbLine
10
19.2500000000
20
-19.5000000000
30
0.0000000000
11
27.2500000000
21
-19.5000000000
31
0.0000000000
1001
DSTP_XDATA
1002
{
1000
_OWNERHANDLE=0010ADF5C0
1002
}
0
TEXT
5
312
100
AcDbEntity
8
EL_DEVICE_NAME
100
AcDbText
11
23.2500000000
21
-13.7500000000
31
0.0000000000
10
18.7708332340
20
-13.7500000000
30
0.0000000000
40
2.5000000000
50
0.0000000000
41
1.0000000000
51
15.0000000000
72
1
7
R2_5
1
ARK2
100
AcDbText
73
0
1001
DSTP_XDATA
1002
{
1000
_TMPL1=@@[NMO_Name]
1000
_OWNERHANDLE=0010ADF5C0
1002
}
0
LINE
5
313
100
AcDbEntity
8
0
100
AcDbLine
10
-13.9500000000
20
17.4500000000
30
0.0000000000
11
-30.8500000000
21
17.4500000000
31
0.0000000000
1001
DSTP_XDATA
1002
{
1000
USES=System
1000
#0=NMO_Name|GDBString|default|Обозначение
1000
#1=NMO_BaseName|GDBString|default|Короткое Имя
1000
#2=NMO_Prefix|GDBString||Префикс
1000
#3=NMO_Suffix|GDBString||Суффикс
1000
#4=NMO_Template|GDBString|@@[NMO_Prefix]@@[NMO_BaseName]@@[NMO_Suffix]|Шаблон Обозначения
1000
_OWNERHANDLE=0000000064
1000
_HANDLE=000CBC2070
1000
_UPGRADE=2
1002
}
0
LINE
5
314
100
AcDbEntity
8
0
100
AcDbLine
10
-13.9500000000
20
17.4500000000
30
0.0000000000
11
-30.8500000000
21
17.4500000000
31
0.0000000000
1001
DSTP_XDATA
1002
{
1000
_OWNERHANDLE=000CBC2070
1002
}
0
LINE
5
315
100
AcDbEntity
8
0
100
AcDbLine
10
-30.8500000000
20
-7.4599008000
30
0.0000000000
11
-30.8500000000
21
-33.6500000000
31
0.0000000000
1001
DSTP_XDATA
1002
{
1000
_OWNERHANDLE=000CBC2070
1002
}
0
LINE
5
316
100
AcDbEntity
8
0
100
AcDbLine
10
-30.8500000000
20
-33.6500000000
30
0.0000000000
11
23.6500000000
21
-33.6500000000
31
0.0000000000
1001
DSTP_XDATA
1002
{
1000
_OWNERHANDLE=000CBC2070
1002
}
0
LINE
5
317
100
AcDbEntity
8
0
100
AcDbLine
10
23.6500000000
20
-33.6500000000
30
0.0000000000
11
23.6500000000
21
-21.8500000000
31
0.0000000000
1001
DSTP_XDATA
1002
{
1000
_OWNERHANDLE=000CBC2070
1002
}
0
LINE
5
318
100
AcDbEntity
8
0
100
AcDbLine
10
23.2500000000
20
-7.4599008000
30
0.0000000000
11
-30.8500000000
21
-7.4599008000
31
0.0000000000
1001
DSTP_XDATA
1002
{
1000
_OWNERHANDLE=000CBC2070
1002
}
0
LINE
5
319
100
AcDbEntity
8
0
100
AcDbLine
10
-30.8500000000
20
17.4500000000
30
0.0000000000
11
-30.8500000000
21
-7.4599008000
31
0.0000000000
1001
DSTP_XDATA
1002
{
1000
_OWNERHANDLE=000CBC2070
1002
}
0
INSERT
5
31A
100
AcDbEntity
8
0
100
AcDbBlockReference
2
PS_ARK_DEVICE
10
56.7157235968
20
46.8105185792
30
0.0000000000
41
1.0000000000
42
1.0000000000
43
1.0000000000
50
0.0000000000
1001
DSTP_XDATA
1002
{
1000
USES=System
1000
USES=devices
1000
#0=NMO_Name|GDBString|ARK3|Обозначение
1000
#1=NMO_BaseName|GDBString|ARK|Короткое Имя
1000
#2=NMO_Prefix|GDBString||Префикс
1000
#3=NMO_Suffix|GDBString|3|Суффикс
1000
#4=NMO_Template|GDBString|@@[NMO_BaseName]@@[NMO_Prefix]@@[NMO_Suffix]|Шаблон Обозначения
1000
#5=Device_Type|TDeviceType|TDT_PriborOPS|Тип устройства
1000
#6=Device_Class|TDeviceClass|TDC_Unknown|Класс устройства
1000
#7=Device_Group|TDeviceGroup|TDG_ElDevice|Группа устройства
1000
#8=BTY_TreeCoord|GDBString|PLAN_OPS_Прибор ОПС|Позиция в дереве
1000
#9=Device_Type|TDeviceType|TDT_Unknown|Тип устройства
1000
#10=DB_link|GDBString|Прибор ОПС|Материал
1000
#11=GC_HeadDevice|GDBString|??|
1000
#12=GC_HDShortName|GDBString|??|
1000
#13=GC_HDGroup|GDBString|0|
1000
#14=GC_NumberInGroup|GDBInteger|0|
1000
#15=SerialConnection|GDBInteger|0|
1000
#16=EL_Cab_AddLength|GDBDouble|0.0|Добавлять к длине кабеля
1000
#17=GC_Metric|GDBString||
1000
#18=GC_HDGroupTemplate|GDBString||Шаблон группы
1000
#19=GC_HeadDeviceTemplate|GDBString||Шаблон головного устройства
1000
#20=GC_HDShortNameTemplate|GDBString||Шаблон короткого имени головного устройства
1000
#21=GC_InGroup_Metric|GDBString||Метрика нумерации в группе
1000
_OWNERHANDLE=0000000064
1000
_HANDLE=0010AD8A30
1000
_UPGRADE=1
1002
}
0
INSERT
5
31B
100
AcDbEntity
8
0
100
AcDbBlockReference
2
CONNECTOR_SQUARE
10
56.7157235968
20
46.8105185792
30
0.0000000000
41
1.0000000000
42
1.0000000000
43
1.0000000000
50
0.0000000000
1001
DSTP_XDATA
1002
{
1000
USES=System
1000
USES=connectors
1000
USES=devices
1000
#0=DeviceClass|TDeviceClass|TDC_Unknown|Класс устройства
1000
#1=Connector_Type|TConnectorType|TCT_ElCable|Тип соединения
1000
#2=Border_Type|TConnectorBorderType|TCBT_Owner|Граница подрезки
1000
#3=Connector_Name|GDBString||Имя соединения
1000
#4=Connector_Junction|GDBBoolean|False|Возможность ответвления
1000
#5=LENGTH_Add|GDBDouble|0.0|Добавить к длине
1000
_OWNERHANDLE=0010AD8A30
1000
_HANDLE=0010AD9490
1000
_UPGRADE=1
1002
}
0
LINE
5
31C
100
AcDbEntity
8
SYS_METRIC
100
AcDbLine
10
55.7157235968
20
46.8105185792
30
0.0000000000
11
57.7157235968
21
46.8105185792
31
0.0000000000
1001
DSTP_XDATA
1002
{
1000
_OWNERHANDLE=0010AD9490
1002
}
0
LINE
5
31D
100
AcDbEntity
8
SYS_METRIC
100
AcDbLine
10
56.7157235968
20
47.8105185792
30
0.0000000000
11
56.7157235968
21
45.8105185792
31
0.0000000000
1001
DSTP_XDATA
1002
{
1000
_OWNERHANDLE=0010AD9490
1002
}
0
LINE
5
31E
100
AcDbEntity
8
SYS_DEVICE_BORDER
100
AcDbLine
10
52.7157235968
20
44.3105185792
30
0.0000000000
11
52.7157235968
21
49.3105185792
31
0.0000000000
1001
DSTP_XDATA
1002
{
1000
_OWNERHANDLE=0010AD8A30
1002
}
0
LINE
5
31F
100
AcDbEntity
8
SYS_DEVICE_BORDER
100
AcDbLine
10
60.7157235968
20
44.3105185792
30
0.0000000000
11
60.7157235968
21
49.3105185792
31
0.0000000000
1001
DSTP_XDATA
1002
{
1000
_OWNERHANDLE=0010AD8A30
1002
}
0
LINE
5
320
100
AcDbEntity
8
SYS_DEVICE_BORDER
100
AcDbLine
10
52.7157235968
20
49.3105185792
30
0.0000000000
11
60.7157235968
21
49.3105185792
31
0.0000000000
1001
DSTP_XDATA
1002
{
1000
_OWNERHANDLE=0010AD8A30
1002
}
0
LINE
5
321
100
AcDbEntity
8
SYS_DEVICE_BORDER
100
AcDbLine
10
52.7157235968
20
44.3105185792
30
0.0000000000
11
60.7157235968
21
44.3105185792
31
0.0000000000
1001
DSTP_XDATA
1002
{
1000
_OWNERHANDLE=0010AD8A30
1002
}
0
TEXT
5
322
100
AcDbEntity
8
EL_DEVICE_NAME
100
AcDbText
11
56.7157235968
21
50.0605185792
31
0.0000000000
10
52.1323901145
20
50.0605185792
30
0.0000000000
40
2.5000000000
50
0.0000000000
41
1.0000000000
51
15.0000000000
72
1
7
R2_5
1
ARK3
100
AcDbText
73
0
1001
DSTP_XDATA
1002
{
1000
_TMPL1=@@[NMO_Name]
1000
_OWNERHANDLE=0010AD8A30
1002
}
0
INSERT
5
323
100
AcDbEntity
8
0
100
AcDbBlockReference
2
PS_ARK_DEVICE
10
77.3736096000
20
-44.8960544000
30
0.0000000000
41
1.0000000000
42
1.0000000000
43
1.0000000000
50
0.0000000000
1001
DSTP_XDATA
1002
{
1000
USES=System
1000
USES=devices
1000
#0=NMO_Name|GDBString|ARK4|Обозначение
1000
#1=NMO_BaseName|GDBString|ARK|Короткое Имя
1000
#2=NMO_Prefix|GDBString||Префикс
1000
#3=NMO_Suffix|GDBString|4|Суффикс
1000
#4=NMO_Template|GDBString|@@[NMO_BaseName]@@[NMO_Prefix]@@[NMO_Suffix]|Шаблон Обозначения
1000
#5=Device_Type|TDeviceType|TDT_PriborOPS|Тип устройства
1000
#6=Device_Class|TDeviceClass|TDC_Unknown|Класс устройства
1000
#7=Device_Group|TDeviceGroup|TDG_ElDevice|Группа устройства
1000
#8=BTY_TreeCoord|GDBString|PLAN_OPS_Прибор ОПС|Позиция в дереве
1000
#9=Device_Type|TDeviceType|TDT_Unknown|Тип устройства
1000
#10=DB_link|GDBString|Прибор ОПС|Материал
1000
#11=GC_HeadDevice|GDBString|??|
1000
#12=GC_HDShortName|GDBString|??|
1000
#13=GC_HDGroup|GDBString|0|
1000
#14=GC_NumberInGroup|GDBInteger|0|
1000
#15=SerialConnection|GDBInteger|0|
1000
#16=EL_Cab_AddLength|GDBDouble|0.0|Добавлять к длине кабеля
1000
#17=GC_Metric|GDBString||
1000
#18=GC_HDGroupTemplate|GDBString||Шаблон группы
1000
#19=GC_HeadDeviceTemplate|GDBString||Шаблон головного устройства
1000
#20=GC_HDShortNameTemplate|GDBString||Шаблон короткого имени головного устройства
1000
#21=GC_InGroup_Metric|GDBString||Метрика нумерации в группе
1000
_OWNERHANDLE=0000000064
1000
_HANDLE=0010ADA480
1000
_UPGRADE=1
1002
}
0
INSERT
5
324
100
AcDbEntity
8
0
100
AcDbBlockReference
2
CONNECTOR_SQUARE
10
77.3736096000
20
-44.8960544000
30
0.0000000000
41
1.0000000000
42
1.0000000000
43
1.0000000000
50
0.0000000000
1001
DSTP_XDATA
1002
{
1000
USES=System
1000
USES=connectors
1000
USES=devices
1000
#0=DeviceClass|TDeviceClass|TDC_Unknown|Класс устройства
1000
#1=Connector_Type|TConnectorType|TCT_ElCable|Тип соединения
1000
#2=Border_Type|TConnectorBorderType|TCBT_Owner|Граница подрезки
1000
#3=Connector_Name|GDBString||Имя соединения
1000
#4=Connector_Junction|GDBBoolean|False|Возможность ответвления
1000
#5=LENGTH_Add|GDBDouble|0.0|Добавить к длине
1000
_OWNERHANDLE=0010ADA480
1000
_HANDLE=000B3C40F8
1000
_UPGRADE=1
1002
}
0
LINE
5
325
100
AcDbEntity
8
SYS_METRIC
100
AcDbLine
10
76.3736096000
20
-44.8960544000
30
0.0000000000
11
78.3736096000
21
-44.8960544000
31
0.0000000000
1001
DSTP_XDATA
1002
{
1000
_OWNERHANDLE=000B3C40F8
1002
}
0
LINE
5
326
100
AcDbEntity
8
SYS_METRIC
100
AcDbLine
10
77.3736096000
20
-43.8960544000
30
0.0000000000
11
77.3736096000
21
-45.8960544000
31
0.0000000000
1001
DSTP_XDATA
1002
{
1000
_OWNERHANDLE=000B3C40F8
1002
}
0
LINE
5
327
100
AcDbEntity
8
SYS_DEVICE_BORDER
100
AcDbLine
10
73.3736096000
20
-47.3960544000
30
0.0000000000
11
73.3736096000
21
-42.3960544000
31
0.0000000000
1001
DSTP_XDATA
1002
{
1000
_OWNERHANDLE=0010ADA480
1002
}
0
LINE
5
328
100
AcDbEntity
8
SYS_DEVICE_BORDER
100
AcDbLine
10
81.3736096000
20
-47.3960544000
30
0.0000000000
11
81.3736096000
21
-42.3960544000
31
0.0000000000
1001
DSTP_XDATA
1002
{
1000
_OWNERHANDLE=0010ADA480
1002
}
0
LINE
5
329
100
AcDbEntity
8
SYS_DEVICE_BORDER
100
AcDbLine
10
73.3736096000
20
-42.3960544000
30
0.0000000000
11
81.3736096000
21
-42.3960544000
31
0.0000000000
1001
DSTP_XDATA
1002
{
1000
_OWNERHANDLE=0010ADA480
1002
}
0
LINE
5
32A
100
AcDbEntity
8
SYS_DEVICE_BORDER
100
AcDbLine
10
73.3736096000
20
-47.3960544000
30
0.0000000000
11
81.3736096000
21
-47.3960544000
31
0.0000000000
1001
DSTP_XDATA
1002
{
1000
_OWNERHANDLE=0010ADA480
1002
}
0
TEXT
5
32B
100
AcDbEntity
8
EL_DEVICE_NAME
100
AcDbText
11
77.3736096000
21
-41.6460544000
31
0.0000000000
10
72.8944428340
20
-41.6460544000
30
0.0000000000
40
2.5000000000
50
0.0000000000
41
1.0000000000
51
15.0000000000
72
1
7
R2_5
1
ARK4
100
AcDbText
73
0
1001
DSTP_XDATA
1002
{
1000
_TMPL1=@@[NMO_Name]
1000
_OWNERHANDLE=0010ADA480
1002
}
0
LINE
5
32C
100
AcDbEntity
8
0
100
AcDbLine
10
64.2157235968
20
55.7605185792
30
0.0000000000
11
47.3157235968
21
55.7605185792
31
0.0000000000
1001
DSTP_XDATA
1002
{
1000
USES=System
1000
#0=NMO_Name|GDBString|default2|Обозначение
1000
#1=NMO_BaseName|GDBString|default2|Короткое Имя
1000
#2=NMO_Prefix|GDBString||Префикс
1000
#3=NMO_Suffix|GDBString||Суффикс
1000
#4=NMO_Template|GDBString|@@[NMO_Prefix]@@[NMO_BaseName]@@[NMO_Suffix]|Шаблон Обозначения
1000
_OWNERHANDLE=0000000064
1000
_HANDLE=000CBBFD80
1000
_UPGRADE=2
1002
}
0
LINE
5
32D
100
AcDbEntity
8
0
100
AcDbLine
10
64.2157235968
20
55.7605185792
30
0.0000000000
11
47.3157235968
21
55.7605185792
31
0.0000000000
1001
DSTP_XDATA
1002
{
1000
_OWNERHANDLE=000CBBFD80
1002
}
0
LINE
5
32E
100
AcDbEntity
8
0
100
AcDbLine
10
47.3157235968
20
30.8506177792
30
0.0000000000
11
47.3157235968
21
4.6605185792
31
0.0000000000
1001
DSTP_XDATA
1002
{
1000
_OWNERHANDLE=000CBBFD80
1002
}
0
LINE
5
32F
100
AcDbEntity
8
0
100
AcDbLine
10
47.3157235968
20
4.6605185792
30
0.0000000000
11
101.8157235968
21
4.6605185792
31
0.0000000000
1001
DSTP_XDATA
1002
{
1000
_OWNERHANDLE=000CBBFD80
1002
}
0
LINE
5
330
100
AcDbEntity
8
0
100
AcDbLine
10
101.8157235968
20
4.6605185792
30
0.0000000000
11
101.8157235968
21
-51.3842592000
31
0.0000000000
1001
DSTP_XDATA
1002
{
1000
_OWNERHANDLE=000CBBFD80
1002
}
0
LINE
5
331
100
AcDbEntity
8
0
100
AcDbLine
10
101.4157235968
20
30.8506177792
30
0.0000000000
11
47.3157235968
21
30.8506177792
31
0.0000000000
1001
DSTP_XDATA
1002
{
1000
_OWNERHANDLE=000CBBFD80
1002
}
0
LINE
5
332
100
AcDbEntity
8
0
100
AcDbLine
10
47.3157235968
20
55.7605185792
30
0.0000000000
11
47.3157235968
21
30.8506177792
31
0.0000000000
1001
DSTP_XDATA
1002
{
1000
_OWNERHANDLE=000CBBFD80
1002
}
0
LINE
5
333
100
AcDbEntity
8
0
100
AcDbLine
10
101.8157235968
20
-51.3842592000
30
0.0000000000
11
78.4103712000
21
-51.3842592000
31
0.0000000000
1001
DSTP_XDATA
1002
{
1000
_OWNERHANDLE=000CBBFD80
1002
}
0
INSERT
5
334
100
AcDbEntity
8
0
100
AcDbBlockReference
2
PS_ARK_DEVICE
10
101.0157235968
20
35.7006177792
30
0.0000000000
41
1.0000000000
42
1.0000000000
43
1.0000000000
50
0.0000000000
1001
DSTP_XDATA
1002
{
1000
USES=System
1000
USES=devices
1000
#0=NMO_Name|GDBString|ARK5|Обозначение
1000
#1=NMO_BaseName|GDBString|ARK|Короткое Имя
1000
#2=NMO_Prefix|GDBString||Префикс
1000
#3=NMO_Suffix|GDBString|5|Суффикс
1000
#4=NMO_Template|GDBString|@@[NMO_BaseName]@@[NMO_Prefix]@@[NMO_Suffix]|Шаблон Обозначения
1000
#5=Device_Type|TDeviceType|TDT_PriborOPS|Тип устройства
1000
#6=Device_Class|TDeviceClass|TDC_Unknown|Класс устройства
1000
#7=Device_Group|TDeviceGroup|TDG_ElDevice|Группа устройства
1000
#8=BTY_TreeCoord|GDBString|PLAN_OPS_Прибор ОПС|Позиция в дереве
1000
#9=Device_Type|TDeviceType|TDT_Unknown|Тип устройства
1000
#10=DB_link|GDBString|Прибор ОПС|Материал
1000
#11=GC_HeadDevice|GDBString|??|
1000
#12=GC_HDShortName|GDBString|??|
1000
#13=GC_HDGroup|GDBString|0|
1000
#14=GC_NumberInGroup|GDBInteger|0|
1000
#15=SerialConnection|GDBInteger|0|
1000
#16=EL_Cab_AddLength|GDBDouble|0.0|Добавлять к длине кабеля
1000
#17=GC_Metric|GDBString||
1000
#18=GC_HDGroupTemplate|GDBString||Шаблон группы
1000
#19=GC_HeadDeviceTemplate|GDBString||Шаблон головного устройства
1000
#20=GC_HDShortNameTemplate|GDBString||Шаблон короткого имени головного устройства
1000
#21=GC_InGroup_Metric|GDBString||Метрика нумерации в группе
1000
_OWNERHANDLE=0000000064
1000
_HANDLE=000CBC17F0
1000
_UPGRADE=1
1002
}
0
INSERT
5
335
100
AcDbEntity
8
0
100
AcDbBlockReference
2
CONNECTOR_SQUARE
10
101.0157235968
20
35.7006177792
30
0.0000000000
41
1.0000000000
42
1.0000000000
43
1.0000000000
50
0.0000000000
1001
DSTP_XDATA
1002
{
1000
USES=System
1000
USES=connectors
1000
USES=devices
1000
#0=DeviceClass|TDeviceClass|TDC_Unknown|Класс устройства
1000
#1=Connector_Type|TConnectorType|TCT_ElCable|Тип соединения
1000
#2=Border_Type|TConnectorBorderType|TCBT_Owner|Граница подрезки
1000
#3=Connector_Name|GDBString||Имя соединения
1000
#4=Connector_Junction|GDBBoolean|False|Возможность ответвления
1000
#5=LENGTH_Add|GDBDouble|0.0|Добавить к длине
1000
_OWNERHANDLE=000CBC17F0
1000
_HANDLE=000B3CE858
1000
_UPGRADE=1
1002
}
0
LINE
5
336
100
AcDbEntity
8
SYS_METRIC
100
AcDbLine
10
100.0157235968
20
35.7006177792
30
0.0000000000
11
102.0157235968
21
35.7006177792
31
0.0000000000
1001
DSTP_XDATA
1002
{
1000
_OWNERHANDLE=000B3CE858
1002
}
0
LINE
5
337
100
AcDbEntity
8
SYS_METRIC
100
AcDbLine
10
101.0157235968
20
36.7006177792
30
0.0000000000
11
101.0157235968
21
34.7006177792
31
0.0000000000
1001
DSTP_XDATA
1002
{
1000
_OWNERHANDLE=000B3CE858
1002
}
0
LINE
5
338
100
AcDbEntity
8
SYS_DEVICE_BORDER
100
AcDbLine
10
97.0157235968
20
33.2006177792
30
0.0000000000
11
97.0157235968
21
38.2006177792
31
0.0000000000
1001
DSTP_XDATA
1002
{
1000
_OWNERHANDLE=000CBC17F0
1002
}
0
LINE
5
339
100
AcDbEntity
8
SYS_DEVICE_BORDER
100
AcDbLine
10
105.0157235968
20
33.2006177792
30
0.0000000000
11
105.0157235968
21
38.2006177792
31
0.0000000000
1001
DSTP_XDATA
1002
{
1000
_OWNERHANDLE=000CBC17F0
1002
}
0
LINE
5
33A
100
AcDbEntity
8
SYS_DEVICE_BORDER
100
AcDbLine
10
97.0157235968
20
38.2006177792
30
0.0000000000
11
105.0157235968
21
38.2006177792
31
0.0000000000
1001
DSTP_XDATA
1002
{
1000
_OWNERHANDLE=000CBC17F0
1002
}
0
LINE
5
33B
100
AcDbEntity
8
SYS_DEVICE_BORDER
100
AcDbLine
10
97.0157235968
20
33.2006177792
30
0.0000000000
11
105.0157235968
21
33.2006177792
31
0.0000000000
1001
DSTP_XDATA
1002
{
1000
_OWNERHANDLE=000CBC17F0
1002
}
0
TEXT
5
33C
100
AcDbEntity
8
EL_DEVICE_NAME
100
AcDbText
11
101.0157235968
21
38.9506177792
31
0.0000000000
10
96.5365568308
20
38.9506177792
30
0.0000000000
40
2.5000000000
50
0.0000000000
41
1.0000000000
51
15.0000000000
72
1
7
R2_5
1
ARK5
100
AcDbText
73
0
1001
DSTP_XDATA
1002
{
1000
_TMPL1=@@[NMO_Name]
1000
_OWNERHANDLE=000CBC17F0
1002
}
0
LINE
5
33D
100
AcDbEntity
8
0
100
AcDbLine
10
-30.8500000000
20
8.2053024000
30
0.0000000000
11
-37.8081888000
21
3.8053024000
31
0.0000000000
1001
DSTP_XDATA
1002
{
1000
_UPGRADE=1
1000
%1=size|GDBInteger|1|
1000
%2=scale|GDBDouble|1|
1000
%3=twidth|GDBDouble|0|
1002
}
0
LINE
5
33E
100
AcDbEntity
8
0
100
AcDbLine
10
-30.3155421559
20
7.3601072670
30
0.0000000000
11
-31.3844578441
21
9.0504975330
31
0.0000000000
1001
DSTP_XDATA
1002
{
1000
_OWNERHANDLE=000000006E
1002
}
0
MTEXT
5
33F
100
AcDbEntity
8
0
100
AcDbMText
10
-42.8081888000
20
2.8053024000
30
0.0000000000
40
2.5000000000
41
0.0000000000
71
2
1
??
7
Standard
11
1.0000000000
21
0.0000000000
31
0.0000000000
44
0.9600000000
1001
DSTP_XDATA
1002
{
1000
_OWNERHANDLE=000000006E
1002
}
0
LINE
5
340
100
AcDbEntity
8
0
100
AcDbLine
10
-47.8081888000
20
3.8053024000
30
0.0000000000
11
-37.8081888000
21
3.8053024000
31
0.0000000000
1001
DSTP_XDATA
1002
{
1000
_OWNERHANDLE=000000006E
1002
}
0
LINE
5
341
100
AcDbEntity
8
0
100
AcDbLine
10
-47.8081888000
20
-0.1946976000
30
0.0000000000
11
-37.8081888000
21
-0.1946976000
31
0.0000000000
1001
DSTP_XDATA
1002
{
1000
_OWNERHANDLE=000000006E
1002
}
0
LINE
5
342
100
AcDbEntity
8
0
100
AcDbLine
10
-47.8081888000
20
3.8053024000
30
0.0000000000
11
-47.8081888000
21
-0.1946976000
31
0.0000000000
1001
DSTP_XDATA
1002
{
1000
_OWNERHANDLE=000000006E
1002
}
0
LINE
5
343
100
AcDbEntity
8
0
100
AcDbLine
10
-37.8081888000
20
3.8053024000
30
0.0000000000
11
-37.8081888000
21
-0.1946976000
31
0.0000000000
1001
DSTP_XDATA
1002
{
1000
_OWNERHANDLE=000000006E
1002
}
0
LINE
5
344
100
AcDbEntity
8
0
100
AcDbLine
10
-15.4265888000
20
-33.6500000000
30
0.0000000000
11
-7.7822400000
21
-41.2943488000
31
0.0000000000
1001
DSTP_XDATA
1002
{
1000
_UPGRADE=1
1000
%1=size|GDBInteger|1|
1000
%2=scale|GDBDouble|1|
1000
%3=twidth|GDBDouble|0|
1002
}
0
LINE
5
345
100
AcDbEntity
8
0
100
AcDbLine
10
-14.7194820188
20
-32.9428932188
30
0.0000000000
11
-16.1336955812
21
-34.3571067812
31
0.0000000000
1001
DSTP_XDATA
1002
{
1000
_OWNERHANDLE=000000006E
1002
}
0
MTEXT
5
346
100
AcDbEntity
8
0
100
AcDbMText
10
-2.7822400000
20
-42.2943488000
30
0.0000000000
40
2.5000000000
41
0.0000000000
71
2
1
??
7
Standard
11
1.0000000000
21
0.0000000000
31
0.0000000000
44
0.9600000000
1001
DSTP_XDATA
1002
{
1000
_OWNERHANDLE=000000006E
1002
}
0
LINE
5
347
100
AcDbEntity
8
0
100
AcDbLine
10
-7.7822400000
20
-41.2943488000
30
0.0000000000
11
2.2177600000
21
-41.2943488000
31
0.0000000000
1001
DSTP_XDATA
1002
{
1000
_OWNERHANDLE=000000006E
1002
}
0
LINE
5
348
100
AcDbEntity
8
0
100
AcDbLine
10
-7.7822400000
20
-45.2943488000
30
0.0000000000
11
2.2177600000
21
-45.2943488000
31
0.0000000000
1001
DSTP_XDATA
1002
{
1000
_OWNERHANDLE=000000006E
1002
}
0
LINE
5
349
100
AcDbEntity
8
0
100
AcDbLine
10
-7.7822400000
20
-41.2943488000
30
0.0000000000
11
-7.7822400000
21
-45.2943488000
31
0.0000000000
1001
DSTP_XDATA
1002
{
1000
_OWNERHANDLE=000000006E
1002
}
0
LINE
5
34A
100
AcDbEntity
8
0
100
AcDbLine
10
2.2177600000
20
-41.2943488000
30
0.0000000000
11
2.2177600000
21
-45.2943488000
31
0.0000000000
1001
DSTP_XDATA
1002
{
1000
_OWNERHANDLE=000000006E
1002
}
0
LINE
5
34B
100
AcDbEntity
8
0
100
AcDbLine
10
47.3157235968
20
43.3055681792
30
0.0000000000
11
40.0615002880
21
50.5597914880
31
0.0000000000
1001
DSTP_XDATA
1002
{
1000
_UPGRADE=1
1000
%1=size|GDBInteger|1|
1000
%2=scale|GDBDouble|1|
1000
%3=twidth|GDBDouble|0|
1002
}
0
LINE
5
34C
100
AcDbEntity
8
0
100
AcDbLine
10
46.6086168156
20
42.5984613980
30
0.0000000000
11
48.0228303780
21
44.0126749604
31
0.0000000000
1001
DSTP_XDATA
1002
{
1000
_OWNERHANDLE=000000006E
1002
}
0
MTEXT
5
34D
100
AcDbEntity
8
0
100
AcDbMText
10
35.0615002880
20
53.5597914880
30
0.0000000000
40
2.5000000000
41
0.0000000000
71
2
1
??
7
Standard
11
1.0000000000
21
0.0000000000
31
0.0000000000
44
0.9600000000
1001
DSTP_XDATA
1002
{
1000
_OWNERHANDLE=000000006E
1002
}
0
LINE
5
34E
100
AcDbEntity
8
0
100
AcDbLine
10
30.0615002880
20
54.5597914880
30
0.0000000000
11
40.0615002880
21
54.5597914880
31
0.0000000000
1001
DSTP_XDATA
1002
{
1000
_OWNERHANDLE=000000006E
1002
}
0
LINE
5
34F
100
AcDbEntity
8
0
100
AcDbLine
10
30.0615002880
20
50.5597914880
30
0.0000000000
11
40.0615002880
21
50.5597914880
31
0.0000000000
1001
DSTP_XDATA
1002
{
1000
_OWNERHANDLE=000000006E
1002
}
0
LINE
5
350
100
AcDbEntity
8
0
100
AcDbLine
10
30.0615002880
20
54.5597914880
30
0.0000000000
11
30.0615002880
21
50.5597914880
31
0.0000000000
1001
DSTP_XDATA
1002
{
1000
_OWNERHANDLE=000000006E
1002
}
0
LINE
5
351
100
AcDbEntity
8
0
100
AcDbLine
10
40.0615002880
20
54.5597914880
30
0.0000000000
11
40.0615002880
21
50.5597914880
31
0.0000000000
1001
DSTP_XDATA
1002
{
1000
_OWNERHANDLE=000000006E
1002
}
0
LINE
5
352
100
AcDbEntity
8
0
100
AcDbLine
10
68.1487229696
20
30.8506177792
30
0.0000000000
11
76.7559229696
21
25.5422141696
31
0.0000000000
1001
DSTP_XDATA
1002
{
1000
_UPGRADE=1
1000
%1=size|GDBInteger|1|
1000
%2=scale|GDBDouble|1|
1000
%3=twidth|GDBDouble|0|
1002
}
0
LINE
5
353
100
AcDbEntity
8
0
100
AcDbLine
10
68.6736568268
20
31.7017608022
30
0.0000000000
11
67.6237891124
21
29.9994747562
31
0.0000000000
1001
DSTP_XDATA
1002
{
1000
_OWNERHANDLE=000000006E
1002
}
0
MTEXT
5
354
100
AcDbEntity
8
0
100
AcDbMText
10
81.7559229696
20
24.5422141696
30
0.0000000000
40
2.5000000000
41
0.0000000000
71
2
1
??
7
Standard
11
1.0000000000
21
0.0000000000
31
0.0000000000
44
0.9600000000
1001
DSTP_XDATA
1002
{
1000
_OWNERHANDLE=000000006E
1002
}
0
LINE
5
355
100
AcDbEntity
8
0
100
AcDbLine
10
76.7559229696
20
25.5422141696
30
0.0000000000
11
86.7559229696
21
25.5422141696
31
0.0000000000
1001
DSTP_XDATA
1002
{
1000
_OWNERHANDLE=000000006E
1002
}
0
LINE
5
356
100
AcDbEntity
8
0
100
AcDbLine
10
76.7559229696
20
21.5422141696
30
0.0000000000
11
86.7559229696
21
21.5422141696
31
0.0000000000
1001
DSTP_XDATA
1002
{
1000
_OWNERHANDLE=000000006E
1002
}
0
LINE
5
357
100
AcDbEntity
8
0
100
AcDbLine
10
76.7559229696
20
25.5422141696
30
0.0000000000
11
76.7559229696
21
21.5422141696
31
0.0000000000
1001
DSTP_XDATA
1002
{
1000
_OWNERHANDLE=000000006E
1002
}
0
LINE
5
358
100
AcDbEntity
8
0
100
AcDbLine
10
86.7559229696
20
25.5422141696
30
0.0000000000
11
86.7559229696
21
21.5422141696
31
0.0000000000
1001
DSTP_XDATA
1002
{
1000
_OWNERHANDLE=000000006E
1002
}
0
LINE
5
359
100
AcDbEntity
8
0
100
AcDbLine
10
83.5767229696
20
4.6605185792
30
0.0000000000
11
73.4739707648
21
-5.4422336256
31
0.0000000000
1001
DSTP_XDATA
1002
{
1000
_UPGRADE=1
1000
%1=size|GDBInteger|1|
1000
%2=scale|GDBDouble|1|
1000
%3=twidth|GDBDouble|0|
1002
}
0
LINE
5
35A
100
AcDbEntity
8
0
100
AcDbLine
10
84.2838297508
20
3.9534117980
30
0.0000000000
11
82.8696161884
21
5.3676253604
31
0.0000000000
1001
DSTP_XDATA
1002
{
1000
_OWNERHANDLE=000000006E
1002
}
0
MTEXT
5
35B
100
AcDbEntity
8
0
100
AcDbMText
10
68.4739707648
20
-6.4422336256
30
0.0000000000
40
2.5000000000
41
0.0000000000
71
2
1
??
7
Standard
11
1.0000000000
21
0.0000000000
31
0.0000000000
44
0.9600000000
1001
DSTP_XDATA
1002
{
1000
_OWNERHANDLE=000000006E
1002
}
0
LINE
5
35C
100
AcDbEntity
8
0
100
AcDbLine
10
63.4739707648
20
-5.4422336256
30
0.0000000000
11
73.4739707648
21
-5.4422336256
31
0.0000000000
1001
DSTP_XDATA
1002
{
1000
_OWNERHANDLE=000000006E
1002
}
0
LINE
5
35D
100
AcDbEntity
8
0
100
AcDbLine
10
63.4739707648
20
-9.4422336256
30
0.0000000000
11
73.4739707648
21
-9.4422336256
31
0.0000000000
1001
DSTP_XDATA
1002
{
1000
_OWNERHANDLE=000000006E
1002
}
0
LINE
5
35E
100
AcDbEntity
8
0
100
AcDbLine
10
63.4739707648
20
-5.4422336256
30
0.0000000000
11
63.4739707648
21
-9.4422336256
31
0.0000000000
1001
DSTP_XDATA
1002
{
1000
_OWNERHANDLE=000000006E
1002
}
0
LINE
5
35F
100
AcDbEntity
8
0
100
AcDbLine
10
73.4739707648
20
-5.4422336256
30
0.0000000000
11
73.4739707648
21
-9.4422336256
31
0.0000000000
1001
DSTP_XDATA
1002
{
1000
_OWNERHANDLE=000000006E
1002
}
0
LINE
5
360
100
AcDbEntity
8
0
100
AcDbLine
10
-18.6523509306
20
9.3941960004
30
0.0000000000
11
-5.8685533719
21
19.7877960004
31
0.0000000000
1001
DSTP_XDATA
1002
{
1000
_UPGRADE=1
1000
%1=size|GDBInteger|1|
1000
%2=scale|GDBDouble|1|
1000
%3=twidth|GDBDouble|0|
1002
}
0
LINE
5
361
100
AcDbEntity
8
0
100
AcDbLine
10
-18.6523509306
20
9.3941960004
30
0.0000000000
11
-18.6523509306
21
9.3941960004
31
0.0000000000
1001
DSTP_XDATA
1002
{
1000
_OWNERHANDLE=000000006E
1002
}
0
MTEXT
5
362
100
AcDbEntity
8
0
100
AcDbMText
10
-0.8685533719
20
22.7877960004
30
0.0000000000
40
2.5000000000
41
0.0000000000
71
2
1
??
7
Standard
11
1.0000000000
21
0.0000000000
31
0.0000000000
44
0.9600000000
1001
DSTP_XDATA
1002
{
1000
_OWNERHANDLE=000000006E
1002
}
0
LINE
5
363
100
AcDbEntity
8
0
100
AcDbLine
10
-5.8685533719
20
23.7877960004
30
0.0000000000
11
4.1314466281
21
23.7877960004
31
0.0000000000
1001
DSTP_XDATA
1002
{
1000
_OWNERHANDLE=000000006E
1002
}
0
LINE
5
364
100
AcDbEntity
8
0
100
AcDbLine
10
-5.8685533719
20
19.7877960004
30
0.0000000000
11
4.1314466281
21
19.7877960004
31
0.0000000000
1001
DSTP_XDATA
1002
{
1000
_OWNERHANDLE=000000006E
1002
}
0
LINE
5
365
100
AcDbEntity
8
0
100
AcDbLine
10
-5.8685533719
20
23.7877960004
30
0.0000000000
11
-5.8685533719
21
19.7877960004
31
0.0000000000
1001
DSTP_XDATA
1002
{
1000
_OWNERHANDLE=000000006E
1002
}
0
LINE
5
366
100
AcDbEntity
8
0
100
AcDbLine
10
4.1314466281
20
23.7877960004
30
0.0000000000
11
4.1314466281
21
19.7877960004
31
0.0000000000
1001
DSTP_XDATA
1002
{
1000
_OWNERHANDLE=000000006E
1002
}
0
MTEXT
5
367
100
AcDbEntity
8
0
100
AcDbMText
10
-5.8685533719
20
25.2877960004
30
0.0000000000
40
2.5000000000
41
0.0000000000
71
7
1
ARK1
7
Standard
11
1.0000000000
21
0.0000000000
31
0.0000000000
44
0.0000000000
1001
DSTP_XDATA
1002
{
1000
_OWNERHANDLE=000000006E
1002
}
0
LINE
5
368
100
AcDbEntity
8
0
100
AcDbLine
10
-5.8685533719
20
24.7877960004
30
0.0000000000
11
-5.8685533719
21
23.7877960004
31
0.0000000000
1001
DSTP_XDATA
1002
{
1000
_OWNERHANDLE=000000006E
1002
}
0
LINE
5
369
100
AcDbEntity
8
0
100
AcDbLine
10
-5.8685533719
20
24.7877960004
30
0.0000000000
11
-0.1810531981
21
24.7877960004
31
0.0000000000
1001
DSTP_XDATA
1002
{
1000
_OWNERHANDLE=000000006E
1002
}
0
LINE
5
36A
100
AcDbEntity
8
0
100
AcDbLine
10
25.7105911330
20
-15.6083743842
30
0.0000000000
11
35.9405115744
21
-25.8382948256
31
0.0000000000
1001
DSTP_XDATA
1002
{
1000
_UPGRADE=1
1000
%1=size|GDBInteger|1|
1000
%2=scale|GDBDouble|1|
1000
%3=twidth|GDBDouble|0|
1002
}
0
LINE
5
36B
100
AcDbEntity
8
0
100
AcDbLine
10
25.7105911330
20
-15.6083743842
30
0.0000000000
11
25.7105911330
21
-15.6083743842
31
0.0000000000
1001
DSTP_XDATA
1002
{
1000
_OWNERHANDLE=000000006E
1002
}
0
MTEXT
5
36C
100
AcDbEntity
8
0
100
AcDbMText
10
40.9405115744
20
-26.8382948256
30
0.0000000000
40
2.5000000000
41
0.0000000000
71
2
1
??
7
Standard
11
1.0000000000
21
0.0000000000
31
0.0000000000
44
0.9600000000
1001
DSTP_XDATA
1002
{
1000
_OWNERHANDLE=000000006E
1002
}
0
LINE
5
36D
100
AcDbEntity
8
0
100
AcDbLine
10
35.9405115744
20
-25.8382948256
30
0.0000000000
11
45.9405115744
21
-25.8382948256
31
0.0000000000
1001
DSTP_XDATA
1002
{
1000
_OWNERHANDLE=000000006E
1002
}
0
LINE
5
36E
100
AcDbEntity
8
0
100
AcDbLine
10
35.9405115744
20
-29.8382948256
30
0.0000000000
11
45.9405115744
21
-29.8382948256
31
0.0000000000
1001
DSTP_XDATA
1002
{
1000
_OWNERHANDLE=000000006E
1002
}
0
LINE
5
36F
100
AcDbEntity
8
0
100
AcDbLine
10
35.9405115744
20
-25.8382948256
30
0.0000000000
11
35.9405115744
21
-29.8382948256
31
0.0000000000
1001
DSTP_XDATA
1002
{
1000
_OWNERHANDLE=000000006E
1002
}
0
LINE
5
370
100
AcDbEntity
8
0
100
AcDbLine
10
45.9405115744
20
-25.8382948256
30
0.0000000000
11
45.9405115744
21
-29.8382948256
31
0.0000000000
1001
DSTP_XDATA
1002
{
1000
_OWNERHANDLE=000000006E
1002
}
0
MTEXT
5
371
100
AcDbEntity
8
0
100
AcDbMText
10
35.9405115744
20
-24.3382948256
30
0.0000000000
40
2.5000000000
41
0.0000000000
71
7
1
ARK2
7
Standard
11
1.0000000000
21
0.0000000000
31
0.0000000000
44
0.0000000000
1001
DSTP_XDATA
1002
{
1000
_OWNERHANDLE=000000006E
1002
}
0
LINE
5
372
100
AcDbEntity
8
0
100
AcDbLine
10
35.9405115744
20
-24.8382948256
30
0.0000000000
11
35.9405115744
21
-25.8382948256
31
0.0000000000
1001
DSTP_XDATA
1002
{
1000
_OWNERHANDLE=000000006E
1002
}
0
LINE
5
373
100
AcDbEntity
8
0
100
AcDbLine
10
35.9405115744
20
-24.8382948256
30
0.0000000000
11
42.2113450468
21
-24.8382948256
31
0.0000000000
1001
DSTP_XDATA
1002
{
1000
_OWNERHANDLE=000000006E
1002
}
0
LINE
5
374
100
AcDbEntity
8
0
100
AcDbLine
10
75.1784368237
20
-43.6955335042
30
0.0000000000
11
65.8955035639
21
-52.9784667639
31
0.0000000000
1001
DSTP_XDATA
1002
{
1000
_UPGRADE=1
1000
%1=size|GDBInteger|1|
1000
%2=scale|GDBDouble|1|
1000
%3=twidth|GDBDouble|0|
1002
}
0
LINE
5
375
100
AcDbEntity
8
0
100
AcDbLine
10
75.1784368237
20
-43.6955335042
30
0.0000000000
11
75.1784368237
21
-43.6955335042
31
0.0000000000
1001
DSTP_XDATA
1002
{
1000
_OWNERHANDLE=000000006E
1002
}
0
MTEXT
5
376
100
AcDbEntity
8
0
100
AcDbMText
10
60.8955035639
20
-53.9784667639
30
0.0000000000
40
2.5000000000
41
0.0000000000
71
2
1
??
7
Standard
11
1.0000000000
21
0.0000000000
31
0.0000000000
44
0.9600000000
1001
DSTP_XDATA
1002
{
1000
_OWNERHANDLE=000000006E
1002
}
0
LINE
5
377
100
AcDbEntity
8
0
100
AcDbLine
10
55.8955035639
20
-52.9784667639
30
0.0000000000
11
65.8955035639
21
-52.9784667639
31
0.0000000000
1001
DSTP_XDATA
1002
{
1000
_OWNERHANDLE=000000006E
1002
}
0
LINE
5
378
100
AcDbEntity
8
0
100
AcDbLine
10
55.8955035639
20
-56.9784667639
30
0.0000000000
11
65.8955035639
21
-56.9784667639
31
0.0000000000
1001
DSTP_XDATA
1002
{
1000
_OWNERHANDLE=000000006E
1002
}
0
LINE
5
379
100
AcDbEntity
8
0
100
AcDbLine
10
55.8955035639
20
-52.9784667639
30
0.0000000000
11
55.8955035639
21
-56.9784667639
31
0.0000000000
1001
DSTP_XDATA
1002
{
1000
_OWNERHANDLE=000000006E
1002
}
0
LINE
5
37A
100
AcDbEntity
8
0
100
AcDbLine
10
65.8955035639
20
-52.9784667639
30
0.0000000000
11
65.8955035639
21
-56.9784667639
31
0.0000000000
1001
DSTP_XDATA
1002
{
1000
_OWNERHANDLE=000000006E
1002
}
0
MTEXT
5
37B
100
AcDbEntity
8
0
100
AcDbMText
10
65.8955035639
20
-51.4784667639
30
0.0000000000
40
2.5000000000
41
0.0000000000
71
9
1
ARK4
7
Standard
11
1.0000000000
21
0.0000000000
31
0.0000000000
44
0.0000000000
1001
DSTP_XDATA
1002
{
1000
_OWNERHANDLE=000000006E
1002
}
0
LINE
5
37C
100
AcDbEntity
8
0
100
AcDbLine
10
65.8955035639
20
-51.9784667639
30
0.0000000000
11
65.8955035639
21
-52.9784667639
31
0.0000000000
1001
DSTP_XDATA
1002
{
1000
_OWNERHANDLE=000000006E
1002
}
0
LINE
5
37D
100
AcDbEntity
8
0
100
AcDbLine
10
65.8955035639
20
-51.9784667639
30
0.0000000000
11
59.6246700915
21
-51.9784667639
31
0.0000000000
1001
DSTP_XDATA
1002
{
1000
_OWNERHANDLE=000000006E
1002
}
0
LINE
5
37E
100
AcDbEntity
8
0
100
AcDbLine
10
103.4096016867
20
37.0172363507
30
0.0000000000
11
110.7371878936
21
41.6354629517
31
0.0000000000
1001
DSTP_XDATA
1002
{
1000
_UPGRADE=1
1000
%1=size|GDBInteger|1|
1000
%2=scale|GDBDouble|1|
1000
%3=twidth|GDBDouble|0|
1002
}
0
LINE
5
37F
100
AcDbEntity
8
0
100
AcDbLine
10
103.4096016867
20
37.0172363507
30
0.0000000000
11
103.4096016867
21
37.0172363507
31
0.0000000000
1001
DSTP_XDATA
1002
{
1000
_OWNERHANDLE=000000006E
1002
}
0
MTEXT
5
380
100
AcDbEntity
8
0
100
AcDbMText
10
115.7371878936
20
44.6354629517
30
0.0000000000
40
2.5000000000
41
0.0000000000
71
2
1
??
7
Standard
11
1.0000000000
21
0.0000000000
31
0.0000000000
44
0.9600000000
1001
DSTP_XDATA
1002
{
1000
_OWNERHANDLE=000000006E
1002
}
0
LINE
5
381
100
AcDbEntity
8
0
100
AcDbLine
10
110.7371878936
20
45.6354629517
30
0.0000000000
11
120.7371878936
21
45.6354629517
31
0.0000000000
1001
DSTP_XDATA
1002
{
1000
_OWNERHANDLE=000000006E
1002
}
0
LINE
5
382
100
AcDbEntity
8
0
100
AcDbLine
10
110.7371878936
20
41.6354629517
30
0.0000000000
11
120.7371878936
21
41.6354629517
31
0.0000000000
1001
DSTP_XDATA
1002
{
1000
_OWNERHANDLE=000000006E
1002
}
0
LINE
5
383
100
AcDbEntity
8
0
100
AcDbLine
10
110.7371878936
20
45.6354629517
30
0.0000000000
11
110.7371878936
21
41.6354629517
31
0.0000000000
1001
DSTP_XDATA
1002
{
1000
_OWNERHANDLE=000000006E
1002
}
0
LINE
5
384
100
AcDbEntity
8
0
100
AcDbLine
10
120.7371878936
20
45.6354629517
30
0.0000000000
11
120.7371878936
21
41.6354629517
31
0.0000000000
1001
DSTP_XDATA
1002
{
1000
_OWNERHANDLE=000000006E
1002
}
0
MTEXT
5
385
100
AcDbEntity
8
0
100
AcDbMText
10
110.7371878936
20
47.1354629517
30
0.0000000000
40
2.5000000000
41
0.0000000000
71
7
1
ARK5
7
Standard
11
1.0000000000
21
0.0000000000
31
0.0000000000
44
0.0000000000
1001
DSTP_XDATA
1002
{
1000
_OWNERHANDLE=000000006E
1002
}
0
LINE
5
386
100
AcDbEntity
8
0
100
AcDbLine
10
110.7371878936
20
46.6354629517
30
0.0000000000
11
110.7371878936
21
45.6354629517
31
0.0000000000
1001
DSTP_XDATA
1002
{
1000
_OWNERHANDLE=000000006E
1002
}
0
LINE
5
387
100
AcDbEntity
8
0
100
AcDbLine
10
110.7371878936
20
46.6354629517
30
0.0000000000
11
117.0080213660
21
46.6354629517
31
0.0000000000
1001
DSTP_XDATA
1002
{
1000
_OWNERHANDLE=000000006E
1002
}
0
LINE
5
388
100
AcDbEntity
8
0
100
AcDbLine
10
59.6130124221
20
48.1897381380
30
0.0000000000
11
77.0343856561
21
62.1595312221
31
0.0000000000
1001
DSTP_XDATA
1002
{
1000
_UPGRADE=1
1000
%1=size|GDBInteger|1|
1000
%2=scale|GDBDouble|1|
1000
%3=twidth|GDBDouble|0|
1002
}
0
LINE
5
389
100
AcDbEntity
8
0
100
AcDbLine
10
59.6130124221
20
48.1897381380
30
0.0000000000
11
59.6130124221
21
48.1897381380
31
0.0000000000
1001
DSTP_XDATA
1002
{
1000
_OWNERHANDLE=000000006E
1002
}
0
MTEXT
5
38A
100
AcDbEntity
8
0
100
AcDbMText
10
82.0343856561
20
65.1595312221
30
0.0000000000
40
2.5000000000
41
0.0000000000
71
2
1
??
7
Standard
11
1.0000000000
21
0.0000000000
31
0.0000000000
44
0.9600000000
1001
DSTP_XDATA
1002
{
1000
_OWNERHANDLE=000000006E
1002
}
0
LINE
5
38B
100
AcDbEntity
8
0
100
AcDbLine
10
77.0343856561
20
66.1595312221
30
0.0000000000
11
87.0343856561
21
66.1595312221
31
0.0000000000
1001
DSTP_XDATA
1002
{
1000
_OWNERHANDLE=000000006E
1002
}
0
LINE
5
38C
100
AcDbEntity
8
0
100
AcDbLine
10
77.0343856561
20
62.1595312221
30
0.0000000000
11
87.0343856561
21
62.1595312221
31
0.0000000000
1001
DSTP_XDATA
1002
{
1000
_OWNERHANDLE=000000006E
1002
}
0
LINE
5
38D
100
AcDbEntity
8
0
100
AcDbLine
10
77.0343856561
20
66.1595312221
30
0.0000000000
11
77.0343856561
21
62.1595312221
31
0.0000000000
1001
DSTP_XDATA
1002
{
1000
_OWNERHANDLE=000000006E
1002
}
0
LINE
5
38E
100
AcDbEntity
8
0
100
AcDbLine
10
87.0343856561
20
66.1595312221
30
0.0000000000
11
87.0343856561
21
62.1595312221
31
0.0000000000
1001
DSTP_XDATA
1002
{
1000
_OWNERHANDLE=000000006E
1002
}
0
MTEXT
5
38F
100
AcDbEntity
8
0
100
AcDbMText
10
77.0343856561
20
67.6595312221
30
0.0000000000
40
2.5000000000
41
0.0000000000
71
7
1
ARK3
7
Standard
11
1.0000000000
21
0.0000000000
31
0.0000000000
44
0.0000000000
1001
DSTP_XDATA
1002
{
1000
_OWNERHANDLE=000000006E
1002
}
0
LINE
5
390
100
AcDbEntity
8
0
100
AcDbLine
10
77.0343856561
20
67.1595312221
30
0.0000000000
11
77.0343856561
21
66.1595312221
31
0.0000000000
1001
DSTP_XDATA
1002
{
1000
_OWNERHANDLE=000000006E
1002
}
0
LINE
5
391
100
AcDbEntity
8
0
100
AcDbLine
10
77.0343856561
20
67.1595312221
30
0.0000000000
11
83.4510525314
21
67.1595312221
31
0.0000000000
1001
DSTP_XDATA
1002
{
1000
_OWNERHANDLE=000000006E
1002
}
0
ENDSEC
0
SECTION
2
OBJECTS
0
DICTIONARY
5
392
330
0
100
AcDbDictionary
281
1
3
ACAD_COLOR
350
393
3
ACAD_GROUP
350
394
3
ACAD_LAYOUT
350
395
3
ACAD_MATERIAL
350
396
3
ACAD_MLINESTYLE
350
397
3
ACAD_PLOTSETTINGS
350
398
3
ACAD_PLOTSTYLENAME
350
399
3
ACAD_TABLESTYLE
350
39A
3
ACDBHEADERROUNDTRIPXREC
350
39B
3
AcDbVariableDictionary
350
39C
3
DWGPROPS
350
39D
0
DICTIONARY
5
2BB
330
2BA
100
AcDbDictionary
280
1
281
1
3
ACAD_LAYERFILTERS
360
39E
3
ACAD_LAYERSTATES
360
39F
3
ACLYDICTIONARY
360
3A0
0
DICTIONARY
5
393
102
{ACAD_REACTORS
330
392
102
}
330
392
100
AcDbDictionary
281
1
0
DICTIONARY
5
394
102
{ACAD_REACTORS
330
392
102
}
330
392
100
AcDbDictionary
281
1
0
DICTIONARY
5
395
102
{ACAD_REACTORS
330
392
102
}
330
392
100
AcDbDictionary
281
1
3
Layout1
350
2DB
3
Layout2
350
2DD
3
Model
350
2D9
0
DICTIONARY
5
396
102
{ACAD_REACTORS
330
392
102
}
330
392
100
AcDbDictionary
281
1
0
DICTIONARY
5
397
102
{ACAD_REACTORS
330
392
102
}
330
392
100
AcDbDictionary
281
1
3
Standard
350
3A1
0
DICTIONARY
5
398
102
{ACAD_REACTORS
330
392
102
}
330
392
100
AcDbDictionary
281
1
0
ACDBDICTIONARYWDFLT
5
399
102
{ACAD_REACTORS
330
392
102
}
330
392
100
AcDbDictionary
281
1
3
Normal
350
2BD
100
AcDbDictionaryWithDefault
340
2BD
0
DICTIONARY
5
39A
102
{ACAD_REACTORS
330
392
102
}
330
392
100
AcDbDictionary
281
1
3
Standard
350
3A2
0
DICTIONARY
5
39B
102
{ACAD_REACTORS
330
392
102
}
330
392
100
AcDbDictionary
281
1
0
DICTIONARY
5
39C
102
{ACAD_REACTORS
330
392
102
}
330
392
100
AcDbDictionary
281
1
3
CTABLESTYLE
350
3A3
3
DIMASSOC
350
3A4
3
HIDETEXT
350
3A5
3
PROJECTNAME
350
3A6
0
XRECORD
5
39D
102
{ACAD_REACTORS
330
392
102
}
330
392
100
AcDbXrecord
280
1
1
DWGPROPS COOKIE
2

3

4

6

7

8
Autodesk
9

300
=
301
=
302
=
303
=
304
=
305
=
306
=
307
=
308
=
309
=
40
0.0121102546296296
41
2455008.558453229
42
2455694.624051458
1

90
0
0
DICTIONARY
5
39E
102
{ACAD_REACTORS
330
2BB
102
}
330
2BB
100
AcDbDictionary
281
1
0
DICTIONARY
5
39F
102
{ACAD_REACTORS
330
2BB
102
}
330
2BB
100
AcDbDictionary
281
1
0
DICTIONARY
5
3A0
102
{ACAD_REACTORS
330
2BB
102
}
330
2BB
100
AcDbDictionary
281
1
1001
ACAD
1000
<All
0
LAYOUT
5
2DB
102
{ACAD_XDICTIONARY
360
3A7
102
}
102
{ACAD_REACTORS
330
395
102
}
330
395
100
AcDbPlotSettings
1

2
C:\Documents and Settings\basas\Application Data\Autodesk\AutoCAD 2005\R16.1\enu\plotters\Default Windows System Printer.pc3
4

6

40
0.0
41
0.0
42
0.0
43
0.0
44
0.0
45
0.0
46
0.0
47
0.0
48
0.0
49
0.0
140
0.0
141
0.0
142
1.0
143
1.0
70
688
72
0
73
0
74
5
7

75
16
147
1.0
148
0.0
149
0.0
100
AcDbLayout
1
Layout1
70
1
71
1
10
0.0
20
0.0
11
12.0
21
9.0
12
0.0
22
0.0
32
0.0
14
0.0
24
0.0
34
0.0
15
0.0
25
0.0
35
0.0
146
0.0
13
0.0
23
0.0
33
0.0
16
1.0
26
0.0
36
0.0
17
0.0
27
1.0
37
0.0
76
0
330
2DA
0
LAYOUT
5
2DD
102
{ACAD_XDICTIONARY
360
3A8
102
}
102
{ACAD_REACTORS
330
395
102
}
330
395
100
AcDbPlotSettings
1

2
C:\Documents and Settings\basas\Application Data\Autodesk\AutoCAD 2005\R16.1\enu\plotters\Default Windows System Printer.pc3
4

6

40
0.0
41
0.0
42
0.0
43
0.0
44
0.0
45
0.0
46
0.0
47
0.0
48
0.0
49
0.0
140
0.0
141
0.0
142
1.0
143
1.0
70
688
72
0
73
0
74
5
7

75
16
147
1.0
148
0.0
149
0.0
100
AcDbLayout
1
Layout2
70
1
71
2
10
0.0
20
0.0
11
12.0
21
9.0
12
0.0
22
0.0
32
0.0
14
0.0
24
0.0
34
0.0
15
0.0
25
0.0
35
0.0
146
0.0
13
0.0
23
0.0
33
0.0
16
1.0
26
0.0
36
0.0
17
0.0
27
1.0
37
0.0
76
0
330
2DC
0
LAYOUT
5
2D9
102
{ACAD_XDICTIONARY
360
3A9
102
}
102
{ACAD_REACTORS
330
395
102
}
330
395
100
AcDbPlotSettings
1

2
none_device
4
ISO_A4_(210.00_x_297.00_MM)
6

40
7.5
41
20.0
42
7.5
43
20.0
44
210.0
45
297.0
46
11.54999923706054
47
-13.65000009536743
48
0.0
49
0.0
140
0.0
141
0.0
142
1.0
143
8.704084754739808
70
11952
72
1
73
0
74
0
7

75
0
147
0.1148885871608098
148
0.0
149
0.0
100
AcDbLayout
1
Model
70
1
71
0
10
0.0
20
0.0
11
12.0
21
9.0
12
0.0
22
0.0
32
0.0
14
0.0
24
0.0
34
0.0
15
0.0
25
0.0
35
0.0
146
0.0
13
0.0
23
0.0
33
0.0
16
1.0
26
0.0
36
0.0
17
0.0
27
1.0
37
0.0
76
0
330
2D8
1001
ACAD_PSEXT
1000
None
1000
None
1000
Not applicable
1000
The layout will not be plotted unless a new plotter configuration name is selected.
1070
0
0
MLINESTYLE
5
3A1
102
{ACAD_REACTORS
330
397
102
}
330
397
100
AcDbMlineStyle
2
STANDARD
70
0
3

62
256
51
90.0
52
90.0
71
2
49
0.5
62
256
6
BYLAYER
49
-0.5
62
256
6
BYLAYER
0
ACDBPLACEHOLDER
5
2BD
102
{ACAD_REACTORS
330
399
102
}
330
399
0
TABLESTYLE
5
3A2
102
{ACAD_REACTORS
330
39A
102
}
330
39A
100
AcDbTableStyle
3
Standard
70
0
71
0
40
1.5
41
1.5
280
0
281
0
7
Standard
140
4.5
170
2
62
0
63
7
283
0
274
-2
284
1
64
0
275
-2
285
1
65
0
276
-2
286
1
66
0
277
-2
287
1
67
0
278
-2
288
1
68
0
279
-2
289
1
69
0
7
Standard
140
6.0
170
5
62
0
63
7
283
0
274
-2
284
1
64
0
275
-2
285
1
65
0
276
-2
286
1
66
0
277
-2
287
1
67
0
278
-2
288
1
68
0
279
-2
289
1
69
0
7
Standard
140
4.5
170
5
62
0
63
7
283
0
274
-2
284
1
64
0
275
-2
285
1
65
0
276
-2
286
1
66
0
277
-2
287
1
67
0
278
-2
288
1
68
0
279
-2
289
1
69
0
0
DICTIONARYVAR
5
3A3
102
{ACAD_REACTORS
330
39C
102
}
330
39C
100
DictionaryVariables
280
0
1
STANDARD
0
DICTIONARYVAR
5
3A4
102
{ACAD_REACTORS
330
39C
102
}
330
39C
100
DictionaryVariables
280
0
1
2
0
DICTIONARYVAR
5
3A5
102
{ACAD_REACTORS
330
39C
102
}
330
39C
100
DictionaryVariables
280
0
1
1
0
DICTIONARYVAR
5
3A6
102
{ACAD_REACTORS
330
39C
102
}
330
39C
100
DictionaryVariables
280
0
1

0
DICTIONARY
5
3A7
330
2DB
100
AcDbDictionary
280
1
281
1
3
ACAD_XREC_ROUNDTRIP
360
3AA
0
DICTIONARY
5
3A8
330
2DD
100
AcDbDictionary
280
1
281
1
3
ACAD_XREC_ROUNDTRIP
360
3AB
0
DICTIONARY
5
3A9
330
2D9
100
AcDbDictionary
280
1
281
1
3
ACAD_XREC_ROUNDTRIP
360
3AC
0
XRECORD
5
3AA
102
{ACAD_REACTORS
330
3A7
102
}
330
3A7
100
AcDbXrecord
280
1
102
SHADEPLOT
70
0
102
SHADEPLOTRESLEVEL
70
2
102
SHADEPLOTCUSTOMDPI
70
300
0
XRECORD
5
3AB
102
{ACAD_REACTORS
330
3A8
102
}
330
3A8
100
AcDbXrecord
280
1
102
SHADEPLOT
70
0
102
SHADEPLOTRESLEVEL
70
2
102
SHADEPLOTCUSTOMDPI
70
300
0
XRECORD
5
3AC
102
{ACAD_REACTORS
330
3A9
102
}
330
3A9
100
AcDbXrecord
280
1
102
SHADEPLOT
70
0
102
SHADEPLOTRESLEVEL
70
2
102
SHADEPLOTCUSTOMDPI
70
300
0
ENDSEC
0
EOF
