0
SECTION
2
HEADER
9
$ACADVER
1
AC1015
9
$ACADMAINTVER
70
20
9
$DWGCODEPAGE
3
ANSI_1251
9
$INSBASE
10
0.0
20
0.0
30
0.0
9
$EXTMIN
10
1.000000000000000E+20
20
1.000000000000000E+20
30
1.000000000000000E+20
9
$EXTMAX
10
-1.000000000000000E+20
20
-1.000000000000000E+20
30
-1.000000000000000E+20
9
$LIMMIN
10
0.0
20
0.0
9
$LIMMAX
10
420.0
20
297.0
9
$ORTHOMODE
70
0
9
$REGENMODE
70
1
9
$FILLMODE
70
1
9
$QTEXTMODE
70
0
9
$MIRRTEXT
70
0
9
$LTSCALE
40
1.0
9
$ATTMODE
70
1
9
$TEXTSIZE
40
2.5
9
$TRACEWID
40
1.0
9
$TEXTSTYLE
7
R2_5
9
$CLAYER
8
0
9
$CELTYPE
6
ByLayer
9
$CECOLOR
62
256
9
$CELTSCALE
40
1.0
9
$DISPSILH
70
0
9
$DIMSCALE
40
1.0
9
$DIMASZ
40
2.5
9
$DIMEXO
40
0.625
9
$DIMDLI
40
3.75
9
$DIMRND
40
0.0
9
$DIMDLE
40
0.0
9
$DIMEXE
40
1.25
9
$DIMTP
40
0.0
9
$DIMTM
40
0.0
9
$DIMTXT
40
2.5
9
$DIMCEN
40
2.5
9
$DIMTSZ
40
0.0
9
$DIMTOL
70
0
9
$DIMLIM
70
0
9
$DIMTIH
70
0
9
$DIMTOH
70
0
9
$DIMSE1
70
0
9
$DIMSE2
70
0
9
$DIMTAD
70
1
9
$DIMZIN
70
8
9
$DIMBLK
1

9
$DIMASO
70
1
9
$DIMSHO
70
1
9
$DIMPOST
1

9
$DIMAPOST
1

9
$DIMALT
70
0
9
$DIMALTD
70
3
9
$DIMALTF
40
0.03937007874016
9
$DIMLFAC
40
1.0
9
$DIMTOFL
70
1
9
$DIMTVP
40
0.0
9
$DIMTIX
70
0
9
$DIMSOXD
70
0
9
$DIMSAH
70
0
9
$DIMBLK1
1

9
$DIMBLK2
1

9
$DIMSTYLE
2
ISO-25
9
$DIMCLRD
70
0
9
$DIMCLRE
70
0
9
$DIMCLRT
70
0
9
$DIMTFAC
40
1.0
9
$DIMGAP
40
0.625
9
$DIMJUST
70
0
9
$DIMSD1
70
0
9
$DIMSD2
70
0
9
$DIMTOLJ
70
0
9
$DIMTZIN
70
8
9
$DIMALTZ
70
0
9
$DIMALTTZ
70
0
9
$DIMUPT
70
0
9
$DIMDEC
70
2
9
$DIMTDEC
70
2
9
$DIMALTU
70
2
9
$DIMALTTD
70
3
9
$DIMTXSTY
7
Standard
9
$DIMAUNIT
70
0
9
$DIMADEC
70
0
9
$DIMALTRND
40
0.0
9
$DIMAZIN
70
0
9
$DIMDSEP
70
44
9
$DIMATFIT
70
3
9
$DIMFRAC
70
0
9
$DIMLDRBLK
1

9
$DIMLUNIT
70
2
9
$DIMLWD
70
-2
9
$DIMLWE
70
-2
9
$DIMTMOVE
70
0
9
$LUNITS
70
2
9
$LUPREC
70
4
9
$SKETCHINC
40
1.0
9
$FILLETRAD
40
0.0
9
$AUNITS
70
0
9
$AUPREC
70
0
9
$MENU
1
.
9
$ELEVATION
40
0.0
9
$PELEVATION
40
0.0
9
$THICKNESS
40
0.0
9
$LIMCHECK
70
0
9
$CHAMFERA
40
0.0
9
$CHAMFERB
40
0.0
9
$CHAMFERC
40
0.0
9
$CHAMFERD
40
0.0
9
$SKPOLY
70
0
9
$TDCREATE
40
2455008.558453229
9
$TDUCREATE
40
2455008.308453229
9
$TDUPDATE
40
2455012.146065174
9
$TDUUPDATE
40
2455011.896065174
9
$TDINDWG
40
0.0099629167
9
$TDUSRTIMER
40
0.0099625579
9
$USRTIMER
70
1
9
$ANGBASE
50
0.0
9
$ANGDIR
70
0
9
$PDMODE
70
0
9
$PDSIZE
40
0.0
9
$PLINEWID
40
0.0
9
$SPLFRAME
70
0
9
$SPLINETYPE
70
6
9
$SPLINESEGS
70
8
9
$HANDSEED
5
0000033B
9
$SURFTAB1
70
6
9
$SURFTAB2
70
6
9
$SURFTYPE
70
6
9
$SURFU
70
6
9
$SURFV
70
6
9
$UCSBASE
2

9
$UCSNAME
2

9
$UCSORG
10
0.0
20
0.0
30
0.0
9
$UCSXDIR
10
1.0
20
0.0
30
0.0
9
$UCSYDIR
10
0.0
20
1.0
30
0.0
9
$UCSORTHOREF
2

9
$UCSORTHOVIEW
70
0
9
$UCSORGTOP
10
0.0
20
0.0
30
0.0
9
$UCSORGBOTTOM
10
0.0
20
0.0
30
0.0
9
$UCSORGLEFT
10
0.0
20
0.0
30
0.0
9
$UCSORGRIGHT
10
0.0
20
0.0
30
0.0
9
$UCSORGFRONT
10
0.0
20
0.0
30
0.0
9
$UCSORGBACK
10
0.0
20
0.0
30
0.0
9
$PUCSBASE
2

9
$PUCSNAME
2

9
$PUCSORG
10
0.0
20
0.0
30
0.0
9
$PUCSXDIR
10
1.0
20
0.0
30
0.0
9
$PUCSYDIR
10
0.0
20
1.0
30
0.0
9
$PUCSORTHOREF
2

9
$PUCSORTHOVIEW
70
0
9
$PUCSORGTOP
10
0.0
20
0.0
30
0.0
9
$PUCSORGBOTTOM
10
0.0
20
0.0
30
0.0
9
$PUCSORGLEFT
10
0.0
20
0.0
30
0.0
9
$PUCSORGRIGHT
10
0.0
20
0.0
30
0.0
9
$PUCSORGFRONT
10
0.0
20
0.0
30
0.0
9
$PUCSORGBACK
10
0.0
20
0.0
30
0.0
9
$USERI1
70
0
9
$USERI2
70
0
9
$USERI3
70
0
9
$USERI4
70
0
9
$USERI5
70
0
9
$USERR1
40
0.0
9
$USERR2
40
0.0
9
$USERR3
40
0.0
9
$USERR4
40
0.0
9
$USERR5
40
0.0
9
$WORLDVIEW
70
1
9
$SHADEDGE
70
3
9
$SHADEDIF
70
70
9
$TILEMODE
70
1
9
$MAXACTVP
70
64
9
$PINSBASE
10
0.0
20
0.0
30
0.0
9
$PLIMCHECK
70
0
9
$PEXTMIN
10
0.0
20
0.0
30
0.0
9
$PEXTMAX
10
0.0
20
0.0
30
0.0
9
$PLIMMIN
10
0.0
20
0.0
9
$PLIMMAX
10
12.0
20
9.0
9
$UNITMODE
70
0
9
$VISRETAIN
70
1
9
$PLINEGEN
70
0
9
$PSLTSCALE
70
1
9
$TREEDEPTH
70
3020
9
$CMLSTYLE
2
Standard
9
$CMLJUST
70
0
9
$CMLSCALE
40
20.0
9
$PROXYGRAPHICS
70
1
9
$MEASUREMENT
70
1
9
$CELWEIGHT
370
-1
9
$ENDCAPS
280
0
9
$JOINSTYLE
280
0
9
$LWDISPLAY
290
0
9
$INSUNITS
70
0
9
$HYPERLINKBASE
1

9
$STYLESHEET
1

9
$XEDIT
290
1
9
$CEPSNTYPE
380
0
9
$PSTYLEMODE
290
1
9
$FINGERPRINTGUID
2
{83B934B2-5622-42D0-9691-648EBDBEDF3A}
9
$VERSIONGUID
2
{2C4F948F-CFBB-4B5D-9979-83228521A122}
9
$EXTNAMES
290
1
9
$PSVPSCALE
40
0.0
9
$OLESTARTUP
290
0
0
ENDSEC
0
SECTION
2
CLASSES
0
CLASS
1
ACDBDICTIONARYWDFLT
2
AcDbDictionaryWithDefault
3
ObjectDBX Classes
90
0
280
0
281
0
0
CLASS
1
ACDBPLACEHOLDER
2
AcDbPlaceHolder
3
ObjectDBX Classes
90
0
280
0
281
0
0
CLASS
1
LAYOUT
2
AcDbLayout
3
ObjectDBX Classes
90
0
280
0
281
0
0
CLASS
1
DICTIONARYVAR
2
AcDbDictionaryVar
3
ObjectDBX Classes
90
0
280
0
281
0
0
CLASS
1
TABLESTYLE
2
AcDbTableStyle
3
ObjectDBX Classes
90
2047
280
0
281
0
0
ENDSEC
0
SECTION
2
TABLES
0
TABLE
2
VPORT
5
8
330

100
AcDbSymbolTable
70
5
0
VPORT
5
12A
330
8
100
AcDbSymbolTableRecord
100
AcDbViewportTableRecord
2
*Active
70
0
10
0.0
20
0.0
11
1.0
21
1.0
12
210.0
22
148.5
13
0.0
23
0.0
14
10.0
24
10.0
15
10.0
25
10.0
16
0.0
26
0.0
36
1.0
17
0.0
27
0.0
37
0.0
40
366.182256406846
41
1.154320987654321
42
50.0
43
0.0
44
0.0
50
0.0
51
0.0
71
0
72
1000
73
1
74
3
75
0
76
0
77
0
78
0
281
0
65
1
110
0.0
120
0.0
130
0.0
111
1.0
121
0.0
131
0.0
112
0.0
122
1.0
132
0.0
79
0
146
0.0
0
ENDTAB
0
TABLE
2
LTYPE
5
5
330

100
AcDbSymbolTable
70
1
0
LTYPE
5
14
330
5
100
AcDbSymbolTableRecord
100
AcDbLinetypeTableRecord
2
ByBlock
70
0
3

72
65
73
0
40
0.0
0
LTYPE
5
15
330
5
100
AcDbSymbolTableRecord
100
AcDbLinetypeTableRecord
2
ByLayer
70
0
3

72
65
73
0
40
0.0
0
LTYPE
5
16
330
5
100
AcDbSymbolTableRecord
100
AcDbLinetypeTableRecord
2
Continuous
70
0
3
Solid line
72
65
73
0
40
0.0
0
ENDTAB
0
TABLE
2
LAYER
5
2
102
{ACAD_XDICTIONARY
360
109
102
}
330

100
AcDbSymbolTable
70
2
0
LAYER
5
10
330
2
100
AcDbSymbolTableRecord
100
AcDbLayerTableRecord
2
0
70
0
62
7
6
Continuous
370
-3
390
F
0
LAYER
5
133
100
AcDbSymbolTableRecord
100
AcDbLayerTableRecord
2
SYS_METRIC
70
0
62
-7
6
Continuous
290
1
370
-3
390
F
0
LAYER
5
134
100
AcDbSymbolTableRecord
100
AcDbLayerTableRecord
2
EL_DEVICE
70
0
62
1
6
Continuous
290
1
370
40
390
F
0
LAYER
5
135
100
AcDbSymbolTableRecord
100
AcDbLayerTableRecord
2
TEXT
70
0
62
4
6
Continuous
290
1
370
-3
390
F
0
LAYER
5
136
100
AcDbSymbolTableRecord
100
AcDbLayerTableRecord
2
SYS_DEVICE_BORDER
70
0
62
-7
6
Continuous
290
1
370
-3
390
F
0
LAYER
5
137
100
AcDbSymbolTableRecord
100
AcDbLayerTableRecord
2
SYS_PIN
70
0
62
7
6
Continuous
290
1
370
-3
390
F
0
LAYER
5
138
100
AcDbSymbolTableRecord
100
AcDbLayerTableRecord
2
EL_DEVICE_NAME
70
0
62
7
6
Continuous
290
1
370
-3
390
F
0
LAYER
5
139
100
AcDbSymbolTableRecord
100
AcDbLayerTableRecord
2
FORMAT
70
0
62
134
6
Continuous
290
1
370
-3
390
F
0
LAYER
5
13A
100
AcDbSymbolTableRecord
100
AcDbLayerTableRecord
2
TABLE
70
0
62
7
6
Continuous
290
1
370
50
390
F
0
ENDTAB
0
TABLE
2
STYLE
5
3
330

100
AcDbSymbolTable
70
2
0
STYLE
5
11
330
3
100
AcDbSymbolTableRecord
100
AcDbTextStyleTableRecord
2
Standard
70
0
40
0.0
41
1.0
50
0.0
71
0
42
2.5
3
txt
4

0
STYLE
5
107
330
3
100
AcDbSymbolTableRecord
100
AcDbTextStyleTableRecord
2
R2_5
70
0
40
2.5
41
0.65
50
12.0
71
0
42
2.5
3
romant.shx
4

0
ENDTAB
0
TABLE
2
VIEW
5
6
330

100
AcDbSymbolTable
70
0
0
ENDTAB
0
TABLE
2
UCS
5
7
330

100
AcDbSymbolTable
70
0
0
ENDTAB
0
TABLE
2
APPID
5
9
330

100
AcDbSymbolTable
70
4
0
APPID
5
12
330
9
100
AcDbSymbolTableRecord
100
AcDbRegAppTableRecord
2
ACAD
70
0
0
APPID
5
9E
330
9
100
AcDbSymbolTableRecord
100
AcDbRegAppTableRecord
2
ACAD_PSEXT
70
0
0
APPID
5
F2
330
9
100
AcDbSymbolTableRecord
100
AcDbRegAppTableRecord
2
ACAD_EXEMPT_FROM_CAD_STANDARDS
70
0
0
APPID
5
F9
330
9
100
AcDbSymbolTableRecord
100
AcDbRegAppTableRecord
2
DSTP_XDATA
70
0
0
ENDTAB
0
TABLE
2
DIMSTYLE
5
A
330

100
AcDbSymbolTable
70
2
100
AcDbDimStyleTable
71
1
340
27
0
DIMSTYLE
105
27
330
A
100
AcDbSymbolTableRecord
100
AcDbDimStyleTableRecord
2
ISO-25
70
0
41
2.5
42
0.625
43
3.75
44
1.25
73
0
74
0
77
1
78
8
140
2.5
141
2.5
143
0.03937007874016
147
0.625
171
3
172
1
271
2
272
2
274
3
278
44
283
0
284
8
340
11
0
DIMSTYLE
105
108
330
A
100
AcDbSymbolTableRecord
100
AcDbDimStyleTableRecord
2
Standard
70
0
340
11
0
ENDTAB
0
TABLE
2
BLOCK_RECORD
5
1
330

100
AcDbSymbolTable
70
1
0
BLOCK_RECORD
5
1F
330
1
100
AcDbSymbolTableRecord
100
AcDbBlockTableRecord
2
*Model_Space
340
22
0
BLOCK_RECORD
5
D2
330
1
100
AcDbSymbolTableRecord
100
AcDbBlockTableRecord
2
*Paper_Space
340
D3
0
BLOCK_RECORD
5
D6
330
1
100
AcDbSymbolTableRecord
100
AcDbBlockTableRecord
2
*Paper_Space0
340
D7
0
BLOCK_RECORD
5
13B
100
AcDbSymbolTableRecord
100
AcDbBlockTableRecord
2
CONNECTOR_SQUARE
0
BLOCK_RECORD
5
13C
100
AcDbSymbolTableRecord
100
AcDbBlockTableRecord
2
EL_MOTOR
0
BLOCK_RECORD
5
13D
100
AcDbSymbolTableRecord
100
AcDbBlockTableRecord
2
EL_POSITION
0
BLOCK_RECORD
5
13E
100
AcDbSymbolTableRecord
100
AcDbBlockTableRecord
2
EL_SR
0
BLOCK_RECORD
5
13F
100
AcDbSymbolTableRecord
100
AcDbBlockTableRecord
2
KIP_KNOPKA
0
BLOCK_RECORD
5
140
100
AcDbSymbolTableRecord
100
AcDbBlockTableRecord
2
KIP_UKP
0
BLOCK_RECORD
5
141
100
AcDbSymbolTableRecord
100
AcDbBlockTableRecord
2
EL_CONTACTOR
0
BLOCK_RECORD
5
142
100
AcDbSymbolTableRecord
100
AcDbBlockTableRecord
2
DEVICE_EL_MOTOR
0
BLOCK_RECORD
5
143
100
AcDbSymbolTableRecord
100
AcDbBlockTableRecord
2
DEVICE_CONNECTOR_SQUARE
0
BLOCK_RECORD
5
144
100
AcDbSymbolTableRecord
100
AcDbBlockTableRecord
2
DEVICE_EL_POSITION
0
BLOCK_RECORD
5
145
100
AcDbSymbolTableRecord
100
AcDbBlockTableRecord
2
DEVICE_EL_CONTACTOR
0
BLOCK_RECORD
5
146
100
AcDbSymbolTableRecord
100
AcDbBlockTableRecord
2
DEVICE_EL_SR
0
BLOCK_RECORD
5
147
100
AcDbSymbolTableRecord
100
AcDbBlockTableRecord
2
EL_LIGHT_FBULB
0
BLOCK_RECORD
5
148
100
AcDbSymbolTableRecord
100
AcDbBlockTableRecord
2
DEVICE_EL_LIGHT_FBULB
0
BLOCK_RECORD
5
149
100
AcDbSymbolTableRecord
100
AcDbBlockTableRecord
2
EL_LIGHT_LBULB
0
BLOCK_RECORD
5
14A
100
AcDbSymbolTableRecord
100
AcDbBlockTableRecord
2
DEVICE_EL_LIGHT_LBULB
0
BLOCK_RECORD
5
14B
100
AcDbSymbolTableRecord
100
AcDbBlockTableRecord
2
DEVICE_KIP_KNOPKA
0
BLOCK_RECORD
5
14C
100
AcDbSymbolTableRecord
100
AcDbBlockTableRecord
2
EM_PSRS_HEAD
0
ENDTAB
0
ENDSEC
0
SECTION
2
BLOCKS
0
BLOCK
5
20
330
1F
100
AcDbEntity
8
0
100
AcDbBlockBegin
2
*Model_Space
70
0
10
0.0
20
0.0
30
0.0
3
*Model_Space
1

0
ENDBLK
5
21
330
1F
100
AcDbEntity
8
0
100
AcDbBlockEnd
0
BLOCK
5
D4
330
D2
100
AcDbEntity
67
1
8
0
100
AcDbBlockBegin
2
*Paper_Space
70
0
10
0.0
20
0.0
30
0.0
3
*Paper_Space
1

0
ENDBLK
5
D5
330
D2
100
AcDbEntity
67
1
8
0
100
AcDbBlockEnd
0
BLOCK
5
D8
330
D6
100
AcDbEntity
67
1
8
0
100
AcDbBlockBegin
2
*Paper_Space0
70
0
10
0.0
20
0.0
30
0.0
3
*Paper_Space0
1

0
ENDBLK
5
D9
330
D6
100
AcDbEntity
67
1
8
0
100
AcDbBlockEnd
0
BLOCK
5
14D
100
AcDbEntity
8
0
100
AcDbBlockBegin
2
CONNECTOR_SQUARE
70
2
10
0
20
0
30
0
3
CONNECTOR_SQUARE
1

0
LINE
5
14E
100
AcDbEntity
8
SYS_PIN
100
AcDbLine
10
-0.3535533906
20
0.3535533906
30
0.0000000000
11
0.3535533906
21
-0.3535533906
31
0.0000000000
1001
DSTP_XDATA
1002
{
1000
_OWNERHANDLE=0000000064
1002
}
0
LINE
5
14F
100
AcDbEntity
8
SYS_PIN
100
AcDbLine
10
0.3535533906
20
0.3535533906
30
0.0000000000
11
-0.3535533906
21
-0.3535533906
31
0.0000000000
1001
DSTP_XDATA
1002
{
1000
_OWNERHANDLE=0000000064
1002
}
0
ENDBLK
5
150
100
AcDbEntity
8
0
100
AcDbBlockEnd
0
BLOCK
5
151
100
AcDbEntity
8
0
100
AcDbBlockBegin
2
EL_MOTOR
70
2
10
0
20
0
30
0
3
EL_MOTOR
1

0
LINE
5
152
100
AcDbEntity
8
EL_DEVICE
100
AcDbLine
10
7.5000000000
20
-2.5000000000
30
0.0000000000
11
-2.5000000000
21
-2.5000000000
31
0.0000000000
1001
DSTP_XDATA
1002
{
1000
_OWNERHANDLE=0000000064
1002
}
0
LINE
5
153
100
AcDbEntity
8
EL_DEVICE
100
AcDbLine
10
7.5000000000
20
2.5000000000
30
0.0000000000
11
7.5000000000
21
-2.5000000000
31
0.0000000000
1001
DSTP_XDATA
1002
{
1000
_OWNERHANDLE=0000000064
1002
}
0
LINE
5
154
100
AcDbEntity
8
EL_DEVICE
100
AcDbLine
10
-2.5000000000
20
2.5000000000
30
0.0000000000
11
7.5000000000
21
2.5000000000
31
0.0000000000
1001
DSTP_XDATA
1002
{
1000
_OWNERHANDLE=0000000064
1002
}
0
LINE
5
155
100
AcDbEntity
8
EL_DEVICE
100
AcDbLine
10
-2.5000000000
20
-2.5000000000
30
0.0000000000
11
-2.5000000000
21
2.5000000000
31
0.0000000000
1001
DSTP_XDATA
1002
{
1000
_OWNERHANDLE=0000000064
1002
}
0
CIRCLE
5
156
100
AcDbEntity
8
EL_DEVICE
100
AcDbCircle
10
0.0000000000
20
0.0000000000
30
0.0000000000
40
1.5000000000
1001
DSTP_XDATA
1002
{
1000
_OWNERHANDLE=0000000064
1002
}
0
ENDBLK
5
157
100
AcDbEntity
8
0
100
AcDbBlockEnd
0
BLOCK
5
158
100
AcDbEntity
8
0
100
AcDbBlockBegin
2
EL_POSITION
70
2
10
0
20
0
30
0
3
EL_POSITION
1

0
LINE
5
159
100
AcDbEntity
8
TEXT
100
AcDbLine
10
-3.0000000000
20
0.0000000000
30
0.0000000000
11
3.0000000000
21
0.0000000000
31
0.0000000000
1001
DSTP_XDATA
1002
{
1000
_OWNERHANDLE=0000000064
1002
}
0
ENDBLK
5
15A
100
AcDbEntity
8
0
100
AcDbBlockEnd
0
BLOCK
5
15B
100
AcDbEntity
8
0
100
AcDbBlockBegin
2
EL_SR
70
2
10
0
20
0
30
0
3
EL_SR
1

0
LINE
5
15C
100
AcDbEntity
8
EL_DEVICE
100
AcDbLine
10
2.5000000000
20
-2.5000000000
30
0.0000000000
11
-2.5000000000
21
-2.5000000000
31
0.0000000000
1001
DSTP_XDATA
1002
{
1000
_OWNERHANDLE=0000000064
1002
}
0
LINE
5
15D
100
AcDbEntity
8
EL_DEVICE
100
AcDbLine
10
2.5000000000
20
2.5000000000
30
0.0000000000
11
2.5000000000
21
-2.5000000000
31
0.0000000000
1001
DSTP_XDATA
1002
{
1000
_OWNERHANDLE=0000000064
1002
}
0
LINE
5
15E
100
AcDbEntity
8
EL_DEVICE
100
AcDbLine
10
-2.5000000000
20
2.5000000000
30
0.0000000000
11
2.5000000000
21
2.5000000000
31
0.0000000000
1001
DSTP_XDATA
1002
{
1000
_OWNERHANDLE=0000000064
1002
}
0
LINE
5
15F
100
AcDbEntity
8
EL_DEVICE
100
AcDbLine
10
-2.5000000000
20
-2.5000000000
30
0.0000000000
11
-2.5000000000
21
2.5000000000
31
0.0000000000
1001
DSTP_XDATA
1002
{
1000
_OWNERHANDLE=0000000064
1002
}
0
LINE
5
160
100
AcDbEntity
8
EL_DEVICE
100
AcDbLine
10
2.5000000000
20
-1.5000000000
30
0.0000000000
11
-2.5000000000
21
-1.5000000000
31
0.0000000000
1001
DSTP_XDATA
1002
{
1000
_OWNERHANDLE=0000000064
1002
}
0
ENDBLK
5
161
100
AcDbEntity
8
0
100
AcDbBlockEnd
0
BLOCK
5
162
100
AcDbEntity
8
0
100
AcDbBlockBegin
2
KIP_KNOPKA
70
2
10
0
20
0
30
0
3
KIP_KNOPKA
1

0
LINE
5
163
100
AcDbEntity
8
EL_DEVICE
100
AcDbLine
10
1.2500000000
20
1.2500000000
30
0.0000000000
11
1.2500000000
21
-1.2500000000
31
0.0000000000
1001
DSTP_XDATA
1002
{
1000
_OWNERHANDLE=0000000064
1002
}
0
LINE
5
164
100
AcDbEntity
8
EL_DEVICE
100
AcDbLine
10
-1.2500000000
20
-1.2500000000
30
0.0000000000
11
1.2500000000
21
-1.2500000000
31
0.0000000000
1001
DSTP_XDATA
1002
{
1000
_OWNERHANDLE=0000000064
1002
}
0
LINE
5
165
100
AcDbEntity
8
EL_DEVICE
100
AcDbLine
10
1.2500000000
20
1.2500000000
30
0.0000000000
11
-1.2500000000
21
1.2500000000
31
0.0000000000
1001
DSTP_XDATA
1002
{
1000
_OWNERHANDLE=0000000064
1002
}
0
LINE
5
166
100
AcDbEntity
8
EL_DEVICE
100
AcDbLine
10
-1.2500000000
20
-1.2500000000
30
0.0000000000
11
-1.2500000000
21
1.2500000000
31
0.0000000000
1001
DSTP_XDATA
1002
{
1000
_OWNERHANDLE=0000000064
1002
}
0
CIRCLE
5
167
100
AcDbEntity
8
EL_DEVICE
100
AcDbCircle
10
0.0000000000
20
0.0000000000
30
0.0000000000
40
1.0000000000
1001
DSTP_XDATA
1002
{
1000
_OWNERHANDLE=0000000064
1002
}
0
ENDBLK
5
168
100
AcDbEntity
8
0
100
AcDbBlockEnd
0
BLOCK
5
169
100
AcDbEntity
8
0
100
AcDbBlockBegin
2
KIP_UKP
70
2
10
0
20
0
30
0
3
KIP_UKP
1

0
CIRCLE
5
16A
100
AcDbEntity
8
EL_DEVICE
100
AcDbCircle
10
0.0000000000
20
0.0000000000
30
0.0000000000
40
1.0000000000
1001
DSTP_XDATA
1002
{
1000
_OWNERHANDLE=0000000064
1002
}
0
ENDBLK
5
16B
100
AcDbEntity
8
0
100
AcDbBlockEnd
0
BLOCK
5
16C
100
AcDbEntity
8
0
100
AcDbBlockBegin
2
EL_CONTACTOR
70
2
10
0
20
0
30
0
3
EL_CONTACTOR
1

0
LINE
5
16D
100
AcDbEntity
8
EL_DEVICE
100
AcDbLine
10
2.5000000000
20
-2.5000000000
30
0.0000000000
11
-2.5000000000
21
-2.5000000000
31
0.0000000000
1001
DSTP_XDATA
1002
{
1000
_OWNERHANDLE=0000000064
1002
}
0
LINE
5
16E
100
AcDbEntity
8
EL_DEVICE
100
AcDbLine
10
2.5000000000
20
2.5000000000
30
0.0000000000
11
2.5000000000
21
-2.5000000000
31
0.0000000000
1001
DSTP_XDATA
1002
{
1000
_OWNERHANDLE=0000000064
1002
}
0
LINE
5
16F
100
AcDbEntity
8
EL_DEVICE
100
AcDbLine
10
-2.5000000000
20
2.5000000000
30
0.0000000000
11
2.5000000000
21
2.5000000000
31
0.0000000000
1001
DSTP_XDATA
1002
{
1000
_OWNERHANDLE=0000000064
1002
}
0
LINE
5
170
100
AcDbEntity
8
EL_DEVICE
100
AcDbLine
10
-2.5000000000
20
-2.5000000000
30
0.0000000000
11
-2.5000000000
21
2.5000000000
31
0.0000000000
1001
DSTP_XDATA
1002
{
1000
_OWNERHANDLE=0000000064
1002
}
0
LINE
5
171
100
AcDbEntity
8
EL_DEVICE
100
AcDbLine
10
2.5000000000
20
-2.5000000000
30
0.0000000000
11
-2.5000000000
21
2.5000000000
31
0.0000000000
1001
DSTP_XDATA
1002
{
1000
_OWNERHANDLE=0000000064
1002
}
0
ENDBLK
5
172
100
AcDbEntity
8
0
100
AcDbBlockEnd
0
BLOCK
5
173
100
AcDbEntity
8
0
100
AcDbBlockBegin
2
DEVICE_EL_MOTOR
70
2
10
0
20
0
30
0
3
DEVICE_EL_MOTOR
1

0
INSERT
5
174
100
AcDbEntity
8
0
100
AcDbBlockReference
2
CONNECTOR_SQUARE
10
0.0000000000
20
0.0000000000
30
0.0000000000
41
1.0000000000
42
1.0000000000
43
1.0000000000
50
0.0000000000
1001
DSTP_XDATA
1002
{
1000
_OWNERHANDLE=0000000064
1000
_HANDLE=000443E4B8
1000
_UPGRADE=1
1002
}
0
LINE
5
175
100
AcDbEntity
8
SYS_DEVICE_BORDER
100
AcDbLine
10
7.5000000000
20
-2.5000000000
30
0.0000000000
11
-2.5000000000
21
-2.5000000000
31
0.0000000000
1001
DSTP_XDATA
1002
{
1000
_OWNERHANDLE=0000000064
1002
}
0
LINE
5
176
100
AcDbEntity
8
SYS_DEVICE_BORDER
100
AcDbLine
10
7.5000000000
20
2.5000000000
30
0.0000000000
11
7.5000000000
21
-2.5000000000
31
0.0000000000
1001
DSTP_XDATA
1002
{
1000
_OWNERHANDLE=0000000064
1002
}
0
LINE
5
177
100
AcDbEntity
8
SYS_DEVICE_BORDER
100
AcDbLine
10
-2.5000000000
20
2.5000000000
30
0.0000000000
11
7.5000000000
21
2.5000000000
31
0.0000000000
1001
DSTP_XDATA
1002
{
1000
_OWNERHANDLE=0000000064
1002
}
0
LINE
5
178
100
AcDbEntity
8
SYS_DEVICE_BORDER
100
AcDbLine
10
-2.5000000000
20
-2.5000000000
30
0.0000000000
11
-2.5000000000
21
2.5000000000
31
0.0000000000
1001
DSTP_XDATA
1002
{
1000
_OWNERHANDLE=0000000064
1002
}
0
TEXT
5
179
100
AcDbEntity
8
EL_DEVICE_NAME
100
AcDbText
11
2.5000000000
21
3.5000000000
31
0.0000000000
10
-10.9583341827
20
3.5000000000
30
0.0000000000
40
2.5000000000
50
0.0000000000
41
0.7000000000
51
12.0000000000
72
1
7
R2_5
1
!!ERR(NMO_Name)!!
100
AcDbText
73
0
1001
DSTP_XDATA
1002
{
1000
_TMPL1=@@[NMO_Name]
1000
_OWNERHANDLE=0000000064
1002
}
0
INSERT
5
17A
100
AcDbEntity
8
0
100
AcDbBlockReference
2
EL_POSITION
10
11.5000000000
20
0.0000000000
30
0.0000000000
41
1.0000000000
42
1.0000000000
43
1.0000000000
50
0.0000000000
1001
DSTP_XDATA
1002
{
1000
_OWNERHANDLE=0000000064
1000
_HANDLE=0003E456E0
1000
_UPGRADE=1
1002
}
0
ENDBLK
5
17B
100
AcDbEntity
8
0
100
AcDbBlockEnd
0
BLOCK
5
17C
100
AcDbEntity
8
0
100
AcDbBlockBegin
2
DEVICE_CONNECTOR_SQUARE
70
2
10
0
20
0
30
0
3
DEVICE_CONNECTOR_SQUARE
1

0
LINE
5
17D
100
AcDbEntity
8
SYS_METRIC
100
AcDbLine
10
-1.0000000000
20
0.0000000000
30
0.0000000000
11
1.0000000000
21
0.0000000000
31
0.0000000000
1001
DSTP_XDATA
1002
{
1000
_OWNERHANDLE=0000000064
1002
}
0
LINE
5
17E
100
AcDbEntity
8
SYS_METRIC
100
AcDbLine
10
0.0000000000
20
1.0000000000
30
0.0000000000
11
0.0000000000
21
-1.0000000000
31
0.0000000000
1001
DSTP_XDATA
1002
{
1000
_OWNERHANDLE=0000000064
1002
}
0
ENDBLK
5
17F
100
AcDbEntity
8
0
100
AcDbBlockEnd
0
BLOCK
5
180
100
AcDbEntity
8
0
100
AcDbBlockBegin
2
DEVICE_EL_POSITION
70
2
10
0
20
0
30
0
3
DEVICE_EL_POSITION
1

0
TEXT
5
181
100
AcDbEntity
8
TEXT
100
AcDbText
11
0.0000000000
21
0.5000000000
31
0.0000000000
10
-11.2916669150
20
0.5000000000
30
0.0000000000
40
2.5000000000
50
0.0000000000
41
0.7000000000
51
12.0000000000
72
1
7
R2_5
1
!!ERR(Position)!!
100
AcDbText
73
0
1001
DSTP_XDATA
1002
{
1000
_TMPL1=@@[Position]
1000
_OWNERHANDLE=0000000064
1002
}
0
TEXT
5
182
100
AcDbEntity
8
TEXT
100
AcDbText
11
0.0000000000
21
-0.5000000000
31
0.0000000000
10
-9.6666668554
20
-3.0000000000
30
0.0000000000
40
2.5000000000
50
0.0000000000
41
0.7000000000
51
12.0000000000
72
1
7
R2_5
1
!!ERR(Power)!!
100
AcDbText
73
3
1001
DSTP_XDATA
1002
{
1000
_TMPL1=@@[Power]
1000
_OWNERHANDLE=0000000064
1002
}
0
ENDBLK
5
183
100
AcDbEntity
8
0
100
AcDbBlockEnd
0
BLOCK
5
184
100
AcDbEntity
8
0
100
AcDbBlockBegin
2
DEVICE_EL_CONTACTOR
70
2
10
0
20
0
30
0
3
DEVICE_EL_CONTACTOR
1

0
INSERT
5
185
100
AcDbEntity
8
0
100
AcDbBlockReference
2
CONNECTOR_SQUARE
10
0.0000000000
20
0.0000000000
30
0.0000000000
41
1.0000000000
42
1.0000000000
43
1.0000000000
50
0.0000000000
1001
DSTP_XDATA
1002
{
1000
_OWNERHANDLE=0000000064
1000
_HANDLE=00045E05E8
1000
_UPGRADE=1
1002
}
0
LINE
5
186
100
AcDbEntity
8
SYS_DEVICE_BORDER
100
AcDbLine
10
2.5000000000
20
-2.5000000000
30
0.0000000000
11
-2.5000000000
21
-2.5000000000
31
0.0000000000
1001
DSTP_XDATA
1002
{
1000
_OWNERHANDLE=0000000064
1002
}
0
LINE
5
187
100
AcDbEntity
8
SYS_DEVICE_BORDER
100
AcDbLine
10
2.5000000000
20
2.5000000000
30
0.0000000000
11
2.5000000000
21
-2.5000000000
31
0.0000000000
1001
DSTP_XDATA
1002
{
1000
_OWNERHANDLE=0000000064
1002
}
0
LINE
5
188
100
AcDbEntity
8
SYS_DEVICE_BORDER
100
AcDbLine
10
-2.5000000000
20
2.5000000000
30
0.0000000000
11
2.5000000000
21
2.5000000000
31
0.0000000000
1001
DSTP_XDATA
1002
{
1000
_OWNERHANDLE=0000000064
1002
}
0
LINE
5
189
100
AcDbEntity
8
SYS_DEVICE_BORDER
100
AcDbLine
10
-2.5000000000
20
-2.5000000000
30
0.0000000000
11
-2.5000000000
21
2.5000000000
31
0.0000000000
1001
DSTP_XDATA
1002
{
1000
_OWNERHANDLE=0000000064
1002
}
0
TEXT
5
18A
100
AcDbEntity
8
EL_DEVICE_NAME
100
AcDbText
11
0.0000000000
21
3.5000000000
31
0.0000000000
10
-13.4583341827
20
3.5000000000
30
0.0000000000
40
2.5000000000
50
0.0000000000
41
0.7000000000
51
12.0000000000
72
1
7
R2_5
1
!!ERR(NMO_Name)!!
100
AcDbText
73
0
1001
DSTP_XDATA
1002
{
1000
_TMPL1=@@[NMO_Name]
1000
_OWNERHANDLE=0000000064
1002
}
0
ENDBLK
5
18B
100
AcDbEntity
8
0
100
AcDbBlockEnd
0
BLOCK
5
18C
100
AcDbEntity
8
0
100
AcDbBlockBegin
2
DEVICE_EL_SR
70
2
10
0
20
0
30
0
3
DEVICE_EL_SR
1

0
INSERT
5
18D
100
AcDbEntity
8
0
100
AcDbBlockReference
2
CONNECTOR_SQUARE
10
0.0000000000
20
0.0000000000
30
0.0000000000
41
1.0000000000
42
1.0000000000
43
1.0000000000
50
0.0000000000
1001
DSTP_XDATA
1002
{
1000
_OWNERHANDLE=0000000064
1000
_HANDLE=00045E36E8
1000
_UPGRADE=1
1002
}
0
LINE
5
18E
100
AcDbEntity
8
SYS_DEVICE_BORDER
100
AcDbLine
10
2.5000000000
20
-2.5000000000
30
0.0000000000
11
-2.5000000000
21
-2.5000000000
31
0.0000000000
1001
DSTP_XDATA
1002
{
1000
_OWNERHANDLE=0000000064
1002
}
0
LINE
5
18F
100
AcDbEntity
8
SYS_DEVICE_BORDER
100
AcDbLine
10
2.5000000000
20
2.5000000000
30
0.0000000000
11
2.5000000000
21
-2.5000000000
31
0.0000000000
1001
DSTP_XDATA
1002
{
1000
_OWNERHANDLE=0000000064
1002
}
0
LINE
5
190
100
AcDbEntity
8
SYS_DEVICE_BORDER
100
AcDbLine
10
-2.5000000000
20
2.5000000000
30
0.0000000000
11
2.5000000000
21
2.5000000000
31
0.0000000000
1001
DSTP_XDATA
1002
{
1000
_OWNERHANDLE=0000000064
1002
}
0
LINE
5
191
100
AcDbEntity
8
SYS_DEVICE_BORDER
100
AcDbLine
10
-2.5000000000
20
-2.5000000000
30
0.0000000000
11
-2.5000000000
21
2.5000000000
31
0.0000000000
1001
DSTP_XDATA
1002
{
1000
_OWNERHANDLE=0000000064
1002
}
0
TEXT
5
192
100
AcDbEntity
8
EL_DEVICE_NAME
100
AcDbText
11
0.0000000000
21
3.5000000000
31
0.0000000000
10
-13.4583341827
20
3.5000000000
30
0.0000000000
40
2.5000000000
50
0.0000000000
41
0.7000000000
51
12.0000000000
72
1
7
R2_5
1
!!ERR(NMO_Name)!!
100
AcDbText
73
0
1001
DSTP_XDATA
1002
{
1000
_TMPL1=@@[NMO_Name]
1000
_OWNERHANDLE=0000000064
1002
}
0
ENDBLK
5
193
100
AcDbEntity
8
0
100
AcDbBlockEnd
0
BLOCK
5
194
100
AcDbEntity
8
0
100
AcDbBlockBegin
2
EL_LIGHT_FBULB
70
2
10
0
20
0
30
0
3
EL_LIGHT_FBULB
1

0
CIRCLE
5
195
100
AcDbEntity
8
EL_DEVICE
100
AcDbCircle
10
0.0000000000
20
0.0000000000
30
0.0000000000
40
2.5000000000
1001
DSTP_XDATA
1002
{
1000
_OWNERHANDLE=0000000064
1002
}
0
ENDBLK
5
196
100
AcDbEntity
8
0
100
AcDbBlockEnd
0
BLOCK
5
197
100
AcDbEntity
8
0
100
AcDbBlockBegin
2
DEVICE_EL_LIGHT_FBULB
70
2
10
0
20
0
30
0
3
DEVICE_EL_LIGHT_FBULB
1

0
INSERT
5
198
100
AcDbEntity
8
0
100
AcDbBlockReference
2
CONNECTOR_SQUARE
10
0.0000000000
20
0.0000000000
30
0.0000000000
41
1.0000000000
42
1.0000000000
43
1.0000000000
50
0.0000000000
1001
DSTP_XDATA
1002
{
1000
_OWNERHANDLE=0000000064
1000
_HANDLE=00045E4D58
1000
_UPGRADE=1
1002
}
0
CIRCLE
5
199
100
AcDbEntity
8
SYS_DEVICE_BORDER
100
AcDbCircle
10
0.0000000000
20
0.0000000000
30
0.0000000000
40
2.5000000000
1001
DSTP_XDATA
1002
{
1000
_OWNERHANDLE=0000000064
1002
}
0
ENDBLK
5
19A
100
AcDbEntity
8
0
100
AcDbBlockEnd
0
BLOCK
5
19B
100
AcDbEntity
8
0
100
AcDbBlockBegin
2
EL_LIGHT_LBULB
70
2
10
0
20
0
30
0
3
EL_LIGHT_LBULB
1

0
LINE
5
19C
100
AcDbEntity
8
EL_DEVICE
100
AcDbLine
10
1.2500000000
20
5.0000000000
30
0.0000000000
11
1.2500000000
21
-5.0000000000
31
0.0000000000
1001
DSTP_XDATA
1002
{
1000
_OWNERHANDLE=0000000064
1002
}
0
LINE
5
19D
100
AcDbEntity
8
EL_DEVICE
100
AcDbLine
10
1.2500000000
20
-5.0000000000
30
0.0000000000
11
-1.2500000000
21
-5.0000000000
31
0.0000000000
1001
DSTP_XDATA
1002
{
1000
_OWNERHANDLE=0000000064
1002
}
0
LINE
5
19E
100
AcDbEntity
8
EL_DEVICE
100
AcDbLine
10
-1.2500000000
20
5.0000000000
30
0.0000000000
11
-1.2500000000
21
-5.0000000000
31
0.0000000000
1001
DSTP_XDATA
1002
{
1000
_OWNERHANDLE=0000000064
1002
}
0
LINE
5
19F
100
AcDbEntity
8
EL_DEVICE
100
AcDbLine
10
1.2500000000
20
5.0000000000
30
0.0000000000
11
-1.2500000000
21
5.0000000000
31
0.0000000000
1001
DSTP_XDATA
1002
{
1000
_OWNERHANDLE=0000000064
1002
}
0
ENDBLK
5
1A0
100
AcDbEntity
8
0
100
AcDbBlockEnd
0
BLOCK
5
1A1
100
AcDbEntity
8
0
100
AcDbBlockBegin
2
DEVICE_EL_LIGHT_LBULB
70
2
10
0
20
0
30
0
3
DEVICE_EL_LIGHT_LBULB
1

0
INSERT
5
1A2
100
AcDbEntity
8
0
100
AcDbBlockReference
2
CONNECTOR_SQUARE
10
0.0000000000
20
0.0000000000
30
0.0000000000
41
1.0000000000
42
1.0000000000
43
1.0000000000
50
0.0000000000
1001
DSTP_XDATA
1002
{
1000
_OWNERHANDLE=0000000064
1000
_HANDLE=00045E52E8
1000
_UPGRADE=1
1002
}
0
LINE
5
1A3
100
AcDbEntity
8
SYS_DEVICE_BORDER
100
AcDbLine
10
1.2500000000
20
5.0000000000
30
0.0000000000
11
1.2500000000
21
-5.0000000000
31
0.0000000000
1001
DSTP_XDATA
1002
{
1000
_OWNERHANDLE=0000000064
1002
}
0
LINE
5
1A4
100
AcDbEntity
8
SYS_DEVICE_BORDER
100
AcDbLine
10
1.2500000000
20
-5.0000000000
30
0.0000000000
11
-1.2500000000
21
-5.0000000000
31
0.0000000000
1001
DSTP_XDATA
1002
{
1000
_OWNERHANDLE=0000000064
1002
}
0
LINE
5
1A5
100
AcDbEntity
8
SYS_DEVICE_BORDER
100
AcDbLine
10
-1.2500000000
20
5.0000000000
30
0.0000000000
11
-1.2500000000
21
-5.0000000000
31
0.0000000000
1001
DSTP_XDATA
1002
{
1000
_OWNERHANDLE=0000000064
1002
}
0
LINE
5
1A6
100
AcDbEntity
8
SYS_DEVICE_BORDER
100
AcDbLine
10
1.2500000000
20
5.0000000000
30
0.0000000000
11
-1.2500000000
21
5.0000000000
31
0.0000000000
1001
DSTP_XDATA
1002
{
1000
_OWNERHANDLE=0000000064
1002
}
0
ENDBLK
5
1A7
100
AcDbEntity
8
0
100
AcDbBlockEnd
0
BLOCK
5
1A8
100
AcDbEntity
8
0
100
AcDbBlockBegin
2
DEVICE_KIP_KNOPKA
70
2
10
0
20
0
30
0
3
DEVICE_KIP_KNOPKA
1

0
INSERT
5
1A9
100
AcDbEntity
8
0
100
AcDbBlockReference
2
CONNECTOR_SQUARE
10
0.0000000000
20
0.0000000000
30
0.0000000000
41
1.0000000000
42
1.0000000000
43
1.0000000000
50
0.0000000000
1001
DSTP_XDATA
1002
{
1000
_OWNERHANDLE=0000000064
1000
_HANDLE=00041D2380
1000
_UPGRADE=1
1002
}
0
LINE
5
1AA
100
AcDbEntity
8
SYS_DEVICE_BORDER
100
AcDbLine
10
-1.2500000000
20
-1.2500000000
30
0.0000000000
11
-1.2500000000
21
1.2500000000
31
0.0000000000
1001
DSTP_XDATA
1002
{
1000
_OWNERHANDLE=0000000064
1002
}
0
LINE
5
1AB
100
AcDbEntity
8
SYS_DEVICE_BORDER
100
AcDbLine
10
1.2500000000
20
-1.2500000000
30
0.0000000000
11
1.2500000000
21
1.2500000000
31
0.0000000000
1001
DSTP_XDATA
1002
{
1000
_OWNERHANDLE=0000000064
1002
}
0
LINE
5
1AC
100
AcDbEntity
8
SYS_DEVICE_BORDER
100
AcDbLine
10
-1.2500000000
20
1.2500000000
30
0.0000000000
11
1.2500000000
21
1.2500000000
31
0.0000000000
1001
DSTP_XDATA
1002
{
1000
_OWNERHANDLE=0000000064
1002
}
0
LINE
5
1AD
100
AcDbEntity
8
SYS_DEVICE_BORDER
100
AcDbLine
10
-1.2500000000
20
-1.2500000000
30
0.0000000000
11
1.2500000000
21
-1.2500000000
31
0.0000000000
1001
DSTP_XDATA
1002
{
1000
_OWNERHANDLE=0000000064
1002
}
0
TEXT
5
1AE
100
AcDbEntity
8
SYS_METRIC
100
AcDbText
11
0.0000000000
21
2.2500000000
31
0.0000000000
10
-13.4583341827
20
2.2500000000
30
0.0000000000
40
2.5000000000
50
0.0000000000
41
0.7000000000
51
12.0000000000
72
1
7
R2_5
1
!!ERR(NMO_Name)!!
100
AcDbText
73
0
1001
DSTP_XDATA
1002
{
1000
_TMPL1=@@[NMO_Name]
1000
_OWNERHANDLE=0000000064
1002
}
0
ENDBLK
5
1AF
100
AcDbEntity
8
0
100
AcDbBlockEnd
0
BLOCK
5
1B0
100
AcDbEntity
8
0
100
AcDbBlockBegin
2
EM_PSRS_HEAD
70
2
10
0
20
0
30
0
3
EM_PSRS_HEAD
1

0
MTEXT
5
1B1
100
AcDbEntity
8
FORMAT
100
AcDbMText
10
-35.0000000000
20
75.0000000000
30
0.0000000000
40
3.0000000000
41
68.0000000000
71
5
1
Данные питающей сети
7
R2_5
11
1.0000000000
21
0.0000000000
31
0.0000000000
44
1.0000000000
1001
DSTP_XDATA
1002
{
1000
_OWNERHANDLE=0000000064
1002
}
0
LINE
5
1B2
100
AcDbEntity
8
TABLE
100
AcDbLine
10
-70.0000000000
20
80.0000000000
30
0.0000000000
11
-70.0000000000
21
-205.0000000000
31
0.0000000000
1001
DSTP_XDATA
1002
{
1000
_OWNERHANDLE=0000000064
1002
}
0
LINE
5
1B3
100
AcDbEntity
8
TABLE
100
AcDbLine
10
0.0000000000
20
80.0000000000
30
0.0000000000
11
0.0000000000
21
-207.0000000000
31
0.0000000000
1001
DSTP_XDATA
1002
{
1000
_OWNERHANDLE=0000000064
1002
}
0
LINE
5
1B4
100
AcDbEntity
8
TABLE
100
AcDbLine
10
-70.0000000000
20
80.0000000000
30
0.0000000000
11
0.0000000000
21
80.0000000000
31
0.0000000000
1001
DSTP_XDATA
1002
{
1000
_OWNERHANDLE=0000000064
1002
}
0
LINE
5
1B5
100
AcDbEntity
8
TABLE
100
AcDbLine
10
-70.0000000000
20
0.0000000000
30
0.0000000000
11
0.0000000000
21
0.0000000000
31
0.0000000000
1001
DSTP_XDATA
1002
{
1000
_OWNERHANDLE=0000000064
1002
}
0
LINE
5
1B6
100
AcDbEntity
8
TABLE
100
AcDbLine
10
-70.0000000000
20
70.0000000000
30
0.0000000000
11
0.0000000000
21
70.0000000000
31
0.0000000000
1001
DSTP_XDATA
1002
{
1000
_OWNERHANDLE=0000000064
1002
}
0
LINE
5
1B7
100
AcDbEntity
8
TABLE
100
AcDbLine
10
-54.0000000000
20
48.0000000000
30
0.0000000000
11
0.0000000000
21
48.0000000000
31
0.0000000000
1001
DSTP_XDATA
1002
{
1000
_OWNERHANDLE=0000000064
1002
}
0
LINE
5
1B8
100
AcDbEntity
8
TABLE
100
AcDbLine
10
-70.0000000000
20
26.0000000000
30
0.0000000000
11
0.0000000000
21
26.0000000000
31
0.0000000000
1001
DSTP_XDATA
1002
{
1000
_OWNERHANDLE=0000000064
1002
}
0
LINE
5
1B9
100
AcDbEntity
8
TABLE
100
AcDbLine
10
-54.0000000000
20
70.0000000000
30
0.0000000000
11
-54.0000000000
21
0.0000000000
31
0.0000000000
1001
DSTP_XDATA
1002
{
1000
_OWNERHANDLE=0000000064
1002
}
0
MTEXT
5
1BA
100
AcDbEntity
8
FORMAT
100
AcDbMText
10
-27.0000000000
20
59.0000000000
30
0.0000000000
40
3.0000000000
41
52.0000000000
71
5
1
Аппарат на вводе\Pтип,\PIном. А\PРасцепитель, А
7
R2_5
11
1.0000000000
21
0.0000000000
31
0.0000000000
44
1.0000000000
1001
DSTP_XDATA
1002
{
1000
_OWNERHANDLE=0000000064
1002
}
0
MTEXT
5
1BB
100
AcDbEntity
8
FORMAT
100
AcDbMText
10
-27.0000000000
20
37.0000000000
30
0.0000000000
40
3.0000000000
41
52.0000000000
71
5
1
Обозначение, тип\PНапряжение,\PР уст. кВт\PI расч. А
7
R2_5
11
1.0000000000
21
0.0000000000
31
0.0000000000
44
1.0000000000
1001
DSTP_XDATA
1002
{
1000
_OWNERHANDLE=0000000064
1002
}
0
MTEXT
5
1BC
100
AcDbEntity
8
FORMAT
100
AcDbMText
10
-27.0000000000
20
13.0000000000
30
0.0000000000
40
3.0000000000
41
52.0000000000
71
5
1
Тип,\PI ном. А\Pрасцепитель или\Pплавкая вставка, А
7
R2_5
11
1.0000000000
21
0.0000000000
31
0.0000000000
44
1.0000000000
1001
DSTP_XDATA
1002
{
1000
_OWNERHANDLE=0000000064
1002
}
0
MTEXT
5
1BD
100
AcDbEntity
8
FORMAT
100
AcDbMText
10
-62.0000000000
20
48.0000000000
30
0.0000000000
40
3.0000000000
41
42.0000000000
71
5
1
Шинопровод распределительный пункт
7
R2_5
11
0.0000000000
21
1.0000000000
31
0.0000000000
44
1.0000000000
1001
DSTP_XDATA
1002
{
1000
_OWNERHANDLE=0000000064
1002
}
0
MTEXT
5
1BE
100
AcDbEntity
8
FORMAT
100
AcDbMText
10
-62.0000000000
20
13.0000000000
30
0.0000000000
40
3.0000000000
41
24.0000000000
71
5
1
Аппарат отходящей линии
7
R2_5
11
0.0000000000
21
1.0000000000
31
0.0000000000
44
1.0000000000
1001
DSTP_XDATA
1002
{
1000
_OWNERHANDLE=0000000064
1002
}
0
LINE
5
1BF
100
AcDbEntity
8
TABLE
100
AcDbLine
10
-70.0000000000
20
-40.0000000000
30
0.0000000000
11
0.0000000000
21
-40.0000000000
31
0.0000000000
1001
DSTP_XDATA
1002
{
1000
_OWNERHANDLE=0000000064
1002
}
0
LINE
5
1C0
100
AcDbEntity
8
TABLE
100
AcDbLine
10
-70.0000000000
20
-75.0000000000
30
0.0000000000
11
0.0000000000
21
-75.0000000000
31
0.0000000000
1001
DSTP_XDATA
1002
{
1000
_OWNERHANDLE=0000000064
1002
}
0
LINE
5
1C1
100
AcDbEntity
8
TABLE
100
AcDbLine
10
-50.0000000000
20
0.0000000000
30
0.0000000000
11
-50.0000000000
21
-40.0000000000
31
0.0000000000
1001
DSTP_XDATA
1002
{
1000
_OWNERHANDLE=0000000064
1002
}
0
MTEXT
5
1C2
100
AcDbEntity
8
FORMAT
100
AcDbMText
10
-60.0000000000
20
-20.0000000000
30
0.0000000000
40
3.0000000000
41
38.0000000000
71
5
1
Марка и сечение\Pпроводника
7
R2_5
11
0.0000000000
21
1.0000000000
31
0.0000000000
44
1.0000000000
1001
DSTP_XDATA
1002
{
1000
_OWNERHANDLE=0000000064
1002
}
0
MTEXT
5
1C3
100
AcDbEntity
8
FORMAT
100
AcDbMText
10
-25.0000000000
20
-20.0000000000
30
0.0000000000
40
3.0000000000
41
38.0000000000
71
5
1
Обозначение\Pучастка сети,\Pдлина, м\PОбозначение\Pтрубы на плане\Pпо стандарту,\Pдлина, м
7
R2_5
11
0.0000000000
21
1.0000000000
31
0.0000000000
44
1.0000000000
1001
DSTP_XDATA
1002
{
1000
_OWNERHANDLE=0000000064
1002
}
0
LINE
5
1C4
100
AcDbEntity
8
TABLE
100
AcDbLine
10
-54.0000000000
20
-40.0000000000
30
0.0000000000
11
-54.0000000000
21
-75.0000000000
31
0.0000000000
1001
DSTP_XDATA
1002
{
1000
_OWNERHANDLE=0000000064
1002
}
0
MTEXT
5
1C5
100
AcDbEntity
8
FORMAT
100
AcDbMText
10
-27.0000000000
20
-57.5000000000
30
0.0000000000
40
3.0000000000
41
52.0000000000
71
5
1
Обозначение,\PТип, I ном. А\PРасцепитель,\Pустановка теплового\Pреле, А
7
R2_5
11
1.0000000000
21
0.0000000000
31
0.0000000000
44
1.0000000000
1001
DSTP_XDATA
1002
{
1000
_OWNERHANDLE=0000000064
1002
}
0
MTEXT
5
1C6
100
AcDbEntity
8
FORMAT
100
AcDbMText
10
-62.0000000000
20
-57.5000000000
30
0.0000000000
40
3.0000000000
41
24.0000000000
71
5
1
Пусковой аппарат
7
R2_5
11
0.0000000000
21
1.0000000000
31
0.0000000000
44
1.0000000000
1001
DSTP_XDATA
1002
{
1000
_OWNERHANDLE=0000000064
1002
}
0
LINE
5
1C7
100
AcDbEntity
8
TABLE
100
AcDbLine
10
-70.0000000000
20
-115.0000000000
30
0.0000000000
11
0.0000000000
21
-115.0000000000
31
0.0000000000
1001
DSTP_XDATA
1002
{
1000
_OWNERHANDLE=0000000064
1002
}
0
LINE
5
1C8
100
AcDbEntity
8
TABLE
100
AcDbLine
10
-50.0000000000
20
-75.0000000000
30
0.0000000000
11
-50.0000000000
21
-115.0000000000
31
0.0000000000
1001
DSTP_XDATA
1002
{
1000
_OWNERHANDLE=0000000064
1002
}
0
MTEXT
5
1C9
100
AcDbEntity
8
FORMAT
100
AcDbMText
10
-60.0000000000
20
-95.0000000000
30
0.0000000000
40
3.0000000000
41
38.0000000000
71
5
1
Марка и сечение\Pпроводника
7
R2_5
11
0.0000000000
21
1.0000000000
31
0.0000000000
44
1.0000000000
1001
DSTP_XDATA
1002
{
1000
_OWNERHANDLE=0000000064
1002
}
0
MTEXT
5
1CA
100
AcDbEntity
8
FORMAT
100
AcDbMText
10
-25.0000000000
20
-95.0000000000
30
0.0000000000
40
3.0000000000
41
38.0000000000
71
5
1
Обозначение\Pучастка сети,\Pдлина, м\PОбозначение\Pтрубы на плане\Pпо стандарту,\Pдлина, м
7
R2_5
11
0.0000000000
21
1.0000000000
31
0.0000000000
44
1.0000000000
1001
DSTP_XDATA
1002
{
1000
_OWNERHANDLE=0000000064
1002
}
0
LINE
5
1CB
100
AcDbEntity
8
TABLE
100
AcDbLine
10
-62.0000000000
20
-128.0000000000
30
0.0000000000
11
0.0000000000
21
-128.0000000000
31
0.0000000000
1001
DSTP_XDATA
1002
{
1000
_OWNERHANDLE=0000000064
1002
}
0
MTEXT
5
1CC
100
AcDbEntity
8
FORMAT
100
AcDbMText
10
-31.0000000000
20
-121.5000000000
30
0.0000000000
40
3.0000000000
41
60.0000000000
71
5
1
Условное обозначение
7
R2_5
11
1.0000000000
21
0.0000000000
31
0.0000000000
44
1.0000000000
1001
DSTP_XDATA
1002
{
1000
_OWNERHANDLE=0000000064
1002
}
0
LINE
5
1CD
100
AcDbEntity
8
TABLE
100
AcDbLine
10
-62.0000000000
20
-115.0000000000
30
0.0000000000
11
-62.0000000000
21
-194.0000000000
31
0.0000000000
1001
DSTP_XDATA
1002
{
1000
_OWNERHANDLE=0000000064
1002
}
0
LINE
5
1CE
100
AcDbEntity
8
TABLE
100
AcDbLine
10
-62.0000000000
20
-136.0000000000
30
0.0000000000
11
0.0000000000
21
-136.0000000000
31
0.0000000000
1001
DSTP_XDATA
1002
{
1000
_OWNERHANDLE=0000000064
1002
}
0
LINE
5
1CF
100
AcDbEntity
8
TABLE
100
AcDbLine
10
-62.0000000000
20
-145.9676919101
30
0.0000000000
11
0.0000000000
21
-145.9676919101
31
0.0000000000
1001
DSTP_XDATA
1002
{
1000
_OWNERHANDLE=0000000064
1002
}
0
LINE
5
1D0
100
AcDbEntity
8
TABLE
100
AcDbLine
10
-42.0000000000
20
-150.9676919101
30
0.0000000000
11
0.0000000000
21
-150.9676919101
31
0.0000000000
1001
DSTP_XDATA
1002
{
1000
_OWNERHANDLE=0000000064
1002
}
0
LINE
5
1D1
100
AcDbEntity
8
TABLE
100
AcDbLine
10
-62.0000000000
20
-155.9676919101
30
0.0000000000
11
0.0000000000
21
-155.9676919101
31
0.0000000000
1001
DSTP_XDATA
1002
{
1000
_OWNERHANDLE=0000000064
1002
}
0
LINE
5
1D2
100
AcDbEntity
8
TABLE
100
AcDbLine
10
-42.0000000000
20
-145.9676919101
30
0.0000000000
11
-42.0000000000
21
-155.9676919101
31
0.0000000000
1001
DSTP_XDATA
1002
{
1000
_OWNERHANDLE=0000000064
1002
}
0
LINE
5
1D3
100
AcDbEntity
8
TABLE
100
AcDbLine
10
-70.0000000000
20
-194.0000000000
30
0.0000000000
11
0.0000000000
21
-194.0000000000
31
0.0000000000
1001
DSTP_XDATA
1002
{
1000
_OWNERHANDLE=0000000064
1002
}
0
MTEXT
5
1D4
100
AcDbEntity
8
FORMAT
100
AcDbMText
10
-66.0000000000
20
-154.5000000000
30
0.0000000000
40
3.0000000000
41
77.0000000000
71
5
1
Электроприемник
7
R2_5
11
0.0000000000
21
1.0000000000
31
0.0000000000
44
1.0000000000
1001
DSTP_XDATA
1002
{
1000
_OWNERHANDLE=0000000064
1002
}
0
MTEXT
5
1D5
100
AcDbEntity
8
FORMAT
100
AcDbMText
10
-31.0000000000
20
-132.0000000000
30
0.0000000000
40
3.0000000000
41
60.0000000000
71
5
1
Номер по плану
7
R2_5
11
1.0000000000
21
0.0000000000
31
0.0000000000
44
1.0000000000
1001
DSTP_XDATA
1002
{
1000
_OWNERHANDLE=0000000064
1002
}
0
MTEXT
5
1D6
100
AcDbEntity
8
FORMAT
100
AcDbMText
10
-35.0000000000
20
-200.5000000000
30
0.0000000000
40
3.0000000000
41
68.0000000000
71
5
1
Обозначение чертежа\Pпринципиальной схемы
7
R2_5
11
1.0000000000
21
0.0000000000
31
0.0000000000
44
1.0000000000
1001
DSTP_XDATA
1002
{
1000
_OWNERHANDLE=0000000064
1002
}
0
MTEXT
5
1D7
100
AcDbEntity
8
FORMAT
100
AcDbMText
10
-31.0000000000
20
-174.9838459550
30
0.0000000000
40
3.0000000000
41
60.0000000000
71
5
1
Наименование\Pмеханизма
7
R2_5
11
1.0000000000
21
0.0000000000
31
0.0000000000
44
1.0000000000
1001
DSTP_XDATA
1002
{
1000
_OWNERHANDLE=0000000064
1002
}
0
MTEXT
5
1D8
100
AcDbEntity
8
FORMAT
100
AcDbMText
10
-21.1739107797
20
-153.4676919101
30
0.0000000000
40
3.0000000000
41
40.0000000000
71
5
1
I пуск.
7
R2_5
11
1.0000000000
21
0.0000000000
31
0.0000000000
44
1.0000000000
1001
DSTP_XDATA
1002
{
1000
_OWNERHANDLE=0000000064
1002
}
0
MTEXT
5
1D9
100
AcDbEntity
8
FORMAT
100
AcDbMText
10
-21.0000000000
20
-148.4676919101
30
0.0000000000
40
3.0000000000
41
40.0000000000
71
5
1
I ном.
7
R2_5
11
1.0000000000
21
0.0000000000
31
0.0000000000
44
1.0000000000
1001
DSTP_XDATA
1002
{
1000
_OWNERHANDLE=0000000064
1002
}
0
MTEXT
5
1DA
100
AcDbEntity
8
FORMAT
100
AcDbMText
10
-30.0785732747
20
-143.4256913931
30
0.0000000000
40
3.0000000000
41
60.0000000000
71
5
1
Р ном. кВт
7
R2_5
11
1.0000000000
21
0.0000000000
31
0.0000000000
44
1.0000000000
1001
DSTP_XDATA
1002
{
1000
_OWNERHANDLE=0000000064
1002
}
0
MTEXT
5
1DB
100
AcDbEntity
8
FORMAT
100
AcDbMText
10
-51.7996898423
20
-150.9676919101
30
0.0000000000
40
3.0000000000
41
17.5993796847
71
5
1
Ток, А
7
R2_5
11
1.0000000000
21
0.0000000000
31
0.0000000000
44
1.0000000000
1001
DSTP_XDATA
1002
{
1000
_OWNERHANDLE=0000000064
1002
}
0
LINE
5
1DC
100
AcDbEntity
8
TABLE
100
AcDbLine
10
-62.0000000000
20
-141.0000000000
30
0.0000000000
11
0.0000000000
21
-141.0000000000
31
0.0000000000
1001
DSTP_XDATA
1002
{
1000
_OWNERHANDLE=0000000064
1002
}
0
MTEXT
5
1DD
100
AcDbEntity
8
FORMAT
100
AcDbMText
10
-30.0785732747
20
-138.4579994831
30
0.0000000000
40
3.0000000000
41
60.0000000000
71
5
1
Тип
7
R2_5
11
1.0000000000
21
0.0000000000
31
0.0000000000
44
1.0000000000
1001
DSTP_XDATA
1002
{
1000
_OWNERHANDLE=0000000064
1002
}
0
LINE
5
1DE
100
AcDbEntity
8
TABLE
100
AcDbLine
10
-70.0000000000
20
-207.0000000000
30
0.0000000000
11
0.0000000000
21
-207.0000000000
31
0.0000000000
1001
DSTP_XDATA
1002
{
1000
_OWNERHANDLE=0000000064
1002
}
0
ENDBLK
5
1DF
100
AcDbEntity
8
0
100
AcDbBlockEnd
0
ENDSEC
0
SECTION
2
ENTITIES
0
LINE
5
1E0
100
AcDbEntity
8
SYS_METRIC
100
AcDbLine
10
127.6726219451
20
120.1986840303
30
0.0000000000
11
129.6726219451
21
120.1986840303
31
0.0000000000
1001
DSTP_XDATA
1002
{
1000
_OWNERHANDLE=0000000064
1002
}
0
LINE
5
1E1
100
AcDbEntity
8
SYS_METRIC
100
AcDbLine
10
128.6726219451
20
121.1986840303
30
0.0000000000
11
128.6726219451
21
119.1986840303
31
0.0000000000
1001
DSTP_XDATA
1002
{
1000
_OWNERHANDLE=0000000064
1002
}
0
LINE
5
1E2
100
AcDbEntity
8
SYS_DEVICE_BORDER
100
AcDbLine
10
126.0826219451
20
122.2186840303
30
0.0000000000
11
131.2626219451
21
122.2186840303
31
0.0000000000
1001
DSTP_XDATA
1002
{
1000
_OWNERHANDLE=0000000064
1002
}
0
LINE
5
1E3
100
AcDbEntity
8
SYS_DEVICE_BORDER
100
AcDbLine
10
126.7726219451
20
118.1786840303
30
0.0000000000
11
126.0826219451
21
122.2186840303
31
0.0000000000
1001
DSTP_XDATA
1002
{
1000
_OWNERHANDLE=0000000064
1002
}
0
LINE
5
1E4
100
AcDbEntity
8
SYS_DEVICE_BORDER
100
AcDbLine
10
130.5726219451
20
118.1786840303
30
0.0000000000
11
131.2626219451
21
122.2186840303
31
0.0000000000
1001
DSTP_XDATA
1002
{
1000
_OWNERHANDLE=0000000064
1002
}
0
LINE
5
1E5
100
AcDbEntity
8
SYS_DEVICE_BORDER
100
AcDbLine
10
126.7726219451
20
118.1786840303
30
0.0000000000
11
130.5726219451
21
118.1786840303
31
0.0000000000
1001
DSTP_XDATA
1002
{
1000
_OWNERHANDLE=0000000064
1002
}
0
LINE
5
1E6
100
AcDbEntity
8
SYS_METRIC
100
AcDbLine
10
328.6594147853
20
146.7200681129
30
0.0000000000
11
328.6594147853
21
144.7200681129
31
0.0000000000
1001
DSTP_XDATA
1002
{
1000
_OWNERHANDLE=0000000064
1002
}
0
LINE
5
1E7
100
AcDbEntity
8
0
100
AcDbLine
10
17.0895688217
20
18.8305707344
30
0.0000000000
11
7.4131181628
21
24.6890933096
31
0.0000000000
1001
DSTP_XDATA
1002
{
1000
_UPGRADE=1
1002
}
0
LINE
5
1E8
100
AcDbEntity
8
0
100
AcDbLine
10
17.0895688217
20
18.8305707344
30
0.0000000000
11
17.0895688217
21
18.8305707344
31
0.0000000000
1001
DSTP_XDATA
1002
{
1000
_OWNERHANDLE=000000006E
1002
}
0
MTEXT
5
1E9
100
AcDbEntity
8
0
100
AcDbMText
10
2.4131181628
20
31.6890933096
30
0.0000000000
40
2.5000000000
41
0.0000000000
71
2
1
ШР4-1
7
R2_5
11
1.0000000000
21
0.0000000000
31
0.0000000000
44
0.9600000000
1001
DSTP_XDATA
1002
{
1000
_OWNERHANDLE=000000006E
1002
}
0
MTEXT
5
1EA
100
AcDbEntity
8
0
100
AcDbMText
10
2.4131181628
20
27.6890933096
30
0.0000000000
40
2.5000000000
41
0.0000000000
71
2
1
ШР4-2
7
R2_5
11
1.0000000000
21
0.0000000000
31
0.0000000000
44
0.9600000000
1001
DSTP_XDATA
1002
{
1000
_OWNERHANDLE=000000006E
1002
}
0
LINE
5
1EB
100
AcDbEntity
8
0
100
AcDbLine
10
-2.5868818372
20
32.6890933096
30
0.0000000000
11
7.4131181628
21
32.6890933096
31
0.0000000000
1001
DSTP_XDATA
1002
{
1000
_OWNERHANDLE=000000006E
1002
}
0
LINE
5
1EC
100
AcDbEntity
8
0
100
AcDbLine
10
-2.5868818372
20
28.6890933096
30
0.0000000000
11
7.4131181628
21
28.6890933096
31
0.0000000000
1001
DSTP_XDATA
1002
{
1000
_OWNERHANDLE=000000006E
1002
}
0
LINE
5
1ED
100
AcDbEntity
8
0
100
AcDbLine
10
-2.5868818372
20
24.6890933096
30
0.0000000000
11
7.4131181628
21
24.6890933096
31
0.0000000000
1001
DSTP_XDATA
1002
{
1000
_OWNERHANDLE=000000006E
1002
}
0
LINE
5
1EE
100
AcDbEntity
8
0
100
AcDbLine
10
-2.5868818372
20
32.6890933096
30
0.0000000000
11
-2.5868818372
21
24.6890933096
31
0.0000000000
1001
DSTP_XDATA
1002
{
1000
_OWNERHANDLE=000000006E
1002
}
0
LINE
5
1EF
100
AcDbEntity
8
0
100
AcDbLine
10
7.4131181628
20
32.6890933096
30
0.0000000000
11
7.4131181628
21
24.6890933096
31
0.0000000000
1001
DSTP_XDATA
1002
{
1000
_OWNERHANDLE=000000006E
1002
}
0
MTEXT
5
1F0
100
AcDbEntity
8
0
100
AcDbMText
10
7.4131181628
20
34.1890933096
30
0.0000000000
40
2.5000000000
41
0.0000000000
71
9
1
ШР4
7
R2_5
11
1.0000000000
21
0.0000000000
31
0.0000000000
44
0.0000000000
1001
DSTP_XDATA
1002
{
1000
_OWNERHANDLE=000000006E
1002
}
0
LINE
5
1F1
100
AcDbEntity
8
0
100
AcDbLine
10
7.4131181628
20
33.6890933096
30
0.0000000000
11
7.4131181628
21
32.6890933096
31
0.0000000000
1001
DSTP_XDATA
1002
{
1000
_OWNERHANDLE=000000006E
1002
}
0
LINE
5
1F2
100
AcDbEntity
8
0
100
AcDbLine
10
7.4131181628
20
33.6890933096
30
0.0000000000
11
1.6631182274
21
33.6890933096
31
0.0000000000
1001
DSTP_XDATA
1002
{
1000
_OWNERHANDLE=000000006E
1002
}
0
INSERT
5
1F3
100
AcDbEntity
8
0
100
AcDbBlockReference
2
EL_SR
10
18.6110418714
20
17.8317538672
30
0.0000000000
41
1.0000000000
42
1.0000000000
43
1.0000000000
50
0.0000000000
1001
DSTP_XDATA
1002
{
1000
USES=System
1000
USES=devices
1000
#0=Device_Type|TDeviceType|TDT_SilaIst|Тип устройства
1000
#1=Device_Class|TDeviceClass|TDC_Shell|Класс устройства
1000
#2=Device_Group|TDeviceGroup|TDG_ElDevice|Группа устройства
1000
#3=BTY_TreeCoord|GDBString|PLAN_EM_Распред устройство|Позиция в дереве
1000
#4=NMO_Template|GDBString|@@[NMO_BaseName]@@[NameNumber]|Шаблон Обозначения
1000
#5=NMO_Name|GDBString|ШР4|Обозначение
1000
#6=NMO_BaseName|GDBString|ШР|Короткое Имя
1000
#7=NameNumber|GDBInteger|4|Номер
1000
#8=Power|GDBDouble|1.0|Мощность расчетная, кВт
1000
#9=PowerUst|GDBDouble|0.0|Мощность установленная, кВт
1000
#10=Current|GDBDouble|0.0|Ток расчетный, А
1000
#11=CurrentUst|GDBDouble|0.0|Ток установленный, А
1000
#12=CosPHI|GDBDouble|0.7|Cos(фи)
1000
#13=Voltage|TVoltage|_AC_380V_50Hz|Напряжение питания
1000
#14=Phase|TPhase|_ABC|Фаза
1000
#15=DB_link|GDBString|El_Шкаф распределительный|Материал
1000
#16=AmountI|GDBInteger|1|Количество
1000
#17=GC_HeadDevice|GDBString|ARK??|
1000
#18=GC_HDShortName|GDBString|??|
1000
#19=GC_HDGroup|GDBInteger|0|
1000
#20=SerialConnection|GDBInteger|1|
1000
#21=GC_NumberInGroup|GDBInteger|0|Номер в группе
1000
#22=EL_Cab_AddLength|GDBDouble|0.1|Добавлять к длине кабеля
1000
_OWNERHANDLE=0000000064
1000
_HANDLE=0004628170
1000
_UPGRADE=1
1002
}
0
INSERT
5
1F4
100
AcDbEntity
8
0
100
AcDbBlockReference
2
CONNECTOR_SQUARE
10
18.6110418714
20
17.8317538672
30
0.0000000000
41
1.0000000000
42
1.0000000000
43
1.0000000000
50
0.0000000000
1001
DSTP_XDATA
1002
{
1000
USES=System
1000
USES=connectors
1000
USES=devices
1000
#0=DeviceClass|TDeviceClass|TDC_Unknown|Класс устройства
1000
#1=Connector_Type|TConnectorType|TCT_ElCable|Тип соединения
1000
#2=Border_Type|TConnectorBorderType|TCBT_Owner|Граница подрезки
1000
#3=Connector_Name|GDBString||Имя соединения
1000
#4=Connector_Junction|GDBBoolean|False|Возможность ответвления
1000
#5=LENGTH_Add|GDBDouble|0.0|Добавить к длине
1000
_OWNERHANDLE=0004628170
1000
_HANDLE=0004652300
1000
_UPGRADE=1
1002
}
0
LINE
5
1F5
100
AcDbEntity
8
SYS_METRIC
100
AcDbLine
10
17.6110418714
20
17.8317538672
30
0.0000000000
11
19.6110418714
21
17.8317538672
31
0.0000000000
1001
DSTP_XDATA
1002
{
1000
_OWNERHANDLE=0004652300
1002
}
0
LINE
5
1F6
100
AcDbEntity
8
SYS_METRIC
100
AcDbLine
10
18.6110418714
20
18.8317538672
30
0.0000000000
11
18.6110418714
21
16.8317538672
31
0.0000000000
1001
DSTP_XDATA
1002
{
1000
_OWNERHANDLE=0004652300
1002
}
0
LINE
5
1F7
100
AcDbEntity
8
SYS_DEVICE_BORDER
100
AcDbLine
10
21.1110418714
20
15.3317538672
30
0.0000000000
11
16.1110418714
21
15.3317538672
31
0.0000000000
1001
DSTP_XDATA
1002
{
1000
_OWNERHANDLE=0004628170
1002
}
0
LINE
5
1F8
100
AcDbEntity
8
SYS_DEVICE_BORDER
100
AcDbLine
10
21.1110418714
20
20.3317538672
30
0.0000000000
11
21.1110418714
21
15.3317538672
31
0.0000000000
1001
DSTP_XDATA
1002
{
1000
_OWNERHANDLE=0004628170
1002
}
0
LINE
5
1F9
100
AcDbEntity
8
SYS_DEVICE_BORDER
100
AcDbLine
10
16.1110418714
20
20.3317538672
30
0.0000000000
11
21.1110418714
21
20.3317538672
31
0.0000000000
1001
DSTP_XDATA
1002
{
1000
_OWNERHANDLE=0004628170
1002
}
0
LINE
5
1FA
100
AcDbEntity
8
SYS_DEVICE_BORDER
100
AcDbLine
10
16.1110418714
20
15.3317538672
30
0.0000000000
11
16.1110418714
21
20.3317538672
31
0.0000000000
1001
DSTP_XDATA
1002
{
1000
_OWNERHANDLE=0004628170
1002
}
0
TEXT
5
1FB
100
AcDbEntity
8
EL_DEVICE_NAME
100
AcDbText
11
18.6110418714
21
21.3317538672
31
0.0000000000
10
15.7360419037
20
21.3317538672
30
0.0000000000
40
2.5000000000
50
0.0000000000
41
0.7000000000
51
12.0000000000
72
1
7
R2_5
1
ШР4
100
AcDbText
73
0
1001
DSTP_XDATA
1002
{
1000
_TMPL1=@@[NMO_Name]
1000
_OWNERHANDLE=0004628170
1002
}
0
INSERT
5
1FC
100
AcDbEntity
8
0
100
AcDbBlockReference
2
EL_MOTOR
10
-78.5966832034
20
1.6061419287
30
0.0000000000
41
1.0000000000
42
1.0000000000
43
1.0000000000
50
0.0000000000
1001
DSTP_XDATA
1002
{
1000
USES=System
1000
USES=devices
1000
#0=Device_Type|TDeviceType|TDT_SilaPotr|Тип устройства
1000
#1=Device_Class|TDeviceClass|TDC_Shell|Класс устройства
1000
#2=Device_Group|TDeviceGroup|TDG_ElDevice|Группа устройства
1000
#3=BTY_TreeCoord|GDBString|PLAN_EM_Двигатель|Позиция в дереве
1000
#4=NMO_Template|GDBString|@@[NMO_BaseName]@@[NameNumber].1|Шаблон Обозначения
1000
#5=NMO_Name|GDBString|В1.1|Обозначение
1000
#6=NMO_BaseName|GDBString|В|Короткое Имя
1000
#7=NameNumber|GDBInteger|1|Номер
1000
#8=Position|GDBInteger|1|Позиция по заданию ТХ
1000
#9=CalcIP|TCalcIP|_I_from_P|Способ расчета
1000
#10=Power|GDBDouble|1.0|Мощность, кВт
1000
#11=Current|GDBDouble|2.17306271458994|Ток, А
1000
#12=CosPHI|GDBDouble|0.7|Cos(фи)
1000
#13=Ks|GDBDouble|1.0|Коэффициент спроса
1000
#14=PV|GDBDouble|1.0|Продолжительность включения
1000
#15=Voltage|TVoltage|_AC_380V_50Hz|Напряжение питания
1000
#16=Phase|TPhase|_ABC|Фаза
1000
#17=DB_link|GDBString|El_Motor|Материал
1000
#18=AmountI|GDBInteger|1|Количество
1000
#19=GC_HeadDevice|GDBString|ARK??|
1000
#20=GC_HDShortName|GDBString|??|
1000
#21=GC_HDGroup|GDBInteger|0|
1000
#22=SerialConnection|GDBInteger|1|
1000
#23=GC_NumberInGroup|GDBInteger|0|Номер в группе
1000
#24=EL_Cab_AddLength|GDBDouble|0.1|Добавлять к длине кабеля
1000
_OWNERHANDLE=0000000064
1000
_HANDLE=0004647A90
1000
_UPGRADE=1
1002
}
0
INSERT
5
1FD
100
AcDbEntity
8
0
100
AcDbBlockReference
2
CONNECTOR_SQUARE
10
-78.5966832034
20
1.6061419287
30
0.0000000000
41
1.0000000000
42
1.0000000000
43
1.0000000000
50
0.0000000000
1001
DSTP_XDATA
1002
{
1000
USES=System
1000
USES=connectors
1000
USES=devices
1000
#0=DeviceClass|TDeviceClass|TDC_Unknown|Класс устройства
1000
#1=Connector_Type|TConnectorType|TCT_ElCable|Тип соединения
1000
#2=Border_Type|TConnectorBorderType|TCBT_Owner|Граница подрезки
1000
#3=Connector_Name|GDBString||Имя соединения
1000
#4=Connector_Junction|GDBBoolean|False|Возможность ответвления
1000
#5=LENGTH_Add|GDBDouble|0.0|Добавить к длине
1000
_OWNERHANDLE=0004647A90
1000
_HANDLE=0007BB89B0
1000
_UPGRADE=1
1002
}
0
LINE
5
1FE
100
AcDbEntity
8
SYS_METRIC
100
AcDbLine
10
-79.5966832034
20
1.6061419287
30
0.0000000000
11
-77.5966832034
21
1.6061419287
31
0.0000000000
1001
DSTP_XDATA
1002
{
1000
_OWNERHANDLE=0007BB89B0
1002
}
0
LINE
5
1FF
100
AcDbEntity
8
SYS_METRIC
100
AcDbLine
10
-78.5966832034
20
2.6061419287
30
0.0000000000
11
-78.5966832034
21
0.6061419287
31
0.0000000000
1001
DSTP_XDATA
1002
{
1000
_OWNERHANDLE=0007BB89B0
1002
}
0
LINE
5
200
100
AcDbEntity
8
SYS_DEVICE_BORDER
100
AcDbLine
10
-71.0966832034
20
-0.8938580713
30
0.0000000000
11
-81.0966832034
21
-0.8938580713
31
0.0000000000
1001
DSTP_XDATA
1002
{
1000
_OWNERHANDLE=0004647A90
1002
}
0
LINE
5
201
100
AcDbEntity
8
SYS_DEVICE_BORDER
100
AcDbLine
10
-71.0966832034
20
4.1061419287
30
0.0000000000
11
-71.0966832034
21
-0.8938580713
31
0.0000000000
1001
DSTP_XDATA
1002
{
1000
_OWNERHANDLE=0004647A90
1002
}
0
LINE
5
202
100
AcDbEntity
8
SYS_DEVICE_BORDER
100
AcDbLine
10
-81.0966832034
20
4.1061419287
30
0.0000000000
11
-71.0966832034
21
4.1061419287
31
0.0000000000
1001
DSTP_XDATA
1002
{
1000
_OWNERHANDLE=0004647A90
1002
}
0
LINE
5
203
100
AcDbEntity
8
SYS_DEVICE_BORDER
100
AcDbLine
10
-81.0966832034
20
-0.8938580713
30
0.0000000000
11
-81.0966832034
21
4.1061419287
31
0.0000000000
1001
DSTP_XDATA
1002
{
1000
_OWNERHANDLE=0004647A90
1002
}
0
TEXT
5
204
100
AcDbEntity
8
EL_DEVICE_NAME
100
AcDbText
11
-76.0966832034
21
5.1061419287
31
0.0000000000
10
-78.8466833872
20
5.1061419287
30
0.0000000000
40
2.5000000000
50
0.0000000000
41
0.7000000000
51
12.0000000000
72
1
7
R2_5
1
В1.1
100
AcDbText
73
0
1001
DSTP_XDATA
1002
{
1000
_TMPL1=@@[NMO_Name]
1000
_OWNERHANDLE=0004647A90
1002
}
0
INSERT
5
205
100
AcDbEntity
8
0
100
AcDbBlockReference
2
EL_POSITION
10
-67.0966832034
20
1.6061419287
30
0.0000000000
41
1.0000000000
42
1.0000000000
43
1.0000000000
50
0.0000000000
1001
DSTP_XDATA
1002
{
1000
_OWNERHANDLE=0004647A90
1000
_HANDLE=00046461B0
1000
_UPGRADE=1
1002
}
0
TEXT
5
206
100
AcDbEntity
8
TEXT
100
AcDbText
11
-67.0966832034
21
2.1061419287
31
0.0000000000
10
-67.6383499247
20
2.1061419287
30
0.0000000000
40
2.5000000000
50
0.0000000000
41
0.7000000000
51
12.0000000000
72
1
7
R2_5
1
1
100
AcDbText
73
0
1001
DSTP_XDATA
1002
{
1000
_TMPL1=@@[Position]
1000
_OWNERHANDLE=00046461B0
1002
}
0
TEXT
5
207
100
AcDbEntity
8
TEXT
100
AcDbText
11
-67.0966832034
21
1.1061419287
31
0.0000000000
10
-68.9300167230
20
-1.3938580713
30
0.0000000000
40
2.5000000000
50
0.0000000000
41
0.7000000000
51
12.0000000000
72
1
7
R2_5
1
1.0
100
AcDbText
73
3
1001
DSTP_XDATA
1002
{
1000
_TMPL1=@@[Power]
1000
_OWNERHANDLE=00046461B0
1002
}
0
POLYLINE
5
208
100
AcDbEntity
8
SYS_METRIC
370
20
100
AcDb3dPolyline
66
1
10
0.0000000000
20
0.0000000000
30
0.0000000000
70
8
1001
DSTP_XDATA
1002
{
1000
USES=System
1000
USES=cables
1000
#0=NMO_Name|GDBString|ШР4-1|Обозначение
1000
#1=NMO_BaseName|GDBString|@|Короткое Имя
1000
#2=NMO_Prefix|GDBString||Префикс
1000
#3=NMO_PrefixTemplate|GDBString||Шаблон префикса
1000
#4=NMO_Suffix|GDBString||Суффикс
1000
#5=NMO_SuffixTemplate|GDBString||Шаблон суффикса
1000
#6=NMO_Template|GDBString|@@[NMO_Prefix]@@[GC_HeadDevice]-@@[GC_HDGroup]@@[NMO_Suffix]|Шаблон Обозначения
1000
#7=DB_link|GDBString|_EQ000000|Материал
1000
#8=LENGTH_RoundTo|GDBInteger|0|Округлять до
1000
#9=LENGTH_Add|GDBDouble|4.0|Добавить к длине
1000
#10=LENGTH_Scale|GDBDouble|0.1|Масштаб
1000
#11=GC_HeadDevice|GDBString|ШР4|Головное устройство
1000
#12=GC_HDShortName|GDBString|4|Короткое имя головного устройства
1000
#13=GC_HDGroup|GDBInteger|1|Группа в головном устройстве
1000
#14=CABLE_Type|TCableType|TCT_Control|Тип
1000
#15=CABLE_Segment|GDBInteger|0|Сегмент
1000
#16=CABLE_WireCount|GDBInteger|0|Число жил
1000
#17=CABLE_TotalCD|GDBInteger|5|Подключено устройств
1000
#18=AmountD|GDBDouble|20.0|Длина
1000
_OWNERHANDLE=0000000064
1000
_UPGRADE=1
1000
_LAYER=0
1002
}
0
VERTEX
5
209
100
AcDbEntity
8
0
370
20
100
AcDbVertex
100
AcDb3dPolylineVertex
10
18.6110418714
20
17.8317538672
30
0.0000000000
0
VERTEX
5
20A
100
AcDbEntity
8
0
370
20
100
AcDbVertex
100
AcDb3dPolylineVertex
10
-29.9928206660
20
9.7189478980
30
0.0000000000
0
VERTEX
5
20B
100
AcDbEntity
8
0
370
20
100
AcDbVertex
100
AcDb3dPolylineVertex
10
-78.5966832034
20
1.6061419287
30
0.0000000000
0
VERTEX
5
20C
100
AcDbEntity
8
0
370
20
100
AcDbVertex
100
AcDb3dPolylineVertex
10
-106.1454830774
20
-12.1682580083
30
0.0000000000
0
VERTEX
5
20D
100
AcDbEntity
8
0
370
20
100
AcDbVertex
100
AcDb3dPolylineVertex
10
-128.4634981651
20
-30.1272857742
30
0.0000000000
0
SEQEND
5
20E
100
AcDbEntity
8
0
370
20
0
LINE
5
20F
100
AcDbEntity
8
0
370
20
100
AcDbLine
10
16.1110418714
20
17.4144616220
30
0.0000000000
11
-29.0064667957
21
9.8835870264
31
0.0000000000
1001
DSTP_XDATA
1002
{
1000
_OWNERHANDLE=6E
1002
}
0
LINE
5
210
100
AcDbEntity
8
0
370
20
100
AcDbLine
10
-30.9791745363
20
9.5543087696
30
0.0000000000
11
-71.0966832034
21
2.8580186643
31
0.0000000000
1001
DSTP_XDATA
1002
{
1000
_OWNERHANDLE=6E
1002
}
0
LINE
5
211
100
AcDbEntity
8
0
370
20
100
AcDbLine
10
-81.0966832034
20
0.3561419287
30
0.0000000000
11
-101.1454830774
21
-9.6682580083
31
0.0000000000
1001
DSTP_XDATA
1002
{
1000
_OWNERHANDLE=6E
1002
}
0
LINE
5
212
100
AcDbEntity
8
0
370
20
100
AcDbLine
10
-108.6454830774
20
-14.1799767583
30
0.0000000000
11
-125.3567020486
21
-27.6272857742
31
0.0000000000
1001
DSTP_XDATA
1002
{
1000
_OWNERHANDLE=6E
1002
}
0
LINE
5
213
100
AcDbEntity
8
0
100
AcDbLine
10
-30.6412827823
20
9.9003512026
30
0.0000000000
11
-43.7600610596
21
19.8234256408
31
0.0000000000
1001
DSTP_XDATA
1002
{
1000
_UPGRADE=1
1002
}
0
LINE
5
214
100
AcDbEntity
8
0
100
AcDbLine
10
-30.6412827823
20
9.9003512026
30
0.0000000000
11
-30.6412827823
21
9.9003512026
31
0.0000000000
1001
DSTP_XDATA
1002
{
1000
_OWNERHANDLE=000000006E
1002
}
0
MTEXT
5
215
100
AcDbEntity
8
0
100
AcDbMText
10
-48.7600610596
20
26.8234256408
30
0.0000000000
40
2.5000000000
41
0.0000000000
71
2
1
@1
7
R2_5
11
1.0000000000
21
0.0000000000
31
0.0000000000
44
0.9600000000
1001
DSTP_XDATA
1002
{
1000
_OWNERHANDLE=000000006E
1002
}
0
MTEXT
5
216
100
AcDbEntity
8
0
100
AcDbMText
10
-48.7600610596
20
22.8234256408
30
0.0000000000
40
2.5000000000
41
0.0000000000
71
2
1
ШР4-1
7
R2_5
11
1.0000000000
21
0.0000000000
31
0.0000000000
44
0.9600000000
1001
DSTP_XDATA
1002
{
1000
_OWNERHANDLE=000000006E
1002
}
0
LINE
5
217
100
AcDbEntity
8
0
100
AcDbLine
10
-53.7600610596
20
27.8234256408
30
0.0000000000
11
-43.7600610596
21
27.8234256408
31
0.0000000000
1001
DSTP_XDATA
1002
{
1000
_OWNERHANDLE=000000006E
1002
}
0
LINE
5
218
100
AcDbEntity
8
0
100
AcDbLine
10
-53.7600610596
20
23.8234256408
30
0.0000000000
11
-43.7600610596
21
23.8234256408
31
0.0000000000
1001
DSTP_XDATA
1002
{
1000
_OWNERHANDLE=000000006E
1002
}
0
LINE
5
219
100
AcDbEntity
8
0
100
AcDbLine
10
-53.7600610596
20
19.8234256408
30
0.0000000000
11
-43.7600610596
21
19.8234256408
31
0.0000000000
1001
DSTP_XDATA
1002
{
1000
_OWNERHANDLE=000000006E
1002
}
0
LINE
5
21A
100
AcDbEntity
8
0
100
AcDbLine
10
-53.7600610596
20
27.8234256408
30
0.0000000000
11
-53.7600610596
21
19.8234256408
31
0.0000000000
1001
DSTP_XDATA
1002
{
1000
_OWNERHANDLE=000000006E
1002
}
0
LINE
5
21B
100
AcDbEntity
8
0
100
AcDbLine
10
-43.7600610596
20
27.8234256408
30
0.0000000000
11
-43.7600610596
21
19.8234256408
31
0.0000000000
1001
DSTP_XDATA
1002
{
1000
_OWNERHANDLE=000000006E
1002
}
0
MTEXT
5
21C
100
AcDbEntity
8
0
100
AcDbMText
10
-43.7600610596
20
29.3234256408
30
0.0000000000
40
2.5000000000
41
0.0000000000
71
9
1
C1
7
R2_5
11
1.0000000000
21
0.0000000000
31
0.0000000000
44
0.0000000000
1001
DSTP_XDATA
1002
{
1000
_OWNERHANDLE=000000006E
1002
}
0
LINE
5
21D
100
AcDbEntity
8
0
100
AcDbLine
10
-43.7600610596
20
28.8234256408
30
0.0000000000
11
-43.7600610596
21
27.8234256408
31
0.0000000000
1001
DSTP_XDATA
1002
{
1000
_OWNERHANDLE=000000006E
1002
}
0
LINE
5
21E
100
AcDbEntity
8
0
100
AcDbLine
10
-43.7600610596
20
28.8234256408
30
0.0000000000
11
-46.5933945022
21
28.8234256408
31
0.0000000000
1001
DSTP_XDATA
1002
{
1000
_OWNERHANDLE=000000006E
1002
}
0
INSERT
5
21F
100
AcDbEntity
8
0
100
AcDbBlockReference
2
KIP_UKP
10
-29.9928206660
20
9.7189478980
30
0.0000000000
41
1.0000000000
42
1.0000000000
43
1.0000000000
50
0.0000000000
1001
DSTP_XDATA
1002
{
1000
USES=System
1000
USES=devices
1000
#0=NMO_Name|GDBString|C1|Обозначение
1000
#1=NMO_BaseName|GDBString|C|Короткое Имя
1000
#2=NMO_Prefix|GDBString||Префикс
1000
#3=NMO_Suffix|GDBString|1|Суффикс
1000
#4=NMO_Template|GDBString|@@[NMO_Prefix]@@[NMO_BaseName]@@[NMO_Suffix]|Шаблон Обозначения
1000
#5=DB_link|GDBString|Коробка|Материал
1000
#6=EL_Cab_AddLength|GDBDouble|0.1|Добавлять к длине кабеля
1000
#7=Device_Type|TDeviceType|TDT_Junction|Тип устройства
1000
#8=Device_Class|TDeviceClass|TDC_Shell|Класс устройства
1000
#9=Device_Group|TDeviceGroup|TDG_ElDevice|Группа устройства
1000
#10=BTY_TreeCoord|GDBString|PLAN_KIPIA_Коробка ответвительная|Позиция в дереве
1000
_OWNERHANDLE=0000000064
1000
_HANDLE=0007BF99D8
1000
_UPGRADE=1
1002
}
0
INSERT
5
220
100
AcDbEntity
8
0
100
AcDbBlockReference
2
CONNECTOR_SQUARE
10
-29.9928206660
20
9.7189478980
30
0.0000000000
41
1.0000000000
42
1.0000000000
43
1.0000000000
50
0.0000000000
1001
DSTP_XDATA
1002
{
1000
USES=System
1000
USES=connectors
1000
USES=devices
1000
#0=DeviceClass|TDeviceClass|TDC_Unknown|Класс устройства
1000
#1=Connector_Type|TConnectorType|TCT_ElCable|Тип соединения
1000
#2=Border_Type|TConnectorBorderType|TCBT_Owner|Граница подрезки
1000
#3=Connector_Name|GDBString||Имя соединения
1000
#4=Connector_Junction|GDBBoolean|False|Возможность ответвления
1000
#5=LENGTH_Add|GDBDouble|0.0|Добавить к длине
1000
_OWNERHANDLE=0007BF99D8
1000
_HANDLE=000466DB78
1000
_UPGRADE=1
1002
}
0
LINE
5
221
100
AcDbEntity
8
SYS_METRIC
100
AcDbLine
10
-30.9928206660
20
9.7189478980
30
0.0000000000
11
-28.9928206660
21
9.7189478980
31
0.0000000000
1001
DSTP_XDATA
1002
{
1000
_OWNERHANDLE=000466DB78
1002
}
0
LINE
5
222
100
AcDbEntity
8
SYS_METRIC
100
AcDbLine
10
-29.9928206660
20
10.7189478980
30
0.0000000000
11
-29.9928206660
21
8.7189478980
31
0.0000000000
1001
DSTP_XDATA
1002
{
1000
_OWNERHANDLE=000466DB78
1002
}
0
TEXT
5
223
100
AcDbEntity
8
SYS_METRIC
100
AcDbText
11
-29.9928206660
21
11.7189478980
31
0.0000000000
10
-31.4094873873
20
11.7189478980
30
0.0000000000
40
2.5000000000
50
0.0000000000
41
0.7000000000
51
12.0000000000
72
1
7
R2_5
1
C1
100
AcDbText
73
0
1001
DSTP_XDATA
1002
{
1000
_TMPL1=@@[NMO_Name]
1000
_OWNERHANDLE=0007BF99D8
1002
}
0
CIRCLE
5
224
100
AcDbEntity
8
SYS_DEVICE_BORDER
100
AcDbCircle
10
-29.9928206660
20
9.7189478980
30
0.0000000000
40
1.0000000000
1001
DSTP_XDATA
1002
{
1000
_OWNERHANDLE=0007BF99D8
1002
}
0
INSERT
5
225
100
AcDbEntity
8
0
100
AcDbBlockReference
2
EL_MOTOR
10
-59.1370497059
20
-23.4026935393
30
0.0000000000
41
1.0000000000
42
1.0000000000
43
1.0000000000
50
0.0000000000
1001
DSTP_XDATA
1002
{
1000
USES=System
1000
USES=devices
1000
#0=Device_Type|TDeviceType|TDT_SilaPotr|Тип устройства
1000
#1=Device_Class|TDeviceClass|TDC_Shell|Класс устройства
1000
#2=Device_Group|TDeviceGroup|TDG_ElDevice|Группа устройства
1000
#3=BTY_TreeCoord|GDBString|PLAN_EM_Двигатель|Позиция в дереве
1000
#4=NMO_Template|GDBString|@@[NMO_BaseName]@@[NameNumber].4|Шаблон Обозначения
1000
#5=NMO_Name|GDBString|В1.4|Обозначение
1000
#6=NMO_BaseName|GDBString|В|Короткое Имя
1000
#7=NameNumber|GDBInteger|1|Номер
1000
#8=Position|GDBInteger|1|Позиция по заданию ТХ
1000
#9=CalcIP|TCalcIP|_I_from_P|Способ расчета
1000
#10=Power|GDBDouble|1.0|Мощность, кВт
1000
#11=Current|GDBDouble|2.17306271458994|Ток, А
1000
#12=CosPHI|GDBDouble|0.7|Cos(фи)
1000
#13=Ks|GDBDouble|1.0|Коэффициент спроса
1000
#14=PV|GDBDouble|1.0|Продолжительность включения
1000
#15=Voltage|TVoltage|_AC_380V_50Hz|Напряжение питания
1000
#16=Phase|TPhase|_ABC|Фаза
1000
#17=DB_link|GDBString|El_Motor|Материал
1000
#18=AmountI|GDBInteger|1|Количество
1000
#19=GC_HeadDevice|GDBString|ARK??|
1000
#20=GC_HDShortName|GDBString|??|
1000
#21=GC_HDGroup|GDBInteger|0|
1000
#22=SerialConnection|GDBInteger|1|
1000
#23=GC_NumberInGroup|GDBInteger|0|Номер в группе
1000
#24=EL_Cab_AddLength|GDBDouble|0.1|Добавлять к длине кабеля
1000
_OWNERHANDLE=0000000064
1000
_HANDLE=0004669B98
1000
_UPGRADE=1
1002
}
0
INSERT
5
226
100
AcDbEntity
8
0
100
AcDbBlockReference
2
CONNECTOR_SQUARE
10
-59.1370497059
20
-23.4026935393
30
0.0000000000
41
1.0000000000
42
1.0000000000
43
1.0000000000
50
0.0000000000
1001
DSTP_XDATA
1002
{
1000
USES=System
1000
USES=connectors
1000
USES=devices
1000
#0=DeviceClass|TDeviceClass|TDC_Unknown|Класс устройства
1000
#1=Connector_Type|TConnectorType|TCT_ElCable|Тип соединения
1000
#2=Border_Type|TConnectorBorderType|TCBT_Owner|Граница подрезки
1000
#3=Connector_Name|GDBString||Имя соединения
1000
#4=Connector_Junction|GDBBoolean|False|Возможность ответвления
1000
#5=LENGTH_Add|GDBDouble|0.0|Добавить к длине
1000
_OWNERHANDLE=0004669B98
1000
_HANDLE=000466A5E8
1000
_UPGRADE=1
1002
}
0
LINE
5
227
100
AcDbEntity
8
SYS_METRIC
100
AcDbLine
10
-60.1370497059
20
-23.4026935393
30
0.0000000000
11
-58.1370497059
21
-23.4026935393
31
0.0000000000
1001
DSTP_XDATA
1002
{
1000
_OWNERHANDLE=000466A5E8
1002
}
0
LINE
5
228
100
AcDbEntity
8
SYS_METRIC
100
AcDbLine
10
-59.1370497059
20
-22.4026935393
30
0.0000000000
11
-59.1370497059
21
-24.4026935393
31
0.0000000000
1001
DSTP_XDATA
1002
{
1000
_OWNERHANDLE=000466A5E8
1002
}
0
LINE
5
229
100
AcDbEntity
8
SYS_DEVICE_BORDER
100
AcDbLine
10
-51.6370497059
20
-25.9026935393
30
0.0000000000
11
-61.6370497059
21
-25.9026935393
31
0.0000000000
1001
DSTP_XDATA
1002
{
1000
_OWNERHANDLE=0004669B98
1002
}
0
LINE
5
22A
100
AcDbEntity
8
SYS_DEVICE_BORDER
100
AcDbLine
10
-51.6370497059
20
-20.9026935393
30
0.0000000000
11
-51.6370497059
21
-25.9026935393
31
0.0000000000
1001
DSTP_XDATA
1002
{
1000
_OWNERHANDLE=0004669B98
1002
}
0
LINE
5
22B
100
AcDbEntity
8
SYS_DEVICE_BORDER
100
AcDbLine
10
-61.6370497059
20
-20.9026935393
30
0.0000000000
11
-51.6370497059
21
-20.9026935393
31
0.0000000000
1001
DSTP_XDATA
1002
{
1000
_OWNERHANDLE=0004669B98
1002
}
0
LINE
5
22C
100
AcDbEntity
8
SYS_DEVICE_BORDER
100
AcDbLine
10
-61.6370497059
20
-25.9026935393
30
0.0000000000
11
-61.6370497059
21
-20.9026935393
31
0.0000000000
1001
DSTP_XDATA
1002
{
1000
_OWNERHANDLE=0004669B98
1002
}
0
TEXT
5
22D
100
AcDbEntity
8
EL_DEVICE_NAME
100
AcDbText
11
-56.6370497059
21
-19.9026935393
31
0.0000000000
10
-59.3870498375
20
-19.9026935393
30
0.0000000000
40
2.5000000000
50
0.0000000000
41
0.7000000000
51
12.0000000000
72
1
7
R2_5
1
В1.4
100
AcDbText
73
0
1001
DSTP_XDATA
1002
{
1000
_TMPL1=@@[NMO_Name]
1000
_OWNERHANDLE=0004669B98
1002
}
0
INSERT
5
22E
100
AcDbEntity
8
0
100
AcDbBlockReference
2
EL_POSITION
10
-47.6370497059
20
-23.4026935393
30
0.0000000000
41
1.0000000000
42
1.0000000000
43
1.0000000000
50
0.0000000000
1001
DSTP_XDATA
1002
{
1000
_OWNERHANDLE=0004669B98
1000
_HANDLE=000466A838
1000
_UPGRADE=1
1002
}
0
TEXT
5
22F
100
AcDbEntity
8
TEXT
100
AcDbText
11
-47.6370497059
21
-22.9026935393
31
0.0000000000
10
-48.1787164272
20
-22.9026935393
30
0.0000000000
40
2.5000000000
50
0.0000000000
41
0.7000000000
51
12.0000000000
72
1
7
R2_5
1
1
100
AcDbText
73
0
1001
DSTP_XDATA
1002
{
1000
_TMPL1=@@[Position]
1000
_OWNERHANDLE=000466A838
1002
}
0
TEXT
5
230
100
AcDbEntity
8
TEXT
100
AcDbText
11
-47.6370497059
21
-23.9026935393
31
0.0000000000
10
-49.4703832255
20
-26.4026935393
30
0.0000000000
40
2.5000000000
50
0.0000000000
41
0.7000000000
51
12.0000000000
72
1
7
R2_5
1
1.0
100
AcDbText
73
3
1001
DSTP_XDATA
1002
{
1000
_TMPL1=@@[Power]
1000
_OWNERHANDLE=000466A838
1002
}
0
POLYLINE
5
231
100
AcDbEntity
8
SYS_METRIC
370
20
100
AcDb3dPolyline
66
1
10
0.0000000000
20
0.0000000000
30
0.0000000000
70
8
1001
DSTP_XDATA
1002
{
1000
USES=System
1000
USES=cables
1000
#0=NMO_Name|GDBString|@1|Обозначение
1000
#1=NMO_BaseName|GDBString|@|Короткое Имя
1000
#2=NMO_Prefix|GDBString||Префикс
1000
#3=NMO_PrefixTemplate|GDBString||Шаблон префикса
1000
#4=NMO_Suffix|GDBString|1|Суффикс
1000
#5=NMO_SuffixTemplate|GDBString||Шаблон суффикса
1000
#6=NMO_Template|GDBString|@@[NMO_Prefix]@@[NMO_BaseName]@@[NMO_Suffix]|Шаблон Обозначения
1000
#7=DB_link|GDBString|_EQ000000|Материал
1000
#8=LENGTH_RoundTo|GDBInteger|0|Округлять до
1000
#9=LENGTH_Add|GDBDouble|4.0|Добавить к длине
1000
#10=LENGTH_Scale|GDBDouble|0.1|Масштаб
1000
#11=GC_HeadDevice|GDBString|??|Головное устройство
1000
#12=GC_HDShortName|GDBString|??|Короткое имя головного устройства
1000
#13=GC_HDGroup|GDBInteger|0|Группа в головном устройстве
1000
#14=CABLE_Type|TCableType|TCT_Control|Тип
1000
#15=CABLE_Segment|GDBInteger|0|Сегмент
1000
#16=CABLE_WireCount|GDBInteger|0|Число жил
1000
#17=CABLE_TotalCD|GDBInteger|2|Подключено устройств
1000
#18=AmountD|GDBDouble|9.0|Длина
1000
_OWNERHANDLE=0000000064
1000
_UPGRADE=1
1000
_LAYER=0
1002
}
0
VERTEX
5
232
100
AcDbEntity
8
0
370
20
100
AcDbVertex
100
AcDb3dPolylineVertex
10
-29.9928206660
20
9.7189478980
30
0.0000000000
0
VERTEX
5
233
100
AcDbEntity
8
0
370
20
100
AcDbVertex
100
AcDb3dPolylineVertex
10
-59.1370497059
20
-23.4026935393
30
0.0000000000
0
SEQEND
5
234
100
AcDbEntity
8
0
370
20
0
LINE
5
235
100
AcDbEntity
8
0
370
20
100
AcDbLine
10
-30.6534125957
20
8.9682027332
30
0.0000000000
11
-56.9372622123
21
-20.9026935393
31
0.0000000000
1001
DSTP_XDATA
1002
{
1000
_OWNERHANDLE=6E
1002
}
0
INSERT
5
236
100
AcDbEntity
8
0
100
AcDbBlockReference
2
EL_MOTOR
10
-106.1454830774
20
-12.1682580083
30
0.0000000000
41
1.0000000000
42
1.0000000000
43
1.0000000000
50
0.0000000000
1001
DSTP_XDATA
1002
{
1000
USES=System
1000
USES=devices
1000
#0=Device_Type|TDeviceType|TDT_SilaPotr|Тип устройства
1000
#1=Device_Class|TDeviceClass|TDC_Shell|Класс устройства
1000
#2=Device_Group|TDeviceGroup|TDG_ElDevice|Группа устройства
1000
#3=BTY_TreeCoord|GDBString|PLAN_EM_Двигатель|Позиция в дереве
1000
#4=NMO_Template|GDBString|@@[NMO_BaseName]@@[NameNumber].2|Шаблон Обозначения
1000
#5=NMO_Name|GDBString|В1.2|Обозначение
1000
#6=NMO_BaseName|GDBString|В|Короткое Имя
1000
#7=NameNumber|GDBInteger|1|Номер
1000
#8=Position|GDBInteger|1|Позиция по заданию ТХ
1000
#9=CalcIP|TCalcIP|_I_from_P|Способ расчета
1000
#10=Power|GDBDouble|1.0|Мощность, кВт
1000
#11=Current|GDBDouble|2.17306271458994|Ток, А
1000
#12=CosPHI|GDBDouble|0.7|Cos(фи)
1000
#13=Ks|GDBDouble|1.0|Коэффициент спроса
1000
#14=PV|GDBDouble|1.0|Продолжительность включения
1000
#15=Voltage|TVoltage|_AC_380V_50Hz|Напряжение питания
1000
#16=Phase|TPhase|_ABC|Фаза
1000
#17=DB_link|GDBString|El_Motor|Материал
1000
#18=AmountI|GDBInteger|1|Количество
1000
#19=GC_HeadDevice|GDBString|ARK??|
1000
#20=GC_HDShortName|GDBString|??|
1000
#21=GC_HDGroup|GDBInteger|0|
1000
#22=SerialConnection|GDBInteger|1|
1000
#23=GC_NumberInGroup|GDBInteger|0|Номер в группе
1000
#24=EL_Cab_AddLength|GDBDouble|0.1|Добавлять к длине кабеля
1000
_OWNERHANDLE=0000000064
1000
_HANDLE=0007C09A88
1000
_UPGRADE=1
1002
}
0
INSERT
5
237
100
AcDbEntity
8
0
100
AcDbBlockReference
2
CONNECTOR_SQUARE
10
-106.1454830774
20
-12.1682580083
30
0.0000000000
41
1.0000000000
42
1.0000000000
43
1.0000000000
50
0.0000000000
1001
DSTP_XDATA
1002
{
1000
USES=System
1000
USES=connectors
1000
USES=devices
1000
#0=DeviceClass|TDeviceClass|TDC_Unknown|Класс устройства
1000
#1=Connector_Type|TConnectorType|TCT_ElCable|Тип соединения
1000
#2=Border_Type|TConnectorBorderType|TCBT_Owner|Граница подрезки
1000
#3=Connector_Name|GDBString||Имя соединения
1000
#4=Connector_Junction|GDBBoolean|False|Возможность ответвления
1000
#5=LENGTH_Add|GDBDouble|0.0|Добавить к длине
1000
_OWNERHANDLE=0007C09A88
1000
_HANDLE=0004673788
1000
_UPGRADE=1
1002
}
0
LINE
5
238
100
AcDbEntity
8
SYS_METRIC
100
AcDbLine
10
-107.1454830774
20
-12.1682580083
30
0.0000000000
11
-105.1454830774
21
-12.1682580083
31
0.0000000000
1001
DSTP_XDATA
1002
{
1000
_OWNERHANDLE=0004673788
1002
}
0
LINE
5
239
100
AcDbEntity
8
SYS_METRIC
100
AcDbLine
10
-106.1454830774
20
-11.1682580083
30
0.0000000000
11
-106.1454830774
21
-13.1682580083
31
0.0000000000
1001
DSTP_XDATA
1002
{
1000
_OWNERHANDLE=0004673788
1002
}
0
LINE
5
23A
100
AcDbEntity
8
SYS_DEVICE_BORDER
100
AcDbLine
10
-98.6454830774
20
-14.6682580083
30
0.0000000000
11
-108.6454830774
21
-14.6682580083
31
0.0000000000
1001
DSTP_XDATA
1002
{
1000
_OWNERHANDLE=0007C09A88
1002
}
0
LINE
5
23B
100
AcDbEntity
8
SYS_DEVICE_BORDER
100
AcDbLine
10
-98.6454830774
20
-9.6682580083
30
0.0000000000
11
-98.6454830774
21
-14.6682580083
31
0.0000000000
1001
DSTP_XDATA
1002
{
1000
_OWNERHANDLE=0007C09A88
1002
}
0
LINE
5
23C
100
AcDbEntity
8
SYS_DEVICE_BORDER
100
AcDbLine
10
-108.6454830774
20
-9.6682580083
30
0.0000000000
11
-98.6454830774
21
-9.6682580083
31
0.0000000000
1001
DSTP_XDATA
1002
{
1000
_OWNERHANDLE=0007C09A88
1002
}
0
LINE
5
23D
100
AcDbEntity
8
SYS_DEVICE_BORDER
100
AcDbLine
10
-108.6454830774
20
-14.6682580083
30
0.0000000000
11
-108.6454830774
21
-9.6682580083
31
0.0000000000
1001
DSTP_XDATA
1002
{
1000
_OWNERHANDLE=0007C09A88
1002
}
0
TEXT
5
23E
100
AcDbEntity
8
EL_DEVICE_NAME
100
AcDbText
11
-103.6454830774
21
-8.6682580083
31
0.0000000000
10
-106.3954832090
20
-8.6682580083
30
0.0000000000
40
2.5000000000
50
0.0000000000
41
0.7000000000
51
12.0000000000
72
1
7
R2_5
1
В1.2
100
AcDbText
73
0
1001
DSTP_XDATA
1002
{
1000
_TMPL1=@@[NMO_Name]
1000
_OWNERHANDLE=0007C09A88
1002
}
0
INSERT
5
23F
100
AcDbEntity
8
0
100
AcDbBlockReference
2
EL_POSITION
10
-94.6454830774
20
-12.1682580083
30
0.0000000000
41
1.0000000000
42
1.0000000000
43
1.0000000000
50
0.0000000000
1001
DSTP_XDATA
1002
{
1000
_OWNERHANDLE=0007C09A88
1000
_HANDLE=0004683F38
1000
_UPGRADE=1
1002
}
0
TEXT
5
240
100
AcDbEntity
8
TEXT
100
AcDbText
11
-94.6454830774
21
-11.6682580083
31
0.0000000000
10
-95.1871497987
20
-11.6682580083
30
0.0000000000
40
2.5000000000
50
0.0000000000
41
0.7000000000
51
12.0000000000
72
1
7
R2_5
1
1
100
AcDbText
73
0
1001
DSTP_XDATA
1002
{
1000
_TMPL1=@@[Position]
1000
_OWNERHANDLE=0004683F38
1002
}
0
TEXT
5
241
100
AcDbEntity
8
TEXT
100
AcDbText
11
-94.6454830774
21
-12.6682580083
31
0.0000000000
10
-96.4788165970
20
-15.1682580083
30
0.0000000000
40
2.5000000000
50
0.0000000000
41
0.7000000000
51
12.0000000000
72
1
7
R2_5
1
1.0
100
AcDbText
73
3
1001
DSTP_XDATA
1002
{
1000
_TMPL1=@@[Power]
1000
_OWNERHANDLE=0004683F38
1002
}
0
INSERT
5
242
100
AcDbEntity
8
0
100
AcDbBlockReference
2
EL_MOTOR
10
-128.4634981651
20
-30.1272857742
30
0.0000000000
41
1.0000000000
42
1.0000000000
43
1.0000000000
50
0.0000000000
1001
DSTP_XDATA
1002
{
1000
USES=System
1000
USES=devices
1000
#0=Device_Type|TDeviceType|TDT_SilaPotr|Тип устройства
1000
#1=Device_Class|TDeviceClass|TDC_Shell|Класс устройства
1000
#2=Device_Group|TDeviceGroup|TDG_ElDevice|Группа устройства
1000
#3=BTY_TreeCoord|GDBString|PLAN_EM_Двигатель|Позиция в дереве
1000
#4=NMO_Template|GDBString|@@[NMO_BaseName]@@[NameNumber].3|Шаблон Обозначения
1000
#5=NMO_Name|GDBString|В1.3|Обозначение
1000
#6=NMO_BaseName|GDBString|В|Короткое Имя
1000
#7=NameNumber|GDBInteger|1|Номер
1000
#8=Position|GDBInteger|1|Позиция по заданию ТХ
1000
#9=CalcIP|TCalcIP|_I_from_P|Способ расчета
1000
#10=Power|GDBDouble|1.0|Мощность, кВт
1000
#11=Current|GDBDouble|2.17306271458994|Ток, А
1000
#12=CosPHI|GDBDouble|0.7|Cos(фи)
1000
#13=Ks|GDBDouble|1.0|Коэффициент спроса
1000
#14=PV|GDBDouble|1.0|Продолжительность включения
1000
#15=Voltage|TVoltage|_AC_380V_50Hz|Напряжение питания
1000
#16=Phase|TPhase|_ABC|Фаза
1000
#17=DB_link|GDBString|El_Motor|Материал
1000
#18=AmountI|GDBInteger|1|Количество
1000
#19=GC_HeadDevice|GDBString|ARK??|
1000
#20=GC_HDShortName|GDBString|??|
1000
#21=GC_HDGroup|GDBInteger|0|
1000
#22=SerialConnection|GDBInteger|1|
1000
#23=GC_NumberInGroup|GDBInteger|0|Номер в группе
1000
#24=EL_Cab_AddLength|GDBDouble|0.1|Добавлять к длине кабеля
1000
_OWNERHANDLE=0000000064
1000
_HANDLE=0004676518
1000
_UPGRADE=1
1002
}
0
INSERT
5
243
100
AcDbEntity
8
0
100
AcDbBlockReference
2
CONNECTOR_SQUARE
10
-128.4634981651
20
-30.1272857742
30
0.0000000000
41
1.0000000000
42
1.0000000000
43
1.0000000000
50
0.0000000000
1001
DSTP_XDATA
1002
{
1000
USES=System
1000
USES=connectors
1000
USES=devices
1000
#0=DeviceClass|TDeviceClass|TDC_Unknown|Класс устройства
1000
#1=Connector_Type|TConnectorType|TCT_ElCable|Тип соединения
1000
#2=Border_Type|TConnectorBorderType|TCBT_Owner|Граница подрезки
1000
#3=Connector_Name|GDBString||Имя соединения
1000
#4=Connector_Junction|GDBBoolean|False|Возможность ответвления
1000
#5=LENGTH_Add|GDBDouble|0.0|Добавить к длине
1000
_OWNERHANDLE=0004676518
1000
_HANDLE=00046778D8
1000
_UPGRADE=1
1002
}
0
LINE
5
244
100
AcDbEntity
8
SYS_METRIC
100
AcDbLine
10
-129.4634981651
20
-30.1272857742
30
0.0000000000
11
-127.4634981651
21
-30.1272857742
31
0.0000000000
1001
DSTP_XDATA
1002
{
1000
_OWNERHANDLE=00046778D8
1002
}
0
LINE
5
245
100
AcDbEntity
8
SYS_METRIC
100
AcDbLine
10
-128.4634981651
20
-29.1272857742
30
0.0000000000
11
-128.4634981651
21
-31.1272857742
31
0.0000000000
1001
DSTP_XDATA
1002
{
1000
_OWNERHANDLE=00046778D8
1002
}
0
LINE
5
246
100
AcDbEntity
8
SYS_DEVICE_BORDER
100
AcDbLine
10
-120.9634981651
20
-32.6272857742
30
0.0000000000
11
-130.9634981651
21
-32.6272857742
31
0.0000000000
1001
DSTP_XDATA
1002
{
1000
_OWNERHANDLE=0004676518
1002
}
0
LINE
5
247
100
AcDbEntity
8
SYS_DEVICE_BORDER
100
AcDbLine
10
-120.9634981651
20
-27.6272857742
30
0.0000000000
11
-120.9634981651
21
-32.6272857742
31
0.0000000000
1001
DSTP_XDATA
1002
{
1000
_OWNERHANDLE=0004676518
1002
}
0
LINE
5
248
100
AcDbEntity
8
SYS_DEVICE_BORDER
100
AcDbLine
10
-130.9634981651
20
-27.6272857742
30
0.0000000000
11
-120.9634981651
21
-27.6272857742
31
0.0000000000
1001
DSTP_XDATA
1002
{
1000
_OWNERHANDLE=0004676518
1002
}
0
LINE
5
249
100
AcDbEntity
8
SYS_DEVICE_BORDER
100
AcDbLine
10
-130.9634981651
20
-32.6272857742
30
0.0000000000
11
-130.9634981651
21
-27.6272857742
31
0.0000000000
1001
DSTP_XDATA
1002
{
1000
_OWNERHANDLE=0004676518
1002
}
0
TEXT
5
24A
100
AcDbEntity
8
EL_DEVICE_NAME
100
AcDbText
11
-125.9634981651
21
-26.6272857742
31
0.0000000000
10
-128.7134983489
20
-26.6272857742
30
0.0000000000
40
2.5000000000
50
0.0000000000
41
0.7000000000
51
12.0000000000
72
1
7
R2_5
1
В1.3
100
AcDbText
73
0
1001
DSTP_XDATA
1002
{
1000
_TMPL1=@@[NMO_Name]
1000
_OWNERHANDLE=0004676518
1002
}
0
INSERT
5
24B
100
AcDbEntity
8
0
100
AcDbBlockReference
2
EL_POSITION
10
-116.9634981651
20
-30.1272857742
30
0.0000000000
41
1.0000000000
42
1.0000000000
43
1.0000000000
50
0.0000000000
1001
DSTP_XDATA
1002
{
1000
_OWNERHANDLE=0004676518
1000
_HANDLE=0004677F28
1000
_UPGRADE=1
1002
}
0
TEXT
5
24C
100
AcDbEntity
8
TEXT
100
AcDbText
11
-116.9634981651
21
-29.6272857742
31
0.0000000000
10
-117.5051648864
20
-29.6272857742
30
0.0000000000
40
2.5000000000
50
0.0000000000
41
0.7000000000
51
12.0000000000
72
1
7
R2_5
1
1
100
AcDbText
73
0
1001
DSTP_XDATA
1002
{
1000
_TMPL1=@@[Position]
1000
_OWNERHANDLE=0004677F28
1002
}
0
TEXT
5
24D
100
AcDbEntity
8
TEXT
100
AcDbText
11
-116.9634981651
21
-30.6272857742
31
0.0000000000
10
-118.7968316847
20
-33.1272857742
30
0.0000000000
40
2.5000000000
50
0.0000000000
41
0.7000000000
51
12.0000000000
72
1
7
R2_5
1
1.0
100
AcDbText
73
3
1001
DSTP_XDATA
1002
{
1000
_TMPL1=@@[Power]
1000
_OWNERHANDLE=0004677F28
1002
}
0
INSERT
5
24E
100
AcDbEntity
8
0
100
AcDbBlockReference
2
EL_MOTOR
10
0.4132218290
20
-23.4026935393
30
0.0000000000
41
1.0000000000
42
1.0000000000
43
1.0000000000
50
0.0000000000
1001
DSTP_XDATA
1002
{
1000
USES=System
1000
USES=devices
1000
#0=Device_Type|TDeviceType|TDT_SilaPotr|Тип устройства
1000
#1=Device_Class|TDeviceClass|TDC_Shell|Класс устройства
1000
#2=Device_Group|TDeviceGroup|TDG_ElDevice|Группа устройства
1000
#3=BTY_TreeCoord|GDBString|PLAN_EM_Двигатель|Позиция в дереве
1000
#4=NMO_Template|GDBString|@@[NMO_BaseName]@@[NameNumber].1|Шаблон Обозначения
1000
#5=NMO_Name|GDBString|В2.1|Обозначение
1000
#6=NMO_BaseName|GDBString|В|Короткое Имя
1000
#7=NameNumber|GDBInteger|2|Номер
1000
#8=Position|GDBInteger|1|Позиция по заданию ТХ
1000
#9=CalcIP|TCalcIP|_I_from_P|Способ расчета
1000
#10=Power|GDBDouble|1.0|Мощность, кВт
1000
#11=Current|GDBDouble|2.17306271458994|Ток, А
1000
#12=CosPHI|GDBDouble|0.7|Cos(фи)
1000
#13=Ks|GDBDouble|1.0|Коэффициент спроса
1000
#14=PV|GDBDouble|1.0|Продолжительность включения
1000
#15=Voltage|TVoltage|_AC_380V_50Hz|Напряжение питания
1000
#16=Phase|TPhase|_ABC|Фаза
1000
#17=DB_link|GDBString|El_Motor|Материал
1000
#18=AmountI|GDBInteger|1|Количество
1000
#19=GC_HeadDevice|GDBString|ARK??|
1000
#20=GC_HDShortName|GDBString|??|
1000
#21=GC_HDGroup|GDBInteger|0|
1000
#22=SerialConnection|GDBInteger|1|
1000
#23=GC_NumberInGroup|GDBInteger|0|Номер в группе
1000
#24=EL_Cab_AddLength|GDBDouble|0.1|Добавлять к длине кабеля
1000
_OWNERHANDLE=0000000064
1000
_HANDLE=000467B6B8
1000
_UPGRADE=1
1002
}
0
INSERT
5
24F
100
AcDbEntity
8
0
100
AcDbBlockReference
2
CONNECTOR_SQUARE
10
0.4132218290
20
-23.4026935393
30
0.0000000000
41
1.0000000000
42
1.0000000000
43
1.0000000000
50
0.0000000000
1001
DSTP_XDATA
1002
{
1000
USES=System
1000
USES=connectors
1000
USES=devices
1000
#0=DeviceClass|TDeviceClass|TDC_Unknown|Класс устройства
1000
#1=Connector_Type|TConnectorType|TCT_ElCable|Тип соединения
1000
#2=Border_Type|TConnectorBorderType|TCBT_Owner|Граница подрезки
1000
#3=Connector_Name|GDBString||Имя соединения
1000
#4=Connector_Junction|GDBBoolean|False|Возможность ответвления
1000
#5=LENGTH_Add|GDBDouble|0.0|Добавить к длине
1000
_OWNERHANDLE=000467B6B8
1000
_HANDLE=0004692258
1000
_UPGRADE=1
1002
}
0
LINE
5
250
100
AcDbEntity
8
SYS_METRIC
100
AcDbLine
10
-0.5867781710
20
-23.4026935393
30
0.0000000000
11
1.4132218290
21
-23.4026935393
31
0.0000000000
1001
DSTP_XDATA
1002
{
1000
_OWNERHANDLE=0004692258
1002
}
0
LINE
5
251
100
AcDbEntity
8
SYS_METRIC
100
AcDbLine
10
0.4132218290
20
-22.4026935393
30
0.0000000000
11
0.4132218290
21
-24.4026935393
31
0.0000000000
1001
DSTP_XDATA
1002
{
1000
_OWNERHANDLE=0004692258
1002
}
0
LINE
5
252
100
AcDbEntity
8
SYS_DEVICE_BORDER
100
AcDbLine
10
7.9132218290
20
-25.9026935393
30
0.0000000000
11
-2.0867781710
21
-25.9026935393
31
0.0000000000
1001
DSTP_XDATA
1002
{
1000
_OWNERHANDLE=000467B6B8
1002
}
0
LINE
5
253
100
AcDbEntity
8
SYS_DEVICE_BORDER
100
AcDbLine
10
7.9132218290
20
-20.9026935393
30
0.0000000000
11
7.9132218290
21
-25.9026935393
31
0.0000000000
1001
DSTP_XDATA
1002
{
1000
_OWNERHANDLE=000467B6B8
1002
}
0
LINE
5
254
100
AcDbEntity
8
SYS_DEVICE_BORDER
100
AcDbLine
10
-2.0867781710
20
-20.9026935393
30
0.0000000000
11
7.9132218290
21
-20.9026935393
31
0.0000000000
1001
DSTP_XDATA
1002
{
1000
_OWNERHANDLE=000467B6B8
1002
}
0
LINE
5
255
100
AcDbEntity
8
SYS_DEVICE_BORDER
100
AcDbLine
10
-2.0867781710
20
-25.9026935393
30
0.0000000000
11
-2.0867781710
21
-20.9026935393
31
0.0000000000
1001
DSTP_XDATA
1002
{
1000
_OWNERHANDLE=000467B6B8
1002
}
0
TEXT
5
256
100
AcDbEntity
8
EL_DEVICE_NAME
100
AcDbText
11
2.9132218290
21
-19.9026935393
31
0.0000000000
10
0.1632216974
20
-19.9026935393
30
0.0000000000
40
2.5000000000
50
0.0000000000
41
0.7000000000
51
12.0000000000
72
1
7
R2_5
1
В2.1
100
AcDbText
73
0
1001
DSTP_XDATA
1002
{
1000
_TMPL1=@@[NMO_Name]
1000
_OWNERHANDLE=000467B6B8
1002
}
0
INSERT
5
257
100
AcDbEntity
8
0
100
AcDbBlockReference
2
EL_POSITION
10
11.9132218290
20
-23.4026935393
30
0.0000000000
41
1.0000000000
42
1.0000000000
43
1.0000000000
50
0.0000000000
1001
DSTP_XDATA
1002
{
1000
_OWNERHANDLE=000467B6B8
1000
_HANDLE=00046906A8
1000
_UPGRADE=1
1002
}
0
TEXT
5
258
100
AcDbEntity
8
TEXT
100
AcDbText
11
11.9132218290
21
-22.9026935393
31
0.0000000000
10
11.3715551077
20
-22.9026935393
30
0.0000000000
40
2.5000000000
50
0.0000000000
41
0.7000000000
51
12.0000000000
72
1
7
R2_5
1
1
100
AcDbText
73
0
1001
DSTP_XDATA
1002
{
1000
_TMPL1=@@[Position]
1000
_OWNERHANDLE=00046906A8
1002
}
0
TEXT
5
259
100
AcDbEntity
8
TEXT
100
AcDbText
11
11.9132218290
21
-23.9026935393
31
0.0000000000
10
10.0798883094
20
-26.4026935393
30
0.0000000000
40
2.5000000000
50
0.0000000000
41
0.7000000000
51
12.0000000000
72
1
7
R2_5
1
1.0
100
AcDbText
73
3
1001
DSTP_XDATA
1002
{
1000
_TMPL1=@@[Power]
1000
_OWNERHANDLE=00046906A8
1002
}
0
POLYLINE
5
25A
100
AcDbEntity
8
SYS_METRIC
370
20
100
AcDb3dPolyline
66
1
10
0.0000000000
20
0.0000000000
30
0.0000000000
70
8
1001
DSTP_XDATA
1002
{
1000
USES=System
1000
USES=cables
1000
#0=NMO_Name|GDBString|ШР4-2|Обозначение
1000
#1=NMO_BaseName|GDBString|@|Короткое Имя
1000
#2=NMO_Prefix|GDBString||Префикс
1000
#3=NMO_PrefixTemplate|GDBString||Шаблон префикса
1000
#4=NMO_Suffix|GDBString||Суффикс
1000
#5=NMO_SuffixTemplate|GDBString||Шаблон суффикса
1000
#6=NMO_Template|GDBString|@@[NMO_Prefix]@@[GC_HeadDevice]-@@[GC_HDGroup]@@[NMO_Suffix]|Шаблон Обозначения
1000
#7=DB_link|GDBString|_EQ000000|Материал
1000
#8=LENGTH_RoundTo|GDBInteger|0|Округлять до
1000
#9=LENGTH_Add|GDBDouble|4.0|Добавить к длине
1000
#10=LENGTH_Scale|GDBDouble|0.1|Масштаб
1000
#11=GC_HeadDevice|GDBString|ШР4|Головное устройство
1000
#12=GC_HDShortName|GDBString|4|Короткое имя головного устройства
1000
#13=GC_HDGroup|GDBInteger|2|Группа в головном устройстве
1000
#14=CABLE_Type|TCableType|TCT_Control|Тип
1000
#15=CABLE_Segment|GDBInteger|0|Сегмент
1000
#16=CABLE_WireCount|GDBInteger|0|Число жил
1000
#17=CABLE_TotalCD|GDBInteger|4|Подключено устройств
1000
#18=AmountD|GDBDouble|9.0|Длина
1000
_OWNERHANDLE=0000000064
1000
_UPGRADE=1
1000
_LAYER=0
1002
}
0
VERTEX
5
25B
100
AcDbEntity
8
0
370
20
100
AcDbVertex
100
AcDb3dPolylineVertex
10
18.6110418714
20
17.8317538672
30
0.0000000000
0
VERTEX
5
25C
100
AcDbEntity
8
0
370
20
100
AcDbVertex
100
AcDb3dPolylineVertex
10
21.7115353074
20
7.9291182941
30
0.0000000000
0
VERTEX
5
25D
100
AcDbEntity
8
0
370
20
100
AcDbVertex
100
AcDb3dPolylineVertex
10
14.8394322798
20
-1.9306197215
30
0.0000000000
0
VERTEX
5
25E
100
AcDbEntity
8
0
370
20
100
AcDbVertex
100
AcDb3dPolylineVertex
10
0.4132218290
20
-23.4026935393
30
0.0000000000
0
SEQEND
5
25F
100
AcDbEntity
8
0
370
20
0
LINE
5
260
100
AcDbEntity
8
0
370
20
100
AcDbLine
10
19.3937863774
20
15.3317538672
30
0.0000000000
11
21.4127406209
21
8.8834357126
31
0.0000000000
1001
DSTP_XDATA
1002
{
1000
_OWNERHANDLE=6E
1002
}
0
LINE
5
261
100
AcDbEntity
8
0
370
20
100
AcDbLine
10
21.1397334384
20
7.1087265446
30
0.0000000000
11
16.5818982096
21
0.5693802785
31
0.0000000000
1001
DSTP_XDATA
1002
{
1000
_OWNERHANDLE=6E
1002
}
0
LINE
5
262
100
AcDbEntity
8
0
370
20
100
AcDbLine
10
13.1597842666
20
-4.4306197215
30
0.0000000000
11
2.0928698422
21
-20.9026935393
31
0.0000000000
1001
DSTP_XDATA
1002
{
1000
_OWNERHANDLE=6E
1002
}
0
INSERT
5
263
100
AcDbEntity
8
0
100
AcDbBlockReference
2
EL_CONTACTOR
10
14.8394322798
20
-1.9306197215
30
0.0000000000
41
1.0000000000
42
1.0000000000
43
1.0000000000
50
0.0000000000
1001
DSTP_XDATA
1002
{
1000
USES=System
1000
USES=devices
1000
#0=NMO_Name|GDBString|KM1|Обозначение
1000
#1=NMO_BaseName|GDBString|KM|Короткое Имя
1000
#2=NMO_Prefix|GDBString||Префикс
1000
#3=NMO_Suffix|GDBString|1|Суффикс
1000
#4=NMO_Template|GDBString|@@[NMO_Prefix]@@[NMO_BaseName]@@[NMO_Suffix]|Шаблон Обозначения
1000
#5=DB_link|GDBString|??|Материал
1000
#6=GC_HeadDevice|GDBString|??|
1000
#7=GC_HDShortName|GDBString|??|
1000
#8=GC_HDGroup|GDBInteger|0|
1000
#9=SerialConnection|GDBInteger|1|
1000
#10=GC_NumberInGroup|GDBInteger|0|
1000
#11=Device_Type|TDeviceType|TDT_SilaComm|Тип устройства
1000
#12=Device_Class|TDeviceClass|TDC_Shell|Класс устройства
1000
#13=Device_Group|TDeviceGroup|TDG_ElDevice|Группа устройства
1000
#14=BTY_TreeCoord|GDBString|PLAN_EM_Пускатель|Позиция в дереве
1000
_OWNERHANDLE=0000000064
1000
_HANDLE=0004691218
1000
_UPGRADE=1
1002
}
0
INSERT
5
264
100
AcDbEntity
8
0
100
AcDbBlockReference
2
CONNECTOR_SQUARE
10
14.8394322798
20
-1.9306197215
30
0.0000000000
41
1.0000000000
42
1.0000000000
43
1.0000000000
50
0.0000000000
1001
DSTP_XDATA
1002
{
1000
USES=System
1000
USES=connectors
1000
USES=devices
1000
#0=DeviceClass|TDeviceClass|TDC_Unknown|Класс устройства
1000
#1=Connector_Type|TConnectorType|TCT_ElCable|Тип соединения
1000
#2=Border_Type|TConnectorBorderType|TCBT_Owner|Граница подрезки
1000
#3=Connector_Name|GDBString||Имя соединения
1000
#4=Connector_Junction|GDBBoolean|False|Возможность ответвления
1000
#5=LENGTH_Add|GDBDouble|0.0|Добавить к длине
1000
_OWNERHANDLE=0004691218
1000
_HANDLE=000468DCB8
1000
_UPGRADE=1
1002
}
0
LINE
5
265
100
AcDbEntity
8
SYS_METRIC
100
AcDbLine
10
13.8394322798
20
-1.9306197215
30
0.0000000000
11
15.8394322798
21
-1.9306197215
31
0.0000000000
1001
DSTP_XDATA
1002
{
1000
_OWNERHANDLE=000468DCB8
1002
}
0
LINE
5
266
100
AcDbEntity
8
SYS_METRIC
100
AcDbLine
10
14.8394322798
20
-0.9306197215
30
0.0000000000
11
14.8394322798
21
-2.9306197215
31
0.0000000000
1001
DSTP_XDATA
1002
{
1000
_OWNERHANDLE=000468DCB8
1002
}
0
LINE
5
267
100
AcDbEntity
8
SYS_DEVICE_BORDER
100
AcDbLine
10
17.3394322798
20
-4.4306197215
30
0.0000000000
11
12.3394322798
21
-4.4306197215
31
0.0000000000
1001
DSTP_XDATA
1002
{
1000
_OWNERHANDLE=0004691218
1002
}
0
LINE
5
268
100
AcDbEntity
8
SYS_DEVICE_BORDER
100
AcDbLine
10
17.3394322798
20
0.5693802785
30
0.0000000000
11
17.3394322798
21
-4.4306197215
31
0.0000000000
1001
DSTP_XDATA
1002
{
1000
_OWNERHANDLE=0004691218
1002
}
0
LINE
5
269
100
AcDbEntity
8
SYS_DEVICE_BORDER
100
AcDbLine
10
12.3394322798
20
0.5693802785
30
0.0000000000
11
17.3394322798
21
0.5693802785
31
0.0000000000
1001
DSTP_XDATA
1002
{
1000
_OWNERHANDLE=0004691218
1002
}
0
LINE
5
26A
100
AcDbEntity
8
SYS_DEVICE_BORDER
100
AcDbLine
10
12.3394322798
20
-4.4306197215
30
0.0000000000
11
12.3394322798
21
0.5693802785
31
0.0000000000
1001
DSTP_XDATA
1002
{
1000
_OWNERHANDLE=0004691218
1002
}
0
TEXT
5
26B
100
AcDbEntity
8
EL_DEVICE_NAME
100
AcDbText
11
14.8394322798
21
1.5693802785
31
0.0000000000
10
12.2977655734
20
1.5693802785
30
0.0000000000
40
2.5000000000
50
0.0000000000
41
0.7000000000
51
12.0000000000
72
1
7
R2_5
1
KM1
100
AcDbText
73
0
1001
DSTP_XDATA
1002
{
1000
_TMPL1=@@[NMO_Name]
1000
_OWNERHANDLE=0004691218
1002
}
0
INSERT
5
26C
100
AcDbEntity
8
0
100
AcDbBlockReference
2
KIP_UKP
10
21.7115353074
20
7.9291182941
30
0.0000000000
41
1.0000000000
42
1.0000000000
43
1.0000000000
50
0.0000000000
1001
DSTP_XDATA
1002
{
1000
USES=System
1000
USES=devices
1000
#0=NMO_Name|GDBString|C2|Обозначение
1000
#1=NMO_BaseName|GDBString|C|Короткое Имя
1000
#2=NMO_Prefix|GDBString||Префикс
1000
#3=NMO_Suffix|GDBString|2|Суффикс
1000
#4=NMO_Template|GDBString|@@[NMO_Prefix]@@[NMO_BaseName]@@[NMO_Suffix]|Шаблон Обозначения
1000
#5=DB_link|GDBString|Коробка|Материал
1000
#6=EL_Cab_AddLength|GDBDouble|0.1|Добавлять к длине кабеля
1000
#7=Device_Type|TDeviceType|TDT_Junction|Тип устройства
1000
#8=Device_Class|TDeviceClass|TDC_Shell|Класс устройства
1000
#9=Device_Group|TDeviceGroup|TDG_ElDevice|Группа устройства
1000
#10=BTY_TreeCoord|GDBString|PLAN_KIPIA_Коробка ответвительная|Позиция в дереве
1000
_OWNERHANDLE=0000000064
1000
_HANDLE=0007C26C88
1000
_UPGRADE=1
1002
}
0
INSERT
5
26D
100
AcDbEntity
8
0
100
AcDbBlockReference
2
CONNECTOR_SQUARE
10
21.7115353074
20
7.9291182941
30
0.0000000000
41
1.0000000000
42
1.0000000000
43
1.0000000000
50
0.0000000000
1001
DSTP_XDATA
1002
{
1000
USES=System
1000
USES=connectors
1000
USES=devices
1000
#0=DeviceClass|TDeviceClass|TDC_Unknown|Класс устройства
1000
#1=Connector_Type|TConnectorType|TCT_ElCable|Тип соединения
1000
#2=Border_Type|TConnectorBorderType|TCBT_Owner|Граница подрезки
1000
#3=Connector_Name|GDBString||Имя соединения
1000
#4=Connector_Junction|GDBBoolean|False|Возможность ответвления
1000
#5=LENGTH_Add|GDBDouble|0.0|Добавить к длине
1000
_OWNERHANDLE=0007C26C88
1000
_HANDLE=0007C1D188
1000
_UPGRADE=1
1002
}
0
LINE
5
26E
100
AcDbEntity
8
SYS_METRIC
100
AcDbLine
10
20.7115353074
20
7.9291182941
30
0.0000000000
11
22.7115353074
21
7.9291182941
31
0.0000000000
1001
DSTP_XDATA
1002
{
1000
_OWNERHANDLE=0007C1D188
1002
}
0
LINE
5
26F
100
AcDbEntity
8
SYS_METRIC
100
AcDbLine
10
21.7115353074
20
8.9291182941
30
0.0000000000
11
21.7115353074
21
6.9291182941
31
0.0000000000
1001
DSTP_XDATA
1002
{
1000
_OWNERHANDLE=0007C1D188
1002
}
0
TEXT
5
270
100
AcDbEntity
8
SYS_METRIC
100
AcDbText
11
21.7115353074
21
9.9291182941
31
0.0000000000
10
20.2948686382
20
9.9291182941
30
0.0000000000
40
2.5000000000
50
0.0000000000
41
0.7000000000
51
12.0000000000
72
1
7
R2_5
1
C2
100
AcDbText
73
0
1001
DSTP_XDATA
1002
{
1000
_TMPL1=@@[NMO_Name]
1000
_OWNERHANDLE=0007C26C88
1002
}
0
CIRCLE
5
271
100
AcDbEntity
8
SYS_DEVICE_BORDER
100
AcDbCircle
10
21.7115353074
20
7.9291182941
30
0.0000000000
40
1.0000000000
1001
DSTP_XDATA
1002
{
1000
_OWNERHANDLE=0007C26C88
1002
}
0
INSERT
5
272
100
AcDbEntity
8
0
100
AcDbBlockReference
2
EL_MOTOR
10
37.6739188119
20
-23.4026935393
30
0.0000000000
41
1.0000000000
42
1.0000000000
43
1.0000000000
50
0.0000000000
1001
DSTP_XDATA
1002
{
1000
USES=System
1000
USES=devices
1000
#0=Device_Type|TDeviceType|TDT_SilaPotr|Тип устройства
1000
#1=Device_Class|TDeviceClass|TDC_Shell|Класс устройства
1000
#2=Device_Group|TDeviceGroup|TDG_ElDevice|Группа устройства
1000
#3=BTY_TreeCoord|GDBString|PLAN_EM_Двигатель|Позиция в дереве
1000
#4=NMO_Template|GDBString|@@[NMO_BaseName]@@[NameNumber].2|Шаблон Обозначения
1000
#5=NMO_Name|GDBString|В2.2|Обозначение
1000
#6=NMO_BaseName|GDBString|В|Короткое Имя
1000
#7=NameNumber|GDBInteger|2|Номер
1000
#8=Position|GDBInteger|1|Позиция по заданию ТХ
1000
#9=CalcIP|TCalcIP|_I_from_P|Способ расчета
1000
#10=Power|GDBDouble|1.0|Мощность, кВт
1000
#11=Current|GDBDouble|2.17306271458994|Ток, А
1000
#12=CosPHI|GDBDouble|0.7|Cos(фи)
1000
#13=Ks|GDBDouble|1.0|Коэффициент спроса
1000
#14=PV|GDBDouble|1.0|Продолжительность включения
1000
#15=Voltage|TVoltage|_AC_380V_50Hz|Напряжение питания
1000
#16=Phase|TPhase|_ABC|Фаза
1000
#17=DB_link|GDBString|El_Motor|Материал
1000
#18=AmountI|GDBInteger|1|Количество
1000
#19=GC_HeadDevice|GDBString|ARK??|
1000
#20=GC_HDShortName|GDBString|??|
1000
#21=GC_HDGroup|GDBInteger|0|
1000
#22=SerialConnection|GDBInteger|1|
1000
#23=GC_NumberInGroup|GDBInteger|0|Номер в группе
1000
#24=EL_Cab_AddLength|GDBDouble|0.1|Добавлять к длине кабеля
1000
_OWNERHANDLE=0000000064
1000
_HANDLE=0007C222B8
1000
_UPGRADE=1
1002
}
0
INSERT
5
273
100
AcDbEntity
8
0
100
AcDbBlockReference
2
CONNECTOR_SQUARE
10
37.6739188119
20
-23.4026935393
30
0.0000000000
41
1.0000000000
42
1.0000000000
43
1.0000000000
50
0.0000000000
1001
DSTP_XDATA
1002
{
1000
USES=System
1000
USES=connectors
1000
USES=devices
1000
#0=DeviceClass|TDeviceClass|TDC_Unknown|Класс устройства
1000
#1=Connector_Type|TConnectorType|TCT_ElCable|Тип соединения
1000
#2=Border_Type|TConnectorBorderType|TCBT_Owner|Граница подрезки
1000
#3=Connector_Name|GDBString||Имя соединения
1000
#4=Connector_Junction|GDBBoolean|False|Возможность ответвления
1000
#5=LENGTH_Add|GDBDouble|0.0|Добавить к длине
1000
_OWNERHANDLE=0007C222B8
1000
_HANDLE=0007C23678
1000
_UPGRADE=1
1002
}
0
LINE
5
274
100
AcDbEntity
8
SYS_METRIC
100
AcDbLine
10
36.6739188119
20
-23.4026935393
30
0.0000000000
11
38.6739188119
21
-23.4026935393
31
0.0000000000
1001
DSTP_XDATA
1002
{
1000
_OWNERHANDLE=0007C23678
1002
}
0
LINE
5
275
100
AcDbEntity
8
SYS_METRIC
100
AcDbLine
10
37.6739188119
20
-22.4026935393
30
0.0000000000
11
37.6739188119
21
-24.4026935393
31
0.0000000000
1001
DSTP_XDATA
1002
{
1000
_OWNERHANDLE=0007C23678
1002
}
0
LINE
5
276
100
AcDbEntity
8
SYS_DEVICE_BORDER
100
AcDbLine
10
45.1739188119
20
-25.9026935393
30
0.0000000000
11
35.1739188119
21
-25.9026935393
31
0.0000000000
1001
DSTP_XDATA
1002
{
1000
_OWNERHANDLE=0007C222B8
1002
}
0
LINE
5
277
100
AcDbEntity
8
SYS_DEVICE_BORDER
100
AcDbLine
10
45.1739188119
20
-20.9026935393
30
0.0000000000
11
45.1739188119
21
-25.9026935393
31
0.0000000000
1001
DSTP_XDATA
1002
{
1000
_OWNERHANDLE=0007C222B8
1002
}
0
LINE
5
278
100
AcDbEntity
8
SYS_DEVICE_BORDER
100
AcDbLine
10
35.1739188119
20
-20.9026935393
30
0.0000000000
11
45.1739188119
21
-20.9026935393
31
0.0000000000
1001
DSTP_XDATA
1002
{
1000
_OWNERHANDLE=0007C222B8
1002
}
0
LINE
5
279
100
AcDbEntity
8
SYS_DEVICE_BORDER
100
AcDbLine
10
35.1739188119
20
-25.9026935393
30
0.0000000000
11
35.1739188119
21
-20.9026935393
31
0.0000000000
1001
DSTP_XDATA
1002
{
1000
_OWNERHANDLE=0007C222B8
1002
}
0
TEXT
5
27A
100
AcDbEntity
8
EL_DEVICE_NAME
100
AcDbText
11
40.1739188119
21
-19.9026935393
31
0.0000000000
10
37.4239187324
20
-19.9026935393
30
0.0000000000
40
2.5000000000
50
0.0000000000
41
0.7000000000
51
12.0000000000
72
1
7
R2_5
1
В2.2
100
AcDbText
73
0
1001
DSTP_XDATA
1002
{
1000
_TMPL1=@@[NMO_Name]
1000
_OWNERHANDLE=0007C222B8
1002
}
0
INSERT
5
27B
100
AcDbEntity
8
0
100
AcDbBlockReference
2
EL_POSITION
10
49.1739188119
20
-23.4026935393
30
0.0000000000
41
1.0000000000
42
1.0000000000
43
1.0000000000
50
0.0000000000
1001
DSTP_XDATA
1002
{
1000
_OWNERHANDLE=0007C222B8
1000
_HANDLE=0007C2E758
1000
_UPGRADE=1
1002
}
0
TEXT
5
27C
100
AcDbEntity
8
TEXT
100
AcDbText
11
49.1739188119
21
-22.9026935393
31
0.0000000000
10
48.6322520906
20
-22.9026935393
30
0.0000000000
40
2.5000000000
50
0.0000000000
41
0.7000000000
51
12.0000000000
72
1
7
R2_5
1
1
100
AcDbText
73
0
1001
DSTP_XDATA
1002
{
1000
_TMPL1=@@[Position]
1000
_OWNERHANDLE=0007C2E758
1002
}
0
TEXT
5
27D
100
AcDbEntity
8
TEXT
100
AcDbText
11
49.1739188119
21
-23.9026935393
31
0.0000000000
10
47.3405852923
20
-26.4026935393
30
0.0000000000
40
2.5000000000
50
0.0000000000
41
0.7000000000
51
12.0000000000
72
1
7
R2_5
1
1.0
100
AcDbText
73
3
1001
DSTP_XDATA
1002
{
1000
_TMPL1=@@[Power]
1000
_OWNERHANDLE=0007C2E758
1002
}
0
POLYLINE
5
27E
100
AcDbEntity
8
SYS_METRIC
370
20
100
AcDb3dPolyline
66
1
10
0.0000000000
20
0.0000000000
30
0.0000000000
70
8
1001
DSTP_XDATA
1002
{
1000
USES=System
1000
USES=cables
1000
#0=NMO_Name|GDBString|@2|Обозначение
1000
#1=NMO_BaseName|GDBString|@|Короткое Имя
1000
#2=NMO_Prefix|GDBString||Префикс
1000
#3=NMO_PrefixTemplate|GDBString||Шаблон префикса
1000
#4=NMO_Suffix|GDBString|2|Суффикс
1000
#5=NMO_SuffixTemplate|GDBString||Шаблон суффикса
1000
#6=NMO_Template|GDBString|@@[NMO_Prefix]@@[NMO_BaseName]@@[NMO_Suffix]|Шаблон Обозначения
1000
#7=DB_link|GDBString|_EQ000000|Материал
1000
#8=LENGTH_RoundTo|GDBInteger|0|Округлять до
1000
#9=LENGTH_Add|GDBDouble|4.0|Добавить к длине
1000
#10=LENGTH_Scale|GDBDouble|0.1|Масштаб
1000
#11=GC_HeadDevice|GDBString|??|Головное устройство
1000
#12=GC_HDShortName|GDBString|??|Короткое имя головного устройства
1000
#13=GC_HDGroup|GDBInteger|0|Группа в головном устройстве
1000
#14=CABLE_Type|TCableType|TCT_Control|Тип
1000
#15=CABLE_Segment|GDBInteger|0|Сегмент
1000
#16=CABLE_WireCount|GDBInteger|0|Число жил
1000
#17=CABLE_TotalCD|GDBInteger|3|Подключено устройств
1000
#18=AmountD|GDBDouble|8.0|Длина
1000
_OWNERHANDLE=0000000064
1000
_UPGRADE=1
1000
_LAYER=0
1002
}
0
VERTEX
5
27F
100
AcDbEntity
8
0
370
20
100
AcDbVertex
100
AcDb3dPolylineVertex
10
21.7115353074
20
7.9291182941
30
0.0000000000
0
VERTEX
5
280
100
AcDbEntity
8
0
370
20
100
AcDbVertex
100
AcDb3dPolylineVertex
10
32.6947603865
20
-3.1926397181
30
0.0000000000
0
VERTEX
5
281
100
AcDbEntity
8
0
370
20
100
AcDbVertex
100
AcDb3dPolylineVertex
10
37.6739188119
20
-23.4026935393
30
0.0000000000
0
SEQEND
5
282
100
AcDbEntity
8
0
370
20
0
LINE
5
283
100
AcDbEntity
8
0
370
20
100
AcDbLine
10
22.4141968196
20
7.2175940153
30
0.0000000000
11
30.2259004574
21
-0.6926397181
31
0.0000000000
1001
DSTP_XDATA
1002
{
1000
_OWNERHANDLE=6E
1002
}
0
LINE
5
284
100
AcDbEntity
8
0
370
20
100
AcDbLine
10
33.3106863100
20
-5.6926397181
30
0.0000000000
11
37.0579928884
21
-20.9026935393
31
0.0000000000
1001
DSTP_XDATA
1002
{
1000
_OWNERHANDLE=6E
1002
}
0
POLYLINE
5
285
100
AcDbEntity
8
SYS_METRIC
370
20
100
AcDb3dPolyline
66
1
10
0.0000000000
20
0.0000000000
30
0.0000000000
70
8
1001
DSTP_XDATA
1002
{
1000
USES=System
1000
USES=cables
1000
#0=NMO_Name|GDBString|@4|Обозначение
1000
#1=NMO_BaseName|GDBString|@|Короткое Имя
1000
#2=NMO_Prefix|GDBString||Префикс
1000
#3=NMO_PrefixTemplate|GDBString||Шаблон префикса
1000
#4=NMO_Suffix|GDBString|4|Суффикс
1000
#5=NMO_SuffixTemplate|GDBString||Шаблон суффикса
1000
#6=NMO_Template|GDBString|@@[NMO_Prefix]@@[NMO_BaseName]@@[NMO_Suffix]|Шаблон Обозначения
1000
#7=DB_link|GDBString|_EQ000001|Материал
1000
#8=LENGTH_RoundTo|GDBInteger|0|Округлять до
1000
#9=LENGTH_Add|GDBDouble|4.0|Добавить к длине
1000
#10=LENGTH_Scale|GDBDouble|0.1|Масштаб
1000
#11=GC_HeadDevice|GDBString|??|Головное устройство
1000
#12=GC_HDShortName|GDBString|??|Короткое имя головного устройства
1000
#13=GC_HDGroup|GDBInteger|0|Группа в головном устройстве
1000
#14=CABLE_Type|TCableType|TCT_Control|Тип
1000
#15=CABLE_Segment|GDBInteger|0|Сегмент
1000
#16=CABLE_WireCount|GDBInteger|0|Число жил
1000
#17=CABLE_TotalCD|GDBInteger|2|Подключено устройств
1000
#18=AmountD|GDBDouble|5.0|Длина
1000
_OWNERHANDLE=0000000064
1000
_UPGRADE=1
1000
_LAYER=0
1002
}
0
VERTEX
5
286
100
AcDbEntity
8
0
370
20
100
AcDbVertex
100
AcDb3dPolylineVertex
10
0.4132218290
20
-23.4026935393
30
0.0000000000
0
VERTEX
5
287
100
AcDbEntity
8
0
370
20
100
AcDbVertex
100
AcDb3dPolylineVertex
10
-11.1103850816
20
-26.4834202500
30
0.0000000000
0
SEQEND
5
288
100
AcDbEntity
8
0
370
20
0
LINE
5
289
100
AcDbEntity
8
0
370
20
100
AcDbLine
10
-2.0867781710
20
-24.0710447627
30
0.0000000000
11
-9.8603850816
21
-26.1492446383
31
0.0000000000
1001
DSTP_XDATA
1002
{
1000
_OWNERHANDLE=6E
1002
}
0
LINE
5
28A
100
AcDbEntity
8
0
100
AcDbLine
10
-8.1016988062
20
13.3729460542
30
0.0000000000
11
-13.4271568632
21
18.6984041113
31
0.0000000000
1001
DSTP_XDATA
1002
{
1000
_UPGRADE=1
1002
}
0
LINE
5
28B
100
AcDbEntity
8
0
100
AcDbLine
10
-8.8088055874
20
12.6658392730
30
0.0000000000
11
-7.3945920250
21
14.0800528354
31
0.0000000000
1001
DSTP_XDATA
1002
{
1000
_OWNERHANDLE=000000006E
1002
}
0
MTEXT
5
28C
100
AcDbEntity
8
0
100
AcDbMText
10
-18.4271568632
20
21.6984041113
30
0.0000000000
40
2.5000000000
41
0.0000000000
71
2
1
ШР4-1
7
R2_5
11
1.0000000000
21
0.0000000000
31
0.0000000000
44
0.9600000000
1001
DSTP_XDATA
1002
{
1000
_OWNERHANDLE=000000006E
1002
}
0
LINE
5
28D
100
AcDbEntity
8
0
100
AcDbLine
10
-23.4271568632
20
22.6984041113
30
0.0000000000
11
-13.4271568632
21
22.6984041113
31
0.0000000000
1001
DSTP_XDATA
1002
{
1000
_OWNERHANDLE=000000006E
1002
}
0
LINE
5
28E
100
AcDbEntity
8
0
100
AcDbLine
10
-23.4271568632
20
18.6984041113
30
0.0000000000
11
-13.4271568632
21
18.6984041113
31
0.0000000000
1001
DSTP_XDATA
1002
{
1000
_OWNERHANDLE=000000006E
1002
}
0
LINE
5
28F
100
AcDbEntity
8
0
100
AcDbLine
10
-23.4271568632
20
22.6984041113
30
0.0000000000
11
-23.4271568632
21
18.6984041113
31
0.0000000000
1001
DSTP_XDATA
1002
{
1000
_OWNERHANDLE=000000006E
1002
}
0
LINE
5
290
100
AcDbEntity
8
0
100
AcDbLine
10
-13.4271568632
20
22.6984041113
30
0.0000000000
11
-13.4271568632
21
18.6984041113
31
0.0000000000
1001
DSTP_XDATA
1002
{
1000
_OWNERHANDLE=000000006E
1002
}
0
LINE
5
291
100
AcDbEntity
8
0
100
AcDbLine
10
-42.4060054660
20
-4.3883065940
30
0.0000000000
11
-37.7547365172
21
-9.0395755427
31
0.0000000000
1001
DSTP_XDATA
1002
{
1000
_UPGRADE=1
1002
}
0
LINE
5
292
100
AcDbEntity
8
0
100
AcDbLine
10
-41.6988986848
20
-3.6811998128
30
0.0000000000
11
-43.1131122472
21
-5.0954133752
31
0.0000000000
1001
DSTP_XDATA
1002
{
1000
_OWNERHANDLE=000000006E
1002
}
0
MTEXT
5
293
100
AcDbEntity
8
0
100
AcDbMText
10
-32.7547365172
20
-10.0395755427
30
0.0000000000
40
2.5000000000
41
0.0000000000
71
2
1
@1
7
R2_5
11
1.0000000000
21
0.0000000000
31
0.0000000000
44
0.9600000000
1001
DSTP_XDATA
1002
{
1000
_OWNERHANDLE=000000006E
1002
}
0
LINE
5
294
100
AcDbEntity
8
0
100
AcDbLine
10
-37.7547365172
20
-9.0395755427
30
0.0000000000
11
-27.7547365172
21
-9.0395755427
31
0.0000000000
1001
DSTP_XDATA
1002
{
1000
_OWNERHANDLE=000000006E
1002
}
0
LINE
5
295
100
AcDbEntity
8
0
100
AcDbLine
10
-37.7547365172
20
-13.0395755427
30
0.0000000000
11
-27.7547365172
21
-13.0395755427
31
0.0000000000
1001
DSTP_XDATA
1002
{
1000
_OWNERHANDLE=000000006E
1002
}
0
LINE
5
296
100
AcDbEntity
8
0
100
AcDbLine
10
-37.7547365172
20
-9.0395755427
30
0.0000000000
11
-37.7547365172
21
-13.0395755427
31
0.0000000000
1001
DSTP_XDATA
1002
{
1000
_OWNERHANDLE=000000006E
1002
}
0
LINE
5
297
100
AcDbEntity
8
0
100
AcDbLine
10
-27.7547365172
20
-9.0395755427
30
0.0000000000
11
-27.7547365172
21
-13.0395755427
31
0.0000000000
1001
DSTP_XDATA
1002
{
1000
_OWNERHANDLE=000000006E
1002
}
0
LINE
5
298
100
AcDbEntity
8
0
100
AcDbLine
10
-79.7836802106
20
3.6795804120
30
0.0000000000
11
-85.9784642716
21
8.8904570458
31
0.0000000000
1001
DSTP_XDATA
1002
{
1000
_UPGRADE=1
1002
}
0
LINE
5
299
100
AcDbEntity
8
0
100
AcDbLine
10
-79.7836802106
20
3.6795804120
30
0.0000000000
11
-79.7836802106
21
3.6795804120
31
0.0000000000
1001
DSTP_XDATA
1002
{
1000
_OWNERHANDLE=000000006E
1002
}
0
MTEXT
5
29A
100
AcDbEntity
8
0
100
AcDbMText
10
-90.9784642716
20
11.8904570458
30
0.0000000000
40
2.5000000000
41
0.0000000000
71
2
1
ШР4-1
7
R2_5
11
1.0000000000
21
0.0000000000
31
0.0000000000
44
0.9600000000
1001
DSTP_XDATA
1002
{
1000
_OWNERHANDLE=000000006E
1002
}
0
LINE
5
29B
100
AcDbEntity
8
0
100
AcDbLine
10
-95.9784642716
20
12.8904570458
30
0.0000000000
11
-85.9784642716
21
12.8904570458
31
0.0000000000
1001
DSTP_XDATA
1002
{
1000
_OWNERHANDLE=000000006E
1002
}
0
LINE
5
29C
100
AcDbEntity
8
0
100
AcDbLine
10
-95.9784642716
20
8.8904570458
30
0.0000000000
11
-85.9784642716
21
8.8904570458
31
0.0000000000
1001
DSTP_XDATA
1002
{
1000
_OWNERHANDLE=000000006E
1002
}
0
LINE
5
29D
100
AcDbEntity
8
0
100
AcDbLine
10
-95.9784642716
20
12.8904570458
30
0.0000000000
11
-95.9784642716
21
8.8904570458
31
0.0000000000
1001
DSTP_XDATA
1002
{
1000
_OWNERHANDLE=000000006E
1002
}
0
LINE
5
29E
100
AcDbEntity
8
0
100
AcDbLine
10
-85.9784642716
20
12.8904570458
30
0.0000000000
11
-85.9784642716
21
8.8904570458
31
0.0000000000
1001
DSTP_XDATA
1002
{
1000
_OWNERHANDLE=000000006E
1002
}
0
MTEXT
5
29F
100
AcDbEntity
8
0
100
AcDbMText
10
-85.9784642716
20
14.3904570458
30
0.0000000000
40
2.5000000000
41
0.0000000000
71
9
1
В1.1
7
R2_5
11
1.0000000000
21
0.0000000000
31
0.0000000000
44
0.0000000000
1001
DSTP_XDATA
1002
{
1000
_OWNERHANDLE=000000006E
1002
}
0
LINE
5
2A0
100
AcDbEntity
8
0
100
AcDbLine
10
-85.9784642716
20
13.8904570458
30
0.0000000000
11
-85.9784642716
21
12.8904570458
31
0.0000000000
1001
DSTP_XDATA
1002
{
1000
_OWNERHANDLE=000000006E
1002
}
0
LINE
5
2A1
100
AcDbEntity
8
0
100
AcDbLine
10
-85.9784642716
20
13.8904570458
30
0.0000000000
11
-91.4784646392
21
13.8904570458
31
0.0000000000
1001
DSTP_XDATA
1002
{
1000
_OWNERHANDLE=000000006E
1002
}
0
LINE
5
2A2
100
AcDbEntity
8
0
100
AcDbLine
10
-107.5592965020
20
-10.3041099045
30
0.0000000000
11
-112.9368642716
21
-5.2383429542
31
0.0000000000
1001
DSTP_XDATA
1002
{
1000
_UPGRADE=1
1002
}
0
LINE
5
2A3
100
AcDbEntity
8
0
100
AcDbLine
10
-107.5592965020
20
-10.3041099045
30
0.0000000000
11
-107.5592965020
21
-10.3041099045
31
0.0000000000
1001
DSTP_XDATA
1002
{
1000
_OWNERHANDLE=000000006E
1002
}
0
MTEXT
5
2A4
100
AcDbEntity
8
0
100
AcDbMText
10
-117.9368642716
20
-2.2383429542
30
0.0000000000
40
2.5000000000
41
0.0000000000
71
2
1
ШР4-1
7
R2_5
11
1.0000000000
21
0.0000000000
31
0.0000000000
44
0.9600000000
1001
DSTP_XDATA
1002
{
1000
_OWNERHANDLE=000000006E
1002
}
0
LINE
5
2A5
100
AcDbEntity
8
0
100
AcDbLine
10
-122.9368642716
20
-1.2383429542
30
0.0000000000
11
-112.9368642716
21
-1.2383429542
31
0.0000000000
1001
DSTP_XDATA
1002
{
1000
_OWNERHANDLE=000000006E
1002
}
0
LINE
5
2A6
100
AcDbEntity
8
0
100
AcDbLine
10
-122.9368642716
20
-5.2383429542
30
0.0000000000
11
-112.9368642716
21
-5.2383429542
31
0.0000000000
1001
DSTP_XDATA
1002
{
1000
_OWNERHANDLE=000000006E
1002
}
0
LINE
5
2A7
100
AcDbEntity
8
0
100
AcDbLine
10
-122.9368642716
20
-1.2383429542
30
0.0000000000
11
-122.9368642716
21
-5.2383429542
31
0.0000000000
1001
DSTP_XDATA
1002
{
1000
_OWNERHANDLE=000000006E
1002
}
0
LINE
5
2A8
100
AcDbEntity
8
0
100
AcDbLine
10
-112.9368642716
20
-1.2383429542
30
0.0000000000
11
-112.9368642716
21
-5.2383429542
31
0.0000000000
1001
DSTP_XDATA
1002
{
1000
_OWNERHANDLE=000000006E
1002
}
0
MTEXT
5
2A9
100
AcDbEntity
8
0
100
AcDbMText
10
-112.9368642716
20
0.2616570458
30
0.0000000000
40
2.5000000000
41
0.0000000000
71
9
1
В1.2
7
R2_5
11
1.0000000000
21
0.0000000000
31
0.0000000000
44
0.0000000000
1001
DSTP_XDATA
1002
{
1000
_OWNERHANDLE=000000006E
1002
}
0
LINE
5
2AA
100
AcDbEntity
8
0
100
AcDbLine
10
-112.9368642716
20
-0.2383429542
30
0.0000000000
11
-112.9368642716
21
-1.2383429542
31
0.0000000000
1001
DSTP_XDATA
1002
{
1000
_OWNERHANDLE=000000006E
1002
}
0
LINE
5
2AB
100
AcDbEntity
8
0
100
AcDbLine
10
-112.9368642716
20
-0.2383429542
30
0.0000000000
11
-118.4368645349
21
-0.2383429542
31
0.0000000000
1001
DSTP_XDATA
1002
{
1000
_OWNERHANDLE=000000006E
1002
}
0
LINE
5
2AC
100
AcDbEntity
8
0
100
AcDbLine
10
-130.2101321433
20
-28.3101005882
30
0.0000000000
11
-136.1600642716
21
-24.2391429542
31
0.0000000000
1001
DSTP_XDATA
1002
{
1000
_UPGRADE=1
1002
}
0
LINE
5
2AD
100
AcDbEntity
8
0
100
AcDbLine
10
-130.2101321433
20
-28.3101005882
30
0.0000000000
11
-130.2101321433
21
-28.3101005882
31
0.0000000000
1001
DSTP_XDATA
1002
{
1000
_OWNERHANDLE=000000006E
1002
}
0
MTEXT
5
2AE
100
AcDbEntity
8
0
100
AcDbMText
10
-141.1600642716
20
-21.2391429542
30
0.0000000000
40
2.5000000000
41
0.0000000000
71
2
1
ШР4-1
7
R2_5
11
1.0000000000
21
0.0000000000
31
0.0000000000
44
0.9600000000
1001
DSTP_XDATA
1002
{
1000
_OWNERHANDLE=000000006E
1002
}
0
LINE
5
2AF
100
AcDbEntity
8
0
100
AcDbLine
10
-146.1600642716
20
-20.2391429542
30
0.0000000000
11
-136.1600642716
21
-20.2391429542
31
0.0000000000
1001
DSTP_XDATA
1002
{
1000
_OWNERHANDLE=000000006E
1002
}
0
LINE
5
2B0
100
AcDbEntity
8
0
100
AcDbLine
10
-146.1600642716
20
-24.2391429542
30
0.0000000000
11
-136.1600642716
21
-24.2391429542
31
0.0000000000
1001
DSTP_XDATA
1002
{
1000
_OWNERHANDLE=000000006E
1002
}
0
LINE
5
2B1
100
AcDbEntity
8
0
100
AcDbLine
10
-146.1600642716
20
-20.2391429542
30
0.0000000000
11
-146.1600642716
21
-24.2391429542
31
0.0000000000
1001
DSTP_XDATA
1002
{
1000
_OWNERHANDLE=000000006E
1002
}
0
LINE
5
2B2
100
AcDbEntity
8
0
100
AcDbLine
10
-136.1600642716
20
-20.2391429542
30
0.0000000000
11
-136.1600642716
21
-24.2391429542
31
0.0000000000
1001
DSTP_XDATA
1002
{
1000
_OWNERHANDLE=000000006E
1002
}
0
MTEXT
5
2B3
100
AcDbEntity
8
0
100
AcDbMText
10
-136.1600642716
20
-18.7391429542
30
0.0000000000
40
2.5000000000
41
0.0000000000
71
9
1
В1.3
7
R2_5
11
1.0000000000
21
0.0000000000
31
0.0000000000
44
0.0000000000
1001
DSTP_XDATA
1002
{
1000
_OWNERHANDLE=000000006E
1002
}
0
LINE
5
2B4
100
AcDbEntity
8
0
100
AcDbLine
10
-136.1600642716
20
-19.2391429542
30
0.0000000000
11
-136.1600642716
21
-20.2391429542
31
0.0000000000
1001
DSTP_XDATA
1002
{
1000
_OWNERHANDLE=000000006E
1002
}
0
LINE
5
2B5
100
AcDbEntity
8
0
100
AcDbLine
10
-136.1600642716
20
-19.2391429542
30
0.0000000000
11
-141.6600646392
21
-19.2391429542
31
0.0000000000
1001
DSTP_XDATA
1002
{
1000
_OWNERHANDLE=000000006E
1002
}
0
LINE
5
2B6
100
AcDbEntity
8
0
100
AcDbLine
10
-55.1866811279
20
-25.0448533383
30
0.0000000000
11
-48.6264642716
21
-32.6839429542
31
0.0000000000
1001
DSTP_XDATA
1002
{
1000
_UPGRADE=1
1002
}
0
LINE
5
2B7
100
AcDbEntity
8
0
100
AcDbLine
10
-55.1866811279
20
-25.0448533383
30
0.0000000000
11
-55.1866811279
21
-25.0448533383
31
0.0000000000
1001
DSTP_XDATA
1002
{
1000
_OWNERHANDLE=000000006E
1002
}
0
MTEXT
5
2B8
100
AcDbEntity
8
0
100
AcDbMText
10
-43.6264642716
20
-33.6839429542
30
0.0000000000
40
2.5000000000
41
0.0000000000
71
2
1
@1
7
R2_5
11
1.0000000000
21
0.0000000000
31
0.0000000000
44
0.9600000000
1001
DSTP_XDATA
1002
{
1000
_OWNERHANDLE=000000006E
1002
}
0
LINE
5
2B9
100
AcDbEntity
8
0
100
AcDbLine
10
-48.6264642716
20
-32.6839429542
30
0.0000000000
11
-38.6264642716
21
-32.6839429542
31
0.0000000000
1001
DSTP_XDATA
1002
{
1000
_OWNERHANDLE=000000006E
1002
}
0
LINE
5
2BA
100
AcDbEntity
8
0
100
AcDbLine
10
-48.6264642716
20
-36.6839429542
30
0.0000000000
11
-38.6264642716
21
-36.6839429542
31
0.0000000000
1001
DSTP_XDATA
1002
{
1000
_OWNERHANDLE=000000006E
1002
}
0
LINE
5
2BB
100
AcDbEntity
8
0
100
AcDbLine
10
-48.6264642716
20
-32.6839429542
30
0.0000000000
11
-48.6264642716
21
-36.6839429542
31
0.0000000000
1001
DSTP_XDATA
1002
{
1000
_OWNERHANDLE=000000006E
1002
}
0
LINE
5
2BC
100
AcDbEntity
8
0
100
AcDbLine
10
-38.6264642716
20
-32.6839429542
30
0.0000000000
11
-38.6264642716
21
-36.6839429542
31
0.0000000000
1001
DSTP_XDATA
1002
{
1000
_OWNERHANDLE=000000006E
1002
}
0
MTEXT
5
2BD
100
AcDbEntity
8
0
100
AcDbMText
10
-48.6264642716
20
-31.1839429542
30
0.0000000000
40
2.5000000000
41
0.0000000000
71
7
1
В1.4
7
R2_5
11
1.0000000000
21
0.0000000000
31
0.0000000000
44
0.0000000000
1001
DSTP_XDATA
1002
{
1000
_OWNERHANDLE=000000006E
1002
}
0
LINE
5
2BE
100
AcDbEntity
8
0
100
AcDbLine
10
-48.6264642716
20
-31.6839429542
30
0.0000000000
11
-48.6264642716
21
-32.6839429542
31
0.0000000000
1001
DSTP_XDATA
1002
{
1000
_OWNERHANDLE=000000006E
1002
}
0
LINE
5
2BF
100
AcDbEntity
8
0
100
AcDbLine
10
-48.6264642716
20
-31.6839429542
30
0.0000000000
11
-43.1264640083
21
-31.6839429542
31
0.0000000000
1001
DSTP_XDATA
1002
{
1000
_OWNERHANDLE=000000006E
1002
}
0
LINE
5
2C0
100
AcDbEntity
8
0
100
AcDbLine
10
-11.9001536576
20
-27.3432975681
30
0.0000000000
11
-21.6089474817
21
-29.0051082970
31
0.0000000000
1001
DSTP_XDATA
1002
{
1000
_UPGRADE=1
1002
}
0
LINE
5
2C1
100
AcDbEntity
8
0
100
AcDbLine
10
-11.9001536576
20
-27.3432975681
30
0.0000000000
11
-11.9001536576
21
-27.3432975681
31
0.0000000000
1001
DSTP_XDATA
1002
{
1000
_OWNERHANDLE=000000006E
1002
}
0
MTEXT
5
2C2
100
AcDbEntity
8
0
100
AcDbMText
10
-26.6089474817
20
-30.0051082970
30
0.0000000000
40
2.5000000000
41
0.0000000000
71
2
1
@4
7
R2_5
11
1.0000000000
21
0.0000000000
31
0.0000000000
44
0.9600000000
1001
DSTP_XDATA
1002
{
1000
_OWNERHANDLE=000000006E
1002
}
0
LINE
5
2C3
100
AcDbEntity
8
0
100
AcDbLine
10
-31.6089474817
20
-29.0051082970
30
0.0000000000
11
-21.6089474817
21
-29.0051082970
31
0.0000000000
1001
DSTP_XDATA
1002
{
1000
_OWNERHANDLE=000000006E
1002
}
0
LINE
5
2C4
100
AcDbEntity
8
0
100
AcDbLine
10
-31.6089474817
20
-33.0051082970
30
0.0000000000
11
-21.6089474817
21
-33.0051082970
31
0.0000000000
1001
DSTP_XDATA
1002
{
1000
_OWNERHANDLE=000000006E
1002
}
0
LINE
5
2C5
100
AcDbEntity
8
0
100
AcDbLine
10
-31.6089474817
20
-29.0051082970
30
0.0000000000
11
-31.6089474817
21
-33.0051082970
31
0.0000000000
1001
DSTP_XDATA
1002
{
1000
_OWNERHANDLE=000000006E
1002
}
0
LINE
5
2C6
100
AcDbEntity
8
0
100
AcDbLine
10
-21.6089474817
20
-29.0051082970
30
0.0000000000
11
-21.6089474817
21
-33.0051082970
31
0.0000000000
1001
DSTP_XDATA
1002
{
1000
_OWNERHANDLE=000000006E
1002
}
0
MTEXT
5
2C7
100
AcDbEntity
8
0
100
AcDbMText
10
-21.6089474817
20
-27.5051082970
30
0.0000000000
40
2.5000000000
41
0.0000000000
71
9
1
SB2
7
R2_5
11
1.0000000000
21
0.0000000000
31
0.0000000000
44
0.0000000000
1001
DSTP_XDATA
1002
{
1000
_OWNERHANDLE=000000006E
1002
}
0
LINE
5
2C8
100
AcDbEntity
8
0
100
AcDbLine
10
-21.6089474817
20
-28.0051082970
30
0.0000000000
11
-21.6089474817
21
-29.0051082970
31
0.0000000000
1001
DSTP_XDATA
1002
{
1000
_OWNERHANDLE=000000006E
1002
}
0
LINE
5
2C9
100
AcDbEntity
8
0
100
AcDbLine
10
-21.6089474817
20
-28.0051082970
30
0.0000000000
11
-26.1922810286
21
-28.0051082970
31
0.0000000000
1001
DSTP_XDATA
1002
{
1000
_OWNERHANDLE=000000006E
1002
}
0
LINE
5
2CA
100
AcDbEntity
8
0
100
AcDbLine
10
-0.8642972726
20
-25.1815480175
30
0.0000000000
11
-3.6416642716
21
-34.4703429542
31
0.0000000000
1001
DSTP_XDATA
1002
{
1000
_UPGRADE=1
1002
}
0
LINE
5
2CB
100
AcDbEntity
8
0
100
AcDbLine
10
-0.8642972726
20
-25.1815480175
30
0.0000000000
11
-0.8642972726
21
-25.1815480175
31
0.0000000000
1001
DSTP_XDATA
1002
{
1000
_OWNERHANDLE=000000006E
1002
}
0
MTEXT
5
2CC
100
AcDbEntity
8
0
100
AcDbMText
10
-8.6416642716
20
-35.4703429542
30
0.0000000000
40
2.5000000000
41
0.0000000000
71
2
1
@4
7
R2_5
11
1.0000000000
21
0.0000000000
31
0.0000000000
44
0.9600000000
1001
DSTP_XDATA
1002
{
1000
_OWNERHANDLE=000000006E
1002
}
0
MTEXT
5
2CD
100
AcDbEntity
8
0
100
AcDbMText
10
-8.6416642716
20
-39.4703429542
30
0.0000000000
40
2.5000000000
41
0.0000000000
71
2
1
ШР4-2
7
R2_5
11
1.0000000000
21
0.0000000000
31
0.0000000000
44
0.9600000000
1001
DSTP_XDATA
1002
{
1000
_OWNERHANDLE=000000006E
1002
}
0
LINE
5
2CE
100
AcDbEntity
8
0
100
AcDbLine
10
-13.6416642716
20
-34.4703429542
30
0.0000000000
11
-3.6416642716
21
-34.4703429542
31
0.0000000000
1001
DSTP_XDATA
1002
{
1000
_OWNERHANDLE=000000006E
1002
}
0
LINE
5
2CF
100
AcDbEntity
8
0
100
AcDbLine
10
-13.6416642716
20
-38.4703429542
30
0.0000000000
11
-3.6416642716
21
-38.4703429542
31
0.0000000000
1001
DSTP_XDATA
1002
{
1000
_OWNERHANDLE=000000006E
1002
}
0
LINE
5
2D0
100
AcDbEntity
8
0
100
AcDbLine
10
-13.6416642716
20
-42.4703429542
30
0.0000000000
11
-3.6416642716
21
-42.4703429542
31
0.0000000000
1001
DSTP_XDATA
1002
{
1000
_OWNERHANDLE=000000006E
1002
}
0
LINE
5
2D1
100
AcDbEntity
8
0
100
AcDbLine
10
-13.6416642716
20
-34.4703429542
30
0.0000000000
11
-13.6416642716
21
-42.4703429542
31
0.0000000000
1001
DSTP_XDATA
1002
{
1000
_OWNERHANDLE=000000006E
1002
}
0
LINE
5
2D2
100
AcDbEntity
8
0
100
AcDbLine
10
-3.6416642716
20
-34.4703429542
30
0.0000000000
11
-3.6416642716
21
-42.4703429542
31
0.0000000000
1001
DSTP_XDATA
1002
{
1000
_OWNERHANDLE=000000006E
1002
}
0
MTEXT
5
2D3
100
AcDbEntity
8
0
100
AcDbMText
10
-3.6416642716
20
-32.9703429542
30
0.0000000000
40
2.5000000000
41
0.0000000000
71
9
1
В2.1
7
R2_5
11
1.0000000000
21
0.0000000000
31
0.0000000000
44
0.0000000000
1001
DSTP_XDATA
1002
{
1000
_OWNERHANDLE=000000006E
1002
}
0
LINE
5
2D4
100
AcDbEntity
8
0
100
AcDbLine
10
-3.6416642716
20
-33.4703429542
30
0.0000000000
11
-3.6416642716
21
-34.4703429542
31
0.0000000000
1001
DSTP_XDATA
1002
{
1000
_OWNERHANDLE=000000006E
1002
}
0
LINE
5
2D5
100
AcDbEntity
8
0
100
AcDbLine
10
-3.6416642716
20
-33.4703429542
30
0.0000000000
11
-9.1416645349
21
-33.4703429542
31
0.0000000000
1001
DSTP_XDATA
1002
{
1000
_OWNERHANDLE=000000006E
1002
}
0
LINE
5
2D6
100
AcDbEntity
8
0
100
AcDbLine
10
42.3861539589
20
-24.4100222796
30
0.0000000000
11
51.7535965914
21
-48.2578125929
31
0.0000000000
1001
DSTP_XDATA
1002
{
1000
_UPGRADE=1
1002
}
0
LINE
5
2D7
100
AcDbEntity
8
0
100
AcDbLine
10
42.3861539589
20
-24.4100222796
30
0.0000000000
11
42.3861539589
21
-24.4100222796
31
0.0000000000
1001
DSTP_XDATA
1002
{
1000
_OWNERHANDLE=000000006E
1002
}
0
MTEXT
5
2D8
100
AcDbEntity
8
0
100
AcDbMText
10
56.7535965914
20
-49.2578125929
30
0.0000000000
40
2.5000000000
41
0.0000000000
71
2
1
@2
7
R2_5
11
1.0000000000
21
0.0000000000
31
0.0000000000
44
0.9600000000
1001
DSTP_XDATA
1002
{
1000
_OWNERHANDLE=000000006E
1002
}
0
LINE
5
2D9
100
AcDbEntity
8
0
100
AcDbLine
10
51.7535965914
20
-48.2578125929
30
0.0000000000
11
61.7535965914
21
-48.2578125929
31
0.0000000000
1001
DSTP_XDATA
1002
{
1000
_OWNERHANDLE=000000006E
1002
}
0
LINE
5
2DA
100
AcDbEntity
8
0
100
AcDbLine
10
51.7535965914
20
-52.2578125929
30
0.0000000000
11
61.7535965914
21
-52.2578125929
31
0.0000000000
1001
DSTP_XDATA
1002
{
1000
_OWNERHANDLE=000000006E
1002
}
0
LINE
5
2DB
100
AcDbEntity
8
0
100
AcDbLine
10
51.7535965914
20
-48.2578125929
30
0.0000000000
11
51.7535965914
21
-52.2578125929
31
0.0000000000
1001
DSTP_XDATA
1002
{
1000
_OWNERHANDLE=000000006E
1002
}
0
LINE
5
2DC
100
AcDbEntity
8
0
100
AcDbLine
10
61.7535965914
20
-48.2578125929
30
0.0000000000
11
61.7535965914
21
-52.2578125929
31
0.0000000000
1001
DSTP_XDATA
1002
{
1000
_OWNERHANDLE=000000006E
1002
}
0
MTEXT
5
2DD
100
AcDbEntity
8
0
100
AcDbMText
10
51.7535965914
20
-46.7578125929
30
0.0000000000
40
2.5000000000
41
0.0000000000
71
7
1
В2.2
7
R2_5
11
1.0000000000
21
0.0000000000
31
0.0000000000
44
0.0000000000
1001
DSTP_XDATA
1002
{
1000
_OWNERHANDLE=000000006E
1002
}
0
LINE
5
2DE
100
AcDbEntity
8
0
100
AcDbLine
10
51.7535965914
20
-47.2578125929
30
0.0000000000
11
51.7535965914
21
-48.2578125929
31
0.0000000000
1001
DSTP_XDATA
1002
{
1000
_OWNERHANDLE=000000006E
1002
}
0
LINE
5
2DF
100
AcDbEntity
8
0
100
AcDbLine
10
51.7535965914
20
-47.2578125929
30
0.0000000000
11
57.2535967503
21
-47.2578125929
31
0.0000000000
1001
DSTP_XDATA
1002
{
1000
_OWNERHANDLE=000000006E
1002
}
0
LINE
5
2E0
100
AcDbEntity
8
0
100
AcDbLine
10
15.0403817913
20
-3.5614131458
30
0.0000000000
11
21.8790185357
21
-14.5865380263
31
0.0000000000
1001
DSTP_XDATA
1002
{
1000
_UPGRADE=1
1002
}
0
LINE
5
2E1
100
AcDbEntity
8
0
100
AcDbLine
10
15.0403817913
20
-3.5614131458
30
0.0000000000
11
15.0403817913
21
-3.5614131458
31
0.0000000000
1001
DSTP_XDATA
1002
{
1000
_OWNERHANDLE=000000006E
1002
}
0
MTEXT
5
2E2
100
AcDbEntity
8
0
100
AcDbMText
10
26.8790185357
20
-15.5865380263
30
0.0000000000
40
2.5000000000
41
0.0000000000
71
2
1
@3
7
R2_5
11
1.0000000000
21
0.0000000000
31
0.0000000000
44
0.9600000000
1001
DSTP_XDATA
1002
{
1000
_OWNERHANDLE=000000006E
1002
}
0
MTEXT
5
2E3
100
AcDbEntity
8
0
100
AcDbMText
10
26.8790185357
20
-19.5865380263
30
0.0000000000
40
2.5000000000
41
0.0000000000
71
2
1
ШР4-2
7
R2_5
11
1.0000000000
21
0.0000000000
31
0.0000000000
44
0.9600000000
1001
DSTP_XDATA
1002
{
1000
_OWNERHANDLE=000000006E
1002
}
0
LINE
5
2E4
100
AcDbEntity
8
0
100
AcDbLine
10
21.8790185357
20
-14.5865380263
30
0.0000000000
11
31.8790185357
21
-14.5865380263
31
0.0000000000
1001
DSTP_XDATA
1002
{
1000
_OWNERHANDLE=000000006E
1002
}
0
LINE
5
2E5
100
AcDbEntity
8
0
100
AcDbLine
10
21.8790185357
20
-18.5865380263
30
0.0000000000
11
31.8790185357
21
-18.5865380263
31
0.0000000000
1001
DSTP_XDATA
1002
{
1000
_OWNERHANDLE=000000006E
1002
}
0
LINE
5
2E6
100
AcDbEntity
8
0
100
AcDbLine
10
21.8790185357
20
-22.5865380263
30
0.0000000000
11
31.8790185357
21
-22.5865380263
31
0.0000000000
1001
DSTP_XDATA
1002
{
1000
_OWNERHANDLE=000000006E
1002
}
0
LINE
5
2E7
100
AcDbEntity
8
0
100
AcDbLine
10
21.8790185357
20
-14.5865380263
30
0.0000000000
11
21.8790185357
21
-22.5865380263
31
0.0000000000
1001
DSTP_XDATA
1002
{
1000
_OWNERHANDLE=000000006E
1002
}
0
LINE
5
2E8
100
AcDbEntity
8
0
100
AcDbLine
10
31.8790185357
20
-14.5865380263
30
0.0000000000
11
31.8790185357
21
-22.5865380263
31
0.0000000000
1001
DSTP_XDATA
1002
{
1000
_OWNERHANDLE=000000006E
1002
}
0
MTEXT
5
2E9
100
AcDbEntity
8
0
100
AcDbMText
10
21.8790185357
20
-13.0865380263
30
0.0000000000
40
2.5000000000
41
0.0000000000
71
7
1
KM1
7
R2_5
11
1.0000000000
21
0.0000000000
31
0.0000000000
44
0.0000000000
1001
DSTP_XDATA
1002
{
1000
_OWNERHANDLE=000000006E
1002
}
0
LINE
5
2EA
100
AcDbEntity
8
0
100
AcDbLine
10
21.8790185357
20
-13.5865380263
30
0.0000000000
11
21.8790185357
21
-14.5865380263
31
0.0000000000
1001
DSTP_XDATA
1002
{
1000
_OWNERHANDLE=000000006E
1002
}
0
LINE
5
2EB
100
AcDbEntity
8
0
100
AcDbLine
10
21.8790185357
20
-13.5865380263
30
0.0000000000
11
26.9623519485
21
-13.5865380263
31
0.0000000000
1001
DSTP_XDATA
1002
{
1000
_OWNERHANDLE=000000006E
1002
}
0
INSERT
5
2EC
100
AcDbEntity
8
0
100
AcDbBlockReference
2
KIP_KNOPKA
10
-11.1103850816
20
-26.4834202500
30
0.0000000000
41
1.0000000000
42
1.0000000000
43
1.0000000000
50
0.0000000000
1001
DSTP_XDATA
1002
{
1000
USES=System
1000
USES=devices
1000
#0=NMO_Name|GDBString|SB2|Обозначение
1000
#1=NMO_BaseName|GDBString|SB|Короткое Имя
1000
#2=NMO_Prefix|GDBString||Префикс
1000
#3=NMO_Suffix|GDBString|2|Суффикс
1000
#4=NMO_Template|GDBString|@@[NMO_Prefix]@@[NMO_BaseName]@@[NMO_Suffix]|Шаблон Обозначения
1000
#5=DB_link|GDBString|??|Материал
1000
#6=GC_HeadDevice|GDBString|??|
1000
#7=GC_HDShortName|GDBString|??|
1000
#8=GC_HDGroup|GDBInteger|0|
1000
#9=SerialConnection|GDBInteger|1|
1000
#10=GC_NumberInGroup|GDBInteger|0|
1000
#11=Device_Type|TDeviceType|TDT_SilaComm|Тип устройства
1000
#12=Device_Class|TDeviceClass|TDC_Shell|Класс устройства
1000
#13=Device_Group|TDeviceGroup|TDG_ElDevice|Группа устройства
1000
#14=BTY_TreeCoord|GDBString|PLAN_EM_Пускатель|Позиция в дереве
1000
_OWNERHANDLE=0000000064
1000
_HANDLE=0007C61DD0
1000
_UPGRADE=1
1002
}
0
INSERT
5
2ED
100
AcDbEntity
8
0
100
AcDbBlockReference
2
CONNECTOR_SQUARE
10
-11.1103850816
20
-26.4834202500
30
0.0000000000
41
1.0000000000
42
1.0000000000
43
1.0000000000
50
0.0000000000
1001
DSTP_XDATA
1002
{
1000
USES=System
1000
USES=connectors
1000
USES=devices
1000
#0=DeviceClass|TDeviceClass|TDC_Unknown|Класс устройства
1000
#1=Connector_Type|TConnectorType|TCT_ElCable|Тип соединения
1000
#2=Border_Type|TConnectorBorderType|TCBT_Owner|Граница подрезки
1000
#3=Connector_Name|GDBString||Имя соединения
1000
#4=Connector_Junction|GDBBoolean|False|Возможность ответвления
1000
#5=LENGTH_Add|GDBDouble|0.0|Добавить к длине
1000
_OWNERHANDLE=0007C61DD0
1000
_HANDLE=0007C5F120
1000
_UPGRADE=1
1002
}
0
LINE
5
2EE
100
AcDbEntity
8
SYS_METRIC
100
AcDbLine
10
-12.1103850816
20
-26.4834202500
30
0.0000000000
11
-10.1103850816
21
-26.4834202500
31
0.0000000000
1001
DSTP_XDATA
1002
{
1000
_OWNERHANDLE=0007C5F120
1002
}
0
LINE
5
2EF
100
AcDbEntity
8
SYS_METRIC
100
AcDbLine
10
-11.1103850816
20
-25.4834202500
30
0.0000000000
11
-11.1103850816
21
-27.4834202500
31
0.0000000000
1001
DSTP_XDATA
1002
{
1000
_OWNERHANDLE=0007C5F120
1002
}
0
LINE
5
2F0
100
AcDbEntity
8
SYS_DEVICE_BORDER
100
AcDbLine
10
-12.3603850816
20
-27.7334202500
30
0.0000000000
11
-12.3603850816
21
-25.2334202500
31
0.0000000000
1001
DSTP_XDATA
1002
{
1000
_OWNERHANDLE=0007C61DD0
1002
}
0
LINE
5
2F1
100
AcDbEntity
8
SYS_DEVICE_BORDER
100
AcDbLine
10
-9.8603850816
20
-27.7334202500
30
0.0000000000
11
-9.8603850816
21
-25.2334202500
31
0.0000000000
1001
DSTP_XDATA
1002
{
1000
_OWNERHANDLE=0007C61DD0
1002
}
0
LINE
5
2F2
100
AcDbEntity
8
SYS_DEVICE_BORDER
100
AcDbLine
10
-12.3603850816
20
-25.2334202500
30
0.0000000000
11
-9.8603850816
21
-25.2334202500
31
0.0000000000
1001
DSTP_XDATA
1002
{
1000
_OWNERHANDLE=0007C61DD0
1002
}
0
LINE
5
2F3
100
AcDbEntity
8
SYS_DEVICE_BORDER
100
AcDbLine
10
-12.3603850816
20
-27.7334202500
30
0.0000000000
11
-9.8603850816
21
-27.7334202500
31
0.0000000000
1001
DSTP_XDATA
1002
{
1000
_OWNERHANDLE=0007C61DD0
1002
}
0
TEXT
5
2F4
100
AcDbEntity
8
SYS_METRIC
100
AcDbText
11
-11.1103850816
21
-24.2334202500
31
0.0000000000
10
-13.4020518551
20
-24.2334202500
30
0.0000000000
40
2.5000000000
50
0.0000000000
41
0.7000000000
51
12.0000000000
72
1
7
R2_5
1
SB2
100
AcDbText
73
0
1001
DSTP_XDATA
1002
{
1000
_TMPL1=@@[NMO_Name]
1000
_OWNERHANDLE=0007C61DD0
1002
}
0
POLYLINE
5
2F5
100
AcDbEntity
8
SYS_METRIC
370
20
100
AcDb3dPolyline
66
1
10
0.0000000000
20
0.0000000000
30
0.0000000000
70
8
1001
DSTP_XDATA
1002
{
1000
USES=System
1000
USES=cables
1000
#0=NMO_Name|GDBString|@3|Обозначение
1000
#1=NMO_BaseName|GDBString|@|Короткое Имя
1000
#2=NMO_Prefix|GDBString||Префикс
1000
#3=NMO_PrefixTemplate|GDBString||Шаблон префикса
1000
#4=NMO_Suffix|GDBString|3|Суффикс
1000
#5=NMO_SuffixTemplate|GDBString||Шаблон суффикса
1000
#6=NMO_Template|GDBString|@@[NMO_Prefix]@@[NMO_BaseName]@@[NMO_Suffix]|Шаблон Обозначения
1000
#7=DB_link|GDBString|_EQ000001|Материал
1000
#8=LENGTH_RoundTo|GDBInteger|0|Округлять до
1000
#9=LENGTH_Add|GDBDouble|4.0|Добавить к длине
1000
#10=LENGTH_Scale|GDBDouble|0.1|Масштаб
1000
#11=GC_HeadDevice|GDBString|??|Головное устройство
1000
#12=GC_HDShortName|GDBString|??|Короткое имя головного устройства
1000
#13=GC_HDGroup|GDBInteger|0|Группа в головном устройстве
1000
#14=CABLE_Type|TCableType|TCT_Control|Тип
1000
#15=CABLE_Segment|GDBInteger|0|Сегмент
1000
#16=CABLE_WireCount|GDBInteger|0|Число жил
1000
#17=CABLE_TotalCD|GDBInteger|2|Подключено устройств
1000
#18=AmountD|GDBDouble|5.0|Длина
1000
_OWNERHANDLE=0000000064
1000
_UPGRADE=1
1000
_LAYER=0
1002
}
0
VERTEX
5
2F6
100
AcDbEntity
8
0
370
20
100
AcDbVertex
100
AcDb3dPolylineVertex
10
14.8394322798
20
-1.9306197215
30
0.0000000000
0
VERTEX
5
2F7
100
AcDbEntity
8
0
370
20
100
AcDbVertex
100
AcDb3dPolylineVertex
10
3.3158253692
20
-5.0113464322
30
0.0000000000
0
SEQEND
5
2F8
100
AcDbEntity
8
0
370
20
0
LINE
5
2F9
100
AcDbEntity
8
0
370
20
100
AcDbLine
10
12.3394322798
20
-2.5989709449
30
0.0000000000
11
4.5658253692
21
-4.6771708205
31
0.0000000000
1001
DSTP_XDATA
1002
{
1000
_OWNERHANDLE=6E
1002
}
0
LINE
5
2FA
100
AcDbEntity
8
0
100
AcDbLine
10
2.5260567932
20
-5.8712237503
30
0.0000000000
11
-7.1827370309
21
-7.5330344792
31
0.0000000000
1001
DSTP_XDATA
1002
{
1000
_UPGRADE=1
1002
}
0
LINE
5
2FB
100
AcDbEntity
8
0
100
AcDbLine
10
2.5260567932
20
-5.8712237503
30
0.0000000000
11
2.5260567932
21
-5.8712237503
31
0.0000000000
1001
DSTP_XDATA
1002
{
1000
_OWNERHANDLE=000000006E
1002
}
0
MTEXT
5
2FC
100
AcDbEntity
8
0
100
AcDbMText
10
-12.1827370309
20
-8.5330344792
30
0.0000000000
40
2.5000000000
41
0.0000000000
71
2
1
@3
7
R2_5
11
1.0000000000
21
0.0000000000
31
0.0000000000
44
0.9600000000
1001
DSTP_XDATA
1002
{
1000
_OWNERHANDLE=000000006E
1002
}
0
LINE
5
2FD
100
AcDbEntity
8
0
100
AcDbLine
10
-17.1827370309
20
-7.5330344792
30
0.0000000000
11
-7.1827370309
21
-7.5330344792
31
0.0000000000
1001
DSTP_XDATA
1002
{
1000
_OWNERHANDLE=000000006E
1002
}
0
LINE
5
2FE
100
AcDbEntity
8
0
100
AcDbLine
10
-17.1827370309
20
-11.5330344792
30
0.0000000000
11
-7.1827370309
21
-11.5330344792
31
0.0000000000
1001
DSTP_XDATA
1002
{
1000
_OWNERHANDLE=000000006E
1002
}
0
LINE
5
2FF
100
AcDbEntity
8
0
100
AcDbLine
10
-17.1827370309
20
-7.5330344792
30
0.0000000000
11
-17.1827370309
21
-11.5330344792
31
0.0000000000
1001
DSTP_XDATA
1002
{
1000
_OWNERHANDLE=000000006E
1002
}
0
LINE
5
300
100
AcDbEntity
8
0
100
AcDbLine
10
-7.1827370309
20
-7.5330344792
30
0.0000000000
11
-7.1827370309
21
-11.5330344792
31
0.0000000000
1001
DSTP_XDATA
1002
{
1000
_OWNERHANDLE=000000006E
1002
}
0
MTEXT
5
301
100
AcDbEntity
8
0
100
AcDbMText
10
-7.1827370309
20
-6.0330344792
30
0.0000000000
40
2.5000000000
41
0.0000000000
71
9
1
SB1
7
R2_5
11
1.0000000000
21
0.0000000000
31
0.0000000000
44
0.0000000000
1001
DSTP_XDATA
1002
{
1000
_OWNERHANDLE=000000006E
1002
}
0
LINE
5
302
100
AcDbEntity
8
0
100
AcDbLine
10
-7.1827370309
20
-6.5330344792
30
0.0000000000
11
-7.1827370309
21
-7.5330344792
31
0.0000000000
1001
DSTP_XDATA
1002
{
1000
_OWNERHANDLE=000000006E
1002
}
0
LINE
5
303
100
AcDbEntity
8
0
100
AcDbLine
10
-7.1827370309
20
-6.5330344792
30
0.0000000000
11
-11.7660706821
21
-6.5330344792
31
0.0000000000
1001
DSTP_XDATA
1002
{
1000
_OWNERHANDLE=000000006E
1002
}
0
INSERT
5
304
100
AcDbEntity
8
0
100
AcDbBlockReference
2
KIP_KNOPKA
10
3.3158253692
20
-5.0113464322
30
0.0000000000
41
1.0000000000
42
1.0000000000
43
1.0000000000
50
0.0000000000
1001
DSTP_XDATA
1002
{
1000
USES=System
1000
USES=devices
1000
#0=NMO_Name|GDBString|SB1|Обозначение
1000
#1=NMO_BaseName|GDBString|SB|Короткое Имя
1000
#2=NMO_Prefix|GDBString||Префикс
1000
#3=NMO_Suffix|GDBString|1|Суффикс
1000
#4=NMO_Template|GDBString|@@[NMO_Prefix]@@[NMO_BaseName]@@[NMO_Suffix]|Шаблон Обозначения
1000
#5=DB_link|GDBString|??|Материал
1000
#6=GC_HeadDevice|GDBString|??|
1000
#7=GC_HDShortName|GDBString|??|
1000
#8=GC_HDGroup|GDBInteger|0|
1000
#9=SerialConnection|GDBInteger|1|
1000
#10=GC_NumberInGroup|GDBInteger|0|
1000
#11=Device_Type|TDeviceType|TDT_SilaComm|Тип устройства
1000
#12=Device_Class|TDeviceClass|TDC_Shell|Класс устройства
1000
#13=Device_Group|TDeviceGroup|TDG_ElDevice|Группа устройства
1000
#14=BTY_TreeCoord|GDBString|PLAN_EM_Пускатель|Позиция в дереве
1000
_OWNERHANDLE=0000000064
1000
_HANDLE=0007C5FE10
1000
_UPGRADE=1
1002
}
0
INSERT
5
305
100
AcDbEntity
8
0
100
AcDbBlockReference
2
CONNECTOR_SQUARE
10
3.3158253692
20
-5.0113464322
30
0.0000000000
41
1.0000000000
42
1.0000000000
43
1.0000000000
50
0.0000000000
1001
DSTP_XDATA
1002
{
1000
USES=System
1000
USES=connectors
1000
USES=devices
1000
#0=DeviceClass|TDeviceClass|TDC_Unknown|Класс устройства
1000
#1=Connector_Type|TConnectorType|TCT_ElCable|Тип соединения
1000
#2=Border_Type|TConnectorBorderType|TCBT_Owner|Граница подрезки
1000
#3=Connector_Name|GDBString||Имя соединения
1000
#4=Connector_Junction|GDBBoolean|False|Возможность ответвления
1000
#5=LENGTH_Add|GDBDouble|0.0|Добавить к длине
1000
_OWNERHANDLE=0007C5FE10
1000
_HANDLE=0007C77FE0
1000
_UPGRADE=1
1002
}
0
LINE
5
306
100
AcDbEntity
8
SYS_METRIC
100
AcDbLine
10
2.3158253692
20
-5.0113464322
30
0.0000000000
11
4.3158253692
21
-5.0113464322
31
0.0000000000
1001
DSTP_XDATA
1002
{
1000
_OWNERHANDLE=0007C77FE0
1002
}
0
LINE
5
307
100
AcDbEntity
8
SYS_METRIC
100
AcDbLine
10
3.3158253692
20
-4.0113464322
30
0.0000000000
11
3.3158253692
21
-6.0113464322
31
0.0000000000
1001
DSTP_XDATA
1002
{
1000
_OWNERHANDLE=0007C77FE0
1002
}
0
LINE
5
308
100
AcDbEntity
8
SYS_DEVICE_BORDER
100
AcDbLine
10
2.0658253692
20
-6.2613464322
30
0.0000000000
11
2.0658253692
21
-3.7613464322
31
0.0000000000
1001
DSTP_XDATA
1002
{
1000
_OWNERHANDLE=0007C5FE10
1002
}
0
LINE
5
309
100
AcDbEntity
8
SYS_DEVICE_BORDER
100
AcDbLine
10
4.5658253692
20
-6.2613464322
30
0.0000000000
11
4.5658253692
21
-3.7613464322
31
0.0000000000
1001
DSTP_XDATA
1002
{
1000
_OWNERHANDLE=0007C5FE10
1002
}
0
LINE
5
30A
100
AcDbEntity
8
SYS_DEVICE_BORDER
100
AcDbLine
10
2.0658253692
20
-3.7613464322
30
0.0000000000
11
4.5658253692
21
-3.7613464322
31
0.0000000000
1001
DSTP_XDATA
1002
{
1000
_OWNERHANDLE=0007C5FE10
1002
}
0
LINE
5
30B
100
AcDbEntity
8
SYS_DEVICE_BORDER
100
AcDbLine
10
2.0658253692
20
-6.2613464322
30
0.0000000000
11
4.5658253692
21
-6.2613464322
31
0.0000000000
1001
DSTP_XDATA
1002
{
1000
_OWNERHANDLE=0007C5FE10
1002
}
0
TEXT
5
30C
100
AcDbEntity
8
SYS_METRIC
100
AcDbText
11
3.3158253692
21
-2.7613464322
31
0.0000000000
10
1.0241585436
20
-2.7613464322
30
0.0000000000
40
2.5000000000
50
0.0000000000
41
0.7000000000
51
12.0000000000
72
1
7
R2_5
1
SB1
100
AcDbText
73
0
1001
DSTP_XDATA
1002
{
1000
_TMPL1=@@[NMO_Name]
1000
_OWNERHANDLE=0007C5FE10
1002
}
0
INSERT
5
30D
100
AcDbEntity
8
0
100
AcDbBlockReference
2
EL_CONTACTOR
10
32.6947603865
20
-3.1926397181
30
0.0000000000
41
1.0000000000
42
1.0000000000
43
1.0000000000
50
0.0000000000
1001
DSTP_XDATA
1002
{
1000
USES=System
1000
USES=devices
1000
#0=NMO_Name|GDBString|KM2|Обозначение
1000
#1=NMO_BaseName|GDBString|KM|Короткое Имя
1000
#2=NMO_Prefix|GDBString||Префикс
1000
#3=NMO_Suffix|GDBString|2|Суффикс
1000
#4=NMO_Template|GDBString|@@[NMO_Prefix]@@[NMO_BaseName]@@[NMO_Suffix]|Шаблон Обозначения
1000
#5=DB_link|GDBString|??|Материал
1000
#6=GC_HeadDevice|GDBString|??|
1000
#7=GC_HDShortName|GDBString|??|
1000
#8=GC_HDGroup|GDBInteger|0|
1000
#9=SerialConnection|GDBInteger|1|
1000
#10=GC_NumberInGroup|GDBInteger|0|
1000
#11=Device_Type|TDeviceType|TDT_SilaComm|Тип устройства
1000
#12=Device_Class|TDeviceClass|TDC_Shell|Класс устройства
1000
#13=Device_Group|TDeviceGroup|TDG_ElDevice|Группа устройства
1000
#14=BTY_TreeCoord|GDBString|PLAN_EM_Пускатель|Позиция в дереве
1000
_OWNERHANDLE=0000000064
1000
_HANDLE=0007C789A0
1000
_UPGRADE=1
1002
}
0
INSERT
5
30E
100
AcDbEntity
8
0
100
AcDbBlockReference
2
CONNECTOR_SQUARE
10
32.6947603865
20
-3.1926397181
30
0.0000000000
41
1.0000000000
42
1.0000000000
43
1.0000000000
50
0.0000000000
1001
DSTP_XDATA
1002
{
1000
USES=System
1000
USES=connectors
1000
USES=devices
1000
#0=DeviceClass|TDeviceClass|TDC_Unknown|Класс устройства
1000
#1=Connector_Type|TConnectorType|TCT_ElCable|Тип соединения
1000
#2=Border_Type|TConnectorBorderType|TCBT_Owner|Граница подрезки
1000
#3=Connector_Name|GDBString||Имя соединения
1000
#4=Connector_Junction|GDBBoolean|False|Возможность ответвления
1000
#5=LENGTH_Add|GDBDouble|0.0|Добавить к длине
1000
_OWNERHANDLE=0007C789A0
1000
_HANDLE=0007C78FF0
1000
_UPGRADE=1
1002
}
0
LINE
5
30F
100
AcDbEntity
8
SYS_METRIC
100
AcDbLine
10
31.6947603865
20
-3.1926397181
30
0.0000000000
11
33.6947603865
21
-3.1926397181
31
0.0000000000
1001
DSTP_XDATA
1002
{
1000
_OWNERHANDLE=0007C78FF0
1002
}
0
LINE
5
310
100
AcDbEntity
8
SYS_METRIC
100
AcDbLine
10
32.6947603865
20
-2.1926397181
30
0.0000000000
11
32.6947603865
21
-4.1926397181
31
0.0000000000
1001
DSTP_XDATA
1002
{
1000
_OWNERHANDLE=0007C78FF0
1002
}
0
LINE
5
311
100
AcDbEntity
8
SYS_DEVICE_BORDER
100
AcDbLine
10
35.1947603865
20
-5.6926397181
30
0.0000000000
11
30.1947603865
21
-5.6926397181
31
0.0000000000
1001
DSTP_XDATA
1002
{
1000
_OWNERHANDLE=0007C789A0
1002
}
0
LINE
5
312
100
AcDbEntity
8
SYS_DEVICE_BORDER
100
AcDbLine
10
35.1947603865
20
-0.6926397181
30
0.0000000000
11
35.1947603865
21
-5.6926397181
31
0.0000000000
1001
DSTP_XDATA
1002
{
1000
_OWNERHANDLE=0007C789A0
1002
}
0
LINE
5
313
100
AcDbEntity
8
SYS_DEVICE_BORDER
100
AcDbLine
10
30.1947603865
20
-0.6926397181
30
0.0000000000
11
35.1947603865
21
-0.6926397181
31
0.0000000000
1001
DSTP_XDATA
1002
{
1000
_OWNERHANDLE=0007C789A0
1002
}
0
LINE
5
314
100
AcDbEntity
8
SYS_DEVICE_BORDER
100
AcDbLine
10
30.1947603865
20
-5.6926397181
30
0.0000000000
11
30.1947603865
21
-0.6926397181
31
0.0000000000
1001
DSTP_XDATA
1002
{
1000
_OWNERHANDLE=0007C789A0
1002
}
0
TEXT
5
315
100
AcDbEntity
8
EL_DEVICE_NAME
100
AcDbText
11
32.6947603865
21
0.3073602819
31
0.0000000000
10
30.1530937323
20
0.3073602819
30
0.0000000000
40
2.5000000000
50
0.0000000000
41
0.7000000000
51
12.0000000000
72
1
7
R2_5
1
KM2
100
AcDbText
73
0
1001
DSTP_XDATA
1002
{
1000
_TMPL1=@@[NMO_Name]
1000
_OWNERHANDLE=0007C789A0
1002
}
0
LINE
5
316
100
AcDbEntity
8
0
100
AcDbLine
10
22.3177305833
20
7.9752681296
30
0.0000000000
11
31.3002718650
21
16.9578094113
31
0.0000000000
1001
DSTP_XDATA
1002
{
1000
_UPGRADE=1
1002
}
0
LINE
5
317
100
AcDbEntity
8
0
100
AcDbLine
10
22.3177305833
20
7.9752681296
30
0.0000000000
11
22.3177305833
21
7.9752681296
31
0.0000000000
1001
DSTP_XDATA
1002
{
1000
_OWNERHANDLE=000000006E
1002
}
0
MTEXT
5
318
100
AcDbEntity
8
0
100
AcDbMText
10
36.3002718650
20
23.9578094113
30
0.0000000000
40
2.5000000000
41
0.0000000000
71
2
1
@2
7
R2_5
11
1.0000000000
21
0.0000000000
31
0.0000000000
44
0.9600000000
1001
DSTP_XDATA
1002
{
1000
_OWNERHANDLE=000000006E
1002
}
0
MTEXT
5
319
100
AcDbEntity
8
0
100
AcDbMText
10
36.3002718650
20
19.9578094113
30
0.0000000000
40
2.5000000000
41
0.0000000000
71
2
1
ШР4-2
7
R2_5
11
1.0000000000
21
0.0000000000
31
0.0000000000
44
0.9600000000
1001
DSTP_XDATA
1002
{
1000
_OWNERHANDLE=000000006E
1002
}
0
LINE
5
31A
100
AcDbEntity
8
0
100
AcDbLine
10
31.3002718650
20
24.9578094113
30
0.0000000000
11
41.3002718650
21
24.9578094113
31
0.0000000000
1001
DSTP_XDATA
1002
{
1000
_OWNERHANDLE=000000006E
1002
}
0
LINE
5
31B
100
AcDbEntity
8
0
100
AcDbLine
10
31.3002718650
20
20.9578094113
30
0.0000000000
11
41.3002718650
21
20.9578094113
31
0.0000000000
1001
DSTP_XDATA
1002
{
1000
_OWNERHANDLE=000000006E
1002
}
0
LINE
5
31C
100
AcDbEntity
8
0
100
AcDbLine
10
31.3002718650
20
16.9578094113
30
0.0000000000
11
41.3002718650
21
16.9578094113
31
0.0000000000
1001
DSTP_XDATA
1002
{
1000
_OWNERHANDLE=000000006E
1002
}
0
LINE
5
31D
100
AcDbEntity
8
0
100
AcDbLine
10
31.3002718650
20
24.9578094113
30
0.0000000000
11
31.3002718650
21
16.9578094113
31
0.0000000000
1001
DSTP_XDATA
1002
{
1000
_OWNERHANDLE=000000006E
1002
}
0
LINE
5
31E
100
AcDbEntity
8
0
100
AcDbLine
10
41.3002718650
20
24.9578094113
30
0.0000000000
11
41.3002718650
21
16.9578094113
31
0.0000000000
1001
DSTP_XDATA
1002
{
1000
_OWNERHANDLE=000000006E
1002
}
0
MTEXT
5
31F
100
AcDbEntity
8
0
100
AcDbMText
10
31.3002718650
20
26.4578094113
30
0.0000000000
40
2.5000000000
41
0.0000000000
71
7
1
C2
7
R2_5
11
1.0000000000
21
0.0000000000
31
0.0000000000
44
0.0000000000
1001
DSTP_XDATA
1002
{
1000
_OWNERHANDLE=000000006E
1002
}
0
LINE
5
320
100
AcDbEntity
8
0
100
AcDbLine
10
31.3002718650
20
25.9578094113
30
0.0000000000
11
31.3002718650
21
24.9578094113
31
0.0000000000
1001
DSTP_XDATA
1002
{
1000
_OWNERHANDLE=000000006E
1002
}
0
LINE
5
321
100
AcDbEntity
8
0
100
AcDbLine
10
31.3002718650
20
25.9578094113
30
0.0000000000
11
34.1336052033
21
25.9578094113
31
0.0000000000
1001
DSTP_XDATA
1002
{
1000
_OWNERHANDLE=000000006E
1002
}
0
POLYLINE
5
322
100
AcDbEntity
8
SYS_METRIC
370
20
100
AcDb3dPolyline
66
1
10
0.0000000000
20
0.0000000000
30
0.0000000000
70
8
1001
DSTP_XDATA
1002
{
1000
USES=System
1000
USES=cables
1000
#0=NMO_Name|GDBString|@5|Обозначение
1000
#1=NMO_BaseName|GDBString|@|Короткое Имя
1000
#2=NMO_Prefix|GDBString||Префикс
1000
#3=NMO_PrefixTemplate|GDBString||Шаблон префикса
1000
#4=NMO_Suffix|GDBString|5|Суффикс
1000
#5=NMO_SuffixTemplate|GDBString||Шаблон суффикса
1000
#6=NMO_Template|GDBString|@@[NMO_Prefix]@@[NMO_BaseName]@@[NMO_Suffix]|Шаблон Обозначения
1000
#7=DB_link|GDBString|_EQ000001|Материал
1000
#8=LENGTH_RoundTo|GDBInteger|0|Округлять до
1000
#9=LENGTH_Add|GDBDouble|4.0|Добавить к длине
1000
#10=LENGTH_Scale|GDBDouble|0.1|Масштаб
1000
#11=GC_HeadDevice|GDBString|??|Головное устройство
1000
#12=GC_HDShortName|GDBString|??|Короткое имя головного устройства
1000
#13=GC_HDGroup|GDBInteger|0|Группа в головном устройстве
1000
#14=CABLE_Type|TCableType|TCT_Control|Тип
1000
#15=CABLE_Segment|GDBInteger|0|Сегмент
1000
#16=CABLE_WireCount|GDBInteger|0|Число жил
1000
#17=CABLE_TotalCD|GDBInteger|2|Подключено устройств
1000
#18=AmountD|GDBDouble|6.0|Длина
1000
_OWNERHANDLE=0000000064
1000
_UPGRADE=1
1000
_LAYER=0
1002
}
0
VERTEX
5
323
100
AcDbEntity
8
0
370
20
100
AcDbVertex
100
AcDb3dPolylineVertex
10
32.6947603865
20
-3.1926397181
30
0.0000000000
0
VERTEX
5
324
100
AcDbEntity
8
0
370
20
100
AcDbVertex
100
AcDb3dPolylineVertex
10
53.3207910226
20
-6.9116260483
30
0.0000000000
0
SEQEND
5
325
100
AcDbEntity
8
0
370
20
0
LINE
5
326
100
AcDbEntity
8
0
370
20
100
AcDbLine
10
35.1947603865
20
-3.6434034152
30
0.0000000000
11
52.0707910226
21
-6.6862441998
31
0.0000000000
1001
DSTP_XDATA
1002
{
1000
_OWNERHANDLE=6E
1002
}
0
LINE
5
327
100
AcDbEntity
8
0
100
AcDbLine
10
54.2770482465
20
-7.7296984551
30
0.0000000000
11
57.6770482465
21
-12.8296984551
31
0.0000000000
1001
DSTP_XDATA
1002
{
1000
_UPGRADE=1
1002
}
0
LINE
5
328
100
AcDbEntity
8
0
100
AcDbLine
10
54.2770482465
20
-7.7296984551
30
0.0000000000
11
54.2770482465
21
-7.7296984551
31
0.0000000000
1001
DSTP_XDATA
1002
{
1000
_OWNERHANDLE=000000006E
1002
}
0
MTEXT
5
329
100
AcDbEntity
8
0
100
AcDbMText
10
62.6770482465
20
-13.8296984551
30
0.0000000000
40
2.5000000000
41
0.0000000000
71
2
1
@5
7
R2_5
11
1.0000000000
21
0.0000000000
31
0.0000000000
44
0.9600000000
1001
DSTP_XDATA
1002
{
1000
_OWNERHANDLE=000000006E
1002
}
0
LINE
5
32A
100
AcDbEntity
8
0
100
AcDbLine
10
57.6770482465
20
-12.8296984551
30
0.0000000000
11
67.6770482465
21
-12.8296984551
31
0.0000000000
1001
DSTP_XDATA
1002
{
1000
_OWNERHANDLE=000000006E
1002
}
0
LINE
5
32B
100
AcDbEntity
8
0
100
AcDbLine
10
57.6770482465
20
-16.8296984551
30
0.0000000000
11
67.6770482465
21
-16.8296984551
31
0.0000000000
1001
DSTP_XDATA
1002
{
1000
_OWNERHANDLE=000000006E
1002
}
0
LINE
5
32C
100
AcDbEntity
8
0
100
AcDbLine
10
57.6770482465
20
-12.8296984551
30
0.0000000000
11
57.6770482465
21
-16.8296984551
31
0.0000000000
1001
DSTP_XDATA
1002
{
1000
_OWNERHANDLE=000000006E
1002
}
0
LINE
5
32D
100
AcDbEntity
8
0
100
AcDbLine
10
67.6770482465
20
-12.8296984551
30
0.0000000000
11
67.6770482465
21
-16.8296984551
31
0.0000000000
1001
DSTP_XDATA
1002
{
1000
_OWNERHANDLE=000000006E
1002
}
0
MTEXT
5
32E
100
AcDbEntity
8
0
100
AcDbMText
10
57.6770482465
20
-11.3296984551
30
0.0000000000
40
2.5000000000
41
0.0000000000
71
7
1
SB3
7
R2_5
11
1.0000000000
21
0.0000000000
31
0.0000000000
44
0.0000000000
1001
DSTP_XDATA
1002
{
1000
_OWNERHANDLE=000000006E
1002
}
0
LINE
5
32F
100
AcDbEntity
8
0
100
AcDbLine
10
57.6770482465
20
-11.8296984551
30
0.0000000000
11
57.6770482465
21
-12.8296984551
31
0.0000000000
1001
DSTP_XDATA
1002
{
1000
_OWNERHANDLE=000000006E
1002
}
0
LINE
5
330
100
AcDbEntity
8
0
100
AcDbLine
10
57.6770482465
20
-11.8296984551
30
0.0000000000
11
62.2603818977
21
-11.8296984551
31
0.0000000000
1001
DSTP_XDATA
1002
{
1000
_OWNERHANDLE=000000006E
1002
}
0
INSERT
5
331
100
AcDbEntity
8
0
100
AcDbBlockReference
2
KIP_KNOPKA
10
53.3207910226
20
-6.9116260483
30
0.0000000000
41
1.0000000000
42
1.0000000000
43
1.0000000000
50
0.0000000000
1001
DSTP_XDATA
1002
{
1000
USES=System
1000
USES=devices
1000
#0=NMO_Name|GDBString|SB3|Обозначение
1000
#1=NMO_BaseName|GDBString|SB|Короткое Имя
1000
#2=NMO_Prefix|GDBString||Префикс
1000
#3=NMO_Suffix|GDBString|3|Суффикс
1000
#4=NMO_Template|GDBString|@@[NMO_Prefix]@@[NMO_BaseName]@@[NMO_Suffix]|Шаблон Обозначения
1000
#5=DB_link|GDBString|??|Материал
1000
#6=GC_HeadDevice|GDBString|??|
1000
#7=GC_HDShortName|GDBString|??|
1000
#8=GC_HDGroup|GDBInteger|0|
1000
#9=SerialConnection|GDBInteger|1|
1000
#10=GC_NumberInGroup|GDBInteger|0|
1000
#11=Device_Type|TDeviceType|TDT_SilaComm|Тип устройства
1000
#12=Device_Class|TDeviceClass|TDC_Shell|Класс устройства
1000
#13=Device_Group|TDeviceGroup|TDG_ElDevice|Группа устройства
1000
#14=BTY_TreeCoord|GDBString|PLAN_EM_Пускатель|Позиция в дереве
1000
_OWNERHANDLE=0000000064
1000
_HANDLE=0007C91410
1000
_UPGRADE=1
1002
}
0
INSERT
5
332
100
AcDbEntity
8
0
100
AcDbBlockReference
2
CONNECTOR_SQUARE
10
53.3207910226
20
-6.9116260483
30
0.0000000000
41
1.0000000000
42
1.0000000000
43
1.0000000000
50
0.0000000000
1001
DSTP_XDATA
1002
{
1000
USES=System
1000
USES=connectors
1000
USES=devices
1000
#0=DeviceClass|TDeviceClass|TDC_Unknown|Класс устройства
1000
#1=Connector_Type|TConnectorType|TCT_ElCable|Тип соединения
1000
#2=Border_Type|TConnectorBorderType|TCBT_Owner|Граница подрезки
1000
#3=Connector_Name|GDBString||Имя соединения
1000
#4=Connector_Junction|GDBBoolean|False|Возможность ответвления
1000
#5=LENGTH_Add|GDBDouble|0.0|Добавить к длине
1000
_OWNERHANDLE=0007C91410
1000
_HANDLE=0007C85FE0
1000
_UPGRADE=1
1002
}
0
LINE
5
333
100
AcDbEntity
8
SYS_METRIC
100
AcDbLine
10
52.3207910226
20
-6.9116260483
30
0.0000000000
11
54.3207910226
21
-6.9116260483
31
0.0000000000
1001
DSTP_XDATA
1002
{
1000
_OWNERHANDLE=0007C85FE0
1002
}
0
LINE
5
334
100
AcDbEntity
8
SYS_METRIC
100
AcDbLine
10
53.3207910226
20
-5.9116260483
30
0.0000000000
11
53.3207910226
21
-7.9116260483
31
0.0000000000
1001
DSTP_XDATA
1002
{
1000
_OWNERHANDLE=0007C85FE0
1002
}
0
LINE
5
335
100
AcDbEntity
8
SYS_DEVICE_BORDER
100
AcDbLine
10
52.0707910226
20
-8.1616260483
30
0.0000000000
11
52.0707910226
21
-5.6616260483
31
0.0000000000
1001
DSTP_XDATA
1002
{
1000
_OWNERHANDLE=0007C91410
1002
}
0
LINE
5
336
100
AcDbEntity
8
SYS_DEVICE_BORDER
100
AcDbLine
10
54.5707910226
20
-8.1616260483
30
0.0000000000
11
54.5707910226
21
-5.6616260483
31
0.0000000000
1001
DSTP_XDATA
1002
{
1000
_OWNERHANDLE=0007C91410
1002
}
0
LINE
5
337
100
AcDbEntity
8
SYS_DEVICE_BORDER
100
AcDbLine
10
52.0707910226
20
-5.6616260483
30
0.0000000000
11
54.5707910226
21
-5.6616260483
31
0.0000000000
1001
DSTP_XDATA
1002
{
1000
_OWNERHANDLE=0007C91410
1002
}
0
LINE
5
338
100
AcDbEntity
8
SYS_DEVICE_BORDER
100
AcDbLine
10
52.0707910226
20
-8.1616260483
30
0.0000000000
11
54.5707910226
21
-8.1616260483
31
0.0000000000
1001
DSTP_XDATA
1002
{
1000
_OWNERHANDLE=0007C91410
1002
}
0
TEXT
5
339
100
AcDbEntity
8
SYS_METRIC
100
AcDbText
11
53.3207910226
21
-4.6616260483
31
0.0000000000
10
51.0291241970
20
-4.6616260483
30
0.0000000000
40
2.5000000000
50
0.0000000000
41
0.7000000000
51
12.0000000000
72
1
7
R2_5
1
SB3
100
AcDbText
73
0
1001
DSTP_XDATA
1002
{
1000
_TMPL1=@@[NMO_Name]
1000
_OWNERHANDLE=0007C91410
1002
}
0
ENDSEC
0
SECTION
2
OBJECTS
0
DICTIONARY
5
C
330

100
AcDbDictionary
281
1
3
ACAD_COLOR
350
6B
3
ACAD_GROUP
350
D
3
ACAD_LAYOUT
350
1A
3
ACAD_MATERIAL
350
6A
3
ACAD_MLINESTYLE
350
17
3
ACAD_PLOTSETTINGS
350
19
3
ACAD_PLOTSTYLENAME
350
E
3
ACAD_TABLESTYLE
350
7E
3
ACDBHEADERROUNDTRIPXREC
350
12C
3
AcDbVariableDictionary
350
5E
3
DWGPROPS
350
12B
0
DICTIONARY
5
109
330
2
100
AcDbDictionary
280
1
281
1
3
ACAD_LAYERSTATES
360
10A
0
DICTIONARY
5
6B
102
{ACAD_REACTORS
330
C
102
}
330
C
100
AcDbDictionary
281
1
0
DICTIONARY
5
D
102
{ACAD_REACTORS
330
C
102
}
330
C
100
AcDbDictionary
281
1
0
DICTIONARY
5
1A
102
{ACAD_REACTORS
330
C
102
}
330
C
100
AcDbDictionary
281
1
3
Layout1
350
D3
3
Layout2
350
D7
3
Model
350
22
0
DICTIONARY
5
6A
102
{ACAD_REACTORS
330
C
102
}
330
C
100
AcDbDictionary
281
1
0
DICTIONARY
5
17
102
{ACAD_REACTORS
330
C
102
}
330
C
100
AcDbDictionary
281
1
3
Standard
350
18
0
DICTIONARY
5
19
102
{ACAD_REACTORS
330
C
102
}
330
C
100
AcDbDictionary
281
1
0
ACDBDICTIONARYWDFLT
5
E
102
{ACAD_REACTORS
330
C
102
}
330
C
100
AcDbDictionary
281
1
3
Normal
350
F
100
AcDbDictionaryWithDefault
340
F
0
DICTIONARY
5
7E
102
{ACAD_REACTORS
330
C
102
}
330
C
100
AcDbDictionary
281
1
3
Standard
350
7F
0
DICTIONARY
5
12C
102
{ACAD_REACTORS
330
C
102
}
330
C
100
AcDbDictionary
281
1
0
DICTIONARY
5
5E
102
{ACAD_REACTORS
330
C
102
}
330
C
100
AcDbDictionary
281
1
3
CTABLESTYLE
350
84
3
DIMASSOC
350
5F
3
HIDETEXT
350
63
3
PROJECTNAME
350
E4
0
XRECORD
5
12B
102
{ACAD_REACTORS
330
C
102
}
330
C
100
AcDbXrecord
280
1
1
DWGPROPS COOKIE
2

3

4

6

7

8
Autodesk
9

300
=
301
=
302
=
303
=
304
=
305
=
306
=
307
=
308
=
309
=
40
0.0099629166666667
41
2455008.558453229
42
2455012.146065174
1

90
0
0
DICTIONARY
5
10A
102
{ACAD_REACTORS
330
109
102
}
330
109
100
AcDbDictionary
281
1
0
LAYOUT
5
D3
102
{ACAD_XDICTIONARY
360
12F
102
}
102
{ACAD_REACTORS
330
1A
102
}
330
1A
100
AcDbPlotSettings
1

2
C:\Documents and Settings\basas\Application Data\Autodesk\AutoCAD 2005\R16.1\enu\plotters\Default Windows System Printer.pc3
4

6

40
0.0
41
0.0
42
0.0
43
0.0
44
0.0
45
0.0
46
0.0
47
0.0
48
0.0
49
0.0
140
0.0
141
0.0
142
1.0
143
1.0
70
688
72
0
73
0
74
5
7

75
16
147
1.0
148
0.0
149
0.0
100
AcDbLayout
1
Layout1
70
1
71
1
10
0.0
20
0.0
11
12.0
21
9.0
12
0.0
22
0.0
32
0.0
14
0.0
24
0.0
34
0.0
15
0.0
25
0.0
35
0.0
146
0.0
13
0.0
23
0.0
33
0.0
16
1.0
26
0.0
36
0.0
17
0.0
27
1.0
37
0.0
76
0
330
D2
0
LAYOUT
5
D7
102
{ACAD_XDICTIONARY
360
131
102
}
102
{ACAD_REACTORS
330
1A
102
}
330
1A
100
AcDbPlotSettings
1

2
C:\Documents and Settings\basas\Application Data\Autodesk\AutoCAD 2005\R16.1\enu\plotters\Default Windows System Printer.pc3
4

6

40
0.0
41
0.0
42
0.0
43
0.0
44
0.0
45
0.0
46
0.0
47
0.0
48
0.0
49
0.0
140
0.0
141
0.0
142
1.0
143
1.0
70
688
72
0
73
0
74
5
7

75
16
147
1.0
148
0.0
149
0.0
100
AcDbLayout
1
Layout2
70
1
71
2
10
0.0
20
0.0
11
12.0
21
9.0
12
0.0
22
0.0
32
0.0
14
0.0
24
0.0
34
0.0
15
0.0
25
0.0
35
0.0
146
0.0
13
0.0
23
0.0
33
0.0
16
1.0
26
0.0
36
0.0
17
0.0
27
1.0
37
0.0
76
0
330
D6
0
LAYOUT
5
22
102
{ACAD_XDICTIONARY
360
12D
102
}
102
{ACAD_REACTORS
330
1A
102
}
330
1A
100
AcDbPlotSettings
1

2
none_device
4
ISO_A4_(210.00_x_297.00_MM)
6

40
7.5
41
20.0
42
7.5
43
20.0
44
210.0
45
297.0
46
11.54999923706054
47
-13.65000009536743
48
0.0
49
0.0
140
0.0
141
0.0
142
1.0
143
8.704084754739808
70
11952
72
1
73
0
74
0
7

75
0
147
0.1148885871608098
148
0.0
149
0.0
100
AcDbLayout
1
Model
70
1
71
0
10
0.0
20
0.0
11
12.0
21
9.0
12
0.0
22
0.0
32
0.0
14
0.0
24
0.0
34
0.0
15
0.0
25
0.0
35
0.0
146
0.0
13
0.0
23
0.0
33
0.0
16
1.0
26
0.0
36
0.0
17
0.0
27
1.0
37
0.0
76
0
330
1F
1001
ACAD_PSEXT
1000
None
1000
None
1000
Not applicable
1000
The layout will not be plotted unless a new plotter configuration name is selected.
1070
0
0
MLINESTYLE
5
18
102
{ACAD_REACTORS
330
17
102
}
330
17
100
AcDbMlineStyle
2
STANDARD
70
0
3

62
256
51
90.0
52
90.0
71
2
49
0.5
62
256
6
BYLAYER
49
-0.5
62
256
6
BYLAYER
0
ACDBPLACEHOLDER
5
F
102
{ACAD_REACTORS
330
E
102
}
330
E
0
TABLESTYLE
5
7F
102
{ACAD_REACTORS
330
7E
102
}
330
7E
100
AcDbTableStyle
3
Standard
70
0
71
0
40
1.5
41
1.5
280
0
281
0
7
Standard
140
4.5
170
2
62
0
63
7
283
0
274
-2
284
1
64
0
275
-2
285
1
65
0
276
-2
286
1
66
0
277
-2
287
1
67
0
278
-2
288
1
68
0
279
-2
289
1
69
0
7
Standard
140
6.0
170
5
62
0
63
7
283
0
274
-2
284
1
64
0
275
-2
285
1
65
0
276
-2
286
1
66
0
277
-2
287
1
67
0
278
-2
288
1
68
0
279
-2
289
1
69
0
7
Standard
140
4.5
170
5
62
0
63
7
283
0
274
-2
284
1
64
0
275
-2
285
1
65
0
276
-2
286
1
66
0
277
-2
287
1
67
0
278
-2
288
1
68
0
279
-2
289
1
69
0
0
DICTIONARYVAR
5
84
102
{ACAD_REACTORS
330
5E
102
}
330
5E
100
DictionaryVariables
280
0
1
STANDARD
0
DICTIONARYVAR
5
5F
102
{ACAD_REACTORS
330
5E
102
}
330
5E
100
DictionaryVariables
280
0
1
2
0
DICTIONARYVAR
5
63
102
{ACAD_REACTORS
330
5E
102
}
330
5E
100
DictionaryVariables
280
0
1
1
0
DICTIONARYVAR
5
E4
102
{ACAD_REACTORS
330
5E
102
}
330
5E
100
DictionaryVariables
280
0
1

0
DICTIONARY
5
12F
330
D3
100
AcDbDictionary
280
1
281
1
3
ACAD_XREC_ROUNDTRIP
360
130
0
DICTIONARY
5
131
330
D7
100
AcDbDictionary
280
1
281
1
3
ACAD_XREC_ROUNDTRIP
360
132
0
DICTIONARY
5
12D
330
22
100
AcDbDictionary
280
1
281
1
3
ACAD_XREC_ROUNDTRIP
360
12E
0
XRECORD
5
130
102
{ACAD_REACTORS
330
12F
102
}
330
12F
100
AcDbXrecord
280
1
102
SHADEPLOT
70
0
102
SHADEPLOTRESLEVEL
70
2
102
SHADEPLOTCUSTOMDPI
70
300
0
XRECORD
5
132
102
{ACAD_REACTORS
330
131
102
}
330
131
100
AcDbXrecord
280
1
102
SHADEPLOT
70
0
102
SHADEPLOTRESLEVEL
70
2
102
SHADEPLOTCUSTOMDPI
70
300
0
XRECORD
5
12E
102
{ACAD_REACTORS
330
12D
102
}
330
12D
100
AcDbXrecord
280
1
102
SHADEPLOT
70
0
102
SHADEPLOTRESLEVEL
70
2
102
SHADEPLOTCUSTOMDPI
70
300
0
ENDSEC
0
EOF
