0
SECTION
2
HEADER
9
$ACADVER
1
AC1015
9
$ACADMAINTVER
70
20
9
$DWGCODEPAGE
3
ANSI_1251
9
$INSBASE
10
0.0
20
0.0
30
0.0
9
$EXTMIN
10
1.000000000000000E+20
20
1.000000000000000E+20
30
1.000000000000000E+20
9
$EXTMAX
10
-1.000000000000000E+20
20
-1.000000000000000E+20
30
-1.000000000000000E+20
9
$LIMMIN
10
0.0
20
0.0
9
$LIMMAX
10
420.0
20
297.0
9
$ORTHOMODE
70
0
9
$REGENMODE
70
1
9
$FILLMODE
70
1
9
$QTEXTMODE
70
0
9
$MIRRTEXT
70
0
9
$LTSCALE
40
2000
9
$ATTMODE
70
1
9
$TEXTSIZE
40
2.5
9
$TRACEWID
40
1.0
9
$TEXTSTYLE
7
Standard
9
$CLAYER
8
TEXT
9
$CELTYPE
6
ByLayer
9
$CECOLOR
62
256
9
$CELTSCALE
40
1.0
9
$DISPSILH
70
0
9
$DIMSCALE
40
1.0
9
$DIMASZ
40
0.18
9
$DIMEXO
40
0.0625
9
$DIMDLI
40
0.38
9
$DIMRND
40
0.0
9
$DIMDLE
40
0.0
9
$DIMEXE
40
0.18
9
$DIMTP
40
0.0
9
$DIMTM
40
0.0
9
$DIMTXT
40
0.18
9
$DIMCEN
40
0.09
9
$DIMTSZ
40
0.0
9
$DIMTOL
70
0
9
$DIMLIM
70
0
9
$DIMTIH
70
1
9
$DIMTOH
70
1
9
$DIMSE1
70
0
9
$DIMSE2
70
0
9
$DIMTAD
70
0
9
$DIMZIN
70
0
9
$DIMBLK
1

9
$DIMASO
70
1
9
$DIMSHO
70
1
9
$DIMPOST
1

9
$DIMAPOST
1

9
$DIMALT
70
0
9
$DIMALTD
70
2
9
$DIMALTF
40
25.4
9
$DIMLFAC
40
1.0
9
$DIMTOFL
70
0
9
$DIMTVP
40
0.0
9
$DIMTIX
70
0
9
$DIMSOXD
70
0
9
$DIMSAH
70
0
9
$DIMBLK1
1

9
$DIMBLK2
1

9
$DIMSTYLE
2
Standard
9
$DIMCLRD
70
0
9
$DIMCLRE
70
0
9
$DIMCLRT
70
0
9
$DIMTFAC
40
1.0
9
$DIMGAP
40
0.09
9
$DIMJUST
70
0
9
$DIMSD1
70
0
9
$DIMSD2
70
0
9
$DIMTOLJ
70
1
9
$DIMTZIN
70
0
9
$DIMALTZ
70
0
9
$DIMALTTZ
70
0
9
$DIMUPT
70
0
9
$DIMDEC
70
4
9
$DIMTDEC
70
4
9
$DIMALTU
70
2
9
$DIMALTTD
70
2
9
$DIMTXSTY
7
Standard
9
$DIMAUNIT
70
0
9
$DIMADEC
70
0
9
$DIMALTRND
40
0.0
9
$DIMAZIN
70
0
9
$DIMDSEP
70
46
9
$DIMATFIT
70
3
9
$DIMFRAC
70
0
9
$DIMLDRBLK
1

9
$DIMLUNIT
70
2
9
$DIMLWD
70
-2
9
$DIMLWE
70
-2
9
$DIMTMOVE
70
0
9
$LUNITS
70
2
9
$LUPREC
70
4
9
$SKETCHINC
40
1.0
9
$FILLETRAD
40
0.0
9
$AUNITS
70
0
9
$AUPREC
70
0
9
$MENU
1
.
9
$ELEVATION
40
0.0
9
$PELEVATION
40
0.0
9
$THICKNESS
40
0.0
9
$LIMCHECK
70
0
9
$CHAMFERA
40
0.0
9
$CHAMFERB
40
0.0
9
$CHAMFERC
40
0.0
9
$CHAMFERD
40
0.0
9
$SKPOLY
70
0
9
$TDCREATE
40
2455008.558453229
9
$TDUCREATE
40
2455008.308453229
9
$TDUPDATE
40
2455694.624051458
9
$TDUUPDATE
40
2455694.374051458
9
$TDINDWG
40
0.0121107986
9
$TDUSRTIMER
40
0.0121104398
9
$USRTIMER
70
1
9
$ANGBASE
50
0.0
9
$ANGDIR
70
0
9
$PDMODE
70
0
9
$PDSIZE
40
0.0
9
$PLINEWID
40
0.0
9
$SPLFRAME
70
0
9
$SPLINETYPE
70
6
9
$SPLINESEGS
70
8
9
$HANDSEED
5
10000042F
9
$SURFTAB1
70
6
9
$SURFTAB2
70
6
9
$SURFTYPE
70
6
9
$SURFU
70
6
9
$SURFV
70
6
9
$UCSBASE
2

9
$UCSNAME
2

9
$UCSORG
10
0.0
20
0.0
30
0.0
9
$UCSXDIR
10
1.0
20
0.0
30
0.0
9
$UCSYDIR
10
0.0
20
1.0
30
0.0
9
$UCSORTHOREF
2

9
$UCSORTHOVIEW
70
0
9
$UCSORGTOP
10
0.0
20
0.0
30
0.0
9
$UCSORGBOTTOM
10
0.0
20
0.0
30
0.0
9
$UCSORGLEFT
10
0.0
20
0.0
30
0.0
9
$UCSORGRIGHT
10
0.0
20
0.0
30
0.0
9
$UCSORGFRONT
10
0.0
20
0.0
30
0.0
9
$UCSORGBACK
10
0.0
20
0.0
30
0.0
9
$PUCSBASE
2

9
$PUCSNAME
2

9
$PUCSORG
10
0.0
20
0.0
30
0.0
9
$PUCSXDIR
10
1.0
20
0.0
30
0.0
9
$PUCSYDIR
10
0.0
20
1.0
30
0.0
9
$PUCSORTHOREF
2

9
$PUCSORTHOVIEW
70
0
9
$PUCSORGTOP
10
0.0
20
0.0
30
0.0
9
$PUCSORGBOTTOM
10
0.0
20
0.0
30
0.0
9
$PUCSORGLEFT
10
0.0
20
0.0
30
0.0
9
$PUCSORGRIGHT
10
0.0
20
0.0
30
0.0
9
$PUCSORGFRONT
10
0.0
20
0.0
30
0.0
9
$PUCSORGBACK
10
0.0
20
0.0
30
0.0
9
$USERI1
70
0
9
$USERI2
70
0
9
$USERI3
70
0
9
$USERI4
70
0
9
$USERI5
70
0
9
$USERR1
40
0.0
9
$USERR2
40
0.0
9
$USERR3
40
0.0
9
$USERR4
40
0.0
9
$USERR5
40
0.0
9
$WORLDVIEW
70
1
9
$SHADEDGE
70
3
9
$SHADEDIF
70
70
9
$TILEMODE
70
1
9
$MAXACTVP
70
64
9
$PINSBASE
10
0.0
20
0.0
30
0.0
9
$PLIMCHECK
70
0
9
$PEXTMIN
10
0.0
20
0.0
30
0.0
9
$PEXTMAX
10
0.0
20
0.0
30
0.0
9
$PLIMMIN
10
0.0
20
0.0
9
$PLIMMAX
10
12.0
20
9.0
9
$UNITMODE
70
0
9
$VISRETAIN
70
1
9
$PLINEGEN
70
0
9
$PSLTSCALE
70
1
9
$TREEDEPTH
70
3020
9
$CMLSTYLE
2
Standard
9
$CMLJUST
70
0
9
$CMLSCALE
40
20.0
9
$PROXYGRAPHICS
70
1
9
$MEASUREMENT
70
1
9
$CELWEIGHT
370
-1
9
$ENDCAPS
280
0
9
$JOINSTYLE
280
0
9
$LWDISPLAY
290
1
9
$INSUNITS
70
0
9
$HYPERLINKBASE
1

9
$STYLESHEET
1

9
$XEDIT
290
1
9
$CEPSNTYPE
380
0
9
$PSTYLEMODE
290
1
9
$FINGERPRINTGUID
2
{83B934B2-5622-42D0-9691-648EBDBEDF3A}
9
$VERSIONGUID
2
{687BA470-A50B-4F07-854F-729D023A6E33}
9
$EXTNAMES
290
1
9
$PSVPSCALE
40
0.0
9
$OLESTARTUP
290
0
0
ENDSEC
0
SECTION
2
CLASSES
0
CLASS
1
ACDBDICTIONARYWDFLT
2
AcDbDictionaryWithDefault
3
ObjectDBX Classes
90
0
280
0
281
0
0
CLASS
1
ACDBPLACEHOLDER
2
AcDbPlaceHolder
3
ObjectDBX Classes
90
0
280
0
281
0
0
CLASS
1
LAYOUT
2
AcDbLayout
3
ObjectDBX Classes
90
0
280
0
281
0
0
CLASS
1
DICTIONARYVAR
2
AcDbDictionaryVar
3
ObjectDBX Classes
90
0
280
0
281
0
0
CLASS
1
TABLESTYLE
2
AcDbTableStyle
3
ObjectDBX Classes
90
2047
280
0
281
0
0
ENDSEC
0
SECTION
2
TABLES
0
TABLE
2
VPORT
5
2B6
330
0
100
AcDbSymbolTable
70
1
0
VPORT
5
2B7
330
2B6
100
AcDbSymbolTableRecord
100
AcDbViewportTableRecord
2
*Active
70
0
10
0.0
20
0.0
11
1.0
21
1.0
12
-6.63516710878285
22
30.3069137870739
13
0
23
0
14
10
24
10
15
10
25
10
16
0
26
0
36
1
17
0
27
0
37
0
40
5.57147842717086
41
1.39156626506024
42
50.0
43
0.0
44
0.0
50
0.0
51
0.0
71
0
72
1000
73
1
74
3
75
0
76
0
77
0
78
0
281
0
65
1
110
0.0
120
0.0
130
0.0
111
1.0
121
0.0
131
0.0
112
0.0
122
1.0
132
0.0
79
0
146
0.0
0
ENDTAB
0
TABLE
2
LTYPE
5
2B8
330
0
100
AcDbSymbolTable
70
1
0
LTYPE
5
2BC
330
2BB
100
AcDbSymbolTableRecord
100
AcDbLinetypeTableRecord
2
ByBlock
70
0
3

72
65
73
0
40
0
0
LTYPE
5
2BD
330
2BB
100
AcDbSymbolTableRecord
100
AcDbLinetypeTableRecord
2
ByLayer
70
0
3

72
65
73
0
40
0
0
LTYPE
5
2BE
330
2BB
100
AcDbSymbolTableRecord
100
AcDbLinetypeTableRecord
2
CONTINUOUS
70
0
3
Solid line
72
65
73
0
40
0
0
LTYPE
5
2BF
330
2BB
100
AcDbSymbolTableRecord
100
AcDbLinetypeTableRecord
2
DASHDOT2
70
0
3
Dash dot (.5x) _._._._._._._._._._._._._._._.
72
65
73
4
40
12.7
49
6.35
74
0
49
-3.175
74
0
49
0
74
0
49
-3.175
74
0
0
ENDTAB
0
TABLE
2
LAYER
5
2C0
102
{ACAD_XDICTIONARY
360
2C1
102
}
330
0
100
AcDbSymbolTable
70
1
0
LAYER
5
2C4
100
AcDbSymbolTableRecord
100
AcDbLayerTableRecord
2
0
70
0
62
7
6
Continuous
290
1
370
-3
390
2C3
0
LAYER
5
2C5
100
AcDbSymbolTableRecord
100
AcDbLayerTableRecord
2
SYS_METRIC
70
0
62
-7
6
Continuous
290
0
370
-3
390
2C3
0
LAYER
5
2C6
100
AcDbSymbolTableRecord
100
AcDbLayerTableRecord
2
TEXT
70
0
62
4
6
Continuous
290
1
370
-3
390
2C3
0
LAYER
5
2C7
100
AcDbSymbolTableRecord
100
AcDbLayerTableRecord
2
DefaultErrorLayer
70
0
62
7
6
Continuous
290
1
370
-3
390
2C3
0
ENDTAB
0
TABLE
2
STYLE
5
2C8
330
0
100
AcDbSymbolTable
70
2
0
STYLE
5
2CA
330
2C8
100
AcDbSymbolTableRecord
100
AcDbTextStyleTableRecord
2
STANDARD
70
0
40
0
41
1
50
0
71
0
42
2.5
3
isocp.shx
4

0
ENDTAB
0
TABLE
2
VIEW
5
2CB
330
0
100
AcDbSymbolTable
70
0
0
ENDTAB
0
TABLE
2
UCS
5
2CC
330
0
100
AcDbSymbolTable
70
0
0
ENDTAB
0
TABLE
2
APPID
5
2CD
330
0
100
AcDbSymbolTable
70
11
0
APPID
5
2CE
330
2CD
100
AcDbSymbolTableRecord
100
AcDbRegAppTableRecord
2
ACAD
70
0
0
APPID
5
2CF
330
2CD
100
AcDbSymbolTableRecord
100
AcDbRegAppTableRecord
2
ACAD_PSEXT
70
0
0
APPID
5
2D0
330
2CD
100
AcDbSymbolTableRecord
100
AcDbRegAppTableRecord
2
ACAD_EXEMPT_FROM_CAD_STANDARDS
70
0
0
APPID
5
2D1
330
2CD
100
AcDbSymbolTableRecord
100
AcDbRegAppTableRecord
2
DSTP_XDATA
70
0
0
APPID
5
2D2
330
2CD
100
AcDbSymbolTableRecord
100
AcDbRegAppTableRecord
2
AcAecLayerStandard
70
0
0
APPID
5
2D3
330
2CD
100
AcDbSymbolTableRecord
100
AcDbRegAppTableRecord
2
ACAD_DSTYLE_DIMTEXT_FILL
70
0
0
APPID
5
2D4
330
2CD
100
AcDbSymbolTableRecord
100
AcDbRegAppTableRecord
2
ACAD_DSTYLE_DIMEXT_LENGTH
70
0
0
APPID
5
2D5
330
2CD
100
AcDbSymbolTableRecord
100
AcDbRegAppTableRecord
2
ACAD_DSTYLE_DIMEXT_ENABLED
70
0
0
APPID
5
2D6
330
2CD
100
AcDbSymbolTableRecord
100
AcDbRegAppTableRecord
2
ACAD_DSTYLE_DIM_LINETYPE
70
0
0
APPID
5
2D7
330
2CD
100
AcDbSymbolTableRecord
100
AcDbRegAppTableRecord
2
ACAD_DSTYLE_DIM_EXT1_LINETYPE
70
0
0
APPID
5
2D8
330
2CD
100
AcDbSymbolTableRecord
100
AcDbRegAppTableRecord
2
ACAD_DSTYLE_DIM_EXT2_LINETYPE
70
0
0
ENDTAB
0
TABLE
2
DIMSTYLE
5
2D9
330
0
100
AcDbSymbolTable
70
2
100
AcDbDimStyleTable
71
1
340
2DA
0
DIMSTYLE
105
2DA
330
2D8
100
AcDbSymbolTableRecord
100
AcDbDimStyleTableRecord
2
Standard
70
0
340
2CA
0
ENDTAB
0
TABLE
2
BLOCK_RECORD
5
2DB
330
0
100
AcDbSymbolTable
70
1
0
BLOCK_RECORD
5
2DC
330
2DB
100
AcDbSymbolTableRecord
100
AcDbBlockTableRecord
2
*Model_Space
340
2DD
0
BLOCK_RECORD
5
2DE
330
2DB
100
AcDbSymbolTableRecord
100
AcDbBlockTableRecord
2
*Paper_Space
340
2DF
0
BLOCK_RECORD
5
2E0
330
2DB
100
AcDbSymbolTableRecord
100
AcDbBlockTableRecord
2
*Paper_Space0
340
2E1
0
ENDTAB
0
ENDSEC
0
SECTION
2
BLOCKS
0
BLOCK
5
2E2
330
2DC
100
AcDbEntity
8
0
100
AcDbBlockBegin
2
*Model_Space
70
0
10
0.0
20
0.0
30
0.0
3
*Model_Space
1

0
ENDBLK
5
2E3
330
2DC
100
AcDbEntity
8
0
100
AcDbBlockEnd
0
BLOCK
5
2E4
330
2DE
100
AcDbEntity
67
1
8
0
100
AcDbBlockBegin
2
*Paper_Space
70
0
10
0.0
20
0.0
30
0.0
3
*Paper_Space
1

0
ENDBLK
5
2E5
330
2DE
100
AcDbEntity
67
1
8
0
100
AcDbBlockEnd
0
BLOCK
5
2E6
330
2E0
100
AcDbEntity
67
1
8
0
100
AcDbBlockBegin
2
*Paper_Space0
70
0
10
0.0
20
0.0
30
0.0
3
*Paper_Space0
1

0
ENDBLK
5
2E7
330
2E0
100
AcDbEntity
67
1
8
0
100
AcDbBlockEnd
0
ENDSEC
0
SECTION
2
ENTITIES
0
TEXT
5
2E8
100
AcDbEntity
8
TEXT
100
AcDbText
6
DASHDOT2
10
-13.3237626534
20
13.3237626534
30
0.0000000000
11
-13.3237626534
21
13.3237626534
31
0.0000000000
40
3.5000000000
50
0.0000000000
41
0.6500000000
51
12.0000000000
72
0
7
STANDARD
1
!"#$%&'()*+,-./0123456789:;<=>?@ABCDEFGHIJKLMNOPQRSTUVWXYZ[\]_`abcdefghijklmnopqrstuvwxyz{|}~ÉÑÖÜáàâäãåçéèêëíìîïñóòô¡¬√ƒ≈∆«»… ÀÃÕŒœ–—“”‘’÷◊ÿŸ⁄€‹›ﬁﬂ‡·‚„‰ÂÊÁËÈÍÎÏÌÓÔÒÚÛÙıˆ˜¯˘˙˚¸˝˛ˇ
100
AcDbText
73
0
1001
DSTP_XDATA
1002
{
1000
_OWNERHANDLE=0000000064
1002
}
0
LINE
5
2E9
100
AcDbEntity
8
TEXT
100
AcDbLine
6
DASHDOT2
10
0.0000000000
20
0.0000000000
30
0.0000000000
11
408.2361119001
21
0.0000000000
31
0.0000000000
1001
DSTP_XDATA
1002
{
1000
_OWNERHANDLE=0000000064
1002
}
0
TEXT
5
2EA
100
AcDbEntity
8
TEXT
100
AcDbText
6
DASHDOT2
10
-13.3237626534
20
24.1155991477
30
0.0000000000
11
-13.3237626534
21
24.1155991477
31
0.0000000000
40
3.5000000000
50
0.0000000000
41
0.6500000000
51
12.0000000000
72
0
7
STANDARD
1
ß
100
AcDbText
73
0
1001
DSTP_XDATA
1002
{
1000
_OWNERHANDLE=0000000064
1002
}
0
TEXT
5
2EB
100
AcDbEntity
8
0
100
AcDbText
6
DASHDOT2
10
-13.3237626534
20
28.5717722583
30
0.0000000000
11
-13.3237626534
21
28.5717722583
31
0.0000000000
40
3.5000000000
50
0.0000000000
41
0.6500000000
51
0.0000000000
72
0
7
STANDARD
1
&
100
AcDbText
73
0
1001
DSTP_XDATA
1002
{
1000
_OWNERHANDLE=0000000064
1002
}
0
TEXT
5
2EC
100
AcDbEntity
8
DefaultErrorLayer
100
AcDbText
6
DASHDOT2
10
-17.6223535441
20
36.6612049231
30
0.0000000000
11
-17.6223535441
21
36.6612049231
31
0.0000000000
40
3.5000000000
50
0.0000000000
41
0.6500000000
51
12.0000000000
72
0
7
STANDARD
1
)
100
AcDbText
73
0
1001
DSTP_XDATA
1002
{
1000
_OWNERHANDLE=0000000064
1002
}
0
TEXT
5
2ED
100
AcDbEntity
8
0
100
AcDbText
6
DASHDOT2
10
-7.5183679180
20
28.5717722583
30
0.0000000000
11
-7.5183679180
21
28.5717722583
31
0.0000000000
40
3.5000000000
50
0.0000000000
41
0.6500000000
51
0.0000000000
72
0
7
STANDARD
1
&
100
AcDbText
73
0
1001
DSTP_XDATA
1002
{
1000
_OWNERHANDLE=0000000064
1002
}
0
POLYLINE
5
2EE
100
AcDbEntity
8
TEXT
62
7
370
0
100
AcDb3dPolyline
6
ByLayer
66
1
10
0.0000000000
20
0.0000000000
30
0.0000000000
70
8
1001
DSTP_XDATA
1002
{
1000
_OWNERHANDLE=0000000064
1002
}
0
VERTEX
5
2EF
100
AcDbEntity
8
TEXT
62
7
370
0
100
AcDbVertex
6
ByLayer
100
AcDb3dPolylineVertex
10
-5.8118329696
20
29.7973676328
30
0.0000000000
0
VERTEX
5
2F0
100
AcDbEntity
8
TEXT
62
7
370
0
100
AcDbVertex
6
ByLayer
100
AcDb3dPolylineVertex
10
-6.6308072485
20
28.8527500434
30
0.0000000000
0
SEQEND
5
2F1
100
AcDbEntity
8
TEXT
62
7
370
0
6
ByLayer
0
TEXT
5
2F2
100
AcDbEntity
8
0
62
7
370
0
100
AcDbText
6
ByLayer
10
0.0000000000
20
0.0000000000
30
0.0000000000
11
0.0000000000
21
0.0000000000
31
0.0000000000
40
1.0000000000
50
0.0000000000
41
1.0000000000
51
0.0000000000
72
0
7
STANDARD
1
**EMPTY STRING**
100
AcDbText
73
0
1001
DSTP_XDATA
1002
{
1000
_OWNERHANDLE=0000000064
1002
}
0
POLYLINE
5
2F3
100
AcDbEntity
8
TEXT
62
7
370
0
100
AcDb3dPolyline
6
ByLayer
66
1
10
0.0000000000
20
0.0000000000
30
0.0000000000
70
8
1001
DSTP_XDATA
1002
{
1000
_OWNERHANDLE=0000000064
1002
}
0
VERTEX
5
2F4
100
AcDbEntity
8
TEXT
62
7
370
0
100
AcDbVertex
6
ByLayer
100
AcDb3dPolylineVertex
10
-7.1370489081
20
29.5176507738
30
0.0000000000
0
VERTEX
5
2F5
100
AcDbEntity
8
TEXT
62
7
370
0
100
AcDbVertex
6
ByLayer
100
AcDb3dPolylineVertex
10
-7.1526396838
20
29.4635416109
30
0.0000000000
0
VERTEX
5
2F6
100
AcDbEntity
8
TEXT
62
7
370
0
100
AcDbVertex
6
ByLayer
100
AcDb3dPolylineVertex
10
-7.1654791462
20
29.4075982391
30
0.0000000000
0
VERTEX
5
2F7
100
AcDbEntity
8
TEXT
62
7
370
0
100
AcDbVertex
6
ByLayer
100
AcDb3dPolylineVertex
10
-7.1728159818
20
29.3498206584
30
0.0000000000
0
VERTEX
5
2F8
100
AcDbEntity
8
TEXT
62
7
370
0
100
AcDbVertex
6
ByLayer
100
AcDb3dPolylineVertex
10
-7.1764843997
20
29.2911259732
30
0.0000000000
0
VERTEX
5
2F9
100
AcDbEntity
8
TEXT
62
7
370
0
100
AcDbVertex
6
ByLayer
100
AcDb3dPolylineVertex
10
-7.1755672952
20
29.2315141836
30
0.0000000000
0
VERTEX
5
2FA
100
AcDbEntity
8
TEXT
62
7
370
0
100
AcDbVertex
6
ByLayer
100
AcDb3dPolylineVertex
10
-7.1709817729
20
29.1728194984
30
0.0000000000
0
VERTEX
5
2FB
100
AcDbEntity
8
TEXT
62
7
370
0
100
AcDbVertex
6
ByLayer
100
AcDb3dPolylineVertex
10
-7.1618107284
20
29.1159590222
30
0.0000000000
0
VERTEX
5
2FC
100
AcDbEntity
8
TEXT
62
7
370
0
100
AcDbVertex
6
ByLayer
100
AcDb3dPolylineVertex
10
-7.1480541615
20
29.0600156504
30
0.0000000000
0
VERTEX
5
2FD
100
AcDbEntity
8
TEXT
62
7
370
0
100
AcDbVertex
6
ByLayer
100
AcDb3dPolylineVertex
10
-7.1306291769
20
29.0077406964
30
0.0000000000
0
VERTEX
5
2FE
100
AcDbEntity
8
TEXT
62
7
370
0
100
AcDbVertex
6
ByLayer
100
AcDb3dPolylineVertex
10
-7.1095357744
20
28.9582170558
30
0.0000000000
0
VERTEX
5
2FF
100
AcDbEntity
8
TEXT
62
7
370
0
100
AcDbVertex
6
ByLayer
100
AcDb3dPolylineVertex
10
-7.0847739541
20
28.9132789375
30
0.0000000000
0
VERTEX
5
300
100
AcDbEntity
8
TEXT
62
7
370
0
100
AcDbVertex
6
ByLayer
100
AcDb3dPolylineVertex
10
-7.0572608204
20
28.8720092370
30
0.0000000000
0
VERTEX
5
301
100
AcDbEntity
8
TEXT
62
7
370
0
100
AcDbVertex
6
ByLayer
100
AcDb3dPolylineVertex
10
-7.0269963734
20
28.8362421632
30
0.0000000000
0
VERTEX
5
302
100
AcDbEntity
8
TEXT
62
7
370
0
100
AcDbVertex
6
ByLayer
100
AcDb3dPolylineVertex
10
-6.9939806130
20
28.8059777162
30
0.0000000000
0
VERTEX
5
303
100
AcDbEntity
8
TEXT
62
7
370
0
100
AcDbVertex
6
ByLayer
100
AcDb3dPolylineVertex
10
-6.9591306437
20
28.7812158959
30
0.0000000000
0
VERTEX
5
304
100
AcDbEntity
8
TEXT
62
7
370
0
100
AcDbVertex
6
ByLayer
100
AcDb3dPolylineVertex
10
-6.9224464654
20
28.7637909112
30
0.0000000000
0
VERTEX
5
305
100
AcDbEntity
8
TEXT
62
7
370
0
100
AcDbVertex
6
ByLayer
100
AcDb3dPolylineVertex
10
-6.8848451828
20
28.7518685533
30
0.0000000000
0
VERTEX
5
306
100
AcDbEntity
8
TEXT
62
7
370
0
100
AcDbVertex
6
ByLayer
100
AcDb3dPolylineVertex
10
-6.8463267956
20
28.7463659265
30
0.0000000000
0
VERTEX
5
307
100
AcDbEntity
8
TEXT
62
7
370
0
100
AcDbVertex
6
ByLayer
100
AcDb3dPolylineVertex
10
-6.8078084085
20
28.7482001354
30
0.0000000000
0
VERTEX
5
308
100
AcDbEntity
8
TEXT
62
7
370
0
100
AcDbVertex
6
ByLayer
100
AcDb3dPolylineVertex
10
-6.7702071258
20
28.7564540756
30
0.0000000000
0
VERTEX
5
309
100
AcDbEntity
8
TEXT
62
7
370
0
100
AcDbVertex
6
ByLayer
100
AcDb3dPolylineVertex
10
-6.7326058431
20
28.7711277468
30
0.0000000000
0
VERTEX
5
30A
100
AcDbEntity
8
TEXT
62
7
370
0
100
AcDbVertex
6
ByLayer
100
AcDb3dPolylineVertex
10
-6.6968387693
20
28.7922211493
30
0.0000000000
0
VERTEX
5
30B
100
AcDbEntity
8
TEXT
62
7
370
0
100
AcDbVertex
6
ByLayer
100
AcDb3dPolylineVertex
10
-6.6629059045
20
28.8197342830
30
0.0000000000
0
VERTEX
5
30C
100
AcDbEntity
8
TEXT
62
7
370
0
100
AcDbVertex
6
ByLayer
100
AcDb3dPolylineVertex
10
-6.6308072485
20
28.8527500434
30
0.0000000000
0
SEQEND
5
30D
100
AcDbEntity
8
TEXT
62
7
370
0
6
ByLayer
0
TEXT
5
30E
100
AcDbEntity
8
0
62
7
370
0
100
AcDbText
6
ByLayer
10
0.0000000000
20
0.0000000000
30
0.0000000000
11
0.0000000000
21
0.0000000000
31
0.0000000000
40
1.0000000000
50
0.0000000000
41
1.0000000000
51
0.0000000000
72
0
7
STANDARD
1
**EMPTY STRING**
100
AcDbText
73
0
1001
DSTP_XDATA
1002
{
1000
_OWNERHANDLE=0000000064
1002
}
0
POLYLINE
5
30F
100
AcDbEntity
8
TEXT
62
7
370
0
100
AcDb3dPolyline
6
ByLayer
66
1
10
0.0000000000
20
0.0000000000
30
0.0000000000
70
8
1001
DSTP_XDATA
1002
{
1000
_OWNERHANDLE=0000000064
1002
}
0
VERTEX
5
310
100
AcDbEntity
8
TEXT
62
7
370
0
100
AcDbVertex
6
ByLayer
100
AcDb3dPolylineVertex
10
-7.1370489081
20
29.5176507738
30
0.0000000000
0
VERTEX
5
311
100
AcDbEntity
8
TEXT
62
7
370
0
100
AcDbVertex
6
ByLayer
100
AcDb3dPolylineVertex
10
-6.4317955816
20
31.0923191242
30
0.0000000000
0
VERTEX
5
312
100
AcDbEntity
8
TEXT
62
7
370
0
100
AcDbVertex
6
ByLayer
100
AcDb3dPolylineVertex
10
-6.4125363881
20
31.1436769737
30
0.0000000000
0
VERTEX
5
313
100
AcDbEntity
8
TEXT
62
7
370
0
100
AcDbVertex
6
ByLayer
100
AcDb3dPolylineVertex
10
-6.3978627168
20
31.1977861366
30
0.0000000000
0
VERTEX
5
314
100
AcDbEntity
8
TEXT
62
7
370
0
100
AcDbVertex
6
ByLayer
100
AcDb3dPolylineVertex
10
-6.3868574633
20
31.2546466128
30
0.0000000000
0
VERTEX
5
315
100
AcDbEntity
8
TEXT
62
7
370
0
100
AcDbVertex
6
ByLayer
100
AcDb3dPolylineVertex
10
-6.3795206277
20
31.3133412980
30
0.0000000000
0
VERTEX
5
316
100
AcDbEntity
8
TEXT
62
7
370
0
100
AcDbVertex
6
ByLayer
100
AcDb3dPolylineVertex
10
-6.3767693143
20
31.3720359832
30
0.0000000000
0
VERTEX
5
317
100
AcDbEntity
8
TEXT
62
7
370
0
100
AcDbVertex
6
ByLayer
100
AcDb3dPolylineVertex
10
-6.3786035232
20
31.4316477728
30
0.0000000000
0
VERTEX
5
318
100
AcDbEntity
8
TEXT
62
7
370
0
100
AcDbVertex
6
ByLayer
100
AcDb3dPolylineVertex
10
-6.3850232544
20
31.4903424580
30
0.0000000000
0
VERTEX
5
319
100
AcDbEntity
8
TEXT
62
7
370
0
100
AcDbVertex
6
ByLayer
100
AcDb3dPolylineVertex
10
-6.3951114034
20
31.5472029342
30
0.0000000000
0
VERTEX
5
31A
100
AcDbEntity
8
TEXT
62
7
370
0
100
AcDbVertex
6
ByLayer
100
AcDb3dPolylineVertex
10
-6.4097850747
20
31.6022292016
30
0.0000000000
0
VERTEX
5
31B
100
AcDbEntity
8
TEXT
62
7
370
0
100
AcDbVertex
6
ByLayer
100
AcDb3dPolylineVertex
10
-6.4281271638
20
31.6545041555
30
0.0000000000
0
VERTEX
5
31C
100
AcDbEntity
8
TEXT
62
7
370
0
100
AcDbVertex
6
ByLayer
100
AcDb3dPolylineVertex
10
-6.4501376708
20
31.7031106917
30
0.0000000000
0
VERTEX
5
31D
100
AcDbEntity
8
TEXT
62
7
370
0
100
AcDbVertex
6
ByLayer
100
AcDb3dPolylineVertex
10
-6.4758165955
20
31.7471317056
30
0.0000000000
0
VERTEX
5
31E
100
AcDbEntity
8
TEXT
62
7
370
0
100
AcDbVertex
6
ByLayer
100
AcDb3dPolylineVertex
10
-6.5042468336
20
31.7865671971
30
0.0000000000
0
VERTEX
5
31F
100
AcDbEntity
8
TEXT
62
7
370
0
100
AcDbVertex
6
ByLayer
100
AcDb3dPolylineVertex
10
-6.5354283851
20
31.8214171665
30
0.0000000000
0
VERTEX
5
320
100
AcDbEntity
8
TEXT
62
7
370
0
100
AcDbVertex
6
ByLayer
100
AcDb3dPolylineVertex
10
-6.5693612500
20
31.8507645090
30
0.0000000000
0
VERTEX
5
321
100
AcDbEntity
8
TEXT
62
7
370
0
100
AcDbVertex
6
ByLayer
100
AcDb3dPolylineVertex
10
-6.6042112193
20
31.8727750160
30
0.0000000000
0
VERTEX
5
322
100
AcDbEntity
8
TEXT
62
7
370
0
100
AcDbVertex
6
ByLayer
100
AcDb3dPolylineVertex
10
-6.6418125020
20
31.8892828962
30
0.0000000000
0
VERTEX
5
323
100
AcDbEntity
8
TEXT
62
7
370
0
100
AcDbVertex
6
ByLayer
100
AcDb3dPolylineVertex
10
-6.6794137847
20
31.8993710452
30
0.0000000000
0
VERTEX
5
324
100
AcDbEntity
8
TEXT
62
7
370
0
100
AcDbVertex
6
ByLayer
100
AcDb3dPolylineVertex
10
-6.7179321718
20
31.9030394630
30
0.0000000000
0
VERTEX
5
325
100
AcDbEntity
8
TEXT
62
7
370
0
100
AcDbVertex
6
ByLayer
100
AcDb3dPolylineVertex
10
-6.7564505590
20
31.8993710452
30
0.0000000000
0
VERTEX
5
326
100
AcDbEntity
8
TEXT
62
7
370
0
100
AcDbVertex
6
ByLayer
100
AcDb3dPolylineVertex
10
-6.7940518416
20
31.8892828962
30
0.0000000000
0
VERTEX
5
327
100
AcDbEntity
8
TEXT
62
7
370
0
100
AcDbVertex
6
ByLayer
100
AcDb3dPolylineVertex
10
-6.8316531243
20
31.8727750160
30
0.0000000000
0
VERTEX
5
328
100
AcDbEntity
8
TEXT
62
7
370
0
100
AcDbVertex
6
ByLayer
100
AcDb3dPolylineVertex
10
-6.8665030936
20
31.8507645090
30
0.0000000000
0
VERTEX
5
329
100
AcDbEntity
8
TEXT
62
7
370
0
100
AcDbVertex
6
ByLayer
100
AcDb3dPolylineVertex
10
-6.9004359585
20
31.8214171665
30
0.0000000000
0
VERTEX
5
32A
100
AcDbEntity
8
TEXT
62
7
370
0
100
AcDbVertex
6
ByLayer
100
AcDb3dPolylineVertex
10
-6.9316175100
20
31.7865671971
30
0.0000000000
0
VERTEX
5
32B
100
AcDbEntity
8
TEXT
62
7
370
0
100
AcDbVertex
6
ByLayer
100
AcDb3dPolylineVertex
10
-6.9600477481
20
31.7471317056
30
0.0000000000
0
VERTEX
5
32C
100
AcDbEntity
8
TEXT
62
7
370
0
100
AcDbVertex
6
ByLayer
100
AcDb3dPolylineVertex
10
-6.9857266729
20
31.7031106917
30
0.0000000000
0
VERTEX
5
32D
100
AcDbEntity
8
TEXT
62
7
370
0
100
AcDbVertex
6
ByLayer
100
AcDb3dPolylineVertex
10
-7.0077371798
20
31.6545041555
30
0.0000000000
0
VERTEX
5
32E
100
AcDbEntity
8
TEXT
62
7
370
0
100
AcDbVertex
6
ByLayer
100
AcDb3dPolylineVertex
10
-7.0260792689
20
31.6022292016
30
0.0000000000
0
VERTEX
5
32F
100
AcDbEntity
8
TEXT
62
7
370
0
100
AcDbVertex
6
ByLayer
100
AcDb3dPolylineVertex
10
-7.0407529402
20
31.5472029342
30
0.0000000000
0
VERTEX
5
330
100
AcDbEntity
8
TEXT
62
7
370
0
100
AcDbVertex
6
ByLayer
100
AcDb3dPolylineVertex
10
-7.0508410892
20
31.4903424580
30
0.0000000000
0
VERTEX
5
331
100
AcDbEntity
8
TEXT
62
7
370
0
100
AcDbVertex
6
ByLayer
100
AcDb3dPolylineVertex
10
-7.0572608204
20
31.4316477728
30
0.0000000000
0
VERTEX
5
332
100
AcDbEntity
8
TEXT
62
7
370
0
100
AcDbVertex
6
ByLayer
100
AcDb3dPolylineVertex
10
-7.0590950293
20
31.3720359832
30
0.0000000000
0
VERTEX
5
333
100
AcDbEntity
8
TEXT
62
7
370
0
100
AcDbVertex
6
ByLayer
100
AcDb3dPolylineVertex
10
-7.0563437160
20
31.3133412980
30
0.0000000000
0
VERTEX
5
334
100
AcDbEntity
8
TEXT
62
7
370
0
100
AcDbVertex
6
ByLayer
100
AcDb3dPolylineVertex
10
-7.0499239848
20
31.2546466128
30
0.0000000000
0
VERTEX
5
335
100
AcDbEntity
8
TEXT
62
7
370
0
100
AcDbVertex
6
ByLayer
100
AcDb3dPolylineVertex
10
-7.0380016269
20
31.1977861366
30
0.0000000000
0
VERTEX
5
336
100
AcDbEntity
8
TEXT
62
7
370
0
100
AcDbVertex
6
ByLayer
100
AcDb3dPolylineVertex
10
-7.0233279556
20
31.1436769737
30
0.0000000000
0
VERTEX
5
337
100
AcDbEntity
8
TEXT
62
7
370
0
100
AcDbVertex
6
ByLayer
100
AcDb3dPolylineVertex
10
-7.0040687620
20
31.0923191242
30
0.0000000000
0
VERTEX
5
338
100
AcDbEntity
8
TEXT
62
7
370
0
100
AcDbVertex
6
ByLayer
100
AcDb3dPolylineVertex
10
-6.0374406657
20
28.7298580463
30
0.0000000000
0
SEQEND
5
339
100
AcDbEntity
8
TEXT
62
7
370
0
6
ByLayer
0
TEXT
5
33A
100
AcDbEntity
8
0
62
7
370
0
100
AcDbText
6
ByLayer
10
0.0000000000
20
0.0000000000
30
0.0000000000
11
0.0000000000
21
0.0000000000
31
0.0000000000
40
1.0000000000
50
0.0000000000
41
1.0000000000
51
0.0000000000
72
0
7
STANDARD
1
**EMPTY STRING**
100
AcDbText
73
0
1001
DSTP_XDATA
1002
{
1000
_OWNERHANDLE=0000000064
1002
}
0
TEXT
5
33B
100
AcDbEntity
8
TEXT
100
AcDbText
6
DASHDOT2
10
-3.6106613798
20
32.5462994041
30
0.0000000000
11
-3.6106613798
21
32.5462994041
31
0.0000000000
40
3.5000000000
50
0.0000000000
41
0.6500000000
51
0.0000000000
72
0
7
STANDARD
1
ß
100
AcDbText
73
0
1001
DSTP_XDATA
1002
{
1000
_OWNERHANDLE=0000000064
1002
}
0
TEXT
5
33C
100
AcDbEntity
8
TEXT
100
AcDbText
6
DASHDOT2
10
-0.3017486335
20
32.3731950242
30
0.0000000000
11
-0.3017486335
21
32.3731950242
31
0.0000000000
40
3.5000000000
50
0.0000000000
41
0.6500000000
51
0.0000000000
72
0
7
STANDARD
1
9
100
AcDbText
73
0
1001
DSTP_XDATA
1002
{
1000
_OWNERHANDLE=0000000064
1002
}
0
POLYLINE
5
33D
100
AcDbEntity
8
TEXT
62
4
370
0
100
AcDb3dPolyline
6
ByLayer
66
1
10
0.0000000000
20
0.0000000000
30
0.0000000000
70
8
1001
DSTP_XDATA
1002
{
1000
_OWNERHANDLE=0000000064
1002
}
0
VERTEX
5
33E
100
AcDbEntity
8
TEXT
62
4
370
0
100
AcDbVertex
6
ByLayer
100
AcDb3dPolylineVertex
10
-3.2683244786
20
29.0719154522
30
0.0000000000
0
VERTEX
5
33F
100
AcDbEntity
8
TEXT
62
4
370
0
100
AcDbVertex
6
ByLayer
100
AcDb3dPolylineVertex
10
-3.2520633528
20
29.0129688712
30
0.0000000000
0
VERTEX
5
340
100
AcDbEntity
8
TEXT
62
4
370
0
100
AcDbVertex
6
ByLayer
100
AcDb3dPolylineVertex
10
-3.2317369456
20
28.9570712512
30
0.0000000000
0
VERTEX
5
341
100
AcDbEntity
8
TEXT
62
4
370
0
100
AcDbVertex
6
ByLayer
100
AcDb3dPolylineVertex
10
-3.2073452569
20
28.9052389128
30
0.0000000000
0
VERTEX
5
342
100
AcDbEntity
8
TEXT
62
4
370
0
100
AcDbVertex
6
ByLayer
100
AcDb3dPolylineVertex
10
-3.1788882867
20
28.8595044964
30
0.0000000000
0
VERTEX
5
343
100
AcDbEntity
8
TEXT
62
4
370
0
100
AcDbVertex
6
ByLayer
100
AcDb3dPolylineVertex
10
-3.1463660351
20
28.8188516819
30
0.0000000000
0
VERTEX
5
344
100
AcDbEntity
8
TEXT
62
4
370
0
100
AcDbVertex
6
ByLayer
100
AcDb3dPolylineVertex
10
-3.1118111428
20
28.7842967896
30
0.0000000000
0
VERTEX
5
345
100
AcDbEntity
8
TEXT
62
4
370
0
100
AcDbVertex
6
ByLayer
100
AcDb3dPolylineVertex
10
-3.0742072894
20
28.7568561398
30
0.0000000000
0
VERTEX
5
346
100
AcDbEntity
8
TEXT
62
4
370
0
100
AcDbVertex
6
ByLayer
100
AcDb3dPolylineVertex
10
-3.0345707953
20
28.7355134122
30
0.0000000000
0
VERTEX
5
347
100
AcDbEntity
8
TEXT
62
4
370
0
100
AcDbVertex
6
ByLayer
100
AcDb3dPolylineVertex
10
-2.9949343011
20
28.7233175679
30
0.0000000000
0
VERTEX
5
348
100
AcDbEntity
8
TEXT
62
4
370
0
100
AcDbVertex
6
ByLayer
100
AcDb3dPolylineVertex
10
-2.9532651663
20
28.7172196457
30
0.0000000000
0
VERTEX
5
349
100
AcDbEntity
8
TEXT
62
4
370
0
100
AcDbVertex
6
ByLayer
100
AcDb3dPolylineVertex
10
-2.9115960314
20
28.7202686068
30
0.0000000000
0
VERTEX
5
34A
100
AcDbEntity
8
TEXT
62
4
370
0
100
AcDbVertex
6
ByLayer
100
AcDb3dPolylineVertex
10
-2.8709432169
20
28.7304318104
30
0.0000000000
0
VERTEX
5
34B
100
AcDbEntity
8
TEXT
62
4
370
0
100
AcDbVertex
6
ByLayer
100
AcDb3dPolylineVertex
10
-2.8313067228
20
28.7477092566
30
0.0000000000
0
VERTEX
5
34C
100
AcDbEntity
8
TEXT
62
4
370
0
100
AcDbVertex
6
ByLayer
100
AcDb3dPolylineVertex
10
-2.7926865490
20
28.7731172656
30
0.0000000000
0
VERTEX
5
34D
100
AcDbEntity
8
TEXT
62
4
370
0
100
AcDbVertex
6
ByLayer
100
AcDb3dPolylineVertex
10
-2.7571153363
20
28.8056395172
30
0.0000000000
0
VERTEX
5
34E
100
AcDbEntity
8
TEXT
62
4
370
0
100
AcDbVertex
6
ByLayer
100
AcDb3dPolylineVertex
10
-2.7235767644
20
28.8432433706
30
0.0000000000
0
VERTEX
5
34F
100
AcDbEntity
8
TEXT
62
4
370
0
100
AcDbVertex
6
ByLayer
100
AcDb3dPolylineVertex
10
-2.6941034739
20
28.8879614666
30
0.0000000000
0
VERTEX
5
350
100
AcDbEntity
8
TEXT
62
4
370
0
100
AcDbVertex
6
ByLayer
100
AcDb3dPolylineVertex
10
-2.6676791444
20
28.9377611643
30
0.0000000000
0
VERTEX
5
351
100
AcDbEntity
8
TEXT
62
4
370
0
100
AcDbVertex
6
ByLayer
100
AcDb3dPolylineVertex
10
-2.6463364168
20
28.9916261436
30
0.0000000000
0
VERTEX
5
352
100
AcDbEntity
8
TEXT
62
4
370
0
100
AcDbVertex
6
ByLayer
100
AcDb3dPolylineVertex
10
-2.6280426503
20
29.0495564042
30
0.0000000000
0
VERTEX
5
353
100
AcDbEntity
8
TEXT
62
4
370
0
100
AcDbVertex
6
ByLayer
100
AcDb3dPolylineVertex
10
-2.6158468060
20
29.1105356259
30
0.0000000000
0
VERTEX
5
354
100
AcDbEntity
8
TEXT
62
4
370
0
100
AcDbVertex
6
ByLayer
100
AcDb3dPolylineVertex
10
-2.6077162431
20
29.1725311681
30
0.0000000000
0
VERTEX
5
355
100
AcDbEntity
8
TEXT
62
4
370
0
100
AcDbVertex
6
ByLayer
100
AcDb3dPolylineVertex
10
-2.6046672820
20
29.2365593509
30
0.0000000000
0
VERTEX
5
356
100
AcDbEntity
8
TEXT
62
4
370
0
100
AcDbVertex
6
ByLayer
100
AcDb3dPolylineVertex
10
-2.6066999227
20
29.3005875337
30
0.0000000000
0
VERTEX
5
357
100
AcDbEntity
8
TEXT
62
4
370
0
100
AcDbVertex
6
ByLayer
100
AcDb3dPolylineVertex
10
-2.6138141652
20
29.3635993962
30
0.0000000000
0
VERTEX
5
358
100
AcDbEntity
8
TEXT
62
4
370
0
100
AcDbVertex
6
ByLayer
100
AcDb3dPolylineVertex
10
-2.6260100096
20
29.4245786179
30
0.0000000000
0
VERTEX
5
359
100
AcDbEntity
8
TEXT
62
4
370
0
100
AcDbVertex
6
ByLayer
100
AcDb3dPolylineVertex
10
-2.6422711354
20
29.4825088786
30
0.0000000000
0
VERTEX
5
35A
100
AcDbEntity
8
TEXT
62
4
370
0
100
AcDbVertex
6
ByLayer
100
AcDb3dPolylineVertex
10
-2.6636138630
20
29.5373901781
30
0.0000000000
0
VERTEX
5
35B
100
AcDbEntity
8
TEXT
62
4
370
0
100
AcDbVertex
6
ByLayer
100
AcDb3dPolylineVertex
10
-2.6890218721
20
29.5882061963
30
0.0000000000
0
VERTEX
5
35C
100
AcDbEntity
8
TEXT
62
4
370
0
100
AcDbVertex
6
ByLayer
100
AcDb3dPolylineVertex
10
-2.7184951626
20
29.6339406126
30
0.0000000000
0
VERTEX
5
35D
100
AcDbEntity
8
TEXT
62
4
370
0
100
AcDbVertex
6
ByLayer
100
AcDb3dPolylineVertex
10
-2.7510174142
20
29.6735771067
30
0.0000000000
0
VERTEX
5
35E
100
AcDbEntity
8
TEXT
62
4
370
0
100
AcDbVertex
6
ByLayer
100
AcDb3dPolylineVertex
10
-2.7855723065
20
29.7060993583
30
0.0000000000
0
VERTEX
5
35F
100
AcDbEntity
8
TEXT
62
4
370
0
100
AcDbVertex
6
ByLayer
100
AcDb3dPolylineVertex
10
-2.8241924802
20
29.7325236877
30
0.0000000000
0
VERTEX
5
360
100
AcDbEntity
8
TEXT
62
4
370
0
100
AcDbVertex
6
ByLayer
100
AcDb3dPolylineVertex
10
-2.8628126540
20
29.7518337746
30
0.0000000000
0
VERTEX
5
361
100
AcDbEntity
8
TEXT
62
4
370
0
100
AcDbVertex
6
ByLayer
100
AcDb3dPolylineVertex
10
-2.9044817889
20
29.7640296189
30
0.0000000000
0
VERTEX
5
362
100
AcDbEntity
8
TEXT
62
4
370
0
100
AcDbVertex
6
ByLayer
100
AcDb3dPolylineVertex
10
-2.9451346034
20
29.7670785800
30
0.0000000000
0
SEQEND
5
363
100
AcDbEntity
8
TEXT
62
4
370
0
6
ByLayer
0
TEXT
5
364
100
AcDbEntity
8
0
62
4
370
0
100
AcDbText
6
ByLayer
10
0.0000000000
20
0.0000000000
30
0.0000000000
11
0.0000000000
21
0.0000000000
31
0.0000000000
40
1.0000000000
50
0.0000000000
41
1.0000000000
51
0.0000000000
72
0
7
STANDARD
1
**EMPTY STRING**
100
AcDbText
73
0
1001
DSTP_XDATA
1002
{
1000
_OWNERHANDLE=0000000064
1002
}
0
POLYLINE
5
365
100
AcDbEntity
8
TEXT
62
4
370
0
100
AcDb3dPolyline
6
ByLayer
66
1
10
0.0000000000
20
0.0000000000
30
0.0000000000
70
9
1001
DSTP_XDATA
1002
{
1000
_OWNERHANDLE=0000000064
1002
}
0
VERTEX
5
366
100
AcDbEntity
8
TEXT
62
4
370
0
100
AcDbVertex
6
ByLayer
100
AcDb3dPolylineVertex
10
-2.6046672820
20
30.2925162074
30
0.0000000000
0
VERTEX
5
367
100
AcDbEntity
8
TEXT
62
4
370
0
100
AcDbVertex
6
ByLayer
100
AcDb3dPolylineVertex
10
-2.6066999227
20
30.3555280698
30
0.0000000000
0
VERTEX
5
368
100
AcDbEntity
8
TEXT
62
4
370
0
100
AcDbVertex
6
ByLayer
100
AcDb3dPolylineVertex
10
-2.6148304856
20
30.4185399323
30
0.0000000000
0
VERTEX
5
369
100
AcDbEntity
8
TEXT
62
4
370
0
100
AcDbVertex
6
ByLayer
100
AcDb3dPolylineVertex
10
-2.6270263299
20
30.4785028337
30
0.0000000000
0
VERTEX
5
36A
100
AcDbEntity
8
TEXT
62
4
370
0
100
AcDbVertex
6
ByLayer
100
AcDb3dPolylineVertex
10
-2.6432874557
20
30.5364330943
30
0.0000000000
0
VERTEX
5
36B
100
AcDbEntity
8
TEXT
62
4
370
0
100
AcDbVertex
6
ByLayer
100
AcDb3dPolylineVertex
10
-2.6646301834
20
30.5902980736
30
0.0000000000
0
VERTEX
5
36C
100
AcDbEntity
8
TEXT
62
4
370
0
100
AcDbVertex
6
ByLayer
100
AcDb3dPolylineVertex
10
-2.6900381924
20
30.6400977713
30
0.0000000000
0
VERTEX
5
36D
100
AcDbEntity
8
TEXT
62
4
370
0
100
AcDbVertex
6
ByLayer
100
AcDb3dPolylineVertex
10
-2.7195114829
20
30.6858321876
30
0.0000000000
0
VERTEX
5
36E
100
AcDbEntity
8
TEXT
62
4
370
0
100
AcDbVertex
6
ByLayer
100
AcDb3dPolylineVertex
10
-2.7520337345
20
30.7244523614
30
0.0000000000
0
VERTEX
5
36F
100
AcDbEntity
8
TEXT
62
4
370
0
100
AcDbVertex
6
ByLayer
100
AcDb3dPolylineVertex
10
-2.7865886268
20
30.7569746130
30
0.0000000000
0
VERTEX
5
370
100
AcDbEntity
8
TEXT
62
4
370
0
100
AcDbVertex
6
ByLayer
100
AcDb3dPolylineVertex
10
-2.8241924802
20
30.7833989424
30
0.0000000000
0
VERTEX
5
371
100
AcDbEntity
8
TEXT
62
4
370
0
100
AcDbVertex
6
ByLayer
100
AcDb3dPolylineVertex
10
-2.8638289744
20
30.8027090293
30
0.0000000000
0
VERTEX
5
372
100
AcDbEntity
8
TEXT
62
4
370
0
100
AcDbVertex
6
ByLayer
100
AcDb3dPolylineVertex
10
-2.9044817889
20
30.8138885533
30
0.0000000000
0
VERTEX
5
373
100
AcDbEntity
8
TEXT
62
4
370
0
100
AcDbVertex
6
ByLayer
100
AcDb3dPolylineVertex
10
-2.9451346034
20
30.8179538347
30
0.0000000000
0
VERTEX
5
374
100
AcDbEntity
8
TEXT
62
4
370
0
100
AcDbVertex
6
ByLayer
100
AcDb3dPolylineVertex
10
-2.9868037382
20
30.8138885533
30
0.0000000000
0
VERTEX
5
375
100
AcDbEntity
8
TEXT
62
4
370
0
100
AcDbVertex
6
ByLayer
100
AcDb3dPolylineVertex
10
-3.0274565527
20
30.8027090293
30
0.0000000000
0
VERTEX
5
376
100
AcDbEntity
8
TEXT
62
4
370
0
100
AcDbVertex
6
ByLayer
100
AcDb3dPolylineVertex
10
-3.0660767265
20
30.7833989424
30
0.0000000000
0
VERTEX
5
377
100
AcDbEntity
8
TEXT
62
4
370
0
100
AcDbVertex
6
ByLayer
100
AcDb3dPolylineVertex
10
-3.1036805799
20
30.7569746130
30
0.0000000000
0
VERTEX
5
378
100
AcDbEntity
8
TEXT
62
4
370
0
100
AcDbVertex
6
ByLayer
100
AcDb3dPolylineVertex
10
-3.1392517926
20
30.7244523614
30
0.0000000000
0
VERTEX
5
379
100
AcDbEntity
8
TEXT
62
4
370
0
100
AcDbVertex
6
ByLayer
100
AcDb3dPolylineVertex
10
-3.1717740442
20
30.6858321876
30
0.0000000000
0
VERTEX
5
37A
100
AcDbEntity
8
TEXT
62
4
370
0
100
AcDbVertex
6
ByLayer
100
AcDb3dPolylineVertex
10
-3.2012473347
20
30.6400977713
30
0.0000000000
0
VERTEX
5
37B
100
AcDbEntity
8
TEXT
62
4
370
0
100
AcDbVertex
6
ByLayer
100
AcDb3dPolylineVertex
10
-3.2266553437
20
30.5902980736
30
0.0000000000
0
VERTEX
5
37C
100
AcDbEntity
8
TEXT
62
4
370
0
100
AcDbVertex
6
ByLayer
100
AcDb3dPolylineVertex
10
-3.2479980714
20
30.5364330943
30
0.0000000000
0
VERTEX
5
37D
100
AcDbEntity
8
TEXT
62
4
370
0
100
AcDbVertex
6
ByLayer
100
AcDb3dPolylineVertex
10
-3.2642591971
20
30.4785028337
30
0.0000000000
0
VERTEX
5
37E
100
AcDbEntity
8
TEXT
62
4
370
0
100
AcDbVertex
6
ByLayer
100
AcDb3dPolylineVertex
10
-3.2764550415
20
30.4185399323
30
0.0000000000
0
VERTEX
5
37F
100
AcDbEntity
8
TEXT
62
4
370
0
100
AcDbVertex
6
ByLayer
100
AcDb3dPolylineVertex
10
-3.2845856044
20
30.3555280698
30
0.0000000000
0
VERTEX
5
380
100
AcDbEntity
8
TEXT
62
4
370
0
100
AcDbVertex
6
ByLayer
100
AcDb3dPolylineVertex
10
-3.2866182451
20
30.2925162074
30
0.0000000000
0
VERTEX
5
381
100
AcDbEntity
8
TEXT
62
4
370
0
100
AcDbVertex
6
ByLayer
100
AcDb3dPolylineVertex
10
-3.2845856044
20
30.2295043449
30
0.0000000000
0
VERTEX
5
382
100
AcDbEntity
8
TEXT
62
4
370
0
100
AcDbVertex
6
ByLayer
100
AcDb3dPolylineVertex
10
-3.2764550415
20
30.1664924824
30
0.0000000000
0
VERTEX
5
383
100
AcDbEntity
8
TEXT
62
4
370
0
100
AcDbVertex
6
ByLayer
100
AcDb3dPolylineVertex
10
-3.2642591971
20
30.1065295811
30
0.0000000000
0
VERTEX
5
384
100
AcDbEntity
8
TEXT
62
4
370
0
100
AcDbVertex
6
ByLayer
100
AcDb3dPolylineVertex
10
-3.2479980714
20
30.0485993204
30
0.0000000000
0
VERTEX
5
385
100
AcDbEntity
8
TEXT
62
4
370
0
100
AcDbVertex
6
ByLayer
100
AcDb3dPolylineVertex
10
-3.2266553437
20
29.9947343412
30
0.0000000000
0
VERTEX
5
386
100
AcDbEntity
8
TEXT
62
4
370
0
100
AcDbVertex
6
ByLayer
100
AcDb3dPolylineVertex
10
-3.2012473347
20
29.9439183231
30
0.0000000000
0
VERTEX
5
387
100
AcDbEntity
8
TEXT
62
4
370
0
100
AcDbVertex
6
ByLayer
100
AcDb3dPolylineVertex
10
-3.1717740442
20
29.8992002271
30
0.0000000000
0
VERTEX
5
388
100
AcDbEntity
8
TEXT
62
4
370
0
100
AcDbVertex
6
ByLayer
100
AcDb3dPolylineVertex
10
-3.1392517926
20
29.8605800534
30
0.0000000000
0
VERTEX
5
389
100
AcDbEntity
8
TEXT
62
4
370
0
100
AcDbVertex
6
ByLayer
100
AcDb3dPolylineVertex
10
-3.1036805799
20
29.8280578018
30
0.0000000000
0
VERTEX
5
38A
100
AcDbEntity
8
TEXT
62
4
370
0
100
AcDbVertex
6
ByLayer
100
AcDb3dPolylineVertex
10
-3.0660767265
20
29.8016334724
30
0.0000000000
0
VERTEX
5
38B
100
AcDbEntity
8
TEXT
62
4
370
0
100
AcDbVertex
6
ByLayer
100
AcDb3dPolylineVertex
10
-3.0274565527
20
29.7823233855
30
0.0000000000
0
VERTEX
5
38C
100
AcDbEntity
8
TEXT
62
4
370
0
100
AcDbVertex
6
ByLayer
100
AcDb3dPolylineVertex
10
-2.9868037382
20
29.7711438615
30
0.0000000000
0
VERTEX
5
38D
100
AcDbEntity
8
TEXT
62
4
370
0
100
AcDbVertex
6
ByLayer
100
AcDb3dPolylineVertex
10
-2.9451346034
20
29.7670785800
30
0.0000000000
0
VERTEX
5
38E
100
AcDbEntity
8
TEXT
62
4
370
0
100
AcDbVertex
6
ByLayer
100
AcDb3dPolylineVertex
10
-2.9044817889
20
29.7711438615
30
0.0000000000
0
VERTEX
5
38F
100
AcDbEntity
8
TEXT
62
4
370
0
100
AcDbVertex
6
ByLayer
100
AcDb3dPolylineVertex
10
-2.8638289744
20
29.7823233855
30
0.0000000000
0
VERTEX
5
390
100
AcDbEntity
8
TEXT
62
4
370
0
100
AcDbVertex
6
ByLayer
100
AcDb3dPolylineVertex
10
-2.8241924802
20
29.8016334724
30
0.0000000000
0
VERTEX
5
391
100
AcDbEntity
8
TEXT
62
4
370
0
100
AcDbVertex
6
ByLayer
100
AcDb3dPolylineVertex
10
-2.7865886268
20
29.8280578018
30
0.0000000000
0
VERTEX
5
392
100
AcDbEntity
8
TEXT
62
4
370
0
100
AcDbVertex
6
ByLayer
100
AcDb3dPolylineVertex
10
-2.7520337345
20
29.8605800534
30
0.0000000000
0
VERTEX
5
393
100
AcDbEntity
8
TEXT
62
4
370
0
100
AcDbVertex
6
ByLayer
100
AcDb3dPolylineVertex
10
-2.7195114829
20
29.8992002271
30
0.0000000000
0
VERTEX
5
394
100
AcDbEntity
8
TEXT
62
4
370
0
100
AcDbVertex
6
ByLayer
100
AcDb3dPolylineVertex
10
-2.6900381924
20
29.9439183231
30
0.0000000000
0
VERTEX
5
395
100
AcDbEntity
8
TEXT
62
4
370
0
100
AcDbVertex
6
ByLayer
100
AcDb3dPolylineVertex
10
-2.6646301834
20
29.9947343412
30
0.0000000000
0
VERTEX
5
396
100
AcDbEntity
8
TEXT
62
4
370
0
100
AcDbVertex
6
ByLayer
100
AcDb3dPolylineVertex
10
-2.6432874557
20
30.0485993204
30
0.0000000000
0
VERTEX
5
397
100
AcDbEntity
8
TEXT
62
4
370
0
100
AcDbVertex
6
ByLayer
100
AcDb3dPolylineVertex
10
-2.6270263299
20
30.1065295811
30
0.0000000000
0
VERTEX
5
398
100
AcDbEntity
8
TEXT
62
4
370
0
100
AcDbVertex
6
ByLayer
100
AcDb3dPolylineVertex
10
-2.6148304856
20
30.1664924824
30
0.0000000000
0
VERTEX
5
399
100
AcDbEntity
8
TEXT
62
4
370
0
100
AcDbVertex
6
ByLayer
100
AcDb3dPolylineVertex
10
-2.6066999227
20
30.2295043449
30
0.0000000000
0
VERTEX
5
39A
100
AcDbEntity
8
TEXT
62
4
370
0
100
AcDbVertex
6
ByLayer
100
AcDb3dPolylineVertex
10
-2.6046672820
20
30.2925162074
30
0.0000000000
0
SEQEND
5
39B
100
AcDbEntity
8
TEXT
62
4
370
0
6
ByLayer
0
TEXT
5
39C
100
AcDbEntity
8
0
62
4
370
0
100
AcDbText
6
ByLayer
10
0.0000000000
20
0.0000000000
30
0.0000000000
11
0.0000000000
21
0.0000000000
31
0.0000000000
40
1.0000000000
50
0.0000000000
41
1.0000000000
51
0.0000000000
72
0
7
STANDARD
1
**EMPTY STRING**
100
AcDbText
73
0
1001
DSTP_XDATA
1002
{
1000
_OWNERHANDLE=0000000064
1002
}
0
POLYLINE
5
39D
100
AcDbEntity
8
TEXT
62
4
370
0
100
AcDb3dPolyline
6
ByLayer
66
1
10
0.0000000000
20
0.0000000000
30
0.0000000000
70
8
1001
DSTP_XDATA
1002
{
1000
_OWNERHANDLE=0000000064
1002
}
0
VERTEX
5
39E
100
AcDbEntity
8
TEXT
62
4
370
0
100
AcDbVertex
6
ByLayer
100
AcDb3dPolylineVertex
10
-2.6229610485
20
31.5131169626
30
0.0000000000
0
VERTEX
5
39F
100
AcDbEntity
8
TEXT
62
4
370
0
100
AcDbVertex
6
ByLayer
100
AcDb3dPolylineVertex
10
-2.6392221743
20
31.5720635436
30
0.0000000000
0
VERTEX
5
3A0
100
AcDbEntity
8
TEXT
62
4
370
0
100
AcDbVertex
6
ByLayer
100
AcDb3dPolylineVertex
10
-2.6595485815
20
31.6279611635
30
0.0000000000
0
VERTEX
5
3A1
100
AcDbEntity
8
TEXT
62
4
370
0
100
AcDbVertex
6
ByLayer
100
AcDb3dPolylineVertex
10
-2.6839402702
20
31.6797935020
30
0.0000000000
0
VERTEX
5
3A2
100
AcDbEntity
8
TEXT
62
4
370
0
100
AcDbVertex
6
ByLayer
100
AcDb3dPolylineVertex
10
-2.7123972404
20
31.7255279183
30
0.0000000000
0
VERTEX
5
3A3
100
AcDbEntity
8
TEXT
62
4
370
0
100
AcDbVertex
6
ByLayer
100
AcDb3dPolylineVertex
10
-2.7439031716
20
31.7661807328
30
0.0000000000
0
VERTEX
5
3A4
100
AcDbEntity
8
TEXT
62
4
370
0
100
AcDbVertex
6
ByLayer
100
AcDb3dPolylineVertex
10
-2.7794743843
20
31.8007356251
30
0.0000000000
0
VERTEX
5
3A5
100
AcDbEntity
8
TEXT
62
4
370
0
100
AcDbVertex
6
ByLayer
100
AcDb3dPolylineVertex
10
-2.8170782377
20
31.8281762749
30
0.0000000000
0
VERTEX
5
3A6
100
AcDbEntity
8
TEXT
62
4
370
0
100
AcDbVertex
6
ByLayer
100
AcDb3dPolylineVertex
10
-2.8556984115
20
31.8485026822
30
0.0000000000
0
VERTEX
5
3A7
100
AcDbEntity
8
TEXT
62
4
370
0
100
AcDbVertex
6
ByLayer
100
AcDb3dPolylineVertex
10
-2.8963512260
20
31.8617148469
30
0.0000000000
0
VERTEX
5
3A8
100
AcDbEntity
8
TEXT
62
4
370
0
100
AcDbVertex
6
ByLayer
100
AcDb3dPolylineVertex
10
-2.9380203608
20
31.8667964487
30
0.0000000000
0
VERTEX
5
3A9
100
AcDbEntity
8
TEXT
62
4
370
0
100
AcDbVertex
6
ByLayer
100
AcDb3dPolylineVertex
10
-2.9796894957
20
31.8647638080
30
0.0000000000
0
VERTEX
5
3AA
100
AcDbEntity
8
TEXT
62
4
370
0
100
AcDbVertex
6
ByLayer
100
AcDb3dPolylineVertex
10
-3.0203423102
20
31.8546006043
30
0.0000000000
0
VERTEX
5
3AB
100
AcDbEntity
8
TEXT
62
4
370
0
100
AcDbVertex
6
ByLayer
100
AcDb3dPolylineVertex
10
-3.0599788043
20
31.8373231582
30
0.0000000000
0
VERTEX
5
3AC
100
AcDbEntity
8
TEXT
62
4
370
0
100
AcDbVertex
6
ByLayer
100
AcDb3dPolylineVertex
10
-3.0985989781
20
31.8119151491
30
0.0000000000
0
VERTEX
5
3AD
100
AcDbEntity
8
TEXT
62
4
370
0
100
AcDbVertex
6
ByLayer
100
AcDb3dPolylineVertex
10
-3.1341701908
20
31.7793928975
30
0.0000000000
0
VERTEX
5
3AE
100
AcDbEntity
8
TEXT
62
4
370
0
100
AcDbVertex
6
ByLayer
100
AcDb3dPolylineVertex
10
-3.1677087627
20
31.7417890441
30
0.0000000000
0
VERTEX
5
3AF
100
AcDbEntity
8
TEXT
62
4
370
0
100
AcDbVertex
6
ByLayer
100
AcDb3dPolylineVertex
10
-3.1971820532
20
31.6970709482
30
0.0000000000
0
VERTEX
5
3B0
100
AcDbEntity
8
TEXT
62
4
370
0
100
AcDbVertex
6
ByLayer
100
AcDb3dPolylineVertex
10
-3.2236063827
20
31.6472712504
30
0.0000000000
0
VERTEX
5
3B1
100
AcDbEntity
8
TEXT
62
4
370
0
100
AcDbVertex
6
ByLayer
100
AcDb3dPolylineVertex
10
-3.2449491103
20
31.5934062712
30
0.0000000000
0
VERTEX
5
3B2
100
AcDbEntity
8
TEXT
62
4
370
0
100
AcDbVertex
6
ByLayer
100
AcDb3dPolylineVertex
10
-3.2632428768
20
31.5354760106
30
0.0000000000
0
VERTEX
5
3B3
100
AcDbEntity
8
TEXT
62
4
370
0
100
AcDbVertex
6
ByLayer
100
AcDb3dPolylineVertex
10
-3.2754387211
20
31.4744967888
30
0.0000000000
0
VERTEX
5
3B4
100
AcDbEntity
8
TEXT
62
4
370
0
100
AcDbVertex
6
ByLayer
100
AcDb3dPolylineVertex
10
-3.2835692840
20
31.4114849263
30
0.0000000000
0
VERTEX
5
3B5
100
AcDbEntity
8
TEXT
62
4
370
0
100
AcDbVertex
6
ByLayer
100
AcDb3dPolylineVertex
10
-3.2866182451
20
31.3484730639
30
0.0000000000
0
VERTEX
5
3B6
100
AcDbEntity
8
TEXT
62
4
370
0
100
AcDbVertex
6
ByLayer
100
AcDb3dPolylineVertex
10
-3.2845856044
20
31.2844448810
30
0.0000000000
0
VERTEX
5
3B7
100
AcDbEntity
8
TEXT
62
4
370
0
100
AcDbVertex
6
ByLayer
100
AcDb3dPolylineVertex
10
-3.2774713619
20
31.2214330186
30
0.0000000000
0
VERTEX
5
3B8
100
AcDbEntity
8
TEXT
62
4
370
0
100
AcDbVertex
6
ByLayer
100
AcDb3dPolylineVertex
10
-3.2652755175
20
31.1604537968
30
0.0000000000
0
VERTEX
5
3B9
100
AcDbEntity
8
TEXT
62
4
370
0
100
AcDbVertex
6
ByLayer
100
AcDb3dPolylineVertex
10
-3.2490143917
20
31.1025235362
30
0.0000000000
0
VERTEX
5
3BA
100
AcDbEntity
8
TEXT
62
4
370
0
100
AcDbVertex
6
ByLayer
100
AcDb3dPolylineVertex
10
-3.2276716641
20
31.0476422366
30
0.0000000000
0
VERTEX
5
3BB
100
AcDbEntity
8
TEXT
62
4
370
0
100
AcDbVertex
6
ByLayer
100
AcDb3dPolylineVertex
10
-3.2022636550
20
30.9968262185
30
0.0000000000
0
VERTEX
5
3BC
100
AcDbEntity
8
TEXT
62
4
370
0
100
AcDbVertex
6
ByLayer
100
AcDb3dPolylineVertex
10
-3.1727903645
20
30.9510918022
30
0.0000000000
0
VERTEX
5
3BD
100
AcDbEntity
8
TEXT
62
4
370
0
100
AcDbVertex
6
ByLayer
100
AcDb3dPolylineVertex
10
-3.1402681129
20
30.9114553081
30
0.0000000000
0
VERTEX
5
3BE
100
AcDbEntity
8
TEXT
62
4
370
0
100
AcDbVertex
6
ByLayer
100
AcDb3dPolylineVertex
10
-3.1046969003
20
30.8789330565
30
0.0000000000
0
VERTEX
5
3BF
100
AcDbEntity
8
TEXT
62
4
370
0
100
AcDbVertex
6
ByLayer
100
AcDb3dPolylineVertex
10
-3.0670930469
20
30.8525087270
30
0.0000000000
0
VERTEX
5
3C0
100
AcDbEntity
8
TEXT
62
4
370
0
100
AcDbVertex
6
ByLayer
100
AcDb3dPolylineVertex
10
-3.0274565527
20
30.8331986402
30
0.0000000000
0
VERTEX
5
3C1
100
AcDbEntity
8
TEXT
62
4
370
0
100
AcDbVertex
6
ByLayer
100
AcDb3dPolylineVertex
10
-2.9868037382
20
30.8210027958
30
0.0000000000
0
VERTEX
5
3C2
100
AcDbEntity
8
TEXT
62
4
370
0
100
AcDbVertex
6
ByLayer
100
AcDb3dPolylineVertex
10
-2.9451346034
20
30.8179538347
30
0.0000000000
0
SEQEND
5
3C3
100
AcDbEntity
8
TEXT
62
4
370
0
6
ByLayer
0
TEXT
5
3C4
100
AcDbEntity
8
0
62
4
370
0
100
AcDbText
6
ByLayer
10
0.0000000000
20
0.0000000000
30
0.0000000000
11
0.0000000000
21
0.0000000000
31
0.0000000000
40
1.0000000000
50
0.0000000000
41
1.0000000000
51
0.0000000000
72
0
7
STANDARD
1
**EMPTY STRING**
100
AcDbText
73
0
1001
DSTP_XDATA
1002
{
1000
_OWNERHANDLE=0000000064
1002
}
0
POLYLINE
5
3C5
100
AcDbEntity
8
TEXT
62
4
370
0
100
AcDb3dPolyline
6
ByLayer
66
1
10
0.0000000000
20
0.0000000000
30
0.0000000000
70
8
1001
DSTP_XDATA
1002
{
1000
_OWNERHANDLE=0000000064
1002
}
0
VERTEX
5
3C6
100
AcDbEntity
8
TEXT
62
4
370
0
100
AcDbVertex
6
ByLayer
100
AcDb3dPolylineVertex
10
0.2664377417
20
28.5485104656
30
0.0000000000
0
VERTEX
5
3C7
100
AcDbEntity
8
TEXT
62
4
370
0
100
AcDbVertex
6
ByLayer
100
AcDb3dPolylineVertex
10
0.3324985653
20
28.5871306393
30
0.0000000000
0
VERTEX
5
3C8
100
AcDbEntity
8
TEXT
62
4
370
0
100
AcDbVertex
6
ByLayer
100
AcDb3dPolylineVertex
10
0.3965267481
20
28.6328650556
30
0.0000000000
0
VERTEX
5
3C9
100
AcDbEntity
8
TEXT
62
4
370
0
100
AcDbVertex
6
ByLayer
100
AcDb3dPolylineVertex
10
0.4585222902
20
28.6857137145
30
0.0000000000
0
VERTEX
5
3CA
100
AcDbEntity
8
TEXT
62
4
370
0
100
AcDbVertex
6
ByLayer
100
AcDb3dPolylineVertex
10
0.5174688712
20
28.7436439751
30
0.0000000000
0
VERTEX
5
3CB
100
AcDbEntity
8
TEXT
62
4
370
0
100
AcDbVertex
6
ByLayer
100
AcDb3dPolylineVertex
10
0.5733664911
20
28.8086884783
30
0.0000000000
0
VERTEX
5
3CC
100
AcDbEntity
8
TEXT
62
4
370
0
100
AcDbVertex
6
ByLayer
100
AcDb3dPolylineVertex
10
0.6272314704
20
28.8798309037
30
0.0000000000
0
VERTEX
5
3CD
100
AcDbEntity
8
TEXT
62
4
370
0
100
AcDbVertex
6
ByLayer
100
AcDb3dPolylineVertex
10
0.6770311681
20
28.9560549309
30
0.0000000000
0
VERTEX
5
3CE
100
AcDbEntity
8
TEXT
62
4
370
0
100
AcDbVertex
6
ByLayer
100
AcDb3dPolylineVertex
10
0.7237819048
20
29.0373605599
30
0.0000000000
0
VERTEX
5
3CF
100
AcDbEntity
8
TEXT
62
4
370
0
100
AcDbVertex
6
ByLayer
100
AcDb3dPolylineVertex
10
0.7664673600
20
29.1227314703
30
0.0000000000
0
VERTEX
5
3D0
100
AcDbEntity
8
TEXT
62
4
370
0
100
AcDbVertex
6
ByLayer
100
AcDb3dPolylineVertex
10
0.8061038541
20
29.2131839825
30
0.0000000000
0
VERTEX
5
3D1
100
AcDbEntity
8
TEXT
62
4
370
0
100
AcDbVertex
6
ByLayer
100
AcDb3dPolylineVertex
10
0.8406587464
20
29.3077017762
30
0.0000000000
0
VERTEX
5
3D2
100
AcDbEntity
8
TEXT
62
4
370
0
100
AcDbVertex
6
ByLayer
100
AcDb3dPolylineVertex
10
0.8711483573
20
29.4052685310
30
0.0000000000
0
VERTEX
5
3D3
100
AcDbEntity
8
TEXT
62
4
370
0
100
AcDbVertex
6
ByLayer
100
AcDb3dPolylineVertex
10
0.8965563664
20
29.5058842469
30
0.0000000000
0
VERTEX
5
3D4
100
AcDbEntity
8
TEXT
62
4
370
0
100
AcDbVertex
6
ByLayer
100
AcDb3dPolylineVertex
10
0.9178990940
20
29.6095489239
30
0.0000000000
0
VERTEX
5
3D5
100
AcDbEntity
8
TEXT
62
4
370
0
100
AcDbVertex
6
ByLayer
100
AcDb3dPolylineVertex
10
0.9351765401
20
29.7142299212
30
0.0000000000
0
VERTEX
5
3D6
100
AcDbEntity
8
TEXT
62
4
370
0
100
AcDbVertex
6
ByLayer
100
AcDb3dPolylineVertex
10
0.9473723845
20
29.8219598796
30
0.0000000000
0
VERTEX
5
3D7
100
AcDbEntity
8
TEXT
62
4
370
0
100
AcDbVertex
6
ByLayer
100
AcDb3dPolylineVertex
10
0.9544866270
20
29.9296898380
30
0.0000000000
0
VERTEX
5
3D8
100
AcDbEntity
8
TEXT
62
4
370
0
100
AcDbVertex
6
ByLayer
100
AcDb3dPolylineVertex
10
0.9565192678
20
30.0374197964
30
0.0000000000
0
VERTEX
5
3D9
100
AcDbEntity
8
TEXT
62
4
370
0
100
AcDbVertex
6
ByLayer
100
AcDb3dPolylineVertex
10
0.9565192678
20
30.9998751796
30
0.0000000000
0
VERTEX
5
3DA
100
AcDbEntity
8
TEXT
62
4
370
0
100
AcDbVertex
6
ByLayer
100
AcDb3dPolylineVertex
10
0.9544866270
20
31.0730502457
30
0.0000000000
0
VERTEX
5
3DB
100
AcDbEntity
8
TEXT
62
4
370
0
100
AcDbVertex
6
ByLayer
100
AcDb3dPolylineVertex
10
0.9473723845
20
31.1452089914
30
0.0000000000
0
VERTEX
5
3DC
100
AcDbEntity
8
TEXT
62
4
370
0
100
AcDbVertex
6
ByLayer
100
AcDb3dPolylineVertex
10
0.9341602198
20
31.2163514168
30
0.0000000000
0
VERTEX
5
3DD
100
AcDbEntity
8
TEXT
62
4
370
0
100
AcDbVertex
6
ByLayer
100
AcDb3dPolylineVertex
10
0.9178990940
20
31.2844448810
30
0.0000000000
0
VERTEX
5
3DE
100
AcDbEntity
8
TEXT
62
4
370
0
100
AcDbVertex
6
ByLayer
100
AcDb3dPolylineVertex
10
0.8955400460
20
31.3505057046
30
0.0000000000
0
VERTEX
5
3DF
100
AcDbEntity
8
TEXT
62
4
370
0
100
AcDbVertex
6
ByLayer
100
AcDb3dPolylineVertex
10
0.8701320370
20
31.4114849263
30
0.0000000000
0
VERTEX
5
3E0
100
AcDbEntity
8
TEXT
62
4
370
0
100
AcDbVertex
6
ByLayer
100
AcDb3dPolylineVertex
10
0.8396424261
20
31.4683988666
30
0.0000000000
0
VERTEX
5
3E1
100
AcDbEntity
8
TEXT
62
4
370
0
100
AcDbVertex
6
ByLayer
100
AcDb3dPolylineVertex
10
0.8061038541
20
31.5202312051
30
0.0000000000
0
VERTEX
5
3E2
100
AcDbEntity
8
TEXT
62
4
370
0
100
AcDbVertex
6
ByLayer
100
AcDb3dPolylineVertex
10
0.7695163211
20
31.5659656214
30
0.0000000000
0
VERTEX
5
3E3
100
AcDbEntity
8
TEXT
62
4
370
0
100
AcDbVertex
6
ByLayer
100
AcDb3dPolylineVertex
10
0.7298798269
20
31.6066184359
30
0.0000000000
0
VERTEX
5
3E4
100
AcDbEntity
8
TEXT
62
4
370
0
100
AcDbVertex
6
ByLayer
100
AcDb3dPolylineVertex
10
0.6871943717
20
31.6391406875
30
0.0000000000
0
VERTEX
5
3E5
100
AcDbEntity
8
TEXT
62
4
370
0
100
AcDbVertex
6
ByLayer
100
AcDb3dPolylineVertex
10
0.6424762758
20
31.6655650169
30
0.0000000000
0
VERTEX
5
3E6
100
AcDbEntity
8
TEXT
62
4
370
0
100
AcDbVertex
6
ByLayer
100
AcDb3dPolylineVertex
10
0.5967418595
20
31.6848751038
30
0.0000000000
0
VERTEX
5
3E7
100
AcDbEntity
8
TEXT
62
4
370
0
100
AcDbVertex
6
ByLayer
100
AcDb3dPolylineVertex
10
0.5499911228
20
31.6960546278
30
0.0000000000
0
VERTEX
5
3E8
100
AcDbEntity
8
TEXT
62
4
370
0
100
AcDbVertex
6
ByLayer
100
AcDb3dPolylineVertex
10
0.5022240658
20
31.7001199093
30
0.0000000000
0
VERTEX
5
3E9
100
AcDbEntity
8
TEXT
62
4
370
0
100
AcDbVertex
6
ByLayer
100
AcDb3dPolylineVertex
10
0.4544570087
20
31.6960546278
30
0.0000000000
0
VERTEX
5
3EA
100
AcDbEntity
8
TEXT
62
4
370
0
100
AcDbVertex
6
ByLayer
100
AcDb3dPolylineVertex
10
0.4077062721
20
31.6848751038
30
0.0000000000
0
VERTEX
5
3EB
100
AcDbEntity
8
TEXT
62
4
370
0
100
AcDbVertex
6
ByLayer
100
AcDb3dPolylineVertex
10
0.3619718558
20
31.6655650169
30
0.0000000000
0
VERTEX
5
3EC
100
AcDbEntity
8
TEXT
62
4
370
0
100
AcDbVertex
6
ByLayer
100
AcDb3dPolylineVertex
10
0.3172537598
20
31.6391406875
30
0.0000000000
0
VERTEX
5
3ED
100
AcDbEntity
8
TEXT
62
4
370
0
100
AcDbVertex
6
ByLayer
100
AcDb3dPolylineVertex
10
0.2745683046
20
31.6066184359
30
0.0000000000
0
VERTEX
5
3EE
100
AcDbEntity
8
TEXT
62
4
370
0
100
AcDbVertex
6
ByLayer
100
AcDb3dPolylineVertex
10
0.2349318105
20
31.5659656214
30
0.0000000000
0
VERTEX
5
3EF
100
AcDbEntity
8
TEXT
62
4
370
0
100
AcDbVertex
6
ByLayer
100
AcDb3dPolylineVertex
10
0.1973279571
20
31.5202312051
30
0.0000000000
0
VERTEX
5
3F0
100
AcDbEntity
8
TEXT
62
4
370
0
100
AcDbVertex
6
ByLayer
100
AcDb3dPolylineVertex
10
0.1637893851
20
31.4683988666
30
0.0000000000
0
VERTEX
5
3F1
100
AcDbEntity
8
TEXT
62
4
370
0
100
AcDbVertex
6
ByLayer
100
AcDb3dPolylineVertex
10
0.1343160946
20
31.4114849263
30
0.0000000000
0
VERTEX
5
3F2
100
AcDbEntity
8
TEXT
62
4
370
0
100
AcDbVertex
6
ByLayer
100
AcDb3dPolylineVertex
10
0.1078917652
20
31.3505057046
30
0.0000000000
0
VERTEX
5
3F3
100
AcDbEntity
8
TEXT
62
4
370
0
100
AcDbVertex
6
ByLayer
100
AcDb3dPolylineVertex
10
0.0865490376
20
31.2844448810
30
0.0000000000
0
VERTEX
5
3F4
100
AcDbEntity
8
TEXT
62
4
370
0
100
AcDbVertex
6
ByLayer
100
AcDb3dPolylineVertex
10
0.0692715914
20
31.2163514168
30
0.0000000000
0
VERTEX
5
3F5
100
AcDbEntity
8
TEXT
62
4
370
0
100
AcDbVertex
6
ByLayer
100
AcDb3dPolylineVertex
10
0.0570757471
20
31.1452089914
30
0.0000000000
0
VERTEX
5
3F6
100
AcDbEntity
8
TEXT
62
4
370
0
100
AcDbVertex
6
ByLayer
100
AcDb3dPolylineVertex
10
0.0499615045
20
31.0730502457
30
0.0000000000
0
VERTEX
5
3F7
100
AcDbEntity
8
TEXT
62
4
370
0
100
AcDbVertex
6
ByLayer
100
AcDb3dPolylineVertex
10
0.0469125434
20
30.9998751796
30
0.0000000000
0
VERTEX
5
3F8
100
AcDbEntity
8
TEXT
62
4
370
0
100
AcDbVertex
6
ByLayer
100
AcDb3dPolylineVertex
10
0.0469125434
20
30.6502609749
30
0.0000000000
0
VERTEX
5
3F9
100
AcDbEntity
8
TEXT
62
4
370
0
100
AcDbVertex
6
ByLayer
100
AcDb3dPolylineVertex
10
0.0499615045
20
30.5770859088
30
0.0000000000
0
VERTEX
5
3FA
100
AcDbEntity
8
TEXT
62
4
370
0
100
AcDbVertex
6
ByLayer
100
AcDb3dPolylineVertex
10
0.0570757471
20
30.5049271631
30
0.0000000000
0
VERTEX
5
3FB
100
AcDbEntity
8
TEXT
62
4
370
0
100
AcDbVertex
6
ByLayer
100
AcDb3dPolylineVertex
10
0.0692715914
20
30.4337847377
30
0.0000000000
0
VERTEX
5
3FC
100
AcDbEntity
8
TEXT
62
4
370
0
100
AcDbVertex
6
ByLayer
100
AcDb3dPolylineVertex
10
0.0865490376
20
30.3656912735
30
0.0000000000
0
VERTEX
5
3FD
100
AcDbEntity
8
TEXT
62
4
370
0
100
AcDbVertex
6
ByLayer
100
AcDb3dPolylineVertex
10
0.1078917652
20
30.3006467703
30
0.0000000000
0
VERTEX
5
3FE
100
AcDbEntity
8
TEXT
62
4
370
0
100
AcDbVertex
6
ByLayer
100
AcDb3dPolylineVertex
10
0.1343160946
20
30.2386512282
30
0.0000000000
0
VERTEX
5
3FF
100
AcDbEntity
8
TEXT
62
4
370
0
100
AcDbVertex
6
ByLayer
100
AcDb3dPolylineVertex
10
0.1637893851
20
30.1817372879
30
0.0000000000
0
VERTEX
5
400
100
AcDbEntity
8
TEXT
62
4
370
0
100
AcDbVertex
6
ByLayer
100
AcDb3dPolylineVertex
10
0.1973279571
20
30.1299049494
30
0.0000000000
0
VERTEX
5
401
100
AcDbEntity
8
TEXT
62
4
370
0
100
AcDbVertex
6
ByLayer
100
AcDb3dPolylineVertex
10
0.2349318105
20
30.0841705331
30
0.0000000000
0
VERTEX
5
402
100
AcDbEntity
8
TEXT
62
4
370
0
100
AcDbVertex
6
ByLayer
100
AcDb3dPolylineVertex
10
0.2745683046
20
30.0435177186
30
0.0000000000
0
VERTEX
5
403
100
AcDbEntity
8
TEXT
62
4
370
0
100
AcDbVertex
6
ByLayer
100
AcDb3dPolylineVertex
10
0.3172537598
20
30.0109954670
30
0.0000000000
0
VERTEX
5
404
100
AcDbEntity
8
TEXT
62
4
370
0
100
AcDbVertex
6
ByLayer
100
AcDb3dPolylineVertex
10
0.3619718558
20
29.9845711376
30
0.0000000000
0
VERTEX
5
405
100
AcDbEntity
8
TEXT
62
4
370
0
100
AcDbVertex
6
ByLayer
100
AcDb3dPolylineVertex
10
0.4077062721
20
29.9652610507
30
0.0000000000
0
VERTEX
5
406
100
AcDbEntity
8
TEXT
62
4
370
0
100
AcDbVertex
6
ByLayer
100
AcDb3dPolylineVertex
10
0.4544570087
20
29.9540815267
30
0.0000000000
0
VERTEX
5
407
100
AcDbEntity
8
TEXT
62
4
370
0
100
AcDbVertex
6
ByLayer
100
AcDb3dPolylineVertex
10
0.5022240658
20
29.9500162453
30
0.0000000000
0
VERTEX
5
408
100
AcDbEntity
8
TEXT
62
4
370
0
100
AcDbVertex
6
ByLayer
100
AcDb3dPolylineVertex
10
0.9565192678
20
29.9500162453
30
0.0000000000
0
SEQEND
5
409
100
AcDbEntity
8
TEXT
62
4
370
0
6
ByLayer
0
TEXT
5
40A
100
AcDbEntity
8
0
62
4
370
0
100
AcDbText
6
ByLayer
10
0.0000000000
20
0.0000000000
30
0.0000000000
11
0.0000000000
21
0.0000000000
31
0.0000000000
40
1.0000000000
50
0.0000000000
41
1.0000000000
51
0.0000000000
72
0
7
STANDARD
1
**EMPTY STRING**
100
AcDbText
73
0
1001
DSTP_XDATA
1002
{
1000
_OWNERHANDLE=0000000064
1002
}
0
TEXT
5
40B
100
AcDbEntity
8
TEXT
100
AcDbText
6
DASHDOT2
10
-3.6106613798
20
28.5462994041
30
0.0000000000
11
-3.6106613798
21
28.5462994041
31
0.0000000000
40
3.5000000000
50
0.0000000000
41
0.6500000000
51
0.0000000000
72
0
7
STANDARD
1
ß
100
AcDbText
73
0
1001
DSTP_XDATA
1002
{
1000
_OWNERHANDLE=0000000064
1002
}
0
TEXT
5
40C
100
AcDbEntity
8
TEXT
100
AcDbText
6
DASHDOT2
10
-0.3017486335
20
28.3731950242
30
0.0000000000
11
-0.3017486335
21
28.3731950242
31
0.0000000000
40
3.5000000000
50
0.0000000000
41
0.6500000000
51
0.0000000000
72
0
7
STANDARD
1
9
100
AcDbText
73
0
1001
DSTP_XDATA
1002
{
1000
_OWNERHANDLE=0000000064
1002
}
0
LINE
5
40D
100
AcDbEntity
8
TEXT
62
1
370
100
100
AcDbLine
10
-8.1748730003
20
32.8589269062
30
0.0000000000
11
-8.1748730003
21
27.9533408404
31
0.0000000000
1001
DSTP_XDATA
1002
{
1000
_OWNERHANDLE=0000000064
1002
}
0
LINE
5
40E
100
AcDbEntity
8
TEXT
62
1
370
100
100
AcDbLine
10
-8.1748730003
20
27.9533408404
30
0.0000000000
11
-4.7409627543
21
27.9533408404
31
0.0000000000
1001
DSTP_XDATA
1002
{
1000
_OWNERHANDLE=0000000064
1002
}
0
LINE
5
40F
100
AcDbEntity
8
TEXT
62
1
370
100
100
AcDbLine
10
-4.7409627543
20
27.9533408404
30
0.0000000000
11
-4.7409627543
21
32.8589269062
31
0.0000000000
1001
DSTP_XDATA
1002
{
1000
_OWNERHANDLE=0000000064
1002
}
0
LINE
5
410
100
AcDbEntity
8
TEXT
62
1
370
100
100
AcDbLine
10
-4.7409627543
20
32.8589269062
30
0.0000000000
11
-8.1748730003
21
32.8589269062
31
0.0000000000
1001
DSTP_XDATA
1002
{
1000
_OWNERHANDLE=0000000064
1002
}
0
LINE
5
411
100
AcDbEntity
8
TEXT
100
AcDbLine
10
-9.6181657912
20
28.8654473204
30
0.0000000000
11
-6.9555883881
21
31.0035515761
31
0.0000000000
1001
DSTP_XDATA
1002
{
1000
_OWNERHANDLE=0000000064
1002
}
0
LINE
5
412
100
AcDbEntity
8
TEXT
100
AcDbLine
10
-6.9555883881
20
31.0035515761
30
0.0000000000
11
-7.0374611150
21
30.8782268433
31
0.0000000000
1001
DSTP_XDATA
1002
{
1000
_OWNERHANDLE=0000000064
1002
}
0
LINE
5
413
100
AcDbEntity
8
TEXT
100
AcDbLine
10
-6.9555883881
20
31.0035515761
30
0.0000000000
11
-7.0905386751
21
30.9531736242
31
0.0000000000
1001
DSTP_XDATA
1002
{
1000
_OWNERHANDLE=0000000064
1002
}
0
ENDSEC
0
SECTION
2
OBJECTS
0
DICTIONARY
5
414
330
0
100
AcDbDictionary
281
1
3
ACAD_COLOR
350
415
3
ACAD_GROUP
350
416
3
ACAD_LAYOUT
350
417
3
ACAD_MATERIAL
350
418
3
ACAD_MLINESTYLE
350
419
3
ACAD_PLOTSETTINGS
350
41A
3
ACAD_PLOTSTYLENAME
350
41B
3
ACAD_TABLESTYLE
350
41C
3
ACDBHEADERROUNDTRIPXREC
350
41D
3
AcDbVariableDictionary
350
41E
3
DWGPROPS
350
41F
0
DICTIONARY
5
2C1
330
2C0
100
AcDbDictionary
280
1
281
1
3
ACAD_LAYERFILTERS
360
420
3
ACAD_LAYERSTATES
360
421
3
ACLYDICTIONARY
360
422
0
DICTIONARY
5
415
102
{ACAD_REACTORS
330
414
102
}
330
414
100
AcDbDictionary
281
1
0
DICTIONARY
5
416
102
{ACAD_REACTORS
330
414
102
}
330
414
100
AcDbDictionary
281
1
0
DICTIONARY
5
417
102
{ACAD_REACTORS
330
414
102
}
330
414
100
AcDbDictionary
281
1
3
Layout1
350
2DF
3
Layout2
350
2E1
3
Model
350
2DD
0
DICTIONARY
5
418
102
{ACAD_REACTORS
330
414
102
}
330
414
100
AcDbDictionary
281
1
0
DICTIONARY
5
419
102
{ACAD_REACTORS
330
414
102
}
330
414
100
AcDbDictionary
281
1
3
Standard
350
423
0
DICTIONARY
5
41A
102
{ACAD_REACTORS
330
414
102
}
330
414
100
AcDbDictionary
281
1
0
ACDBDICTIONARYWDFLT
5
41B
102
{ACAD_REACTORS
330
414
102
}
330
414
100
AcDbDictionary
281
1
3
Normal
350
2C3
100
AcDbDictionaryWithDefault
340
2C3
0
DICTIONARY
5
41C
102
{ACAD_REACTORS
330
414
102
}
330
414
100
AcDbDictionary
281
1
3
Standard
350
424
0
DICTIONARY
5
41D
102
{ACAD_REACTORS
330
414
102
}
330
414
100
AcDbDictionary
281
1
0
DICTIONARY
5
41E
102
{ACAD_REACTORS
330
414
102
}
330
414
100
AcDbDictionary
281
1
3
CTABLESTYLE
350
425
3
DIMASSOC
350
426
3
HIDETEXT
350
427
3
PROJECTNAME
350
428
0
XRECORD
5
41F
102
{ACAD_REACTORS
330
414
102
}
330
414
100
AcDbXrecord
280
1
1
DWGPROPS COOKIE
2

3

4

6

7

8
Autodesk
9

300
=
301
=
302
=
303
=
304
=
305
=
306
=
307
=
308
=
309
=
40
0.0121102546296296
41
2455008.558453229
42
2455694.624051458
1

90
0
0
DICTIONARY
5
420
102
{ACAD_REACTORS
330
2C1
102
}
330
2C1
100
AcDbDictionary
281
1
0
DICTIONARY
5
421
102
{ACAD_REACTORS
330
2C1
102
}
330
2C1
100
AcDbDictionary
281
1
0
DICTIONARY
5
422
102
{ACAD_REACTORS
330
2C1
102
}
330
2C1
100
AcDbDictionary
281
1
1001
ACAD
1000
<All
0
LAYOUT
5
2DF
102
{ACAD_XDICTIONARY
360
429
102
}
102
{ACAD_REACTORS
330
417
102
}
330
417
100
AcDbPlotSettings
1

2
C:\Documents and Settings\basas\Application Data\Autodesk\AutoCAD 2005\R16.1\enu\plotters\Default Windows System Printer.pc3
4

6

40
0.0
41
0.0
42
0.0
43
0.0
44
0.0
45
0.0
46
0.0
47
0.0
48
0.0
49
0.0
140
0.0
141
0.0
142
1.0
143
1.0
70
688
72
0
73
0
74
5
7

75
16
147
1.0
148
0.0
149
0.0
100
AcDbLayout
1
Layout1
70
1
71
1
10
0.0
20
0.0
11
12.0
21
9.0
12
0.0
22
0.0
32
0.0
14
0.0
24
0.0
34
0.0
15
0.0
25
0.0
35
0.0
146
0.0
13
0.0
23
0.0
33
0.0
16
1.0
26
0.0
36
0.0
17
0.0
27
1.0
37
0.0
76
0
330
2DE
0
LAYOUT
5
2E1
102
{ACAD_XDICTIONARY
360
42A
102
}
102
{ACAD_REACTORS
330
417
102
}
330
417
100
AcDbPlotSettings
1

2
C:\Documents and Settings\basas\Application Data\Autodesk\AutoCAD 2005\R16.1\enu\plotters\Default Windows System Printer.pc3
4

6

40
0.0
41
0.0
42
0.0
43
0.0
44
0.0
45
0.0
46
0.0
47
0.0
48
0.0
49
0.0
140
0.0
141
0.0
142
1.0
143
1.0
70
688
72
0
73
0
74
5
7

75
16
147
1.0
148
0.0
149
0.0
100
AcDbLayout
1
Layout2
70
1
71
2
10
0.0
20
0.0
11
12.0
21
9.0
12
0.0
22
0.0
32
0.0
14
0.0
24
0.0
34
0.0
15
0.0
25
0.0
35
0.0
146
0.0
13
0.0
23
0.0
33
0.0
16
1.0
26
0.0
36
0.0
17
0.0
27
1.0
37
0.0
76
0
330
2E0
0
LAYOUT
5
2DD
102
{ACAD_XDICTIONARY
360
42B
102
}
102
{ACAD_REACTORS
330
417
102
}
330
417
100
AcDbPlotSettings
1

2
none_device
4
ISO_A4_(210.00_x_297.00_MM)
6

40
7.5
41
20.0
42
7.5
43
20.0
44
210.0
45
297.0
46
11.54999923706054
47
-13.65000009536743
48
0.0
49
0.0
140
0.0
141
0.0
142
1.0
143
8.704084754739808
70
11952
72
1
73
0
74
0
7

75
0
147
0.1148885871608098
148
0.0
149
0.0
100
AcDbLayout
1
Model
70
1
71
0
10
0.0
20
0.0
11
12.0
21
9.0
12
0.0
22
0.0
32
0.0
14
0.0
24
0.0
34
0.0
15
0.0
25
0.0
35
0.0
146
0.0
13
0.0
23
0.0
33
0.0
16
1.0
26
0.0
36
0.0
17
0.0
27
1.0
37
0.0
76
0
330
2DC
1001
ACAD_PSEXT
1000
None
1000
None
1000
Not applicable
1000
The layout will not be plotted unless a new plotter configuration name is selected.
1070
0
0
MLINESTYLE
5
423
102
{ACAD_REACTORS
330
419
102
}
330
419
100
AcDbMlineStyle
2
STANDARD
70
0
3

62
256
51
90.0
52
90.0
71
2
49
0.5
62
256
6
BYLAYER
49
-0.5
62
256
6
BYLAYER
0
ACDBPLACEHOLDER
5
2C3
102
{ACAD_REACTORS
330
41B
102
}
330
41B
0
TABLESTYLE
5
424
102
{ACAD_REACTORS
330
41C
102
}
330
41C
100
AcDbTableStyle
3
Standard
70
0
71
0
40
1.5
41
1.5
280
0
281
0
7
Standard
140
4.5
170
2
62
0
63
7
283
0
274
-2
284
1
64
0
275
-2
285
1
65
0
276
-2
286
1
66
0
277
-2
287
1
67
0
278
-2
288
1
68
0
279
-2
289
1
69
0
7
Standard
140
6.0
170
5
62
0
63
7
283
0
274
-2
284
1
64
0
275
-2
285
1
65
0
276
-2
286
1
66
0
277
-2
287
1
67
0
278
-2
288
1
68
0
279
-2
289
1
69
0
7
Standard
140
4.5
170
5
62
0
63
7
283
0
274
-2
284
1
64
0
275
-2
285
1
65
0
276
-2
286
1
66
0
277
-2
287
1
67
0
278
-2
288
1
68
0
279
-2
289
1
69
0
0
DICTIONARYVAR
5
425
102
{ACAD_REACTORS
330
41E
102
}
330
41E
100
DictionaryVariables
280
0
1
STANDARD
0
DICTIONARYVAR
5
426
102
{ACAD_REACTORS
330
41E
102
}
330
41E
100
DictionaryVariables
280
0
1
2
0
DICTIONARYVAR
5
427
102
{ACAD_REACTORS
330
41E
102
}
330
41E
100
DictionaryVariables
280
0
1
1
0
DICTIONARYVAR
5
428
102
{ACAD_REACTORS
330
41E
102
}
330
41E
100
DictionaryVariables
280
0
1

0
DICTIONARY
5
429
330
2DF
100
AcDbDictionary
280
1
281
1
3
ACAD_XREC_ROUNDTRIP
360
42C
0
DICTIONARY
5
42A
330
2E1
100
AcDbDictionary
280
1
281
1
3
ACAD_XREC_ROUNDTRIP
360
42D
0
DICTIONARY
5
42B
330
2DD
100
AcDbDictionary
280
1
281
1
3
ACAD_XREC_ROUNDTRIP
360
42E
0
XRECORD
5
42C
102
{ACAD_REACTORS
330
429
102
}
330
429
100
AcDbXrecord
280
1
102
SHADEPLOT
70
0
102
SHADEPLOTRESLEVEL
70
2
102
SHADEPLOTCUSTOMDPI
70
300
0
XRECORD
5
42D
102
{ACAD_REACTORS
330
42A
102
}
330
42A
100
AcDbXrecord
280
1
102
SHADEPLOT
70
0
102
SHADEPLOTRESLEVEL
70
2
102
SHADEPLOTCUSTOMDPI
70
300
0
XRECORD
5
42E
102
{ACAD_REACTORS
330
42B
102
}
330
42B
100
AcDbXrecord
280
1
102
SHADEPLOT
70
0
102
SHADEPLOTRESLEVEL
70
2
102
SHADEPLOTCUSTOMDPI
70
300
0
ENDSEC
0
EOF
