/* XPM */
static char * tvirtualstringtree_xpm[] = {
"24 24 8 1",
".	c #000000",
"+	c None",
"@	c #808000",
"#	c #20A080",
"$	c #808080",
"%	c #C0A000",
"&	c #C0C0C0",
"*	c #FFFFFF",
"++++++..++++++++++++++++",
"+++++.&&.............+++",
"++++.***&&&&&&&&&&$$@.++",
"++++.************@$$$.++",
"+++.************@$$$$.++",
"++++...@********.$$$$.++",
"+++++++.........$$$$@+++",
"+++++++.$$$$$$$$***$.+++",
"+++++++.***********&.+++",
"+++++++.*.**......*$.+++",
"+++++++.*....%%%%.*.++++",
"+++++++.*.**......*.++++",
"++++++.**.*********.++++",
"+++++.$**.**......*.++++",
"+++++.&**....####.*.++++",
"+++++.******......*.++++",
"+++++.*************&.+++",
"+...+.***.....******.+++",
"+.&&@....&&&&&.****$.+++",
"+.&&&&&&&&&&&&&.**&.++++",
"++.$&&&&&&&&&&&.&&&.++++",
"++.$$$$$$$$$$$$$.&.+++++",
"+++...............++++++",
"++++++++++++++++++++++++"};
