/* XPM */
static char * tvtheaderpopupmenu_xpm[] = {
"24 24 7 1",
".	c #000000",
"+	c #000080",
"@	c None",
"#	c #808000",
"$	c #808080",
"%	c #C0C0C0",
"&	c #FFFFFF",
"@@@@@@..@@@@@@@@@@@@@@@@",
"@@@@@.%%.............@@@",
"@@@@.&&&%%%%%%%%%%$$#.@@",
"@@@@.&&&&&&&&&&&&#$$$.@@",
"@@@.&&&&&&&&&&&&#$$$$.@@",
"@@@@...#&&&&&&&&.$$$$.@@",
"@@@@@@@.........$$$$#@@@",
"@@@@@@@.$$$$$$$$&&&$.@@@",
"@@@@@@@.$&&&&&&.&&&%.@@@",
"@@@@@@@.$&+++&&.&&&$.@@@",
"@@@@@@@.$&&&&&&.&&&.@@@@",
"@@@@@@@.$&+++++.&&&.@@@@",
"@@@@@@.&$+&&&+&+&&&.@@@@",
"@@@@@.$&$&++++&&+&&.@@@@",
"@@@@@.%&$&&&&+&&&+&.@@@@",
"@@@@@.&&$....+&&&&+.@@@@",
"@@@@@.&&&&&&&+&&&++++@@@",
"@...@.&&&....+&&&&+&.@@@",
"@.%%#....%%%%+&++&&+.@@@",
"@.%%%%%%%%%%%++$+&&+@@@@",
"@@.$%%%%%%%%%+%.%+&&+@@@",
"@@.$$$$$$$$$$$$$.+&&+@@@",
"@@@...............++@@@@",
"@@@@@@@@@@@@@@@@@@@@@@@@"};
