0
SECTION
2
HEADER
9
$ACADVER
1
AC1015
9
$ACADMAINTVER
70
20
9
$DWGCODEPAGE
3
ANSI_1251
9
$INSBASE
10
0.0
20
0.0
30
0.0
9
$EXTMIN
10
1.000000000000000E+20
20
1.000000000000000E+20
30
1.000000000000000E+20
9
$EXTMAX
10
-1.000000000000000E+20
20
-1.000000000000000E+20
30
-1.000000000000000E+20
9
$LIMMIN
10
0.0
20
0.0
9
$LIMMAX
10
420.0
20
297.0
9
$ORTHOMODE
70
0
9
$REGENMODE
70
1
9
$FILLMODE
70
1
9
$QTEXTMODE
70
0
9
$MIRRTEXT
70
0
9
$LTSCALE
40
1
9
$ATTMODE
70
1
9
$TEXTSIZE
40
0.2
9
$TRACEWID
40
1.0
9
$TEXTSTYLE
7
STANDARD
9
$CLAYER
8
TABLE
9
$CELTYPE
6
ByLayer
9
$CECOLOR
62
256
9
$CELTSCALE
40
1
9
$DISPSILH
70
0
9
$DIMSCALE
40
1.0
9
$DIMASZ
40
0.18
9
$DIMEXO
40
0.0625
9
$DIMDLI
40
0.38
9
$DIMRND
40
0.0
9
$DIMDLE
40
0.0
9
$DIMEXE
40
0.18
9
$DIMTP
40
0.0
9
$DIMTM
40
0.0
9
$DIMTXT
40
0.18
9
$DIMCEN
40
0.09
9
$DIMTSZ
40
0.0
9
$DIMTOL
70
0
9
$DIMLIM
70
0
9
$DIMTIH
70
1
9
$DIMTOH
70
1
9
$DIMSE1
70
0
9
$DIMSE2
70
0
9
$DIMTAD
70
0
9
$DIMZIN
70
0
9
$DIMBLK
1

9
$DIMASO
70
1
9
$DIMSHO
70
1
9
$DIMPOST
1

9
$DIMAPOST
1

9
$DIMALT
70
0
9
$DIMALTD
70
2
9
$DIMALTF
40
25.4
9
$DIMLFAC
40
1.0
9
$DIMTOFL
70
0
9
$DIMTVP
40
0.0
9
$DIMTIX
70
0
9
$DIMSOXD
70
0
9
$DIMSAH
70
0
9
$DIMBLK1
1

9
$DIMBLK2
1

9
$DIMSTYLE
2
STANDARD
9
$DIMCLRD
70
0
9
$DIMCLRE
70
0
9
$DIMCLRT
70
0
9
$DIMTFAC
40
1.0
9
$DIMGAP
40
0.09
9
$DIMJUST
70
0
9
$DIMSD1
70
0
9
$DIMSD2
70
0
9
$DIMTOLJ
70
1
9
$DIMTZIN
70
0
9
$DIMALTZ
70
0
9
$DIMALTTZ
70
0
9
$DIMUPT
70
0
9
$DIMDEC
70
4
9
$DIMTDEC
70
4
9
$DIMALTU
70
2
9
$DIMALTTD
70
2
9
$DIMTXSTY
7
Standard
9
$DIMAUNIT
70
0
9
$DIMADEC
70
0
9
$DIMALTRND
40
0.0
9
$DIMAZIN
70
0
9
$DIMDSEP
70
46
9
$DIMATFIT
70
3
9
$DIMFRAC
70
0
9
$DIMLDRBLK
1

9
$DIMLUNIT
70
2
9
$DIMLWD
70
-2
9
$DIMLWE
70
-2
9
$DIMTMOVE
70
0
9
$LUNITS
70
2
9
$LUPREC
70
4
9
$SKETCHINC
40
1.0
9
$FILLETRAD
40
0.0
9
$AUNITS
70
0
9
$AUPREC
70
0
9
$MENU
1
.
9
$ELEVATION
40
0.0
9
$PELEVATION
40
0.0
9
$THICKNESS
40
0.0
9
$LIMCHECK
70
0
9
$CHAMFERA
40
0.0
9
$CHAMFERB
40
0.0
9
$CHAMFERC
40
0.0
9
$CHAMFERD
40
0.0
9
$SKPOLY
70
0
9
$TDCREATE
40
2455008.558453229
9
$TDUCREATE
40
2455008.308453229
9
$TDUPDATE
40
2455694.624051458
9
$TDUUPDATE
40
2455694.374051458
9
$TDINDWG
40
0.0121107986
9
$TDUSRTIMER
40
0.0121104398
9
$USRTIMER
70
1
9
$ANGBASE
50
0
9
$ANGDIR
70
0
9
$PDMODE
70
0
9
$PDSIZE
40
0.0
9
$PLINEWID
40
0.0
9
$SPLFRAME
70
0
9
$SPLINETYPE
70
6
9
$SPLINESEGS
70
8
9
$HANDSEED
5
100000239
9
$SURFTAB1
70
6
9
$SURFTAB2
70
6
9
$SURFTYPE
70
6
9
$SURFU
70
6
9
$SURFV
70
6
9
$UCSBASE
2

9
$UCSNAME
2

9
$UCSORG
10
0.0
20
0.0
30
0.0
9
$UCSXDIR
10
1.0
20
0.0
30
0.0
9
$UCSYDIR
10
0.0
20
1.0
30
0.0
9
$UCSORTHOREF
2

9
$UCSORTHOVIEW
70
0
9
$UCSORGTOP
10
0.0
20
0.0
30
0.0
9
$UCSORGBOTTOM
10
0.0
20
0.0
30
0.0
9
$UCSORGLEFT
10
0.0
20
0.0
30
0.0
9
$UCSORGRIGHT
10
0.0
20
0.0
30
0.0
9
$UCSORGFRONT
10
0.0
20
0.0
30
0.0
9
$UCSORGBACK
10
0.0
20
0.0
30
0.0
9
$PUCSBASE
2

9
$PUCSNAME
2

9
$PUCSORG
10
0.0
20
0.0
30
0.0
9
$PUCSXDIR
10
1.0
20
0.0
30
0.0
9
$PUCSYDIR
10
0.0
20
1.0
30
0.0
9
$PUCSORTHOREF
2

9
$PUCSORTHOVIEW
70
0
9
$PUCSORGTOP
10
0.0
20
0.0
30
0.0
9
$PUCSORGBOTTOM
10
0.0
20
0.0
30
0.0
9
$PUCSORGLEFT
10
0.0
20
0.0
30
0.0
9
$PUCSORGRIGHT
10
0.0
20
0.0
30
0.0
9
$PUCSORGFRONT
10
0.0
20
0.0
30
0.0
9
$PUCSORGBACK
10
0.0
20
0.0
30
0.0
9
$USERI1
70
0
9
$USERI2
70
0
9
$USERI3
70
0
9
$USERI4
70
0
9
$USERI5
70
0
9
$USERR1
40
0.0
9
$USERR2
40
0.0
9
$USERR3
40
0.0
9
$USERR4
40
0.0
9
$USERR5
40
0.0
9
$WORLDVIEW
70
1
9
$SHADEDGE
70
3
9
$SHADEDIF
70
70
9
$TILEMODE
70
1
9
$MAXACTVP
70
64
9
$PINSBASE
10
0.0
20
0.0
30
0.0
9
$PLIMCHECK
70
0
9
$PEXTMIN
10
0.0
20
0.0
30
0.0
9
$PEXTMAX
10
0.0
20
0.0
30
0.0
9
$PLIMMIN
10
0.0
20
0.0
9
$PLIMMAX
10
12.0
20
9.0
9
$UNITMODE
70
0
9
$VISRETAIN
70
1
9
$PLINEGEN
70
0
9
$PSLTSCALE
70
1
9
$TREEDEPTH
70
3020
9
$CMLSTYLE
2
Standard
9
$CMLJUST
70
0
9
$CMLSCALE
40
20.0
9
$PROXYGRAPHICS
70
1
9
$MEASUREMENT
70
1
9
$CELWEIGHT
370
9
9
$ENDCAPS
280
0
9
$JOINSTYLE
280
0
9
$LWDISPLAY
290
0
9
$INSUNITS
70
0
9
$HYPERLINKBASE
1

9
$STYLESHEET
1

9
$XEDIT
290
1
9
$CEPSNTYPE
380
0
9
$PSTYLEMODE
290
1
9
$FINGERPRINTGUID
2
{83B934B2-5622-42D0-9691-648EBDBEDF3A}
9
$VERSIONGUID
2
{687BA470-A50B-4F07-854F-729D023A6E33}
9
$EXTNAMES
290
1
9
$PSVPSCALE
40
0.0
9
$OLESTARTUP
290
0
0
ENDSEC
0
SECTION
2
CLASSES
0
CLASS
1
ACDBDICTIONARYWDFLT
2
AcDbDictionaryWithDefault
3
ObjectDBX Classes
90
0
280
0
281
0
0
CLASS
1
ACDBPLACEHOLDER
2
AcDbPlaceHolder
3
ObjectDBX Classes
90
0
280
0
281
0
0
CLASS
1
LAYOUT
2
AcDbLayout
3
ObjectDBX Classes
90
0
280
0
281
0
0
CLASS
1
DICTIONARYVAR
2
AcDbDictionaryVar
3
ObjectDBX Classes
90
0
280
0
281
0
0
CLASS
1
TABLESTYLE
2
AcDbTableStyle
3
ObjectDBX Classes
90
2047
280
0
281
0
0
ENDSEC
0
SECTION
2
TABLES
0
TABLE
2
VPORT
5
5
330
0
100
AcDbSymbolTable
70
1
0
VPORT
5
6
330
5
100
AcDbSymbolTableRecord
100
AcDbViewportTableRecord
2
*Active
70
0
10
0.0
20
0.0
11
1.0
21
1.0
12
-4.39429609582866
22
2.1188230961042
13
0
23
0
14
0.5
24
0.5
15
1
25
1
16
0
26
0
36
1
17
0
27
0
37
0
40
20.181402642727
41
1.36823935558113
42
50.0
43
0.0
44
0.0
50
0.0
51
0.0
71
0
72
1000
73
1
74
3
75
1
76
1
77
0
78
0
281
0
65
1
110
0.0
120
0.0
130
0.0
111
1.0
121
0.0
131
0.0
112
0.0
122
1.0
132
0.0
79
0
146
0.0
0
ENDTAB
0
TABLE
2
LTYPE
5
7
330
3
100
AcDbSymbolTable
70
1
0
LTYPE
5
B
330
B
100
AcDbSymbolTableRecord
100
AcDbLinetypeTableRecord
2
Continuous
70
0
3
Solid line
72
65
73
0
40
0
0
LTYPE
5
C
330
C
100
AcDbSymbolTableRecord
100
AcDbLinetypeTableRecord
2
ByLayer
70
0
3

72
65
73
0
40
0
0
LTYPE
5
D
330
D
100
AcDbSymbolTableRecord
100
AcDbLinetypeTableRecord
2
ByBlock
70
0
3

72
65
73
0
40
0
0
LTYPE
5
E
330
E
100
AcDbSymbolTableRecord
100
AcDbLinetypeTableRecord
2
DASHED
70
0
3
DASHED
72
65
73
2
40
0.75
49
0.5
74
0
49
-0.25
74
0
0
ENDTAB
0
TABLE
2
LAYER
5
F
102
{ACAD_XDICTIONARY
360
10
102
}
330
3
100
AcDbSymbolTable
70
1
0
LAYER
5
13
100
AcDbSymbolTableRecord
100
AcDbLayerTableRecord
2
0
70
0
62
7
6
Continuous
290
1
370
9
390
12
0
LAYER
5
14
100
AcDbSymbolTableRecord
100
AcDbLayerTableRecord
2
SYS_METRIC
70
0
62
-7
6
Continuous
290
0
370
-3
390
12
0
LAYER
5
15
100
AcDbSymbolTableRecord
100
AcDbLayerTableRecord
2
TABLE
70
0
62
7
6
Continuous
290
1
370
25
390
12
0
LAYER
5
16
100
AcDbSymbolTableRecord
100
AcDbLayerTableRecord
2
FORMAT
70
0
62
134
6
Continuous
290
1
370
9
390
12
0
LAYER
5
17
100
AcDbSymbolTableRecord
100
AcDbLayerTableRecord
2
Defpoints
70
0
62
7
6
Continuous
290
0
370
9
390
12
0
ENDTAB
0
TABLE
2
STYLE
5
18
330
3
100
AcDbSymbolTable
70
2
0
STYLE
5
1A
330
18
100
AcDbSymbolTableRecord
100
AcDbTextStyleTableRecord
2
STANDARD
70
0
40
0
41
1
50
0
71
0
42
2.5
3
isocpeur.ttf
4

1001
ACAD
1000
ISOCPEUR
0
STYLE
5
1B
330
18
100
AcDbSymbolTableRecord
100
AcDbTextStyleTableRecord
2
MtXpl_ISOCPEUR
70
0
40
0
41
1
50
0
71
0
42
2.5
3
isocpeur.ttf
4

1001
ACAD
1000
ISOCPEUR
0
ENDTAB
0
TABLE
2
VIEW
5
1C
330
3
100
AcDbSymbolTable
70
0
0
ENDTAB
0
TABLE
2
UCS
5
1D
330
3
100
AcDbSymbolTable
70
0
0
ENDTAB
0
TABLE
2
APPID
5
1E
330
3
100
AcDbSymbolTable
70
11
0
APPID
5
2A
100
AcDbSymbolTableRecord
100
AcDbRegAppTableRecord
2
ACAD
70
0
0
APPID
5
2B
100
AcDbSymbolTableRecord
100
AcDbRegAppTableRecord
2
ACAD_PSEXT
70
0
0
APPID
5
2C
100
AcDbSymbolTableRecord
100
AcDbRegAppTableRecord
2
AcAecLayerStandard
70
0
0
APPID
5
2D
100
AcDbSymbolTableRecord
100
AcDbRegAppTableRecord
2
DSTP_XDATA
70
0
0
APPID
5
2E
100
AcDbSymbolTableRecord
100
AcDbRegAppTableRecord
2
ACAD_DSTYLE_DIM_LINETYPE
70
0
0
APPID
5
2F
100
AcDbSymbolTableRecord
100
AcDbRegAppTableRecord
2
ACAD_DSTYLE_DIM_EXT1_LINETYPE
70
0
0
APPID
5
30
100
AcDbSymbolTableRecord
100
AcDbRegAppTableRecord
2
ACAD_DSTYLE_DIM_EXT2_LINETYPE
70
0
0
ENDTAB
0
TABLE
2
DIMSTYLE
5
31
330
3
100
AcDbSymbolTable
70
2
100
AcDbDimStyleTable
71
1
0
DIMSTYLE
105
33
330
31
100
AcDbSymbolTableRecord
100
AcDbDimStyleTableRecord
2
STANDARD
3

70
0
40
0
44
0.18
42
0.0625
46
0
41
0.18
173
0
140
0.18
141
0.09
73
1
74
1
147
0.625
77
0
144
1
271
4
45
0
277
2
278
46
279
0
371
-2
372
-2
176
0
177
0
178
0
340
1A
0
DIMSTYLE
105
34
330
31
100
AcDbSymbolTableRecord
100
AcDbDimStyleTableRecord
2
Аннотативный
3

70
0
40
0
44
0.18
42
0.0625
46
0
41
0.18
173
0
140
0.18
141
0.09
73
1
74
1
147
0.625
77
0
144
1
271
4
45
0
277
2
278
46
279
0
371
-2
372
-2
176
0
177
0
178
0
340
1A
0
DIMSTYLE
105
35
330
31
100
AcDbSymbolTableRecord
100
AcDbDimStyleTableRecord
2
ISO-25
3

70
0
40
0
44
1.25
42
0.625
46
0
41
2.5
173
0
140
2.5
141
2.5
73
0
74
0
147
0.625
77
1
144
1
271
2
45
0
277
2
278
44
279
0
371
-2
372
-2
176
0
177
0
178
0
340
1A
0
ENDTAB
0
TABLE
2
BLOCK_RECORD
5
36
330
3
100
AcDbSymbolTable
70
1
0
BLOCK_RECORD
5
37
330
36
100
AcDbSymbolTableRecord
100
AcDbBlockTableRecord
2
*Model_Space
340
38
0
BLOCK_RECORD
5
39
330
36
100
AcDbSymbolTableRecord
100
AcDbBlockTableRecord
2
*Paper_Space
340
3A
0
BLOCK_RECORD
5
3B
330
36
100
AcDbSymbolTableRecord
100
AcDbBlockTableRecord
2
*Paper_Space0
340
3C
0
BLOCK_RECORD
5
3D
100
AcDbSymbolTableRecord
100
AcDbBlockTableRecord
2
DEVICE_EL_VL_UNIT_NO1
0
BLOCK_RECORD
5
3E
100
AcDbSymbolTableRecord
100
AcDbBlockTableRecord
2
EL_VL_UNIT_NO1
0
BLOCK_RECORD
5
3F
100
AcDbSymbolTableRecord
100
AcDbBlockTableRecord
2
DEVICE_EL_VL_UNIT_NC1
0
BLOCK_RECORD
5
40
100
AcDbSymbolTableRecord
100
AcDbBlockTableRecord
2
EL_VL_UNIT_NC1
0
BLOCK_RECORD
5
41
100
AcDbSymbolTableRecord
100
AcDbBlockTableRecord
2
DEVICE_EL_VL_UNIT_HL1
0
BLOCK_RECORD
5
42
100
AcDbSymbolTableRecord
100
AcDbBlockTableRecord
2
EL_VL_UNIT_HL1
0
BLOCK_RECORD
5
43
100
AcDbSymbolTableRecord
100
AcDbBlockTableRecord
2
EL_VL_UNIT_SA1
0
BLOCK_RECORD
5
44
100
AcDbSymbolTableRecord
100
AcDbBlockTableRecord
2
DEVICE_EL_VL_UNIT_SA2
0
BLOCK_RECORD
5
45
100
AcDbSymbolTableRecord
100
AcDbBlockTableRecord
2
EL_VL_UNIT_SA2
0
BLOCK_RECORD
5
46
100
AcDbSymbolTableRecord
100
AcDbBlockTableRecord
2
DEVICE_EL_VL_UNIT_QF1
0
BLOCK_RECORD
5
47
100
AcDbSymbolTableRecord
100
AcDbBlockTableRecord
2
EL_VL_UNIT_QF1
0
BLOCK_RECORD
5
48
100
AcDbSymbolTableRecord
100
AcDbBlockTableRecord
2
DEVICE_EL_VL_UNIT_QF2
0
BLOCK_RECORD
5
49
100
AcDbSymbolTableRecord
100
AcDbBlockTableRecord
2
EL_VL_UNIT_QF2
0
BLOCK_RECORD
5
4A
100
AcDbSymbolTableRecord
100
AcDbBlockTableRecord
2
DEVICE_EL_VL_UNIT_QS2
0
BLOCK_RECORD
5
4B
100
AcDbSymbolTableRecord
100
AcDbBlockTableRecord
2
EL_VL_UNIT_QS2
0
BLOCK_RECORD
5
4C
100
AcDbSymbolTableRecord
100
AcDbBlockTableRecord
2
DEVICE_EL_VL_UNIT_A1
0
BLOCK_RECORD
5
4D
100
AcDbSymbolTableRecord
100
AcDbBlockTableRecord
2
EL_VL_UNIT_A1
0
BLOCK_RECORD
5
4E
100
AcDbSymbolTableRecord
100
AcDbBlockTableRecord
2
DEVICE_EL_VL_UNIT_X1
0
BLOCK_RECORD
5
4F
100
AcDbSymbolTableRecord
100
AcDbBlockTableRecord
2
EL_VL_UNIT_X1
0
BLOCK_RECORD
5
50
100
AcDbSymbolTableRecord
100
AcDbBlockTableRecord
2
DEVICE_EL_VL_UNIT_X2
0
BLOCK_RECORD
5
51
100
AcDbSymbolTableRecord
100
AcDbBlockTableRecord
2
EL_VL_UNIT_X2
0
BLOCK_RECORD
5
52
100
AcDbSymbolTableRecord
100
AcDbBlockTableRecord
2
DEVICE_EL_VL_UNIT_SA1
0
BLOCK_RECORD
5
53
100
AcDbSymbolTableRecord
100
AcDbBlockTableRecord
2
DEVICE_EL_VL_UNIT_RP1
0
BLOCK_RECORD
5
54
100
AcDbSymbolTableRecord
100
AcDbBlockTableRecord
2
EL_VL_UNIT_RP1
0
BLOCK_RECORD
5
55
100
AcDbSymbolTableRecord
100
AcDbBlockTableRecord
2
UNIT_GRID1
0
BLOCK_RECORD
5
56
100
AcDbSymbolTableRecord
100
AcDbBlockTableRecord
2
DEVICE_EL_VL_UNIT_CH1
0
BLOCK_RECORD
5
57
100
AcDbSymbolTableRecord
100
AcDbBlockTableRecord
2
EL_VL_UNIT_CH1
0
BLOCK_RECORD
5
58
100
AcDbSymbolTableRecord
100
AcDbBlockTableRecord
2
DEVICE_EL_VL_UNIT_CH2
0
BLOCK_RECORD
5
59
100
AcDbSymbolTableRecord
100
AcDbBlockTableRecord
2
EL_VL_UNIT_CH2
0
BLOCK_RECORD
5
5A
100
AcDbSymbolTableRecord
100
AcDbBlockTableRecord
2
DEVICE_EL_VL_UNIT_CH3
0
BLOCK_RECORD
5
5B
100
AcDbSymbolTableRecord
100
AcDbBlockTableRecord
2
EL_VL_UNIT_CH3
0
BLOCK_RECORD
5
5C
100
AcDbSymbolTableRecord
100
AcDbBlockTableRecord
2
DEVICE_EL_VL_UNIT_XT1
0
BLOCK_RECORD
5
5D
100
AcDbSymbolTableRecord
100
AcDbBlockTableRecord
2
EL_VL_UNIT_XT1
0
BLOCK_RECORD
5
5E
100
AcDbSymbolTableRecord
100
AcDbBlockTableRecord
2
UNIT_GRID2
0
BLOCK_RECORD
5
5F
100
AcDbSymbolTableRecord
100
AcDbBlockTableRecord
2
EL_VL_UNIT_A2
0
BLOCK_RECORD
5
60
100
AcDbSymbolTableRecord
100
AcDbBlockTableRecord
2
DEVICE_EL_VL_UNIT_A2
0
BLOCK_RECORD
5
61
100
AcDbSymbolTableRecord
100
AcDbBlockTableRecord
2
DEVICE_EL_VL_UNIT_QF4
0
BLOCK_RECORD
5
62
100
AcDbSymbolTableRecord
100
AcDbBlockTableRecord
2
EL_VL_UNIT_QF4
0
BLOCK_RECORD
5
63
100
AcDbSymbolTableRecord
100
AcDbBlockTableRecord
2
DEVICE_EL_VL_UNIT_QF3
0
BLOCK_RECORD
5
64
100
AcDbSymbolTableRecord
100
AcDbBlockTableRecord
2
EL_VL_UNIT_QF3
0
ENDTAB
0
ENDSEC
0
SECTION
2
BLOCKS
0
BLOCK
5
65
330
37
100
AcDbEntity
8
0
100
AcDbBlockBegin
2
*Model_Space
70
0
10
0.0
20
0.0
30
0.0
3
*Model_Space
1

0
ENDBLK
5
66
330
37
100
AcDbEntity
8
0
100
AcDbBlockEnd
0
BLOCK
5
67
330
39
100
AcDbEntity
67
1
8
0
100
AcDbBlockBegin
2
*Paper_Space
70
0
10
0.0
20
0.0
30
0.0
3
*Paper_Space
1

0
ENDBLK
5
68
330
39
100
AcDbEntity
67
1
8
0
100
AcDbBlockEnd
0
BLOCK
5
69
330
3B
100
AcDbEntity
67
1
8
0
100
AcDbBlockBegin
2
*Paper_Space0
70
0
10
0.0
20
0.0
30
0.0
3
*Paper_Space0
1

0
ENDBLK
5
6A
330
3B
100
AcDbEntity
67
1
8
0
100
AcDbBlockEnd
0
BLOCK
5
6B
100
AcDbEntity
8
0
100
AcDbBlockBegin
2
DEVICE_EL_VL_UNIT_NO1
70
2
10
0
20
0
30
0
3
DEVICE_EL_VL_UNIT_NO1
1

0
MTEXT
5
6C
100
AcDbEntity
8
FORMAT
100
AcDbMText
6
ByLayer
10
7.5000000000
20
6.0000000000
30
0.0000000000
40
2.5000000000
41
15.0000000000
71
5
1
@@[NMO_Prefix]@@[NMO_BaseName]@@[NMO_Suffix]@@[NMO_Affix]@@[VL_Mark]
7
MtXpl_ISOCPEUR
11
1.0000000000
21
0.0000000000
31
0.0000000000
73
2
44
0.9000000000
1001
DSTP_XDATA
1002
{
1000
_TMPL1=
1000
_OWNERHANDLE=0000000064
1002
}
0
ENDBLK
5
6D
100
AcDbEntity
8
0
100
AcDbBlockEnd
1001
DSTP_XDATA
1002
{
1002
}
0
BLOCK
5
6E
100
AcDbEntity
8
0
100
AcDbBlockBegin
2
EL_VL_UNIT_NO1
70
2
10
0
20
0
30
0
3
EL_VL_UNIT_NO1
1

0
LINE
5
6F
100
AcDbEntity
8
TABLE
100
AcDbLine
6
Continuous
10
0.0000000000
20
0.0000000000
30
0.0000000000
11
5.0000000000
21
0.0000000000
31
0.0000000000
1001
DSTP_XDATA
1002
{
1000
_OWNERHANDLE=0000000064
1002
}
0
LINE
5
70
100
AcDbEntity
8
TABLE
100
AcDbLine
6
Continuous
10
10.0000000000
20
0.0000000000
30
0.0000000000
11
15.0000000000
21
0.0000000000
31
0.0000000000
1001
DSTP_XDATA
1002
{
1000
_OWNERHANDLE=0000000064
1002
}
0
LINE
5
71
100
AcDbEntity
8
TABLE
100
AcDbLine
6
Continuous
10
10.0000000000
20
2.5000000000
30
0.0000000000
11
5.0000000000
21
0.0000000000
31
0.0000000000
1001
DSTP_XDATA
1002
{
1000
_OWNERHANDLE=0000000064
1002
}
0
ENDBLK
5
72
100
AcDbEntity
8
0
100
AcDbBlockEnd
1001
DSTP_XDATA
1002
{
1002
}
0
BLOCK
5
73
100
AcDbEntity
8
0
100
AcDbBlockBegin
2
DEVICE_EL_VL_UNIT_NC1
70
2
10
0
20
0
30
0
3
DEVICE_EL_VL_UNIT_NC1
1

0
MTEXT
5
74
100
AcDbEntity
8
FORMAT
100
AcDbMText
6
ByLayer
10
7.5000000000
20
2.0000000000
30
0.0000000000
40
2.5000000000
41
15.0000000000
71
5
1
@@[NMO_Prefix]@@[NMO_BaseName]@@[NMO_Suffix]@@[NMO_Affix]@@[VL_Mark]
7
MtXpl_ISOCPEUR
11
1.0000000000
21
0.0000000000
31
0.0000000000
73
2
44
0.9000000000
1001
DSTP_XDATA
1002
{
1000
_TMPL1=
1000
_OWNERHANDLE=0000000064
1002
}
0
ENDBLK
5
75
100
AcDbEntity
8
0
100
AcDbBlockEnd
1001
DSTP_XDATA
1002
{
1002
}
0
BLOCK
5
76
100
AcDbEntity
8
0
100
AcDbBlockBegin
2
EL_VL_UNIT_NC1
70
2
10
0
20
0
30
0
3
EL_VL_UNIT_NC1
1

0
LINE
5
77
100
AcDbEntity
8
TABLE
100
AcDbLine
6
Continuous
10
10.7999999756
20
-2.8999999899
30
0.0000000000
11
4.9999999756
21
0.0000000101
31
0.0000000000
1001
DSTP_XDATA
1002
{
1000
_OWNERHANDLE=0000000064
1002
}
0
LINE
5
78
100
AcDbEntity
8
TABLE
100
AcDbLine
6
Continuous
10
9.9999999756
20
0.0000000101
30
0.0000000000
11
9.9999999756
21
-3.4999999899
31
0.0000000000
1001
DSTP_XDATA
1002
{
1000
_OWNERHANDLE=0000000064
1002
}
0
LINE
5
79
100
AcDbEntity
8
TABLE
100
AcDbLine
6
Continuous
10
-0.0000000244
20
0.0000000101
30
0.0000000000
11
4.9999999756
21
0.0000000101
31
0.0000000000
1001
DSTP_XDATA
1002
{
1000
_OWNERHANDLE=0000000064
1002
}
0
LINE
5
7A
100
AcDbEntity
8
TABLE
100
AcDbLine
6
Continuous
10
9.9999999756
20
0.0000000101
30
0.0000000000
11
14.9999999756
21
0.0000000101
31
0.0000000000
1001
DSTP_XDATA
1002
{
1000
_OWNERHANDLE=0000000064
1002
}
0
ENDBLK
5
7B
100
AcDbEntity
8
0
100
AcDbBlockEnd
1001
DSTP_XDATA
1002
{
1002
}
0
BLOCK
5
7C
100
AcDbEntity
8
0
100
AcDbBlockBegin
2
DEVICE_EL_VL_UNIT_HL1
70
2
10
0
20
0
30
0
3
DEVICE_EL_VL_UNIT_HL1
1

0
MTEXT
5
7D
100
AcDbEntity
8
FORMAT
100
AcDbMText
6
ByLayer
10
7.5000000000
20
6.0000000000
30
0.0000000000
40
2.5000000000
41
15.0000000000
71
5
1
@@[NMO_Prefix]@@[NMO_BaseName]@@[NMO_Suffix]@@[NMO_Affix]@@[VL_Mark]
7
MtXpl_ISOCPEUR
11
1.0000000000
21
0.0000000000
31
0.0000000000
73
2
44
0.9000000000
1001
DSTP_XDATA
1002
{
1000
_TMPL1=
1000
_OWNERHANDLE=0000000064
1002
}
0
ENDBLK
5
7E
100
AcDbEntity
8
0
100
AcDbBlockEnd
1001
DSTP_XDATA
1002
{
1002
}
0
BLOCK
5
7F
100
AcDbEntity
8
0
100
AcDbBlockBegin
2
EL_VL_UNIT_HL1
70
2
10
0
20
0
30
0
3
EL_VL_UNIT_HL1
1

0
CIRCLE
5
80
100
AcDbEntity
8
TABLE
100
AcDbCircle
6
Continuous
10
7.5000000000
20
0.0000000000
30
0.0000000000
40
3.5000000000
1001
DSTP_XDATA
1002
{
1000
_OWNERHANDLE=0000000064
1002
}
0
LINE
5
81
100
AcDbEntity
8
TABLE
100
AcDbLine
6
Continuous
10
9.9748737342
20
-2.4748737342
30
0.0000000000
11
5.0251262658
21
2.4748737342
31
0.0000000000
1001
DSTP_XDATA
1002
{
1000
_OWNERHANDLE=0000000064
1002
}
0
LINE
5
82
100
AcDbEntity
8
TABLE
100
AcDbLine
6
Continuous
10
5.0251262658
20
-2.4748737342
30
0.0000000000
11
9.9748737342
21
2.4748737342
31
0.0000000000
1001
DSTP_XDATA
1002
{
1000
_OWNERHANDLE=0000000064
1002
}
0
LINE
5
83
100
AcDbEntity
8
TABLE
100
AcDbLine
6
Continuous
10
0.0000000000
20
0.0000000000
30
0.0000000000
11
4.0000000000
21
0.0000000000
31
0.0000000000
1001
DSTP_XDATA
1002
{
1000
_OWNERHANDLE=0000000064
1002
}
0
LINE
5
84
100
AcDbEntity
8
TABLE
100
AcDbLine
6
Continuous
10
15.0000000000
20
0.0000000000
30
0.0000000000
11
11.0000000000
21
0.0000000000
31
0.0000000000
1001
DSTP_XDATA
1002
{
1000
_OWNERHANDLE=0000000064
1002
}
0
ENDBLK
5
85
100
AcDbEntity
8
0
100
AcDbBlockEnd
1001
DSTP_XDATA
1002
{
1002
}
0
BLOCK
5
86
100
AcDbEntity
8
0
100
AcDbBlockBegin
2
EL_VL_UNIT_SA1
70
2
10
0
20
0
30
0
3
EL_VL_UNIT_SA1
1

0
TEXT
5
87
100
AcDbEntity
8
FORMAT
100
AcDbText
6
ByLayer
11
10.0000000000
21
2.0000000000
31
0.0000000000
10
20.0000000000
20
4.0000000000
30
0.0000000000
40
2.0000000000
50
0.0000000000
41
1.0000000000
51
0.0000000000
72
1
7
MtXpl_ISOCPEUR
1
+45
100
AcDbText
73
0
1001
DSTP_XDATA
1002
{
1000
_TMPL1=
1000
_OWNERHANDLE=0000000064
1002
}
0
TEXT
5
88
100
AcDbEntity
8
FORMAT
100
AcDbText
6
ByLayer
11
5.0000000000
21
2.0000000000
31
0.0000000000
10
10.0000000000
20
4.0000000000
30
0.0000000000
40
2.0000000000
50
0.0000000000
41
1.0000000000
51
0.0000000000
72
1
7
MtXpl_ISOCPEUR
1
-45
100
AcDbText
73
0
1001
DSTP_XDATA
1002
{
1000
_TMPL1=
1000
_OWNERHANDLE=0000000064
1002
}
0
LINE
5
89
100
AcDbEntity
8
TABLE
100
AcDbLine
6
DASHED
10
6.2497420000
20
2.0000000000
30
0.0000000000
11
6.2497420000
21
-4.0000000000
31
0.0000000000
1001
DSTP_XDATA
1002
{
1000
_OWNERHANDLE=0000000064
1002
}
0
LINE
5
8A
100
AcDbEntity
8
TABLE
100
AcDbLine
6
DASHED
10
8.7502580000
20
1.9772960000
30
0.0000000000
11
8.7502580000
21
-4.0227040000
31
0.0000000000
1001
DSTP_XDATA
1002
{
1000
_OWNERHANDLE=0000000064
1002
}
0
LINE
5
8B
100
AcDbEntity
8
TABLE
100
AcDbLine
6
Continuous
10
15.0000000000
20
-2.0000000000
30
0.0000000000
11
8.7500000000
21
-2.0000000000
31
0.0000000000
1001
DSTP_XDATA
1002
{
1000
_OWNERHANDLE=0000000064
1002
}
0
LINE
5
8C
100
AcDbEntity
8
TABLE
100
AcDbLine
6
Continuous
10
0.0000000000
20
0.0000000000
30
0.0000000000
11
6.2500000000
21
0.0000000000
31
0.0000000000
1001
DSTP_XDATA
1002
{
1000
_OWNERHANDLE=0000000064
1002
}
0
ENDBLK
5
8D
100
AcDbEntity
8
0
100
AcDbBlockEnd
1001
DSTP_XDATA
1002
{
1002
}
0
BLOCK
5
8E
100
AcDbEntity
8
0
100
AcDbBlockBegin
2
DEVICE_EL_VL_UNIT_SA2
70
2
10
0
20
0
30
0
3
DEVICE_EL_VL_UNIT_SA2
1

0
MTEXT
5
8F
100
AcDbEntity
8
FORMAT
100
AcDbMText
6
ByLayer
10
7.5000000000
20
7.0000000000
30
0.0000000000
40
2.5000000000
41
15.0000000000
71
5
1
@@[NMO_Prefix]@@[NMO_BaseName]@@[NMO_Suffix]@@[NMO_Affix]@@[VL_Mark]
7
MtXpl_ISOCPEUR
11
1.0000000000
21
0.0000000000
31
0.0000000000
73
2
44
0.9000000000
1001
DSTP_XDATA
1002
{
1000
_TMPL1=
1000
_OWNERHANDLE=0000000064
1002
}
0
ENDBLK
5
90
100
AcDbEntity
8
0
100
AcDbBlockEnd
1001
DSTP_XDATA
1002
{
1002
}
0
BLOCK
5
91
100
AcDbEntity
8
0
100
AcDbBlockBegin
2
EL_VL_UNIT_SA2
70
2
10
0
20
0
30
0
3
EL_VL_UNIT_SA2
1

0
TEXT
5
92
100
AcDbEntity
8
FORMAT
100
AcDbText
6
ByLayer
11
7.5000000000
21
2.0000000000
31
0.0000000000
10
15.0000000000
20
4.0000000000
30
0.0000000000
40
2.0000000000
50
0.0000000000
41
1.0000000000
51
0.0000000000
72
1
7
MtXpl_ISOCPEUR
1
0
100
AcDbText
73
0
1001
DSTP_XDATA
1002
{
1000
_TMPL1=
1000
_OWNERHANDLE=0000000064
1002
}
0
TEXT
5
93
100
AcDbEntity
8
FORMAT
100
AcDbText
6
ByLayer
11
11.0000000000
21
2.0000000000
31
0.0000000000
10
22.0000000000
20
4.0000000000
30
0.0000000000
40
2.0000000000
50
0.0000000000
41
1.0000000000
51
0.0000000000
72
1
7
MtXpl_ISOCPEUR
1
+45
100
AcDbText
73
0
1001
DSTP_XDATA
1002
{
1000
_TMPL1=
1000
_OWNERHANDLE=0000000064
1002
}
0
TEXT
5
94
100
AcDbEntity
8
FORMAT
100
AcDbText
6
ByLayer
11
4.0000000000
21
2.0000000000
31
0.0000000000
10
8.0000000000
20
4.0000000000
30
0.0000000000
40
2.0000000000
50
0.0000000000
41
1.0000000000
51
0.0000000000
72
1
7
MtXpl_ISOCPEUR
1
-45
100
AcDbText
73
0
1001
DSTP_XDATA
1002
{
1000
_TMPL1=
1000
_OWNERHANDLE=0000000064
1002
}
0
LINE
5
95
100
AcDbEntity
8
TABLE
100
AcDbLine
6
DASHED
10
5.0000000000
20
2.0000000000
30
0.0000000000
11
5.0000000000
21
-4.0000000000
31
0.0000000000
1001
DSTP_XDATA
1002
{
1000
_OWNERHANDLE=0000000064
1002
}
0
LINE
5
96
100
AcDbEntity
8
TABLE
100
AcDbLine
6
DASHED
10
7.5000000000
20
2.0000000000
30
0.0000000000
11
7.5000000000
21
-4.0000000000
31
0.0000000000
1001
DSTP_XDATA
1002
{
1000
_OWNERHANDLE=0000000064
1002
}
0
LINE
5
97
100
AcDbEntity
8
TABLE
100
AcDbLine
6
DASHED
10
10.0000000000
20
2.0000000000
30
0.0000000000
11
10.0000000000
21
-4.0000000000
31
0.0000000000
1001
DSTP_XDATA
1002
{
1000
_OWNERHANDLE=0000000064
1002
}
0
LINE
5
98
100
AcDbEntity
8
TABLE
100
AcDbLine
6
Continuous
10
15.0000000000
20
-2.0000000000
30
0.0000000000
11
10.0000000000
21
-2.0000000000
31
0.0000000000
1001
DSTP_XDATA
1002
{
1000
_OWNERHANDLE=0000000064
1002
}
0
LINE
5
99
100
AcDbEntity
8
TABLE
100
AcDbLine
6
Continuous
10
0.0000000000
20
0.0000000000
30
0.0000000000
11
5.0000000000
21
0.0000000000
31
0.0000000000
1001
DSTP_XDATA
1002
{
1000
_OWNERHANDLE=0000000064
1002
}
0
ENDBLK
5
9A
100
AcDbEntity
8
0
100
AcDbBlockEnd
1001
DSTP_XDATA
1002
{
1002
}
0
BLOCK
5
9B
100
AcDbEntity
8
0
100
AcDbBlockBegin
2
DEVICE_EL_VL_UNIT_QF1
70
2
10
0
20
0
30
0
3
DEVICE_EL_VL_UNIT_QF1
1

0
MTEXT
5
9C
100
AcDbEntity
8
FORMAT
100
AcDbMText
6
ByLayer
10
7.5000000000
20
6.0000000000
30
0.0000000000
40
2.5000000000
41
15.0000000000
71
5
1
@@[NMO_Prefix]@@[NMO_BaseName]@@[NMO_Suffix]@@[NMO_Affix]@@[VL_Mark]
7
MtXpl_ISOCPEUR
11
1.0000000000
21
0.0000000000
31
0.0000000000
73
2
44
0.9000000000
1001
DSTP_XDATA
1002
{
1000
_TMPL1=
1000
_OWNERHANDLE=0000000064
1002
}
0
ENDBLK
5
9D
100
AcDbEntity
8
0
100
AcDbBlockEnd
1001
DSTP_XDATA
1002
{
1002
}
0
BLOCK
5
9E
100
AcDbEntity
8
0
100
AcDbBlockBegin
2
EL_VL_UNIT_QF1
70
2
10
0
20
0
30
0
3
EL_VL_UNIT_QF1
1

0
LINE
5
9F
100
AcDbEntity
8
TABLE
100
AcDbLine
6
Continuous
10
5.7000000000
20
0.7000000000
30
0.0000000000
11
5.0000000000
21
0.0000000000
31
0.0000000000
1001
DSTP_XDATA
1002
{
1000
_OWNERHANDLE=0000000064
1002
}
0
LINE
5
A0
100
AcDbEntity
8
TABLE
100
AcDbLine
6
Continuous
10
4.3000000000
20
0.7000000000
30
0.0000000000
11
5.0000000000
21
0.0000000000
31
0.0000000000
1001
DSTP_XDATA
1002
{
1000
_OWNERHANDLE=0000000064
1002
}
0
LINE
5
A1
100
AcDbEntity
8
TABLE
100
AcDbLine
6
Continuous
10
4.3000000000
20
-0.7000000000
30
0.0000000000
11
5.0000000000
21
0.0000000000
31
0.0000000000
1001
DSTP_XDATA
1002
{
1000
_OWNERHANDLE=0000000064
1002
}
0
LINE
5
A2
100
AcDbEntity
8
TABLE
100
AcDbLine
6
Continuous
10
5.7000000000
20
-0.7000000000
30
0.0000000000
11
5.0000000000
21
0.0000000000
31
0.0000000000
1001
DSTP_XDATA
1002
{
1000
_OWNERHANDLE=0000000064
1002
}
0
TEXT
5
A3
100
AcDbEntity
8
FORMAT
100
AcDbText
6
ByLayer
11
2.0000000000
21
1.0000000000
31
0.0000000000
10
0.9086802525
20
1.4547456652
30
0.0000000000
40
1.3642369956
50
0.0000000000
41
1.0000000000
51
0.0000000000
72
1
7
MtXpl_ISOCPEUR
1
I >
100
AcDbText
73
0
1001
DSTP_XDATA
1002
{
1000
_OWNERHANDLE=0000000064
1002
}
0
LINE
5
A4
100
AcDbEntity
8
TABLE
100
AcDbLine
6
Continuous
10
5.0000000000
20
0.0000000000
30
0.0000000000
11
0.0000000000
21
0.0000000000
31
0.0000000000
1001
DSTP_XDATA
1002
{
1000
_OWNERHANDLE=0000000064
1002
}
0
LINE
5
A5
100
AcDbEntity
8
TABLE
100
AcDbLine
6
Continuous
10
15.0000000000
20
0.0000000000
30
0.0000000000
11
10.0000000000
21
0.0000000000
31
0.0000000000
1001
DSTP_XDATA
1002
{
1000
_OWNERHANDLE=0000000064
1002
}
0
LINE
5
A6
100
AcDbEntity
8
TABLE
100
AcDbLine
6
Continuous
10
10.0000000000
20
0.0000000000
30
0.0000000000
11
5.0000000000
21
2.5000000000
31
0.0000000000
1001
DSTP_XDATA
1002
{
1000
_OWNERHANDLE=0000000064
1002
}
0
LINE
5
A7
100
AcDbEntity
8
TABLE
100
AcDbLine
6
Continuous
10
6.8439686364
20
1.5800311414
30
0.0000000000
11
7.2918610722
21
2.4741177092
31
0.0000000000
1001
DSTP_XDATA
1002
{
1000
_OWNERHANDLE=0000000064
1002
}
0
LINE
5
A8
100
AcDbEntity
8
TABLE
100
AcDbLine
6
Continuous
10
7.2918610722
20
2.4741177092
30
0.0000000000
11
8.6329924355
21
1.8022785920
31
0.0000000000
1001
DSTP_XDATA
1002
{
1000
_OWNERHANDLE=0000000064
1002
}
0
LINE
5
A9
100
AcDbEntity
8
TABLE
100
AcDbLine
6
Continuous
10
8.6329924355
20
1.8022785920
30
0.0000000000
11
8.1850990000
21
0.9081920000
31
0.0000000000
1001
DSTP_XDATA
1002
{
1000
_OWNERHANDLE=0000000064
1002
}
0
ENDBLK
5
AA
100
AcDbEntity
8
0
100
AcDbBlockEnd
1001
DSTP_XDATA
1002
{
1002
}
0
BLOCK
5
AB
100
AcDbEntity
8
0
100
AcDbBlockBegin
2
DEVICE_EL_VL_UNIT_QF2
70
2
10
0
20
0
30
0
3
DEVICE_EL_VL_UNIT_QF2
1

0
MTEXT
5
AC
100
AcDbEntity
8
FORMAT
100
AcDbMText
6
ByLayer
10
7.5000000000
20
6.0000000000
30
0.0000000000
40
2.5000000000
41
15.0000000000
71
5
1
@@[NMO_Prefix]@@[NMO_BaseName]@@[NMO_Suffix]@@[NMO_Affix]@@[VL_Mark]
7
MtXpl_ISOCPEUR
11
1.0000000000
21
0.0000000000
31
0.0000000000
73
2
44
0.9000000000
1001
DSTP_XDATA
1002
{
1000
_TMPL1=
1000
_OWNERHANDLE=0000000064
1002
}
0
ENDBLK
5
AD
100
AcDbEntity
8
0
100
AcDbBlockEnd
1001
DSTP_XDATA
1002
{
1002
}
0
BLOCK
5
AE
100
AcDbEntity
8
0
100
AcDbBlockBegin
2
EL_VL_UNIT_QF2
70
2
10
0
20
0
30
0
3
EL_VL_UNIT_QF2
1

0
LINE
5
AF
100
AcDbEntity
8
TABLE
100
AcDbLine
6
Continuous
10
5.7000000000
20
0.7000000000
30
0.0000000000
11
5.0000000000
21
0.0000000000
31
0.0000000000
1001
DSTP_XDATA
1002
{
1000
_OWNERHANDLE=0000000064
1002
}
0
LINE
5
B0
100
AcDbEntity
8
TABLE
100
AcDbLine
6
Continuous
10
4.3000000000
20
0.7000000000
30
0.0000000000
11
5.0000000000
21
0.0000000000
31
0.0000000000
1001
DSTP_XDATA
1002
{
1000
_OWNERHANDLE=0000000064
1002
}
0
LINE
5
B1
100
AcDbEntity
8
TABLE
100
AcDbLine
6
Continuous
10
4.3000000000
20
-0.7000000000
30
0.0000000000
11
5.0000000000
21
0.0000000000
31
0.0000000000
1001
DSTP_XDATA
1002
{
1000
_OWNERHANDLE=0000000064
1002
}
0
LINE
5
B2
100
AcDbEntity
8
TABLE
100
AcDbLine
6
Continuous
10
5.7000000000
20
-0.7000000000
30
0.0000000000
11
5.0000000000
21
0.0000000000
31
0.0000000000
1001
DSTP_XDATA
1002
{
1000
_OWNERHANDLE=0000000064
1002
}
0
LINE
5
B3
100
AcDbEntity
8
TABLE
100
AcDbLine
6
Continuous
10
5.6947080000
20
-3.2919580000
30
0.0000000000
11
5.0000000000
21
-4.0000000000
31
0.0000000000
1001
DSTP_XDATA
1002
{
1000
_OWNERHANDLE=0000000064
1002
}
0
LINE
5
B4
100
AcDbEntity
8
TABLE
100
AcDbLine
6
Continuous
10
4.2947080000
20
-3.2919580000
30
0.0000000000
11
5.0000000000
21
-4.0000000000
31
0.0000000000
1001
DSTP_XDATA
1002
{
1000
_OWNERHANDLE=0000000064
1002
}
0
LINE
5
B5
100
AcDbEntity
8
TABLE
100
AcDbLine
6
Continuous
10
4.2947080000
20
-4.6919580000
30
0.0000000000
11
5.0000000000
21
-4.0000000000
31
0.0000000000
1001
DSTP_XDATA
1002
{
1000
_OWNERHANDLE=0000000064
1002
}
0
LINE
5
B6
100
AcDbEntity
8
TABLE
100
AcDbLine
6
Continuous
10
5.6947080000
20
-4.6919580000
30
0.0000000000
11
5.0000000000
21
-4.0000000000
31
0.0000000000
1001
DSTP_XDATA
1002
{
1000
_OWNERHANDLE=0000000064
1002
}
0
LINE
5
B7
100
AcDbEntity
8
TABLE
100
AcDbLine
6
Continuous
10
5.7000000000
20
-7.2919580000
30
0.0000000000
11
5.0000000000
21
-8.0000000000
31
0.0000000000
1001
DSTP_XDATA
1002
{
1000
_OWNERHANDLE=0000000064
1002
}
0
LINE
5
B8
100
AcDbEntity
8
TABLE
100
AcDbLine
6
Continuous
10
4.3000000000
20
-7.2919580000
30
0.0000000000
11
5.0000000000
21
-8.0000000000
31
0.0000000000
1001
DSTP_XDATA
1002
{
1000
_OWNERHANDLE=0000000064
1002
}
0
LINE
5
B9
100
AcDbEntity
8
TABLE
100
AcDbLine
6
Continuous
10
4.3000000000
20
-8.6919580000
30
0.0000000000
11
5.0000000000
21
-8.0000000000
31
0.0000000000
1001
DSTP_XDATA
1002
{
1000
_OWNERHANDLE=0000000064
1002
}
0
LINE
5
BA
100
AcDbEntity
8
TABLE
100
AcDbLine
6
Continuous
10
5.7000000000
20
-8.6919580000
30
0.0000000000
11
5.0000000000
21
-8.0000000000
31
0.0000000000
1001
DSTP_XDATA
1002
{
1000
_OWNERHANDLE=0000000064
1002
}
0
TEXT
5
BB
100
AcDbEntity
8
FORMAT
100
AcDbText
6
ByLayer
11
2.0000000000
21
1.0000000000
31
0.0000000000
10
0.9086802525
20
1.4547456652
30
0.0000000000
40
1.3642369956
50
0.0000000000
41
1.0000000000
51
0.0000000000
72
1
7
MtXpl_ISOCPEUR
1
I >
100
AcDbText
73
0
1001
DSTP_XDATA
1002
{
1000
_OWNERHANDLE=0000000064
1002
}
0
LINE
5
BC
100
AcDbEntity
8
TABLE
100
AcDbLine
6
Continuous
10
7.0000000000
20
1.5128255000
30
0.0000000000
11
7.0000000000
21
-6.4791325000
31
0.0000000000
1001
DSTP_XDATA
1002
{
1000
_OWNERHANDLE=0000000064
1002
}
0
LINE
5
BD
100
AcDbEntity
8
TABLE
100
AcDbLine
6
Continuous
10
8.0000000000
20
1.0071115000
30
0.0000000000
11
8.0000000000
21
-6.9848465000
31
0.0000000000
1001
DSTP_XDATA
1002
{
1000
_OWNERHANDLE=0000000064
1002
}
0
LINE
5
BE
100
AcDbEntity
8
TABLE
100
AcDbLine
6
Continuous
10
5.0000000000
20
0.0000000000
30
0.0000000000
11
0.0000000000
21
0.0000000000
31
0.0000000000
1001
DSTP_XDATA
1002
{
1000
_OWNERHANDLE=0000000064
1002
}
0
LINE
5
BF
100
AcDbEntity
8
TABLE
100
AcDbLine
6
Continuous
10
5.0000000000
20
-4.0000000000
30
0.0000000000
11
0.0000000000
21
-4.0000000000
31
0.0000000000
1001
DSTP_XDATA
1002
{
1000
_OWNERHANDLE=0000000064
1002
}
0
LINE
5
C0
100
AcDbEntity
8
TABLE
100
AcDbLine
6
Continuous
10
5.0000000000
20
-8.0000000000
30
0.0000000000
11
0.0000000000
21
-8.0000000000
31
0.0000000000
1001
DSTP_XDATA
1002
{
1000
_OWNERHANDLE=0000000064
1002
}
0
LINE
5
C1
100
AcDbEntity
8
TABLE
100
AcDbLine
6
Continuous
10
15.0000000000
20
0.0000000000
30
0.0000000000
11
10.0000000000
21
0.0000000000
31
0.0000000000
1001
DSTP_XDATA
1002
{
1000
_OWNERHANDLE=0000000064
1002
}
0
LINE
5
C2
100
AcDbEntity
8
TABLE
100
AcDbLine
6
Continuous
10
15.0000000000
20
-4.0000000000
30
0.0000000000
11
10.0000000000
21
-4.0000000000
31
0.0000000000
1001
DSTP_XDATA
1002
{
1000
_OWNERHANDLE=0000000064
1002
}
0
LINE
5
C3
100
AcDbEntity
8
TABLE
100
AcDbLine
6
Continuous
10
15.0000000000
20
-8.0000000000
30
0.0000000000
11
10.0000000000
21
-8.0000000000
31
0.0000000000
1001
DSTP_XDATA
1002
{
1000
_OWNERHANDLE=0000000064
1002
}
0
LINE
5
C4
100
AcDbEntity
8
TABLE
100
AcDbLine
6
Continuous
10
10.0000000000
20
-4.0000000000
30
0.0000000000
11
5.0000000000
21
-1.5000000000
31
0.0000000000
1001
DSTP_XDATA
1002
{
1000
_OWNERHANDLE=0000000064
1002
}
0
LINE
5
C5
100
AcDbEntity
8
TABLE
100
AcDbLine
6
Continuous
10
10.0000000000
20
-7.9919580000
30
0.0000000000
11
5.0000000000
21
-5.4919580000
31
0.0000000000
1001
DSTP_XDATA
1002
{
1000
_OWNERHANDLE=0000000064
1002
}
0
LINE
5
C6
100
AcDbEntity
8
TABLE
100
AcDbLine
6
Continuous
10
10.0000000000
20
0.0000000000
30
0.0000000000
11
5.0000000000
21
2.5000000000
31
0.0000000000
1001
DSTP_XDATA
1002
{
1000
_OWNERHANDLE=0000000064
1002
}
0
LINE
5
C7
100
AcDbEntity
8
TABLE
100
AcDbLine
6
Continuous
10
6.8439282462
20
1.5819856968
30
0.0000000000
11
7.2932466956
21
2.4753564797
31
0.0000000000
1001
DSTP_XDATA
1002
{
1000
_OWNERHANDLE=0000000064
1002
}
0
LINE
5
C8
100
AcDbEntity
8
TABLE
100
AcDbLine
6
Continuous
10
7.2932466956
20
2.4753564797
30
0.0000000000
11
8.6333043809
21
1.8013783397
31
0.0000000000
1001
DSTP_XDATA
1002
{
1000
_OWNERHANDLE=0000000064
1002
}
0
LINE
5
C9
100
AcDbEntity
8
TABLE
100
AcDbLine
6
Continuous
10
8.6333043809
20
1.8013783397
30
0.0000000000
11
8.1839849317
21
0.9080075341
31
0.0000000000
1001
DSTP_XDATA
1002
{
1000
_OWNERHANDLE=0000000064
1002
}
0
ENDBLK
5
CA
100
AcDbEntity
8
0
100
AcDbBlockEnd
1001
DSTP_XDATA
1002
{
1002
}
0
BLOCK
5
CB
100
AcDbEntity
8
0
100
AcDbBlockBegin
2
DEVICE_EL_VL_UNIT_QS2
70
2
10
0
20
0
30
0
3
DEVICE_EL_VL_UNIT_QS2
1

0
MTEXT
5
CC
100
AcDbEntity
8
FORMAT
100
AcDbMText
6
ByLayer
10
7.5000000000
20
6.0000000000
30
0.0000000000
40
2.5000000000
41
15.0000000000
71
5
1
@@[NMO_Prefix]@@[NMO_BaseName]@@[NMO_Suffix]@@[NMO_Affix]@@[VL_Mark]
7
MtXpl_ISOCPEUR
11
1.0000000000
21
0.0000000000
31
0.0000000000
73
2
44
0.9000000000
1001
DSTP_XDATA
1002
{
1000
_TMPL1=
1000
_OWNERHANDLE=0000000064
1002
}
0
ENDBLK
5
CD
100
AcDbEntity
8
0
100
AcDbBlockEnd
1001
DSTP_XDATA
1002
{
1002
}
0
BLOCK
5
CE
100
AcDbEntity
8
0
100
AcDbBlockBegin
2
EL_VL_UNIT_QS2
70
2
10
0
20
0
30
0
3
EL_VL_UNIT_QS2
1

0
LINE
5
CF
100
AcDbEntity
8
TABLE
100
AcDbLine
6
Continuous
10
7.0000000000
20
1.5000000000
30
0.0000000000
11
7.0000000000
21
-6.5000000000
31
0.0000000000
1001
DSTP_XDATA
1002
{
1000
_OWNERHANDLE=0000000064
1002
}
0
LINE
5
D0
100
AcDbEntity
8
TABLE
100
AcDbLine
6
Continuous
10
8.0000000000
20
1.0000000000
30
0.0000000000
11
8.0000000000
21
-6.9000000000
31
0.0000000000
1001
DSTP_XDATA
1002
{
1000
_OWNERHANDLE=0000000064
1002
}
0
LINE
5
D1
100
AcDbEntity
8
TABLE
100
AcDbLine
6
Continuous
10
0.0000000000
20
0.0000000000
30
0.0000000000
11
5.0000000000
21
0.0000000000
31
0.0000000000
1001
DSTP_XDATA
1002
{
1000
_OWNERHANDLE=0000000064
1002
}
0
LINE
5
D2
100
AcDbEntity
8
TABLE
100
AcDbLine
6
Continuous
10
0.0000000000
20
-4.0000000000
30
0.0000000000
11
5.0000000000
21
-4.0000000000
31
0.0000000000
1001
DSTP_XDATA
1002
{
1000
_OWNERHANDLE=0000000064
1002
}
0
LINE
5
D3
100
AcDbEntity
8
TABLE
100
AcDbLine
6
Continuous
10
0.0000000000
20
-8.0000000000
30
0.0000000000
11
5.0000000000
21
-8.0000000000
31
0.0000000000
1001
DSTP_XDATA
1002
{
1000
_OWNERHANDLE=0000000064
1002
}
0
LINE
5
D4
100
AcDbEntity
8
TABLE
100
AcDbLine
6
Continuous
10
15.0000000000
20
0.0000000000
30
0.0000000000
11
10.0000000000
21
0.0000000000
31
0.0000000000
1001
DSTP_XDATA
1002
{
1000
_OWNERHANDLE=0000000064
1002
}
0
LINE
5
D5
100
AcDbEntity
8
TABLE
100
AcDbLine
6
Continuous
10
15.0000000000
20
-4.0000000000
30
0.0000000000
11
10.0000000000
21
-4.0000000000
31
0.0000000000
1001
DSTP_XDATA
1002
{
1000
_OWNERHANDLE=0000000064
1002
}
0
LINE
5
D6
100
AcDbEntity
8
TABLE
100
AcDbLine
6
Continuous
10
15.0000000000
20
-8.0000000000
30
0.0000000000
11
10.0000000000
21
-8.0000000000
31
0.0000000000
1001
DSTP_XDATA
1002
{
1000
_OWNERHANDLE=0000000064
1002
}
0
LINE
5
D7
100
AcDbEntity
8
TABLE
100
AcDbLine
6
Continuous
10
5.0000000000
20
2.5000000000
30
0.0000000000
11
10.0000000000
21
0.0000000000
31
0.0000000000
1001
DSTP_XDATA
1002
{
1000
_OWNERHANDLE=0000000064
1002
}
0
LINE
5
D8
100
AcDbEntity
8
TABLE
100
AcDbLine
6
Continuous
10
5.0000000000
20
-1.5000000000
30
0.0000000000
11
10.0000000000
21
-4.0000000000
31
0.0000000000
1001
DSTP_XDATA
1002
{
1000
_OWNERHANDLE=0000000064
1002
}
0
LINE
5
D9
100
AcDbEntity
8
TABLE
100
AcDbLine
6
Continuous
10
5.0000000000
20
-5.5000000000
30
0.0000000000
11
10.0000000000
21
-8.0000000000
31
0.0000000000
1001
DSTP_XDATA
1002
{
1000
_OWNERHANDLE=0000000064
1002
}
0
LINE
5
DA
100
AcDbEntity
8
TABLE
100
AcDbLine
6
Continuous
10
5.0000000000
20
-3.5000000000
30
0.0000000000
11
5.0000000000
21
-4.5000000000
31
0.0000000000
1001
DSTP_XDATA
1002
{
1000
_OWNERHANDLE=0000000064
1002
}
0
LINE
5
DB
100
AcDbEntity
8
TABLE
100
AcDbLine
6
Continuous
10
5.0000000000
20
-7.5000000000
30
0.0000000000
11
5.0000000000
21
-8.5000000000
31
0.0000000000
1001
DSTP_XDATA
1002
{
1000
_OWNERHANDLE=0000000064
1002
}
0
LINE
5
DC
100
AcDbEntity
8
TABLE
100
AcDbLine
6
Continuous
10
5.0000000000
20
0.5000000000
30
0.0000000000
11
5.0000000000
21
-0.5000000000
31
0.0000000000
1001
DSTP_XDATA
1002
{
1000
_OWNERHANDLE=0000000064
1002
}
0
ENDBLK
5
DD
100
AcDbEntity
8
0
100
AcDbBlockEnd
1001
DSTP_XDATA
1002
{
1002
}
0
BLOCK
5
DE
100
AcDbEntity
8
0
100
AcDbBlockBegin
2
DEVICE_EL_VL_UNIT_A1
70
2
10
0
20
0
30
0
3
DEVICE_EL_VL_UNIT_A1
1

0
MTEXT
5
DF
100
AcDbEntity
8
FORMAT
100
AcDbMText
6
ByLayer
10
13.7500000000
20
8.0000000000
30
0.0000000000
40
2.5000000000
41
27.5000000000
71
5
1
@@[NMO_Prefix]@@[NMO_BaseName]@@[NMO_Suffix]@@[NMO_Affix]@@[VL_Mark]
7
MtXpl_ISOCPEUR
11
1.0000000000
21
0.0000000000
31
0.0000000000
73
2
44
0.9000000000
1001
DSTP_XDATA
1002
{
1000
_TMPL1=
1000
_OWNERHANDLE=0000000064
1002
}
0
ENDBLK
5
E0
100
AcDbEntity
8
0
100
AcDbBlockEnd
1001
DSTP_XDATA
1002
{
1002
}
0
BLOCK
5
E1
100
AcDbEntity
8
0
100
AcDbBlockBegin
2
EL_VL_UNIT_A1
70
2
10
0
20
0
30
0
3
EL_VL_UNIT_A1
1

0
LINE
5
E2
100
AcDbEntity
8
TABLE
62
7
100
AcDbLine
6
Continuous
10
0.0000000000
20
2.0000000000
30
0.0000000000
11
0.0000000000
21
6.0000000000
31
0.0000000000
1001
DSTP_XDATA
1002
{
1000
_OWNERHANDLE=0000000064
1002
}
0
LINE
5
E3
100
AcDbEntity
8
TABLE
62
7
100
AcDbLine
6
Continuous
10
0.0000000000
20
6.0000000000
30
0.0000000000
11
30.0000000000
21
6.0000000000
31
0.0000000000
1001
DSTP_XDATA
1002
{
1000
_OWNERHANDLE=0000000064
1002
}
0
LINE
5
E4
100
AcDbEntity
8
TABLE
62
7
100
AcDbLine
6
Continuous
10
30.0000000000
20
6.0000000000
30
0.0000000000
11
30.0000000000
21
2.0000000000
31
0.0000000000
1001
DSTP_XDATA
1002
{
1000
_OWNERHANDLE=0000000064
1002
}
0
ENDBLK
5
E5
100
AcDbEntity
8
0
100
AcDbBlockEnd
1001
DSTP_XDATA
1002
{
1002
}
0
BLOCK
5
E6
100
AcDbEntity
8
0
100
AcDbBlockBegin
2
DEVICE_EL_VL_UNIT_X1
70
2
10
0
20
0
30
0
3
DEVICE_EL_VL_UNIT_X1
1

0
MTEXT
5
E7
100
AcDbEntity
8
FORMAT
100
AcDbMText
6
ByLayer
10
0.0000000000
20
0.0000000000
30
0.0000000000
40
2.5000000000
41
4.0000000000
71
5
1

7
MtXpl_ISOCPEUR
11
1.0000000000
21
0.0000000000
31
0.0000000000
73
2
44
0.9000000000
1001
DSTP_XDATA
1002
{
1000
_TMPL1=@@[VL_Klemnik]
1000
_OWNERHANDLE=0000000064
1002
}
0
MTEXT
5
E8
100
AcDbEntity
8
FORMAT
100
AcDbMText
6
ByLayer
10
7.5000000000
20
0.0000000000
30
0.0000000000
40
2.5000000000
41
11.0000000000
71
5
1

7
MtXpl_ISOCPEUR
11
1.0000000000
21
0.0000000000
31
0.0000000000
73
2
44
0.9000000000
1001
DSTP_XDATA
1002
{
1000
_TMPL1=@@[VL_Mark]
1000
_OWNERHANDLE=0000000064
1002
}
0
ENDBLK
5
E9
100
AcDbEntity
8
0
100
AcDbBlockEnd
1001
DSTP_XDATA
1002
{
1002
}
0
BLOCK
5
EA
100
AcDbEntity
8
0
100
AcDbBlockBegin
2
EL_VL_UNIT_X1
70
2
10
0
20
0
30
0
3
EL_VL_UNIT_X1
1

0
LINE
5
EB
100
AcDbEntity
8
TABLE
62
7
100
AcDbLine
6
Continuous
10
-2.0000000000
20
-2.0000000000
30
0.0000000000
11
13.0000000000
21
-2.0000000000
31
0.0000000000
1001
DSTP_XDATA
1002
{
1000
_OWNERHANDLE=0000000064
1002
}
0
LINE
5
EC
100
AcDbEntity
8
TABLE
62
7
100
AcDbLine
6
Continuous
10
2.0000000000
20
-2.0000000000
30
0.0000000000
11
2.0000000000
21
2.0000000000
31
0.0000000000
1001
DSTP_XDATA
1002
{
1000
_OWNERHANDLE=0000000064
1002
}
0
LINE
5
ED
100
AcDbEntity
8
TABLE
62
7
100
AcDbLine
6
Continuous
10
13.0000000000
20
2.0000000000
30
0.0000000000
11
-2.0000000000
21
2.0000000000
31
0.0000000000
1001
DSTP_XDATA
1002
{
1000
_OWNERHANDLE=0000000064
1002
}
0
LINE
5
EE
100
AcDbEntity
8
TABLE
62
7
100
AcDbLine
6
Continuous
10
-2.0000000000
20
2.0000000000
30
0.0000000000
11
-2.0000000000
21
-2.0000000000
31
0.0000000000
1001
DSTP_XDATA
1002
{
1000
_OWNERHANDLE=0000000064
1002
}
0
LINE
5
EF
100
AcDbEntity
8
TABLE
62
7
100
AcDbLine
6
Continuous
10
13.0000000000
20
-2.0000000000
30
0.0000000000
11
13.0000000000
21
2.0000000000
31
0.0000000000
1001
DSTP_XDATA
1002
{
1000
_OWNERHANDLE=0000000064
1002
}
0
ENDBLK
5
F0
100
AcDbEntity
8
0
100
AcDbBlockEnd
1001
DSTP_XDATA
1002
{
1002
}
0
BLOCK
5
F1
100
AcDbEntity
8
0
100
AcDbBlockBegin
2
DEVICE_EL_VL_UNIT_X2
70
2
10
0
20
0
30
0
3
DEVICE_EL_VL_UNIT_X2
1

0
MTEXT
5
F2
100
AcDbEntity
8
FORMAT
100
AcDbMText
6
ByLayer
10
0.0000000000
20
0.0000000000
30
0.0000000000
40
2.5000000000
41
4.0000000000
71
5
1

7
MtXpl_ISOCPEUR
11
1.0000000000
21
0.0000000000
31
0.0000000000
73
2
44
0.9000000000
1001
DSTP_XDATA
1002
{
1000
_TMPL1=@@[VL_Klemnik]
1000
_OWNERHANDLE=0000000064
1002
}
0
MTEXT
5
F3
100
AcDbEntity
8
FORMAT
100
AcDbMText
6
ByLayer
10
-7.5000000000
20
0.0000000000
30
0.0000000000
40
2.5000000000
41
11.0000000000
71
5
1

7
MtXpl_ISOCPEUR
11
1.0000000000
21
0.0000000000
31
0.0000000000
73
2
44
0.9000000000
1001
DSTP_XDATA
1002
{
1000
_TMPL1=@@[VL_Mark]
1000
_OWNERHANDLE=0000000064
1002
}
0
ENDBLK
5
F4
100
AcDbEntity
8
0
100
AcDbBlockEnd
1001
DSTP_XDATA
1002
{
1002
}
0
BLOCK
5
F5
100
AcDbEntity
8
0
100
AcDbBlockBegin
2
EL_VL_UNIT_X2
70
2
10
0
20
0
30
0
3
EL_VL_UNIT_X2
1

0
LINE
5
F6
100
AcDbEntity
8
TABLE
62
7
100
AcDbLine
6
Continuous
10
-13.0000000000
20
-2.0000000000
30
0.0000000000
11
2.0000000000
21
-2.0000000000
31
0.0000000000
1001
DSTP_XDATA
1002
{
1000
_OWNERHANDLE=0000000064
1002
}
0
LINE
5
F7
100
AcDbEntity
8
TABLE
62
7
100
AcDbLine
6
Continuous
10
2.0000000000
20
-2.0000000000
30
0.0000000000
11
2.0000000000
21
2.0000000000
31
0.0000000000
1001
DSTP_XDATA
1002
{
1000
_OWNERHANDLE=0000000064
1002
}
0
LINE
5
F8
100
AcDbEntity
8
TABLE
62
7
100
AcDbLine
6
Continuous
10
2.0000000000
20
2.0000000000
30
0.0000000000
11
-13.0000000000
21
2.0000000000
31
0.0000000000
1001
DSTP_XDATA
1002
{
1000
_OWNERHANDLE=0000000064
1002
}
0
LINE
5
F9
100
AcDbEntity
8
TABLE
62
7
100
AcDbLine
6
Continuous
10
-2.0000000000
20
2.0000000000
30
0.0000000000
11
-2.0000000000
21
-2.0000000000
31
0.0000000000
1001
DSTP_XDATA
1002
{
1000
_OWNERHANDLE=0000000064
1002
}
0
LINE
5
FA
100
AcDbEntity
8
TABLE
62
7
100
AcDbLine
6
Continuous
10
-13.0000000000
20
-2.0000000000
30
0.0000000000
11
-13.0000000000
21
2.0000000000
31
0.0000000000
1001
DSTP_XDATA
1002
{
1000
_OWNERHANDLE=0000000064
1002
}
0
ENDBLK
5
FB
100
AcDbEntity
8
0
100
AcDbBlockEnd
1001
DSTP_XDATA
1002
{
1002
}
0
BLOCK
5
FC
100
AcDbEntity
8
0
100
AcDbBlockBegin
2
DEVICE_EL_VL_UNIT_SA1
70
2
10
0
20
0
30
0
3
DEVICE_EL_VL_UNIT_SA1
1

0
MTEXT
5
FD
100
AcDbEntity
8
FORMAT
100
AcDbMText
6
ByLayer
10
7.5000000000
20
7.0000000000
30
0.0000000000
40
2.5000000000
41
15.0000000000
71
5
1
@@[NMO_Prefix]@@[NMO_BaseName]@@[NMO_Suffix]@@[NMO_Affix]@@[VL_Mark]
7
MtXpl_ISOCPEUR
11
1.0000000000
21
0.0000000000
31
0.0000000000
73
2
44
0.9000000000
1001
DSTP_XDATA
1002
{
1000
_TMPL1=
1000
_OWNERHANDLE=0000000064
1002
}
0
ENDBLK
5
FE
100
AcDbEntity
8
0
100
AcDbBlockEnd
1001
DSTP_XDATA
1002
{
1002
}
0
BLOCK
5
FF
100
AcDbEntity
8
0
100
AcDbBlockBegin
2
DEVICE_EL_VL_UNIT_RP1
70
2
10
0
20
0
30
0
3
DEVICE_EL_VL_UNIT_RP1
1

0
MTEXT
5
100
100
AcDbEntity
8
FORMAT
100
AcDbMText
6
ByLayer
10
7.5000000000
20
6.0000000000
30
0.0000000000
40
2.5000000000
41
15.0000000000
71
5
1
@@[NMO_Prefix]@@[NMO_BaseName]@@[NMO_Suffix]@@[NMO_Affix]@@[VL_Mark]
7
MtXpl_ISOCPEUR
11
1.0000000000
21
0.0000000000
31
0.0000000000
73
2
44
0.9000000000
1001
DSTP_XDATA
1002
{
1000
_TMPL1=
1000
_OWNERHANDLE=0000000064
1002
}
0
ENDBLK
5
101
100
AcDbEntity
8
0
100
AcDbBlockEnd
1001
DSTP_XDATA
1002
{
1002
}
0
BLOCK
5
102
100
AcDbEntity
8
0
100
AcDbBlockBegin
2
EL_VL_UNIT_RP1
70
2
10
0
20
0
30
0
3
EL_VL_UNIT_RP1
1

0
LINE
5
103
100
AcDbEntity
8
TABLE
100
AcDbLine
6
Continuous
10
0.0000000000
20
0.0000000000
30
0.0000000000
11
5.0000000000
21
0.0000000000
31
0.0000000000
1001
DSTP_XDATA
1002
{
1000
_OWNERHANDLE=0000000064
1002
}
0
LINE
5
104
100
AcDbEntity
8
TABLE
100
AcDbLine
6
Continuous
10
10.0000000000
20
0.0000000000
30
0.0000000000
11
15.0000000000
21
0.0000000000
31
0.0000000000
1001
DSTP_XDATA
1002
{
1000
_OWNERHANDLE=0000000064
1002
}
0
LINE
5
105
100
AcDbEntity
8
TABLE
100
AcDbLine
6
Continuous
10
5.0000000000
20
4.0000000000
30
0.0000000000
11
5.0000000000
21
-6.0000000000
31
0.0000000000
1001
DSTP_XDATA
1002
{
1000
_OWNERHANDLE=0000000064
1002
}
0
LINE
5
106
100
AcDbEntity
8
TABLE
100
AcDbLine
6
Continuous
10
10.0000000000
20
4.0000000000
30
0.0000000000
11
10.0000000000
21
-6.0000000000
31
0.0000000000
1001
DSTP_XDATA
1002
{
1000
_OWNERHANDLE=0000000064
1002
}
0
LINE
5
107
100
AcDbEntity
8
TABLE
100
AcDbLine
6
Continuous
10
5.0000000000
20
4.0000000000
30
0.0000000000
11
10.0000000000
21
4.0000000000
31
0.0000000000
1001
DSTP_XDATA
1002
{
1000
_OWNERHANDLE=0000000064
1002
}
0
LINE
5
108
100
AcDbEntity
8
TABLE
100
AcDbLine
6
Continuous
10
5.0000000000
20
-6.0000000000
30
0.0000000000
11
10.0000000000
21
-6.0000000000
31
0.0000000000
1001
DSTP_XDATA
1002
{
1000
_OWNERHANDLE=0000000064
1002
}
0
ENDBLK
5
109
100
AcDbEntity
8
0
100
AcDbBlockEnd
1001
DSTP_XDATA
1002
{
1002
}
0
BLOCK
5
10A
100
AcDbEntity
8
0
100
AcDbBlockBegin
2
UNIT_GRID1
70
2
10
0
20
0
30
0
3
UNIT_GRID1
1

0
LINE
5
10B
100
AcDbEntity
8
Defpoints
62
8
370
0
100
AcDbLine
6
Continuous
10
11.0000021269
20
-0.0000010748
30
0.0000000000
11
11.0000021269
21
-287.0000010748
31
0.0000000000
1001
DSTP_XDATA
1002
{
1000
_OWNERHANDLE=0000000064
1002
}
0
LINE
5
10C
100
AcDbEntity
8
Defpoints
62
8
370
0
100
AcDbLine
6
Continuous
10
37.0000021269
20
-0.0000010748
30
0.0000000000
11
37.0000021269
21
-287.0000010748
31
0.0000000000
1001
DSTP_XDATA
1002
{
1000
_OWNERHANDLE=0000000064
1002
}
0
LINE
5
10D
100
AcDbEntity
8
Defpoints
62
8
370
0
100
AcDbLine
6
Continuous
10
0.0000021269
20
-7.0000010748
30
0.0000000000
11
210.0000021269
21
-7.0000010748
31
0.0000000000
1001
DSTP_XDATA
1002
{
1000
_OWNERHANDLE=0000000064
1002
}
0
LINE
5
10E
100
AcDbEntity
8
Defpoints
62
8
370
0
100
AcDbLine
6
Continuous
10
45.0000021269
20
-0.0000010748
30
0.0000000000
11
45.0000021269
21
-287.0000010748
31
0.0000000000
1001
DSTP_XDATA
1002
{
1000
_OWNERHANDLE=0000000064
1002
}
0
LINE
5
10F
100
AcDbEntity
8
Defpoints
62
8
370
0
100
AcDbLine
6
Continuous
10
60.0000021269
20
-0.0000010748
30
0.0000000000
11
60.0000021269
21
-287.0000010748
31
0.0000000000
1001
DSTP_XDATA
1002
{
1000
_OWNERHANDLE=0000000064
1002
}
0
LINE
5
110
100
AcDbEntity
8
Defpoints
62
8
370
0
100
AcDbLine
6
Continuous
10
75.0000021269
20
-0.0000010748
30
0.0000000000
11
75.0000021269
21
-287.0000010748
31
0.0000000000
1001
DSTP_XDATA
1002
{
1000
_OWNERHANDLE=0000000064
1002
}
0
LINE
5
111
100
AcDbEntity
8
Defpoints
62
8
370
0
100
AcDbLine
6
Continuous
10
90.0000021269
20
-0.0000010748
30
0.0000000000
11
90.0000021269
21
-287.0000010748
31
0.0000000000
1001
DSTP_XDATA
1002
{
1000
_OWNERHANDLE=0000000064
1002
}
0
LINE
5
112
100
AcDbEntity
8
Defpoints
62
8
370
0
100
AcDbLine
6
Continuous
10
105.0000021269
20
-0.0000010748
30
0.0000000000
11
105.0000021269
21
-287.0000010748
31
0.0000000000
1001
DSTP_XDATA
1002
{
1000
_OWNERHANDLE=0000000064
1002
}
0
LINE
5
113
100
AcDbEntity
8
Defpoints
62
8
370
0
100
AcDbLine
6
Continuous
10
120.0000021269
20
-0.0000010748
30
0.0000000000
11
120.0000021269
21
-287.0000010748
31
0.0000000000
1001
DSTP_XDATA
1002
{
1000
_OWNERHANDLE=0000000064
1002
}
0
LINE
5
114
100
AcDbEntity
8
Defpoints
62
8
370
0
100
AcDbLine
6
Continuous
10
135.0000021269
20
-0.0000010748
30
0.0000000000
11
135.0000021269
21
-287.0000010748
31
0.0000000000
1001
DSTP_XDATA
1002
{
1000
_OWNERHANDLE=0000000064
1002
}
0
LINE
5
115
100
AcDbEntity
8
Defpoints
62
8
370
0
100
AcDbLine
6
Continuous
10
150.0000021269
20
-0.0000010748
30
0.0000000000
11
150.0000021269
21
-287.0000010748
31
0.0000000000
1001
DSTP_XDATA
1002
{
1000
_OWNERHANDLE=0000000064
1002
}
0
LINE
5
116
100
AcDbEntity
8
Defpoints
62
8
370
0
100
AcDbLine
6
Continuous
10
165.0000021269
20
-0.0000010748
30
0.0000000000
11
165.0000021269
21
-287.0000010748
31
0.0000000000
1001
DSTP_XDATA
1002
{
1000
_OWNERHANDLE=0000000064
1002
}
0
LINE
5
117
100
AcDbEntity
8
Defpoints
62
8
370
0
100
AcDbLine
6
Continuous
10
173.0000021269
20
-0.0000010748
30
0.0000000000
11
173.0000021269
21
-287.0000010748
31
0.0000000000
1001
DSTP_XDATA
1002
{
1000
_OWNERHANDLE=0000000064
1002
}
0
LINE
5
118
100
AcDbEntity
8
Defpoints
62
8
370
0
100
AcDbLine
6
Continuous
10
199.0000021269
20
-0.0000010748
30
0.0000000000
11
199.0000021269
21
-287.0000010748
31
0.0000000000
1001
DSTP_XDATA
1002
{
1000
_OWNERHANDLE=0000000064
1002
}
0
LINE
5
119
100
AcDbEntity
8
Defpoints
62
8
370
0
100
AcDbLine
6
Continuous
10
0.0000021269
20
-15.0000010748
30
0.0000000000
11
210.0000021269
21
-15.0000010748
31
0.0000000000
1001
DSTP_XDATA
1002
{
1000
_OWNERHANDLE=0000000064
1002
}
0
LINE
5
11A
100
AcDbEntity
8
Defpoints
62
8
370
0
100
AcDbLine
6
Continuous
10
0.0000021269
20
-23.0000010748
30
0.0000000000
11
210.0000021269
21
-23.0000010748
31
0.0000000000
1001
DSTP_XDATA
1002
{
1000
_OWNERHANDLE=0000000064
1002
}
0
LINE
5
11B
100
AcDbEntity
8
Defpoints
62
8
370
0
100
AcDbLine
6
Continuous
10
0.0000021269
20
-31.0000010748
30
0.0000000000
11
210.0000021269
21
-31.0000010748
31
0.0000000000
1001
DSTP_XDATA
1002
{
1000
_OWNERHANDLE=0000000064
1002
}
0
LINE
5
11C
100
AcDbEntity
8
Defpoints
62
8
370
0
100
AcDbLine
6
Continuous
10
0.0000021269
20
-39.0010010748
30
0.0000000000
11
210.0000021269
21
-39.0000010748
31
0.0000000000
1001
DSTP_XDATA
1002
{
1000
_OWNERHANDLE=0000000064
1002
}
0
LINE
5
11D
100
AcDbEntity
8
Defpoints
62
8
370
0
100
AcDbLine
6
Continuous
10
0.0000021269
20
-47.0000010748
30
0.0000000000
11
210.0000021269
21
-47.0000010748
31
0.0000000000
1001
DSTP_XDATA
1002
{
1000
_OWNERHANDLE=0000000064
1002
}
0
LINE
5
11E
100
AcDbEntity
8
Defpoints
62
8
370
0
100
AcDbLine
6
Continuous
10
0.0000021269
20
-55.0000010748
30
0.0000000000
11
210.0000021269
21
-55.0000010748
31
0.0000000000
1001
DSTP_XDATA
1002
{
1000
_OWNERHANDLE=0000000064
1002
}
0
LINE
5
11F
100
AcDbEntity
8
Defpoints
62
8
370
0
100
AcDbLine
6
Continuous
10
0.0000021269
20
-63.0000010748
30
0.0000000000
11
210.0000021269
21
-63.0000010748
31
0.0000000000
1001
DSTP_XDATA
1002
{
1000
_OWNERHANDLE=0000000064
1002
}
0
LINE
5
120
100
AcDbEntity
8
Defpoints
62
8
370
0
100
AcDbLine
6
Continuous
10
0.0000021269
20
-71.0000010748
30
0.0000000000
11
210.0000021269
21
-71.0000010748
31
0.0000000000
1001
DSTP_XDATA
1002
{
1000
_OWNERHANDLE=0000000064
1002
}
0
LINE
5
121
100
AcDbEntity
8
Defpoints
62
8
370
0
100
AcDbLine
6
Continuous
10
0.0000021269
20
-79.0000010748
30
0.0000000000
11
210.0000021269
21
-79.0000010748
31
0.0000000000
1001
DSTP_XDATA
1002
{
1000
_OWNERHANDLE=0000000064
1002
}
0
LINE
5
122
100
AcDbEntity
8
Defpoints
62
8
370
0
100
AcDbLine
6
Continuous
10
0.0000021269
20
-87.0000010748
30
0.0000000000
11
210.0000021269
21
-87.0000010748
31
0.0000000000
1001
DSTP_XDATA
1002
{
1000
_OWNERHANDLE=0000000064
1002
}
0
LINE
5
123
100
AcDbEntity
8
Defpoints
62
8
370
0
100
AcDbLine
6
Continuous
10
0.0000021269
20
-95.0000010748
30
0.0000000000
11
210.0000021269
21
-95.0000010748
31
0.0000000000
1001
DSTP_XDATA
1002
{
1000
_OWNERHANDLE=0000000064
1002
}
0
LINE
5
124
100
AcDbEntity
8
Defpoints
62
8
370
0
100
AcDbLine
6
Continuous
10
0.0000021269
20
-103.0000010748
30
0.0000000000
11
210.0000021269
21
-103.0000010748
31
0.0000000000
1001
DSTP_XDATA
1002
{
1000
_OWNERHANDLE=0000000064
1002
}
0
LINE
5
125
100
AcDbEntity
8
Defpoints
62
8
370
0
100
AcDbLine
6
Continuous
10
0.0000021269
20
-111.0000010748
30
0.0000000000
11
210.0000021269
21
-111.0000010748
31
0.0000000000
1001
DSTP_XDATA
1002
{
1000
_OWNERHANDLE=0000000064
1002
}
0
LINE
5
126
100
AcDbEntity
8
Defpoints
62
8
370
0
100
AcDbLine
6
Continuous
10
0.0000021269
20
-119.0000010748
30
0.0000000000
11
210.0000021269
21
-119.0000010748
31
0.0000000000
1001
DSTP_XDATA
1002
{
1000
_OWNERHANDLE=0000000064
1002
}
0
LINE
5
127
100
AcDbEntity
8
Defpoints
62
8
370
0
100
AcDbLine
6
Continuous
10
0.0000021269
20
-127.0000010748
30
0.0000000000
11
210.0000021269
21
-127.0000010748
31
0.0000000000
1001
DSTP_XDATA
1002
{
1000
_OWNERHANDLE=0000000064
1002
}
0
LINE
5
128
100
AcDbEntity
8
Defpoints
62
8
370
0
100
AcDbLine
6
Continuous
10
0.0000021269
20
-135.0000010748
30
0.0000000000
11
210.0000021269
21
-135.0000010748
31
0.0000000000
1001
DSTP_XDATA
1002
{
1000
_OWNERHANDLE=0000000064
1002
}
0
LINE
5
129
100
AcDbEntity
8
Defpoints
62
8
370
0
100
AcDbLine
6
Continuous
10
0.0000021269
20
-143.0000010748
30
0.0000000000
11
210.0000021269
21
-143.0000010748
31
0.0000000000
1001
DSTP_XDATA
1002
{
1000
_OWNERHANDLE=0000000064
1002
}
0
LINE
5
12A
100
AcDbEntity
8
Defpoints
62
8
370
0
100
AcDbLine
6
Continuous
10
0.0000021269
20
-151.0000010748
30
0.0000000000
11
210.0000021269
21
-151.0000010748
31
0.0000000000
1001
DSTP_XDATA
1002
{
1000
_OWNERHANDLE=0000000064
1002
}
0
LINE
5
12B
100
AcDbEntity
8
Defpoints
62
8
370
0
100
AcDbLine
6
Continuous
10
0.0000021269
20
-159.0000010748
30
0.0000000000
11
210.0000021269
21
-159.0000010748
31
0.0000000000
1001
DSTP_XDATA
1002
{
1000
_OWNERHANDLE=0000000064
1002
}
0
LINE
5
12C
100
AcDbEntity
8
Defpoints
62
8
370
0
100
AcDbLine
6
Continuous
10
0.0000021269
20
-167.0000010748
30
0.0000000000
11
210.0000021269
21
-167.0000010748
31
0.0000000000
1001
DSTP_XDATA
1002
{
1000
_OWNERHANDLE=0000000064
1002
}
0
LINE
5
12D
100
AcDbEntity
8
Defpoints
62
8
370
0
100
AcDbLine
6
Continuous
10
0.0000021269
20
-175.0000010748
30
0.0000000000
11
210.0000021269
21
-175.0000010748
31
0.0000000000
1001
DSTP_XDATA
1002
{
1000
_OWNERHANDLE=0000000064
1002
}
0
LINE
5
12E
100
AcDbEntity
8
Defpoints
62
8
370
0
100
AcDbLine
6
Continuous
10
0.0000021269
20
-183.0000010748
30
0.0000000000
11
210.0000021269
21
-183.0000010748
31
0.0000000000
1001
DSTP_XDATA
1002
{
1000
_OWNERHANDLE=0000000064
1002
}
0
LINE
5
12F
100
AcDbEntity
8
Defpoints
62
8
370
0
100
AcDbLine
6
Continuous
10
0.0000021269
20
-191.0000010748
30
0.0000000000
11
210.0000021269
21
-191.0000010748
31
0.0000000000
1001
DSTP_XDATA
1002
{
1000
_OWNERHANDLE=0000000064
1002
}
0
LINE
5
130
100
AcDbEntity
8
Defpoints
62
8
370
0
100
AcDbLine
6
Continuous
10
0.0000021269
20
-199.0000010748
30
0.0000000000
11
210.0000021269
21
-199.0000010748
31
0.0000000000
1001
DSTP_XDATA
1002
{
1000
_OWNERHANDLE=0000000064
1002
}
0
LINE
5
131
100
AcDbEntity
8
Defpoints
62
8
370
0
100
AcDbLine
6
Continuous
10
0.0000021269
20
-207.0000010748
30
0.0000000000
11
210.0000021269
21
-207.0000010748
31
0.0000000000
1001
DSTP_XDATA
1002
{
1000
_OWNERHANDLE=0000000064
1002
}
0
LINE
5
132
100
AcDbEntity
8
Defpoints
62
8
370
0
100
AcDbLine
6
Continuous
10
0.0000021269
20
-215.0000010748
30
0.0000000000
11
210.0000021269
21
-215.0000010748
31
0.0000000000
1001
DSTP_XDATA
1002
{
1000
_OWNERHANDLE=0000000064
1002
}
0
LINE
5
133
100
AcDbEntity
8
Defpoints
62
8
370
0
100
AcDbLine
6
Continuous
10
0.0000021269
20
-223.0000010748
30
0.0000000000
11
210.0000021269
21
-223.0000010748
31
0.0000000000
1001
DSTP_XDATA
1002
{
1000
_OWNERHANDLE=0000000064
1002
}
0
LINE
5
134
100
AcDbEntity
8
Defpoints
62
8
370
0
100
AcDbLine
6
Continuous
10
0.0000021269
20
-231.0000010748
30
0.0000000000
11
210.0000021269
21
-231.0000010748
31
0.0000000000
1001
DSTP_XDATA
1002
{
1000
_OWNERHANDLE=0000000064
1002
}
0
LINE
5
135
100
AcDbEntity
8
Defpoints
62
8
370
0
100
AcDbLine
6
Continuous
10
0.0000021269
20
-239.0000010748
30
0.0000000000
11
210.0000021269
21
-239.0000010748
31
0.0000000000
1001
DSTP_XDATA
1002
{
1000
_OWNERHANDLE=0000000064
1002
}
0
LINE
5
136
100
AcDbEntity
8
Defpoints
62
8
370
0
100
AcDbLine
6
Continuous
10
0.0000021269
20
-247.0000010748
30
0.0000000000
11
210.0000021269
21
-247.0000010748
31
0.0000000000
1001
DSTP_XDATA
1002
{
1000
_OWNERHANDLE=0000000064
1002
}
0
LINE
5
137
100
AcDbEntity
8
Defpoints
62
8
370
0
100
AcDbLine
6
Continuous
10
0.0000021269
20
-255.0000010748
30
0.0000000000
11
210.0000021269
21
-255.0000010748
31
0.0000000000
1001
DSTP_XDATA
1002
{
1000
_OWNERHANDLE=0000000064
1002
}
0
LINE
5
138
100
AcDbEntity
8
Defpoints
62
8
370
0
100
AcDbLine
6
Continuous
10
0.0000021269
20
-263.0000010748
30
0.0000000000
11
210.0000021269
21
-263.0000010748
31
0.0000000000
1001
DSTP_XDATA
1002
{
1000
_OWNERHANDLE=0000000064
1002
}
0
LINE
5
139
100
AcDbEntity
8
Defpoints
62
8
370
0
100
AcDbLine
6
Continuous
10
0.0000021269
20
-271.0000010748
30
0.0000000000
11
210.0000021269
21
-271.0000010748
31
0.0000000000
1001
DSTP_XDATA
1002
{
1000
_OWNERHANDLE=0000000064
1002
}
0
LINE
5
13A
100
AcDbEntity
8
Defpoints
62
8
370
0
100
AcDbLine
6
Continuous
10
0.0000021269
20
-279.0000010748
30
0.0000000000
11
210.0000021269
21
-279.0000010748
31
0.0000000000
1001
DSTP_XDATA
1002
{
1000
_OWNERHANDLE=0000000064
1002
}
0
ENDBLK
5
13B
100
AcDbEntity
8
0
100
AcDbBlockEnd
1001
DSTP_XDATA
1002
{
1002
}
0
BLOCK
5
13C
100
AcDbEntity
8
0
100
AcDbBlockBegin
2
DEVICE_EL_VL_UNIT_CH1
70
2
10
0
20
0
30
0
3
DEVICE_EL_VL_UNIT_CH1
1

0
MTEXT
5
13D
100
AcDbEntity
8
FORMAT
100
AcDbMText
6
ByLayer
10
13.0000000000
20
-4.0000000000
30
0.0000000000
40
2.5000000000
41
26.0000000000
71
5
1
@@[VL_Mark]
7
MtXpl_ISOCPEUR
11
1.0000000000
21
0.0000000000
31
0.0000000000
73
2
44
0.9000000000
1001
DSTP_XDATA
1002
{
1000
_TMPL1=
1000
_OWNERHANDLE=0000000064
1002
}
0
ENDBLK
5
13E
100
AcDbEntity
8
0
100
AcDbBlockEnd
1001
DSTP_XDATA
1002
{
1002
}
0
BLOCK
5
13F
100
AcDbEntity
8
0
100
AcDbBlockBegin
2
EL_VL_UNIT_CH1
70
2
10
0
20
0
30
0
3
EL_VL_UNIT_CH1
1

0
LINE
5
140
100
AcDbEntity
8
TABLE
100
AcDbLine
6
Continuous
10
0.0000000000
20
0.0000000000
30
0.0000000000
11
26.0000000000
21
0.0000000000
31
0.0000000000
1001
DSTP_XDATA
1002
{
1000
_OWNERHANDLE=0000000064
1002
}
0
LINE
5
141
100
AcDbEntity
8
TABLE
100
AcDbLine
6
Continuous
10
26.0000000000
20
-8.0000000000
30
0.0000000000
11
26.0000000000
21
0.0000000000
31
0.0000000000
1001
DSTP_XDATA
1002
{
1000
_OWNERHANDLE=0000000064
1002
}
0
LINE
5
142
100
AcDbEntity
8
TABLE
100
AcDbLine
6
Continuous
10
-0.0000000000
20
-8.0000000000
30
0.0000000000
11
0.0000000000
21
0.0000000000
31
0.0000000000
1001
DSTP_XDATA
1002
{
1000
_OWNERHANDLE=0000000064
1002
}
0
LINE
5
143
100
AcDbEntity
8
TABLE
100
AcDbLine
6
Continuous
10
-0.0000000000
20
-8.0000000000
30
0.0000000000
11
26.0000000000
21
-8.0000000000
31
0.0000000000
1001
DSTP_XDATA
1002
{
1000
_OWNERHANDLE=0000000064
1002
}
0
ENDBLK
5
144
100
AcDbEntity
8
0
100
AcDbBlockEnd
1001
DSTP_XDATA
1002
{
1002
}
0
BLOCK
5
145
100
AcDbEntity
8
0
100
AcDbBlockBegin
2
DEVICE_EL_VL_UNIT_CH2
70
2
10
0
20
0
30
0
3
DEVICE_EL_VL_UNIT_CH2
1

0
MTEXT
5
146
100
AcDbEntity
8
FORMAT
100
AcDbMText
6
ByLayer
10
13.0000000000
20
-8.0000000000
30
0.0000000000
40
2.5000000000
41
26.0000000000
71
5
1
@@[VL_Mark]
7
MtXpl_ISOCPEUR
11
1.0000000000
21
0.0000000000
31
0.0000000000
73
2
44
0.9000000000
1001
DSTP_XDATA
1002
{
1000
_TMPL1=
1000
_OWNERHANDLE=0000000064
1002
}
0
ENDBLK
5
147
100
AcDbEntity
8
0
100
AcDbBlockEnd
1001
DSTP_XDATA
1002
{
1002
}
0
BLOCK
5
148
100
AcDbEntity
8
0
100
AcDbBlockBegin
2
EL_VL_UNIT_CH2
70
2
10
0
20
0
30
0
3
EL_VL_UNIT_CH2
1

0
LINE
5
149
100
AcDbEntity
8
TABLE
100
AcDbLine
6
Continuous
10
0.0000000000
20
0.0000000000
30
0.0000000000
11
26.0000000000
21
0.0000000000
31
0.0000000000
1001
DSTP_XDATA
1002
{
1000
_OWNERHANDLE=0000000064
1002
}
0
LINE
5
14A
100
AcDbEntity
8
TABLE
100
AcDbLine
6
Continuous
10
26.0000000000
20
-16.0000000000
30
0.0000000000
11
26.0000000000
21
0.0000000000
31
0.0000000000
1001
DSTP_XDATA
1002
{
1000
_OWNERHANDLE=0000000064
1002
}
0
LINE
5
14B
100
AcDbEntity
8
TABLE
100
AcDbLine
6
Continuous
10
-0.0000000000
20
-16.0000000000
30
0.0000000000
11
0.0000000000
21
0.0000000000
31
0.0000000000
1001
DSTP_XDATA
1002
{
1000
_OWNERHANDLE=0000000064
1002
}
0
LINE
5
14C
100
AcDbEntity
8
TABLE
100
AcDbLine
6
Continuous
10
-0.0000000000
20
-16.0000000000
30
0.0000000000
11
26.0000000000
21
-16.0000000000
31
0.0000000000
1001
DSTP_XDATA
1002
{
1000
_OWNERHANDLE=0000000064
1002
}
0
ENDBLK
5
14D
100
AcDbEntity
8
0
100
AcDbBlockEnd
1001
DSTP_XDATA
1002
{
1002
}
0
BLOCK
5
14E
100
AcDbEntity
8
0
100
AcDbBlockBegin
2
DEVICE_EL_VL_UNIT_CH3
70
2
10
0
20
0
30
0
3
DEVICE_EL_VL_UNIT_CH3
1

0
MTEXT
5
14F
100
AcDbEntity
8
FORMAT
100
AcDbMText
6
ByLayer
10
13.0000000000
20
-12.0000000000
30
0.0000000000
40
2.5000000000
41
26.0000000000
71
5
1
@@[VL_Mark]
7
MtXpl_ISOCPEUR
11
1.0000000000
21
0.0000000000
31
0.0000000000
73
2
44
0.9000000000
1001
DSTP_XDATA
1002
{
1000
_TMPL1=
1000
_OWNERHANDLE=0000000064
1002
}
0
ENDBLK
5
150
100
AcDbEntity
8
0
100
AcDbBlockEnd
1001
DSTP_XDATA
1002
{
1002
}
0
BLOCK
5
151
100
AcDbEntity
8
0
100
AcDbBlockBegin
2
EL_VL_UNIT_CH3
70
2
10
0
20
0
30
0
3
EL_VL_UNIT_CH3
1

0
LINE
5
152
100
AcDbEntity
8
TABLE
100
AcDbLine
6
Continuous
10
0.0000000000
20
0.0000000000
30
0.0000000000
11
26.0000000000
21
0.0000000000
31
0.0000000000
1001
DSTP_XDATA
1002
{
1000
_OWNERHANDLE=0000000064
1002
}
0
LINE
5
153
100
AcDbEntity
8
TABLE
100
AcDbLine
6
Continuous
10
26.0000000000
20
-24.0000000000
30
0.0000000000
11
26.0000000000
21
0.0000000000
31
0.0000000000
1001
DSTP_XDATA
1002
{
1000
_OWNERHANDLE=0000000064
1002
}
0
LINE
5
154
100
AcDbEntity
8
TABLE
100
AcDbLine
6
Continuous
10
-0.0000000000
20
-24.0000000000
30
0.0000000000
11
0.0000000000
21
0.0000000000
31
0.0000000000
1001
DSTP_XDATA
1002
{
1000
_OWNERHANDLE=0000000064
1002
}
0
LINE
5
155
100
AcDbEntity
8
TABLE
100
AcDbLine
6
Continuous
10
-0.0000000000
20
-24.0000000000
30
0.0000000000
11
26.0000000000
21
-24.0000000000
31
0.0000000000
1001
DSTP_XDATA
1002
{
1000
_OWNERHANDLE=0000000064
1002
}
0
ENDBLK
5
156
100
AcDbEntity
8
0
100
AcDbBlockEnd
1001
DSTP_XDATA
1002
{
1002
}
0
BLOCK
5
157
100
AcDbEntity
8
0
100
AcDbBlockBegin
2
DEVICE_EL_VL_UNIT_XT1
70
2
10
0
20
0
30
0
3
DEVICE_EL_VL_UNIT_XT1
1

0
MTEXT
5
158
100
AcDbEntity
8
FORMAT
100
AcDbMText
6
ByLayer
10
1.0000000000
20
2.0000000000
30
0.0000000000
40
2.5000000000
41
0.0000000000
71
4
1

7
MtXpl_ISOCPEUR
11
1.0000000000
21
0.0000000000
31
0.0000000000
73
2
44
0.9000000000
1001
DSTP_XDATA
1002
{
1000
_TMPL1=@@[NMO_Prefix]@@[NMO_BaseName]@@[NMO_Suffix]@@[NMO_Affix]@@[VL_Mark]
1000
_OWNERHANDLE=0000000064
1002
}
0
ENDBLK
5
159
100
AcDbEntity
8
0
100
AcDbBlockEnd
1001
DSTP_XDATA
1002
{
1002
}
0
BLOCK
5
15A
100
AcDbEntity
8
0
100
AcDbBlockBegin
2
EL_VL_UNIT_XT1
70
2
10
0
20
0
30
0
3
EL_VL_UNIT_XT1
1

0
CIRCLE
5
15B
100
AcDbEntity
8
TABLE
100
AcDbCircle
6
ByLayer
10
0.0000000000
20
0.0000000000
30
0.0000000000
40
0.5000000000
1001
DSTP_XDATA
1002
{
1000
_OWNERHANDLE=0000000064
1002
}
0
ENDBLK
5
15C
100
AcDbEntity
8
0
100
AcDbBlockEnd
1001
DSTP_XDATA
1002
{
1002
}
0
BLOCK
5
15D
100
AcDbEntity
8
0
100
AcDbBlockBegin
2
UNIT_GRID2
70
2
10
0
20
0
30
0
3
UNIT_GRID2
1

0
LINE
5
15E
100
AcDbEntity
8
Defpoints
62
8
370
0
100
AcDbLine
6
ByLayer
10
5.0000000000
20
0.0003348214
30
0.0000000000
11
5.0000000000
21
287.0000000000
31
0.0000000000
1001
DSTP_XDATA
1002
{
1000
_OWNERHANDLE=0000000064
1002
}
0
LINE
5
15F
100
AcDbEntity
8
Defpoints
62
8
370
0
100
AcDbLine
6
ByLayer
10
10.0000000000
20
0.0003348214
30
0.0000000000
11
10.0000000000
21
287.0000000000
31
0.0000000000
1001
DSTP_XDATA
1002
{
1000
_OWNERHANDLE=0000000064
1002
}
0
LINE
5
160
100
AcDbEntity
8
Defpoints
62
8
370
0
100
AcDbLine
6
ByLayer
10
15.0000000000
20
0.0003348214
30
0.0000000000
11
15.0000000000
21
287.0000000000
31
0.0000000000
1001
DSTP_XDATA
1002
{
1000
_OWNERHANDLE=0000000064
1002
}
0
LINE
5
161
100
AcDbEntity
8
Defpoints
62
8
370
0
100
AcDbLine
6
ByLayer
10
20.0000000000
20
0.0003348214
30
0.0000000000
11
20.0000000000
21
287.0000000000
31
0.0000000000
1001
DSTP_XDATA
1002
{
1000
_OWNERHANDLE=0000000064
1002
}
0
LINE
5
162
100
AcDbEntity
8
Defpoints
62
9
370
0
100
AcDbLine
6
ByLayer
10
25.0000000000
20
0.0003348214
30
0.0000000000
11
25.0000000000
21
287.0000000000
31
0.0000000000
1001
DSTP_XDATA
1002
{
1000
_OWNERHANDLE=0000000064
1002
}
0
LINE
5
163
100
AcDbEntity
8
Defpoints
62
8
370
0
100
AcDbLine
6
ByLayer
10
30.0000000000
20
0.0003348214
30
0.0000000000
11
30.0000000000
21
287.0000000000
31
0.0000000000
1001
DSTP_XDATA
1002
{
1000
_OWNERHANDLE=0000000064
1002
}
0
LINE
5
164
100
AcDbEntity
8
Defpoints
62
8
370
0
100
AcDbLine
6
ByLayer
10
35.0000000000
20
0.0003348214
30
0.0000000000
11
35.0000000000
21
287.0000000000
31
0.0000000000
1001
DSTP_XDATA
1002
{
1000
_OWNERHANDLE=0000000064
1002
}
0
LINE
5
165
100
AcDbEntity
8
Defpoints
62
8
370
0
100
AcDbLine
6
ByLayer
10
40.0000000000
20
0.0003348214
30
0.0000000000
11
40.0000000000
21
287.0000000000
31
0.0000000000
1001
DSTP_XDATA
1002
{
1000
_OWNERHANDLE=0000000064
1002
}
0
LINE
5
166
100
AcDbEntity
8
Defpoints
62
8
370
0
100
AcDbLine
6
ByLayer
10
45.0000000000
20
0.0003348214
30
0.0000000000
11
45.0000000000
21
287.0000000000
31
0.0000000000
1001
DSTP_XDATA
1002
{
1000
_OWNERHANDLE=0000000064
1002
}
0
LINE
5
167
100
AcDbEntity
8
Defpoints
62
9
370
0
100
AcDbLine
6
ByLayer
10
50.0000000000
20
0.0003348214
30
0.0000000000
11
50.0000000000
21
287.0000000000
31
0.0000000000
1001
DSTP_XDATA
1002
{
1000
_OWNERHANDLE=0000000064
1002
}
0
LINE
5
168
100
AcDbEntity
8
Defpoints
62
8
370
0
100
AcDbLine
6
ByLayer
10
55.0000000000
20
0.0003348214
30
0.0000000000
11
55.0000000000
21
287.0000000000
31
0.0000000000
1001
DSTP_XDATA
1002
{
1000
_OWNERHANDLE=0000000064
1002
}
0
LINE
5
169
100
AcDbEntity
8
Defpoints
62
8
370
0
100
AcDbLine
6
ByLayer
10
60.0000000000
20
0.0003348214
30
0.0000000000
11
60.0000000000
21
287.0000000000
31
0.0000000000
1001
DSTP_XDATA
1002
{
1000
_OWNERHANDLE=0000000064
1002
}
0
LINE
5
16A
100
AcDbEntity
8
Defpoints
62
8
370
0
100
AcDbLine
6
ByLayer
10
65.0000000000
20
0.0003348214
30
0.0000000000
11
65.0000000000
21
287.0000000000
31
0.0000000000
1001
DSTP_XDATA
1002
{
1000
_OWNERHANDLE=0000000064
1002
}
0
LINE
5
16B
100
AcDbEntity
8
Defpoints
62
8
370
0
100
AcDbLine
6
ByLayer
10
70.0000000000
20
0.0003348214
30
0.0000000000
11
70.0000000000
21
287.0000000000
31
0.0000000000
1001
DSTP_XDATA
1002
{
1000
_OWNERHANDLE=0000000064
1002
}
0
LINE
5
16C
100
AcDbEntity
8
Defpoints
62
9
370
0
100
AcDbLine
6
ByLayer
10
75.0000000000
20
0.0003348214
30
0.0000000000
11
75.0000000000
21
287.0000000000
31
0.0000000000
1001
DSTP_XDATA
1002
{
1000
_OWNERHANDLE=0000000064
1002
}
0
LINE
5
16D
100
AcDbEntity
8
Defpoints
62
8
370
0
100
AcDbLine
6
ByLayer
10
80.0000000000
20
0.0003348214
30
0.0000000000
11
80.0000000000
21
287.0000000000
31
0.0000000000
1001
DSTP_XDATA
1002
{
1000
_OWNERHANDLE=0000000064
1002
}
0
LINE
5
16E
100
AcDbEntity
8
Defpoints
62
8
370
0
100
AcDbLine
6
ByLayer
10
85.0000000000
20
0.0003348214
30
0.0000000000
11
85.0000000000
21
287.0000000000
31
0.0000000000
1001
DSTP_XDATA
1002
{
1000
_OWNERHANDLE=0000000064
1002
}
0
LINE
5
16F
100
AcDbEntity
8
Defpoints
62
8
370
0
100
AcDbLine
6
ByLayer
10
90.0000000000
20
0.0003348214
30
0.0000000000
11
90.0000000000
21
287.0000000000
31
0.0000000000
1001
DSTP_XDATA
1002
{
1000
_OWNERHANDLE=0000000064
1002
}
0
LINE
5
170
100
AcDbEntity
8
Defpoints
62
8
370
0
100
AcDbLine
6
ByLayer
10
95.0000000000
20
0.0003348214
30
0.0000000000
11
95.0000000000
21
287.0000000000
31
0.0000000000
1001
DSTP_XDATA
1002
{
1000
_OWNERHANDLE=0000000064
1002
}
0
LINE
5
171
100
AcDbEntity
8
Defpoints
62
9
370
0
100
AcDbLine
6
ByLayer
10
100.0000000000
20
0.0003348214
30
0.0000000000
11
100.0000000000
21
287.0000000000
31
0.0000000000
1001
DSTP_XDATA
1002
{
1000
_OWNERHANDLE=0000000064
1002
}
0
LINE
5
172
100
AcDbEntity
8
Defpoints
62
8
370
0
100
AcDbLine
6
ByLayer
10
105.0000000000
20
0.0003348214
30
0.0000000000
11
105.0000000000
21
287.0000000000
31
0.0000000000
1001
DSTP_XDATA
1002
{
1000
_OWNERHANDLE=0000000064
1002
}
0
LINE
5
173
100
AcDbEntity
8
Defpoints
62
8
370
0
100
AcDbLine
6
ByLayer
10
110.0000000000
20
0.0003348214
30
0.0000000000
11
110.0000000000
21
287.0000000000
31
0.0000000000
1001
DSTP_XDATA
1002
{
1000
_OWNERHANDLE=0000000064
1002
}
0
LINE
5
174
100
AcDbEntity
8
Defpoints
62
8
370
0
100
AcDbLine
6
ByLayer
10
115.0000000000
20
0.0003348214
30
0.0000000000
11
115.0000000000
21
287.0000000000
31
0.0000000000
1001
DSTP_XDATA
1002
{
1000
_OWNERHANDLE=0000000064
1002
}
0
LINE
5
175
100
AcDbEntity
8
Defpoints
62
8
370
0
100
AcDbLine
6
ByLayer
10
120.0000000000
20
0.0003348214
30
0.0000000000
11
120.0000000000
21
287.0000000000
31
0.0000000000
1001
DSTP_XDATA
1002
{
1000
_OWNERHANDLE=0000000064
1002
}
0
LINE
5
176
100
AcDbEntity
8
Defpoints
62
9
370
0
100
AcDbLine
6
ByLayer
10
125.0000000000
20
0.0003348214
30
0.0000000000
11
125.0000000000
21
287.0000000000
31
0.0000000000
1001
DSTP_XDATA
1002
{
1000
_OWNERHANDLE=0000000064
1002
}
0
LINE
5
177
100
AcDbEntity
8
Defpoints
62
8
370
0
100
AcDbLine
6
ByLayer
10
130.0000000000
20
0.0003348214
30
0.0000000000
11
130.0000000000
21
287.0000000000
31
0.0000000000
1001
DSTP_XDATA
1002
{
1000
_OWNERHANDLE=0000000064
1002
}
0
LINE
5
178
100
AcDbEntity
8
Defpoints
62
8
370
0
100
AcDbLine
6
ByLayer
10
135.0000000000
20
0.0003348214
30
0.0000000000
11
135.0000000000
21
287.0000000000
31
0.0000000000
1001
DSTP_XDATA
1002
{
1000
_OWNERHANDLE=0000000064
1002
}
0
LINE
5
179
100
AcDbEntity
8
Defpoints
62
8
370
0
100
AcDbLine
6
ByLayer
10
140.0000000000
20
0.0003348214
30
0.0000000000
11
140.0000000000
21
287.0000000000
31
0.0000000000
1001
DSTP_XDATA
1002
{
1000
_OWNERHANDLE=0000000064
1002
}
0
LINE
5
17A
100
AcDbEntity
8
Defpoints
62
8
370
0
100
AcDbLine
6
ByLayer
10
145.0000000000
20
0.0003348214
30
0.0000000000
11
145.0000000000
21
287.0000000000
31
0.0000000000
1001
DSTP_XDATA
1002
{
1000
_OWNERHANDLE=0000000064
1002
}
0
LINE
5
17B
100
AcDbEntity
8
Defpoints
62
9
370
0
100
AcDbLine
6
ByLayer
10
150.0000000000
20
0.0003348214
30
0.0000000000
11
150.0000000000
21
287.0000000000
31
0.0000000000
1001
DSTP_XDATA
1002
{
1000
_OWNERHANDLE=0000000064
1002
}
0
LINE
5
17C
100
AcDbEntity
8
Defpoints
62
8
370
0
100
AcDbLine
6
ByLayer
10
155.0000000000
20
0.0003348214
30
0.0000000000
11
155.0000000000
21
287.0000000000
31
0.0000000000
1001
DSTP_XDATA
1002
{
1000
_OWNERHANDLE=0000000064
1002
}
0
LINE
5
17D
100
AcDbEntity
8
Defpoints
62
8
370
0
100
AcDbLine
6
ByLayer
10
160.0000000000
20
0.0003348214
30
0.0000000000
11
160.0000000000
21
287.0000000000
31
0.0000000000
1001
DSTP_XDATA
1002
{
1000
_OWNERHANDLE=0000000064
1002
}
0
LINE
5
17E
100
AcDbEntity
8
Defpoints
62
8
370
0
100
AcDbLine
6
ByLayer
10
165.0000000000
20
0.0003348214
30
0.0000000000
11
165.0000000000
21
287.0000000000
31
0.0000000000
1001
DSTP_XDATA
1002
{
1000
_OWNERHANDLE=0000000064
1002
}
0
LINE
5
17F
100
AcDbEntity
8
Defpoints
62
8
370
0
100
AcDbLine
6
ByLayer
10
170.0000000000
20
0.0003348214
30
0.0000000000
11
170.0000000000
21
287.0000000000
31
0.0000000000
1001
DSTP_XDATA
1002
{
1000
_OWNERHANDLE=0000000064
1002
}
0
LINE
5
180
100
AcDbEntity
8
Defpoints
62
9
370
0
100
AcDbLine
6
ByLayer
10
175.0000000000
20
0.0003348214
30
0.0000000000
11
175.0000000000
21
287.0000000000
31
0.0000000000
1001
DSTP_XDATA
1002
{
1000
_OWNERHANDLE=0000000064
1002
}
0
LINE
5
181
100
AcDbEntity
8
Defpoints
62
8
370
0
100
AcDbLine
6
ByLayer
10
180.0000000000
20
0.0003348214
30
0.0000000000
11
180.0000000000
21
287.0000000000
31
0.0000000000
1001
DSTP_XDATA
1002
{
1000
_OWNERHANDLE=0000000064
1002
}
0
LINE
5
182
100
AcDbEntity
8
Defpoints
62
8
370
0
100
AcDbLine
6
ByLayer
10
185.0000000000
20
0.0003348214
30
0.0000000000
11
185.0000000000
21
287.0000000000
31
0.0000000000
1001
DSTP_XDATA
1002
{
1000
_OWNERHANDLE=0000000064
1002
}
0
LINE
5
183
100
AcDbEntity
8
Defpoints
62
8
370
0
100
AcDbLine
6
ByLayer
10
190.0000000000
20
0.0003348214
30
0.0000000000
11
190.0000000000
21
287.0000000000
31
0.0000000000
1001
DSTP_XDATA
1002
{
1000
_OWNERHANDLE=0000000064
1002
}
0
LINE
5
184
100
AcDbEntity
8
Defpoints
62
8
370
0
100
AcDbLine
6
ByLayer
10
195.0000000000
20
0.0003348214
30
0.0000000000
11
195.0000000000
21
287.0000000000
31
0.0000000000
1001
DSTP_XDATA
1002
{
1000
_OWNERHANDLE=0000000064
1002
}
0
LINE
5
185
100
AcDbEntity
8
Defpoints
62
9
370
0
100
AcDbLine
6
ByLayer
10
200.0000000000
20
0.0003348214
30
0.0000000000
11
200.0000000000
21
287.0000000000
31
0.0000000000
1001
DSTP_XDATA
1002
{
1000
_OWNERHANDLE=0000000064
1002
}
0
LINE
5
186
100
AcDbEntity
8
Defpoints
62
8
370
0
100
AcDbLine
6
ByLayer
10
205.0000000000
20
0.0003348214
30
0.0000000000
11
205.0000000000
21
287.0000000000
31
0.0000000000
1001
DSTP_XDATA
1002
{
1000
_OWNERHANDLE=0000000064
1002
}
0
LINE
5
187
100
AcDbEntity
8
Defpoints
62
8
370
0
100
AcDbLine
6
ByLayer
10
210.0000000000
20
0.0003348214
30
0.0000000000
11
210.0000000000
21
287.0000000000
31
0.0000000000
1001
DSTP_XDATA
1002
{
1000
_OWNERHANDLE=0000000064
1002
}
0
LINE
5
188
100
AcDbEntity
8
Defpoints
62
8
370
0
100
AcDbLine
6
ByLayer
10
215.0000000000
20
0.0003348214
30
0.0000000000
11
215.0000000000
21
287.0000000000
31
0.0000000000
1001
DSTP_XDATA
1002
{
1000
_OWNERHANDLE=0000000064
1002
}
0
LINE
5
189
100
AcDbEntity
8
Defpoints
62
8
370
0
100
AcDbLine
6
ByLayer
10
220.0000000000
20
0.0003348214
30
0.0000000000
11
220.0000000000
21
287.0000000000
31
0.0000000000
1001
DSTP_XDATA
1002
{
1000
_OWNERHANDLE=0000000064
1002
}
0
LINE
5
18A
100
AcDbEntity
8
Defpoints
62
9
370
0
100
AcDbLine
6
ByLayer
10
225.0000000000
20
0.0003348214
30
0.0000000000
11
225.0000000000
21
287.0000000000
31
0.0000000000
1001
DSTP_XDATA
1002
{
1000
_OWNERHANDLE=0000000064
1002
}
0
LINE
5
18B
100
AcDbEntity
8
Defpoints
62
8
370
0
100
AcDbLine
6
ByLayer
10
230.0000000000
20
0.0003348214
30
0.0000000000
11
230.0000000000
21
287.0000000000
31
0.0000000000
1001
DSTP_XDATA
1002
{
1000
_OWNERHANDLE=0000000064
1002
}
0
LINE
5
18C
100
AcDbEntity
8
Defpoints
62
8
370
0
100
AcDbLine
6
ByLayer
10
235.0000000000
20
0.0003348214
30
0.0000000000
11
235.0000000000
21
287.0000000000
31
0.0000000000
1001
DSTP_XDATA
1002
{
1000
_OWNERHANDLE=0000000064
1002
}
0
LINE
5
18D
100
AcDbEntity
8
Defpoints
62
8
370
0
100
AcDbLine
6
ByLayer
10
240.0000000000
20
0.0003348214
30
0.0000000000
11
240.0000000000
21
287.0000000000
31
0.0000000000
1001
DSTP_XDATA
1002
{
1000
_OWNERHANDLE=0000000064
1002
}
0
LINE
5
18E
100
AcDbEntity
8
Defpoints
62
8
370
0
100
AcDbLine
6
ByLayer
10
245.0000000000
20
0.0003348214
30
0.0000000000
11
245.0000000000
21
287.0000000000
31
0.0000000000
1001
DSTP_XDATA
1002
{
1000
_OWNERHANDLE=0000000064
1002
}
0
LINE
5
18F
100
AcDbEntity
8
Defpoints
62
9
370
0
100
AcDbLine
6
ByLayer
10
250.0000000000
20
0.0003348214
30
0.0000000000
11
250.0000000000
21
287.0000000000
31
0.0000000000
1001
DSTP_XDATA
1002
{
1000
_OWNERHANDLE=0000000064
1002
}
0
LINE
5
190
100
AcDbEntity
8
Defpoints
62
8
370
0
100
AcDbLine
6
ByLayer
10
255.0000000000
20
0.0003348214
30
0.0000000000
11
255.0000000000
21
287.0000000000
31
0.0000000000
1001
DSTP_XDATA
1002
{
1000
_OWNERHANDLE=0000000064
1002
}
0
LINE
5
191
100
AcDbEntity
8
Defpoints
62
8
370
0
100
AcDbLine
6
ByLayer
10
260.0000000000
20
0.0003348214
30
0.0000000000
11
260.0000000000
21
287.0000000000
31
0.0000000000
1001
DSTP_XDATA
1002
{
1000
_OWNERHANDLE=0000000064
1002
}
0
LINE
5
192
100
AcDbEntity
8
Defpoints
62
8
370
0
100
AcDbLine
6
ByLayer
10
265.0000000000
20
0.0003348214
30
0.0000000000
11
265.0000000000
21
287.0000000000
31
0.0000000000
1001
DSTP_XDATA
1002
{
1000
_OWNERHANDLE=0000000064
1002
}
0
LINE
5
193
100
AcDbEntity
8
Defpoints
62
8
370
0
100
AcDbLine
6
ByLayer
10
270.0000000000
20
0.0003348214
30
0.0000000000
11
270.0000000000
21
287.0000000000
31
0.0000000000
1001
DSTP_XDATA
1002
{
1000
_OWNERHANDLE=0000000064
1002
}
0
LINE
5
194
100
AcDbEntity
8
Defpoints
62
9
370
0
100
AcDbLine
6
ByLayer
10
275.0000000000
20
0.0003348214
30
0.0000000000
11
275.0000000000
21
287.0000000000
31
0.0000000000
1001
DSTP_XDATA
1002
{
1000
_OWNERHANDLE=0000000064
1002
}
0
LINE
5
195
100
AcDbEntity
8
Defpoints
62
8
370
0
100
AcDbLine
6
ByLayer
10
280.0000000000
20
0.0003348214
30
0.0000000000
11
280.0000000000
21
287.0000000000
31
0.0000000000
1001
DSTP_XDATA
1002
{
1000
_OWNERHANDLE=0000000064
1002
}
0
LINE
5
196
100
AcDbEntity
8
Defpoints
62
8
370
0
100
AcDbLine
6
ByLayer
10
285.0000000000
20
0.0003348214
30
0.0000000000
11
285.0000000000
21
287.0000000000
31
0.0000000000
1001
DSTP_XDATA
1002
{
1000
_OWNERHANDLE=0000000064
1002
}
0
LINE
5
197
100
AcDbEntity
8
Defpoints
62
8
370
0
100
AcDbLine
6
ByLayer
10
290.0000000000
20
0.0003348214
30
0.0000000000
11
290.0000000000
21
287.0000000000
31
0.0000000000
1001
DSTP_XDATA
1002
{
1000
_OWNERHANDLE=0000000064
1002
}
0
LINE
5
198
100
AcDbEntity
8
Defpoints
62
8
370
0
100
AcDbLine
6
ByLayer
10
295.0000000000
20
0.0003348214
30
0.0000000000
11
295.0000000000
21
287.0000000000
31
0.0000000000
1001
DSTP_XDATA
1002
{
1000
_OWNERHANDLE=0000000064
1002
}
0
LINE
5
199
100
AcDbEntity
8
Defpoints
62
9
370
0
100
AcDbLine
6
ByLayer
10
300.0000000000
20
0.0003348214
30
0.0000000000
11
300.0000000000
21
287.0000000000
31
0.0000000000
1001
DSTP_XDATA
1002
{
1000
_OWNERHANDLE=0000000064
1002
}
0
LINE
5
19A
100
AcDbEntity
8
Defpoints
62
8
370
0
100
AcDbLine
6
ByLayer
10
305.0000000000
20
0.0003348214
30
0.0000000000
11
305.0000000000
21
287.0000000000
31
0.0000000000
1001
DSTP_XDATA
1002
{
1000
_OWNERHANDLE=0000000064
1002
}
0
LINE
5
19B
100
AcDbEntity
8
Defpoints
62
8
370
0
100
AcDbLine
6
ByLayer
10
310.0000000000
20
0.0003348214
30
0.0000000000
11
310.0000000000
21
287.0000000000
31
0.0000000000
1001
DSTP_XDATA
1002
{
1000
_OWNERHANDLE=0000000064
1002
}
0
LINE
5
19C
100
AcDbEntity
8
Defpoints
62
8
370
0
100
AcDbLine
6
ByLayer
10
315.0000000000
20
0.0003348214
30
0.0000000000
11
315.0000000000
21
287.0000000000
31
0.0000000000
1001
DSTP_XDATA
1002
{
1000
_OWNERHANDLE=0000000064
1002
}
0
LINE
5
19D
100
AcDbEntity
8
Defpoints
62
8
370
0
100
AcDbLine
6
ByLayer
10
320.0000000000
20
0.0003348214
30
0.0000000000
11
320.0000000000
21
287.0000000000
31
0.0000000000
1001
DSTP_XDATA
1002
{
1000
_OWNERHANDLE=0000000064
1002
}
0
LINE
5
19E
100
AcDbEntity
8
Defpoints
62
9
370
0
100
AcDbLine
6
ByLayer
10
325.0000000000
20
0.0003348214
30
0.0000000000
11
325.0000000000
21
287.0000000000
31
0.0000000000
1001
DSTP_XDATA
1002
{
1000
_OWNERHANDLE=0000000064
1002
}
0
LINE
5
19F
100
AcDbEntity
8
Defpoints
62
8
370
0
100
AcDbLine
6
ByLayer
10
330.0000000000
20
0.0003348214
30
0.0000000000
11
330.0000000000
21
287.0000000000
31
0.0000000000
1001
DSTP_XDATA
1002
{
1000
_OWNERHANDLE=0000000064
1002
}
0
LINE
5
1A0
100
AcDbEntity
8
Defpoints
62
8
370
0
100
AcDbLine
6
ByLayer
10
335.0000000000
20
0.0003348214
30
0.0000000000
11
335.0000000000
21
287.0000000000
31
0.0000000000
1001
DSTP_XDATA
1002
{
1000
_OWNERHANDLE=0000000064
1002
}
0
LINE
5
1A1
100
AcDbEntity
8
Defpoints
62
8
370
0
100
AcDbLine
6
ByLayer
10
340.0000000000
20
0.0003348214
30
0.0000000000
11
340.0000000000
21
287.0000000000
31
0.0000000000
1001
DSTP_XDATA
1002
{
1000
_OWNERHANDLE=0000000064
1002
}
0
LINE
5
1A2
100
AcDbEntity
8
Defpoints
62
8
370
0
100
AcDbLine
6
ByLayer
10
345.0000000000
20
0.0003348214
30
0.0000000000
11
345.0000000000
21
287.0000000000
31
0.0000000000
1001
DSTP_XDATA
1002
{
1000
_OWNERHANDLE=0000000064
1002
}
0
LINE
5
1A3
100
AcDbEntity
8
Defpoints
62
9
370
0
100
AcDbLine
6
ByLayer
10
350.0000000000
20
0.0003348214
30
0.0000000000
11
350.0000000000
21
287.0000000000
31
0.0000000000
1001
DSTP_XDATA
1002
{
1000
_OWNERHANDLE=0000000064
1002
}
0
LINE
5
1A4
100
AcDbEntity
8
Defpoints
62
8
370
0
100
AcDbLine
6
ByLayer
10
355.0000000000
20
0.0003348214
30
0.0000000000
11
355.0000000000
21
287.0000000000
31
0.0000000000
1001
DSTP_XDATA
1002
{
1000
_OWNERHANDLE=0000000064
1002
}
0
LINE
5
1A5
100
AcDbEntity
8
Defpoints
62
8
370
0
100
AcDbLine
6
ByLayer
10
360.0000000000
20
0.0003348214
30
0.0000000000
11
360.0000000000
21
287.0000000000
31
0.0000000000
1001
DSTP_XDATA
1002
{
1000
_OWNERHANDLE=0000000064
1002
}
0
LINE
5
1A6
100
AcDbEntity
8
Defpoints
62
8
370
0
100
AcDbLine
6
ByLayer
10
365.0000000000
20
0.0003348214
30
0.0000000000
11
365.0000000000
21
287.0000000000
31
0.0000000000
1001
DSTP_XDATA
1002
{
1000
_OWNERHANDLE=0000000064
1002
}
0
LINE
5
1A7
100
AcDbEntity
8
Defpoints
62
8
370
0
100
AcDbLine
6
ByLayer
10
370.0000000000
20
0.0003348214
30
0.0000000000
11
370.0000000000
21
287.0000000000
31
0.0000000000
1001
DSTP_XDATA
1002
{
1000
_OWNERHANDLE=0000000064
1002
}
0
LINE
5
1A8
100
AcDbEntity
8
Defpoints
62
9
370
0
100
AcDbLine
6
ByLayer
10
375.0000000000
20
0.0003348214
30
0.0000000000
11
375.0000000000
21
287.0000000000
31
0.0000000000
1001
DSTP_XDATA
1002
{
1000
_OWNERHANDLE=0000000064
1002
}
0
LINE
5
1A9
100
AcDbEntity
8
Defpoints
62
8
370
0
100
AcDbLine
6
ByLayer
10
380.0000000000
20
0.0003348214
30
0.0000000000
11
380.0000000000
21
287.0000000000
31
0.0000000000
1001
DSTP_XDATA
1002
{
1000
_OWNERHANDLE=0000000064
1002
}
0
LINE
5
1AA
100
AcDbEntity
8
Defpoints
62
8
370
0
100
AcDbLine
6
ByLayer
10
385.0000000000
20
0.0003348214
30
0.0000000000
11
385.0000000000
21
287.0000000000
31
0.0000000000
1001
DSTP_XDATA
1002
{
1000
_OWNERHANDLE=0000000064
1002
}
0
LINE
5
1AB
100
AcDbEntity
8
Defpoints
62
8
370
0
100
AcDbLine
6
ByLayer
10
390.0000000000
20
0.0003348214
30
0.0000000000
11
390.0000000000
21
287.0000000000
31
0.0000000000
1001
DSTP_XDATA
1002
{
1000
_OWNERHANDLE=0000000064
1002
}
0
LINE
5
1AC
100
AcDbEntity
8
Defpoints
62
8
370
0
100
AcDbLine
6
ByLayer
10
0.0000000000
20
5.0000000000
30
0.0000000000
11
395.0000000000
21
5.0000000000
31
0.0000000000
1001
DSTP_XDATA
1002
{
1000
_OWNERHANDLE=0000000064
1002
}
0
LINE
5
1AD
100
AcDbEntity
8
Defpoints
62
8
370
0
100
AcDbLine
6
ByLayer
10
0.0000000000
20
10.0000000000
30
0.0000000000
11
395.0000000000
21
10.0000000000
31
0.0000000000
1001
DSTP_XDATA
1002
{
1000
_OWNERHANDLE=0000000064
1002
}
0
LINE
5
1AE
100
AcDbEntity
8
Defpoints
62
8
370
0
100
AcDbLine
6
ByLayer
10
0.0000000000
20
15.0000000000
30
0.0000000000
11
395.0000000000
21
15.0000000000
31
0.0000000000
1001
DSTP_XDATA
1002
{
1000
_OWNERHANDLE=0000000064
1002
}
0
LINE
5
1AF
100
AcDbEntity
8
Defpoints
62
8
370
0
100
AcDbLine
6
ByLayer
10
0.0000000000
20
20.0000000000
30
0.0000000000
11
395.0000000000
21
20.0000000000
31
0.0000000000
1001
DSTP_XDATA
1002
{
1000
_OWNERHANDLE=0000000064
1002
}
0
LINE
5
1B0
100
AcDbEntity
8
Defpoints
62
9
370
0
100
AcDbLine
6
ByLayer
10
0.0000000000
20
25.0000000000
30
0.0000000000
11
395.0000000000
21
25.0000000000
31
0.0000000000
1001
DSTP_XDATA
1002
{
1000
_OWNERHANDLE=0000000064
1002
}
0
LINE
5
1B1
100
AcDbEntity
8
Defpoints
62
8
370
0
100
AcDbLine
6
ByLayer
10
0.0000000000
20
29.9996651786
30
0.0000000000
11
395.0000000000
21
29.9996651786
31
0.0000000000
1001
DSTP_XDATA
1002
{
1000
_OWNERHANDLE=0000000064
1002
}
0
LINE
5
1B2
100
AcDbEntity
8
Defpoints
62
8
370
0
100
AcDbLine
6
ByLayer
10
0.0000000000
20
34.9996651786
30
0.0000000000
11
395.0000000000
21
34.9996651786
31
0.0000000000
1001
DSTP_XDATA
1002
{
1000
_OWNERHANDLE=0000000064
1002
}
0
LINE
5
1B3
100
AcDbEntity
8
Defpoints
62
8
370
0
100
AcDbLine
6
ByLayer
10
0.0000000000
20
39.9996651786
30
0.0000000000
11
395.0000000000
21
39.9996651786
31
0.0000000000
1001
DSTP_XDATA
1002
{
1000
_OWNERHANDLE=0000000064
1002
}
0
LINE
5
1B4
100
AcDbEntity
8
Defpoints
62
8
370
0
100
AcDbLine
6
ByLayer
10
0.0000000000
20
44.9996651786
30
0.0000000000
11
395.0000000000
21
44.9996651786
31
0.0000000000
1001
DSTP_XDATA
1002
{
1000
_OWNERHANDLE=0000000064
1002
}
0
LINE
5
1B5
100
AcDbEntity
8
Defpoints
62
9
370
0
100
AcDbLine
6
ByLayer
10
0.0000000000
20
49.9996651786
30
0.0000000000
11
395.0000000000
21
49.9996651786
31
0.0000000000
1001
DSTP_XDATA
1002
{
1000
_OWNERHANDLE=0000000064
1002
}
0
LINE
5
1B6
100
AcDbEntity
8
Defpoints
62
8
370
0
100
AcDbLine
6
ByLayer
10
0.0000000000
20
54.9993303572
30
0.0000000000
11
395.0000000000
21
54.9993303571
31
0.0000000000
1001
DSTP_XDATA
1002
{
1000
_OWNERHANDLE=0000000064
1002
}
0
LINE
5
1B7
100
AcDbEntity
8
Defpoints
62
8
370
0
100
AcDbLine
6
ByLayer
10
0.0000000000
20
59.9993303572
30
0.0000000000
11
395.0000000000
21
59.9993303571
31
0.0000000000
1001
DSTP_XDATA
1002
{
1000
_OWNERHANDLE=0000000064
1002
}
0
LINE
5
1B8
100
AcDbEntity
8
Defpoints
62
8
370
0
100
AcDbLine
6
ByLayer
10
0.0000000000
20
64.9993303572
30
0.0000000000
11
395.0000000000
21
64.9993303571
31
0.0000000000
1001
DSTP_XDATA
1002
{
1000
_OWNERHANDLE=0000000064
1002
}
0
LINE
5
1B9
100
AcDbEntity
8
Defpoints
62
8
370
0
100
AcDbLine
6
ByLayer
10
0.0000000000
20
69.9993303572
30
0.0000000000
11
395.0000000000
21
69.9993303571
31
0.0000000000
1001
DSTP_XDATA
1002
{
1000
_OWNERHANDLE=0000000064
1002
}
0
LINE
5
1BA
100
AcDbEntity
8
Defpoints
62
9
370
0
100
AcDbLine
6
ByLayer
10
0.0000000000
20
74.9993303572
30
0.0000000000
11
395.0000000000
21
74.9993303571
31
0.0000000000
1001
DSTP_XDATA
1002
{
1000
_OWNERHANDLE=0000000064
1002
}
0
LINE
5
1BB
100
AcDbEntity
8
Defpoints
62
8
370
0
100
AcDbLine
6
ByLayer
10
0.0000000000
20
79.9989955357
30
0.0000000000
11
395.0000000000
21
79.9989955357
31
0.0000000000
1001
DSTP_XDATA
1002
{
1000
_OWNERHANDLE=0000000064
1002
}
0
LINE
5
1BC
100
AcDbEntity
8
Defpoints
62
8
370
0
100
AcDbLine
6
ByLayer
10
0.0000000000
20
84.9989955357
30
0.0000000000
11
395.0000000000
21
84.9989955357
31
0.0000000000
1001
DSTP_XDATA
1002
{
1000
_OWNERHANDLE=0000000064
1002
}
0
LINE
5
1BD
100
AcDbEntity
8
Defpoints
62
8
370
0
100
AcDbLine
6
ByLayer
10
0.0000000000
20
89.9989955357
30
0.0000000000
11
395.0000000000
21
89.9989955357
31
0.0000000000
1001
DSTP_XDATA
1002
{
1000
_OWNERHANDLE=0000000064
1002
}
0
LINE
5
1BE
100
AcDbEntity
8
Defpoints
62
8
370
0
100
AcDbLine
6
ByLayer
10
0.0000000000
20
94.9989955357
30
0.0000000000
11
395.0000000000
21
94.9989955357
31
0.0000000000
1001
DSTP_XDATA
1002
{
1000
_OWNERHANDLE=0000000064
1002
}
0
LINE
5
1BF
100
AcDbEntity
8
Defpoints
62
9
370
0
100
AcDbLine
6
ByLayer
10
0.0000000000
20
99.9989955357
30
0.0000000000
11
395.0000000000
21
99.9989955357
31
0.0000000000
1001
DSTP_XDATA
1002
{
1000
_OWNERHANDLE=0000000064
1002
}
0
LINE
5
1C0
100
AcDbEntity
8
Defpoints
62
8
370
0
100
AcDbLine
6
ByLayer
10
0.0000000000
20
104.9986607143
30
0.0000000000
11
395.0000000000
21
104.9986607143
31
0.0000000000
1001
DSTP_XDATA
1002
{
1000
_OWNERHANDLE=0000000064
1002
}
0
LINE
5
1C1
100
AcDbEntity
8
Defpoints
62
8
370
0
100
AcDbLine
6
ByLayer
10
0.0000000000
20
109.9986607143
30
0.0000000000
11
395.0000000000
21
109.9986607143
31
0.0000000000
1001
DSTP_XDATA
1002
{
1000
_OWNERHANDLE=0000000064
1002
}
0
LINE
5
1C2
100
AcDbEntity
8
Defpoints
62
8
370
0
100
AcDbLine
6
ByLayer
10
0.0000000000
20
114.9986607143
30
0.0000000000
11
395.0000000000
21
114.9986607143
31
0.0000000000
1001
DSTP_XDATA
1002
{
1000
_OWNERHANDLE=0000000064
1002
}
0
LINE
5
1C3
100
AcDbEntity
8
Defpoints
62
8
370
0
100
AcDbLine
6
ByLayer
10
0.0000000000
20
119.9986607143
30
0.0000000000
11
395.0000000000
21
119.9986607143
31
0.0000000000
1001
DSTP_XDATA
1002
{
1000
_OWNERHANDLE=0000000064
1002
}
0
LINE
5
1C4
100
AcDbEntity
8
Defpoints
62
9
370
0
100
AcDbLine
6
ByLayer
10
0.0000000000
20
124.9986607143
30
0.0000000000
11
395.0000000000
21
124.9986607143
31
0.0000000000
1001
DSTP_XDATA
1002
{
1000
_OWNERHANDLE=0000000064
1002
}
0
LINE
5
1C5
100
AcDbEntity
8
Defpoints
62
8
370
0
100
AcDbLine
6
ByLayer
10
0.0000000000
20
129.9983258929
30
0.0000000000
11
395.0000000000
21
129.9983258929
31
0.0000000000
1001
DSTP_XDATA
1002
{
1000
_OWNERHANDLE=0000000064
1002
}
0
LINE
5
1C6
100
AcDbEntity
8
Defpoints
62
8
370
0
100
AcDbLine
6
ByLayer
10
0.0000000000
20
134.9983258929
30
0.0000000000
11
395.0000000000
21
134.9983258929
31
0.0000000000
1001
DSTP_XDATA
1002
{
1000
_OWNERHANDLE=0000000064
1002
}
0
LINE
5
1C7
100
AcDbEntity
8
Defpoints
62
8
370
0
100
AcDbLine
6
ByLayer
10
0.0000000000
20
139.9983258929
30
0.0000000000
11
395.0000000000
21
139.9983258929
31
0.0000000000
1001
DSTP_XDATA
1002
{
1000
_OWNERHANDLE=0000000064
1002
}
0
LINE
5
1C8
100
AcDbEntity
8
Defpoints
62
8
370
0
100
AcDbLine
6
ByLayer
10
0.0000000000
20
144.9983258929
30
0.0000000000
11
395.0000000000
21
144.9983258929
31
0.0000000000
1001
DSTP_XDATA
1002
{
1000
_OWNERHANDLE=0000000064
1002
}
0
LINE
5
1C9
100
AcDbEntity
8
Defpoints
62
9
370
0
100
AcDbLine
6
ByLayer
10
0.0000000000
20
149.9983258929
30
0.0000000000
11
395.0000000000
21
149.9983258929
31
0.0000000000
1001
DSTP_XDATA
1002
{
1000
_OWNERHANDLE=0000000064
1002
}
0
LINE
5
1CA
100
AcDbEntity
8
Defpoints
62
8
370
0
100
AcDbLine
6
ByLayer
10
0.0000000000
20
154.9979910714
30
0.0000000000
11
395.0000000000
21
154.9979910714
31
0.0000000000
1001
DSTP_XDATA
1002
{
1000
_OWNERHANDLE=0000000064
1002
}
0
LINE
5
1CB
100
AcDbEntity
8
Defpoints
62
8
370
0
100
AcDbLine
6
ByLayer
10
0.0000000000
20
159.9979910714
30
0.0000000000
11
395.0000000000
21
159.9979910714
31
0.0000000000
1001
DSTP_XDATA
1002
{
1000
_OWNERHANDLE=0000000064
1002
}
0
LINE
5
1CC
100
AcDbEntity
8
Defpoints
62
8
370
0
100
AcDbLine
6
ByLayer
10
0.0000000000
20
164.9979910714
30
0.0000000000
11
395.0000000000
21
164.9979910714
31
0.0000000000
1001
DSTP_XDATA
1002
{
1000
_OWNERHANDLE=0000000064
1002
}
0
LINE
5
1CD
100
AcDbEntity
8
Defpoints
62
8
370
0
100
AcDbLine
6
ByLayer
10
0.0000000000
20
169.9979910714
30
0.0000000000
11
395.0000000000
21
169.9979910714
31
0.0000000000
1001
DSTP_XDATA
1002
{
1000
_OWNERHANDLE=0000000064
1002
}
0
LINE
5
1CE
100
AcDbEntity
8
Defpoints
62
9
370
0
100
AcDbLine
6
ByLayer
10
0.0000000000
20
174.9979910714
30
0.0000000000
11
395.0000000000
21
174.9979910714
31
0.0000000000
1001
DSTP_XDATA
1002
{
1000
_OWNERHANDLE=0000000064
1002
}
0
LINE
5
1CF
100
AcDbEntity
8
Defpoints
62
8
370
0
100
AcDbLine
6
ByLayer
10
0.0000000000
20
179.9976562500
30
0.0000000000
11
395.0000000000
21
179.9976562500
31
0.0000000000
1001
DSTP_XDATA
1002
{
1000
_OWNERHANDLE=0000000064
1002
}
0
LINE
5
1D0
100
AcDbEntity
8
Defpoints
62
8
370
0
100
AcDbLine
6
ByLayer
10
0.0000000000
20
184.9976562500
30
0.0000000000
11
395.0000000000
21
184.9976562500
31
0.0000000000
1001
DSTP_XDATA
1002
{
1000
_OWNERHANDLE=0000000064
1002
}
0
LINE
5
1D1
100
AcDbEntity
8
Defpoints
62
8
370
0
100
AcDbLine
6
ByLayer
10
0.0000000000
20
189.9976562500
30
0.0000000000
11
395.0000000000
21
189.9976562500
31
0.0000000000
1001
DSTP_XDATA
1002
{
1000
_OWNERHANDLE=0000000064
1002
}
0
LINE
5
1D2
100
AcDbEntity
8
Defpoints
62
8
370
0
100
AcDbLine
6
ByLayer
10
0.0000000000
20
194.9976562500
30
0.0000000000
11
395.0000000000
21
194.9976562500
31
0.0000000000
1001
DSTP_XDATA
1002
{
1000
_OWNERHANDLE=0000000064
1002
}
0
LINE
5
1D3
100
AcDbEntity
8
Defpoints
62
9
370
0
100
AcDbLine
6
ByLayer
10
0.0000000000
20
199.9976562500
30
0.0000000000
11
395.0000000000
21
199.9976562500
31
0.0000000000
1001
DSTP_XDATA
1002
{
1000
_OWNERHANDLE=0000000064
1002
}
0
LINE
5
1D4
100
AcDbEntity
8
Defpoints
62
8
370
0
100
AcDbLine
6
ByLayer
10
0.0000000000
20
204.9973214286
30
0.0000000000
11
395.0000000000
21
204.9973214286
31
0.0000000000
1001
DSTP_XDATA
1002
{
1000
_OWNERHANDLE=0000000064
1002
}
0
LINE
5
1D5
100
AcDbEntity
8
Defpoints
62
8
370
0
100
AcDbLine
6
ByLayer
10
0.0000000000
20
209.9973214286
30
0.0000000000
11
395.0000000000
21
209.9973214286
31
0.0000000000
1001
DSTP_XDATA
1002
{
1000
_OWNERHANDLE=0000000064
1002
}
0
LINE
5
1D6
100
AcDbEntity
8
Defpoints
62
8
370
0
100
AcDbLine
6
ByLayer
10
0.0000000000
20
214.9973214286
30
0.0000000000
11
395.0000000000
21
214.9973214286
31
0.0000000000
1001
DSTP_XDATA
1002
{
1000
_OWNERHANDLE=0000000064
1002
}
0
LINE
5
1D7
100
AcDbEntity
8
Defpoints
62
8
370
0
100
AcDbLine
6
ByLayer
10
0.0000000000
20
219.9973214286
30
0.0000000000
11
395.0000000000
21
219.9973214286
31
0.0000000000
1001
DSTP_XDATA
1002
{
1000
_OWNERHANDLE=0000000064
1002
}
0
LINE
5
1D8
100
AcDbEntity
8
Defpoints
62
9
370
0
100
AcDbLine
6
ByLayer
10
0.0000000000
20
224.9973214286
30
0.0000000000
11
395.0000000000
21
224.9973214286
31
0.0000000000
1001
DSTP_XDATA
1002
{
1000
_OWNERHANDLE=0000000064
1002
}
0
LINE
5
1D9
100
AcDbEntity
8
Defpoints
62
8
370
0
100
AcDbLine
6
ByLayer
10
0.0000000000
20
229.9969866072
30
0.0000000000
11
395.0000000000
21
229.9969866072
31
0.0000000000
1001
DSTP_XDATA
1002
{
1000
_OWNERHANDLE=0000000064
1002
}
0
LINE
5
1DA
100
AcDbEntity
8
Defpoints
62
8
370
0
100
AcDbLine
6
ByLayer
10
0.0000000000
20
234.9969866072
30
0.0000000000
11
395.0000000000
21
234.9969866072
31
0.0000000000
1001
DSTP_XDATA
1002
{
1000
_OWNERHANDLE=0000000064
1002
}
0
LINE
5
1DB
100
AcDbEntity
8
Defpoints
62
8
370
0
100
AcDbLine
6
ByLayer
10
0.0000000000
20
239.9969866072
30
0.0000000000
11
395.0000000000
21
239.9969866072
31
0.0000000000
1001
DSTP_XDATA
1002
{
1000
_OWNERHANDLE=0000000064
1002
}
0
LINE
5
1DC
100
AcDbEntity
8
Defpoints
62
8
370
0
100
AcDbLine
6
ByLayer
10
0.0000000000
20
244.9969866072
30
0.0000000000
11
395.0000000000
21
244.9969866072
31
0.0000000000
1001
DSTP_XDATA
1002
{
1000
_OWNERHANDLE=0000000064
1002
}
0
LINE
5
1DD
100
AcDbEntity
8
Defpoints
62
9
370
0
100
AcDbLine
6
ByLayer
10
0.0000000000
20
249.9969866072
30
0.0000000000
11
395.0000000000
21
249.9969866072
31
0.0000000000
1001
DSTP_XDATA
1002
{
1000
_OWNERHANDLE=0000000064
1002
}
0
LINE
5
1DE
100
AcDbEntity
8
Defpoints
62
8
370
0
100
AcDbLine
6
ByLayer
10
0.0000000000
20
254.9966517857
30
0.0000000000
11
395.0000000000
21
254.9966517857
31
0.0000000000
1001
DSTP_XDATA
1002
{
1000
_OWNERHANDLE=0000000064
1002
}
0
LINE
5
1DF
100
AcDbEntity
8
Defpoints
62
8
370
0
100
AcDbLine
6
ByLayer
10
0.0000000000
20
259.9966517857
30
0.0000000000
11
395.0000000000
21
259.9966517857
31
0.0000000000
1001
DSTP_XDATA
1002
{
1000
_OWNERHANDLE=0000000064
1002
}
0
LINE
5
1E0
100
AcDbEntity
8
Defpoints
62
8
370
0
100
AcDbLine
6
ByLayer
10
0.0000000000
20
264.9966517857
30
0.0000000000
11
395.0000000000
21
264.9966517857
31
0.0000000000
1001
DSTP_XDATA
1002
{
1000
_OWNERHANDLE=0000000064
1002
}
0
LINE
5
1E1
100
AcDbEntity
8
Defpoints
62
8
370
0
100
AcDbLine
6
ByLayer
10
0.0000000000
20
269.9966517857
30
0.0000000000
11
395.0000000000
21
269.9966517857
31
0.0000000000
1001
DSTP_XDATA
1002
{
1000
_OWNERHANDLE=0000000064
1002
}
0
LINE
5
1E2
100
AcDbEntity
8
Defpoints
62
9
370
0
100
AcDbLine
6
ByLayer
10
0.0000000000
20
274.9966517857
30
0.0000000000
11
395.0000000000
21
274.9966517857
31
0.0000000000
1001
DSTP_XDATA
1002
{
1000
_OWNERHANDLE=0000000064
1002
}
0
LINE
5
1E3
100
AcDbEntity
8
Defpoints
62
8
370
0
100
AcDbLine
6
ByLayer
10
0.0000000000
20
279.9963169643
30
0.0000000000
11
395.0000000000
21
279.9963169643
31
0.0000000000
1001
DSTP_XDATA
1002
{
1000
_OWNERHANDLE=0000000064
1002
}
0
LINE
5
1E4
100
AcDbEntity
8
Defpoints
62
8
370
0
100
AcDbLine
6
ByLayer
10
0.0000000000
20
284.9963169643
30
0.0000000000
11
395.0000000000
21
284.9963169643
31
0.0000000000
1001
DSTP_XDATA
1002
{
1000
_OWNERHANDLE=0000000064
1002
}
0
ENDBLK
5
1E5
100
AcDbEntity
8
0
100
AcDbBlockEnd
1001
DSTP_XDATA
1002
{
1002
}
0
BLOCK
5
1E6
100
AcDbEntity
8
0
100
AcDbBlockBegin
2
EL_VL_UNIT_A2
70
2
10
0
20
0
30
0
3
EL_VL_UNIT_A2
1

0
LINE
5
1E7
100
AcDbEntity
8
TABLE
62
7
100
AcDbLine
6
Continuous
10
0.0000000000
20
2.0000000000
30
0.0000000000
11
0.0000000000
21
6.0000000000
31
0.0000000000
1001
DSTP_XDATA
1002
{
1000
_OWNERHANDLE=0000000064
1002
}
0
LINE
5
1E8
100
AcDbEntity
8
TABLE
62
7
100
AcDbLine
6
Continuous
10
0.0000000000
20
6.0000000000
30
0.0000000000
11
15.0000000000
21
6.0000000000
31
0.0000000000
1001
DSTP_XDATA
1002
{
1000
_OWNERHANDLE=0000000064
1002
}
0
LINE
5
1E9
100
AcDbEntity
8
TABLE
62
7
100
AcDbLine
6
Continuous
10
15.0000000000
20
6.0000000000
30
0.0000000000
11
15.0000000000
21
2.0000000000
31
0.0000000000
1001
DSTP_XDATA
1002
{
1000
_OWNERHANDLE=0000000064
1002
}
0
ENDBLK
5
1EA
100
AcDbEntity
8
0
100
AcDbBlockEnd
1001
DSTP_XDATA
1002
{
1002
}
0
BLOCK
5
1EB
100
AcDbEntity
8
0
100
AcDbBlockBegin
2
DEVICE_EL_VL_UNIT_A2
70
2
10
0
20
0
30
0
3
DEVICE_EL_VL_UNIT_A2
1

0
MTEXT
5
1EC
100
AcDbEntity
8
FORMAT
100
AcDbMText
6
ByLayer
10
7.5000000000
20
8.0000000000
30
0.0000000000
40
2.5000000000
41
15.0000000000
71
5
1
@@[NMO_Prefix]@@[NMO_BaseName]@@[NMO_Suffix]@@[NMO_Affix]@@[VL_Mark]
7
MtXpl_ISOCPEUR
11
1.0000000000
21
0.0000000000
31
0.0000000000
73
2
44
0.9000000000
1001
DSTP_XDATA
1002
{
1000
_TMPL1=
1000
_OWNERHANDLE=0000000064
1002
}
0
ENDBLK
5
1ED
100
AcDbEntity
8
0
100
AcDbBlockEnd
1001
DSTP_XDATA
1002
{
1002
}
0
BLOCK
5
1EE
100
AcDbEntity
8
0
100
AcDbBlockBegin
2
DEVICE_EL_VL_UNIT_QF4
70
2
10
0
20
0
30
0
3
DEVICE_EL_VL_UNIT_QF4
1

0
MTEXT
5
1EF
100
AcDbEntity
8
FORMAT
100
AcDbMText
6
ByLayer
10
-5.0000000000
20
-7.5000000000
30
0.0000000000
40
2.5000000000
41
15.0000000000
71
5
1
@@[NMO_Prefix]@@[NMO_BaseName]@@[NMO_Suffix]@@[NMO_Affix]@@[VL_Mark]
7
MtXpl_ISOCPEUR
11
0.0000000000
21
1.0000000000
31
0.0000000000
73
2
44
0.9000000000
1001
DSTP_XDATA
1002
{
1000
_TMPL1=
1000
_OWNERHANDLE=0000000064
1002
}
0
ENDBLK
5
1F0
100
AcDbEntity
8
0
100
AcDbBlockEnd
1001
DSTP_XDATA
1002
{
1002
}
0
BLOCK
5
1F1
100
AcDbEntity
8
0
100
AcDbBlockBegin
2
EL_VL_UNIT_QF4
70
2
10
0
20
0
30
0
3
EL_VL_UNIT_QF4
1

0
LINE
5
1F2
100
AcDbEntity
8
TABLE
100
AcDbLine
6
Continuous
10
-0.7000000000
20
-5.7000000000
30
0.0000000000
11
0.0000000000
21
-5.0000000000
31
0.0000000000
1001
DSTP_XDATA
1002
{
1000
_OWNERHANDLE=0000000064
1002
}
0
LINE
5
1F3
100
AcDbEntity
8
TABLE
100
AcDbLine
6
Continuous
10
-0.7000000000
20
-4.3000000000
30
0.0000000000
11
0.0000000000
21
-5.0000000000
31
0.0000000000
1001
DSTP_XDATA
1002
{
1000
_OWNERHANDLE=0000000064
1002
}
0
LINE
5
1F4
100
AcDbEntity
8
TABLE
100
AcDbLine
6
Continuous
10
0.7000000000
20
-4.3000000000
30
0.0000000000
11
0.0000000000
21
-5.0000000000
31
0.0000000000
1001
DSTP_XDATA
1002
{
1000
_OWNERHANDLE=0000000064
1002
}
0
LINE
5
1F5
100
AcDbEntity
8
TABLE
100
AcDbLine
6
Continuous
10
0.7000000000
20
-5.7000000000
30
0.0000000000
11
0.0000000000
21
-5.0000000000
31
0.0000000000
1001
DSTP_XDATA
1002
{
1000
_OWNERHANDLE=0000000064
1002
}
0
LINE
5
1F6
100
AcDbEntity
8
TABLE
100
AcDbLine
6
Continuous
10
3.2919580000
20
-5.6947080000
30
0.0000000000
11
4.0000000000
21
-5.0000000000
31
0.0000000000
1001
DSTP_XDATA
1002
{
1000
_OWNERHANDLE=0000000064
1002
}
0
LINE
5
1F7
100
AcDbEntity
8
TABLE
100
AcDbLine
6
Continuous
10
3.2919580000
20
-4.2947080000
30
0.0000000000
11
4.0000000000
21
-5.0000000000
31
0.0000000000
1001
DSTP_XDATA
1002
{
1000
_OWNERHANDLE=0000000064
1002
}
0
LINE
5
1F8
100
AcDbEntity
8
TABLE
100
AcDbLine
6
Continuous
10
4.6919580000
20
-4.2947080000
30
0.0000000000
11
4.0000000000
21
-5.0000000000
31
0.0000000000
1001
DSTP_XDATA
1002
{
1000
_OWNERHANDLE=0000000064
1002
}
0
LINE
5
1F9
100
AcDbEntity
8
TABLE
100
AcDbLine
6
Continuous
10
4.6919580000
20
-5.6947080000
30
0.0000000000
11
4.0000000000
21
-5.0000000000
31
0.0000000000
1001
DSTP_XDATA
1002
{
1000
_OWNERHANDLE=0000000064
1002
}
0
LINE
5
1FA
100
AcDbEntity
8
TABLE
100
AcDbLine
6
Continuous
10
7.2919580000
20
-5.7000000000
30
0.0000000000
11
8.0000000000
21
-5.0000000000
31
0.0000000000
1001
DSTP_XDATA
1002
{
1000
_OWNERHANDLE=0000000064
1002
}
0
LINE
5
1FB
100
AcDbEntity
8
TABLE
100
AcDbLine
6
Continuous
10
7.2919580000
20
-4.3000000000
30
0.0000000000
11
8.0000000000
21
-5.0000000000
31
0.0000000000
1001
DSTP_XDATA
1002
{
1000
_OWNERHANDLE=0000000064
1002
}
0
LINE
5
1FC
100
AcDbEntity
8
TABLE
100
AcDbLine
6
Continuous
10
8.6919580000
20
-4.3000000000
30
0.0000000000
11
8.0000000000
21
-5.0000000000
31
0.0000000000
1001
DSTP_XDATA
1002
{
1000
_OWNERHANDLE=0000000064
1002
}
0
LINE
5
1FD
100
AcDbEntity
8
TABLE
100
AcDbLine
6
Continuous
10
8.6919580000
20
-5.7000000000
30
0.0000000000
11
8.0000000000
21
-5.0000000000
31
0.0000000000
1001
DSTP_XDATA
1002
{
1000
_OWNERHANDLE=0000000064
1002
}
0
TEXT
5
1FE
100
AcDbEntity
8
FORMAT
100
AcDbText
6
ByLayer
11
-1.0000000000
21
-2.0000000000
31
0.0000000000
10
-2.0000000000
20
-4.0000000000
30
0.0000000000
40
1.3642369956
50
90.0000000000
41
1.0000000000
51
0.0000000000
72
1
7
MtXpl_ISOCPEUR
1
I >
100
AcDbText
73
0
1001
DSTP_XDATA
1002
{
1000
_TMPL1=
1000
_OWNERHANDLE=0000000064
1002
}
0
LINE
5
1FF
100
AcDbEntity
8
TABLE
100
AcDbLine
6
Continuous
10
-1.5128255000
20
-7.0000000000
30
0.0000000000
11
6.4791325000
21
-7.0000000000
31
0.0000000000
1001
DSTP_XDATA
1002
{
1000
_OWNERHANDLE=0000000064
1002
}
0
LINE
5
200
100
AcDbEntity
8
TABLE
100
AcDbLine
6
Continuous
10
-1.0071115000
20
-8.0000000000
30
0.0000000000
11
6.9848465000
21
-8.0000000000
31
0.0000000000
1001
DSTP_XDATA
1002
{
1000
_OWNERHANDLE=0000000064
1002
}
0
LINE
5
201
100
AcDbEntity
8
TABLE
100
AcDbLine
6
Continuous
10
0.0000000000
20
-5.0000000000
30
0.0000000000
11
0.0000000000
21
0.0000000000
31
0.0000000000
1001
DSTP_XDATA
1002
{
1000
_OWNERHANDLE=0000000064
1002
}
0
LINE
5
202
100
AcDbEntity
8
TABLE
100
AcDbLine
6
Continuous
10
4.0000000000
20
-5.0000000000
30
0.0000000000
11
4.0000000000
21
0.0000000000
31
0.0000000000
1001
DSTP_XDATA
1002
{
1000
_OWNERHANDLE=0000000064
1002
}
0
LINE
5
203
100
AcDbEntity
8
TABLE
100
AcDbLine
6
Continuous
10
8.0000000000
20
-5.0000000000
30
0.0000000000
11
8.0000000000
21
0.0000000000
31
0.0000000000
1001
DSTP_XDATA
1002
{
1000
_OWNERHANDLE=0000000064
1002
}
0
LINE
5
204
100
AcDbEntity
8
TABLE
100
AcDbLine
6
Continuous
10
0.0000000000
20
-15.0000000000
30
0.0000000000
11
0.0000000000
21
-10.0000000000
31
0.0000000000
1001
DSTP_XDATA
1002
{
1000
_OWNERHANDLE=0000000064
1002
}
0
LINE
5
205
100
AcDbEntity
8
TABLE
100
AcDbLine
6
Continuous
10
4.0000000000
20
-15.0000000000
30
0.0000000000
11
4.0000000000
21
-10.0000000000
31
0.0000000000
1001
DSTP_XDATA
1002
{
1000
_OWNERHANDLE=0000000064
1002
}
0
LINE
5
206
100
AcDbEntity
8
TABLE
100
AcDbLine
6
Continuous
10
8.0000000000
20
-15.0000000000
30
0.0000000000
11
8.0000000000
21
-10.0000000000
31
0.0000000000
1001
DSTP_XDATA
1002
{
1000
_OWNERHANDLE=0000000064
1002
}
0
LINE
5
207
100
AcDbEntity
8
TABLE
100
AcDbLine
6
Continuous
10
4.0000000000
20
-10.0000000000
30
0.0000000000
11
1.5000000000
21
-5.0000000000
31
0.0000000000
1001
DSTP_XDATA
1002
{
1000
_OWNERHANDLE=0000000064
1002
}
0
LINE
5
208
100
AcDbEntity
8
TABLE
100
AcDbLine
6
Continuous
10
7.9919580000
20
-10.0000000000
30
0.0000000000
11
5.4919580000
21
-5.0000000000
31
0.0000000000
1001
DSTP_XDATA
1002
{
1000
_OWNERHANDLE=0000000064
1002
}
0
LINE
5
209
100
AcDbEntity
8
TABLE
100
AcDbLine
6
Continuous
10
0.0000000000
20
-10.0000000000
30
0.0000000000
11
-2.5000000000
21
-5.0000000000
31
0.0000000000
1001
DSTP_XDATA
1002
{
1000
_OWNERHANDLE=0000000064
1002
}
0
LINE
5
20A
100
AcDbEntity
8
TABLE
100
AcDbLine
6
Continuous
10
-1.5819856968
20
-6.8439282462
30
0.0000000000
11
-2.4753564797
21
-7.2932466956
31
0.0000000000
1001
DSTP_XDATA
1002
{
1000
_OWNERHANDLE=0000000064
1002
}
0
LINE
5
20B
100
AcDbEntity
8
TABLE
100
AcDbLine
6
Continuous
10
-2.4753564797
20
-7.2932466956
30
0.0000000000
11
-1.8013783397
21
-8.6333043809
31
0.0000000000
1001
DSTP_XDATA
1002
{
1000
_OWNERHANDLE=0000000064
1002
}
0
LINE
5
20C
100
AcDbEntity
8
TABLE
100
AcDbLine
6
Continuous
10
-1.8013783397
20
-8.6333043809
30
0.0000000000
11
-0.9080075341
21
-8.1839849317
31
0.0000000000
1001
DSTP_XDATA
1002
{
1000
_OWNERHANDLE=0000000064
1002
}
0
ENDBLK
5
20D
100
AcDbEntity
8
0
100
AcDbBlockEnd
1001
DSTP_XDATA
1002
{
1002
}
0
BLOCK
5
20E
100
AcDbEntity
8
0
100
AcDbBlockBegin
2
DEVICE_EL_VL_UNIT_QF3
70
2
10
0
20
0
30
0
3
DEVICE_EL_VL_UNIT_QF3
1

0
MTEXT
5
20F
100
AcDbEntity
8
FORMAT
100
AcDbMText
6
ByLayer
10
-6.0000000000
20
-7.5000000000
30
0.0000000000
40
2.5000000000
41
15.0000000000
71
5
1
@@[NMO_Prefix]@@[NMO_BaseName]@@[NMO_Suffix]@@[NMO_Affix]@@[VL_Mark]
7
MtXpl_ISOCPEUR
11
0.0000000000
21
1.0000000000
31
0.0000000000
73
2
44
0.9000000000
1001
DSTP_XDATA
1002
{
1000
_TMPL1=
1000
_OWNERHANDLE=0000000064
1002
}
0
ENDBLK
5
210
100
AcDbEntity
8
0
100
AcDbBlockEnd
1001
DSTP_XDATA
1002
{
1002
}
0
BLOCK
5
211
100
AcDbEntity
8
0
100
AcDbBlockBegin
2
EL_VL_UNIT_QF3
70
2
10
0
20
0
30
0
3
EL_VL_UNIT_QF3
1

0
LINE
5
212
100
AcDbEntity
8
TABLE
100
AcDbLine
6
Continuous
10
-0.7000000000
20
-5.7000000000
30
0.0000000000
11
0.0000000000
21
-5.0000000000
31
0.0000000000
1001
DSTP_XDATA
1002
{
1000
_OWNERHANDLE=0000000064
1002
}
0
LINE
5
213
100
AcDbEntity
8
TABLE
100
AcDbLine
6
Continuous
10
-0.7000000000
20
-4.3000000000
30
0.0000000000
11
0.0000000000
21
-5.0000000000
31
0.0000000000
1001
DSTP_XDATA
1002
{
1000
_OWNERHANDLE=0000000064
1002
}
0
LINE
5
214
100
AcDbEntity
8
TABLE
100
AcDbLine
6
Continuous
10
0.7000000000
20
-4.3000000000
30
0.0000000000
11
0.0000000000
21
-5.0000000000
31
0.0000000000
1001
DSTP_XDATA
1002
{
1000
_OWNERHANDLE=0000000064
1002
}
0
LINE
5
215
100
AcDbEntity
8
TABLE
100
AcDbLine
6
Continuous
10
0.7000000000
20
-5.7000000000
30
0.0000000000
11
0.0000000000
21
-5.0000000000
31
0.0000000000
1001
DSTP_XDATA
1002
{
1000
_OWNERHANDLE=0000000064
1002
}
0
TEXT
5
216
100
AcDbEntity
8
FORMAT
100
AcDbText
6
ByLayer
11
-0.4543052018
21
-0.9086104035
31
0.0000000000
10
-0.9086104035
20
-1.8172208071
30
0.0000000000
40
1.3642369956
50
90.0000000000
41
1.0000000000
51
0.0000000000
72
1
7
MtXpl_ISOCPEUR
1
I >
100
AcDbText
73
0
1001
DSTP_XDATA
1002
{
1000
_TMPL1=
1000
_OWNERHANDLE=0000000064
1002
}
0
LINE
5
217
100
AcDbEntity
8
TABLE
100
AcDbLine
6
Continuous
10
0.0000000000
20
-5.0000000000
30
0.0000000000
11
0.0000000000
21
0.0000000000
31
0.0000000000
1001
DSTP_XDATA
1002
{
1000
_OWNERHANDLE=0000000064
1002
}
0
LINE
5
218
100
AcDbEntity
8
TABLE
100
AcDbLine
6
Continuous
10
0.0000000000
20
-15.0000000000
30
0.0000000000
11
0.0000000000
21
-10.0000000000
31
0.0000000000
1001
DSTP_XDATA
1002
{
1000
_OWNERHANDLE=0000000064
1002
}
0
LINE
5
219
100
AcDbEntity
8
TABLE
100
AcDbLine
6
Continuous
10
0.0000000000
20
-10.0000000000
30
0.0000000000
11
-2.5000000000
21
-5.0000000000
31
0.0000000000
1001
DSTP_XDATA
1002
{
1000
_OWNERHANDLE=0000000064
1002
}
0
LINE
5
21A
100
AcDbEntity
8
TABLE
100
AcDbLine
6
Continuous
10
-1.5800311414
20
-6.8439686364
30
0.0000000000
11
-2.4741177092
21
-7.2918610722
31
0.0000000000
1001
DSTP_XDATA
1002
{
1000
_OWNERHANDLE=0000000064
1002
}
0
LINE
5
21B
100
AcDbEntity
8
TABLE
100
AcDbLine
6
Continuous
10
-2.4741177092
20
-7.2918610722
30
0.0000000000
11
-1.8022785920
21
-8.6329924355
31
0.0000000000
1001
DSTP_XDATA
1002
{
1000
_OWNERHANDLE=0000000064
1002
}
0
LINE
5
21C
100
AcDbEntity
8
TABLE
100
AcDbLine
6
Continuous
10
-1.8022785920
20
-8.6329924355
30
0.0000000000
11
-0.9081920000
21
-8.1850990000
31
0.0000000000
1001
DSTP_XDATA
1002
{
1000
_OWNERHANDLE=0000000064
1002
}
0
ENDBLK
5
21D
100
AcDbEntity
8
0
100
AcDbBlockEnd
1001
DSTP_XDATA
1002
{
1002
}
0
ENDSEC
0
SECTION
2
ENTITIES
0
ENDSEC
0
SECTION
2
OBJECTS
0
DICTIONARY
5
21E
330
3
100
AcDbDictionary
281
1
3
ACAD_COLOR
350
21F
3
ACAD_GROUP
350
220
3
ACAD_LAYOUT
350
221
3
ACAD_MATERIAL
350
222
3
ACAD_MLINESTYLE
350
223
3
ACAD_PLOTSETTINGS
350
224
3
ACAD_PLOTSTYLENAME
350
225
3
ACAD_TABLESTYLE
350
226
3
ACDBHEADERROUNDTRIPXREC
350
227
3
AcDbVariableDictionary
350
228
3
DWGPROPS
350
229
0
DICTIONARY
5
10
330
F
100
AcDbDictionary
280
1
281
1
3
ACAD_LAYERFILTERS
360
22A
3
ACAD_LAYERSTATES
360
22B
3
ACLYDICTIONARY
360
22C
0
DICTIONARY
5
21F
102
{ACAD_REACTORS
330
21E
102
}
330
21E
100
AcDbDictionary
281
1
0
DICTIONARY
5
220
102
{ACAD_REACTORS
330
21E
102
}
330
21E
100
AcDbDictionary
281
1
0
DICTIONARY
5
221
102
{ACAD_REACTORS
330
21E
102
}
330
21E
100
AcDbDictionary
281
1
3
Layout1
350
3A
3
Layout2
350
3C
3
Model
350
38
0
DICTIONARY
5
222
102
{ACAD_REACTORS
330
21E
102
}
330
21E
100
AcDbDictionary
281
1
0
DICTIONARY
5
223
102
{ACAD_REACTORS
330
21E
102
}
330
21E
100
AcDbDictionary
281
1
3
Standard
350
22D
0
DICTIONARY
5
224
102
{ACAD_REACTORS
330
21E
102
}
330
21E
100
AcDbDictionary
281
1
0
ACDBDICTIONARYWDFLT
5
225
102
{ACAD_REACTORS
330
21E
102
}
330
21E
100
AcDbDictionary
281
1
3
Normal
350
12
100
AcDbDictionaryWithDefault
340
12
0
DICTIONARY
5
226
102
{ACAD_REACTORS
330
21E
102
}
330
21E
100
AcDbDictionary
281
1
3
Standard
350
22E
0
DICTIONARY
5
227
102
{ACAD_REACTORS
330
21E
102
}
330
21E
100
AcDbDictionary
281
1
0
DICTIONARY
5
228
102
{ACAD_REACTORS
330
21E
102
}
330
21E
100
AcDbDictionary
281
1
3
CTABLESTYLE
350
22F
3
DIMASSOC
350
230
3
HIDETEXT
350
231
3
PROJECTNAME
350
232
0
XRECORD
5
229
102
{ACAD_REACTORS
330
21E
102
}
330
21E
100
AcDbXrecord
280
1
1
DWGPROPS COOKIE
2

3

4

6

7

8
Autodesk
9

300
=
301
=
302
=
303
=
304
=
305
=
306
=
307
=
308
=
309
=
40
0.0121102546296296
41
2455008.558453229
42
2455694.624051458
1

90
0
0
DICTIONARY
5
22A
102
{ACAD_REACTORS
330
10
102
}
330
10
100
AcDbDictionary
281
1
0
DICTIONARY
5
22B
102
{ACAD_REACTORS
330
10
102
}
330
10
100
AcDbDictionary
281
1
0
DICTIONARY
5
22C
102
{ACAD_REACTORS
330
10
102
}
330
10
100
AcDbDictionary
281
1
1001
ACAD
1000
<All
0
LAYOUT
5
3A
102
{ACAD_XDICTIONARY
360
233
102
}
102
{ACAD_REACTORS
330
221
102
}
330
221
100
AcDbPlotSettings
1

2
C:\Documents and Settings\basas\Application Data\Autodesk\AutoCAD 2005\R16.1\enu\plotters\Default Windows System Printer.pc3
4

6

40
0.0
41
0.0
42
0.0
43
0.0
44
0.0
45
0.0
46
0.0
47
0.0
48
0.0
49
0.0
140
0.0
141
0.0
142
1.0
143
1.0
70
688
72
0
73
0
74
5
7

75
16
147
1.0
148
0.0
149
0.0
100
AcDbLayout
1
Layout1
70
1
71
1
10
0.0
20
0.0
11
12.0
21
9.0
12
0.0
22
0.0
32
0.0
14
0.0
24
0.0
34
0.0
15
0.0
25
0.0
35
0.0
146
0.0
13
0.0
23
0.0
33
0.0
16
1.0
26
0.0
36
0.0
17
0.0
27
1.0
37
0.0
76
0
330
39
0
LAYOUT
5
3C
102
{ACAD_XDICTIONARY
360
234
102
}
102
{ACAD_REACTORS
330
221
102
}
330
221
100
AcDbPlotSettings
1

2
C:\Documents and Settings\basas\Application Data\Autodesk\AutoCAD 2005\R16.1\enu\plotters\Default Windows System Printer.pc3
4

6

40
0.0
41
0.0
42
0.0
43
0.0
44
0.0
45
0.0
46
0.0
47
0.0
48
0.0
49
0.0
140
0.0
141
0.0
142
1.0
143
1.0
70
688
72
0
73
0
74
5
7

75
16
147
1.0
148
0.0
149
0.0
100
AcDbLayout
1
Layout2
70
1
71
2
10
0.0
20
0.0
11
12.0
21
9.0
12
0.0
22
0.0
32
0.0
14
0.0
24
0.0
34
0.0
15
0.0
25
0.0
35
0.0
146
0.0
13
0.0
23
0.0
33
0.0
16
1.0
26
0.0
36
0.0
17
0.0
27
1.0
37
0.0
76
0
330
3B
0
LAYOUT
5
38
102
{ACAD_XDICTIONARY
360
235
102
}
102
{ACAD_REACTORS
330
221
102
}
330
221
100
AcDbPlotSettings
1

2
none_device
4
ISO_A4_(210.00_x_297.00_MM)
6

40
7.5
41
20.0
42
7.5
43
20.0
44
210.0
45
297.0
46
11.54999923706054
47
-13.65000009536743
48
0.0
49
0.0
140
0.0
141
0.0
142
1.0
143
8.704084754739808
70
11952
72
1
73
0
74
0
7

75
0
147
0.1148885871608098
148
0.0
149
0.0
100
AcDbLayout
1
Model
70
1
71
0
10
0.0
20
0.0
11
12.0
21
9.0
12
0.0
22
0.0
32
0.0
14
0.0
24
0.0
34
0.0
15
0.0
25
0.0
35
0.0
146
0.0
13
0.0
23
0.0
33
0.0
16
1.0
26
0.0
36
0.0
17
0.0
27
1.0
37
0.0
76
0
330
37
1001
ACAD_PSEXT
1000
None
1000
None
1000
Not applicable
1000
The layout will not be plotted unless a new plotter configuration name is selected.
1070
0
0
MLINESTYLE
5
22D
102
{ACAD_REACTORS
330
223
102
}
330
223
100
AcDbMlineStyle
2
STANDARD
70
0
3

62
256
51
90.0
52
90.0
71
2
49
0.5
62
256
6
BYLAYER
49
-0.5
62
256
6
BYLAYER
0
ACDBPLACEHOLDER
5
12
102
{ACAD_REACTORS
330
225
102
}
330
225
0
TABLESTYLE
5
22E
102
{ACAD_REACTORS
330
226
102
}
330
226
100
AcDbTableStyle
3
Standard
70
0
71
0
40
1.5
41
1.5
280
0
281
0
7
Standard
140
4.5
170
2
62
0
63
7
283
0
274
-2
284
1
64
0
275
-2
285
1
65
0
276
-2
286
1
66
0
277
-2
287
1
67
0
278
-2
288
1
68
0
279
-2
289
1
69
0
7
Standard
140
6.0
170
5
62
0
63
7
283
0
274
-2
284
1
64
0
275
-2
285
1
65
0
276
-2
286
1
66
0
277
-2
287
1
67
0
278
-2
288
1
68
0
279
-2
289
1
69
0
7
Standard
140
4.5
170
5
62
0
63
7
283
0
274
-2
284
1
64
0
275
-2
285
1
65
0
276
-2
286
1
66
0
277
-2
287
1
67
0
278
-2
288
1
68
0
279
-2
289
1
69
0
0
DICTIONARYVAR
5
22F
102
{ACAD_REACTORS
330
228
102
}
330
228
100
DictionaryVariables
280
0
1
STANDARD
0
DICTIONARYVAR
5
230
102
{ACAD_REACTORS
330
228
102
}
330
228
100
DictionaryVariables
280
0
1
2
0
DICTIONARYVAR
5
231
102
{ACAD_REACTORS
330
228
102
}
330
228
100
DictionaryVariables
280
0
1
1
0
DICTIONARYVAR
5
232
102
{ACAD_REACTORS
330
228
102
}
330
228
100
DictionaryVariables
280
0
1

0
DICTIONARY
5
233
330
3A
100
AcDbDictionary
280
1
281
1
3
ACAD_XREC_ROUNDTRIP
360
236
0
DICTIONARY
5
234
330
3C
100
AcDbDictionary
280
1
281
1
3
ACAD_XREC_ROUNDTRIP
360
237
0
DICTIONARY
5
235
330
38
100
AcDbDictionary
280
1
281
1
3
ACAD_XREC_ROUNDTRIP
360
238
0
XRECORD
5
236
102
{ACAD_REACTORS
330
233
102
}
330
233
100
AcDbXrecord
280
1
102
SHADEPLOT
70
0
102
SHADEPLOTRESLEVEL
70
2
102
SHADEPLOTCUSTOMDPI
70
300
0
XRECORD
5
237
102
{ACAD_REACTORS
330
234
102
}
330
234
100
AcDbXrecord
280
1
102
SHADEPLOT
70
0
102
SHADEPLOTRESLEVEL
70
2
102
SHADEPLOTCUSTOMDPI
70
300
0
XRECORD
5
238
102
{ACAD_REACTORS
330
235
102
}
330
235
100
AcDbXrecord
280
1
102
SHADEPLOT
70
0
102
SHADEPLOTRESLEVEL
70
2
102
SHADEPLOTCUSTOMDPI
70
300
0
ENDSEC
0
EOF
